<svg width="64" height="83" viewBox="0 0 64 83" fill="none" xmlns="http://www.w3.org/2000/svg">
<g clip-path="url(#clip0)">
<path d="M60.8 82.799H3.2C1.43269 82.799 0 81.3663 0 79.599V3.19902C0 1.43171 1.43269 -0.000976562 3.2 -0.000976562H45.1629C45.9574 -0.000976562 46.7234 0.294596 47.312 0.828137C47.3132 0.829162 47.3143 0.830188 47.3154 0.831215L62.9526 15.0468C62.9572 15.051 62.9617 15.0552 62.9663 15.0594C63.6249 15.6651 64 16.5192 64 17.4146V79.599C64 81.3663 62.5673 82.799 60.8 82.799Z" fill="#242526"/>
<path fill-rule="evenodd" clip-rule="evenodd" d="M46.2381 2.01416L46.2374 2.01358C45.9431 1.74681 45.5601 1.59902 45.1629 1.59902H3.2C2.31634 1.59902 1.6 2.31537 1.6 3.19902V79.599C1.6 80.4827 2.31635 81.199 3.2 81.199H60.8C61.6837 81.199 62.4 80.4827 62.4 79.599V17.4146C62.4 16.9669 62.2124 16.5399 61.8832 16.237L61.8765 16.2309L46.2391 2.01512L46.2381 2.01416ZM62.9526 15.0468L47.312 0.828137C46.7234 0.294596 45.9574 -0.000976562 45.1629 -0.000976562H3.2C1.43269 -0.000976562 0 1.43171 0 3.19902V79.599C0 81.3663 1.43269 82.799 3.2 82.799H60.8C62.5673 82.799 64 81.3663 64 79.599V17.4146C64 16.5192 63.6249 15.6651 62.9663 15.0594L62.9526 15.0468Z" fill="#BE535A"/>
<g opacity="0.19">
<mask id="mask0" mask-type="alpha" maskUnits="userSpaceOnUse" x="46" y="7" width="28" height="27">
<path d="M46.7998 15.9017L53.9712 7.99904L73.8785 26.0642L66.7071 33.9669L46.7998 15.9017Z" fill="url(#paint0_linear)"/>
</mask>
<g mask="url(#mask0)">
<path d="M1.0668 83.5495H61.8668C62.7505 83.5495 63.4668 82.8332 63.4668 81.9495V17.1034C63.4668 16.878 63.3717 16.6631 63.2049 16.5115L46.0956 0.95756C45.9484 0.823689 45.7565 0.749512 45.5575 0.749512H1.0668C0.183141 0.749512 -0.533203 1.46585 -0.533203 2.34951V81.9495C-0.533203 82.8332 0.18314 83.5495 1.0668 83.5495Z" fill="url(#paint1_linear)" style="mix-blend-mode:multiply"/>
</g>
</g>
<path d="M47.6 16.3991H63.2L46 0.799072V14.7991C46 15.6827 46.7163 16.3991 47.6 16.3991Z" fill="#BE535A"/>
<path fill-rule="evenodd" clip-rule="evenodd" d="M45.8381 0.433344C45.9827 0.369242 46.1516 0.396458 46.2688 0.502768L63.4688 16.1028C63.5913 16.2138 63.6328 16.3888 63.5733 16.5431C63.5137 16.6973 63.3654 16.7991 63.2001 16.7991H47.6001C46.4955 16.7991 45.6001 15.9036 45.6001 14.7991V0.799056C45.6001 0.640813 45.6934 0.497445 45.8381 0.433344ZM46.4001 1.70186V14.7991C46.4001 15.4618 46.9374 15.9991 47.6001 15.9991H62.1637L46.4001 1.70186Z" fill="#BE535A"/>
<path d="M23.7231 66.6757C24.2943 66.8208 24.7295 67.0973 25.0287 67.5053C25.3369 67.9043 25.4911 68.4029 25.4911 69.0013C25.4911 69.8264 25.1873 70.4837 24.5799 70.9733C23.9724 71.4629 23.1519 71.7077 22.1183 71.7077C21.5289 71.7077 20.9623 71.6171 20.4183 71.4357C19.8743 71.2544 19.4119 71.0005 19.0311 70.6741C18.8225 70.4928 18.7183 70.2797 18.7183 70.0349C18.7183 69.8355 18.7727 69.6677 18.8815 69.5317C18.9993 69.3867 19.1353 69.3141 19.2895 69.3141C19.3801 69.3141 19.4617 69.3323 19.5343 69.3685C19.6068 69.3957 19.7065 69.4456 19.8335 69.5181C20.2143 69.772 20.5769 69.9669 20.9215 70.1029C21.266 70.2389 21.6423 70.3069 22.0503 70.3069C22.6487 70.3069 23.0929 70.1891 23.3831 69.9533C23.6732 69.7085 23.8183 69.3413 23.8183 68.8517C23.8183 68.3712 23.6641 68.0176 23.3559 67.7909C23.0567 67.5552 22.5897 67.4373 21.9551 67.4373H21.1799C20.9713 67.4373 20.8081 67.3693 20.6903 67.2333C20.5815 67.0883 20.5271 66.9251 20.5271 66.7437C20.5271 66.5533 20.5815 66.3901 20.6903 66.2541C20.8081 66.1181 20.9713 66.0501 21.1799 66.0501H21.7239C22.966 66.0501 23.5871 65.5832 23.5871 64.6493C23.5871 64.2142 23.4556 63.8787 23.1927 63.6429C22.9297 63.4072 22.5671 63.2894 22.1047 63.2894C21.4428 63.2894 20.7356 63.5523 19.9831 64.0781C19.8561 64.1507 19.7564 64.2051 19.6839 64.2414C19.6113 64.2685 19.5297 64.2821 19.4391 64.2821C19.2849 64.2821 19.1489 64.2141 19.0311 64.0781C18.9223 63.9331 18.8679 63.7608 18.8679 63.5613C18.8679 63.4254 18.8905 63.312 18.9359 63.2213C18.9903 63.1216 19.0719 63.0219 19.1807 62.9222C19.5615 62.6048 20.0148 62.3555 20.5407 62.1742C21.0756 61.9838 21.6196 61.8885 22.1727 61.8885C23.1156 61.8885 23.8636 62.1197 24.4167 62.5821C24.9788 63.0445 25.2599 63.6611 25.2599 64.4317C25.2508 64.9576 25.1103 65.42 24.8383 65.8189C24.5753 66.2088 24.2036 66.4944 23.7231 66.6757Z" fill="#BE535A"/>
<path d="M34.9378 66.4173C35.1463 66.4173 35.314 66.4808 35.441 66.6077C35.5679 66.7256 35.6314 66.8843 35.6314 67.0837V70.0077C35.6314 70.4248 35.577 70.7195 35.4682 70.8917C35.3594 71.064 35.1372 71.2045 34.8018 71.3133C34.4391 71.4403 34.0175 71.54 33.537 71.6125C33.0564 71.6851 32.594 71.7213 32.1498 71.7213C31.1615 71.7213 30.3047 71.5264 29.5794 71.1365C28.854 70.7467 28.2964 70.1845 27.9066 69.4501C27.5258 68.7067 27.3354 67.8227 27.3354 66.7981C27.3354 65.7917 27.5258 64.9213 27.9066 64.1869C28.2964 63.4435 28.845 62.8768 29.5522 62.487C30.2594 62.088 31.0935 61.8885 32.0546 61.8885C33.333 61.8885 34.3802 62.2331 35.1962 62.9222C35.305 63.0219 35.382 63.1216 35.4274 63.2213C35.4818 63.3211 35.509 63.4389 35.509 63.5749C35.509 63.7744 35.4546 63.9421 35.3458 64.0781C35.237 64.2141 35.1055 64.2821 34.9514 64.2821C34.8516 64.2821 34.761 64.2685 34.6794 64.2414C34.5978 64.2051 34.5026 64.1507 34.3938 64.0781C33.9948 63.7971 33.6231 63.6021 33.2786 63.4933C32.934 63.3755 32.5442 63.3165 32.109 63.3165C31.1207 63.3165 30.3727 63.6112 29.865 64.2005C29.3663 64.7808 29.117 65.6467 29.117 66.7981C29.117 69.1555 30.1506 70.3341 32.2178 70.3341C32.8343 70.3341 33.4508 70.248 34.0674 70.0757V67.6685H32.5306C32.313 67.6685 32.1407 67.6141 32.0138 67.5053C31.8959 67.3965 31.837 67.2424 31.837 67.0429C31.837 66.8435 31.8959 66.6893 32.0138 66.5805C32.1407 66.4717 32.313 66.4173 32.5306 66.4173H34.9378Z" fill="#BE535A"/>
<path d="M38.7512 71.6805C38.4882 71.6805 38.2752 71.6035 38.112 71.4493C37.9578 71.2861 37.8808 71.0685 37.8808 70.7965V62.8405C37.8808 62.5776 37.9533 62.3736 38.0984 62.2286C38.2525 62.0835 38.461 62.011 38.724 62.011H42.0696C43.0941 62.011 43.892 62.2694 44.4632 62.7862C45.0344 63.2939 45.32 64.0102 45.32 64.935C45.32 65.8597 45.0344 66.5805 44.4632 67.0973C43.892 67.6141 43.0941 67.8725 42.0696 67.8725H39.6352V70.7965C39.6352 71.0685 39.5536 71.2861 39.3904 71.4493C39.2362 71.6035 39.0232 71.6805 38.7512 71.6805ZM41.852 66.5261C43.0578 66.5261 43.6608 66.0003 43.6608 64.9485C43.6608 63.8968 43.0578 63.3709 41.852 63.3709H39.6352V66.5261H41.852Z" fill="#BE535A"/>
<g clip-path="url(#clip1)">
<path d="M46.4 25.599H24C23.5757 25.599 23.1687 25.7676 22.8686 26.0676C22.5686 26.3677 22.4 26.7747 22.4 27.199V31.999H30.4V28.799H40V44.799H46.4C46.8243 44.799 47.2313 44.6304 47.5314 44.3304C47.8314 44.0303 48 43.6233 48 43.199V27.199C48 26.7747 47.8314 26.3677 47.5314 26.0676C47.2313 25.7676 46.8243 25.599 46.4 25.599V25.599ZM27.6 30.749C27.6 30.8683 27.5526 30.9828 27.4682 31.0672C27.3838 31.1516 27.2693 31.199 27.15 31.199H25.65C25.5307 31.199 25.4162 31.1516 25.3318 31.0672C25.2474 30.9828 25.2 30.8683 25.2 30.749V29.249C25.2 29.1297 25.2474 29.0152 25.3318 28.9308C25.4162 28.8464 25.5307 28.799 25.65 28.799H27.15C27.2693 28.799 27.3838 28.8464 27.4682 28.9308C27.5526 29.0152 27.6 29.1297 27.6 29.249V30.749ZM45.2 41.149C45.2 41.2683 45.1526 41.3828 45.0682 41.4672C44.9838 41.5516 44.8693 41.599 44.75 41.599H43.25C43.1307 41.599 43.0162 41.5516 42.9318 41.4672C42.8474 41.3828 42.8 41.2683 42.8 41.149V39.649C42.8 39.5297 42.8474 39.4152 42.9318 39.3308C43.0162 39.2464 43.1307 39.199 43.25 39.199H44.75C44.8693 39.199 44.9838 39.2464 45.0682 39.3308C45.1526 39.4152 45.2 39.5297 45.2 39.649V41.149ZM45.2 35.949C45.2 36.0683 45.1526 36.1828 45.0682 36.2672C44.9838 36.3516 44.8693 36.399 44.75 36.399H43.25C43.1307 36.399 43.0162 36.3516 42.9318 36.2672C42.8474 36.1828 42.8 36.0683 42.8 35.949V34.449C42.8 34.3297 42.8474 34.2152 42.9318 34.1308C43.0162 34.0464 43.1307 33.999 43.25 33.999H44.75C44.8693 33.999 44.9838 34.0464 45.0682 34.1308C45.1526 34.2152 45.2 34.3297 45.2 34.449V35.949ZM45.2 30.749C45.2 30.8683 45.1526 30.9828 45.0682 31.0672C44.9838 31.1516 44.8693 31.199 44.75 31.199H43.25C43.1307 31.199 43.0162 31.1516 42.9318 31.0672C42.8474 30.9828 42.8 30.8683 42.8 30.749V29.249C42.8 29.1297 42.8474 29.0152 42.9318 28.9308C43.0162 28.8464 43.1307 28.799 43.25 28.799H44.75C44.8693 28.799 44.9838 28.8464 45.0682 28.9308C45.1526 29.0152 45.2 29.1297 45.2 29.249V30.749ZM36.8 33.599H17.6C17.1757 33.599 16.7687 33.7676 16.4686 34.0676C16.1686 34.3677 16 34.7747 16 35.199V49.599C16 50.0233 16.1686 50.4303 16.4686 50.7304C16.7687 51.0304 17.1757 51.199 17.6 51.199H36.8C37.2243 51.199 37.6313 51.0304 37.9314 50.7304C38.2314 50.4303 38.4 50.0233 38.4 49.599V35.199C38.4 34.7747 38.2314 34.3677 37.9314 34.0676C37.6313 33.7676 37.2243 33.599 36.8 33.599ZM20.8 36.799C21.1165 36.799 21.4258 36.8928 21.6889 37.0686C21.952 37.2445 22.1571 37.4943 22.2782 37.7867C22.3993 38.0791 22.431 38.4008 22.3693 38.7111C22.3075 39.0215 22.1551 39.3066 21.9314 39.5304C21.7076 39.7541 21.4225 39.9065 21.1121 39.9683C20.8018 40.03 20.4801 39.9983 20.1877 39.8772C19.8953 39.7561 19.6455 39.551 19.4696 39.2879C19.2938 39.0248 19.2 38.7154 19.2 38.399C19.2 37.9747 19.3686 37.5677 19.6686 37.2676C19.9687 36.9676 20.3757 36.799 20.8 36.799ZM35.2 47.999H19.2V46.399L22.4 43.199L24 44.799L30.4 38.399L35.2 43.199V47.999Z" fill="#363739"/>
</g>
</g>
<defs>
<linearGradient id="paint0_linear" x1="50.3855" y1="11.9504" x2="70.2928" y2="30.0155" gradientUnits="userSpaceOnUse">
<stop stop-color="#C7D3DA"/>
<stop offset="0.338542" stop-color="#C7D3DA" stop-opacity="0.739583"/>
<stop offset="0.640625" stop-color="#C7D3DA" stop-opacity="0.326115"/>
<stop offset="1" stop-color="#C7D3DA" stop-opacity="0"/>
</linearGradient>
<linearGradient id="paint1_linear" x1="46.0668" y1="9.34953" x2="59.8668" y2="30.7495" gradientUnits="userSpaceOnUse">
<stop stop-color="#5F6165"/>
<stop offset="0.489583" stop-color="#5F6165" stop-opacity="0.635417"/>
<stop offset="1" stop-color="#5F6165" stop-opacity="0"/>
</linearGradient>
<clipPath id="clip0">
<rect width="64" height="82.8" fill="white" transform="translate(0 -0.000976562)"/>
</clipPath>
<clipPath id="clip1">
<rect width="32" height="25.6" fill="white" transform="translate(16 25.599)"/>
</clipPath>
</defs>
</svg>
