<svg width="64" height="83" viewBox="0 0 64 83" fill="none" xmlns="http://www.w3.org/2000/svg">
<g clip-path="url(#clip0)">
<path d="M60.8 82.9992H3.2C1.43269 82.9992 0 81.5665 0 79.7992V3.39922C0 1.63191 1.43269 0.199219 3.2 0.199219H45.1629C45.9574 0.199219 46.7234 0.494791 47.312 1.02833C47.3132 1.02936 47.3143 1.03038 47.3154 1.03141L62.9526 15.247C62.9572 15.2512 62.9617 15.2554 62.9663 15.2596C63.6249 15.8653 64 16.7194 64 17.6148V79.7992C64 81.5665 62.5673 82.9992 60.8 82.9992Z" fill="#242526"/>
<path fill-rule="evenodd" clip-rule="evenodd" d="M46.2381 2.21436L46.2374 2.21377C45.9431 1.94701 45.5601 1.79922 45.1629 1.79922H3.2C2.31634 1.79922 1.6 2.51556 1.6 3.39922V79.7992C1.6 80.6829 2.31635 81.3992 3.2 81.3992H60.8C61.6837 81.3992 62.4 80.6829 62.4 79.7992V17.6148C62.4 17.1671 62.2124 16.7401 61.8832 16.4372L61.8765 16.4311L46.2391 2.21531L46.2381 2.21436ZM62.9526 15.247L47.312 1.02833C46.7234 0.494791 45.9574 0.199219 45.1629 0.199219H3.2C1.43269 0.199219 0 1.63191 0 3.39922V79.7992C0 81.5665 1.43269 82.9992 3.2 82.9992H60.8C62.5673 82.9992 64 81.5665 64 79.7992V17.6148C64 16.7194 63.6249 15.8653 62.9663 15.2596L62.9526 15.247Z" fill="#EBAE64"/>
<g opacity="0.19">
<mask id="mask0" mask-type="alpha" maskUnits="userSpaceOnUse" x="46" y="8" width="28" height="27">
<rect x="46.7998" y="16.1019" width="10.6715" height="26.8821" transform="rotate(-47.7774 46.7998 16.1019)" fill="url(#paint0_linear)"/>
</mask>
<g mask="url(#mask0)">
<path d="M3.4668 83.7497H59.4668C61.6759 83.7497 63.4668 81.9588 63.4668 79.7497V17.8344C63.4668 17.2709 63.2291 16.7336 62.8121 16.3545L46.4389 1.46977C46.0708 1.13509 45.5911 0.949646 45.0936 0.949646H3.4668C1.25766 0.949646 -0.533203 2.74051 -0.533203 4.94964V79.7497C-0.533203 81.9588 1.25766 83.7497 3.4668 83.7497Z" fill="url(#paint1_linear)" style="mix-blend-mode:multiply"/>
</g>
</g>
<path d="M47.6 16.5992H63.2L46 0.999207V14.9992C46 15.8829 46.7163 16.5992 47.6 16.5992Z" fill="#EBAE64"/>
<path d="M27.1025 70.7519C27.1569 70.8698 27.1841 70.9877 27.1841 71.1055C27.1841 71.3141 27.098 71.4909 26.9257 71.6359C26.7625 71.781 26.5721 71.8535 26.3545 71.8535C26.2095 71.8535 26.0735 71.8173 25.9465 71.7447C25.8196 71.6631 25.7199 71.5407 25.6473 71.3775L24.8313 69.5551H20.0441L19.2281 71.3775C19.1556 71.5407 19.0559 71.6631 18.9289 71.7447C18.802 71.8173 18.6615 71.8535 18.5073 71.8535C18.2988 71.8535 18.1084 71.781 17.9361 71.6359C17.7639 71.4909 17.6777 71.3141 17.6777 71.1055C17.6777 70.9877 17.7049 70.8698 17.7593 70.7519L21.5129 62.6871C21.5945 62.5058 21.7169 62.3698 21.8801 62.2791C22.0524 62.1794 22.2337 62.1295 22.4241 62.1295C22.6145 62.1295 22.7913 62.1794 22.9545 62.2791C23.1268 62.3698 23.2537 62.5058 23.3353 62.6871L27.1025 70.7519ZM20.6425 68.1951H24.2329L22.4377 64.1559L20.6425 68.1951Z" fill="#EBAE64"/>
<path d="M37.4683 70.7519C37.5227 70.8698 37.5499 70.9877 37.5499 71.1055C37.5499 71.3141 37.4637 71.4909 37.2915 71.6359C37.1283 71.781 36.9379 71.8535 36.7203 71.8535C36.5752 71.8535 36.4392 71.8173 36.3123 71.7447C36.1854 71.6631 36.0856 71.5407 36.0131 71.3775L35.1971 69.5551H30.4099L29.5939 71.3775C29.5214 71.5407 29.4216 71.6631 29.2947 71.7447C29.1678 71.8173 29.0272 71.8535 28.8731 71.8535C28.6646 71.8535 28.4742 71.781 28.3019 71.6359C28.1296 71.4909 28.0435 71.3141 28.0435 71.1055C28.0435 70.9877 28.0707 70.8698 28.1251 70.7519L31.8787 62.6871C31.9603 62.5058 32.0827 62.3698 32.2459 62.2791C32.4182 62.1794 32.5995 62.1295 32.7899 62.1295C32.9803 62.1295 33.1571 62.1794 33.3203 62.2791C33.4926 62.3698 33.6195 62.5058 33.7011 62.6871L37.4683 70.7519ZM31.0083 68.1951H34.5987L32.8035 64.1559L31.0083 68.1951Z" fill="#EBAE64"/>
<path d="M43.1222 71.9215C42.1974 71.9215 41.3859 71.7221 40.6878 71.3231C39.9987 70.9242 39.4683 70.353 39.0966 69.6095C38.7248 68.8661 38.539 67.9957 38.539 66.9983C38.539 66.001 38.7248 65.1351 39.0966 64.4007C39.4683 63.6573 39.9987 63.0861 40.6878 62.6871C41.3859 62.2882 42.1974 62.0887 43.1222 62.0887C43.7206 62.0887 44.2827 62.1794 44.8086 62.3607C45.3344 62.533 45.8014 62.7869 46.2094 63.1223C46.3272 63.213 46.4088 63.3082 46.4542 63.4079C46.4995 63.5077 46.5222 63.6301 46.5222 63.7751C46.5222 63.9746 46.4678 64.1423 46.359 64.2783C46.2502 64.4143 46.1187 64.4823 45.9646 64.4823C45.7832 64.4823 45.5974 64.4189 45.407 64.2919C45.0171 64.0018 44.6544 63.8023 44.319 63.6935C43.9835 63.5757 43.6118 63.5167 43.2038 63.5167C42.2608 63.5167 41.5446 63.8114 41.055 64.4007C40.5744 64.9901 40.3342 65.8559 40.3342 66.9983C40.3342 68.1498 40.5744 69.0202 41.055 69.6095C41.5446 70.1989 42.2608 70.4935 43.2038 70.4935C43.5936 70.4935 43.9518 70.4346 44.2782 70.3167C44.6136 70.1989 44.9899 69.9994 45.407 69.7183C45.4976 69.6639 45.5883 69.6186 45.679 69.5823C45.7696 69.5461 45.8648 69.5279 45.9646 69.5279C46.1187 69.5279 46.2502 69.5959 46.359 69.7319C46.4678 69.8679 46.5222 70.0357 46.5222 70.2351C46.5222 70.3711 46.4995 70.4935 46.4542 70.6023C46.4088 70.7021 46.3272 70.7973 46.2094 70.8879C45.8014 71.2234 45.3344 71.4818 44.8086 71.6631C44.2827 71.8354 43.7206 71.9215 43.1222 71.9215Z" fill="#EBAE64"/>
<path d="M38.4004 34.1353V42.2281C37.7903 41.8759 37.0811 41.7348 36.3827 41.8268C35.6843 41.9187 35.0357 42.2386 34.5376 42.7367C34.0395 43.2348 33.7197 43.8834 33.6278 44.5818C33.5358 45.2802 33.6769 45.9894 34.0291 46.5994C34.3814 47.2095 34.925 47.6863 35.5759 47.9558C36.2267 48.2254 36.9482 48.2727 37.6287 48.0904C38.3091 47.908 38.9104 47.5063 39.3392 46.9474C39.768 46.3885 40.0004 45.7038 40.0004 44.9993V28.8809C40.0006 28.6755 39.9515 28.4731 39.857 28.2908C39.7625 28.1084 39.6256 27.9514 39.4577 27.8331C39.2898 27.7148 39.0959 27.6386 38.8924 27.611C38.6889 27.5834 38.4817 27.6052 38.2884 27.6745L28.0484 31.3321C27.8002 31.4211 27.5855 31.5846 27.4337 31.8003C27.2819 32.0159 27.2004 32.2732 27.2004 32.5369V43.8265C26.5904 43.4743 25.8812 43.3333 25.1829 43.4252C24.4846 43.5171 23.836 43.8368 23.3379 44.3348C22.8398 44.8328 22.5199 45.4812 22.4278 46.1796C22.3358 46.8779 22.4767 47.5871 22.8287 48.1972C23.1808 48.8072 23.7243 49.2841 24.3749 49.5539C25.0256 49.8236 25.7471 49.8711 26.4275 49.6891C27.1079 49.507 27.7093 49.1055 28.1383 48.5469C28.5673 47.9883 28.8001 47.3037 28.8004 46.5993V37.5641L38.4004 34.1369V34.1353Z" fill="#363739"/>
</g>
<defs>
<linearGradient id="paint0_linear" x1="52.1356" y1="16.1019" x2="52.1356" y2="42.984" gradientUnits="userSpaceOnUse">
<stop stop-color="#C7D3DA"/>
<stop offset="0.338542" stop-color="#C7D3DA" stop-opacity="0.739583"/>
<stop offset="0.640625" stop-color="#C7D3DA" stop-opacity="0.326115"/>
<stop offset="1" stop-color="#C7D3DA" stop-opacity="0"/>
</linearGradient>
<linearGradient id="paint1_linear" x1="46.0668" y1="9.54966" x2="59.8668" y2="30.9497" gradientUnits="userSpaceOnUse">
<stop stop-color="#5F6165"/>
<stop offset="0.489583" stop-color="#5F6165" stop-opacity="0.635417"/>
<stop offset="1" stop-color="#5F6165" stop-opacity="0"/>
</linearGradient>
<clipPath id="clip0">
<rect width="64" height="82.8" fill="white" transform="translate(0 0.199219)"/>
</clipPath>
</defs>
</svg>
