<svg width="64" height="83" viewBox="0 0 64 83" fill="none" xmlns="http://www.w3.org/2000/svg">
<g clip-path="url(#clip0)">
<path d="M60.8 82.9992H3.2C1.43269 82.9992 0 81.5665 0 79.7992V3.39922C0 1.63191 1.43269 0.199219 3.2 0.199219H45.1629C45.9574 0.199219 46.7234 0.494791 47.312 1.02833C47.3132 1.02936 47.3143 1.03038 47.3154 1.03141L62.9526 15.247C62.9572 15.2512 62.9617 15.2554 62.9663 15.2596C63.6249 15.8653 64 16.7194 64 17.6148V79.7992C64 81.5665 62.5673 82.9992 60.8 82.9992Z" fill="#242526"/>
<path fill-rule="evenodd" clip-rule="evenodd" d="M46.2381 2.21436L46.2374 2.21377C45.9431 1.94701 45.5601 1.79922 45.1629 1.79922H3.2C2.31634 1.79922 1.6 2.51556 1.6 3.39922V79.7992C1.6 80.6829 2.31635 81.3992 3.2 81.3992H60.8C61.6837 81.3992 62.4 80.6829 62.4 79.7992V17.6148C62.4 17.1671 62.2124 16.7401 61.8832 16.4372L61.8765 16.4311L46.2391 2.21531L46.2381 2.21436ZM62.9526 15.247L47.312 1.02833C46.7234 0.494791 45.9574 0.199219 45.1629 0.199219H3.2C1.43269 0.199219 0 1.63191 0 3.39922V79.7992C0 81.5665 1.43269 82.9992 3.2 82.9992H60.8C62.5673 82.9992 64 81.5665 64 79.7992V17.6148C64 16.7194 63.6249 15.8653 62.9663 15.2596L62.9526 15.247Z" fill="#EBAE64"/>
<g opacity="0.19">
<mask id="mask0" mask-type="alpha" maskUnits="userSpaceOnUse" x="46" y="8" width="28" height="27">
<rect x="46.7998" y="16.1019" width="10.6715" height="26.8821" transform="rotate(-47.7774 46.7998 16.1019)" fill="url(#paint0_linear)"/>
</mask>
<g mask="url(#mask0)">
<path d="M3.4668 83.7497H59.4668C61.6759 83.7497 63.4668 81.9588 63.4668 79.7497V17.8344C63.4668 17.2709 63.2291 16.7336 62.8121 16.3545L46.4389 1.46977C46.0708 1.13509 45.5911 0.949646 45.0936 0.949646H3.4668C1.25766 0.949646 -0.533203 2.74051 -0.533203 4.94964V79.7497C-0.533203 81.9588 1.25766 83.7497 3.4668 83.7497Z" fill="url(#paint1_linear)" style="mix-blend-mode:multiply"/>
</g>
</g>
<path d="M47.6 16.5992H63.2L46 0.999207V14.9992C46 15.8829 46.7163 16.5992 47.6 16.5992Z" fill="#EBAE64"/>
<path d="M30.6411 70.7519C30.6955 70.8698 30.7227 70.9876 30.7227 71.1055C30.7227 71.314 30.6366 71.4908 30.4643 71.6359C30.3011 71.781 30.1107 71.8535 29.8931 71.8535C29.748 71.8535 29.612 71.8172 29.4851 71.7447C29.3582 71.6631 29.2584 71.5407 29.1859 71.3775L28.3699 69.5551H23.5827L22.7667 71.3775C22.6942 71.5407 22.5944 71.6631 22.4675 71.7447C22.3406 71.8172 22.2 71.8535 22.0459 71.8535C21.8374 71.8535 21.647 71.781 21.4747 71.6359C21.3024 71.4908 21.2163 71.314 21.2163 71.1055C21.2163 70.9876 21.2435 70.8698 21.2979 70.7519L25.0515 62.6871C25.1331 62.5058 25.2555 62.3698 25.4187 62.2791C25.591 62.1794 25.7723 62.1295 25.9627 62.1295C26.1531 62.1295 26.3299 62.1794 26.4931 62.2791C26.6654 62.3698 26.7923 62.5058 26.8739 62.6871L30.6411 70.7519ZM24.1811 68.1951H27.7715L25.9763 64.1559L24.1811 68.1951Z" fill="#EBAE64"/>
<path d="M33.1869 71.8807C32.9239 71.8807 32.7109 71.7991 32.5477 71.6359C32.3935 71.4727 32.3165 71.2596 32.3165 70.9967V63.0135C32.3165 62.7506 32.3935 62.542 32.5477 62.3879C32.7109 62.2247 32.9239 62.1431 33.1869 62.1431C33.4589 62.1431 33.6719 62.2247 33.8261 62.3879C33.9893 62.542 34.0709 62.7506 34.0709 63.0135V70.9967C34.0709 71.2596 33.9893 71.4727 33.8261 71.6359C33.6719 71.7991 33.4589 71.8807 33.1869 71.8807Z" fill="#EBAE64"/>
<path d="M37.2839 71.8807C37.0209 71.8807 36.8079 71.7991 36.6447 71.6359C36.4905 71.4727 36.4135 71.2596 36.4135 70.9967V63.0407C36.4135 62.7778 36.486 62.5738 36.6311 62.4287C36.7852 62.2836 36.9937 62.2111 37.2567 62.2111H42.0303C42.5833 62.2111 42.8599 62.4468 42.8599 62.9183C42.8599 63.3807 42.5833 63.6119 42.0303 63.6119H38.1407V66.2231H41.7583C42.3113 66.2231 42.5879 66.4588 42.5879 66.9303C42.5879 67.3927 42.3113 67.6239 41.7583 67.6239H38.1407V70.9967C38.1407 71.2596 38.0636 71.4727 37.9095 71.6359C37.7553 71.7991 37.5468 71.8807 37.2839 71.8807Z" fill="#EBAE64"/>
<path d="M38.4004 34.1353V42.2281C37.7903 41.8759 37.0811 41.7348 36.3827 41.8268C35.6843 41.9187 35.0357 42.2386 34.5376 42.7367C34.0395 43.2348 33.7197 43.8834 33.6278 44.5818C33.5358 45.2802 33.6769 45.9894 34.0291 46.5994C34.3814 47.2095 34.925 47.6863 35.5759 47.9558C36.2267 48.2254 36.9482 48.2727 37.6287 48.0904C38.3091 47.908 38.9104 47.5063 39.3392 46.9474C39.768 46.3885 40.0004 45.7038 40.0004 44.9993V28.8809C40.0006 28.6755 39.9515 28.4731 39.857 28.2908C39.7625 28.1084 39.6256 27.9514 39.4577 27.8331C39.2898 27.7148 39.0959 27.6386 38.8924 27.611C38.6889 27.5834 38.4817 27.6052 38.2884 27.6745L28.0484 31.3321C27.8002 31.4211 27.5855 31.5846 27.4337 31.8003C27.2819 32.0159 27.2004 32.2732 27.2004 32.5369V43.8265C26.5904 43.4743 25.8812 43.3333 25.1829 43.4252C24.4846 43.5171 23.836 43.8368 23.3379 44.3348C22.8398 44.8328 22.5199 45.4812 22.4278 46.1796C22.3358 46.8779 22.4767 47.5871 22.8287 48.1972C23.1808 48.8072 23.7243 49.2841 24.3749 49.5539C25.0256 49.8236 25.7471 49.8711 26.4275 49.6891C27.1079 49.507 27.7093 49.1055 28.1383 48.5469C28.5673 47.9883 28.8001 47.3037 28.8004 46.5993V37.5641L38.4004 34.1369V34.1353Z" fill="#363739"/>
</g>
<defs>
<linearGradient id="paint0_linear" x1="52.1356" y1="16.1019" x2="52.1356" y2="42.984" gradientUnits="userSpaceOnUse">
<stop stop-color="#C7D3DA"/>
<stop offset="0.338542" stop-color="#C7D3DA" stop-opacity="0.739583"/>
<stop offset="0.640625" stop-color="#C7D3DA" stop-opacity="0.326115"/>
<stop offset="1" stop-color="#C7D3DA" stop-opacity="0"/>
</linearGradient>
<linearGradient id="paint1_linear" x1="46.0668" y1="9.54966" x2="59.8668" y2="30.9497" gradientUnits="userSpaceOnUse">
<stop stop-color="#5F6165"/>
<stop offset="0.489583" stop-color="#5F6165" stop-opacity="0.635417"/>
<stop offset="1" stop-color="#5F6165" stop-opacity="0"/>
</linearGradient>
<clipPath id="clip0">
<rect width="64" height="82.8" fill="white" transform="translate(0 0.199219)"/>
</clipPath>
</defs>
</svg>
