<svg width="64" height="83" viewBox="0 0 64 83" fill="none" xmlns="http://www.w3.org/2000/svg">
<g clip-path="url(#clip0)">
<path d="M60.8 82.799H3.2C1.43269 82.799 0 81.3663 0 79.599V3.19902C0 1.43171 1.43269 -0.000976562 3.2 -0.000976562H45.1629C45.9574 -0.000976562 46.7234 0.294596 47.312 0.828137C47.3132 0.829162 47.3143 0.830188 47.3154 0.831215L62.9526 15.0468C62.9572 15.051 62.9617 15.0552 62.9663 15.0594C63.6249 15.6651 64 16.5192 64 17.4146V79.599C64 81.3663 62.5673 82.799 60.8 82.799Z" fill="#242526"/>
<path fill-rule="evenodd" clip-rule="evenodd" d="M46.2381 2.01416L46.2374 2.01358C45.9431 1.74681 45.5601 1.59902 45.1629 1.59902H3.2C2.31634 1.59902 1.6 2.31537 1.6 3.19902V79.599C1.6 80.4827 2.31635 81.199 3.2 81.199H60.8C61.6837 81.199 62.4 80.4827 62.4 79.599V17.4146C62.4 16.9669 62.2124 16.5399 61.8832 16.237L61.8765 16.2309L46.2391 2.01512L46.2381 2.01416ZM62.9526 15.0468L47.312 0.828137C46.7234 0.294596 45.9574 -0.000976562 45.1629 -0.000976562H3.2C1.43269 -0.000976562 0 1.43171 0 3.19902V79.599C0 81.3663 1.43269 82.799 3.2 82.799H60.8C62.5673 82.799 64 81.3663 64 79.599V17.4146C64 16.5192 63.6249 15.6651 62.9663 15.0594L62.9526 15.0468Z" fill="#BE535A"/>
<g opacity="0.19">
<mask id="mask0" mask-type="alpha" maskUnits="userSpaceOnUse" x="46" y="7" width="28" height="27">
<path d="M46.7998 15.9017L53.9712 7.99904L73.8785 26.0642L66.7071 33.9669L46.7998 15.9017Z" fill="url(#paint0_linear)"/>
</mask>
<g mask="url(#mask0)">
<path d="M1.0668 83.5495H61.8668C62.7505 83.5495 63.4668 82.8332 63.4668 81.9495V17.1034C63.4668 16.878 63.3717 16.6631 63.2049 16.5115L46.0956 0.95756C45.9484 0.823689 45.7565 0.749512 45.5575 0.749512H1.0668C0.183141 0.749512 -0.533203 1.46585 -0.533203 2.34951V81.9495C-0.533203 82.8332 0.18314 83.5495 1.0668 83.5495Z" fill="url(#paint1_linear)" style="mix-blend-mode:multiply"/>
</g>
</g>
<path d="M47.6 16.3991H63.2L46 0.799072V14.7991C46 15.6827 46.7163 16.3991 47.6 16.3991Z" fill="#BE535A"/>
<path fill-rule="evenodd" clip-rule="evenodd" d="M45.8381 0.433344C45.9827 0.369242 46.1516 0.396458 46.2688 0.502768L63.4688 16.1028C63.5913 16.2138 63.6328 16.3888 63.5733 16.5431C63.5137 16.6973 63.3654 16.7991 63.2001 16.7991H47.6001C46.4955 16.7991 45.6001 15.9036 45.6001 14.7991V0.799056C45.6001 0.640813 45.6934 0.497445 45.8381 0.433344ZM46.4001 1.70186V14.7991C46.4001 15.4618 46.9374 15.9991 47.6001 15.9991H62.1637L46.4001 1.70186Z" fill="#BE535A"/>
<path d="M28.2705 70.5517C28.3249 70.6696 28.3521 70.7875 28.3521 70.9053C28.3521 71.1139 28.266 71.2907 28.0937 71.4357C27.9305 71.5808 27.7401 71.6533 27.5225 71.6533C27.3774 71.6533 27.2414 71.6171 27.1145 71.5445C26.9876 71.4629 26.8878 71.3405 26.8153 71.1773L25.9993 69.3549H21.2121L20.3961 71.1773C20.3236 71.3405 20.2238 71.4629 20.0969 71.5445C19.97 71.6171 19.8294 71.6533 19.6753 71.6533C19.4668 71.6533 19.2764 71.5808 19.1041 71.4357C18.9318 71.2907 18.8457 71.1139 18.8457 70.9053C18.8457 70.7875 18.8729 70.6696 18.9273 70.5517L22.6809 62.487C22.7625 62.3056 22.8849 62.1696 23.0481 62.079C23.2204 61.9792 23.4017 61.9294 23.5921 61.9294C23.7825 61.9294 23.9593 61.9792 24.1225 62.079C24.2948 62.1696 24.4217 62.3056 24.5033 62.487L28.2705 70.5517ZM21.8105 67.9949H25.4009L23.6057 63.9557L21.8105 67.9949Z" fill="#BE535A"/>
<path d="M33.158 71.7213C32.4599 71.7213 31.798 71.6307 31.1724 71.4493C30.5559 71.2589 30.0527 71.0051 29.6628 70.6877C29.4543 70.5336 29.35 70.316 29.35 70.0349C29.35 69.8445 29.4044 69.6813 29.5132 69.5453C29.6311 69.4003 29.7671 69.3277 29.9212 69.3277C30.0844 69.3277 30.2703 69.3912 30.4788 69.5181C30.8687 69.7992 31.2767 70.0032 31.7028 70.1301C32.1289 70.2571 32.6004 70.3205 33.1172 70.3205C33.7791 70.3205 34.2868 70.2072 34.6404 69.9805C34.994 69.7448 35.1708 69.4048 35.1708 68.9605C35.1708 68.616 35.0031 68.3531 34.6676 68.1717C34.3412 67.9813 33.7927 67.8 33.022 67.6277C32.2241 67.4555 31.5759 67.256 31.0772 67.0293C30.5785 66.8027 30.2023 66.5125 29.9484 66.1589C29.6945 65.8053 29.5676 65.3565 29.5676 64.8126C29.5676 64.2504 29.7263 63.7472 30.0436 63.303C30.3609 62.8587 30.8007 62.5142 31.3628 62.2693C31.934 62.0155 32.5732 61.8885 33.2804 61.8885C34.5769 61.8885 35.6332 62.2331 36.4492 62.9222C36.5671 63.0219 36.6487 63.1216 36.694 63.2213C36.7484 63.312 36.7756 63.4299 36.7756 63.5749C36.7756 63.7653 36.7167 63.9331 36.5988 64.0781C36.49 64.2141 36.3585 64.2821 36.2044 64.2821C36.1137 64.2821 36.0276 64.2685 35.946 64.2414C35.8735 64.2141 35.7737 64.1643 35.6468 64.0917C35.2751 63.8197 34.9124 63.6203 34.5588 63.4933C34.2143 63.3573 33.7881 63.2894 33.2804 63.2894C32.6639 63.2894 32.1743 63.4163 31.8116 63.6702C31.458 63.9149 31.2812 64.2595 31.2812 64.7037C31.2812 65.0755 31.4399 65.3611 31.7572 65.5605C32.0745 65.76 32.614 65.9459 33.3756 66.1181C34.1825 66.2995 34.8353 66.5035 35.334 66.7301C35.8417 66.9477 36.2271 67.2288 36.49 67.5733C36.762 67.9179 36.898 68.3485 36.898 68.8653C36.898 69.4275 36.7393 69.9261 36.422 70.3613C36.1137 70.7875 35.674 71.1229 35.1028 71.3677C34.5407 71.6035 33.8924 71.7213 33.158 71.7213Z" fill="#BE535A"/>
<path d="M39.6547 71.6805C39.3917 71.6805 39.1787 71.5989 39.0155 71.4357C38.8613 71.2725 38.7843 71.0595 38.7843 70.7965V62.8405C38.7843 62.5776 38.8568 62.3736 39.0019 62.2286C39.156 62.0835 39.3645 62.011 39.6275 62.011H44.4011C44.9541 62.011 45.2307 62.2467 45.2307 62.7181C45.2307 63.1805 44.9541 63.4117 44.4011 63.4117H40.5115V66.0229H44.1291C44.6821 66.0229 44.9587 66.2587 44.9587 66.7301C44.9587 67.1925 44.6821 67.4237 44.1291 67.4237H40.5115V70.7965C40.5115 71.0595 40.4344 71.2725 40.2803 71.4357C40.1261 71.5989 39.9176 71.6805 39.6547 71.6805Z" fill="#BE535A"/>
<g clip-path="url(#clip1)">
<path d="M46.4 25.599H24C23.5757 25.599 23.1687 25.7676 22.8686 26.0676C22.5686 26.3677 22.4 26.7747 22.4 27.199V31.999H30.4V28.799H40V44.799H46.4C46.8243 44.799 47.2313 44.6304 47.5314 44.3304C47.8314 44.0303 48 43.6233 48 43.199V27.199C48 26.7747 47.8314 26.3677 47.5314 26.0676C47.2313 25.7676 46.8243 25.599 46.4 25.599V25.599ZM27.6 30.749C27.6 30.8683 27.5526 30.9828 27.4682 31.0672C27.3838 31.1516 27.2693 31.199 27.15 31.199H25.65C25.5307 31.199 25.4162 31.1516 25.3318 31.0672C25.2474 30.9828 25.2 30.8683 25.2 30.749V29.249C25.2 29.1297 25.2474 29.0152 25.3318 28.9308C25.4162 28.8464 25.5307 28.799 25.65 28.799H27.15C27.2693 28.799 27.3838 28.8464 27.4682 28.9308C27.5526 29.0152 27.6 29.1297 27.6 29.249V30.749ZM45.2 41.149C45.2 41.2683 45.1526 41.3828 45.0682 41.4672C44.9838 41.5516 44.8693 41.599 44.75 41.599H43.25C43.1307 41.599 43.0162 41.5516 42.9318 41.4672C42.8474 41.3828 42.8 41.2683 42.8 41.149V39.649C42.8 39.5297 42.8474 39.4152 42.9318 39.3308C43.0162 39.2464 43.1307 39.199 43.25 39.199H44.75C44.8693 39.199 44.9838 39.2464 45.0682 39.3308C45.1526 39.4152 45.2 39.5297 45.2 39.649V41.149ZM45.2 35.949C45.2 36.0683 45.1526 36.1828 45.0682 36.2672C44.9838 36.3516 44.8693 36.399 44.75 36.399H43.25C43.1307 36.399 43.0162 36.3516 42.9318 36.2672C42.8474 36.1828 42.8 36.0683 42.8 35.949V34.449C42.8 34.3297 42.8474 34.2152 42.9318 34.1308C43.0162 34.0464 43.1307 33.999 43.25 33.999H44.75C44.8693 33.999 44.9838 34.0464 45.0682 34.1308C45.1526 34.2152 45.2 34.3297 45.2 34.449V35.949ZM45.2 30.749C45.2 30.8683 45.1526 30.9828 45.0682 31.0672C44.9838 31.1516 44.8693 31.199 44.75 31.199H43.25C43.1307 31.199 43.0162 31.1516 42.9318 31.0672C42.8474 30.9828 42.8 30.8683 42.8 30.749V29.249C42.8 29.1297 42.8474 29.0152 42.9318 28.9308C43.0162 28.8464 43.1307 28.799 43.25 28.799H44.75C44.8693 28.799 44.9838 28.8464 45.0682 28.9308C45.1526 29.0152 45.2 29.1297 45.2 29.249V30.749ZM36.8 33.599H17.6C17.1757 33.599 16.7687 33.7676 16.4686 34.0676C16.1686 34.3677 16 34.7747 16 35.199V49.599C16 50.0233 16.1686 50.4303 16.4686 50.7304C16.7687 51.0304 17.1757 51.199 17.6 51.199H36.8C37.2243 51.199 37.6313 51.0304 37.9314 50.7304C38.2314 50.4303 38.4 50.0233 38.4 49.599V35.199C38.4 34.7747 38.2314 34.3677 37.9314 34.0676C37.6313 33.7676 37.2243 33.599 36.8 33.599ZM20.8 36.799C21.1165 36.799 21.4258 36.8928 21.6889 37.0686C21.952 37.2445 22.1571 37.4943 22.2782 37.7867C22.3993 38.0791 22.431 38.4008 22.3693 38.7111C22.3075 39.0215 22.1551 39.3066 21.9314 39.5304C21.7076 39.7541 21.4225 39.9065 21.1121 39.9683C20.8018 40.03 20.4801 39.9983 20.1877 39.8772C19.8953 39.7561 19.6455 39.551 19.4696 39.2879C19.2938 39.0248 19.2 38.7154 19.2 38.399C19.2 37.9747 19.3686 37.5677 19.6686 37.2676C19.9687 36.9676 20.3757 36.799 20.8 36.799ZM35.2 47.999H19.2V46.399L22.4 43.199L24 44.799L30.4 38.399L35.2 43.199V47.999Z" fill="#363739"/>
</g>
</g>
<defs>
<linearGradient id="paint0_linear" x1="50.3855" y1="11.9504" x2="70.2928" y2="30.0155" gradientUnits="userSpaceOnUse">
<stop stop-color="#C7D3DA"/>
<stop offset="0.338542" stop-color="#C7D3DA" stop-opacity="0.739583"/>
<stop offset="0.640625" stop-color="#C7D3DA" stop-opacity="0.326115"/>
<stop offset="1" stop-color="#C7D3DA" stop-opacity="0"/>
</linearGradient>
<linearGradient id="paint1_linear" x1="46.0668" y1="9.34953" x2="59.8668" y2="30.7495" gradientUnits="userSpaceOnUse">
<stop stop-color="#5F6165"/>
<stop offset="0.489583" stop-color="#5F6165" stop-opacity="0.635417"/>
<stop offset="1" stop-color="#5F6165" stop-opacity="0"/>
</linearGradient>
<clipPath id="clip0">
<rect width="64" height="82.8" fill="white" transform="translate(0 -0.000976562)"/>
</clipPath>
<clipPath id="clip1">
<rect width="32" height="25.6" fill="white" transform="translate(16 25.599)"/>
</clipPath>
</defs>
</svg>
