<svg width="64" height="83" viewBox="0 0 64 83" fill="none" xmlns="http://www.w3.org/2000/svg">
<g clip-path="url(#clip0)">
<path d="M60.8 82.799H3.2C1.43269 82.799 0 81.3663 0 79.599V3.19902C0 1.43171 1.43269 -0.000976562 3.2 -0.000976562H45.1629C45.9574 -0.000976562 46.7234 0.294596 47.312 0.828137C47.3132 0.829162 47.3143 0.830188 47.3154 0.831215L62.9526 15.0468C62.9572 15.051 62.9617 15.0552 62.9663 15.0594C63.6249 15.6651 64 16.5192 64 17.4146V79.599C64 81.3663 62.5673 82.799 60.8 82.799Z" fill="#242526"/>
<path fill-rule="evenodd" clip-rule="evenodd" d="M46.2381 2.01416L46.2374 2.01358C45.9431 1.74681 45.5601 1.59902 45.1629 1.59902H3.2C2.31634 1.59902 1.6 2.31537 1.6 3.19902V79.599C1.6 80.4827 2.31635 81.199 3.2 81.199H60.8C61.6837 81.199 62.4 80.4827 62.4 79.599V17.4146C62.4 16.9669 62.2124 16.5399 61.8832 16.237L61.8765 16.2309L46.2391 2.01512L46.2381 2.01416ZM62.9526 15.0468L47.312 0.828137C46.7234 0.294596 45.9574 -0.000976562 45.1629 -0.000976562H3.2C1.43269 -0.000976562 0 1.43171 0 3.19902V79.599C0 81.3663 1.43269 82.799 3.2 82.799H60.8C62.5673 82.799 64 81.3663 64 79.599V17.4146C64 16.5192 63.6249 15.6651 62.9663 15.0594L62.9526 15.0468Z" fill="#BE535A"/>
<g opacity="0.19">
<mask id="mask0" mask-type="alpha" maskUnits="userSpaceOnUse" x="46" y="7" width="28" height="27">
<path d="M46.7998 15.9017L53.9712 7.99904L73.8785 26.0642L66.7071 33.9669L46.7998 15.9017Z" fill="url(#paint0_linear)"/>
</mask>
<g mask="url(#mask0)">
<path d="M1.0668 83.5495H61.8668C62.7505 83.5495 63.4668 82.8332 63.4668 81.9495V17.1034C63.4668 16.878 63.3717 16.6631 63.2049 16.5115L46.0956 0.95756C45.9484 0.823689 45.7565 0.749512 45.5575 0.749512H1.0668C0.183141 0.749512 -0.533203 1.46585 -0.533203 2.34951V81.9495C-0.533203 82.8332 0.18314 83.5495 1.0668 83.5495Z" fill="url(#paint1_linear)" style="mix-blend-mode:multiply"/>
</g>
</g>
<path d="M47.6 16.3991H63.2L46 0.799072V14.7991C46 15.6827 46.7163 16.3991 47.6 16.3991Z" fill="#BE535A"/>
<path fill-rule="evenodd" clip-rule="evenodd" d="M45.8381 0.433344C45.9827 0.369242 46.1516 0.396458 46.2688 0.502768L63.4688 16.1028C63.5913 16.2138 63.6328 16.3888 63.5733 16.5431C63.5137 16.6973 63.3654 16.7991 63.2001 16.7991H47.6001C46.4955 16.7991 45.6001 15.9036 45.6001 14.7991V0.799056C45.6001 0.640813 45.6934 0.497445 45.8381 0.433344ZM46.4001 1.70186V14.7991C46.4001 15.4618 46.9374 15.9991 47.6001 15.9991H62.1637L46.4001 1.70186Z" fill="#BE535A"/>
<path d="M30.2964 70.5517C30.3508 70.6696 30.378 70.7874 30.378 70.9053C30.378 71.1138 30.2918 71.2906 30.1196 71.4357C29.9564 71.5808 29.766 71.6533 29.5484 71.6533C29.4033 71.6533 29.2673 71.617 29.1404 71.5445C29.0134 71.4629 28.9137 71.3405 28.8412 71.1773L28.0252 69.3549H23.238L22.422 71.1773C22.3494 71.3405 22.2497 71.4629 22.1228 71.5445C21.9958 71.617 21.8553 71.6533 21.7012 71.6533C21.4926 71.6533 21.3022 71.5808 21.13 71.4357C20.9577 71.2906 20.8716 71.1138 20.8716 70.9053C20.8716 70.7874 20.8988 70.6696 20.9532 70.5517L24.7068 62.4869C24.7884 62.3056 24.9108 62.1696 25.074 62.0789C25.2462 61.9792 25.4276 61.9293 25.618 61.9293C25.8084 61.9293 25.9852 61.9792 26.1484 62.0789C26.3206 62.1696 26.4476 62.3056 26.5292 62.4869L30.2964 70.5517ZM23.8364 67.9949H27.4268L25.6316 63.9557L23.8364 67.9949Z" fill="#BE535A"/>
<path d="M38.0321 62.3917C38.1772 62.0835 38.4175 61.9293 38.7529 61.9293C38.9796 61.9293 39.1836 62.0019 39.3649 62.1469C39.5463 62.292 39.6369 62.4733 39.6369 62.6909C39.6369 62.7907 39.6097 62.904 39.5553 63.0309L35.7881 71.1365C35.7065 71.3088 35.5796 71.4448 35.4073 71.5445C35.2441 71.6352 35.0673 71.6805 34.8769 71.6805C34.6865 71.6805 34.5052 71.6352 34.3329 71.5445C34.1697 71.4448 34.0473 71.3088 33.9657 71.1365L30.2121 63.0309C30.1577 62.904 30.1305 62.7952 30.1305 62.7045C30.1305 62.4779 30.2212 62.292 30.4025 62.1469C30.5929 62.0019 30.806 61.9293 31.0417 61.9293C31.1959 61.9293 31.3364 61.9701 31.4633 62.0517C31.5993 62.1243 31.7036 62.2376 31.7761 62.3917L34.9041 69.3413L38.0321 62.3917Z" fill="#BE535A"/>
<path d="M41.9063 71.6805C41.6434 71.6805 41.4303 71.5989 41.2671 71.4357C41.113 71.2725 41.0359 71.0594 41.0359 70.7965V62.8133C41.0359 62.5504 41.113 62.3419 41.2671 62.1877C41.4303 62.0245 41.6434 61.9429 41.9063 61.9429C42.1783 61.9429 42.3914 62.0245 42.5455 62.1877C42.7087 62.3419 42.7903 62.5504 42.7903 62.8133V70.7965C42.7903 71.0594 42.7087 71.2725 42.5455 71.4357C42.3914 71.5989 42.1783 71.6805 41.9063 71.6805Z" fill="#BE535A"/>
<g clip-path="url(#clip1)">
<path d="M46.4 25.599H24C23.5757 25.599 23.1687 25.7676 22.8686 26.0676C22.5686 26.3677 22.4 26.7747 22.4 27.199V31.999H30.4V28.799H40V44.799H46.4C46.8243 44.799 47.2313 44.6304 47.5314 44.3304C47.8314 44.0303 48 43.6233 48 43.199V27.199C48 26.7747 47.8314 26.3677 47.5314 26.0676C47.2313 25.7676 46.8243 25.599 46.4 25.599V25.599ZM27.6 30.749C27.6 30.8683 27.5526 30.9828 27.4682 31.0672C27.3838 31.1516 27.2693 31.199 27.15 31.199H25.65C25.5307 31.199 25.4162 31.1516 25.3318 31.0672C25.2474 30.9828 25.2 30.8683 25.2 30.749V29.249C25.2 29.1297 25.2474 29.0152 25.3318 28.9308C25.4162 28.8464 25.5307 28.799 25.65 28.799H27.15C27.2693 28.799 27.3838 28.8464 27.4682 28.9308C27.5526 29.0152 27.6 29.1297 27.6 29.249V30.749ZM45.2 41.149C45.2 41.2683 45.1526 41.3828 45.0682 41.4672C44.9838 41.5516 44.8693 41.599 44.75 41.599H43.25C43.1307 41.599 43.0162 41.5516 42.9318 41.4672C42.8474 41.3828 42.8 41.2683 42.8 41.149V39.649C42.8 39.5297 42.8474 39.4152 42.9318 39.3308C43.0162 39.2464 43.1307 39.199 43.25 39.199H44.75C44.8693 39.199 44.9838 39.2464 45.0682 39.3308C45.1526 39.4152 45.2 39.5297 45.2 39.649V41.149ZM45.2 35.949C45.2 36.0683 45.1526 36.1828 45.0682 36.2672C44.9838 36.3516 44.8693 36.399 44.75 36.399H43.25C43.1307 36.399 43.0162 36.3516 42.9318 36.2672C42.8474 36.1828 42.8 36.0683 42.8 35.949V34.449C42.8 34.3297 42.8474 34.2152 42.9318 34.1308C43.0162 34.0464 43.1307 33.999 43.25 33.999H44.75C44.8693 33.999 44.9838 34.0464 45.0682 34.1308C45.1526 34.2152 45.2 34.3297 45.2 34.449V35.949ZM45.2 30.749C45.2 30.8683 45.1526 30.9828 45.0682 31.0672C44.9838 31.1516 44.8693 31.199 44.75 31.199H43.25C43.1307 31.199 43.0162 31.1516 42.9318 31.0672C42.8474 30.9828 42.8 30.8683 42.8 30.749V29.249C42.8 29.1297 42.8474 29.0152 42.9318 28.9308C43.0162 28.8464 43.1307 28.799 43.25 28.799H44.75C44.8693 28.799 44.9838 28.8464 45.0682 28.9308C45.1526 29.0152 45.2 29.1297 45.2 29.249V30.749ZM36.8 33.599H17.6C17.1757 33.599 16.7687 33.7676 16.4686 34.0676C16.1686 34.3677 16 34.7747 16 35.199V49.599C16 50.0233 16.1686 50.4303 16.4686 50.7304C16.7687 51.0304 17.1757 51.199 17.6 51.199H36.8C37.2243 51.199 37.6313 51.0304 37.9314 50.7304C38.2314 50.4303 38.4 50.0233 38.4 49.599V35.199C38.4 34.7747 38.2314 34.3677 37.9314 34.0676C37.6313 33.7676 37.2243 33.599 36.8 33.599ZM20.8 36.799C21.1165 36.799 21.4258 36.8928 21.6889 37.0686C21.952 37.2445 22.1571 37.4943 22.2782 37.7867C22.3993 38.0791 22.431 38.4008 22.3693 38.7111C22.3075 39.0215 22.1551 39.3066 21.9314 39.5304C21.7076 39.7541 21.4225 39.9065 21.1121 39.9683C20.8018 40.03 20.4801 39.9983 20.1877 39.8772C19.8953 39.7561 19.6455 39.551 19.4696 39.2879C19.2938 39.0248 19.2 38.7154 19.2 38.399C19.2 37.9747 19.3686 37.5677 19.6686 37.2676C19.9687 36.9676 20.3757 36.799 20.8 36.799ZM35.2 47.999H19.2V46.399L22.4 43.199L24 44.799L30.4 38.399L35.2 43.199V47.999Z" fill="#363739"/>
</g>
</g>
<defs>
<linearGradient id="paint0_linear" x1="50.3855" y1="11.9504" x2="70.2928" y2="30.0155" gradientUnits="userSpaceOnUse">
<stop stop-color="#C7D3DA"/>
<stop offset="0.338542" stop-color="#C7D3DA" stop-opacity="0.739583"/>
<stop offset="0.640625" stop-color="#C7D3DA" stop-opacity="0.326115"/>
<stop offset="1" stop-color="#C7D3DA" stop-opacity="0"/>
</linearGradient>
<linearGradient id="paint1_linear" x1="46.0668" y1="9.34953" x2="59.8668" y2="30.7495" gradientUnits="userSpaceOnUse">
<stop stop-color="#5F6165"/>
<stop offset="0.489583" stop-color="#5F6165" stop-opacity="0.635417"/>
<stop offset="1" stop-color="#5F6165" stop-opacity="0"/>
</linearGradient>
<clipPath id="clip0">
<rect width="64" height="82.8" fill="white" transform="translate(0 -0.000976562)"/>
</clipPath>
<clipPath id="clip1">
<rect width="32" height="25.6" fill="white" transform="translate(16 25.599)"/>
</clipPath>
</defs>
</svg>
