<svg width="64" height="84" viewBox="0 0 64 84" fill="none" xmlns="http://www.w3.org/2000/svg">
<g clip-path="url(#clip0)">
<path d="M60.8 83.1984H3.2C1.43269 83.1984 0 81.7657 0 79.9984V3.59844C0 1.83113 1.43269 0.398438 3.2 0.398438H45.1629C45.9574 0.398438 46.7234 0.69401 47.312 1.22755C47.3132 1.22858 47.3143 1.2296 47.3154 1.23063L62.9526 15.4462C62.9572 15.4504 62.9617 15.4546 62.9663 15.4588C63.6249 16.0645 64 16.9187 64 17.814V79.9984C64 81.7657 62.5673 83.1984 60.8 83.1984Z" fill="#242526"/>
<path fill-rule="evenodd" clip-rule="evenodd" d="M46.2381 2.41358L46.2374 2.41299C45.9431 2.14622 45.5601 1.99844 45.1629 1.99844H3.2C2.31634 1.99844 1.6 2.71478 1.6 3.59844V79.9984C1.6 80.8821 2.31635 81.5984 3.2 81.5984H60.8C61.6837 81.5984 62.4 80.8821 62.4 79.9984V17.814C62.4 17.3663 62.2124 16.9393 61.8832 16.6364L61.8765 16.6303L46.2391 2.41453L46.2381 2.41358ZM62.9526 15.4462L47.312 1.22755C46.7234 0.69401 45.9574 0.398438 45.1629 0.398438H3.2C1.43269 0.398438 0 1.83113 0 3.59844V79.9984C0 81.7657 1.43269 83.1984 3.2 83.1984H60.8C62.5673 83.1984 64 81.7657 64 79.9984V17.814C64 16.9187 63.6249 16.0645 62.9663 15.4588L62.9526 15.4462Z" fill="#4681B4"/>
<g opacity="0.19">
<mask id="mask0" mask-type="alpha" maskUnits="userSpaceOnUse" x="46" y="8" width="28" height="27">
<rect x="46.7998" y="16.3011" width="10.6715" height="26.8821" transform="rotate(-47.7774 46.7998 16.3011)" fill="url(#paint0_linear)"/>
</mask>
<g mask="url(#mask0)">
<path d="M3.4668 83.9489H59.4668C61.6759 83.9489 63.4668 82.1581 63.4668 79.9489V18.0337C63.4668 17.4702 63.2291 16.9328 62.8121 16.5538L46.4389 1.66905C46.0708 1.33437 45.5911 1.14893 45.0936 1.14893H3.4668C1.25766 1.14893 -0.533203 2.93979 -0.533203 5.14892V79.9489C-0.533203 82.1581 1.25766 83.9489 3.4668 83.9489Z" fill="url(#paint1_linear)" style="mix-blend-mode:multiply"/>
</g>
</g>
<path d="M47.6 16.7985H63.2L46 1.19849V15.1985C46 16.0821 46.7163 16.7985 47.6 16.7985Z" fill="#4681B4"/>
<g clip-path="url(#clip1)">
<path d="M28.7973 58.4953L22.6063 63.9984L28.7973 69.5015C28.916 69.6059 29.013 69.7327 29.0826 69.8748C29.1521 70.0168 29.193 70.1711 29.2027 70.329C29.2124 70.4868 29.1908 70.645 29.1392 70.7945C29.0876 70.9439 29.0069 71.0817 28.9019 71.1999C28.7968 71.3181 28.6694 71.4144 28.527 71.4832C28.3847 71.552 28.2301 71.592 28.0722 71.6008C27.9143 71.6097 27.7562 71.5873 27.607 71.5348C27.4578 71.4824 27.3205 71.401 27.2029 71.2953L20.0029 64.8953C19.8762 64.7827 19.7748 64.6446 19.7054 64.49C19.636 64.3354 19.6001 64.1678 19.6001 63.9984C19.6001 63.8289 19.636 63.6614 19.7054 63.5068C19.7748 63.3522 19.8762 63.2141 20.0029 63.1015L27.2029 56.7015C27.3207 56.5968 27.4579 56.5163 27.6068 56.4647C27.7557 56.413 27.9133 56.3912 28.0706 56.4005C28.2279 56.4097 28.3819 56.4499 28.5237 56.5187C28.6655 56.5874 28.7923 56.6834 28.897 56.8012C29.0017 56.919 29.0822 57.0563 29.1338 57.2052C29.1855 57.354 29.2073 57.5116 29.198 57.669C29.1888 57.8263 29.1486 57.9802 29.0798 58.122C29.0111 58.2638 28.9151 58.3907 28.7973 58.4954V58.4953ZM43.9973 63.1015L36.7973 56.7015C36.6796 56.5958 36.5423 56.5144 36.3931 56.4619C36.2439 56.4095 36.0858 56.3871 35.928 56.3959C35.7701 56.4048 35.6155 56.4448 35.4731 56.5136C35.3307 56.5824 35.2033 56.6786 35.0983 56.7968C34.9932 56.915 34.9126 57.0528 34.8609 57.2023C34.8093 57.3518 34.7877 57.51 34.7975 57.6678C34.8072 57.8256 34.848 57.98 34.9176 58.122C34.9872 58.264 35.0841 58.3909 35.2029 58.4953L41.3939 63.9984L35.2029 69.5015C35.0841 69.6059 34.9872 69.7327 34.9176 69.8748C34.848 70.0168 34.8072 70.1711 34.7975 70.329C34.7877 70.4868 34.8093 70.645 34.8609 70.7945C34.9126 70.9439 34.9932 71.0817 35.0983 71.1999C35.2033 71.3181 35.3307 71.4144 35.4731 71.4832C35.6155 71.552 35.7701 71.592 35.928 71.6008C36.0858 71.6097 36.2439 71.5873 36.3931 71.5348C36.5423 71.4824 36.6796 71.401 36.7973 71.2953L43.9973 64.8953C44.1239 64.7827 44.2253 64.6446 44.2947 64.49C44.3642 64.3354 44.4 64.1678 44.4 63.9984C44.4 63.8289 44.3642 63.6614 44.2947 63.5068C44.2253 63.3522 44.1239 63.2141 43.9973 63.1015Z" fill="#4681B4"/>
</g>
</g>
<defs>
<linearGradient id="paint0_linear" x1="52.1356" y1="16.3011" x2="52.1356" y2="43.1832" gradientUnits="userSpaceOnUse">
<stop stop-color="#C7D3DA"/>
<stop offset="0.338542" stop-color="#C7D3DA" stop-opacity="0.739583"/>
<stop offset="0.640625" stop-color="#C7D3DA" stop-opacity="0.326115"/>
<stop offset="1" stop-color="#C7D3DA" stop-opacity="0"/>
</linearGradient>
<linearGradient id="paint1_linear" x1="46.0668" y1="9.74894" x2="59.8668" y2="31.1489" gradientUnits="userSpaceOnUse">
<stop stop-color="#5F6165"/>
<stop offset="0.489583" stop-color="#5F6165" stop-opacity="0.635417"/>
<stop offset="1" stop-color="#5F6165" stop-opacity="0"/>
</linearGradient>
<clipPath id="clip0">
<rect width="64" height="82.8" fill="white" transform="translate(0 0.398438)"/>
</clipPath>
<clipPath id="clip1">
<rect width="25.6" height="25.6" fill="white" transform="translate(19.2002 51.1985)"/>
</clipPath>
</defs>
</svg>
