<svg width="64" height="84" viewBox="0 0 64 84" fill="none" xmlns="http://www.w3.org/2000/svg">
<g clip-path="url(#clip0)">
<path d="M60.8 83.5998H3.2C1.43269 83.5998 0 82.1671 0 80.3998V3.99981C0 2.23249 1.43269 0.799805 3.2 0.799805H45.1629C45.9574 0.799805 46.7234 1.09538 47.312 1.62892C47.3132 1.62994 47.3143 1.63097 47.3154 1.632L62.9526 15.8476C62.9572 15.8518 62.9617 15.856 62.9663 15.8602C63.6249 16.4659 64 17.32 64 18.2154V80.3998C64 82.1671 62.5673 83.5998 60.8 83.5998Z" fill="#242526"/>
<path fill-rule="evenodd" clip-rule="evenodd" d="M46.2381 2.81494L46.2374 2.81436C45.9431 2.54759 45.5601 2.3998 45.1629 2.3998H3.2C2.31634 2.3998 1.6 3.11615 1.6 3.99981V80.3998C1.6 81.2835 2.31635 81.9998 3.2 81.9998H60.8C61.6837 81.9998 62.4 81.2835 62.4 80.3998V18.2154C62.4 17.7677 62.2124 17.3406 61.8832 17.0378L61.8765 17.0316L46.2391 2.8159L46.2381 2.81494ZM62.9526 15.8476L47.312 1.62892C46.7234 1.09538 45.9574 0.799805 45.1629 0.799805H3.2C1.43269 0.799805 0 2.23249 0 3.99981V80.3998C0 82.1671 1.43269 83.5998 3.2 83.5998H60.8C62.5673 83.5998 64 82.1671 64 80.3998V18.2154C64 17.32 63.6249 16.4659 62.9663 15.8602L62.9526 15.8476Z" fill="#2A9E67"/>
<g opacity="0.19">
<mask id="mask0" mask-type="alpha" maskUnits="userSpaceOnUse" x="46" y="8" width="28" height="27">
<rect x="46.7998" y="16.7025" width="10.6715" height="26.8821" transform="rotate(-47.7774 46.7998 16.7025)" fill="url(#paint0_linear)"/>
</mask>
<g mask="url(#mask0)">
<path d="M3.4668 84.3503H59.4668C61.6759 84.3503 63.4668 82.5594 63.4668 80.3503V18.435C63.4668 17.8715 63.2291 17.3341 62.8121 16.9551L46.4389 2.07035C46.0708 1.73568 45.5911 1.55023 45.0936 1.55023H3.4668C1.25766 1.55023 -0.533203 3.34109 -0.533203 5.55023V80.3503C-0.533203 82.5594 1.25766 84.3503 3.4668 84.3503Z" fill="url(#paint1_linear)" style="mix-blend-mode:multiply"/>
</g>
</g>
<path d="M47.6 17.1998H63.2L46 1.59979V15.5998C46 16.4834 46.7163 17.1998 47.6 17.1998Z" fill="#2A9E67"/>
<path d="M23.4191 72.5221C22.4943 72.5221 21.6829 72.3227 20.9847 71.9237C20.2957 71.5248 19.7653 70.9536 19.3935 70.2101C19.0218 69.4667 18.8359 68.5963 18.8359 67.5989C18.8359 66.6016 19.0218 65.7357 19.3935 65.0013C19.7653 64.2579 20.2957 63.6867 20.9847 63.2877C21.6829 62.8888 22.4943 62.6893 23.4191 62.6893C24.0175 62.6893 24.5797 62.78 25.1055 62.9613C25.6314 63.1336 26.0983 63.3875 26.5063 63.7229C26.6242 63.8136 26.7058 63.9088 26.7511 64.0085C26.7965 64.1083 26.8191 64.2307 26.8191 64.3757C26.8191 64.5752 26.7647 64.7429 26.6559 64.8789C26.5471 65.0149 26.4157 65.0829 26.2615 65.0829C26.0802 65.0829 25.8943 65.0195 25.7039 64.8925C25.3141 64.6024 24.9514 64.4029 24.6159 64.2941C24.2805 64.1763 23.9087 64.1173 23.5007 64.1173C22.5578 64.1173 21.8415 64.412 21.3519 65.0013C20.8714 65.5907 20.6311 66.4565 20.6311 67.5989C20.6311 68.7504 20.8714 69.6208 21.3519 70.2101C21.8415 70.7995 22.5578 71.0941 23.5007 71.0941C23.8906 71.0941 24.2487 71.0352 24.5751 70.9173C24.9106 70.7995 25.2869 70.6 25.7039 70.3189C25.7946 70.2645 25.8853 70.2192 25.9759 70.1829C26.0666 70.1467 26.1618 70.1285 26.2615 70.1285C26.4157 70.1285 26.5471 70.1965 26.6559 70.3325C26.7647 70.4685 26.8191 70.6363 26.8191 70.8357C26.8191 70.9717 26.7965 71.0941 26.7511 71.2029C26.7058 71.3027 26.6242 71.3979 26.5063 71.4885C26.0983 71.824 25.6314 72.0824 25.1055 72.2637C24.5797 72.436 24.0175 72.5221 23.4191 72.5221Z" fill="#2A9E67"/>
<path d="M31.7701 72.5221C31.0719 72.5221 30.4101 72.4315 29.7845 72.2501C29.1679 72.0597 28.6647 71.8059 28.2749 71.4885C28.0663 71.3344 27.9621 71.1168 27.9621 70.8357C27.9621 70.6453 28.0165 70.4821 28.1253 70.3461C28.2431 70.2011 28.3791 70.1285 28.5333 70.1285C28.6965 70.1285 28.8823 70.192 29.0909 70.3189C29.4807 70.6 29.8887 70.804 30.3149 70.9309C30.741 71.0579 31.2125 71.1213 31.7293 71.1213C32.3911 71.1213 32.8989 71.008 33.2525 70.7813C33.6061 70.5456 33.7829 70.2056 33.7829 69.7613C33.7829 69.4168 33.6151 69.1539 33.2797 68.9725C32.9533 68.7821 32.4047 68.6008 31.6341 68.4285C30.8362 68.2563 30.1879 68.0568 29.6893 67.8301C29.1906 67.6035 28.8143 67.3133 28.5605 66.9597C28.3066 66.6061 28.1797 66.1573 28.1797 65.6133C28.1797 65.0512 28.3383 64.548 28.6557 64.1037C28.973 63.6595 29.4127 63.3149 29.9749 63.0701C30.5461 62.8163 31.1853 62.6893 31.8925 62.6893C33.189 62.6893 34.2453 63.0339 35.0613 63.7229C35.1791 63.8227 35.2607 63.9224 35.3061 64.0221C35.3605 64.1128 35.3877 64.2307 35.3877 64.3757C35.3877 64.5661 35.3287 64.7339 35.2109 64.8789C35.1021 65.0149 34.9706 65.0829 34.8165 65.0829C34.7258 65.0829 34.6397 65.0693 34.5581 65.0421C34.4855 65.0149 34.3858 64.9651 34.2589 64.8925C33.8871 64.6205 33.5245 64.4211 33.1709 64.2941C32.8263 64.1581 32.4002 64.0901 31.8925 64.0901C31.2759 64.0901 30.7863 64.2171 30.4237 64.4709C30.0701 64.7157 29.8933 65.0603 29.8933 65.5045C29.8933 65.8763 30.0519 66.1619 30.3693 66.3613C30.6866 66.5608 31.2261 66.7467 31.9877 66.9189C32.7946 67.1003 33.4474 67.3043 33.9461 67.5309C34.4538 67.7485 34.8391 68.0296 35.1021 68.3741C35.3741 68.7187 35.5101 69.1493 35.5101 69.6661C35.5101 70.2283 35.3514 70.7269 35.0341 71.1621C34.7258 71.5883 34.2861 71.9237 33.7149 72.1685C33.1527 72.4043 32.5045 72.5221 31.7701 72.5221Z" fill="#2A9E67"/>
<path d="M44.2005 63.1925C44.3455 62.8843 44.5858 62.7301 44.9213 62.7301C45.1479 62.7301 45.3519 62.8027 45.5333 62.9477C45.7146 63.0928 45.8053 63.2741 45.8053 63.4917C45.8053 63.5915 45.7781 63.7048 45.7237 63.8317L41.9565 71.9373C41.8749 72.1096 41.7479 72.2456 41.5757 72.3453C41.4125 72.436 41.2357 72.4813 41.0453 72.4813C40.8549 72.4813 40.6735 72.436 40.5013 72.3453C40.3381 72.2456 40.2157 72.1096 40.1341 71.9373L36.3805 63.8317C36.3261 63.7048 36.2989 63.596 36.2989 63.5053C36.2989 63.2787 36.3895 63.0928 36.5709 62.9477C36.7613 62.8027 36.9743 62.7301 37.2101 62.7301C37.3642 62.7301 37.5047 62.7709 37.6317 62.8525C37.7677 62.9251 37.8719 63.0384 37.9445 63.1925L41.0725 70.1421L44.2005 63.1925Z" fill="#2A9E67"/>
<rect opacity="0.3" x="28" y="29.5998" width="16.8" height="3.2" rx="1.6" fill="#5F6165"/>
<rect opacity="0.3" x="28" y="37.5998" width="16.8" height="3.2" rx="1.6" fill="#5F6165"/>
<rect opacity="0.3" x="28" y="45.5998" width="16.8" height="3.2" rx="1.6" fill="#5F6165"/>
<rect opacity="0.3" x="19.2002" y="29.5998" width="6.4" height="3.2" rx="1.6" fill="#5F6165"/>
<rect opacity="0.3" x="19.2002" y="37.5998" width="6.4" height="3.2" rx="1.6" fill="#5F6165"/>
<rect opacity="0.3" x="19.2002" y="45.5998" width="6.4" height="3.2" rx="1.6" fill="#5F6165"/>
</g>
<defs>
<linearGradient id="paint0_linear" x1="52.1356" y1="16.7025" x2="52.1356" y2="43.5846" gradientUnits="userSpaceOnUse">
<stop stop-color="#C7D3DA"/>
<stop offset="0.338542" stop-color="#C7D3DA" stop-opacity="0.739583"/>
<stop offset="0.640625" stop-color="#C7D3DA" stop-opacity="0.326115"/>
<stop offset="1" stop-color="#C7D3DA" stop-opacity="0"/>
</linearGradient>
<linearGradient id="paint1_linear" x1="46.0668" y1="10.1502" x2="59.8668" y2="31.5502" gradientUnits="userSpaceOnUse">
<stop stop-color="#5F6165"/>
<stop offset="0.489583" stop-color="#5F6165" stop-opacity="0.635417"/>
<stop offset="1" stop-color="#5F6165" stop-opacity="0"/>
</linearGradient>
<clipPath id="clip0">
<rect width="64" height="82.8" fill="white" transform="translate(0 0.799805)"/>
</clipPath>
</defs>
</svg>
