<svg width="64" height="84" viewBox="0 0 64 84" fill="none" xmlns="http://www.w3.org/2000/svg">
<g clip-path="url(#clip0)">
<path d="M60.8 83.3996H3.2C1.43269 83.3996 0 81.9669 0 80.1996V3.79961C0 2.0323 1.43269 0.599609 3.2 0.599609H45.1629C45.9574 0.599609 46.7234 0.895182 47.312 1.42872L47.3154 1.4318L62.9526 15.6474C62.9572 15.6516 62.9617 15.6558 62.9663 15.66C63.6249 16.2657 64 17.1198 64 18.0152V80.1996C64 81.9669 62.5673 83.3996 60.8 83.3996Z" fill="#242526"/>
<path fill-rule="evenodd" clip-rule="evenodd" d="M46.2381 2.61475L46.2374 2.61416C45.9431 2.3474 45.5601 2.19961 45.1629 2.19961H3.2C2.31634 2.19961 1.6 2.91595 1.6 3.79961V80.1996C1.6 81.0833 2.31635 81.7996 3.2 81.7996H60.8C61.6837 81.7996 62.4 81.0833 62.4 80.1996V18.0152C62.4 17.5675 62.2124 17.1404 61.8832 16.8376L61.8765 16.8314L46.2391 2.61571L46.2381 2.61475ZM62.9526 15.6474L47.312 1.42872C46.7234 0.895182 45.9574 0.599609 45.1629 0.599609H3.2C1.43269 0.599609 0 2.0323 0 3.79961V80.1996C0 81.9669 1.43269 83.3996 3.2 83.3996H60.8C62.5673 83.3996 64 81.9669 64 80.1996V18.0152C64 17.1198 63.6249 16.2657 62.9663 15.66L62.9526 15.6474Z" fill="#226EC2"/>
<g opacity="0.19">
<mask id="mask0" mask-type="alpha" maskUnits="userSpaceOnUse" x="46" y="8" width="28" height="27">
<rect x="46.7998" y="16.5023" width="10.6715" height="26.8821" transform="rotate(-47.7774 46.7998 16.5023)" fill="url(#paint0_linear)"/>
</mask>
<g mask="url(#mask0)">
<path d="M3.4668 84.1501H59.4668C61.6759 84.1501 63.4668 82.3592 63.4668 80.1501V18.2348C63.4668 17.6713 63.2291 17.1339 62.8121 16.7549L46.4389 1.87016C46.0708 1.53548 45.5911 1.35004 45.0936 1.35004H3.4668C1.25766 1.35004 -0.533203 3.1409 -0.533203 5.35003V80.1501C-0.533203 82.3592 1.25766 84.1501 3.4668 84.1501Z" fill="url(#paint1_linear)" style="mix-blend-mode:multiply"/>
</g>
</g>
<path d="M47.6 16.9996H63.2L46 1.3996V15.3996C46 16.2833 46.7163 16.9996 47.6 16.9996Z" fill="#226EC2"/>
<path d="M18.7704 72.1995C18.5075 72.1995 18.299 72.127 18.1448 71.9819C17.9998 71.8369 17.9272 71.6329 17.9272 71.3699V63.4411C17.9272 63.1782 17.9998 62.9742 18.1448 62.8291C18.299 62.6841 18.5075 62.6115 18.7704 62.6115H21.4632C23.0318 62.6115 24.2467 63.0331 25.108 63.8763C25.9784 64.7105 26.4136 65.8846 26.4136 67.3987C26.4136 68.9219 25.9784 70.1051 25.108 70.9483C24.2467 71.7825 23.0318 72.1995 21.4632 72.1995H18.7704ZM21.3544 70.7715C23.5576 70.7715 24.6592 69.6473 24.6592 67.3987C24.6592 65.1593 23.5576 64.0395 21.3544 64.0395H19.6816V70.7715H21.3544Z" fill="#226EC2"/>
<path d="M32.7228 72.3219C31.7889 72.3219 30.9774 72.1225 30.2884 71.7235C29.6084 71.3246 29.0825 70.7534 28.7108 70.0099C28.339 69.2665 28.1532 68.3961 28.1532 67.3987C28.1532 66.4014 28.3345 65.5355 28.6972 64.8011C29.0689 64.0577 29.5993 63.4865 30.2884 63.0875C30.9774 62.6886 31.7889 62.4891 32.7228 62.4891C33.6566 62.4891 34.4636 62.6886 35.1436 63.0875C35.8326 63.4865 36.3585 64.0577 36.7212 64.8011C37.0929 65.5355 37.2788 66.4014 37.2788 67.3987C37.2788 68.3961 37.0929 69.2665 36.7212 70.0099C36.3494 70.7534 35.819 71.3246 35.13 71.7235C34.45 72.1225 33.6476 72.3219 32.7228 72.3219ZM32.7228 70.9211C33.6022 70.9211 34.2868 70.6174 34.7764 70.0099C35.275 69.4025 35.5244 68.5321 35.5244 67.3987C35.5244 66.2654 35.275 65.3995 34.7764 64.8011C34.2868 64.1937 33.6022 63.8899 32.7228 63.8899C31.8342 63.8899 31.1406 64.1937 30.642 64.8011C30.1524 65.3995 29.9076 66.2654 29.9076 67.3987C29.9076 68.5321 30.1524 69.4025 30.642 70.0099C31.1406 70.6174 31.8342 70.9211 32.7228 70.9211Z" fill="#226EC2"/>
<path d="M43.6068 72.3219C42.682 72.3219 41.8705 72.1225 41.1724 71.7235C40.4833 71.3246 39.9529 70.7534 39.5812 70.0099C39.2095 69.2665 39.0236 68.3961 39.0236 67.3987C39.0236 66.4014 39.2095 65.5355 39.5812 64.8011C39.9529 64.0577 40.4833 63.4865 41.1724 63.0875C41.8705 62.6886 42.682 62.4891 43.6068 62.4891C44.2052 62.4891 44.7673 62.5798 45.2932 62.7611C45.8191 62.9334 46.286 63.1873 46.694 63.5227C46.8119 63.6134 46.8935 63.7086 46.9388 63.8083C46.9841 63.9081 47.0068 64.0305 47.0068 64.1755C47.0068 64.375 46.9524 64.5427 46.8436 64.6787C46.7348 64.8147 46.6033 64.8827 46.4492 64.8827C46.2679 64.8827 46.082 64.8193 45.8916 64.6923C45.5017 64.4022 45.1391 64.2027 44.8036 64.0939C44.4681 63.9761 44.0964 63.9171 43.6884 63.9171C42.7455 63.9171 42.0292 64.2118 41.5396 64.8011C41.0591 65.3905 40.8188 66.2563 40.8188 67.3987C40.8188 68.5502 41.0591 69.4206 41.5396 70.0099C42.0292 70.5993 42.7455 70.8939 43.6884 70.8939C44.0783 70.8939 44.4364 70.835 44.7628 70.7171C45.0983 70.5993 45.4745 70.3998 45.8916 70.1187C45.9823 70.0643 46.0729 70.019 46.1636 69.9827C46.2543 69.9465 46.3495 69.9283 46.4492 69.9283C46.6033 69.9283 46.7348 69.9963 46.8436 70.1323C46.9524 70.2683 47.0068 70.4361 47.0068 70.6355C47.0068 70.7715 46.9841 70.8939 46.9388 71.0027C46.8935 71.1025 46.8119 71.1977 46.694 71.2883C46.286 71.6238 45.8191 71.8822 45.2932 72.0635C44.7673 72.2358 44.2052 72.3219 43.6068 72.3219Z" fill="#226EC2"/>
<rect opacity="0.3" x="19.2002" y="29.3996" width="25.6" height="3.2" rx="1.6" fill="#5F6165"/>
<rect opacity="0.3" x="19.2002" y="37.3996" width="25.6" height="3.2" rx="1.6" fill="#5F6165"/>
<rect opacity="0.3" x="19.2002" y="45.3996" width="12.8" height="3.2" rx="1.6" fill="#5F6165"/>
</g>
<defs>
<linearGradient id="paint0_linear" x1="52.1356" y1="16.5023" x2="52.1356" y2="43.3844" gradientUnits="userSpaceOnUse">
<stop stop-color="#C7D3DA"/>
<stop offset="0.338542" stop-color="#C7D3DA" stop-opacity="0.739583"/>
<stop offset="0.640625" stop-color="#C7D3DA" stop-opacity="0.326115"/>
<stop offset="1" stop-color="#C7D3DA" stop-opacity="0"/>
</linearGradient>
<linearGradient id="paint1_linear" x1="46.0668" y1="9.95005" x2="59.8668" y2="31.3501" gradientUnits="userSpaceOnUse">
<stop stop-color="#5F6165"/>
<stop offset="0.489583" stop-color="#5F6165" stop-opacity="0.635417"/>
<stop offset="1" stop-color="#5F6165" stop-opacity="0"/>
</linearGradient>
<clipPath id="clip0">
<rect width="64" height="82.8" fill="white" transform="translate(0 0.599609)"/>
</clipPath>
</defs>
</svg>
