<svg width="64" height="84" viewBox="0 0 64 84" fill="none" xmlns="http://www.w3.org/2000/svg">
<g clip-path="url(#clip0)">
<path d="M60.8 83.3996H3.2C1.43269 83.3996 0 81.9669 0 80.1996V3.79961C0 2.0323 1.43269 0.599609 3.2 0.599609H45.1629C45.9574 0.599609 46.7234 0.895182 47.312 1.42872C47.3132 1.42975 47.3143 1.43077 47.3154 1.4318L62.9526 15.6474C62.9572 15.6516 62.9617 15.6558 62.9663 15.66C63.6249 16.2657 64 17.1198 64 18.0152V80.1996C64 81.9669 62.5673 83.3996 60.8 83.3996Z" fill="#242526"/>
<path fill-rule="evenodd" clip-rule="evenodd" d="M46.2381 2.61475L46.2374 2.61416C45.9431 2.3474 45.5601 2.19961 45.1629 2.19961H3.2C2.31634 2.19961 1.6 2.91595 1.6 3.79961V80.1996C1.6 81.0833 2.31635 81.7996 3.2 81.7996H60.8C61.6837 81.7996 62.4 81.0833 62.4 80.1996V18.0152C62.4 17.5675 62.2124 17.1404 61.8832 16.8376L61.8765 16.8314L46.2391 2.61571L46.2381 2.61475ZM62.9526 15.6474L47.312 1.42872C46.7234 0.895182 45.9574 0.599609 45.1629 0.599609H3.2C1.43269 0.599609 0 2.0323 0 3.79961V80.1996C0 81.9669 1.43269 83.3996 3.2 83.3996H60.8C62.5673 83.3996 64 81.9669 64 80.1996V18.0152C64 17.1198 63.6249 16.2657 62.9663 15.66L62.9526 15.6474Z" fill="#226EC2"/>
<g opacity="0.19">
<mask id="mask0" mask-type="alpha" maskUnits="userSpaceOnUse" x="46" y="8" width="28" height="27">
<rect x="46.7998" y="16.5023" width="10.6715" height="26.8821" transform="rotate(-47.7774 46.7998 16.5023)" fill="url(#paint0_linear)"/>
</mask>
<g mask="url(#mask0)">
<path d="M3.4668 84.1501H59.4668C61.6759 84.1501 63.4668 82.3592 63.4668 80.1501V18.2348C63.4668 17.6713 63.2291 17.1339 62.8121 16.7549L46.4389 1.87016C46.0708 1.53548 45.5911 1.35004 45.0936 1.35004H3.4668C1.25766 1.35004 -0.533203 3.1409 -0.533203 5.35003V80.1501C-0.533203 82.3592 1.25766 84.1501 3.4668 84.1501Z" fill="url(#paint1_linear)" style="mix-blend-mode:multiply"/>
</g>
</g>
<path d="M47.6 16.9996H63.2L46 1.3996V15.3996C46 16.2833 46.7163 16.9996 47.6 16.9996Z" fill="#226EC2"/>
<path d="M14.0317 72.1995C13.7687 72.1995 13.5602 72.127 13.4061 71.9819C13.261 71.8369 13.1885 71.6329 13.1885 71.3699V63.4411C13.1885 63.1782 13.261 62.9742 13.4061 62.8291C13.5602 62.6841 13.7687 62.6115 14.0317 62.6115H16.7245C18.293 62.6115 19.5079 63.0331 20.3693 63.8763C21.2397 64.7105 21.6749 65.8846 21.6749 67.3987C21.6749 68.9219 21.2397 70.1051 20.3693 70.9483C19.5079 71.7825 18.293 72.1995 16.7245 72.1995H14.0317ZM16.6157 70.7715C18.8189 70.7715 19.9205 69.6473 19.9205 67.3987C19.9205 65.1593 18.8189 64.0395 16.6157 64.0395H14.9429V70.7715H16.6157Z" fill="#226EC2"/>
<path d="M27.984 72.3219C27.0501 72.3219 26.2387 72.1225 25.5496 71.7235C24.8696 71.3246 24.3437 70.7534 23.972 70.0099C23.6003 69.2665 23.4144 68.3961 23.4144 67.3987C23.4144 66.4014 23.5957 65.5355 23.9584 64.8011C24.3301 64.0577 24.8605 63.4865 25.5496 63.0875C26.2387 62.6886 27.0501 62.4891 27.984 62.4891C28.9179 62.4891 29.7248 62.6886 30.4048 63.0875C31.0939 63.4865 31.6197 64.0577 31.9824 64.8011C32.3541 65.5355 32.54 66.4014 32.54 67.3987C32.54 68.3961 32.3541 69.2665 31.9824 70.0099C31.6107 70.7534 31.0803 71.3246 30.3912 71.7235C29.7112 72.1225 28.9088 72.3219 27.984 72.3219ZM27.984 70.9211C28.8635 70.9211 29.548 70.6174 30.0376 70.0099C30.5363 69.4025 30.7856 68.5321 30.7856 67.3987C30.7856 66.2654 30.5363 65.3995 30.0376 64.8011C29.548 64.1937 28.8635 63.8899 27.984 63.8899C27.0955 63.8899 26.4019 64.1937 25.9032 64.8011C25.4136 65.3995 25.1688 66.2654 25.1688 67.3987C25.1688 68.5321 25.4136 69.4025 25.9032 70.0099C26.4019 70.6174 27.0955 70.9211 27.984 70.9211Z" fill="#226EC2"/>
<path d="M38.868 72.3219C37.9432 72.3219 37.1318 72.1225 36.4336 71.7235C35.7446 71.3246 35.2142 70.7534 34.8424 70.0099C34.4707 69.2665 34.2848 68.3961 34.2848 67.3987C34.2848 66.4014 34.4707 65.5355 34.8424 64.8011C35.2142 64.0577 35.7446 63.4865 36.4336 63.0875C37.1318 62.6886 37.9432 62.4891 38.868 62.4891C39.4664 62.4891 40.0286 62.5798 40.5544 62.7611C41.0803 62.9334 41.5472 63.1873 41.9552 63.5227C42.0731 63.6134 42.1547 63.7086 42.2 63.8083C42.2454 63.9081 42.268 64.0305 42.268 64.1755C42.268 64.375 42.2136 64.5427 42.1048 64.6787C41.996 64.8147 41.8646 64.8827 41.7104 64.8827C41.5291 64.8827 41.3432 64.8193 41.1528 64.6923C40.763 64.4022 40.4003 64.2027 40.0648 64.0939C39.7294 63.9761 39.3576 63.9171 38.9496 63.9171C38.0067 63.9171 37.2904 64.2118 36.8008 64.8011C36.3203 65.3905 36.08 66.2563 36.08 67.3987C36.08 68.5502 36.3203 69.4206 36.8008 70.0099C37.2904 70.5993 38.0067 70.8939 38.9496 70.8939C39.3395 70.8939 39.6976 70.835 40.024 70.7171C40.3595 70.5993 40.7358 70.3998 41.1528 70.1187C41.2435 70.0643 41.3342 70.019 41.4248 69.9827C41.5155 69.9465 41.6107 69.9283 41.7104 69.9283C41.8646 69.9283 41.996 69.9963 42.1048 70.1323C42.2136 70.2683 42.268 70.4361 42.268 70.6355C42.268 70.7715 42.2454 70.8939 42.2 71.0027C42.1547 71.1025 42.0731 71.1977 41.9552 71.2883C41.5472 71.6238 41.0803 71.8822 40.5544 72.0635C40.0286 72.2358 39.4664 72.3219 38.868 72.3219Z" fill="#226EC2"/>
<path d="M51.3002 70.9483C51.4453 71.1206 51.5178 71.2929 51.5178 71.4651C51.5178 71.6827 51.4317 71.8731 51.2594 72.0363C51.0962 72.1995 50.9058 72.2811 50.6882 72.2811C50.4616 72.2811 50.2621 72.1814 50.0898 71.9819L47.329 68.5547L44.5546 71.9819C44.3914 72.1723 44.1965 72.2675 43.9698 72.2675C43.7522 72.2675 43.5573 72.1905 43.385 72.0363C43.2218 71.8731 43.1402 71.6827 43.1402 71.4651C43.1402 71.2838 43.2082 71.1115 43.3442 70.9483L46.309 67.3307L43.4666 63.8627C43.3306 63.7177 43.2626 63.5454 43.2626 63.3459C43.2626 63.1283 43.3442 62.9425 43.5074 62.7883C43.6706 62.6251 43.861 62.5435 44.0786 62.5435C44.3053 62.5435 44.5048 62.6433 44.677 62.8427L47.329 66.1203L49.981 62.8427C50.1442 62.6433 50.3392 62.5435 50.5658 62.5435C50.7834 62.5435 50.9738 62.6251 51.137 62.7883C51.3093 62.9425 51.3954 63.1283 51.3954 63.3459C51.3954 63.5454 51.3274 63.7177 51.1914 63.8627L48.349 67.3307L51.3002 70.9483Z" fill="#226EC2"/>
<rect opacity="0.3" x="19.2002" y="29.3996" width="25.6" height="3.2" rx="1.6" fill="#5F6165"/>
<rect opacity="0.3" x="19.2002" y="37.3996" width="25.6" height="3.2" rx="1.6" fill="#5F6165"/>
<rect opacity="0.3" x="19.2002" y="45.3996" width="12.8" height="3.2" rx="1.6" fill="#5F6165"/>
</g>
<defs>
<linearGradient id="paint0_linear" x1="52.1356" y1="16.5023" x2="52.1356" y2="43.3844" gradientUnits="userSpaceOnUse">
<stop stop-color="#C7D3DA"/>
<stop offset="0.338542" stop-color="#C7D3DA" stop-opacity="0.739583"/>
<stop offset="0.640625" stop-color="#C7D3DA" stop-opacity="0.326115"/>
<stop offset="1" stop-color="#C7D3DA" stop-opacity="0"/>
</linearGradient>
<linearGradient id="paint1_linear" x1="46.0668" y1="9.95005" x2="59.8668" y2="31.3501" gradientUnits="userSpaceOnUse">
<stop stop-color="#5F6165"/>
<stop offset="0.489583" stop-color="#5F6165" stop-opacity="0.635417"/>
<stop offset="1" stop-color="#5F6165" stop-opacity="0"/>
</linearGradient>
<clipPath id="clip0">
<rect width="64" height="82.8" fill="white" transform="translate(0 0.599609)"/>
</clipPath>
</defs>
</svg>
