<svg width="64" height="84" viewBox="0 0 64 84" fill="none" xmlns="http://www.w3.org/2000/svg">
<g clip-path="url(#clip0)">
<path d="M60.8 83.5988H3.2C1.43269 83.5988 0 82.1661 0 80.3988V3.99883C0 2.23152 1.43269 0.798828 3.2 0.798828H45.1629C45.9574 0.798828 46.7234 1.0944 47.312 1.62794C47.3132 1.62897 47.3143 1.62999 47.3154 1.63102L62.9526 15.8466C62.9572 15.8508 62.9617 15.855 62.9663 15.8592C63.6249 16.4649 64 17.319 64 18.2144V80.3988C64 82.1661 62.5673 83.5988 60.8 83.5988Z" fill="#242526"/>
<path fill-rule="evenodd" clip-rule="evenodd" d="M46.2381 2.81397L46.2374 2.81338C45.9431 2.54662 45.5601 2.39883 45.1629 2.39883H3.2C2.31634 2.39883 1.6 3.11517 1.6 3.99883V80.3988C1.6 81.2825 2.31635 81.9988 3.2 81.9988H60.8C61.6837 81.9988 62.4 81.2825 62.4 80.3988V18.2144C62.4 17.7667 62.2124 17.3397 61.8832 17.0368L61.8765 17.0307L46.2391 2.81492L46.2381 2.81397ZM62.9526 15.8466L47.312 1.62794C46.7234 1.0944 45.9574 0.798828 45.1629 0.798828H3.2C1.43269 0.798828 0 2.23152 0 3.99883V80.3988C0 82.1661 1.43269 83.5988 3.2 83.5988H60.8C62.5673 83.5988 64 82.1661 64 80.3988V18.2144C64 17.319 63.6249 16.4649 62.9663 15.8592L62.9526 15.8466Z" fill="#74C182"/>
<g opacity="0.19">
<mask id="mask0" mask-type="alpha" maskUnits="userSpaceOnUse" x="46" y="8" width="28" height="27">
<rect x="46.7998" y="16.7015" width="10.6715" height="26.8821" transform="rotate(-47.7774 46.7998 16.7015)" fill="url(#paint0_linear)"/>
</mask>
<g mask="url(#mask0)">
<path d="M3.4668 84.3493H59.4668C61.6759 84.3493 63.4668 82.5585 63.4668 80.3493V18.4341C63.4668 17.8706 63.2291 17.3332 62.8121 16.9542L46.4389 2.06944C46.0708 1.73476 45.5911 1.54932 45.0936 1.54932H3.4668C1.25766 1.54932 -0.533203 3.34018 -0.533203 5.54931V80.3493C-0.533203 82.5585 1.25766 84.3493 3.4668 84.3493Z" fill="url(#paint1_linear)" style="mix-blend-mode:multiply"/>
</g>
</g>
<path d="M47.6 17.1989H63.2L46 1.59888V15.5989C46 16.4825 46.7163 17.1989 47.6 17.1989Z" fill="#74C182"/>
<path d="M21.4531 62.7429C21.716 62.7429 21.9245 62.8245 22.0787 62.9877C22.2328 63.1419 22.3099 63.3504 22.3099 63.6133V71.5965C22.3099 71.8595 22.2283 72.0725 22.0651 72.2357C21.9109 72.3989 21.7069 72.4805 21.4531 72.4805C21.1901 72.4805 20.9816 72.3989 20.8275 72.2357C20.6733 72.0725 20.5963 71.8595 20.5963 71.5965V68.2373H15.6867V71.5965C15.6867 71.8595 15.6051 72.0725 15.4419 72.2357C15.2877 72.3989 15.0792 72.4805 14.8163 72.4805C14.5624 72.4805 14.3539 72.3989 14.1907 72.2357C14.0365 72.0725 13.9595 71.8595 13.9595 71.5965V63.6133C13.9595 63.3504 14.0365 63.1419 14.1907 62.9877C14.3448 62.8245 14.5533 62.7429 14.8163 62.7429C15.0792 62.7429 15.2877 62.8245 15.4419 62.9877C15.6051 63.1419 15.6867 63.3504 15.6867 63.6133V66.8229H20.5963V63.6133C20.5963 63.3504 20.6733 63.1419 20.8275 62.9877C20.9816 62.8245 21.1901 62.7429 21.4531 62.7429Z" fill="#74C182"/>
<path d="M27.7856 72.4669C27.5136 72.4669 27.296 72.3899 27.1328 72.2357C26.9786 72.0725 26.9016 71.8595 26.9016 71.5965V64.2525H24.4264C23.8824 64.2525 23.6104 64.0123 23.6104 63.5317C23.6104 63.0512 23.8824 62.8109 24.4264 62.8109H31.1312C31.6752 62.8109 31.9472 63.0512 31.9472 63.5317C31.9472 64.0123 31.6752 64.2525 31.1312 64.2525H28.656V71.5965C28.656 71.8595 28.5744 72.0725 28.4112 72.2357C28.257 72.3899 28.0485 72.4669 27.7856 72.4669Z" fill="#74C182"/>
<path d="M41.7702 62.7429C42.0241 62.7429 42.2281 62.8245 42.3822 62.9877C42.5363 63.1419 42.6134 63.3504 42.6134 63.6133V71.6645C42.6134 71.9184 42.5409 72.1179 42.3958 72.2629C42.2507 72.408 42.0603 72.4805 41.8246 72.4805C41.5889 72.4805 41.403 72.408 41.267 72.2629C41.131 72.1179 41.063 71.9184 41.063 71.6645V66.0613L38.751 70.4405C38.6422 70.64 38.5243 70.7896 38.3974 70.8893C38.2705 70.98 38.1209 71.0253 37.9486 71.0253C37.7763 71.0253 37.6267 70.98 37.4998 70.8893C37.3729 70.7987 37.255 70.6491 37.1462 70.4405L34.8206 66.1293V71.6645C34.8206 71.9093 34.7481 72.1088 34.603 72.2629C34.467 72.408 34.2811 72.4805 34.0454 72.4805C33.8097 72.4805 33.6238 72.408 33.4878 72.2629C33.3518 72.1179 33.2838 71.9184 33.2838 71.6645V63.6133C33.2838 63.3504 33.3563 63.1419 33.5014 62.9877C33.6555 62.8245 33.8595 62.7429 34.1134 62.7429C34.467 62.7429 34.7435 62.9379 34.943 63.3277L37.9622 69.0805L40.9678 63.3277C41.1673 62.9379 41.4347 62.7429 41.7702 62.7429Z" fill="#74C182"/>
<path d="M45.7934 72.3989C45.5304 72.3989 45.3264 72.3264 45.1814 72.1813C45.0363 72.0363 44.9638 71.8368 44.9638 71.5829V63.6133C44.9638 63.3504 45.0408 63.1419 45.195 62.9877C45.3582 62.8245 45.5712 62.7429 45.8342 62.7429C46.1062 62.7429 46.3192 62.8245 46.4734 62.9877C46.6366 63.1419 46.7182 63.3504 46.7182 63.6133V70.9573H50.5398C51.0838 70.9573 51.3558 71.1976 51.3558 71.6781C51.3558 72.1587 51.0838 72.3989 50.5398 72.3989H45.7934Z" fill="#74C182"/>
<path fill-rule="evenodd" clip-rule="evenodd" d="M41.5998 30.3988H22.3998C21.9755 30.3988 21.5685 30.5674 21.2684 30.8674C20.9684 31.1675 20.7998 31.5745 20.7998 31.9988V46.3988C20.7998 46.8232 20.9684 47.2301 21.2684 47.5302C21.5685 47.8302 21.9755 47.9988 22.3998 47.9988H41.5998C42.0242 47.9988 42.4311 47.8302 42.7312 47.5302C43.0312 47.2301 43.1998 46.8232 43.1998 46.3988V31.9988C43.1998 31.5745 43.0312 31.1675 42.7312 30.8674C42.4311 30.5674 42.0242 30.3988 41.5998 30.3988ZM25.5998 33.5988C25.9163 33.5988 26.2256 33.6926 26.4887 33.8685C26.7518 34.0443 26.9569 34.2941 27.078 34.5865C27.1991 34.8789 27.2308 35.2006 27.1691 35.5109C27.1073 35.8213 26.9549 36.1064 26.7312 36.3302C26.5074 36.5539 26.2223 36.7063 25.9119 36.7681C25.6016 36.8298 25.2799 36.7981 24.9875 36.677C24.6951 36.5559 24.4453 36.3508 24.2695 36.0877C24.0936 35.8246 23.9998 35.5153 23.9998 35.1988C23.9998 34.7745 24.1684 34.3675 24.4684 34.0674C24.7685 33.7674 25.1755 33.5988 25.5998 33.5988ZM39.9998 44.7988H23.9998V43.1988L27.1998 39.9988L28.7998 41.5988L35.1998 35.1988L39.9998 39.9988V44.7988Z" fill="#363739"/>
</g>
<defs>
<linearGradient id="paint0_linear" x1="52.1356" y1="16.7015" x2="52.1356" y2="43.5836" gradientUnits="userSpaceOnUse">
<stop stop-color="#C7D3DA"/>
<stop offset="0.338542" stop-color="#C7D3DA" stop-opacity="0.739583"/>
<stop offset="0.640625" stop-color="#C7D3DA" stop-opacity="0.326115"/>
<stop offset="1" stop-color="#C7D3DA" stop-opacity="0"/>
</linearGradient>
<linearGradient id="paint1_linear" x1="46.0668" y1="10.1493" x2="59.8668" y2="31.5493" gradientUnits="userSpaceOnUse">
<stop stop-color="#5F6165"/>
<stop offset="0.489583" stop-color="#5F6165" stop-opacity="0.635417"/>
<stop offset="1" stop-color="#5F6165" stop-opacity="0"/>
</linearGradient>
<clipPath id="clip0">
<rect width="64" height="82.8" fill="white" transform="translate(0 0.798828)"/>
</clipPath>
</defs>
</svg>
