<svg width="64" height="83" viewBox="0 0 64 83" fill="none" xmlns="http://www.w3.org/2000/svg">
<g clip-path="url(#clip0)">
<path d="M60.8 82.9992H3.2C1.43269 82.9992 0 81.5665 0 79.7992V3.39922C0 1.63191 1.43269 0.199219 3.2 0.199219H45.1629C45.9574 0.199219 46.7234 0.494791 47.312 1.02833C47.3132 1.02936 47.3143 1.03038 47.3154 1.03141L62.9526 15.247C62.9572 15.2512 62.9617 15.2554 62.9663 15.2596C63.6249 15.8653 64 16.7194 64 17.6148V79.7992C64 81.5665 62.5673 82.9992 60.8 82.9992Z" fill="#242526"/>
<path fill-rule="evenodd" clip-rule="evenodd" d="M46.2381 2.21436L46.2374 2.21377C45.9431 1.94701 45.5601 1.79922 45.1629 1.79922H3.2C2.31634 1.79922 1.6 2.51556 1.6 3.39922V79.7992C1.6 80.6829 2.31635 81.3992 3.2 81.3992H60.8C61.6837 81.3992 62.4 80.6829 62.4 79.7992V17.6148C62.4 17.1671 62.2124 16.7401 61.8832 16.4372L61.8765 16.4311L46.2391 2.21531L46.2381 2.21436ZM62.9526 15.247L47.312 1.02833C46.7234 0.494791 45.9574 0.199219 45.1629 0.199219H3.2C1.43269 0.199219 0 1.63191 0 3.39922V79.7992C0 81.5665 1.43269 82.9992 3.2 82.9992H60.8C62.5673 82.9992 64 81.5665 64 79.7992V17.6148C64 16.7194 63.6249 15.8653 62.9663 15.2596L62.9526 15.247Z" fill="#EBAE64"/>
<g opacity="0.19">
<mask id="mask0" mask-type="alpha" maskUnits="userSpaceOnUse" x="46" y="8" width="28" height="27">
<rect x="46.7998" y="16.1019" width="10.6715" height="26.8821" transform="rotate(-47.7774 46.7998 16.1019)" fill="url(#paint0_linear)"/>
</mask>
<g mask="url(#mask0)">
<path d="M3.4668 83.7497H59.4668C61.6759 83.7497 63.4668 81.9588 63.4668 79.7497V17.8344C63.4668 17.2709 63.2291 16.7336 62.8121 16.3545L46.4389 1.46977C46.0708 1.13509 45.5911 0.949646 45.0936 0.949646H3.4668C1.25766 0.949646 -0.533203 2.74051 -0.533203 4.94964V79.7497C-0.533203 81.9588 1.25766 83.7497 3.4668 83.7497Z" fill="url(#paint1_linear)" style="mix-blend-mode:multiply"/>
</g>
</g>
<path d="M47.6 16.5992H63.2L46 0.999207V14.9992C46 15.8829 46.7163 16.5992 47.6 16.5992Z" fill="#EBAE64"/>
<path d="M27.1915 62.1431C27.4453 62.1431 27.6493 62.2247 27.8035 62.3879C27.9576 62.5421 28.0347 62.7506 28.0347 63.0135V71.0648C28.0347 71.3186 27.9621 71.5181 27.8171 71.6632C27.672 71.8082 27.4816 71.8808 27.2459 71.8808C27.0101 71.8808 26.8243 71.8082 26.6883 71.6632C26.5523 71.5181 26.4843 71.3186 26.4843 71.0648V65.4615L24.1723 69.8408C24.0635 70.0402 23.9456 70.1898 23.8187 70.2896C23.6917 70.3802 23.5421 70.4256 23.3699 70.4256C23.1976 70.4256 23.048 70.3802 22.9211 70.2896C22.7941 70.1989 22.6763 70.0493 22.5675 69.8408L20.2419 65.5295V71.0648C20.2419 71.3096 20.1693 71.509 20.0243 71.6632C19.8883 71.8082 19.7024 71.8808 19.4667 71.8808C19.2309 71.8808 19.0451 71.8082 18.9091 71.6632C18.7731 71.5181 18.7051 71.3186 18.7051 71.0648V63.0135C18.7051 62.7506 18.7776 62.5421 18.9227 62.3879C19.0768 62.2247 19.2808 62.1431 19.5347 62.1431C19.8883 62.1431 20.1648 62.3381 20.3643 62.7279L23.3835 68.4808L26.3891 62.7279C26.5885 62.3381 26.856 62.1431 27.1915 62.1431Z" fill="#EBAE64"/>
<path d="M31.2554 71.8808C30.9925 71.8808 30.7794 71.8037 30.6162 71.6496C30.4621 71.4864 30.385 71.2688 30.385 70.9968V63.0407C30.385 62.7778 30.4576 62.5738 30.6026 62.4287C30.7568 62.2837 30.9653 62.2111 31.2282 62.2111H34.5738C35.5984 62.2111 36.3962 62.4695 36.9674 62.9863C37.5386 63.4941 37.8242 64.2103 37.8242 65.1351C37.8242 66.0599 37.5386 66.7807 36.9674 67.2976C36.3962 67.8144 35.5984 68.0728 34.5738 68.0728H32.1394V70.9968C32.1394 71.2688 32.0578 71.4864 31.8946 71.6496C31.7405 71.8037 31.5274 71.8808 31.2554 71.8808ZM34.3562 66.7263C35.5621 66.7263 36.165 66.2005 36.165 65.1487C36.165 64.097 35.5621 63.5711 34.3562 63.5711H32.1394V66.7263H34.3562Z" fill="#EBAE64"/>
<path d="M44.1504 66.876C44.7216 67.021 45.1568 67.2976 45.456 67.7056C45.7642 68.1045 45.9184 68.6032 45.9184 69.2016C45.9184 70.0266 45.6146 70.684 45.0072 71.1736C44.3997 71.6632 43.5792 71.908 42.5456 71.908C41.9562 71.908 41.3896 71.8173 40.8456 71.636C40.3016 71.4546 39.8392 71.2008 39.4584 70.8744C39.2498 70.693 39.1456 70.48 39.1456 70.2352C39.1456 70.0357 39.2 69.868 39.3088 69.732C39.4266 69.5869 39.5626 69.5144 39.7168 69.5144C39.8074 69.5144 39.889 69.5325 39.9616 69.5688C40.0341 69.596 40.1338 69.6458 40.2608 69.7184C40.6416 69.9722 41.0042 70.1672 41.3488 70.3032C41.6933 70.4392 42.0696 70.5072 42.4776 70.5072C43.076 70.5072 43.5202 70.3893 43.8104 70.1536C44.1005 69.9088 44.2456 69.5416 44.2456 69.052C44.2456 68.5714 44.0914 68.2178 43.7832 67.9912C43.484 67.7554 43.017 67.6376 42.3824 67.6376H41.6072C41.3986 67.6376 41.2354 67.5696 41.1176 67.4336C41.0088 67.2885 40.9544 67.1253 40.9544 66.944C40.9544 66.7536 41.0088 66.5904 41.1176 66.4544C41.2354 66.3184 41.3986 66.2503 41.6072 66.2503H42.1512C43.3933 66.2503 44.0144 65.7834 44.0144 64.8495C44.0144 64.4143 43.8829 64.0789 43.62 63.8431C43.357 63.6074 42.9944 63.4895 42.532 63.4895C41.8701 63.4895 41.1629 63.7525 40.4104 64.2783C40.2834 64.3509 40.1837 64.4053 40.1112 64.4415C40.0386 64.4687 39.957 64.4823 39.8664 64.4823C39.7122 64.4823 39.5762 64.4143 39.4584 64.2783C39.3496 64.1333 39.2952 63.961 39.2952 63.7615C39.2952 63.6255 39.3178 63.5122 39.3632 63.4215C39.4176 63.3218 39.4992 63.2221 39.608 63.1223C39.9888 62.805 40.4421 62.5557 40.968 62.3743C41.5029 62.1839 42.0469 62.0887 42.6 62.0887C43.5429 62.0887 44.2909 62.3199 44.844 62.7823C45.4061 63.2447 45.6872 63.8613 45.6872 64.6319C45.6781 65.1578 45.5376 65.6202 45.2656 66.0191C45.0026 66.409 44.6309 66.6946 44.1504 66.876Z" fill="#EBAE64"/>
<path d="M38.4004 34.1353V42.2281C37.7903 41.8759 37.0811 41.7348 36.3827 41.8268C35.6843 41.9187 35.0357 42.2386 34.5376 42.7367C34.0395 43.2348 33.7197 43.8834 33.6278 44.5818C33.5358 45.2802 33.6769 45.9894 34.0291 46.5994C34.3814 47.2095 34.925 47.6863 35.5759 47.9558C36.2267 48.2254 36.9482 48.2727 37.6287 48.0904C38.3091 47.908 38.9104 47.5063 39.3392 46.9474C39.768 46.3885 40.0004 45.7038 40.0004 44.9993V28.8809C40.0006 28.6755 39.9515 28.4731 39.857 28.2908C39.7625 28.1084 39.6256 27.9514 39.4577 27.8331C39.2898 27.7148 39.0959 27.6386 38.8924 27.611C38.6889 27.5834 38.4817 27.6052 38.2884 27.6745L28.0484 31.3321C27.8002 31.4211 27.5855 31.5846 27.4337 31.8003C27.2819 32.0159 27.2004 32.2732 27.2004 32.5369V43.8265C26.5904 43.4743 25.8812 43.3333 25.1829 43.4252C24.4846 43.5171 23.836 43.8368 23.3379 44.3348C22.8398 44.8328 22.5199 45.4812 22.4278 46.1796C22.3358 46.8779 22.4767 47.5871 22.8287 48.1972C23.1808 48.8072 23.7243 49.2841 24.3749 49.5539C25.0256 49.8236 25.7471 49.8711 26.4275 49.6891C27.1079 49.507 27.7093 49.1055 28.1383 48.5469C28.5673 47.9883 28.8001 47.3037 28.8004 46.5993V37.5641L38.4004 34.1369V34.1353Z" fill="#363739"/>
</g>
<defs>
<linearGradient id="paint0_linear" x1="52.1356" y1="16.1019" x2="52.1356" y2="42.984" gradientUnits="userSpaceOnUse">
<stop stop-color="#C7D3DA"/>
<stop offset="0.338542" stop-color="#C7D3DA" stop-opacity="0.739583"/>
<stop offset="0.640625" stop-color="#C7D3DA" stop-opacity="0.326115"/>
<stop offset="1" stop-color="#C7D3DA" stop-opacity="0"/>
</linearGradient>
<linearGradient id="paint1_linear" x1="46.0668" y1="9.54966" x2="59.8668" y2="30.9497" gradientUnits="userSpaceOnUse">
<stop stop-color="#5F6165"/>
<stop offset="0.489583" stop-color="#5F6165" stop-opacity="0.635417"/>
<stop offset="1" stop-color="#5F6165" stop-opacity="0"/>
</linearGradient>
<clipPath id="clip0">
<rect width="64" height="82.8" fill="white" transform="translate(0 0.199219)"/>
</clipPath>
</defs>
</svg>
