<svg width="64" height="83" viewBox="0 0 64 83" fill="none" xmlns="http://www.w3.org/2000/svg">
<g clip-path="url(#clip0)">
<path d="M60.8 82.8H3.2C1.43269 82.8 0 81.3673 0 79.6V3.2C0 1.43269 1.43269 0 3.2 0H45.1629C45.9574 0 46.7234 0.295573 47.312 0.829113C47.3132 0.830139 47.3143 0.831165 47.3154 0.832192L62.9526 15.0478C62.9572 15.052 62.9617 15.0562 62.9663 15.0604C63.6249 15.6661 64 16.5202 64 17.4156V79.6C64 81.3673 62.5673 82.8 60.8 82.8Z" fill="#242526"/>
<path fill-rule="evenodd" clip-rule="evenodd" d="M46.2381 2.01514L46.2374 2.01456C45.9431 1.74779 45.5601 1.6 45.1629 1.6H3.2C2.31634 1.6 1.6 2.31634 1.6 3.2V79.6C1.6 80.4837 2.31635 81.2 3.2 81.2H60.8C61.6837 81.2 62.4 80.4837 62.4 79.6V17.4156C62.4 16.9679 62.2124 16.5408 61.8832 16.238L61.8765 16.2318L46.2391 2.0161L46.2381 2.01514ZM62.9526 15.0478L47.312 0.829113C46.7234 0.295573 45.9574 0 45.1629 0H3.2C1.43269 0 0 1.43269 0 3.2V79.6C0 81.3673 1.43269 82.8 3.2 82.8H60.8C62.5673 82.8 64 81.3673 64 79.6V17.4156C64 16.5202 63.6249 15.6661 62.9663 15.0604L62.9526 15.0478Z" fill="#E6633F"/>
<g opacity="0.19">
<mask id="mask0" mask-type="alpha" maskUnits="userSpaceOnUse" x="46" y="8" width="28" height="26">
<rect x="46.7998" y="15.9026" width="10.6715" height="26.8821" transform="rotate(-47.7774 46.7998 15.9026)" fill="url(#paint0_linear)"/>
</mask>
<g mask="url(#mask0)">
<path d="M3.4668 83.5504H59.4668C61.6759 83.5504 63.4668 81.7596 63.4668 79.5504V17.6352C63.4668 17.0717 63.2291 16.5343 62.8121 16.1553L46.4389 1.27055C46.0708 0.935871 45.5911 0.750427 45.0936 0.750427H3.4668C1.25766 0.750427 -0.533203 2.54129 -0.533203 4.75043V79.5504C-0.533203 81.7596 1.25766 83.5504 3.4668 83.5504Z" fill="url(#paint1_linear)" style="mix-blend-mode:multiply"/>
</g>
</g>
<path d="M47.6 16.4H63.2L46 0.799988V14.8C46 15.6836 46.7163 16.4 47.6 16.4Z" fill="#E6633F"/>
<path d="M22.1175 71.3223C21.1836 71.3223 20.3721 71.1229 19.6831 70.7239C19.0031 70.325 18.4772 69.7538 18.1055 69.0103C17.7337 68.2669 17.5479 67.3965 17.5479 66.3991C17.5479 65.4018 17.7292 64.5359 18.0919 63.8015C18.4636 63.0581 18.994 62.4869 19.6831 62.0879C20.3721 61.689 21.1836 61.4895 22.1175 61.4895C23.0513 61.4895 23.8583 61.689 24.5383 62.0879C25.2273 62.4869 25.7532 63.0581 26.1159 63.8015C26.4876 64.5359 26.6735 65.4018 26.6735 66.3991C26.6735 67.3965 26.4876 68.2669 26.1159 69.0103C25.7441 69.7538 25.2137 70.325 24.5247 70.7239C23.8447 71.1229 23.0423 71.3223 22.1175 71.3223ZM22.1175 69.9215C22.9969 69.9215 23.6815 69.6178 24.1711 69.0103C24.6697 68.4029 24.9191 67.5325 24.9191 66.3991C24.9191 65.2658 24.6697 64.3999 24.1711 63.8015C23.6815 63.1941 22.9969 62.8903 22.1175 62.8903C21.2289 62.8903 20.5353 63.1941 20.0367 63.8015C19.5471 64.3999 19.3023 65.2658 19.3023 66.3991C19.3023 67.5325 19.5471 68.4029 20.0367 69.0103C20.5353 69.6178 21.2289 69.9215 22.1175 69.9215Z" fill="#E6633F"/>
<path d="M29.5607 71.1999C29.2978 71.1999 29.0892 71.1274 28.9351 70.9823C28.79 70.8373 28.7175 70.6333 28.7175 70.3703V62.4415C28.7175 62.1786 28.79 61.9746 28.9351 61.8295C29.0892 61.6845 29.2978 61.6119 29.5607 61.6119H32.2535C33.822 61.6119 35.037 62.0335 35.8983 62.8767C36.7687 63.7109 37.2039 64.885 37.2039 66.3991C37.2039 67.9223 36.7687 69.1055 35.8983 69.9487C35.037 70.7829 33.822 71.1999 32.2535 71.1999H29.5607ZM32.1447 69.7719C34.3479 69.7719 35.4495 68.6477 35.4495 66.3991C35.4495 64.1597 34.3479 63.0399 32.1447 63.0399H30.4719V69.7719H32.1447Z" fill="#E6633F"/>
<path d="M40.113 71.2815C39.8501 71.2815 39.637 71.2045 39.4738 71.0503C39.3197 70.8871 39.2426 70.6695 39.2426 70.3975V62.4415C39.2426 62.1786 39.3151 61.9746 39.4602 61.8295C39.6143 61.6845 39.8229 61.6119 40.0858 61.6119H43.4314C44.4559 61.6119 45.2538 61.8703 45.825 62.3871C46.3962 62.8949 46.6818 63.6111 46.6818 64.5359C46.6818 65.4607 46.3962 66.1815 45.825 66.6983C45.2538 67.2151 44.4559 67.4735 43.4314 67.4735H40.997V70.3975C40.997 70.6695 40.9154 70.8871 40.7522 71.0503C40.5981 71.2045 40.385 71.2815 40.113 71.2815ZM43.2138 66.1271C44.4197 66.1271 45.0226 65.6013 45.0226 64.5495C45.0226 63.4978 44.4197 62.9719 43.2138 62.9719H40.997V66.1271H43.2138Z" fill="#E6633F"/>
<path d="M38.6003 38.7915H31.4003V31.3915C31.4003 31.3385 31.4003 30.8768 31.4003 30.413C31.4003 29.8611 30.9529 29.4121 30.4026 29.455C29.2361 29.5459 27.8946 29.7872 26.9649 30.1723C25.7529 30.6742 24.652 31.4105 23.7253 32.339C22.8129 33.2486 22.0861 34.3269 21.5853 35.514C21.0653 36.7465 20.8003 38.054 20.8003 39.404C20.8003 40.754 21.0653 42.059 21.5853 43.2915C22.0878 44.479 22.8078 45.549 23.7253 46.4665C24.6428 47.384 25.7103 48.104 26.9003 48.6065C28.1306 49.1284 29.4538 49.3963 30.7903 49.394C32.1021 49.3953 33.4012 49.1376 34.6132 48.6357C35.8252 48.1337 36.9261 47.3974 37.8528 46.469C38.7703 45.5515 39.4903 44.484 39.9928 43.294C40.3952 42.3454 40.6466 40.9777 40.7396 39.7885C40.7826 39.2385 40.3337 38.7915 39.7821 38.7915C39.2354 38.7915 38.657 38.7915 38.6003 38.7915Z" fill="#363739"/>
<path d="M43.1253 36.2457L43.1903 36.9507C43.2003 37.0657 43.1078 37.1632 42.9903 37.1657L33.4003 37.1907C33.2903 37.1907 33.2003 37.1007 33.2003 36.9907V27.3982C33.2003 27.2807 33.3003 27.1907 33.4178 27.2007L34.1253 27.2657C36.4386 27.48 38.6043 28.4961 40.2478 30.1382C41.8928 31.7757 42.9128 33.9457 43.1253 36.2457Z" fill="#363739"/>
<path d="M43.1252 36.2456L43.1902 36.9506C43.2002 37.0656 43.1077 37.1631 42.9902 37.1656L33.4002 37.1906C33.2902 37.1906 33.2002 37.1006 33.2002 36.9906V27.3981C33.2002 27.2806 33.3002 27.1906 33.4177 27.2006L34.1252 27.2656C36.4385 27.48 38.6042 28.4961 40.2477 30.1381C41.8927 31.7756 42.9127 33.9456 43.1252 36.2456Z" fill="#717376" fill-opacity="0.25"/>
</g>
<defs>
<linearGradient id="paint0_linear" x1="52.1356" y1="15.9026" x2="52.1356" y2="42.7848" gradientUnits="userSpaceOnUse">
<stop stop-color="#C7D3DA"/>
<stop offset="0.338542" stop-color="#C7D3DA" stop-opacity="0.739583"/>
<stop offset="0.640625" stop-color="#C7D3DA" stop-opacity="0.326115"/>
<stop offset="1" stop-color="#C7D3DA" stop-opacity="0"/>
</linearGradient>
<linearGradient id="paint1_linear" x1="46.0668" y1="9.35044" x2="59.8668" y2="30.7504" gradientUnits="userSpaceOnUse">
<stop stop-color="#5F6165"/>
<stop offset="0.489583" stop-color="#5F6165" stop-opacity="0.635417"/>
<stop offset="1" stop-color="#5F6165" stop-opacity="0"/>
</linearGradient>
<clipPath id="clip0">
<rect width="64" height="82.8" fill="white"/>
</clipPath>
</defs>
</svg>
