<svg width="64" height="84" viewBox="0 0 64 84" fill="none" xmlns="http://www.w3.org/2000/svg">
<g clip-path="url(#clip0)">
<path d="M60.8 83.3996H3.2C1.43269 83.3996 0 81.9669 0 80.1996V3.79961C0 2.0323 1.43269 0.599609 3.2 0.599609H45.1629C45.9574 0.599609 46.7234 0.895182 47.312 1.42872C47.3132 1.42975 47.3143 1.43077 47.3154 1.4318L62.9526 15.6474C62.9572 15.6516 62.9617 15.6558 62.9663 15.66C63.6249 16.2657 64 17.1198 64 18.0152V80.1996C64 81.9669 62.5673 83.3996 60.8 83.3996Z" fill="#242526"/>
<path fill-rule="evenodd" clip-rule="evenodd" d="M46.2381 2.61475L46.2374 2.61416C45.9431 2.3474 45.5601 2.19961 45.1629 2.19961H3.2C2.31634 2.19961 1.6 2.91595 1.6 3.79961V80.1996C1.6 81.0833 2.31635 81.7996 3.2 81.7996H60.8C61.6837 81.7996 62.4 81.0833 62.4 80.1996V18.0152C62.4 17.5675 62.2124 17.1404 61.8832 16.8376L61.8765 16.8314L46.2391 2.61571L46.2381 2.61475ZM62.9526 15.6474L47.312 1.42872C46.7234 0.895182 45.9574 0.599609 45.1629 0.599609H3.2C1.43269 0.599609 0 2.0323 0 3.79961V80.1996C0 81.9669 1.43269 83.3996 3.2 83.3996H60.8C62.5673 83.3996 64 81.9669 64 80.1996V18.0152C64 17.1198 63.6249 16.2657 62.9663 15.66L62.9526 15.6474Z" fill="#226EC2"/>
<g opacity="0.19">
<mask id="mask0" mask-type="alpha" maskUnits="userSpaceOnUse" x="46" y="8" width="28" height="27">
<rect x="46.7998" y="16.5023" width="10.6715" height="26.8821" transform="rotate(-47.7774 46.7998 16.5023)" fill="url(#paint0_linear)"/>
</mask>
<g mask="url(#mask0)">
<path d="M3.4668 84.1501H59.4668C61.6759 84.1501 63.4668 82.3592 63.4668 80.1501V18.2348C63.4668 17.6713 63.2291 17.1339 62.8121 16.7549L46.4389 1.87016C46.0708 1.53548 45.5911 1.35004 45.0936 1.35004H3.4668C1.25766 1.35004 -0.533203 3.1409 -0.533203 5.35003V80.1501C-0.533203 82.3592 1.25766 84.1501 3.4668 84.1501Z" fill="url(#paint1_linear)" style="mix-blend-mode:multiply"/>
</g>
</g>
<path d="M47.6 16.9996H63.2L46 1.3996V15.3996C46 16.2833 46.7163 16.9996 47.6 16.9996Z" fill="#226EC2"/>
<path d="M22.9217 72.3219C21.9878 72.3219 21.1763 72.1225 20.4873 71.7235C19.8073 71.3246 19.2814 70.7534 18.9097 70.0099C18.5379 69.2665 18.3521 68.3961 18.3521 67.3987C18.3521 66.4014 18.5334 65.5355 18.8961 64.8011C19.2678 64.0577 19.7982 63.4865 20.4873 63.0875C21.1763 62.6886 21.9878 62.4891 22.9217 62.4891C23.8555 62.4891 24.6625 62.6886 25.3425 63.0875C26.0315 63.4865 26.5574 64.0577 26.9201 64.8011C27.2918 65.5355 27.4777 66.4014 27.4777 67.3987C27.4777 68.3961 27.2918 69.2665 26.9201 70.0099C26.5483 70.7534 26.0179 71.3246 25.3289 71.7235C24.6489 72.1225 23.8465 72.3219 22.9217 72.3219ZM22.9217 70.9211C23.8011 70.9211 24.4857 70.6174 24.9753 70.0099C25.4739 69.4025 25.7233 68.5321 25.7233 67.3987C25.7233 66.2654 25.4739 65.3995 24.9753 64.8011C24.4857 64.1937 23.8011 63.8899 22.9217 63.8899C22.0331 63.8899 21.3395 64.1937 20.8409 64.8011C20.3513 65.3995 20.1065 66.2654 20.1065 67.3987C20.1065 68.5321 20.3513 69.4025 20.8409 70.0099C21.3395 70.6174 22.0331 70.9211 22.9217 70.9211Z" fill="#226EC2"/>
<path d="M30.3649 72.1995C30.102 72.1995 29.8934 72.127 29.7393 71.9819C29.5942 71.8369 29.5217 71.6329 29.5217 71.3699V63.4411C29.5217 63.1782 29.5942 62.9742 29.7393 62.8291C29.8934 62.6841 30.102 62.6115 30.3649 62.6115H33.0577C34.6262 62.6115 35.8412 63.0331 36.7025 63.8763C37.5729 64.7105 38.0081 65.8846 38.0081 67.3987C38.0081 68.9219 37.5729 70.1051 36.7025 70.9483C35.8412 71.7825 34.6262 72.1995 33.0577 72.1995H30.3649ZM32.9489 70.7715C35.1521 70.7715 36.2537 69.6473 36.2537 67.3987C36.2537 65.1593 35.1521 64.0395 32.9489 64.0395H31.2761V70.7715H32.9489Z" fill="#226EC2"/>
<path d="M42.6173 72.2675C42.3453 72.2675 42.1277 72.1905 41.9645 72.0363C41.8104 71.8731 41.7333 71.6601 41.7333 71.3971V64.0531H39.2581C38.7141 64.0531 38.4421 63.8129 38.4421 63.3323C38.4421 62.8518 38.7141 62.6115 39.2581 62.6115H45.9629C46.5069 62.6115 46.7789 62.8518 46.7789 63.3323C46.7789 63.8129 46.5069 64.0531 45.9629 64.0531H43.4877V71.3971C43.4877 71.6601 43.4061 71.8731 43.2429 72.0363C43.0888 72.1905 42.8803 72.2675 42.6173 72.2675Z" fill="#226EC2"/>
<rect opacity="0.3" x="19.2002" y="29.3996" width="25.6" height="3.2" rx="1.6" fill="#5F6165"/>
<rect opacity="0.3" x="19.2002" y="37.3996" width="25.6" height="3.2" rx="1.6" fill="#5F6165"/>
<rect opacity="0.3" x="19.2002" y="45.3996" width="12.8" height="3.2" rx="1.6" fill="#5F6165"/>
</g>
<defs>
<linearGradient id="paint0_linear" x1="52.1356" y1="16.5023" x2="52.1356" y2="43.3844" gradientUnits="userSpaceOnUse">
<stop stop-color="#C7D3DA"/>
<stop offset="0.338542" stop-color="#C7D3DA" stop-opacity="0.739583"/>
<stop offset="0.640625" stop-color="#C7D3DA" stop-opacity="0.326115"/>
<stop offset="1" stop-color="#C7D3DA" stop-opacity="0"/>
</linearGradient>
<linearGradient id="paint1_linear" x1="46.0668" y1="9.95005" x2="59.8668" y2="31.3501" gradientUnits="userSpaceOnUse">
<stop stop-color="#5F6165"/>
<stop offset="0.489583" stop-color="#5F6165" stop-opacity="0.635417"/>
<stop offset="1" stop-color="#5F6165" stop-opacity="0"/>
</linearGradient>
<clipPath id="clip0">
<rect width="64" height="82.8" fill="white" transform="translate(0 0.599609)"/>
</clipPath>
</defs>
</svg>
