<svg width="64" height="83" viewBox="0 0 64 83" fill="none" xmlns="http://www.w3.org/2000/svg">
<g clip-path="url(#clip0)">
<path d="M60.8 82.9992H3.2C1.43269 82.9992 0 81.5665 0 79.7992V3.39922C0 1.63191 1.43269 0.199219 3.2 0.199219H45.1629C45.9574 0.199219 46.7234 0.494791 47.312 1.02833C47.3132 1.02936 47.3143 1.03038 47.3154 1.03141L62.9526 15.247C62.9572 15.2512 62.9617 15.2554 62.9663 15.2596C63.6249 15.8653 64 16.7194 64 17.6148V79.7992C64 81.5665 62.5673 82.9992 60.8 82.9992Z" fill="#242526"/>
<path fill-rule="evenodd" clip-rule="evenodd" d="M46.2381 2.21436L46.2374 2.21377C45.9431 1.94701 45.5601 1.79922 45.1629 1.79922H3.2C2.31634 1.79922 1.6 2.51556 1.6 3.39922V79.7992C1.6 80.6829 2.31635 81.3992 3.2 81.3992H60.8C61.6837 81.3992 62.4 80.6829 62.4 79.7992V17.6148C62.4 17.1671 62.2124 16.7401 61.8832 16.4372L61.8765 16.4311L46.2391 2.21531L46.2381 2.21436ZM62.9526 15.247L47.312 1.02833C46.7234 0.494791 45.9574 0.199219 45.1629 0.199219H3.2C1.43269 0.199219 0 1.63191 0 3.39922V79.7992C0 81.5665 1.43269 82.9992 3.2 82.9992H60.8C62.5673 82.9992 64 81.5665 64 79.7992V17.6148C64 16.7194 63.6249 15.8653 62.9663 15.2596L62.9526 15.247Z" fill="#EBAE64"/>
<g opacity="0.19">
<mask id="mask0" mask-type="alpha" maskUnits="userSpaceOnUse" x="46" y="8" width="28" height="27">
<rect x="46.7998" y="16.1019" width="10.6715" height="26.8821" transform="rotate(-47.7774 46.7998 16.1019)" fill="url(#paint0_linear)"/>
</mask>
<g mask="url(#mask0)">
<path d="M3.4668 83.7497H59.4668C61.6759 83.7497 63.4668 81.9588 63.4668 79.7497V17.8344C63.4668 17.2709 63.2291 16.7336 62.8121 16.3545L46.4389 1.46977C46.0708 1.13509 45.5911 0.949646 45.0936 0.949646H3.4668C1.25766 0.949646 -0.533203 2.74051 -0.533203 4.94964V79.7497C-0.533203 81.9588 1.25766 83.7497 3.4668 83.7497Z" fill="url(#paint1_linear)" style="mix-blend-mode:multiply"/>
</g>
</g>
<path d="M47.6 16.5992H63.2L46 0.999207V14.9992C46 15.8829 46.7163 16.5992 47.6 16.5992Z" fill="#EBAE64"/>
<path d="M21.7586 71.9215C20.8247 71.9215 20.0132 71.7221 19.3242 71.3231C18.6442 70.9242 18.1183 70.353 17.7466 69.6095C17.3748 68.8661 17.189 67.9957 17.189 66.9983C17.189 66.001 17.3703 65.1351 17.733 64.4007C18.1047 63.6573 18.6351 63.0861 19.3242 62.6871C20.0132 62.2882 20.8247 62.0887 21.7586 62.0887C22.6924 62.0887 23.4994 62.2882 24.1794 62.6871C24.8684 63.0861 25.3943 63.6573 25.757 64.4007C26.1287 65.1351 26.3146 66.001 26.3146 66.9983C26.3146 67.9957 26.1287 68.8661 25.757 69.6095C25.3852 70.353 24.8548 70.9242 24.1658 71.3231C23.4858 71.7221 22.6834 71.9215 21.7586 71.9215ZM21.7586 70.5207C22.638 70.5207 23.3226 70.217 23.8122 69.6095C24.3108 69.0021 24.5602 68.1317 24.5602 66.9983C24.5602 65.865 24.3108 64.9991 23.8122 64.4007C23.3226 63.7933 22.638 63.4895 21.7586 63.4895C20.87 63.4895 20.1764 63.7933 19.6778 64.4007C19.1882 64.9991 18.9434 65.865 18.9434 66.9983C18.9434 68.1317 19.1882 69.0021 19.6778 69.6095C20.1764 70.217 20.87 70.5207 21.7586 70.5207Z" fill="#EBAE64"/>
<path d="M35.6618 66.6175C35.8703 66.6175 36.0381 66.681 36.165 66.8079C36.2919 66.9258 36.3554 67.0845 36.3554 67.2839V70.2079C36.3554 70.625 36.301 70.9197 36.1922 71.0919C36.0834 71.2642 35.8613 71.4047 35.5258 71.5135C35.1631 71.6405 34.7415 71.7402 34.261 71.8127C33.7805 71.8853 33.3181 71.9215 32.8738 71.9215C31.8855 71.9215 31.0287 71.7266 30.3034 71.3367C29.5781 70.9469 29.0205 70.3847 28.6306 69.6503C28.2498 68.9069 28.0594 68.0229 28.0594 66.9983C28.0594 65.9919 28.2498 65.1215 28.6306 64.3871C29.0205 63.6437 29.569 63.077 30.2762 62.6871C30.9834 62.2882 31.8175 62.0887 32.7786 62.0887C34.057 62.0887 35.1042 62.4333 35.9202 63.1223C36.029 63.2221 36.1061 63.3218 36.1514 63.4215C36.2058 63.5213 36.233 63.6391 36.233 63.7751C36.233 63.9746 36.1786 64.1423 36.0698 64.2783C35.961 64.4143 35.8295 64.4823 35.6754 64.4823C35.5757 64.4823 35.485 64.4687 35.4034 64.4415C35.3218 64.4053 35.2266 64.3509 35.1178 64.2783C34.7189 63.9973 34.3471 63.8023 34.0026 63.6935C33.6581 63.5757 33.2682 63.5167 32.833 63.5167C31.8447 63.5167 31.0967 63.8114 30.589 64.4007C30.0903 64.981 29.841 65.8469 29.841 66.9983C29.841 69.3557 30.8746 70.5343 32.9418 70.5343C33.5583 70.5343 34.1749 70.4482 34.7914 70.2759V67.8687H33.2546C33.037 67.8687 32.8647 67.8143 32.7378 67.7055C32.6199 67.5967 32.561 67.4426 32.561 67.2431C32.561 67.0437 32.6199 66.8895 32.7378 66.7807C32.8647 66.6719 33.037 66.6175 33.2546 66.6175H35.6618Z" fill="#EBAE64"/>
<path d="M45.908 66.6175C46.1166 66.6175 46.2843 66.681 46.4112 66.8079C46.5382 66.9258 46.6016 67.0845 46.6016 67.2839V70.2079C46.6016 70.625 46.5472 70.9197 46.4384 71.0919C46.3296 71.2642 46.1075 71.4047 45.772 71.5135C45.4094 71.6405 44.9878 71.7402 44.5072 71.8127C44.0267 71.8853 43.5643 71.9215 43.12 71.9215C42.1318 71.9215 41.275 71.7266 40.5496 71.3367C39.8243 70.9469 39.2667 70.3847 38.8768 69.6503C38.496 68.9069 38.3056 68.0229 38.3056 66.9983C38.3056 65.9919 38.496 65.1215 38.8768 64.3871C39.2667 63.6437 39.8152 63.077 40.5224 62.6871C41.2296 62.2882 42.0638 62.0887 43.0248 62.0887C44.3032 62.0887 45.3504 62.4333 46.1664 63.1223C46.2752 63.2221 46.3523 63.3218 46.3976 63.4215C46.452 63.5213 46.4792 63.6391 46.4792 63.7751C46.4792 63.9746 46.4248 64.1423 46.316 64.2783C46.2072 64.4143 46.0758 64.4823 45.9216 64.4823C45.8219 64.4823 45.7312 64.4687 45.6496 64.4415C45.568 64.4053 45.4728 64.3509 45.364 64.2783C44.9651 63.9973 44.5934 63.8023 44.2488 63.6935C43.9043 63.5757 43.5144 63.5167 43.0792 63.5167C42.091 63.5167 41.343 63.8114 40.8352 64.4007C40.3366 64.981 40.0872 65.8469 40.0872 66.9983C40.0872 69.3557 41.1208 70.5343 43.188 70.5343C43.8046 70.5343 44.4211 70.4482 45.0376 70.2759V67.8687H43.5008C43.2832 67.8687 43.111 67.8143 42.984 67.7055C42.8662 67.5967 42.8072 67.4426 42.8072 67.2431C42.8072 67.0437 42.8662 66.8895 42.984 66.7807C43.111 66.6719 43.2832 66.6175 43.5008 66.6175H45.908Z" fill="#EBAE64"/>
<path d="M38.4004 34.1353V42.2281C37.7903 41.8759 37.0811 41.7348 36.3827 41.8268C35.6843 41.9187 35.0357 42.2386 34.5376 42.7367C34.0395 43.2348 33.7197 43.8834 33.6278 44.5818C33.5358 45.2802 33.6769 45.9894 34.0291 46.5994C34.3814 47.2095 34.925 47.6863 35.5759 47.9558C36.2267 48.2254 36.9482 48.2727 37.6287 48.0904C38.3091 47.908 38.9104 47.5063 39.3392 46.9474C39.768 46.3885 40.0004 45.7038 40.0004 44.9993V28.8809C40.0006 28.6755 39.9515 28.4731 39.857 28.2908C39.7625 28.1084 39.6256 27.9514 39.4577 27.8331C39.2898 27.7148 39.0959 27.6386 38.8924 27.611C38.6889 27.5834 38.4817 27.6052 38.2884 27.6745L28.0484 31.3321C27.8002 31.4211 27.5855 31.5846 27.4337 31.8003C27.2819 32.0159 27.2004 32.2732 27.2004 32.5369V43.8265C26.5904 43.4743 25.8812 43.3333 25.1829 43.4252C24.4846 43.5171 23.836 43.8368 23.3379 44.3348C22.8398 44.8328 22.5199 45.4812 22.4278 46.1796C22.3358 46.8779 22.4767 47.5871 22.8287 48.1972C23.1808 48.8072 23.7243 49.2841 24.3749 49.5539C25.0256 49.8236 25.7471 49.8711 26.4275 49.6891C27.1079 49.507 27.7093 49.1055 28.1383 48.5469C28.5673 47.9883 28.8001 47.3037 28.8004 46.5993V37.5641L38.4004 34.1369V34.1353Z" fill="#363739"/>
</g>
<defs>
<linearGradient id="paint0_linear" x1="52.1356" y1="16.1019" x2="52.1356" y2="42.984" gradientUnits="userSpaceOnUse">
<stop stop-color="#C7D3DA"/>
<stop offset="0.338542" stop-color="#C7D3DA" stop-opacity="0.739583"/>
<stop offset="0.640625" stop-color="#C7D3DA" stop-opacity="0.326115"/>
<stop offset="1" stop-color="#C7D3DA" stop-opacity="0"/>
</linearGradient>
<linearGradient id="paint1_linear" x1="46.0668" y1="9.54966" x2="59.8668" y2="30.9497" gradientUnits="userSpaceOnUse">
<stop stop-color="#5F6165"/>
<stop offset="0.489583" stop-color="#5F6165" stop-opacity="0.635417"/>
<stop offset="1" stop-color="#5F6165" stop-opacity="0"/>
</linearGradient>
<clipPath id="clip0">
<rect width="64" height="82.8" fill="white" transform="translate(0 0.199219)"/>
</clipPath>
</defs>
</svg>
