<svg width="64" height="84" viewBox="0 0 64 84" fill="none" xmlns="http://www.w3.org/2000/svg">
<g clip-path="url(#clip0)">
<path d="M60.8 83.5998H3.2C1.43269 83.5998 0 82.1671 0 80.3998V3.99981C0 2.23249 1.43269 0.799805 3.2 0.799805H45.1629C45.9574 0.799805 46.7234 1.09538 47.312 1.62892C47.3132 1.62994 47.3143 1.63097 47.3154 1.632L62.9526 15.8476C62.9572 15.8518 62.9617 15.856 62.9663 15.8602C63.6249 16.4659 64 17.32 64 18.2154V80.3998C64 82.1671 62.5673 83.5998 60.8 83.5998Z" fill="#242526"/>
<path fill-rule="evenodd" clip-rule="evenodd" d="M46.2381 2.81494L46.2374 2.81436C45.9431 2.54759 45.5601 2.3998 45.1629 2.3998H3.2C2.31634 2.3998 1.6 3.11615 1.6 3.99981V80.3998C1.6 81.2835 2.31635 81.9998 3.2 81.9998H60.8C61.6837 81.9998 62.4 81.2835 62.4 80.3998V18.2154C62.4 17.7677 62.2124 17.3406 61.8832 17.0378L61.8765 17.0316L46.2391 2.8159L46.2381 2.81494ZM62.9526 15.8476L47.312 1.62892C46.7234 1.09538 45.9574 0.799805 45.1629 0.799805H3.2C1.43269 0.799805 0 2.23249 0 3.99981V80.3998C0 82.1671 1.43269 83.5998 3.2 83.5998H60.8C62.5673 83.5998 64 82.1671 64 80.3998V18.2154C64 17.32 63.6249 16.4659 62.9663 15.8602L62.9526 15.8476Z" fill="#2A9E67"/>
<g opacity="0.19">
<mask id="mask0" mask-type="alpha" maskUnits="userSpaceOnUse" x="46" y="8" width="28" height="27">
<rect x="46.7998" y="16.7025" width="10.6715" height="26.8821" transform="rotate(-47.7774 46.7998 16.7025)" fill="url(#paint0_linear)"/>
</mask>
<g mask="url(#mask0)">
<path d="M3.4668 84.3503H59.4668C61.6759 84.3503 63.4668 82.5594 63.4668 80.3503V18.435C63.4668 17.8715 63.2291 17.3341 62.8121 16.9551L46.4389 2.07035C46.0708 1.73568 45.5911 1.55023 45.0936 1.55023H3.4668C1.25766 1.55023 -0.533203 3.34109 -0.533203 5.55023V80.3503C-0.533203 82.5594 1.25766 84.3503 3.4668 84.3503Z" fill="url(#paint1_linear)" style="mix-blend-mode:multiply"/>
</g>
</g>
<path d="M47.6 17.1998H63.2L46 1.59979V15.5998C46 16.4834 46.7163 17.1998 47.6 17.1998Z" fill="#2A9E67"/>
<path d="M22.9075 72.5221C21.9736 72.5221 21.1622 72.3227 20.4731 71.9237C19.7931 71.5248 19.2672 70.9536 18.8955 70.2101C18.5238 69.4667 18.3379 68.5963 18.3379 67.5989C18.3379 66.6016 18.5192 65.7357 18.8819 65.0013C19.2536 64.2579 19.784 63.6867 20.4731 63.2877C21.1622 62.8888 21.9736 62.6893 22.9075 62.6893C23.8414 62.6893 24.6483 62.8888 25.3283 63.2877C26.0174 63.6867 26.5432 64.2579 26.9059 65.0013C27.2776 65.7357 27.4635 66.6016 27.4635 67.5989C27.4635 68.5963 27.2776 69.4667 26.9059 70.2101C26.5342 70.9536 26.0038 71.5248 25.3147 71.9237C24.6347 72.3227 23.8323 72.5221 22.9075 72.5221ZM22.9075 71.1213C23.787 71.1213 24.4715 70.8176 24.9611 70.2101C25.4598 69.6027 25.7091 68.7323 25.7091 67.5989C25.7091 66.4656 25.4598 65.5997 24.9611 65.0013C24.4715 64.3939 23.787 64.0901 22.9075 64.0901C22.019 64.0901 21.3254 64.3939 20.8267 65.0013C20.3371 65.5997 20.0923 66.4656 20.0923 67.5989C20.0923 68.7323 20.3371 69.6027 20.8267 70.2101C21.3254 70.8176 22.019 71.1213 22.9075 71.1213Z" fill="#2A9E67"/>
<path d="M30.3779 72.4813C30.115 72.4813 29.9019 72.4043 29.7387 72.2501C29.5846 72.0869 29.5075 71.8693 29.5075 71.5973V63.6413C29.5075 63.3784 29.5801 63.1744 29.7251 63.0293C29.8793 62.8843 30.0878 62.8117 30.3507 62.8117H33.6963C34.7209 62.8117 35.5187 63.0701 36.0899 63.5869C36.6611 64.0947 36.9467 64.8109 36.9467 65.7357C36.9467 66.6605 36.6611 67.3813 36.0899 67.8981C35.5187 68.4149 34.7209 68.6733 33.6963 68.6733H31.2619V71.5973C31.2619 71.8693 31.1803 72.0869 31.0171 72.2501C30.863 72.4043 30.6499 72.4813 30.3779 72.4813ZM33.4787 67.3269C34.6846 67.3269 35.2875 66.8011 35.2875 65.7493C35.2875 64.6976 34.6846 64.1717 33.4787 64.1717H31.2619V67.3269H33.4787Z" fill="#2A9E67"/>
<path d="M42.0761 72.5221C41.3779 72.5221 40.7161 72.4315 40.0905 72.2501C39.4739 72.0597 38.9707 71.8059 38.5809 71.4885C38.3723 71.3344 38.2681 71.1168 38.2681 70.8357C38.2681 70.6453 38.3225 70.4821 38.4313 70.3461C38.5491 70.2011 38.6851 70.1285 38.8393 70.1285C39.0025 70.1285 39.1883 70.192 39.3969 70.3189C39.7867 70.6 40.1947 70.804 40.6209 70.9309C41.047 71.0579 41.5185 71.1213 42.0353 71.1213C42.6971 71.1213 43.2049 71.008 43.5585 70.7813C43.9121 70.5456 44.0889 70.2056 44.0889 69.7613C44.0889 69.4168 43.9211 69.1539 43.5857 68.9725C43.2593 68.7821 42.7107 68.6008 41.9401 68.4285C41.1422 68.2563 40.4939 68.0568 39.9953 67.8301C39.4966 67.6035 39.1203 67.3133 38.8665 66.9597C38.6126 66.6061 38.4857 66.1573 38.4857 65.6133C38.4857 65.0512 38.6443 64.548 38.9617 64.1037C39.279 63.6595 39.7187 63.3149 40.2809 63.0701C40.8521 62.8163 41.4913 62.6893 42.1985 62.6893C43.495 62.6893 44.5513 63.0339 45.3673 63.7229C45.4851 63.8227 45.5667 63.9224 45.6121 64.0221C45.6665 64.1128 45.6937 64.2307 45.6937 64.3757C45.6937 64.5661 45.6347 64.7339 45.5169 64.8789C45.4081 65.0149 45.2766 65.0829 45.1225 65.0829C45.0318 65.0829 44.9457 65.0693 44.8641 65.0421C44.7915 65.0149 44.6918 64.9651 44.5649 64.8925C44.1931 64.6205 43.8305 64.4211 43.4769 64.2941C43.1323 64.1581 42.7062 64.0901 42.1985 64.0901C41.5819 64.0901 41.0923 64.2171 40.7297 64.4709C40.3761 64.7157 40.1993 65.0603 40.1993 65.5045C40.1993 65.8763 40.3579 66.1619 40.6753 66.3613C40.9926 66.5608 41.5321 66.7467 42.2937 66.9189C43.1006 67.1003 43.7534 67.3043 44.2521 67.5309C44.7598 67.7485 45.1451 68.0296 45.4081 68.3741C45.6801 68.7187 45.8161 69.1493 45.8161 69.6661C45.8161 70.2283 45.6574 70.7269 45.3401 71.1621C45.0318 71.5883 44.5921 71.9237 44.0209 72.1685C43.4587 72.4043 42.8105 72.5221 42.0761 72.5221Z" fill="#2A9E67"/>
<rect opacity="0.3" x="28" y="29.5998" width="16.8" height="3.2" rx="1.6" fill="#5F6165"/>
<rect opacity="0.3" x="28" y="37.5998" width="16.8" height="3.2" rx="1.6" fill="#5F6165"/>
<rect opacity="0.3" x="28" y="45.5998" width="16.8" height="3.2" rx="1.6" fill="#5F6165"/>
<rect opacity="0.3" x="19.2002" y="29.5998" width="6.4" height="3.2" rx="1.6" fill="#5F6165"/>
<rect opacity="0.3" x="19.2002" y="37.5998" width="6.4" height="3.2" rx="1.6" fill="#5F6165"/>
<rect opacity="0.3" x="19.2002" y="45.5998" width="6.4" height="3.2" rx="1.6" fill="#5F6165"/>
</g>
<defs>
<linearGradient id="paint0_linear" x1="52.1356" y1="16.7025" x2="52.1356" y2="43.5846" gradientUnits="userSpaceOnUse">
<stop stop-color="#C7D3DA"/>
<stop offset="0.338542" stop-color="#C7D3DA" stop-opacity="0.739583"/>
<stop offset="0.640625" stop-color="#C7D3DA" stop-opacity="0.326115"/>
<stop offset="1" stop-color="#C7D3DA" stop-opacity="0"/>
</linearGradient>
<linearGradient id="paint1_linear" x1="46.0668" y1="10.1502" x2="59.8668" y2="31.5502" gradientUnits="userSpaceOnUse">
<stop stop-color="#5F6165"/>
<stop offset="0.489583" stop-color="#5F6165" stop-opacity="0.635417"/>
<stop offset="1" stop-color="#5F6165" stop-opacity="0"/>
</linearGradient>
<clipPath id="clip0">
<rect width="64" height="82.8" fill="white" transform="translate(0 0.799805)"/>
</clipPath>
</defs>
</svg>
