<svg width="64" height="84" viewBox="0 0 64 84" fill="none" xmlns="http://www.w3.org/2000/svg">
<g clip-path="url(#clip0)">
<path d="M60.8 83.1984H3.2C1.43269 83.1984 0 81.7657 0 79.9984V3.59844C0 1.83113 1.43269 0.398438 3.2 0.398438H45.1629C45.9574 0.398438 46.7234 0.69401 47.312 1.22755C47.3132 1.22858 47.3143 1.2296 47.3154 1.23063L62.9526 15.4462C62.9572 15.4504 62.9617 15.4546 62.9663 15.4588C63.6249 16.0645 64 16.9187 64 17.814V79.9984C64 81.7657 62.5673 83.1984 60.8 83.1984Z" fill="#242526"/>
<path fill-rule="evenodd" clip-rule="evenodd" d="M46.2381 2.41358L46.2374 2.41299C45.9431 2.14622 45.5601 1.99844 45.1629 1.99844H3.2C2.31634 1.99844 1.6 2.71478 1.6 3.59844V79.9984C1.6 80.8821 2.31635 81.5984 3.2 81.5984H60.8C61.6837 81.5984 62.4 80.8821 62.4 79.9984V17.814C62.4 17.3663 62.2124 16.9393 61.8832 16.6364L61.8765 16.6303L46.2391 2.41453L46.2381 2.41358ZM62.9526 15.4462L47.312 1.22755C46.7234 0.69401 45.9574 0.398438 45.1629 0.398438H3.2C1.43269 0.398438 0 1.83113 0 3.59844V79.9984C0 81.7657 1.43269 83.1984 3.2 83.1984H60.8C62.5673 83.1984 64 81.7657 64 79.9984V17.814C64 16.9187 63.6249 16.0645 62.9663 15.4588L62.9526 15.4462Z" fill="#4681B4"/>
<g opacity="0.19">
<mask id="mask0" mask-type="alpha" maskUnits="userSpaceOnUse" x="46" y="8" width="28" height="27">
<rect x="46.7998" y="16.3011" width="10.6715" height="26.8821" transform="rotate(-47.7774 46.7998 16.3011)" fill="url(#paint0_linear)"/>
</mask>
<g mask="url(#mask0)">
<path d="M3.4668 83.9489H59.4668C61.6759 83.9489 63.4668 82.1581 63.4668 79.9489V18.0337C63.4668 17.4702 63.2291 16.9328 62.8121 16.5538L46.4389 1.66905C46.0708 1.33437 45.5911 1.14893 45.0936 1.14893H3.4668C1.25766 1.14893 -0.533203 2.93979 -0.533203 5.14892V79.9489C-0.533203 82.1581 1.25766 83.9489 3.4668 83.9489Z" fill="url(#paint1_linear)" style="mix-blend-mode:multiply"/>
</g>
</g>
<path d="M47.6 16.7985H63.2L46 1.19849V15.1985C46 16.0821 46.7163 16.7985 47.6 16.7985Z" fill="#4681B4"/>
<path d="M10 57.1985H18.5248V59.5409H12.6304V62.8625H18.1024V65.2049H12.6304V70.6385H10V57.1985Z" fill="#4681B4"/>
<path d="M21.3205 68.2961H24.7189V59.5409H21.3205V57.1985H30.7669V59.5409H27.3493V68.2961H30.7669V70.6385H21.3205V68.2961Z" fill="#4681B4"/>
<path d="M40.129 65.1665H42.5098V70.6385H33.6778V57.1985H36.3082V68.2961H40.129V65.1665Z" fill="#4681B4"/>
<path d="M45.4207 57.1985H54.2335V59.5409H48.0511V62.6705H53.7535V65.0129H48.0511V68.2961H54.3295V70.6385H45.4207V57.1985Z" fill="#4681B4"/>
</g>
<defs>
<linearGradient id="paint0_linear" x1="52.1356" y1="16.3011" x2="52.1356" y2="43.1832" gradientUnits="userSpaceOnUse">
<stop stop-color="#C7D3DA"/>
<stop offset="0.338542" stop-color="#C7D3DA" stop-opacity="0.739583"/>
<stop offset="0.640625" stop-color="#C7D3DA" stop-opacity="0.326115"/>
<stop offset="1" stop-color="#C7D3DA" stop-opacity="0"/>
</linearGradient>
<linearGradient id="paint1_linear" x1="46.0668" y1="9.74894" x2="59.8668" y2="31.1489" gradientUnits="userSpaceOnUse">
<stop stop-color="#5F6165"/>
<stop offset="0.489583" stop-color="#5F6165" stop-opacity="0.635417"/>
<stop offset="1" stop-color="#5F6165" stop-opacity="0"/>
</linearGradient>
<clipPath id="clip0">
<rect width="64" height="82.8" fill="white" transform="translate(0 0.398438)"/>
</clipPath>
</defs>
</svg>
