<svg width="64" height="83" viewBox="0 0 64 83" fill="none" xmlns="http://www.w3.org/2000/svg">
<g clip-path="url(#clip0)">
<path d="M60.8 82.8H3.2C1.43269 82.8 0 81.3673 0 79.6V3.2C0 1.43269 1.43269 0 3.2 0H45.1629C45.9574 0 46.7234 0.295573 47.312 0.829113C47.3132 0.830139 47.3143 0.831165 47.3154 0.832192L62.9526 15.0478C62.9572 15.052 62.9617 15.0562 62.9663 15.0604C63.6249 15.6661 64 16.5202 64 17.4156V79.6C64 81.3673 62.5673 82.8 60.8 82.8Z" fill="#242526"/>
<path fill-rule="evenodd" clip-rule="evenodd" d="M46.2381 2.01514L46.2374 2.01456C45.9431 1.74779 45.5601 1.6 45.1629 1.6H3.2C2.31634 1.6 1.6 2.31634 1.6 3.2V79.6C1.6 80.4837 2.31635 81.2 3.2 81.2H60.8C61.6837 81.2 62.4 80.4837 62.4 79.6V17.4156C62.4 16.9679 62.2124 16.5408 61.8832 16.238L61.8765 16.2318L46.2391 2.0161L46.2381 2.01514ZM62.9526 15.0478L47.312 0.829113C46.7234 0.295573 45.9574 0 45.1629 0H3.2C1.43269 0 0 1.43269 0 3.2V79.6C0 81.3673 1.43269 82.8 3.2 82.8H60.8C62.5673 82.8 64 81.3673 64 79.6V17.4156C64 16.5202 63.6249 15.6661 62.9663 15.0604L62.9526 15.0478Z" fill="#C54848"/>
<g opacity="0.19">
<mask id="mask0" mask-type="alpha" maskUnits="userSpaceOnUse" x="46" y="8" width="28" height="26">
<rect x="46.7998" y="15.9027" width="10.6715" height="26.8821" transform="rotate(-47.7774 46.7998 15.9027)" fill="url(#paint0_linear)"/>
</mask>
<g mask="url(#mask0)">
<path d="M3.4668 83.5504H59.4668C61.6759 83.5504 63.4668 81.7595 63.4668 79.5504V17.6351C63.4668 17.0716 63.2291 16.5343 62.8121 16.1552L46.4389 1.27049C46.0708 0.93581 45.5911 0.750366 45.0936 0.750366H3.4668C1.25766 0.750366 -0.533203 2.54123 -0.533203 4.75036V79.5504C-0.533203 81.7595 1.25766 83.5504 3.4668 83.5504Z" fill="url(#paint1_linear)" style="mix-blend-mode:multiply"/>
</g>
</g>
<path d="M47.6 16.4H63.2L46 0.799988V14.8C46 15.6836 46.7163 16.4 47.6 16.4Z" fill="#C54848"/>
<path fill-rule="evenodd" clip-rule="evenodd" d="M32.4708 34.7309C33.2924 36.9014 34.4551 38.3718 36.2033 39.4395C37.8904 39.2207 41.422 38.8794 42.6371 40.0696C43.6423 41.0674 43.4675 43.868 40.915 43.868C39.4377 43.868 37.2174 43.1941 35.3205 42.1614C33.5571 42.4521 31.5986 43.1162 29.7193 43.7534C29.2789 43.9028 28.8429 44.0506 28.4147 44.1918C26.1944 48.0252 24.6384 49.6006 23.0737 49.6006C22.5929 49.6006 21.6838 49.3293 21.1943 48.7254C19.5247 46.6686 23.5894 43.9905 25.9584 42.774C25.9627 42.774 25.9649 42.7718 25.9671 42.7696C25.9693 42.7674 25.9715 42.7653 25.9759 42.7653C27.0336 40.9098 28.5284 37.6716 29.5424 35.256C28.7993 32.3766 28.3972 30.1186 28.8343 28.517C29.3063 26.7929 32.6019 26.5391 33.0127 29.1121C33.4727 30.613 32.8952 32.9864 32.5014 34.6049L32.4708 34.7309ZM22.7524 47.8676C22.7524 47.9376 23.9063 47.395 25.8031 44.3493C25.7169 44.4304 25.601 44.5341 25.4643 44.6564C24.6725 45.3648 23.1848 46.6957 22.7524 47.8676ZM30.9763 36.945C30.3032 38.7129 29.464 40.7346 28.4937 42.4325C28.8854 42.2825 29.2897 42.1157 29.7075 41.9433C30.9963 41.4115 32.4144 40.8264 33.9921 40.5158C32.8819 39.6756 31.8155 38.4678 30.9763 36.945ZM31.1251 32.8142C30.6875 31.4139 30.6962 28.7095 30.95 28.7095C31.6852 28.7095 31.6152 31.939 31.1251 32.8142ZM41.7013 41.9337C42.0597 41.6974 41.4828 40.8922 37.96 41.146C41.2031 42.5288 41.7013 41.9337 41.7013 41.9337Z" fill="#363739"/>
<path d="M20.365 71.6816C20.1021 71.6816 19.889 71.6045 19.7258 71.4504C19.5717 71.2872 19.4946 71.0696 19.4946 70.7976V62.8416C19.4946 62.5786 19.5672 62.3746 19.7122 62.2296C19.8664 62.0845 20.0749 62.012 20.3378 62.012H23.6834C24.708 62.012 25.5058 62.2704 26.077 62.7872C26.6482 63.2949 26.9338 64.0112 26.9338 64.936C26.9338 65.8608 26.6482 66.5816 26.077 67.0984C25.5058 67.6152 24.708 67.8736 23.6834 67.8736H21.249V70.7976C21.249 71.0696 21.1674 71.2872 21.0042 71.4504C20.8501 71.6045 20.637 71.6816 20.365 71.6816ZM23.4658 66.5272C24.6717 66.5272 25.2746 66.0013 25.2746 64.9496C25.2746 63.8978 24.6717 63.372 23.4658 63.372H21.249V66.5272H23.4658Z" fill="#C54848"/>
<path d="M29.588 71.6C29.325 71.6 29.1165 71.5274 28.9624 71.3824C28.8173 71.2373 28.7448 71.0333 28.7448 70.7704V62.8416C28.7448 62.5786 28.8173 62.3746 28.9624 62.2296C29.1165 62.0845 29.325 62.012 29.588 62.012H32.2808C33.8493 62.012 35.0642 62.4336 35.9256 63.2768C36.796 64.1109 37.2312 65.285 37.2312 66.7992C37.2312 68.3224 36.796 69.5056 35.9256 70.3488C35.0642 71.1829 33.8493 71.6 32.2808 71.6H29.588ZM32.172 70.172C34.3752 70.172 35.4768 69.0477 35.4768 66.7992C35.4768 64.5597 34.3752 63.44 32.172 63.44H30.4992V70.172H32.172Z" fill="#C54848"/>
<path d="M40.1403 71.6816C39.8773 71.6816 39.6643 71.6 39.5011 71.4368C39.3469 71.2736 39.2699 71.0605 39.2699 70.7976V62.8416C39.2699 62.5786 39.3424 62.3746 39.4875 62.2296C39.6416 62.0845 39.8501 62.012 40.1131 62.012H44.8867C45.4397 62.012 45.7163 62.2477 45.7163 62.7192C45.7163 63.1816 45.4397 63.4128 44.8867 63.4128H40.9971V66.024H44.6147C45.1677 66.024 45.4443 66.2597 45.4443 66.7312C45.4443 67.1936 45.1677 67.4248 44.6147 67.4248H40.9971V70.7976C40.9971 71.0605 40.92 71.2736 40.7659 71.4368C40.6117 71.6 40.4032 71.6816 40.1403 71.6816Z" fill="#C54848"/>
</g>
<defs>
<linearGradient id="paint0_linear" x1="52.1356" y1="15.9027" x2="52.1356" y2="42.7848" gradientUnits="userSpaceOnUse">
<stop stop-color="#C7D3DA"/>
<stop offset="0.338542" stop-color="#C7D3DA" stop-opacity="0.739583"/>
<stop offset="0.640625" stop-color="#C7D3DA" stop-opacity="0.326115"/>
<stop offset="1" stop-color="#C7D3DA" stop-opacity="0"/>
</linearGradient>
<linearGradient id="paint1_linear" x1="46.0668" y1="9.35038" x2="59.8668" y2="30.7504" gradientUnits="userSpaceOnUse">
<stop stop-color="#5F6165"/>
<stop offset="0.489583" stop-color="#5F6165" stop-opacity="0.635417"/>
<stop offset="1" stop-color="#5F6165" stop-opacity="0"/>
</linearGradient>
<clipPath id="clip0">
<rect width="64" height="82.8" fill="white"/>
</clipPath>
</defs>
</svg>
