<svg width="64" height="83" viewBox="0 0 64 83" fill="none" xmlns="http://www.w3.org/2000/svg">
<g clip-path="url(#clip0)">
<path d="M60.8 82.8H3.2C1.43269 82.8 0 81.3673 0 79.6V3.2C0 1.43269 1.43269 0 3.2 0H45.1629C45.9574 0 46.7234 0.295573 47.312 0.829113C47.3132 0.830139 47.3143 0.831165 47.3154 0.832192L62.9526 15.0478C62.9572 15.052 62.9617 15.0562 62.9663 15.0604C63.6249 15.6661 64 16.5202 64 17.4156V79.6C64 81.3673 62.5673 82.8 60.8 82.8Z" fill="#242526"/>
<path fill-rule="evenodd" clip-rule="evenodd" d="M46.2381 2.01514L46.2374 2.01456C45.9431 1.74779 45.5601 1.6 45.1629 1.6H3.2C2.31634 1.6 1.6 2.31634 1.6 3.2V79.6C1.6 80.4837 2.31635 81.2 3.2 81.2H60.8C61.6837 81.2 62.4 80.4837 62.4 79.6V17.4156C62.4 16.9679 62.2124 16.5408 61.8832 16.238L61.8765 16.2318L46.2391 2.0161L46.2381 2.01514ZM62.9526 15.0478L47.312 0.829113C46.7234 0.295573 45.9574 0 45.1629 0H3.2C1.43269 0 0 1.43269 0 3.2V79.6C0 81.3673 1.43269 82.8 3.2 82.8H60.8C62.5673 82.8 64 81.3673 64 79.6V17.4156C64 16.5202 63.6249 15.6661 62.9663 15.0604L62.9526 15.0478Z" fill="#E6633F"/>
<g opacity="0.19">
<mask id="mask0" mask-type="alpha" maskUnits="userSpaceOnUse" x="46" y="8" width="28" height="26">
<rect x="46.7998" y="15.9026" width="10.6715" height="26.8821" transform="rotate(-47.7774 46.7998 15.9026)" fill="url(#paint0_linear)"/>
</mask>
<g mask="url(#mask0)">
<path d="M3.4668 83.5504H59.4668C61.6759 83.5504 63.4668 81.7596 63.4668 79.5504V17.6352C63.4668 17.0717 63.2291 16.5343 62.8121 16.1553L46.4389 1.27055C46.0708 0.935871 45.5911 0.750427 45.0936 0.750427H3.4668C1.25766 0.750427 -0.533203 2.54129 -0.533203 4.75043V79.5504C-0.533203 81.7596 1.25766 83.5504 3.4668 83.5504Z" fill="url(#paint1_linear)" style="mix-blend-mode:multiply"/>
</g>
</g>
<path d="M47.6 16.4H63.2L46 0.799988V14.8C46 15.6836 46.7163 16.4 47.6 16.4Z" fill="#E6633F"/>
<path d="M20.7962 71.2817C20.5332 71.2817 20.3202 71.2047 20.157 71.0505C20.0028 70.8873 19.9258 70.6697 19.9258 70.3977V62.4417C19.9258 62.1788 19.9983 61.9748 20.1434 61.8297C20.2975 61.6847 20.506 61.6121 20.769 61.6121H24.1146C25.1391 61.6121 25.937 61.8705 26.5082 62.3873C27.0794 62.8951 27.365 63.6113 27.365 64.5361C27.365 65.4609 27.0794 66.1817 26.5082 66.6985C25.937 67.2153 25.1391 67.4737 24.1146 67.4737H21.6802V70.3977C21.6802 70.6697 21.5986 70.8873 21.4354 71.0505C21.2812 71.2047 21.0682 71.2817 20.7962 71.2817ZM23.897 66.1273C25.1028 66.1273 25.7058 65.6015 25.7058 64.5497C25.7058 63.498 25.1028 62.9721 23.897 62.9721H21.6802V66.1273H23.897Z" fill="#E6633F"/>
<path d="M30.0463 71.2817C29.7834 71.2817 29.5703 71.2047 29.4071 71.0505C29.253 70.8873 29.1759 70.6697 29.1759 70.3977V62.4417C29.1759 62.1788 29.2484 61.9748 29.3935 61.8297C29.5476 61.6847 29.7562 61.6121 30.0191 61.6121H33.3647C34.3892 61.6121 35.1871 61.8705 35.7583 62.3873C36.3295 62.8951 36.6151 63.6113 36.6151 64.5361C36.6151 65.4609 36.3295 66.1817 35.7583 66.6985C35.1871 67.2153 34.3892 67.4737 33.3647 67.4737H30.9303V70.3977C30.9303 70.6697 30.8487 70.8873 30.6855 71.0505C30.5314 71.2047 30.3183 71.2817 30.0463 71.2817ZM33.1471 66.1273C34.353 66.1273 34.9559 65.6015 34.9559 64.5497C34.9559 63.498 34.353 62.9721 33.1471 62.9721H30.9303V66.1273H33.1471Z" fill="#E6633F"/>
<path d="M41.3418 71.2681C41.0698 71.2681 40.8522 71.1911 40.689 71.0369C40.5349 70.8737 40.4578 70.6607 40.4578 70.3977V63.0537H37.9826C37.4386 63.0537 37.1666 62.8135 37.1666 62.3329C37.1666 61.8524 37.4386 61.6121 37.9826 61.6121H44.6874C45.2314 61.6121 45.5034 61.8524 45.5034 62.3329C45.5034 62.8135 45.2314 63.0537 44.6874 63.0537H42.2122V70.3977C42.2122 70.6607 42.1306 70.8737 41.9674 71.0369C41.8133 71.1911 41.6048 71.2681 41.3418 71.2681Z" fill="#E6633F"/>
<path d="M38.6003 38.7915H31.4003V31.3915C31.4003 31.3385 31.4003 30.8768 31.4003 30.413C31.4003 29.8611 30.9529 29.4121 30.4026 29.455C29.2361 29.5459 27.8946 29.7872 26.9649 30.1723C25.7529 30.6742 24.652 31.4105 23.7253 32.339C22.8129 33.2486 22.0861 34.3269 21.5853 35.514C21.0653 36.7465 20.8003 38.054 20.8003 39.404C20.8003 40.754 21.0653 42.059 21.5853 43.2915C22.0878 44.479 22.8078 45.549 23.7253 46.4665C24.6428 47.384 25.7103 48.104 26.9003 48.6065C28.1306 49.1284 29.4538 49.3963 30.7903 49.394C32.1021 49.3953 33.4012 49.1376 34.6132 48.6357C35.8252 48.1337 36.9261 47.3974 37.8528 46.469C38.7703 45.5515 39.4903 44.484 39.9928 43.294C40.3952 42.3454 40.6466 40.9777 40.7396 39.7885C40.7826 39.2385 40.3337 38.7915 39.7821 38.7915C39.2354 38.7915 38.657 38.7915 38.6003 38.7915Z" fill="#363739"/>
<path d="M43.1253 36.2457L43.1903 36.9507C43.2003 37.0657 43.1078 37.1632 42.9903 37.1657L33.4003 37.1907C33.2903 37.1907 33.2003 37.1007 33.2003 36.9907V27.3982C33.2003 27.2807 33.3003 27.1907 33.4178 27.2007L34.1253 27.2657C36.4386 27.48 38.6043 28.4961 40.2478 30.1382C41.8928 31.7757 42.9128 33.9457 43.1253 36.2457Z" fill="#363739"/>
<path d="M43.1252 36.2456L43.1902 36.9506C43.2002 37.0656 43.1077 37.1631 42.9902 37.1656L33.4002 37.1906C33.2902 37.1906 33.2002 37.1006 33.2002 36.9906V27.3981C33.2002 27.2806 33.3002 27.1906 33.4177 27.2006L34.1252 27.2656C36.4385 27.48 38.6042 28.4961 40.2477 30.1381C41.8927 31.7756 42.9127 33.9456 43.1252 36.2456Z" fill="#717376" fill-opacity="0.25"/>
</g>
<defs>
<linearGradient id="paint0_linear" x1="52.1356" y1="15.9026" x2="52.1356" y2="42.7848" gradientUnits="userSpaceOnUse">
<stop stop-color="#C7D3DA"/>
<stop offset="0.338542" stop-color="#C7D3DA" stop-opacity="0.739583"/>
<stop offset="0.640625" stop-color="#C7D3DA" stop-opacity="0.326115"/>
<stop offset="1" stop-color="#C7D3DA" stop-opacity="0"/>
</linearGradient>
<linearGradient id="paint1_linear" x1="46.0668" y1="9.35044" x2="59.8668" y2="30.7504" gradientUnits="userSpaceOnUse">
<stop stop-color="#5F6165"/>
<stop offset="0.489583" stop-color="#5F6165" stop-opacity="0.635417"/>
<stop offset="1" stop-color="#5F6165" stop-opacity="0"/>
</linearGradient>
<clipPath id="clip0">
<rect width="64" height="82.8" fill="white"/>
</clipPath>
</defs>
</svg>
