<svg width="64" height="83" viewBox="0 0 64 83" fill="none" xmlns="http://www.w3.org/2000/svg">
<g clip-path="url(#clip0)">
<path d="M60.8 82.8H3.2C1.43269 82.8 0 81.3673 0 79.6V3.2C0 1.43269 1.43269 0 3.2 0H45.1629C45.9574 0 46.7234 0.295573 47.312 0.829113C47.3132 0.830139 47.3143 0.831165 47.3154 0.832192L62.9526 15.0478C62.9572 15.052 62.9617 15.0562 62.9663 15.0604C63.6249 15.6661 64 16.5202 64 17.4156V79.6C64 81.3673 62.5673 82.8 60.8 82.8Z" fill="#242526"/>
<path fill-rule="evenodd" clip-rule="evenodd" d="M46.2381 2.01514L46.2374 2.01456C45.9431 1.74779 45.5601 1.6 45.1629 1.6H3.2C2.31634 1.6 1.6 2.31634 1.6 3.2V79.6C1.6 80.4837 2.31635 81.2 3.2 81.2H60.8C61.6837 81.2 62.4 80.4837 62.4 79.6V17.4156C62.4 16.9679 62.2124 16.5408 61.8832 16.238L61.8765 16.2318L46.2391 2.0161L46.2381 2.01514ZM62.9526 15.0478L47.312 0.829113C46.7234 0.295573 45.9574 0 45.1629 0H3.2C1.43269 0 0 1.43269 0 3.2V79.6C0 81.3673 1.43269 82.8 3.2 82.8H60.8C62.5673 82.8 64 81.3673 64 79.6V17.4156C64 16.5202 63.6249 15.6661 62.9663 15.0604L62.9526 15.0478Z" fill="#E6633F"/>
<g opacity="0.19">
<mask id="mask0" mask-type="alpha" maskUnits="userSpaceOnUse" x="46" y="8" width="28" height="26">
<rect x="46.7998" y="15.9026" width="10.6715" height="26.8821" transform="rotate(-47.7774 46.7998 15.9026)" fill="url(#paint0_linear)"/>
</mask>
<g mask="url(#mask0)">
<path d="M3.4668 83.5504H59.4668C61.6759 83.5504 63.4668 81.7596 63.4668 79.5504V17.6352C63.4668 17.0717 63.2291 16.5343 62.8121 16.1553L46.4389 1.27055C46.0708 0.935871 45.5911 0.750427 45.0936 0.750427H3.4668C1.25766 0.750427 -0.533203 2.54129 -0.533203 4.75043V79.5504C-0.533203 81.7596 1.25766 83.5504 3.4668 83.5504Z" fill="url(#paint1_linear)" style="mix-blend-mode:multiply"/>
</g>
</g>
<path d="M47.6 16.4H63.2L46 0.799988V14.8C46 15.6836 46.7163 16.4 47.6 16.4Z" fill="#E6633F"/>
<path d="M15.9446 71.2817C15.6817 71.2817 15.4686 71.2046 15.3054 71.0505C15.1513 70.8873 15.0742 70.6697 15.0742 70.3977V62.4417C15.0742 62.1787 15.1468 61.9747 15.2918 61.8297C15.446 61.6846 15.6545 61.6121 15.9174 61.6121H19.263C20.2876 61.6121 21.0854 61.8705 21.6566 62.3873C22.2278 62.895 22.5134 63.6113 22.5134 64.5361C22.5134 65.4609 22.2278 66.1817 21.6566 66.6985C21.0854 67.2153 20.2876 67.4737 19.263 67.4737H16.8286V70.3977C16.8286 70.6697 16.747 70.8873 16.5838 71.0505C16.4297 71.2046 16.2166 71.2817 15.9446 71.2817ZM19.0454 66.1273C20.2513 66.1273 20.8542 65.6014 20.8542 64.5497C20.8542 63.4979 20.2513 62.9721 19.0454 62.9721H16.8286V66.1273H19.0454Z" fill="#E6633F"/>
<path d="M25.1947 71.2817C24.9318 71.2817 24.7187 71.2046 24.5555 71.0505C24.4014 70.8873 24.3243 70.6697 24.3243 70.3977V62.4417C24.3243 62.1787 24.3969 61.9747 24.5419 61.8297C24.6961 61.6846 24.9046 61.6121 25.1675 61.6121H28.5131C29.5377 61.6121 30.3355 61.8705 30.9067 62.3873C31.4779 62.895 31.7635 63.6113 31.7635 64.5361C31.7635 65.4609 31.4779 66.1817 30.9067 66.6985C30.3355 67.2153 29.5377 67.4737 28.5131 67.4737H26.0787V70.3977C26.0787 70.6697 25.9971 70.8873 25.8339 71.0505C25.6798 71.2046 25.4667 71.2817 25.1947 71.2817ZM28.2955 66.1273C29.5014 66.1273 30.1043 65.6014 30.1043 64.5497C30.1043 63.4979 29.5014 62.9721 28.2955 62.9721H26.0787V66.1273H28.2955Z" fill="#E6633F"/>
<path d="M36.4903 71.2681C36.2183 71.2681 36.0007 71.191 35.8375 71.0369C35.6834 70.8737 35.6063 70.6606 35.6063 70.3977V63.0537H33.1311C32.5871 63.0537 32.3151 62.8134 32.3151 62.3329C32.3151 61.8523 32.5871 61.6121 33.1311 61.6121H39.8359C40.3799 61.6121 40.6519 61.8523 40.6519 62.3329C40.6519 62.8134 40.3799 63.0537 39.8359 63.0537H37.3607V70.3977C37.3607 70.6606 37.2791 70.8737 37.1159 71.0369C36.9618 71.191 36.7532 71.2681 36.4903 71.2681Z" fill="#E6633F"/>
<path d="M49.4141 69.9489C49.5592 70.1211 49.6317 70.2934 49.6317 70.4657C49.6317 70.6833 49.5456 70.8737 49.3733 71.0369C49.2101 71.2001 49.0197 71.2817 48.8021 71.2817C48.5754 71.2817 48.376 71.1819 48.2037 70.9825L45.4429 67.5553L42.6685 70.9825C42.5053 71.1729 42.3104 71.2681 42.0837 71.2681C41.8661 71.2681 41.6712 71.191 41.4989 71.0369C41.3357 70.8737 41.2541 70.6833 41.2541 70.4657C41.2541 70.2843 41.3221 70.1121 41.4581 69.9489L44.4229 66.3313L41.5805 62.8633C41.4445 62.7182 41.3765 62.5459 41.3765 62.3465C41.3765 62.1289 41.4581 61.943 41.6213 61.7889C41.7845 61.6257 41.9749 61.5441 42.1925 61.5441C42.4192 61.5441 42.6186 61.6438 42.7909 61.8433L45.4429 65.1209L48.0949 61.8433C48.2581 61.6438 48.453 61.5441 48.6797 61.5441C48.8973 61.5441 49.0877 61.6257 49.2509 61.7889C49.4232 61.943 49.5093 62.1289 49.5093 62.3465C49.5093 62.5459 49.4413 62.7182 49.3053 62.8633L46.4629 66.3313L49.4141 69.9489Z" fill="#E6633F"/>
<path d="M38.6003 38.7915H31.4003V31.3915C31.4003 31.3385 31.4003 30.8768 31.4003 30.413C31.4003 29.8611 30.9529 29.4121 30.4026 29.455C29.2361 29.5459 27.8946 29.7872 26.9649 30.1723C25.7529 30.6742 24.652 31.4105 23.7253 32.339C22.8129 33.2486 22.0861 34.3269 21.5853 35.514C21.0653 36.7465 20.8003 38.054 20.8003 39.404C20.8003 40.754 21.0653 42.059 21.5853 43.2915C22.0878 44.479 22.8078 45.549 23.7253 46.4665C24.6428 47.384 25.7103 48.104 26.9003 48.6065C28.1306 49.1284 29.4538 49.3963 30.7903 49.394C32.1021 49.3953 33.4012 49.1376 34.6132 48.6357C35.8252 48.1337 36.9261 47.3974 37.8528 46.469C38.7703 45.5515 39.4903 44.484 39.9928 43.294C40.3952 42.3454 40.6466 40.9777 40.7396 39.7885C40.7826 39.2385 40.3337 38.7915 39.7821 38.7915C39.2354 38.7915 38.657 38.7915 38.6003 38.7915Z" fill="#363739"/>
<path d="M43.1253 36.2457L43.1903 36.9507C43.2003 37.0657 43.1078 37.1632 42.9903 37.1657L33.4003 37.1907C33.2903 37.1907 33.2003 37.1007 33.2003 36.9907V27.3982C33.2003 27.2807 33.3003 27.1907 33.4178 27.2007L34.1253 27.2657C36.4386 27.48 38.6043 28.4961 40.2478 30.1382C41.8928 31.7757 42.9128 33.9457 43.1253 36.2457Z" fill="#363739"/>
<path d="M43.1252 36.2456L43.1902 36.9506C43.2002 37.0656 43.1077 37.1631 42.9902 37.1656L33.4002 37.1906C33.2902 37.1906 33.2002 37.1006 33.2002 36.9906V27.3981C33.2002 27.2806 33.3002 27.1906 33.4177 27.2006L34.1252 27.2656C36.4385 27.48 38.6042 28.4961 40.2477 30.1381C41.8927 31.7756 42.9127 33.9456 43.1252 36.2456Z" fill="#717376" fill-opacity="0.25"/>
</g>
<defs>
<linearGradient id="paint0_linear" x1="52.1356" y1="15.9026" x2="52.1356" y2="42.7848" gradientUnits="userSpaceOnUse">
<stop stop-color="#C7D3DA"/>
<stop offset="0.338542" stop-color="#C7D3DA" stop-opacity="0.739583"/>
<stop offset="0.640625" stop-color="#C7D3DA" stop-opacity="0.326115"/>
<stop offset="1" stop-color="#C7D3DA" stop-opacity="0"/>
</linearGradient>
<linearGradient id="paint1_linear" x1="46.0668" y1="9.35044" x2="59.8668" y2="30.7504" gradientUnits="userSpaceOnUse">
<stop stop-color="#5F6165"/>
<stop offset="0.489583" stop-color="#5F6165" stop-opacity="0.635417"/>
<stop offset="1" stop-color="#5F6165" stop-opacity="0"/>
</linearGradient>
<clipPath id="clip0">
<rect width="64" height="82.8" fill="white"/>
</clipPath>
</defs>
</svg>
