<svg width="64" height="84" viewBox="0 0 64 84" fill="none" xmlns="http://www.w3.org/2000/svg">
<g clip-path="url(#clip0)">
<path d="M60.8 83.3996H3.2C1.43269 83.3996 0 81.9669 0 80.1996V3.79961C0 2.0323 1.43269 0.599609 3.2 0.599609H45.1629C45.9574 0.599609 46.7234 0.895182 47.312 1.42872C47.3132 1.42975 47.3143 1.43077 47.3154 1.4318L62.9526 15.6474C62.9572 15.6516 62.9617 15.6558 62.9663 15.66C63.6249 16.2657 64 17.1198 64 18.0152V80.1996C64 81.9669 62.5673 83.3996 60.8 83.3996Z" fill="#242526"/>
<path fill-rule="evenodd" clip-rule="evenodd" d="M46.2381 2.61475L46.2374 2.61416C45.9431 2.3474 45.5601 2.19961 45.1629 2.19961H3.2C2.31634 2.19961 1.6 2.91595 1.6 3.79961V80.1996C1.6 81.0833 2.31635 81.7996 3.2 81.7996H60.8C61.6837 81.7996 62.4 81.0833 62.4 80.1996V18.0152C62.4 17.5675 62.2124 17.1404 61.8832 16.8376L61.8765 16.8314L46.2391 2.61571L46.2381 2.61475ZM62.9526 15.6474L47.312 1.42872C46.7234 0.895182 45.9574 0.599609 45.1629 0.599609H3.2C1.43269 0.599609 0 2.0323 0 3.79961V80.1996C0 81.9669 1.43269 83.3996 3.2 83.3996H60.8C62.5673 83.3996 64 81.9669 64 80.1996V18.0152C64 17.1198 63.6249 16.2657 62.9663 15.66L62.9526 15.6474Z" fill="#226EC2"/>
<g opacity="0.19">
<mask id="mask0" mask-type="alpha" maskUnits="userSpaceOnUse" x="46" y="8" width="28" height="27">
<rect x="46.7998" y="16.5023" width="10.6715" height="26.8821" transform="rotate(-47.7774 46.7998 16.5023)" fill="url(#paint0_linear)"/>
</mask>
<g mask="url(#mask0)">
<path d="M3.4668 84.1501H59.4668C61.6759 84.1501 63.4668 82.3592 63.4668 80.1501V18.2348C63.4668 17.6713 63.2291 17.1339 62.8121 16.7549L46.4389 1.87016C46.0708 1.53548 45.5911 1.35004 45.0936 1.35004H3.4668C1.25766 1.35004 -0.533203 3.1409 -0.533203 5.35003V80.1501C-0.533203 82.3592 1.25766 84.1501 3.4668 84.1501Z" fill="url(#paint1_linear)" style="mix-blend-mode:multiply"/>
</g>
</g>
<path d="M47.6 16.9996H63.2L46 1.3996V15.3996C46 16.2833 46.7163 16.9996 47.6 16.9996Z" fill="#226EC2"/>
<rect opacity="0.3" x="19.2002" y="29.3996" width="25.6" height="3.2" rx="1.6" fill="#5F6165"/>
<rect opacity="0.3" x="19.2002" y="37.3996" width="25.6" height="3.2" rx="1.6" fill="#5F6165"/>
<rect opacity="0.3" x="19.2002" y="45.3996" width="12.8" height="3.2" rx="1.6" fill="#5F6165"/>
<path d="M28.0151 71.0982C28.1239 71.2614 28.1783 71.42 28.1783 71.5742C28.1783 71.7827 28.0922 71.955 27.9199 72.091C27.7567 72.227 27.5618 72.295 27.3351 72.295C27.1901 72.295 27.0495 72.2632 26.9135 72.1998C26.7866 72.1272 26.6778 72.023 26.5871 71.887L24.7783 69.1398C24.597 68.8496 24.4021 68.6456 24.1935 68.5278C23.9941 68.4099 23.7311 68.351 23.4047 68.351H22.0719V71.3974C22.0719 71.6694 21.9949 71.887 21.8407 72.0502C21.6866 72.2043 21.4781 72.2814 21.2151 72.2814C20.9522 72.2814 20.7391 72.2043 20.5759 72.0502C20.4218 71.887 20.3447 71.6694 20.3447 71.3974V63.4414C20.3447 63.1784 20.4173 62.9744 20.5623 62.8294C20.7165 62.6843 20.925 62.6118 21.1879 62.6118H24.5879C25.6759 62.6118 26.501 62.8566 27.0631 63.3462C27.6343 63.8267 27.9199 64.5248 27.9199 65.4406C27.9199 66.184 27.7069 66.796 27.2807 67.2766C26.8637 67.748 26.2698 68.0518 25.4991 68.1878C25.7621 68.2512 25.9933 68.3646 26.1927 68.5278C26.3922 68.691 26.5871 68.9176 26.7775 69.2078L28.0151 71.0982ZM24.3431 67.0046C25.005 67.0046 25.4901 66.8822 25.7983 66.6374C26.1066 66.3835 26.2607 65.9982 26.2607 65.4814C26.2607 64.9555 26.1066 64.5747 25.7983 64.339C25.4901 64.0942 25.005 63.9718 24.3431 63.9718H22.0583V67.0046H24.3431Z" fill="#226EC2"/>
<path d="M32.949 72.2678C32.677 72.2678 32.4594 72.1907 32.2962 72.0366C32.142 71.8734 32.065 71.6603 32.065 71.3974V64.0534H29.5898C29.0458 64.0534 28.7738 63.8131 28.7738 63.3326C28.7738 62.852 29.0458 62.6118 29.5898 62.6118H36.2946C36.8386 62.6118 37.1106 62.852 37.1106 63.3326C37.1106 63.8131 36.8386 64.0534 36.2946 64.0534H33.8194V71.3974C33.8194 71.6603 33.7378 71.8734 33.5746 72.0366C33.4204 72.1907 33.2119 72.2678 32.949 72.2678Z" fill="#226EC2"/>
<path d="M39.2904 72.2814C39.0274 72.2814 38.8144 72.1998 38.6512 72.0366C38.497 71.8734 38.42 71.6603 38.42 71.3974V63.4414C38.42 63.1784 38.4925 62.9744 38.6376 62.8294C38.7917 62.6843 39.0002 62.6118 39.2632 62.6118H44.0368C44.5898 62.6118 44.8664 62.8475 44.8664 63.319C44.8664 63.7814 44.5898 64.0126 44.0368 64.0126H40.1472V66.6238H43.7648C44.3178 66.6238 44.5944 66.8595 44.5944 67.331C44.5944 67.7934 44.3178 68.0246 43.7648 68.0246H40.1472V71.3974C40.1472 71.6603 40.0701 71.8734 39.916 72.0366C39.7618 72.1998 39.5533 72.2814 39.2904 72.2814Z" fill="#226EC2"/>
</g>
<defs>
<linearGradient id="paint0_linear" x1="52.1356" y1="16.5023" x2="52.1356" y2="43.3844" gradientUnits="userSpaceOnUse">
<stop stop-color="#C7D3DA"/>
<stop offset="0.338542" stop-color="#C7D3DA" stop-opacity="0.739583"/>
<stop offset="0.640625" stop-color="#C7D3DA" stop-opacity="0.326115"/>
<stop offset="1" stop-color="#C7D3DA" stop-opacity="0"/>
</linearGradient>
<linearGradient id="paint1_linear" x1="46.0668" y1="9.95005" x2="59.8668" y2="31.3501" gradientUnits="userSpaceOnUse">
<stop stop-color="#5F6165"/>
<stop offset="0.489583" stop-color="#5F6165" stop-opacity="0.635417"/>
<stop offset="1" stop-color="#5F6165" stop-opacity="0"/>
</linearGradient>
<clipPath id="clip0">
<rect width="64" height="82.8" fill="white" transform="translate(0 0.599609)"/>
</clipPath>
</defs>
</svg>
