<svg width="64" height="84" viewBox="0 0 64 84" fill="none" xmlns="http://www.w3.org/2000/svg">
<g clip-path="url(#clip0)">
<path d="M60.8 83.3996H3.2C1.43269 83.3996 0 81.9669 0 80.1996V3.79961C0 2.0323 1.43269 0.599609 3.2 0.599609H45.1629C45.9574 0.599609 46.7234 0.895182 47.312 1.42872C47.3132 1.42975 47.3143 1.43077 47.3154 1.4318L62.9526 15.6474C62.9572 15.6516 62.9617 15.6558 62.9663 15.66C63.6249 16.2657 64 17.1198 64 18.0152V80.1996C64 81.9669 62.5673 83.3996 60.8 83.3996Z" fill="#242526"/>
<path fill-rule="evenodd" clip-rule="evenodd" d="M46.2381 2.61475L46.2374 2.61416C45.9431 2.3474 45.5601 2.19961 45.1629 2.19961H3.2C2.31634 2.19961 1.6 2.91595 1.6 3.79961V80.1996C1.6 81.0833 2.31635 81.7996 3.2 81.7996H60.8C61.6837 81.7996 62.4 81.0833 62.4 80.1996V18.0152C62.4 17.5675 62.2124 17.1404 61.8832 16.8376L61.8765 16.8314L46.2391 2.61571L46.2381 2.61475ZM62.9526 15.6474L47.312 1.42872C46.7234 0.895182 45.9574 0.599609 45.1629 0.599609H3.2C1.43269 0.599609 0 2.0323 0 3.79961V80.1996C0 81.9669 1.43269 83.3996 3.2 83.3996H60.8C62.5673 83.3996 64 81.9669 64 80.1996V18.0152C64 17.1198 63.6249 16.2657 62.9663 15.66L62.9526 15.6474Z" fill="#226EC2"/>
<g opacity="0.19">
<mask id="mask0" mask-type="alpha" maskUnits="userSpaceOnUse" x="46" y="8" width="28" height="27">
<rect x="46.7998" y="16.5023" width="10.6715" height="26.8821" transform="rotate(-47.7774 46.7998 16.5023)" fill="url(#paint0_linear)"/>
</mask>
<g mask="url(#mask0)">
<path d="M3.4668 84.1501H59.4668C61.6759 84.1501 63.4668 82.3592 63.4668 80.1501V18.2348C63.4668 17.6713 63.2291 17.1339 62.8121 16.7549L46.4389 1.87016C46.0708 1.53548 45.5911 1.35004 45.0936 1.35004H3.4668C1.25766 1.35004 -0.533203 3.1409 -0.533203 5.35003V80.1501C-0.533203 82.3592 1.25766 84.1501 3.4668 84.1501Z" fill="url(#paint1_linear)" style="mix-blend-mode:multiply"/>
</g>
</g>
<path d="M47.6 16.9996H63.2L46 1.3996V15.3996C46 16.2833 46.7163 16.9996 47.6 16.9996Z" fill="#226EC2"/>
<path d="M23.0473 72.2677C22.7753 72.2677 22.5577 72.1906 22.3945 72.0365C22.2403 71.8733 22.1633 71.6602 22.1633 71.3973V64.0533H19.6881C19.1441 64.0533 18.8721 63.813 18.8721 63.3325C18.8721 62.852 19.1441 62.6117 19.6881 62.6117H26.3929C26.9369 62.6117 27.2089 62.852 27.2089 63.3325C27.2089 63.813 26.9369 64.0533 26.3929 64.0533H23.9177V71.3973C23.9177 71.6602 23.8361 71.8733 23.6729 72.0365C23.5187 72.1906 23.3102 72.2677 23.0473 72.2677Z" fill="#226EC2"/>
<path d="M35.9711 70.9485C36.1162 71.1208 36.1887 71.293 36.1887 71.4653C36.1887 71.6829 36.1026 71.8733 35.9303 72.0365C35.7671 72.1997 35.5767 72.2813 35.3591 72.2813C35.1324 72.2813 34.933 72.1816 34.7607 71.9821L31.9999 68.5549L29.2255 71.9821C29.0623 72.1725 28.8674 72.2677 28.6407 72.2677C28.4231 72.2677 28.2282 72.1906 28.0559 72.0365C27.8927 71.8733 27.8111 71.6829 27.8111 71.4653C27.8111 71.284 27.8791 71.1117 28.0151 70.9485L30.9799 67.3309L28.1375 63.8629C28.0015 63.7178 27.9335 63.5456 27.9335 63.3461C27.9335 63.1285 28.0151 62.9426 28.1783 62.7885C28.3415 62.6253 28.5319 62.5437 28.7495 62.5437C28.9762 62.5437 29.1756 62.6434 29.3479 62.8429L31.9999 66.1205L34.6519 62.8429C34.8151 62.6434 35.01 62.5437 35.2367 62.5437C35.4543 62.5437 35.6447 62.6253 35.8079 62.7885C35.9802 62.9426 36.0663 63.1285 36.0663 63.3461C36.0663 63.5456 35.9983 63.7178 35.8623 63.8629L33.0199 67.3309L35.9711 70.9485Z" fill="#226EC2"/>
<path d="M40.9631 72.2677C40.6911 72.2677 40.4735 72.1906 40.3103 72.0365C40.1562 71.8733 40.0791 71.6602 40.0791 71.3973V64.0533H37.6039C37.0599 64.0533 36.7879 63.813 36.7879 63.3325C36.7879 62.852 37.0599 62.6117 37.6039 62.6117H44.3087C44.8527 62.6117 45.1247 62.852 45.1247 63.3325C45.1247 63.813 44.8527 64.0533 44.3087 64.0533H41.8335V71.3973C41.8335 71.6602 41.7519 71.8733 41.5887 72.0365C41.4346 72.1906 41.2261 72.2677 40.9631 72.2677Z" fill="#226EC2"/>
<rect opacity="0.3" x="19.2002" y="29.3996" width="25.6" height="3.2" rx="1.6" fill="#5F6165"/>
<rect opacity="0.3" x="19.2002" y="37.3996" width="25.6" height="3.2" rx="1.6" fill="#5F6165"/>
<rect opacity="0.3" x="19.2002" y="45.3996" width="12.8" height="3.2" rx="1.6" fill="#5F6165"/>
</g>
<defs>
<linearGradient id="paint0_linear" x1="52.1356" y1="16.5023" x2="52.1356" y2="43.3844" gradientUnits="userSpaceOnUse">
<stop stop-color="#C7D3DA"/>
<stop offset="0.338542" stop-color="#C7D3DA" stop-opacity="0.739583"/>
<stop offset="0.640625" stop-color="#C7D3DA" stop-opacity="0.326115"/>
<stop offset="1" stop-color="#C7D3DA" stop-opacity="0"/>
</linearGradient>
<linearGradient id="paint1_linear" x1="46.0668" y1="9.95005" x2="59.8668" y2="31.3501" gradientUnits="userSpaceOnUse">
<stop stop-color="#5F6165"/>
<stop offset="0.489583" stop-color="#5F6165" stop-opacity="0.635417"/>
<stop offset="1" stop-color="#5F6165" stop-opacity="0"/>
</linearGradient>
<clipPath id="clip0">
<rect width="64" height="82.8" fill="white" transform="translate(0 0.599609)"/>
</clipPath>
</defs>
</svg>
