<svg width="64" height="83" viewBox="0 0 64 83" fill="none" xmlns="http://www.w3.org/2000/svg">
<g clip-path="url(#clip0)">
<path d="M60.8 82.9992H3.2C1.43269 82.9992 0 81.5665 0 79.7992V3.39922C0 1.63191 1.43269 0.199219 3.2 0.199219H45.1629C45.9574 0.199219 46.7234 0.494791 47.312 1.02833C47.3132 1.02936 47.3143 1.03038 47.3154 1.03141L62.9526 15.247C62.9572 15.2512 62.9617 15.2554 62.9663 15.2596C63.6249 15.8653 64 16.7194 64 17.6148V79.7992C64 81.5665 62.5673 82.9992 60.8 82.9992Z" fill="#242526"/>
<path fill-rule="evenodd" clip-rule="evenodd" d="M46.2381 2.21436L46.2374 2.21377C45.9431 1.94701 45.5601 1.79922 45.1629 1.79922H3.2C2.31634 1.79922 1.6 2.51556 1.6 3.39922V79.7992C1.6 80.6829 2.31635 81.3992 3.2 81.3992H60.8C61.6837 81.3992 62.4 80.6829 62.4 79.7992V17.6148C62.4 17.1671 62.2124 16.7401 61.8832 16.4372L61.8765 16.4311L46.2391 2.21531L46.2381 2.21436ZM62.9526 15.247L47.312 1.02833C46.7234 0.494791 45.9574 0.199219 45.1629 0.199219H3.2C1.43269 0.199219 0 1.63191 0 3.39922V79.7992C0 81.5665 1.43269 82.9992 3.2 82.9992H60.8C62.5673 82.9992 64 81.5665 64 79.7992V17.6148C64 16.7194 63.6249 15.8653 62.9663 15.2596L62.9526 15.247Z" fill="#EBAE64"/>
<g opacity="0.19">
<mask id="mask0" mask-type="alpha" maskUnits="userSpaceOnUse" x="46" y="8" width="28" height="27">
<rect x="46.7998" y="16.1019" width="10.6715" height="26.8821" transform="rotate(-47.7774 46.7998 16.1019)" fill="url(#paint0_linear)"/>
</mask>
<g mask="url(#mask0)">
<path d="M3.4668 83.7497H59.4668C61.6759 83.7497 63.4668 81.9588 63.4668 79.7497V17.8344C63.4668 17.2709 63.2291 16.7336 62.8121 16.3545L46.4389 1.46977C46.0708 1.13509 45.5911 0.949646 45.0936 0.949646H3.4668C1.25766 0.949646 -0.533203 2.74051 -0.533203 4.94964V79.7497C-0.533203 81.9588 1.25766 83.7497 3.4668 83.7497Z" fill="url(#paint1_linear)" style="mix-blend-mode:multiply"/>
</g>
</g>
<path d="M47.6 16.5992H63.2L46 0.999207V14.9992C46 15.8829 46.7163 16.5992 47.6 16.5992Z" fill="#EBAE64"/>
<path d="M28.4486 62.6735C28.512 62.4922 28.6118 62.3562 28.7478 62.2655C28.8928 62.1748 29.0515 62.1295 29.2238 62.1295C29.4414 62.1295 29.6272 62.1975 29.7814 62.3335C29.9446 62.4695 30.0262 62.6508 30.0262 62.8775C30.0262 62.9591 30.0035 63.077 29.9582 63.2311L27.0342 71.3231C26.9616 71.5044 26.8392 71.645 26.667 71.7447C26.5038 71.8444 26.3224 71.8943 26.123 71.8943C25.9235 71.8943 25.7376 71.8444 25.5654 71.7447C25.3931 71.645 25.2752 71.5044 25.2118 71.3231L22.9542 64.9175L20.6558 71.3231C20.5832 71.5044 20.4608 71.645 20.2886 71.7447C20.1254 71.8444 19.944 71.8943 19.7446 71.8943C19.5451 71.8943 19.3592 71.8444 19.187 71.7447C19.0238 71.645 18.9104 71.5044 18.847 71.3231L15.923 63.2311C15.8776 63.0951 15.855 62.9772 15.855 62.8775C15.855 62.6508 15.9366 62.4695 16.0998 62.3335C16.272 62.1975 16.4715 62.1295 16.6982 62.1295C16.8795 62.1295 17.0427 62.1748 17.1878 62.2655C17.3328 62.3562 17.4371 62.4922 17.5006 62.6735L19.8126 69.3239L22.1926 62.7143C22.256 62.533 22.3603 62.3924 22.5054 62.2927C22.6504 62.1839 22.8091 62.1295 22.9814 62.1295C23.1536 62.1295 23.3123 62.1839 23.4574 62.2927C23.6115 62.3924 23.7203 62.5375 23.7838 62.7279L26.0958 69.4055L28.4486 62.6735Z" fill="#EBAE64"/>
<path d="M39.573 70.7519C39.6274 70.8698 39.6546 70.9876 39.6546 71.1055C39.6546 71.314 39.5684 71.4908 39.3962 71.6359C39.233 71.781 39.0426 71.8535 38.825 71.8535C38.6799 71.8535 38.5439 71.8172 38.417 71.7447C38.29 71.6631 38.1903 71.5407 38.1178 71.3775L37.3018 69.5551H32.5146L31.6986 71.3775C31.626 71.5407 31.5263 71.6631 31.3994 71.7447C31.2724 71.8172 31.1319 71.8535 30.9778 71.8535C30.7692 71.8535 30.5788 71.781 30.4066 71.6359C30.2343 71.4908 30.1482 71.314 30.1482 71.1055C30.1482 70.9876 30.1754 70.8698 30.2298 70.7519L33.9834 62.6871C34.065 62.5058 34.1874 62.3698 34.3506 62.2791C34.5228 62.1794 34.7042 62.1295 34.8946 62.1295C35.085 62.1295 35.2618 62.1794 35.425 62.2791C35.5972 62.3698 35.7242 62.5058 35.8058 62.6871L39.573 70.7519ZM33.113 68.1951H36.7034L34.9082 64.1559L33.113 68.1951Z" fill="#EBAE64"/>
<path d="M47.3087 62.5919C47.4538 62.2836 47.694 62.1295 48.0295 62.1295C48.2562 62.1295 48.4602 62.202 48.6415 62.3471C48.8228 62.4922 48.9135 62.6735 48.9135 62.8911C48.9135 62.9908 48.8863 63.1042 48.8319 63.2311L45.0647 71.3367C44.9831 71.509 44.8562 71.645 44.6839 71.7447C44.5207 71.8354 44.3439 71.8807 44.1535 71.8807C43.9631 71.8807 43.7818 71.8354 43.6095 71.7447C43.4463 71.645 43.3239 71.509 43.2423 71.3367L39.4887 63.2311C39.4343 63.1042 39.4071 62.9954 39.4071 62.9047C39.4071 62.678 39.4978 62.4922 39.6791 62.3471C39.8695 62.202 40.0826 62.1295 40.3183 62.1295C40.4724 62.1295 40.613 62.1703 40.7399 62.2519C40.8759 62.3244 40.9802 62.4378 41.0527 62.5919L44.1807 69.5415L47.3087 62.5919Z" fill="#EBAE64"/>
<path d="M38.4004 34.1353V42.2281C37.7903 41.8759 37.0811 41.7348 36.3827 41.8268C35.6843 41.9187 35.0357 42.2386 34.5376 42.7367C34.0395 43.2348 33.7197 43.8834 33.6278 44.5818C33.5358 45.2802 33.6769 45.9894 34.0291 46.5994C34.3814 47.2095 34.925 47.6863 35.5759 47.9558C36.2267 48.2254 36.9482 48.2727 37.6287 48.0904C38.3091 47.908 38.9104 47.5063 39.3392 46.9474C39.768 46.3885 40.0004 45.7038 40.0004 44.9993V28.8809C40.0006 28.6755 39.9515 28.4731 39.857 28.2908C39.7625 28.1084 39.6256 27.9514 39.4577 27.8331C39.2898 27.7148 39.0959 27.6386 38.8924 27.611C38.6889 27.5834 38.4817 27.6052 38.2884 27.6745L28.0484 31.3321C27.8002 31.4211 27.5855 31.5846 27.4337 31.8003C27.2819 32.0159 27.2004 32.2732 27.2004 32.5369V43.8265C26.5904 43.4743 25.8812 43.3333 25.1829 43.4252C24.4846 43.5171 23.836 43.8368 23.3379 44.3348C22.8398 44.8328 22.5199 45.4812 22.4278 46.1796C22.3358 46.8779 22.4767 47.5871 22.8287 48.1972C23.1808 48.8072 23.7243 49.2841 24.3749 49.5539C25.0256 49.8236 25.7471 49.8711 26.4275 49.6891C27.1079 49.507 27.7093 49.1055 28.1383 48.5469C28.5673 47.9883 28.8001 47.3037 28.8004 46.5993V37.5641L38.4004 34.1369V34.1353Z" fill="#363739"/>
</g>
<defs>
<linearGradient id="paint0_linear" x1="52.1356" y1="16.1019" x2="52.1356" y2="42.984" gradientUnits="userSpaceOnUse">
<stop stop-color="#C7D3DA"/>
<stop offset="0.338542" stop-color="#C7D3DA" stop-opacity="0.739583"/>
<stop offset="0.640625" stop-color="#C7D3DA" stop-opacity="0.326115"/>
<stop offset="1" stop-color="#C7D3DA" stop-opacity="0"/>
</linearGradient>
<linearGradient id="paint1_linear" x1="46.0668" y1="9.54966" x2="59.8668" y2="30.9497" gradientUnits="userSpaceOnUse">
<stop stop-color="#5F6165"/>
<stop offset="0.489583" stop-color="#5F6165" stop-opacity="0.635417"/>
<stop offset="1" stop-color="#5F6165" stop-opacity="0"/>
</linearGradient>
<clipPath id="clip0">
<rect width="64" height="82.8" fill="white" transform="translate(0 0.199219)"/>
</clipPath>
</defs>
</svg>
