<svg width="64" height="83" viewBox="0 0 64 83" fill="none" xmlns="http://www.w3.org/2000/svg">
<g clip-path="url(#clip0)">
<path d="M60.8 82.9992H3.2C1.43269 82.9992 0 81.5665 0 79.7992V3.39922C0 1.63191 1.43269 0.199219 3.2 0.199219H45.1629C45.9574 0.199219 46.7234 0.494791 47.312 1.02833C47.3132 1.02936 47.3143 1.03038 47.3154 1.03141L62.9526 15.247C62.9572 15.2512 62.9617 15.2554 62.9663 15.2596C63.6249 15.8653 64 16.7194 64 17.6148V79.7992C64 81.5665 62.5673 82.9992 60.8 82.9992Z" fill="#242526"/>
<path fill-rule="evenodd" clip-rule="evenodd" d="M46.2381 2.21436L46.2374 2.21377C45.9431 1.94701 45.5601 1.79922 45.1629 1.79922H3.2C2.31634 1.79922 1.6 2.51556 1.6 3.39922V79.7992C1.6 80.6829 2.31635 81.3992 3.2 81.3992H60.8C61.6837 81.3992 62.4 80.6829 62.4 79.7992V17.6148C62.4 17.1671 62.2124 16.7401 61.8832 16.4372L61.8765 16.4311L46.2391 2.21531L46.2381 2.21436ZM62.9526 15.247L47.312 1.02833C46.7234 0.494791 45.9574 0.199219 45.1629 0.199219H3.2C1.43269 0.199219 0 1.63191 0 3.39922V79.7992C0 81.5665 1.43269 82.9992 3.2 82.9992H60.8C62.5673 82.9992 64 81.5665 64 79.7992V17.6148C64 16.7194 63.6249 15.8653 62.9663 15.2596L62.9526 15.247Z" fill="#EBAE64"/>
<g opacity="0.19">
<mask id="mask0" mask-type="alpha" maskUnits="userSpaceOnUse" x="46" y="8" width="28" height="27">
<rect x="46.7998" y="16.1019" width="10.6715" height="26.8821" transform="rotate(-47.7774 46.7998 16.1019)" fill="url(#paint0_linear)"/>
</mask>
<g mask="url(#mask0)">
<path d="M3.4668 83.7497H59.4668C61.6759 83.7497 63.4668 81.9588 63.4668 79.7497V17.8344C63.4668 17.2709 63.2291 16.7336 62.8121 16.3545L46.4389 1.46977C46.0708 1.13509 45.5911 0.949646 45.0936 0.949646H3.4668C1.25766 0.949646 -0.533203 2.74051 -0.533203 4.94964V79.7497C-0.533203 81.9588 1.25766 83.7497 3.4668 83.7497Z" fill="url(#paint1_linear)" style="mix-blend-mode:multiply"/>
</g>
</g>
<path d="M47.6 16.5992H63.2L46 0.999207V14.9992C46 15.8829 46.7163 16.5992 47.6 16.5992Z" fill="#EBAE64"/>
<path d="M22.7337 62.6735C22.7972 62.4922 22.8969 62.3562 23.0329 62.2655C23.178 62.1748 23.3367 62.1295 23.5089 62.1295C23.7265 62.1295 23.9124 62.1975 24.0665 62.3335C24.2297 62.4695 24.3113 62.6508 24.3113 62.8775C24.3113 62.9591 24.2887 63.077 24.2433 63.2311L21.3193 71.3231C21.2468 71.5044 21.1244 71.645 20.9521 71.7447C20.7889 71.8444 20.6076 71.8943 20.4081 71.8943C20.2087 71.8943 20.0228 71.8444 19.8505 71.7447C19.6783 71.645 19.5604 71.5044 19.4969 71.3231L17.2393 64.9175L14.9409 71.3231C14.8684 71.5044 14.746 71.645 14.5737 71.7447C14.4105 71.8444 14.2292 71.8943 14.0297 71.8943C13.8303 71.8943 13.6444 71.8444 13.4721 71.7447C13.3089 71.645 13.1956 71.5044 13.1321 71.3231L10.2081 63.2311C10.1628 63.0951 10.1401 62.9772 10.1401 62.8775C10.1401 62.6508 10.2217 62.4695 10.3849 62.3335C10.5572 62.1975 10.7567 62.1295 10.9833 62.1295C11.1647 62.1295 11.3279 62.1748 11.4729 62.2655C11.618 62.3562 11.7223 62.4922 11.7857 62.6735L14.0977 69.3239L16.4777 62.7143C16.5412 62.533 16.6455 62.3924 16.7905 62.2927C16.9356 62.1839 17.0943 62.1295 17.2665 62.1295C17.4388 62.1295 17.5975 62.1839 17.7425 62.2927C17.8967 62.3924 18.0055 62.5375 18.0689 62.7279L20.3809 69.4055L22.7337 62.6735Z" fill="#EBAE64"/>
<path d="M26.9273 71.7991C26.6644 71.7991 26.4559 71.7266 26.3017 71.5815C26.1567 71.4364 26.0841 71.2324 26.0841 70.9695V63.0407C26.0841 62.7778 26.1567 62.5738 26.3017 62.4287C26.4559 62.2836 26.6644 62.2111 26.9273 62.2111H31.8369C32.0999 62.2111 32.3039 62.27 32.4489 62.3879C32.594 62.5058 32.6665 62.6735 32.6665 62.8911C32.6665 63.1178 32.594 63.2946 32.4489 63.4215C32.3039 63.5394 32.0999 63.5983 31.8369 63.5983H27.7977V66.2367H31.5649C31.8279 66.2367 32.0319 66.2956 32.1769 66.4135C32.322 66.5314 32.3945 66.7036 32.3945 66.9303C32.3945 67.1479 32.322 67.3156 32.1769 67.4335C32.0319 67.5514 31.8279 67.6103 31.5649 67.6103H27.7977V70.4119H31.8369C32.0999 70.4119 32.3039 70.4754 32.4489 70.6023C32.594 70.7202 32.6665 70.8924 32.6665 71.1191C32.6665 71.3367 32.594 71.5044 32.4489 71.6223C32.3039 71.7402 32.0999 71.7991 31.8369 71.7991H26.9273Z" fill="#EBAE64"/>
<path d="M40.2671 66.8487C40.8202 67.0028 41.2463 67.2839 41.5455 67.6919C41.8538 68.0999 42.0079 68.5986 42.0079 69.1879C42.0079 70.0039 41.7132 70.6431 41.1239 71.1055C40.5436 71.5679 39.7412 71.7991 38.7167 71.7991H35.2079C34.945 71.7991 34.7365 71.7266 34.5823 71.5815C34.4373 71.4364 34.3647 71.2324 34.3647 70.9695V63.0407C34.3647 62.7778 34.4373 62.5738 34.5823 62.4287C34.7365 62.2836 34.945 62.2111 35.2079 62.2111H38.5807C39.578 62.2111 40.3578 62.4332 40.9199 62.8775C41.4911 63.3127 41.7767 63.9247 41.7767 64.7135C41.7767 65.2212 41.6407 65.661 41.3687 66.0327C41.1058 66.4044 40.7386 66.6764 40.2671 66.8487ZM36.0783 66.2503H38.2951C39.501 66.2503 40.1039 65.8015 40.1039 64.9039C40.1039 64.4506 39.9543 64.1151 39.6551 63.8975C39.3559 63.6799 38.9026 63.5711 38.2951 63.5711H36.0783V66.2503ZM38.5263 70.4391C39.161 70.4391 39.6234 70.3258 39.9135 70.0991C40.2036 69.8724 40.3487 69.5188 40.3487 69.0383C40.3487 68.5578 40.1991 68.1996 39.8999 67.9639C39.6098 67.7282 39.1519 67.6103 38.5263 67.6103H36.0783V70.4391H38.5263Z" fill="#EBAE64"/>
<path d="M52.4339 62.1431C52.6878 62.1431 52.8918 62.2247 53.0459 62.3879C53.2 62.5421 53.2771 62.7506 53.2771 63.0135V71.0647C53.2771 71.3186 53.2046 71.518 53.0595 71.6631C52.9144 71.8082 52.724 71.8807 52.4883 71.8807C52.2526 71.8807 52.0667 71.8082 51.9307 71.6631C51.7947 71.518 51.7267 71.3186 51.7267 71.0647V65.4615L49.4147 69.8407C49.3059 70.0402 49.188 70.1898 49.0611 70.2895C48.9342 70.3802 48.7846 70.4255 48.6123 70.4255C48.44 70.4255 48.2904 70.3802 48.1635 70.2895C48.0366 70.1988 47.9187 70.0492 47.8099 69.8407L45.4843 65.5295V71.0647C45.4843 71.3095 45.4118 71.509 45.2667 71.6631C45.1307 71.8082 44.9448 71.8807 44.7091 71.8807C44.4734 71.8807 44.2875 71.8082 44.1515 71.6631C44.0155 71.518 43.9475 71.3186 43.9475 71.0647V63.0135C43.9475 62.7506 44.02 62.5421 44.1651 62.3879C44.3192 62.2247 44.5232 62.1431 44.7771 62.1431C45.1307 62.1431 45.4072 62.338 45.6067 62.7279L48.6259 68.4807L51.6315 62.7279C51.831 62.338 52.0984 62.1431 52.4339 62.1431Z" fill="#EBAE64"/>
<path d="M38.4004 34.1353V42.2281C37.7903 41.8759 37.0811 41.7348 36.3827 41.8268C35.6843 41.9187 35.0357 42.2386 34.5376 42.7367C34.0395 43.2348 33.7197 43.8834 33.6278 44.5818C33.5358 45.2802 33.6769 45.9894 34.0291 46.5994C34.3814 47.2095 34.925 47.6863 35.5759 47.9558C36.2267 48.2254 36.9482 48.2727 37.6287 48.0904C38.3091 47.908 38.9104 47.5063 39.3392 46.9474C39.768 46.3885 40.0004 45.7038 40.0004 44.9993V28.8809C40.0006 28.6755 39.9515 28.4731 39.857 28.2908C39.7625 28.1084 39.6256 27.9514 39.4577 27.8331C39.2898 27.7148 39.0959 27.6386 38.8924 27.611C38.6889 27.5834 38.4817 27.6052 38.2884 27.6745L28.0484 31.3321C27.8002 31.4211 27.5855 31.5846 27.4337 31.8003C27.2819 32.0159 27.2004 32.2732 27.2004 32.5369V43.8265C26.5904 43.4743 25.8812 43.3333 25.1829 43.4252C24.4846 43.5171 23.836 43.8368 23.3379 44.3348C22.8398 44.8328 22.5199 45.4812 22.4278 46.1796C22.3358 46.8779 22.4767 47.5871 22.8287 48.1972C23.1808 48.8072 23.7243 49.2841 24.3749 49.5539C25.0256 49.8236 25.7471 49.8711 26.4275 49.6891C27.1079 49.507 27.7093 49.1055 28.1383 48.5469C28.5673 47.9883 28.8001 47.3037 28.8004 46.5993V37.5641L38.4004 34.1369V34.1353Z" fill="#363739"/>
</g>
<defs>
<linearGradient id="paint0_linear" x1="52.1356" y1="16.1019" x2="52.1356" y2="42.984" gradientUnits="userSpaceOnUse">
<stop stop-color="#C7D3DA"/>
<stop offset="0.338542" stop-color="#C7D3DA" stop-opacity="0.739583"/>
<stop offset="0.640625" stop-color="#C7D3DA" stop-opacity="0.326115"/>
<stop offset="1" stop-color="#C7D3DA" stop-opacity="0"/>
</linearGradient>
<linearGradient id="paint1_linear" x1="46.0668" y1="9.54966" x2="59.8668" y2="30.9497" gradientUnits="userSpaceOnUse">
<stop stop-color="#5F6165"/>
<stop offset="0.489583" stop-color="#5F6165" stop-opacity="0.635417"/>
<stop offset="1" stop-color="#5F6165" stop-opacity="0"/>
</linearGradient>
<clipPath id="clip0">
<rect width="64" height="82.8" fill="white" transform="translate(0 0.199219)"/>
</clipPath>
</defs>
</svg>
