<svg width="64" height="83" viewBox="0 0 64 83" fill="none" xmlns="http://www.w3.org/2000/svg">
<g clip-path="url(#clip0)">
<path d="M60.8 82.799H3.2C1.43269 82.799 0 81.3663 0 79.599V3.19902C0 1.43171 1.43269 -0.000976562 3.2 -0.000976562H45.1629C45.9574 -0.000976562 46.7234 0.294596 47.312 0.828137C47.3132 0.829162 47.3143 0.830188 47.3154 0.831215L62.9526 15.0468C62.9572 15.051 62.9617 15.0552 62.9663 15.0594C63.6249 15.6651 64 16.5192 64 17.4146V79.599C64 81.3663 62.5673 82.799 60.8 82.799Z" fill="#242526"/>
<path fill-rule="evenodd" clip-rule="evenodd" d="M46.2381 2.01416L46.2374 2.01358C45.9431 1.74681 45.5601 1.59902 45.1629 1.59902H3.2C2.31634 1.59902 1.6 2.31537 1.6 3.19902V79.599C1.6 80.4827 2.31635 81.199 3.2 81.199H60.8C61.6837 81.199 62.4 80.4827 62.4 79.599V17.4146C62.4 16.9669 62.2124 16.5399 61.8832 16.237L61.8765 16.2309L46.2391 2.01512L46.2381 2.01416ZM62.9526 15.0468L47.312 0.828137C46.7234 0.294596 45.9574 -0.000976562 45.1629 -0.000976562H3.2C1.43269 -0.000976562 0 1.43171 0 3.19902V79.599C0 81.3663 1.43269 82.799 3.2 82.799H60.8C62.5673 82.799 64 81.3663 64 79.599V17.4146C64 16.5192 63.6249 15.6651 62.9663 15.0594L62.9526 15.0468Z" fill="#BE535A"/>
<g opacity="0.19">
<mask id="mask0" mask-type="alpha" maskUnits="userSpaceOnUse" x="46" y="7" width="28" height="27">
<path d="M46.7998 15.9017L53.9712 7.99904L73.8785 26.0642L66.7071 33.9669L46.7998 15.9017Z" fill="url(#paint0_linear)"/>
</mask>
<g mask="url(#mask0)">
<path d="M1.0668 83.5495H61.8668C62.7505 83.5495 63.4668 82.8332 63.4668 81.9495V17.1034C63.4668 16.878 63.3717 16.6631 63.2049 16.5115L46.0956 0.95756C45.9484 0.823689 45.7565 0.749512 45.5575 0.749512H1.0668C0.183141 0.749512 -0.533203 1.46585 -0.533203 2.34951V81.9495C-0.533203 82.8332 0.18314 83.5495 1.0668 83.5495Z" fill="url(#paint1_linear)" style="mix-blend-mode:multiply"/>
</g>
</g>
<path d="M47.6 16.3991H63.2L46 0.799072V14.7991C46 15.6827 46.7163 16.3991 47.6 16.3991Z" fill="#BE535A"/>
<path fill-rule="evenodd" clip-rule="evenodd" d="M45.8381 0.433344C45.9827 0.369242 46.1516 0.396458 46.2688 0.502768L63.4688 16.1028C63.5913 16.2138 63.6328 16.3888 63.5733 16.5431C63.5137 16.6973 63.3654 16.7991 63.2001 16.7991H47.6001C46.4955 16.7991 45.6001 15.9036 45.6001 14.7991V0.799056C45.6001 0.640813 45.6934 0.497445 45.8381 0.433344ZM46.4001 1.70186V14.7991C46.4001 15.4618 46.9374 15.9991 47.6001 15.9991H62.1637L46.4001 1.70186Z" fill="#BE535A"/>
<path d="M26.6615 62.4733C26.7249 62.292 26.8247 62.156 26.9607 62.0653C27.1057 61.9747 27.2644 61.9293 27.4367 61.9293C27.6543 61.9293 27.8401 61.9973 27.9943 62.1333C28.1575 62.2693 28.2391 62.4507 28.2391 62.6773C28.2391 62.7589 28.2164 62.8768 28.1711 63.0309L25.2471 71.1229C25.1745 71.3043 25.0521 71.4448 24.8799 71.5445C24.7167 71.6443 24.5353 71.6941 24.3359 71.6941C24.1364 71.6941 23.9505 71.6443 23.7783 71.5445C23.606 71.4448 23.4881 71.3043 23.4247 71.1229L21.1671 64.7173L18.8687 71.1229C18.7961 71.3043 18.6737 71.4448 18.5015 71.5445C18.3383 71.6443 18.1569 71.6941 17.9575 71.6941C17.758 71.6941 17.5721 71.6443 17.3999 71.5445C17.2367 71.4448 17.1233 71.3043 17.0599 71.1229L14.1359 63.0309C14.0905 62.8949 14.0679 62.7771 14.0679 62.6773C14.0679 62.4507 14.1495 62.2693 14.3127 62.1333C14.4849 61.9973 14.6844 61.9293 14.9111 61.9293C15.0924 61.9293 15.2556 61.9747 15.4007 62.0653C15.5457 62.156 15.65 62.292 15.7135 62.4733L18.0255 69.1237L20.4055 62.5141C20.4689 62.3328 20.5732 62.1923 20.7183 62.0925C20.8633 61.9837 21.022 61.9293 21.1943 61.9293C21.3665 61.9293 21.5252 61.9837 21.6703 62.0925C21.8244 62.1923 21.9332 62.3373 21.9967 62.5277L24.3087 69.2053L26.6615 62.4733Z" fill="#BE535A"/>
<path d="M38.5255 61.9429C38.7793 61.9429 38.9833 62.0245 39.1375 62.1877C39.2916 62.3419 39.3687 62.5504 39.3687 62.8133V70.8645C39.3687 71.1184 39.2961 71.3179 39.1511 71.4629C39.006 71.608 38.8156 71.6805 38.5799 71.6805C38.3441 71.6805 38.1583 71.608 38.0223 71.4629C37.8863 71.3179 37.8183 71.1184 37.8183 70.8645V65.2613L35.5063 69.6405C35.3975 69.84 35.2796 69.9896 35.1527 70.0893C35.0257 70.18 34.8761 70.2253 34.7039 70.2253C34.5316 70.2253 34.382 70.18 34.2551 70.0893C34.1281 69.9987 34.0103 69.8491 33.9015 69.6405L31.5759 65.3293V70.8645C31.5759 71.1093 31.5033 71.3088 31.3583 71.4629C31.2223 71.608 31.0364 71.6805 30.8007 71.6805C30.5649 71.6805 30.3791 71.608 30.2431 71.4629C30.1071 71.3179 30.0391 71.1184 30.0391 70.8645V62.8133C30.0391 62.5504 30.1116 62.3419 30.2567 62.1877C30.4108 62.0245 30.6148 61.9429 30.8687 61.9429C31.2223 61.9429 31.4988 62.1379 31.6983 62.5277L34.7175 68.2805L37.7231 62.5277C37.9225 62.1379 38.19 61.9429 38.5255 61.9429Z" fill="#BE535A"/>
<path d="M48.6958 62.3917C48.8409 62.0835 49.0811 61.9293 49.4166 61.9293C49.6433 61.9293 49.8473 62.0019 50.0286 62.1469C50.2099 62.292 50.3006 62.4733 50.3006 62.6909C50.3006 62.7907 50.2734 62.904 50.219 63.0309L46.4518 71.1365C46.3702 71.3088 46.2433 71.4448 46.071 71.5445C45.9078 71.6352 45.731 71.6805 45.5406 71.6805C45.3502 71.6805 45.1689 71.6352 44.9966 71.5445C44.8334 71.4448 44.711 71.3088 44.6294 71.1365L40.8758 63.0309C40.8214 62.904 40.7942 62.7952 40.7942 62.7045C40.7942 62.4779 40.8849 62.292 41.0662 62.1469C41.2566 62.0019 41.4697 61.9293 41.7054 61.9293C41.8595 61.9293 42.0001 61.9701 42.127 62.0517C42.263 62.1243 42.3673 62.2376 42.4398 62.3917L45.5678 69.3413L48.6958 62.3917Z" fill="#BE535A"/>
<g clip-path="url(#clip1)">
<path d="M46.4 25.599H24C23.5757 25.599 23.1687 25.7676 22.8686 26.0676C22.5686 26.3677 22.4 26.7747 22.4 27.199V31.999H30.4V28.799H40V44.799H46.4C46.8243 44.799 47.2313 44.6304 47.5314 44.3304C47.8314 44.0303 48 43.6233 48 43.199V27.199C48 26.7747 47.8314 26.3677 47.5314 26.0676C47.2313 25.7676 46.8243 25.599 46.4 25.599V25.599ZM27.6 30.749C27.6 30.8683 27.5526 30.9828 27.4682 31.0672C27.3838 31.1516 27.2693 31.199 27.15 31.199H25.65C25.5307 31.199 25.4162 31.1516 25.3318 31.0672C25.2474 30.9828 25.2 30.8683 25.2 30.749V29.249C25.2 29.1297 25.2474 29.0152 25.3318 28.9308C25.4162 28.8464 25.5307 28.799 25.65 28.799H27.15C27.2693 28.799 27.3838 28.8464 27.4682 28.9308C27.5526 29.0152 27.6 29.1297 27.6 29.249V30.749ZM45.2 41.149C45.2 41.2683 45.1526 41.3828 45.0682 41.4672C44.9838 41.5516 44.8693 41.599 44.75 41.599H43.25C43.1307 41.599 43.0162 41.5516 42.9318 41.4672C42.8474 41.3828 42.8 41.2683 42.8 41.149V39.649C42.8 39.5297 42.8474 39.4152 42.9318 39.3308C43.0162 39.2464 43.1307 39.199 43.25 39.199H44.75C44.8693 39.199 44.9838 39.2464 45.0682 39.3308C45.1526 39.4152 45.2 39.5297 45.2 39.649V41.149ZM45.2 35.949C45.2 36.0683 45.1526 36.1828 45.0682 36.2672C44.9838 36.3516 44.8693 36.399 44.75 36.399H43.25C43.1307 36.399 43.0162 36.3516 42.9318 36.2672C42.8474 36.1828 42.8 36.0683 42.8 35.949V34.449C42.8 34.3297 42.8474 34.2152 42.9318 34.1308C43.0162 34.0464 43.1307 33.999 43.25 33.999H44.75C44.8693 33.999 44.9838 34.0464 45.0682 34.1308C45.1526 34.2152 45.2 34.3297 45.2 34.449V35.949ZM45.2 30.749C45.2 30.8683 45.1526 30.9828 45.0682 31.0672C44.9838 31.1516 44.8693 31.199 44.75 31.199H43.25C43.1307 31.199 43.0162 31.1516 42.9318 31.0672C42.8474 30.9828 42.8 30.8683 42.8 30.749V29.249C42.8 29.1297 42.8474 29.0152 42.9318 28.9308C43.0162 28.8464 43.1307 28.799 43.25 28.799H44.75C44.8693 28.799 44.9838 28.8464 45.0682 28.9308C45.1526 29.0152 45.2 29.1297 45.2 29.249V30.749ZM36.8 33.599H17.6C17.1757 33.599 16.7687 33.7676 16.4686 34.0676C16.1686 34.3677 16 34.7747 16 35.199V49.599C16 50.0233 16.1686 50.4303 16.4686 50.7304C16.7687 51.0304 17.1757 51.199 17.6 51.199H36.8C37.2243 51.199 37.6313 51.0304 37.9314 50.7304C38.2314 50.4303 38.4 50.0233 38.4 49.599V35.199C38.4 34.7747 38.2314 34.3677 37.9314 34.0676C37.6313 33.7676 37.2243 33.599 36.8 33.599ZM20.8 36.799C21.1165 36.799 21.4258 36.8928 21.6889 37.0686C21.952 37.2445 22.1571 37.4943 22.2782 37.7867C22.3993 38.0791 22.431 38.4008 22.3693 38.7111C22.3075 39.0215 22.1551 39.3066 21.9314 39.5304C21.7076 39.7541 21.4225 39.9065 21.1121 39.9683C20.8018 40.03 20.4801 39.9983 20.1877 39.8772C19.8953 39.7561 19.6455 39.551 19.4696 39.2879C19.2938 39.0248 19.2 38.7154 19.2 38.399C19.2 37.9747 19.3686 37.5677 19.6686 37.2676C19.9687 36.9676 20.3757 36.799 20.8 36.799ZM35.2 47.999H19.2V46.399L22.4 43.199L24 44.799L30.4 38.399L35.2 43.199V47.999Z" fill="#363739"/>
</g>
</g>
<defs>
<linearGradient id="paint0_linear" x1="50.3855" y1="11.9504" x2="70.2928" y2="30.0155" gradientUnits="userSpaceOnUse">
<stop stop-color="#C7D3DA"/>
<stop offset="0.338542" stop-color="#C7D3DA" stop-opacity="0.739583"/>
<stop offset="0.640625" stop-color="#C7D3DA" stop-opacity="0.326115"/>
<stop offset="1" stop-color="#C7D3DA" stop-opacity="0"/>
</linearGradient>
<linearGradient id="paint1_linear" x1="46.0668" y1="9.34953" x2="59.8668" y2="30.7495" gradientUnits="userSpaceOnUse">
<stop stop-color="#5F6165"/>
<stop offset="0.489583" stop-color="#5F6165" stop-opacity="0.635417"/>
<stop offset="1" stop-color="#5F6165" stop-opacity="0"/>
</linearGradient>
<clipPath id="clip0">
<rect width="64" height="82.8" fill="white" transform="translate(0 -0.000976562)"/>
</clipPath>
<clipPath id="clip1">
<rect width="32" height="25.6" fill="white" transform="translate(16 25.599)"/>
</clipPath>
</defs>
</svg>
