<svg width="64" height="84" viewBox="0 0 64 84" fill="none" xmlns="http://www.w3.org/2000/svg">
<g clip-path="url(#clip0)">
<path d="M60.8 83.5998H3.2C1.43269 83.5998 0 82.1671 0 80.3998V3.99981C0 2.23249 1.43269 0.799805 3.2 0.799805H45.1629C45.9574 0.799805 46.7234 1.09538 47.312 1.62892C47.3132 1.62994 47.3143 1.63097 47.3154 1.632L62.9526 15.8476C62.9572 15.8518 62.9617 15.856 62.9663 15.8602C63.6249 16.4659 64 17.32 64 18.2154V80.3998C64 82.1671 62.5673 83.5998 60.8 83.5998Z" fill="#242526"/>
<path fill-rule="evenodd" clip-rule="evenodd" d="M46.2381 2.81494L46.2374 2.81436C45.9431 2.54759 45.5601 2.3998 45.1629 2.3998H3.2C2.31634 2.3998 1.6 3.11615 1.6 3.99981V80.3998C1.6 81.2835 2.31635 81.9998 3.2 81.9998H60.8C61.6837 81.9998 62.4 81.2835 62.4 80.3998V18.2154C62.4 17.7677 62.2124 17.3406 61.8832 17.0378L61.8765 17.0316L46.2391 2.8159L46.2381 2.81494ZM62.9526 15.8476L47.312 1.62892C46.7234 1.09538 45.9574 0.799805 45.1629 0.799805H3.2C1.43269 0.799805 0 2.23249 0 3.99981V80.3998C0 82.1671 1.43269 83.5998 3.2 83.5998H60.8C62.5673 83.5998 64 82.1671 64 80.3998V18.2154C64 17.32 63.6249 16.4659 62.9663 15.8602L62.9526 15.8476Z" fill="#2A9E67"/>
<g opacity="0.19">
<mask id="mask0" mask-type="alpha" maskUnits="userSpaceOnUse" x="46" y="8" width="28" height="27">
<rect x="46.7998" y="16.7025" width="10.6715" height="26.8821" transform="rotate(-47.7774 46.7998 16.7025)" fill="url(#paint0_linear)"/>
</mask>
<g mask="url(#mask0)">
<path d="M3.4668 84.3503H59.4668C61.6759 84.3503 63.4668 82.5594 63.4668 80.3503V18.435C63.4668 17.8715 63.2291 17.3341 62.8121 16.9551L46.4389 2.07035C46.0708 1.73568 45.5911 1.55023 45.0936 1.55023H3.4668C1.25766 1.55023 -0.533203 3.34109 -0.533203 5.55023V80.3503C-0.533203 82.5594 1.25766 84.3503 3.4668 84.3503Z" fill="url(#paint1_linear)" style="mix-blend-mode:multiply"/>
</g>
</g>
<path d="M47.6 17.1998H63.2L46 1.59979V15.5998C46 16.4834 46.7163 17.1998 47.6 17.1998Z" fill="#2A9E67"/>
<path d="M27.8768 71.1485C28.0219 71.3208 28.0944 71.4931 28.0944 71.6653C28.0944 71.8829 28.0083 72.0733 27.836 72.2365C27.6728 72.3997 27.4824 72.4813 27.2648 72.4813C27.0381 72.4813 26.8387 72.3816 26.6664 72.1821L23.9056 68.7549L21.1312 72.1821C20.968 72.3725 20.7731 72.4677 20.5464 72.4677C20.3288 72.4677 20.1339 72.3907 19.9616 72.2365C19.7984 72.0733 19.7168 71.8829 19.7168 71.6653C19.7168 71.484 19.7848 71.3117 19.9208 71.1485L22.8856 67.5309L20.0432 64.0629C19.9072 63.9179 19.8392 63.7456 19.8392 63.5461C19.8392 63.3285 19.9208 63.1427 20.084 62.9885C20.2472 62.8253 20.4376 62.7437 20.6552 62.7437C20.8819 62.7437 21.0813 62.8435 21.2536 63.0429L23.9056 66.3205L26.5576 63.0429C26.7208 62.8435 26.9157 62.7437 27.1424 62.7437C27.36 62.7437 27.5504 62.8253 27.7136 62.9885C27.8859 63.1427 27.972 63.3285 27.972 63.5461C27.972 63.7456 27.904 63.9179 27.768 64.0629L24.9256 67.5309L27.8768 71.1485Z" fill="#2A9E67"/>
<path d="M30.5568 72.3997C30.2939 72.3997 30.0899 72.3272 29.9448 72.1821C29.7998 72.0371 29.7272 71.8376 29.7272 71.5837V63.6141C29.7272 63.3512 29.8043 63.1427 29.9584 62.9885C30.1216 62.8253 30.3347 62.7437 30.5976 62.7437C30.8696 62.7437 31.0827 62.8253 31.2368 62.9885C31.4 63.1427 31.4816 63.3512 31.4816 63.6141V70.9581H35.3032C35.8472 70.9581 36.1192 71.1984 36.1192 71.6789C36.1192 72.1595 35.8472 72.3997 35.3032 72.3997H30.5568Z" fill="#2A9E67"/>
<path d="M40.6887 72.5221C39.9906 72.5221 39.3287 72.4315 38.7031 72.2501C38.0866 72.0597 37.5834 71.8059 37.1935 71.4885C36.985 71.3344 36.8807 71.1168 36.8807 70.8357C36.8807 70.6453 36.9351 70.4821 37.0439 70.3461C37.1618 70.2011 37.2978 70.1285 37.4519 70.1285C37.6151 70.1285 37.801 70.192 38.0095 70.3189C38.3994 70.6 38.8074 70.804 39.2335 70.9309C39.6597 71.0579 40.1311 71.1213 40.6479 71.1213C41.3098 71.1213 41.8175 71.008 42.1711 70.7813C42.5247 70.5456 42.7015 70.2056 42.7015 69.7613C42.7015 69.4168 42.5338 69.1539 42.1983 68.9725C41.8719 68.7821 41.3234 68.6008 40.5527 68.4285C39.7549 68.2563 39.1066 68.0568 38.6079 67.8301C38.1093 67.6035 37.733 67.3133 37.4791 66.9597C37.2253 66.6061 37.0983 66.1573 37.0983 65.6133C37.0983 65.0512 37.257 64.548 37.5743 64.1037C37.8917 63.6595 38.3314 63.3149 38.8935 63.0701C39.4647 62.8163 40.1039 62.6893 40.8111 62.6893C42.1077 62.6893 43.1639 63.0339 43.9799 63.7229C44.0978 63.8227 44.1794 63.9224 44.2247 64.0221C44.2791 64.1128 44.3063 64.2307 44.3063 64.3757C44.3063 64.5661 44.2474 64.7339 44.1295 64.8789C44.0207 65.0149 43.8893 65.0829 43.7351 65.0829C43.6445 65.0829 43.5583 65.0693 43.4767 65.0421C43.4042 65.0149 43.3045 64.9651 43.1775 64.8925C42.8058 64.6205 42.4431 64.4211 42.0895 64.2941C41.745 64.1581 41.3189 64.0901 40.8111 64.0901C40.1946 64.0901 39.705 64.2171 39.3423 64.4709C38.9887 64.7157 38.8119 65.0603 38.8119 65.5045C38.8119 65.8763 38.9706 66.1619 39.2879 66.3613C39.6053 66.5608 40.1447 66.7467 40.9063 66.9189C41.7133 67.1003 42.3661 67.3043 42.8647 67.5309C43.3725 67.7485 43.7578 68.0296 44.0207 68.3741C44.2927 68.7187 44.4287 69.1493 44.4287 69.6661C44.4287 70.2283 44.2701 70.7269 43.9527 71.1621C43.6445 71.5883 43.2047 71.9237 42.6335 72.1685C42.0714 72.4043 41.4231 72.5221 40.6887 72.5221Z" fill="#2A9E67"/>
<rect opacity="0.3" x="28" y="29.5998" width="16.8" height="3.2" rx="1.6" fill="#5F6165"/>
<rect opacity="0.3" x="28" y="37.5998" width="16.8" height="3.2" rx="1.6" fill="#5F6165"/>
<rect opacity="0.3" x="28" y="45.5998" width="16.8" height="3.2" rx="1.6" fill="#5F6165"/>
<rect opacity="0.3" x="19.2002" y="29.5998" width="6.4" height="3.2" rx="1.6" fill="#5F6165"/>
<rect opacity="0.3" x="19.2002" y="37.5998" width="6.4" height="3.2" rx="1.6" fill="#5F6165"/>
<rect opacity="0.3" x="19.2002" y="45.5998" width="6.4" height="3.2" rx="1.6" fill="#5F6165"/>
</g>
<defs>
<linearGradient id="paint0_linear" x1="52.1356" y1="16.7025" x2="52.1356" y2="43.5846" gradientUnits="userSpaceOnUse">
<stop stop-color="#C7D3DA"/>
<stop offset="0.338542" stop-color="#C7D3DA" stop-opacity="0.739583"/>
<stop offset="0.640625" stop-color="#C7D3DA" stop-opacity="0.326115"/>
<stop offset="1" stop-color="#C7D3DA" stop-opacity="0"/>
</linearGradient>
<linearGradient id="paint1_linear" x1="46.0668" y1="10.1502" x2="59.8668" y2="31.5502" gradientUnits="userSpaceOnUse">
<stop stop-color="#5F6165"/>
<stop offset="0.489583" stop-color="#5F6165" stop-opacity="0.635417"/>
<stop offset="1" stop-color="#5F6165" stop-opacity="0"/>
</linearGradient>
<clipPath id="clip0">
<rect width="64" height="82.8" fill="white" transform="translate(0 0.799805)"/>
</clipPath>
</defs>
</svg>
