<svg width="64" height="84" viewBox="0 0 64 84" fill="none" xmlns="http://www.w3.org/2000/svg">
<g clip-path="url(#clip0)">
<path d="M60.8 83.5998H3.2C1.43269 83.5998 0 82.1671 0 80.3998V3.99981C0 2.23249 1.43269 0.799805 3.2 0.799805H45.1629C45.9574 0.799805 46.7234 1.09538 47.312 1.62892C47.3132 1.62994 47.3143 1.63097 47.3154 1.632L62.9526 15.8476C62.9572 15.8518 62.9617 15.856 62.9663 15.8602C63.6249 16.4659 64 17.32 64 18.2154V80.3998C64 82.1671 62.5673 83.5998 60.8 83.5998Z" fill="#242526"/>
<path fill-rule="evenodd" clip-rule="evenodd" d="M46.2381 2.81494L46.2374 2.81436C45.9431 2.54759 45.5601 2.3998 45.1629 2.3998H3.2C2.31634 2.3998 1.6 3.11615 1.6 3.99981V80.3998C1.6 81.2835 2.31635 81.9998 3.2 81.9998H60.8C61.6837 81.9998 62.4 81.2835 62.4 80.3998V18.2154C62.4 17.7677 62.2124 17.3406 61.8832 17.0378L61.8765 17.0316L46.2391 2.8159L46.2381 2.81494ZM62.9526 15.8476L47.312 1.62892C46.7234 1.09538 45.9574 0.799805 45.1629 0.799805H3.2C1.43269 0.799805 0 2.23249 0 3.99981V80.3998C0 82.1671 1.43269 83.5998 3.2 83.5998H60.8C62.5673 83.5998 64 82.1671 64 80.3998V18.2154C64 17.32 63.6249 16.4659 62.9663 15.8602L62.9526 15.8476Z" fill="#2A9E67"/>
<g opacity="0.19">
<mask id="mask0" mask-type="alpha" maskUnits="userSpaceOnUse" x="46" y="8" width="28" height="27">
<rect x="46.7998" y="16.7025" width="10.6715" height="26.8821" transform="rotate(-47.7774 46.7998 16.7025)" fill="url(#paint0_linear)"/>
</mask>
<g mask="url(#mask0)">
<path d="M3.4668 84.3503H59.4668C61.6759 84.3503 63.4668 82.5594 63.4668 80.3503V18.435C63.4668 17.8715 63.2291 17.3341 62.8121 16.9551L46.4389 2.07035C46.0708 1.73568 45.5911 1.55023 45.0936 1.55023H3.4668C1.25766 1.55023 -0.533203 3.34109 -0.533203 5.55023V80.3503C-0.533203 82.5594 1.25766 84.3503 3.4668 84.3503Z" fill="url(#paint1_linear)" style="mix-blend-mode:multiply"/>
</g>
</g>
<path d="M47.6 17.1998H63.2L46 1.59979V15.5998C46 16.4834 46.7163 17.1998 47.6 17.1998Z" fill="#2A9E67"/>
<path d="M23.2918 70.7485C23.4369 70.9208 23.5094 71.093 23.5094 71.2653C23.5094 71.4829 23.4233 71.6733 23.251 71.8365C23.0878 71.9997 22.8974 72.0813 22.6798 72.0813C22.4532 72.0813 22.2537 71.9816 22.0814 71.7821L19.3206 68.3549L16.5462 71.7821C16.383 71.9725 16.1881 72.0677 15.9614 72.0677C15.7438 72.0677 15.5489 71.9906 15.3766 71.8365C15.2134 71.6733 15.1318 71.4829 15.1318 71.2653C15.1318 71.084 15.1998 70.9117 15.3358 70.7485L18.3006 67.1309L15.4582 63.6629C15.3222 63.5178 15.2542 63.3456 15.2542 63.1461C15.2542 62.9285 15.3358 62.7426 15.499 62.5885C15.6622 62.4253 15.8526 62.3437 16.0702 62.3437C16.2969 62.3437 16.4964 62.4434 16.6686 62.6429L19.3206 65.9205L21.9726 62.6429C22.1358 62.4434 22.3308 62.3437 22.5574 62.3437C22.775 62.3437 22.9654 62.4253 23.1286 62.5885C23.3009 62.7426 23.387 62.9285 23.387 63.1461C23.387 63.3456 23.319 63.5178 23.183 63.6629L20.3406 67.1309L23.2918 70.7485Z" fill="#2A9E67"/>
<path d="M25.9719 71.9997C25.709 71.9997 25.505 71.9272 25.3599 71.7821C25.2148 71.637 25.1423 71.4376 25.1423 71.1837V63.2141C25.1423 62.9512 25.2194 62.7426 25.3735 62.5885C25.5367 62.4253 25.7498 62.3437 26.0127 62.3437C26.2847 62.3437 26.4978 62.4253 26.6519 62.5885C26.8151 62.7426 26.8967 62.9512 26.8967 63.2141V70.5581H30.7183C31.2623 70.5581 31.5343 70.7984 31.5343 71.2789C31.5343 71.7594 31.2623 71.9997 30.7183 71.9997H25.9719Z" fill="#2A9E67"/>
<path d="M36.1038 72.1221C35.4056 72.1221 34.7438 72.0314 34.1182 71.8501C33.5016 71.6597 32.9984 71.4058 32.6086 71.0885C32.4 70.9344 32.2958 70.7168 32.2958 70.4357C32.2958 70.2453 32.3502 70.0821 32.459 69.9461C32.5768 69.801 32.7128 69.7285 32.867 69.7285C33.0302 69.7285 33.216 69.792 33.4246 69.9189C33.8144 70.2 34.2224 70.404 34.6486 70.5309C35.0747 70.6578 35.5462 70.7213 36.063 70.7213C36.7248 70.7213 37.2326 70.608 37.5862 70.3813C37.9398 70.1456 38.1166 69.8056 38.1166 69.3613C38.1166 69.0168 37.9488 68.7538 37.6134 68.5725C37.287 68.3821 36.7384 68.2008 35.9678 68.0285C35.1699 67.8562 34.5216 67.6568 34.023 67.4301C33.5243 67.2034 33.148 66.9133 32.8942 66.5597C32.6403 66.2061 32.5134 65.7573 32.5134 65.2133C32.5134 64.6512 32.672 64.148 32.9894 63.7037C33.3067 63.2594 33.7464 62.9149 34.3086 62.6701C34.8798 62.4162 35.519 62.2893 36.2262 62.2893C37.5227 62.2893 38.579 62.6338 39.395 63.3229C39.5128 63.4226 39.5944 63.5224 39.6398 63.6221C39.6942 63.7128 39.7214 63.8306 39.7214 63.9757C39.7214 64.1661 39.6624 64.3338 39.5446 64.4789C39.4358 64.6149 39.3043 64.6829 39.1502 64.6829C39.0595 64.6829 38.9734 64.6693 38.8918 64.6421C38.8192 64.6149 38.7195 64.565 38.5926 64.4925C38.2208 64.2205 37.8582 64.021 37.5046 63.8941C37.16 63.7581 36.7339 63.6901 36.2262 63.6901C35.6096 63.6901 35.12 63.817 34.7574 64.0709C34.4038 64.3157 34.227 64.6602 34.227 65.1045C34.227 65.4762 34.3856 65.7618 34.703 65.9613C35.0203 66.1608 35.5598 66.3466 36.3214 66.5189C37.1283 66.7002 37.7811 66.9042 38.2798 67.1309C38.7875 67.3485 39.1728 67.6296 39.4358 67.9741C39.7078 68.3186 39.8438 68.7493 39.8438 69.2661C39.8438 69.8282 39.6851 70.3269 39.3678 70.7621C39.0595 71.1882 38.6198 71.5237 38.0486 71.7685C37.4864 72.0042 36.8382 72.1221 36.1038 72.1221Z" fill="#2A9E67"/>
<path d="M49.05 70.7485C49.1951 70.9208 49.2676 71.093 49.2676 71.2653C49.2676 71.4829 49.1815 71.6733 49.0092 71.8365C48.846 71.9997 48.6556 72.0813 48.438 72.0813C48.2114 72.0813 48.0119 71.9816 47.8396 71.7821L45.0788 68.3549L42.3044 71.7821C42.1412 71.9725 41.9463 72.0677 41.7196 72.0677C41.502 72.0677 41.3071 71.9906 41.1348 71.8365C40.9716 71.6733 40.89 71.4829 40.89 71.2653C40.89 71.084 40.958 70.9117 41.094 70.7485L44.0588 67.1309L41.2164 63.6629C41.0804 63.5178 41.0124 63.3456 41.0124 63.1461C41.0124 62.9285 41.094 62.7426 41.2572 62.5885C41.4204 62.4253 41.6108 62.3437 41.8284 62.3437C42.0551 62.3437 42.2546 62.4434 42.4268 62.6429L45.0788 65.9205L47.7308 62.6429C47.894 62.4434 48.089 62.3437 48.3156 62.3437C48.5332 62.3437 48.7236 62.4253 48.8868 62.5885C49.0591 62.7426 49.1452 62.9285 49.1452 63.1461C49.1452 63.3456 49.0772 63.5178 48.9412 63.6629L46.0988 67.1309L49.05 70.7485Z" fill="#2A9E67"/>
<rect opacity="0.3" x="28" y="29.5998" width="16.8" height="3.2" rx="1.6" fill="#5F6165"/>
<rect opacity="0.3" x="28" y="37.5998" width="16.8" height="3.2" rx="1.6" fill="#5F6165"/>
<rect opacity="0.3" x="28" y="45.5998" width="16.8" height="3.2" rx="1.6" fill="#5F6165"/>
<rect opacity="0.3" x="19.2002" y="29.5998" width="6.4" height="3.2" rx="1.6" fill="#5F6165"/>
<rect opacity="0.3" x="19.2002" y="37.5998" width="6.4" height="3.2" rx="1.6" fill="#5F6165"/>
<rect opacity="0.3" x="19.2002" y="45.5998" width="6.4" height="3.2" rx="1.6" fill="#5F6165"/>
</g>
<defs>
<linearGradient id="paint0_linear" x1="52.1356" y1="16.7025" x2="52.1356" y2="43.5846" gradientUnits="userSpaceOnUse">
<stop stop-color="#C7D3DA"/>
<stop offset="0.338542" stop-color="#C7D3DA" stop-opacity="0.739583"/>
<stop offset="0.640625" stop-color="#C7D3DA" stop-opacity="0.326115"/>
<stop offset="1" stop-color="#C7D3DA" stop-opacity="0"/>
</linearGradient>
<linearGradient id="paint1_linear" x1="46.0668" y1="10.1502" x2="59.8668" y2="31.5502" gradientUnits="userSpaceOnUse">
<stop stop-color="#5F6165"/>
<stop offset="0.489583" stop-color="#5F6165" stop-opacity="0.635417"/>
<stop offset="1" stop-color="#5F6165" stop-opacity="0"/>
</linearGradient>
<clipPath id="clip0">
<rect width="64" height="82.8" fill="white" transform="translate(0 0.799805)"/>
</clipPath>
</defs>
</svg>
