<svg width="64" height="84" viewBox="0 0 64 84" fill="none" xmlns="http://www.w3.org/2000/svg">
<g clip-path="url(#clip0)">
<path d="M60.8 83.3986H3.2C1.43269 83.3986 0 81.9659 0 80.1986V3.79863C0 2.03132 1.43269 0.598633 3.2 0.598633H45.1629C45.9574 0.598633 46.7234 0.894205 47.312 1.42775C47.3132 1.42877 47.3143 1.4298 47.3154 1.43082L62.9526 15.6464C62.9572 15.6506 62.9617 15.6548 62.9663 15.659C63.6249 16.2647 64 17.1189 64 18.0142V80.1986C64 81.9659 62.5673 83.3986 60.8 83.3986Z" fill="#242526"/>
<path fill-rule="evenodd" clip-rule="evenodd" d="M46.2381 2.61377L46.2374 2.61319C45.9431 2.34642 45.5601 2.19863 45.1629 2.19863H3.2C2.31634 2.19863 1.6 2.91498 1.6 3.79863V80.1986C1.6 81.0823 2.31635 81.7986 3.2 81.7986H60.8C61.6837 81.7986 62.4 81.0823 62.4 80.1986V18.0142C62.4 17.5665 62.2124 17.1395 61.8832 16.8366L61.8765 16.8305L46.2391 2.61473L46.2381 2.61377ZM62.9526 15.6464L47.312 1.42775C46.7234 0.894205 45.9574 0.598633 45.1629 0.598633H3.2C1.43269 0.598633 0 2.03132 0 3.79863V80.1986C0 81.9659 1.43269 83.3986 3.2 83.3986H60.8C62.5673 83.3986 64 81.9659 64 80.1986V18.0142C64 17.1189 63.6249 16.2647 62.9663 15.659L62.9526 15.6464Z" fill="#B0ADAD"/>
<g opacity="0.19">
<mask id="mask0" mask-type="alpha" maskUnits="userSpaceOnUse" x="46" y="8" width="28" height="27">
<rect x="46.7998" y="16.5013" width="10.6715" height="26.8821" transform="rotate(-47.7774 46.7998 16.5013)" fill="url(#paint0_linear)"/>
</mask>
<g mask="url(#mask0)">
<path d="M3.4668 84.1491H59.4668C61.6759 84.1491 63.4668 82.3583 63.4668 80.1491V18.2339C63.4668 17.6704 63.2291 17.133 62.8121 16.754L46.4389 1.86924C46.0708 1.53456 45.5911 1.34912 45.0936 1.34912H3.4668C1.25766 1.34912 -0.533203 3.13998 -0.533203 5.34912V80.1491C-0.533203 82.3583 1.25766 84.1491 3.4668 84.1491Z" fill="url(#paint1_linear)" style="mix-blend-mode:multiply"/>
</g>
</g>
<path d="M47.6 16.9987H63.2L46 1.39868V15.3987C46 16.2823 46.7163 16.9987 47.6 16.9987Z" fill="#B0ADAD"/>
<path d="M28.2944 70.7979C28.8384 70.7979 29.1104 71.0291 29.1104 71.4915C29.1104 71.963 28.8384 72.1987 28.2944 72.1987H22.5008C22.2651 72.1987 22.0747 72.1307 21.9296 71.9947C21.7936 71.8497 21.7256 71.6683 21.7256 71.4507C21.7256 71.2331 21.7981 71.0246 21.9432 70.8251L26.812 64.0115H22.5552C22.0112 64.0115 21.7392 63.7803 21.7392 63.3179C21.7392 62.8465 22.0112 62.6107 22.5552 62.6107H28.172C28.4077 62.6107 28.5936 62.6833 28.7296 62.8283C28.8746 62.9643 28.9472 63.1366 28.9472 63.3451C28.9472 63.5537 28.8701 63.7622 28.716 63.9707L23.8472 70.7979H28.2944Z" fill="#B0ADAD"/>
<path d="M31.5932 72.2803C31.3303 72.2803 31.1172 72.1987 30.954 72.0355C30.7999 71.8723 30.7228 71.6593 30.7228 71.3963V63.4131C30.7228 63.1502 30.7999 62.9417 30.954 62.7875C31.1172 62.6243 31.3303 62.5427 31.5932 62.5427C31.8652 62.5427 32.0783 62.6243 32.2324 62.7875C32.3956 62.9417 32.4772 63.1502 32.4772 63.4131V71.3963C32.4772 71.6593 32.3956 71.8723 32.2324 72.0355C32.0783 72.1987 31.8652 72.2803 31.5932 72.2803Z" fill="#B0ADAD"/>
<path d="M35.6902 72.2803C35.4273 72.2803 35.2142 72.2033 35.051 72.0491C34.8969 71.8859 34.8198 71.6683 34.8198 71.3963V63.4403C34.8198 63.1774 34.8924 62.9734 35.0374 62.8283C35.1916 62.6833 35.4001 62.6107 35.663 62.6107H39.0086C40.0332 62.6107 40.831 62.8691 41.4022 63.3859C41.9734 63.8937 42.259 64.6099 42.259 65.5347C42.259 66.4595 41.9734 67.1803 41.4022 67.6971C40.831 68.2139 40.0332 68.4723 39.0086 68.4723H36.5742V71.3963C36.5742 71.6683 36.4926 71.8859 36.3294 72.0491C36.1753 72.2033 35.9622 72.2803 35.6902 72.2803ZM38.791 67.1259C39.9969 67.1259 40.5998 66.6001 40.5998 65.5483C40.5998 64.4966 39.9969 63.9707 38.791 63.9707H36.5742V67.1259H38.791Z" fill="#B0ADAD"/>
<path d="M30.7427 37.4626H34.1427V38.9986H30.7427V37.4626Z" fill="#B0ADAD"/>
<path d="M30.7427 31.3187H34.1427V32.8547H30.7427V31.3187Z" fill="#B0ADAD"/>
<path d="M30.7427 26.1986H34.1427V27.7346H30.7427V26.1986Z" fill="#B0ADAD"/>
<path fill-rule="evenodd" clip-rule="evenodd" d="M30.4998 42.0707H33.8998C33.8998 43.4095 34.415 44.7484 34.8782 45.952C35.2563 46.9347 35.5998 47.8272 35.5998 48.556C35.5998 50.3484 34.0791 51.7987 32.1998 51.7987C30.3205 51.7987 28.7998 50.3484 28.7998 48.556C28.7998 47.8272 29.1433 46.9347 29.5214 45.952C29.9846 44.7484 30.4998 43.4095 30.4998 42.0707ZM30.4998 48.5561C30.4998 49.4522 31.2601 50.1774 32.1998 50.1774C33.1394 50.1774 33.8998 49.4522 33.8998 48.5561C33.8998 47.6599 33.1394 46.9347 32.1998 46.9347C31.2601 46.9347 30.4998 47.6599 30.4998 48.5561Z" fill="#B0ADAD"/>
</g>
<defs>
<linearGradient id="paint0_linear" x1="52.1356" y1="16.5013" x2="52.1356" y2="43.3834" gradientUnits="userSpaceOnUse">
<stop stop-color="#C7D3DA"/>
<stop offset="0.338542" stop-color="#C7D3DA" stop-opacity="0.739583"/>
<stop offset="0.640625" stop-color="#C7D3DA" stop-opacity="0.326115"/>
<stop offset="1" stop-color="#C7D3DA" stop-opacity="0"/>
</linearGradient>
<linearGradient id="paint1_linear" x1="46.0668" y1="9.94914" x2="59.8668" y2="31.3491" gradientUnits="userSpaceOnUse">
<stop stop-color="#5F6165"/>
<stop offset="0.489583" stop-color="#5F6165" stop-opacity="0.635417"/>
<stop offset="1" stop-color="#5F6165" stop-opacity="0"/>
</linearGradient>
<clipPath id="clip0">
<rect width="64" height="82.8" fill="white" transform="translate(0 0.598633)"/>
</clipPath>
</defs>
</svg>
