<?xml version="1.0" standalone="no"?>
<!DOCTYPE svg PUBLIC "-//W3C//DTD SVG 20010904//EN"
 "http://www.w3.org/TR/2001/REC-SVG-20010904/DTD/svg10.dtd">
<svg version="1.0" xmlns="http://www.w3.org/2000/svg"
 width="1115.000000pt" height="1115.000000pt" viewBox="0 0 1115.000000 1115.000000"
 preserveAspectRatio="xMidYMid meet">
<metadata>
Created by potrace 1.11, written by Peter Selinger 2001-2013
</metadata>
<g transform="translate(0.000000,1115.000000) scale(0.100000,-0.100000)"
fill="#000000" stroke="none">
<path d="M5335 11134 c-547 -74 -1006 -362 -1310 -819 -78 -119 -180 -323
-200 -405 -1 -3 -6 -16 -12 -31 -12 -28 -59 -216 -67 -269 -16 -102 -20 -169
-21 -305 0 -212 16 -332 66 -510 180 -632 688 -1127 1319 -1285 190 -47 252
-55 460 -54 179 0 271 9 400 39 14 3 36 7 50 10 14 2 66 18 115 34 487 158
883 505 1105 966 70 147 135 352 155 490 3 23 8 52 11 65 3 14 7 102 9 195 4
201 -6 306 -46 475 -45 184 -115 357 -212 520 -28 47 -55 90 -59 95 -4 6 -35
46 -70 90 -285 369 -696 613 -1164 691 -124 21 -407 25 -529 8z"/>
<path d="M1838 7436 c-1 -2 -50 -6 -108 -10 -58 -3 -114 -8 -125 -10 -11 -2
-40 -7 -65 -11 -65 -11 -67 -11 -160 -35 -513 -131 -960 -498 -1189 -976 -68
-141 -65 -134 -101 -244 -31 -95 -65 -246 -78 -350 -9 -72 -9 -336 0 -427 23
-229 112 -499 238 -718 204 -358 564 -663 950 -805 212 -78 389 -111 620 -115
130 -2 194 2 325 20 154 22 371 93 537 176 102 51 287 171 354 230 87 76 223
219 280 294 61 81 124 173 124 180 0 2 14 28 31 57 68 114 143 311 179 463 36
158 44 231 44 425 1 205 -7 270 -51 450 -14 58 -41 148 -61 200 -36 96 -132
292 -158 321 -8 8 -14 19 -14 22 0 4 -17 31 -37 59 -188 266 -425 469 -708
608 -230 113 -451 172 -700 186 -55 3 -105 7 -112 9 -6 2 -13 2 -15 1z"/>
<path d="M9128 7425 c-1 -1 -34 -6 -73 -10 -38 -4 -73 -9 -76 -11 -4 -2 -24
-6 -45 -9 -22 -4 -47 -8 -56 -11 -9 -3 -25 -7 -35 -9 -115 -23 -373 -132 -503
-212 -172 -107 -381 -290 -485 -427 -17 -22 -39 -51 -51 -65 -44 -57 -126
-194 -173 -292 -82 -173 -135 -349 -165 -554 -13 -87 -15 -410 -3 -465 3 -14
8 -47 12 -75 18 -147 101 -398 182 -552 151 -288 353 -512 618 -688 187 -124
384 -212 588 -260 171 -40 262 -50 447 -49 186 1 263 10 430 50 665 162 1185
681 1354 1349 14 55 28 123 32 150 3 28 8 59 11 70 9 39 11 361 2 435 -103
842 -736 1494 -1577 1623 -79 12 -423 22 -434 12z"/>
<path d="M5335 3684 c-247 -35 -461 -106 -670 -221 -61 -34 -125 -73 -145 -90
-8 -6 -43 -33 -77 -58 -138 -102 -290 -263 -406 -431 -32 -45 -57 -84 -57 -88
0 -3 -14 -28 -30 -55 -71 -115 -156 -344 -190 -514 -31 -156 -38 -247 -34
-427 4 -202 32 -366 89 -535 76 -223 187 -421 340 -605 161 -193 368 -355 603
-470 192 -94 385 -152 592 -177 126 -15 434 -8 523 12 12 3 33 7 47 9 49 8
156 35 215 54 659 215 1136 766 1261 1457 22 123 26 430 8 555 -89 598 -435
1094 -964 1383 -141 77 -372 159 -510 182 -19 3 -48 8 -65 11 -16 3 -43 7 -60
10 -72 12 -385 11 -470 -2z"/>
</g>
</svg>
