<svg width="48" height="48" viewBox="0 0 48 48" fill="none" xmlns="http://www.w3.org/2000/svg">
<mask id="path-1-outside-1_563:2854" maskUnits="userSpaceOnUse" x="14.8" y="13.916" width="18" height="20" fill="black">
<rect fill="white" x="14.8" y="13.916" width="18" height="20"/>
<path fill-rule="evenodd" clip-rule="evenodd" d="M19.5739 15.916C19.1321 15.916 18.7739 16.2742 18.7739 16.716C18.7739 16.7544 18.7766 16.7921 18.7818 16.829C18.3259 16.8842 17.9174 17.0171 17.5831 17.2416C17.0297 17.6133 16.7388 18.2052 16.8108 18.8609C16.8772 19.4664 17.2378 20.0141 17.7255 20.4512C18.2227 20.8969 18.9055 21.2795 19.7488 21.5584L19.7658 21.5071C20.1677 22.7136 21.1141 23.6525 22.2973 24.0572L22.6817 27.8618H21.0969C20.5125 27.8618 20.021 28.2597 19.8785 28.7993H19.2C18.3164 28.7993 17.6 29.5157 17.6 30.3993C17.6 31.283 18.3164 31.9993 19.2 31.9993H28C28.8837 31.9993 29.6 31.283 29.6 30.3993C29.6 29.5157 28.8837 28.7993 28 28.7993H27.4952C27.3526 28.2597 26.8611 27.8618 26.2767 27.8618H24.5245L24.9086 24.0604C26.0901 23.6596 27.0351 22.7268 27.4418 21.5299L27.4512 21.5584C28.2945 21.2795 28.9774 20.8969 29.4746 20.4512C29.9623 20.0141 30.3229 19.4664 30.3893 18.8609C30.4612 18.2052 30.1704 17.6133 29.617 17.2416C29.3675 17.0741 29.0768 16.9576 28.7558 16.8863C28.7677 16.8314 28.774 16.7744 28.774 16.716C28.774 16.2742 28.4158 15.916 27.974 15.916H19.5739ZM27.9072 18.3988L27.7496 19.7041C28.0249 19.5594 28.2423 19.407 28.4066 19.2598C28.7158 18.9827 28.7897 18.77 28.7988 18.6864L28.7994 18.6817C28.803 18.6505 28.806 18.6244 28.7249 18.5698C28.6151 18.4961 28.3645 18.4 27.9072 18.3988ZM18.4752 18.5698C18.5818 18.4983 18.8209 18.4056 19.2529 18.3992L19.4402 19.6987C19.1697 19.5556 18.9557 19.4052 18.7934 19.2598C18.4843 18.9827 18.4104 18.77 18.4012 18.6864L18.4007 18.6817C18.3971 18.6505 18.394 18.6244 18.4752 18.5698Z"/>
</mask>
<path d="M18.7818 16.829L18.9743 18.4174L20.5945 18.2211L20.3661 16.6051L18.7818 16.829ZM17.5831 17.2416L16.691 15.9134L16.691 15.9134L17.5831 17.2416ZM16.8108 18.8609L18.4012 18.6864L16.8108 18.8609ZM17.7255 20.4512L18.7934 19.2598L18.7934 19.2598L17.7255 20.4512ZM19.7488 21.5584L19.2464 23.0774L20.7655 23.5798L21.2679 22.0608L19.7488 21.5584ZM19.7658 21.5071L21.2838 21.0015L19.7604 16.428L18.2467 21.0047L19.7658 21.5071ZM22.2973 24.0572L23.8892 23.8963L23.786 22.8753L22.815 22.5433L22.2973 24.0572ZM22.6817 27.8618V29.4618H24.4515L24.2736 27.701L22.6817 27.8618ZM19.8785 28.7993V30.3993H21.1107L21.4254 29.2079L19.8785 28.7993ZM27.4952 28.7993L25.9482 29.2079L26.2629 30.3993H27.4952V28.7993ZM24.5245 27.8618L22.9326 27.701L22.7547 29.4618H24.5245V27.8618ZM24.9086 24.0604L24.3945 22.5452L23.4201 22.8758L23.3167 23.8996L24.9086 24.0604ZM27.4418 21.5299L28.9609 21.0275L27.4622 16.4961L25.9269 21.0152L27.4418 21.5299ZM27.4512 21.5584L25.9322 22.0608L26.4346 23.5798L27.9536 23.0774L27.4512 21.5584ZM29.4746 20.4512L30.5425 21.6427L30.5425 21.6427L29.4746 20.4512ZM30.3893 18.8609L31.9798 19.0354V19.0354L30.3893 18.8609ZM29.617 17.2416L28.7249 18.5698L29.617 17.2416ZM28.7558 16.8863L27.1921 16.5473L26.8549 18.103L28.4088 18.4482L28.7558 16.8863ZM27.7496 19.7041L26.1611 19.5123L25.7957 22.5391L28.4942 21.1203L27.7496 19.7041ZM27.9072 18.3988L27.9112 16.7988L26.4892 16.7952L26.3187 18.207L27.9072 18.3988ZM28.4066 19.2598L29.4746 20.4512L29.4746 20.4512L28.4066 19.2598ZM28.7988 18.6864L27.2091 18.5051L27.2084 18.5119L28.7988 18.6864ZM28.7994 18.6817L27.2101 18.4966L27.2097 18.5004L28.7994 18.6817ZM28.7249 18.5698L27.8327 19.898H27.8327L28.7249 18.5698ZM19.2529 18.3992L20.8365 18.1709L20.6358 16.7783L19.229 16.7993L19.2529 18.3992ZM18.4752 18.5698L19.3673 19.898L18.4752 18.5698ZM19.4402 19.6987L18.6917 21.1129L21.4726 22.5846L21.0238 19.4705L19.4402 19.6987ZM18.7934 19.2598L19.8614 18.0683L19.8614 18.0683L18.7934 19.2598ZM18.4012 18.6864L19.9917 18.5119L19.9909 18.5048L18.4012 18.6864ZM18.4007 18.6817L19.9904 18.5002L19.99 18.4966L18.4007 18.6817ZM20.3739 16.716C20.3739 17.1578 20.0157 17.516 19.5739 17.516V14.316C18.2484 14.316 17.1739 15.3905 17.1739 16.716H20.3739ZM20.3661 16.6051C20.3713 16.6421 20.3739 16.6792 20.3739 16.716H17.1739C17.1739 16.8295 17.1819 16.942 17.1976 17.0529L20.3661 16.6051ZM18.4752 18.5698C18.5507 18.5191 18.7023 18.4503 18.9743 18.4174L18.5894 15.2406C17.9495 15.3181 17.284 15.5151 16.691 15.9134L18.4752 18.5698ZM18.4012 18.6864C18.3989 18.6653 18.4004 18.6534 18.4012 18.6487C18.402 18.6439 18.403 18.641 18.4044 18.6381C18.4058 18.6352 18.4192 18.6074 18.4752 18.5698L16.691 15.9134C15.6709 16.5986 15.0799 17.7556 15.2203 19.0354L18.4012 18.6864ZM18.7934 19.2598C18.4829 18.9814 18.4103 18.7686 18.4012 18.6864L15.2203 19.0354C15.3442 20.1642 15.9927 21.0467 16.6576 21.6427L18.7934 19.2598ZM20.2512 20.0393C19.5694 19.8138 19.093 19.5283 18.7934 19.2598L16.6576 21.6427C17.3523 22.2654 18.2417 22.7452 19.2464 23.0774L20.2512 20.0393ZM18.2467 21.0047L18.2298 21.056L21.2679 22.0608L21.2849 22.0095L18.2467 21.0047ZM22.815 22.5433C22.0989 22.2983 21.5261 21.7288 21.2838 21.0015L18.2478 22.0128C18.8093 23.6985 20.1293 25.0067 21.7795 25.5711L22.815 22.5433ZM24.2736 27.701L23.8892 23.8963L20.7054 24.218L21.0898 28.0227L24.2736 27.701ZM21.0969 29.4618H22.6817V26.2618H21.0969V29.4618ZM21.4254 29.2079C21.3871 29.353 21.2568 29.4618 21.0969 29.4618V26.2618C19.7682 26.2618 18.6549 27.1664 18.3315 28.3908L21.4254 29.2079ZM19.2 30.3993H19.8785V27.1993H19.2V30.3993ZM19.2 30.3993H19.2V27.1993C17.4327 27.1993 16 28.632 16 30.3993H19.2ZM19.2 30.3993H19.2H16C16 32.1667 17.4327 33.5993 19.2 33.5993V30.3993ZM28 30.3993H19.2V33.5993H28V30.3993ZM28 30.3993V33.5993C29.7674 33.5993 31.2 32.1667 31.2 30.3993H28ZM28 30.3993H31.2C31.2 28.632 29.7674 27.1993 28 27.1993V30.3993ZM27.4952 30.3993H28V27.1993H27.4952V30.3993ZM26.2767 29.4618C26.1168 29.4618 25.9865 29.353 25.9482 29.2079L29.0421 28.3908C28.7187 27.1664 27.6054 26.2618 26.2767 26.2618V29.4618ZM24.5245 29.4618H26.2767V26.2618H24.5245V29.4618ZM23.3167 23.8996L22.9326 27.701L26.1164 28.0227L26.5005 24.2212L23.3167 23.8996ZM25.9269 21.0152C25.6817 21.7368 25.1094 22.3027 24.3945 22.5452L25.4226 25.5756C27.0707 25.0164 28.3886 23.7168 28.9568 22.0446L25.9269 21.0152ZM28.9703 21.056L28.9609 21.0275L25.9227 22.0323L25.9322 22.0608L28.9703 21.056ZM28.4066 19.2598C28.107 19.5283 27.6307 19.8138 26.9488 20.0393L27.9536 23.0774C28.9584 22.7452 29.8477 22.2654 30.5425 21.6427L28.4066 19.2598ZM28.7988 18.6864C28.7898 18.7686 28.7172 18.9814 28.4066 19.2598L30.5425 21.6427C31.2074 21.0467 31.8559 20.1642 31.9798 19.0354L28.7988 18.6864ZM28.7249 18.5698C28.7808 18.6074 28.7943 18.6352 28.7957 18.6381C28.7971 18.641 28.7981 18.6439 28.7989 18.6487C28.7997 18.6534 28.8011 18.6653 28.7988 18.6864L31.9798 19.0354C32.1202 17.7556 31.5292 16.5986 30.5091 15.9134L28.7249 18.5698ZM28.4088 18.4482C28.571 18.4842 28.669 18.5323 28.7249 18.5698L30.5091 15.9134C30.0661 15.6159 29.5825 15.4309 29.1028 15.3244L28.4088 18.4482ZM27.174 16.716C27.174 16.6598 27.1801 16.6031 27.1921 16.5473L30.3195 17.2252C30.3554 17.0597 30.374 16.8891 30.374 16.716H27.174ZM27.974 17.516C27.5322 17.516 27.174 17.1578 27.174 16.716H30.374C30.374 15.3905 29.2995 14.316 27.974 14.316V17.516ZM19.5739 17.516H27.974V14.316H19.5739V17.516ZM29.3381 19.8959L29.4957 18.5906L26.3187 18.207L26.1611 19.5123L29.3381 19.8959ZM27.3387 18.0683C27.2859 18.1157 27.1807 18.1956 27.005 18.2879L28.4942 21.1203C28.8691 20.9232 29.1988 20.6984 29.4746 20.4512L27.3387 18.0683ZM27.2084 18.5119C27.2224 18.3841 27.2509 18.288 27.2728 18.2274C27.2964 18.1621 27.321 18.1148 27.3389 18.0845C27.3751 18.0235 27.3898 18.0226 27.3387 18.0683L29.4746 20.4512C29.9661 20.0106 30.3233 19.4627 30.3893 18.8609L27.2084 18.5119ZM27.2097 18.5004L27.2091 18.5051L30.3885 18.8677L30.3891 18.863L27.2097 18.5004ZM27.8327 19.898C27.8154 19.8864 27.5551 19.7216 27.3732 19.3703C27.1369 18.9141 27.2119 18.4816 27.2101 18.4966L30.3886 18.8668C30.3905 18.8506 30.4688 18.3894 30.2147 17.8987C30.0149 17.5129 29.7155 17.3078 29.617 17.2416L27.8327 19.898ZM27.9032 19.9988C28.0222 19.9991 28.0682 20.0118 28.0582 20.0093C28.0529 20.008 28.0303 20.002 27.9942 19.9868C27.9597 19.9723 27.9028 19.9451 27.8327 19.898L29.617 17.2416C29.1567 16.9325 28.5593 16.8004 27.9112 16.7988L27.9032 19.9988ZM19.229 16.7993C18.6075 16.8086 18.0309 16.9409 17.5831 17.2416L19.3673 19.898C19.2992 19.9438 19.2436 19.9707 19.2092 19.9854C19.1732 20.0007 19.1501 20.0072 19.1431 20.009C19.1298 20.0124 19.1691 20.0006 19.2768 19.999L19.229 16.7993ZM21.0238 19.4705L20.8365 18.1709L17.6693 18.6274L17.8565 19.9269L21.0238 19.4705ZM17.7255 20.4512C17.9979 20.6953 18.3228 20.9176 18.6917 21.1129L20.1886 18.2845C20.0167 18.1936 19.9135 18.1151 19.8614 18.0683L17.7255 20.4512ZM16.8108 18.8609C16.8768 19.4627 17.234 20.0106 17.7255 20.4512L19.8614 18.0683C19.8103 18.0226 19.825 18.0235 19.8611 18.0845C19.8791 18.1148 19.9037 18.1621 19.9273 18.2274C19.9492 18.288 19.9777 18.3841 19.9917 18.5119L16.8108 18.8609ZM16.811 18.8633L16.8116 18.8679L19.9909 18.5048L19.9904 18.5002L16.811 18.8633ZM17.5831 17.2416C17.4846 17.3078 17.1852 17.5129 16.9854 17.8987C16.7312 18.3894 16.8096 18.8506 16.8114 18.8668L19.99 18.4966C19.9882 18.4816 20.0632 18.9141 19.8269 19.3703C19.645 19.7216 19.3847 19.8864 19.3673 19.898L17.5831 17.2416Z" fill="white" mask="url(#path-1-outside-1_563:2854)"/>
</svg>
