<svg width="23" height="24" viewBox="0 0 23 24" fill="none" xmlns="http://www.w3.org/2000/svg">
<path d="M11.5 0.166748C8.32552 0.166748 5.61523 1.28979 3.36914 3.53589C1.12305 5.78198 0 8.49227 0 11.6667C0 14.8412 1.12305 17.5515 3.36914 19.7976C5.61523 22.0437 8.32552 23.1667 11.5 23.1667C14.6745 23.1667 17.3848 22.0437 19.6309 19.7976C21.877 17.5515 23 14.8412 23 11.6667C23 8.49227 21.877 5.78198 19.6309 3.53589C17.3848 1.28979 14.6745 0.166748 11.5 0.166748ZM21.0684 11.6667C21.0684 14.3022 20.1325 16.5557 18.2607 18.4275C16.389 20.2992 14.1354 21.2351 11.5 21.2351C10.1823 21.2351 8.93945 20.9806 7.77148 20.4714C7.92122 18.5248 7.5319 16.4884 6.60352 14.3621C6.27409 13.3438 6.46875 12.5352 7.1875 11.9363C8.6849 10.4389 9.47852 9.1062 9.56836 7.93823C9.74805 6.32104 8.98438 4.68888 7.27734 3.04175C8.44531 2.41284 9.85286 2.09839 11.5 2.09839C12.2786 2.09839 13.0124 2.18823 13.7012 2.36792L11.7695 4.29956L11.0957 4.97339L13.8809 7.75854L20.6191 8.7019C20.9186 9.75008 21.0684 10.7384 21.0684 11.6667ZM12.084 10.0496L11.3203 11.1726C10.7214 12.1309 10.6465 13.0893 11.0957 14.0476L11.5 14.946L12.1738 18.1804C12.2637 18.8692 12.6829 19.3184 13.4316 19.5281C13.5514 19.588 13.7012 19.6179 13.8809 19.6179C14.3301 19.6179 14.7493 19.4532 15.1387 19.1238L16.2168 18.0906L16.3066 17.9109C16.7559 16.2338 17.265 15.1108 17.834 14.5417C18.6426 13.9727 18.8672 12.9545 18.5078 11.4871C18.2982 10.6785 17.7441 10.0945 16.8457 9.73511L14.5547 8.79175H14.375C13.3268 8.79175 12.5632 9.21102 12.084 10.0496Z" fill="#74C182"/>
</svg>
