<svg width="18" height="18" viewBox="0 0 18 18" fill="none" xmlns="http://www.w3.org/2000/svg">
<g clip-path="url(#clip0)">
<path d="M7.49987 4.50011L10.4999 1.50011C10.4999 1.50011 13.4999 -1.49989 16.4999 1.50011C19.4999 4.50011 16.4999 7.50011 16.4999 7.50011L12.4999 11.5001C12.4999 11.5001 9.49987 14.5001 6.49987 11.5001C5.93737 10.9376 5.58887 10.1901 5.58887 10.1901L7.26537 8.51611C7.26537 8.51611 7.19787 9.19811 7.99987 10.0001C7.99987 10.0001 9.49987 11.5001 10.9999 10.0001L14.9999 6.00011C14.9999 6.00011 16.4999 4.50011 14.9999 3.00011C13.4999 1.50011 11.9999 3.00011 11.9999 3.00011L10.1354 4.86461C10.1354 4.86461 9.20837 4.10411 7.31237 4.68761L7.49987 4.50011Z" fill="#8899A6"/>
<path d="M10.4222 13.5001L7.4222 16.5001C7.4222 16.5001 4.4222 19.5001 1.4222 16.5001C-1.5778 13.5001 1.4222 10.5001 1.4222 10.5001L5.4222 6.50011C5.4222 6.50011 8.4222 3.50011 11.4222 6.50011C11.9847 7.06261 12.3332 7.81011 12.3332 7.81011L10.6562 9.48461C10.6562 9.48461 10.7237 8.80211 9.9217 8.00011C9.9217 8.00011 8.4217 6.50011 6.9217 8.00011L2.9217 12.0001C2.9217 12.0001 1.4217 13.5001 2.9217 15.0001C4.4217 16.5001 5.9217 15.0001 5.9217 15.0001L7.7862 13.1356C7.7862 13.1356 8.7132 13.8961 10.6092 13.3126L10.4222 13.5001Z" fill="#8899A6"/>
</g>
<defs>
<clipPath id="clip0">
<rect width="18" height="18" fill="white" transform="translate(0 0.000106812)"/>
</clipPath>
</defs>
</svg>
