<svg width="24" height="22" viewBox="0 0 24 22" fill="none" xmlns="http://www.w3.org/2000/svg">
<path d="M7.90544 4.35816C8.41177 4.08749 8.95661 4.00116 9.48744 4.00116C10.1011 4.00116 10.8151 4.20299 11.3914 4.67433C11.9946 5.16899 12.4041 5.92733 12.4041 6.91666C12.4041 8.05416 11.6003 8.67133 11.1476 9.01899L11.0484 9.09599C10.5538 9.48449 10.3624 9.69216 10.3624 10.125C10.3624 10.3571 10.2703 10.5796 10.1062 10.7437C9.94206 10.9078 9.7195 11 9.48744 11C9.25537 11 9.03281 10.9078 8.86872 10.7437C8.70463 10.5796 8.61244 10.3571 8.61244 10.125C8.61244 8.80199 9.44194 8.13233 9.9681 7.71933C10.5666 7.24916 10.6541 7.14416 10.6541 6.91666C10.6541 6.45349 10.4803 6.19099 10.2808 6.02883C10.0545 5.85061 9.77546 5.75254 9.48744 5.74999C9.14327 5.74999 8.90644 5.80716 8.72911 5.90166C8.56227 5.99033 8.38611 6.14666 8.21577 6.46166C8.161 6.56278 8.08685 6.65212 7.99755 6.72458C7.90825 6.79704 7.80555 6.8512 7.69532 6.88397C7.58509 6.91674 7.46949 6.92748 7.3551 6.91557C7.24072 6.90367 7.12981 6.86935 7.02869 6.81458C6.92757 6.7598 6.83823 6.68565 6.76577 6.59635C6.69331 6.50705 6.63915 6.40436 6.60638 6.29413C6.57361 6.1839 6.56287 6.06829 6.57477 5.95391C6.58668 5.83953 6.621 5.72861 6.67577 5.62749C6.98377 5.06049 7.38977 4.63233 7.90544 4.35699V4.35816Z" fill="#60B515"/>
<path d="M9.48747 14.5C9.79689 14.5 10.0936 14.3771 10.3124 14.1583C10.5312 13.9395 10.6541 13.6428 10.6541 13.3333C10.6541 13.0239 10.5312 12.7272 10.3124 12.5084C10.0936 12.2896 9.79689 12.1667 9.48747 12.1667C9.17805 12.1667 8.8813 12.2896 8.66251 12.5084C8.44372 12.7272 8.3208 13.0239 8.3208 13.3333C8.3208 13.6428 8.44372 13.9395 8.66251 14.1583C8.8813 14.3771 9.17805 14.5 9.48747 14.5Z" fill="#60B515"/>
<path d="M9.48748 0.5C8.01573 0.499753 6.5677 0.87074 5.27738 1.57863C3.98705 2.28652 2.89613 3.30845 2.10557 4.54983C1.315 5.79122 0.850331 7.21197 0.754557 8.6806C0.658784 10.1492 0.935001 11.6183 1.55765 12.9518L0.711815 16.2675C0.649732 16.5111 0.651649 16.7665 0.71738 17.0091C0.783112 17.2517 0.910427 17.4732 1.08697 17.6521C1.26352 17.831 1.48331 17.9612 1.72501 18.0301C1.96671 18.0991 2.22213 18.1044 2.46648 18.0455C3.34148 17.8355 4.68665 17.5123 5.88481 17.2265C7.07444 17.763 8.36899 18.0265 9.67367 17.9979C10.9783 17.9693 12.2601 17.6492 13.425 17.0611C14.59 16.473 15.6087 15.6317 16.4064 14.599C17.2042 13.5662 17.7608 12.3681 18.0356 11.0924C18.3104 9.81665 18.2963 8.49561 17.9944 7.22602C17.6926 5.95643 17.1106 4.77043 16.291 3.75488C15.4715 2.73934 14.4351 1.91997 13.2579 1.35678C12.0807 0.793596 10.7925 0.500855 9.48748 0.5ZM2.48748 9.25C2.48794 7.72785 2.98455 6.24733 3.90204 5.03277C4.81954 3.81822 6.10793 2.93583 7.57198 2.5193C9.03603 2.10277 10.596 2.17482 12.0154 2.72451C13.4348 3.2742 14.6364 4.27159 15.438 5.56554C16.2397 6.85949 16.5977 8.37948 16.4579 9.8952C16.318 11.4109 15.688 12.8397 14.6631 13.9652C13.6382 15.0906 12.2745 15.8513 10.7784 16.132C9.28239 16.4128 7.73561 16.1982 6.37248 15.5208L6.08898 15.3797L5.77981 15.4532L2.52715 16.2313C2.76048 15.3213 3.06615 14.1173 3.33215 13.072L3.41382 12.75L3.26215 12.4548C2.75119 11.4639 2.48553 10.3649 2.48748 9.25Z" fill="#60B515"/>
<path d="M15.3209 21.5C13.0225 21.5 10.933 20.6145 9.37085 19.1667H9.48752C10.3252 19.1667 11.1384 19.0628 11.9154 18.8668C12.9234 19.4292 14.0854 19.75 15.322 19.75C16.442 19.75 17.499 19.4875 18.4359 19.0208L18.7194 18.8797L19.0285 18.9532C20.103 19.2098 21.321 19.4723 22.2252 19.6648C22.0198 18.7887 21.741 17.6162 21.4762 16.572L21.3945 16.25L21.5462 15.9548C22.0571 14.9639 22.3228 13.8649 22.3209 12.75C22.3215 11.5797 22.0284 10.4279 21.4685 9.40019C20.9085 8.37249 20.0997 7.50173 19.116 6.86766C18.9103 6.03434 18.5965 5.23148 18.1827 4.47949C19.3409 4.88054 20.4019 5.52034 21.2972 6.35747C22.1924 7.1946 22.9019 8.2104 23.3796 9.33911C23.8574 10.4678 24.0927 11.6843 24.0705 12.9097C24.0483 14.1352 23.769 15.3423 23.2507 16.453C23.5459 17.629 23.8457 18.903 24.0347 19.7232C24.0902 19.9609 24.0848 20.2088 24.0191 20.4439C23.9533 20.679 23.8293 20.8937 23.6586 21.0682C23.4878 21.2426 23.2758 21.3712 23.0422 21.442C22.8086 21.5128 22.5609 21.5235 22.322 21.4732C21.4739 21.2958 20.1404 21.0112 18.9235 20.7265C17.7914 21.2379 16.5631 21.5017 15.3209 21.5Z" fill="#60B515"/>
</svg>
