<svg width="25" height="25" viewBox="0 0 25 25" fill="none" xmlns="http://www.w3.org/2000/svg">
<circle cx="12.5" cy="12.5" r="12.5" fill="#03A9F4"/>
<path fill-rule="evenodd" clip-rule="evenodd" d="M12.3125 4.375C12.5427 4.375 12.7635 4.46646 12.9263 4.62925C13.0891 4.79204 13.1806 5.01283 13.1806 5.24306V12.1875C13.1806 12.4177 13.0891 12.6385 12.9263 12.8013C12.7635 12.9641 12.5427 13.0556 12.3125 13.0556H5.36806C5.13783 13.0556 4.91704 12.9641 4.75425 12.8013C4.59146 12.6385 4.5 12.4177 4.5 12.1875C4.5 11.9573 4.59146 11.7365 4.75425 11.5737C4.91704 11.4109 5.13783 11.3194 5.36806 11.3194H11.4444V5.24306C11.4444 5.01283 11.5359 4.79204 11.6987 4.62925C11.8615 4.46646 12.0823 4.375 12.3125 4.375Z" fill="white"/>
<path fill-rule="evenodd" clip-rule="evenodd" d="M11.4443 12.1875C11.4443 11.9573 11.5358 11.7365 11.6986 11.5737C11.8614 11.4109 12.0822 11.3195 12.3124 11.3195H19.2568C19.4871 11.3195 19.7079 11.4109 19.8706 11.5737C20.0334 11.7365 20.1249 11.9573 20.1249 12.1875C20.1249 12.4177 20.0334 12.6385 19.8706 12.8013C19.7079 12.9641 19.4871 13.0556 19.2568 13.0556H13.1804V19.132C13.1804 19.3622 13.089 19.583 12.9262 19.7458C12.7634 19.9086 12.5426 20 12.3124 20C12.0822 20 11.8614 19.9086 11.6986 19.7458C11.5358 19.583 11.4443 19.3622 11.4443 19.132V12.1875Z" fill="white"/>
</svg>
