<svg width="25" height="25" viewBox="0 0 25 25" fill="none" xmlns="http://www.w3.org/2000/svg">
<ellipse cx="12.0473" cy="12.9231" rx="12.0473" ry="12" fill="#03A9F4"/>
<path d="M7.73576 17.9231H17.1699C18.3151 17.9231 18.8822 17.3582 18.8822 16.2392V9.60696C18.8822 8.48801 18.3151 7.9231 17.1699 7.9231H7.73576C6.59603 7.9231 6.02344 8.48257 6.02344 9.60696V16.2392C6.02344 17.3636 6.59603 17.9231 7.73576 17.9231ZM15.0813 12.9095C14.8359 12.6922 14.5523 12.5782 14.2579 12.5782C13.9579 12.5782 13.6907 12.6814 13.4399 12.9041L10.975 15.0985L9.96614 14.186C9.73711 13.985 9.48626 13.8764 9.22995 13.8764C8.98456 13.8764 8.75552 13.9796 8.52648 14.1806L6.90141 15.6417V9.65042C6.90141 9.08551 7.20134 8.79762 7.74667 8.79762H17.159C17.6989 8.79762 18.0042 9.08551 18.0042 9.65042V15.6472L15.0813 12.9095ZM10.0861 12.9693C10.7896 12.9693 11.3676 12.3935 11.3676 11.6874C11.3676 10.9866 10.7896 10.4054 10.0861 10.4054C9.37719 10.4054 8.79915 10.9866 8.79915 11.6874C8.79915 12.3935 9.37719 12.9693 10.0861 12.9693Z" fill="white"/>
</svg>
