<svg width="12" height="13" viewBox="0 0 12 13" fill="none" xmlns="http://www.w3.org/2000/svg">
<path d="M8.45785 8.45938C8.83598 8.25625 9.26879 8.14062 9.72973 8.14062H9.73129C9.77816 8.14062 9.80004 8.08438 9.76566 8.05313C9.28631 7.62294 8.73873 7.27548 8.14535 7.025C8.1391 7.02187 8.13285 7.02031 8.1266 7.01719C9.09691 6.3125 9.72816 5.16719 9.72816 3.875C9.72816 1.73438 7.99691 0 5.86098 0C3.72504 0 1.99535 1.73438 1.99535 3.875C1.99535 5.16719 2.6266 6.3125 3.59848 7.01719C3.59223 7.02031 3.58598 7.02187 3.57973 7.025C2.88129 7.32031 2.25473 7.74375 1.71566 8.28438C1.17971 8.81935 0.753029 9.45354 0.459414 10.1516C0.170528 10.8351 0.0146195 11.5674 3.90719e-05 12.3094C-0.000377967 12.3261 0.00254708 12.3426 0.00864193 12.3582C0.0147368 12.3737 0.0238781 12.3879 0.0355272 12.3998C0.0471763 12.4117 0.0610975 12.4212 0.0764706 12.4277C0.0918436 12.4342 0.108358 12.4375 0.125039 12.4375H1.06098C1.12816 12.4375 1.18441 12.3828 1.18598 12.3156C1.21723 11.1094 1.70004 9.97969 2.55473 9.12344C3.43754 8.2375 4.61254 7.75 5.86254 7.75C6.74848 7.75 7.59848 7.99531 8.33129 8.45469C8.35011 8.46652 8.37172 8.47318 8.39394 8.474C8.41616 8.47482 8.4382 8.46978 8.45785 8.45938ZM5.86254 6.5625C5.14691 6.5625 4.47348 6.28281 3.96566 5.775C3.71581 5.5258 3.51774 5.22962 3.38285 4.90353C3.24796 4.57744 3.17893 4.22789 3.17973 3.875C3.17973 3.15781 3.45941 2.48281 3.96566 1.975C4.47191 1.46719 5.14535 1.1875 5.86254 1.1875C6.57973 1.1875 7.2516 1.46719 7.75941 1.975C8.00926 2.2242 8.20734 2.52038 8.34223 2.84647C8.47711 3.17256 8.54615 3.52211 8.54535 3.875C8.54535 4.59219 8.26566 5.26719 7.75941 5.775C7.2516 6.28281 6.57816 6.5625 5.86254 6.5625ZM11.6094 10.2812H10.2969V8.96875C10.2969 8.9 10.2407 8.84375 10.1719 8.84375H9.29691C9.22816 8.84375 9.17191 8.9 9.17191 8.96875V10.2812H7.85941C7.79066 10.2812 7.73441 10.3375 7.73441 10.4062V11.2812C7.73441 11.35 7.79066 11.4062 7.85941 11.4062H9.17191V12.7188C9.17191 12.7875 9.22816 12.8438 9.29691 12.8438H10.1719C10.2407 12.8438 10.2969 12.7875 10.2969 12.7188V11.4062H11.6094C11.6782 11.4062 11.7344 11.35 11.7344 11.2812V10.4062C11.7344 10.3375 11.6782 10.2812 11.6094 10.2812Z" fill="white"/>
</svg>
