<svg width="17" height="17" viewBox="0 0 17 17" fill="none" xmlns="http://www.w3.org/2000/svg">
<path d="M15.8 3.58181H14.9273V2.70908C14.9273 2.47762 14.8354 2.25564 14.6717 2.09197C14.508 1.9283 14.286 1.83635 14.0546 1.83635C13.8231 1.83635 13.6011 1.9283 13.4375 2.09197C13.2738 2.25564 13.1819 2.47762 13.1819 2.70908V3.58181H12.3091C12.0777 3.58181 11.8557 3.67375 11.692 3.83742C11.5283 4.00109 11.4364 4.22307 11.4364 4.45453C11.4364 4.686 11.5283 4.90798 11.692 5.07164C11.8557 5.23531 12.0777 5.32726 12.3091 5.32726H13.1819V6.19999C13.1819 6.43145 13.2738 6.65343 13.4375 6.8171C13.6011 6.98077 13.8231 7.07272 14.0546 7.07272C14.286 7.07272 14.508 6.98077 14.6717 6.8171C14.8354 6.65343 14.9273 6.43145 14.9273 6.19999V5.32726H15.8C16.0315 5.32726 16.2535 5.23531 16.4171 5.07164C16.5808 4.90798 16.6728 4.686 16.6728 4.45453C16.6728 4.22307 16.5808 4.00109 16.4171 3.83742C16.2535 3.67375 16.0315 3.58181 15.8 3.58181ZM6.20003 7.94544C6.89047 7.94544 7.5654 7.7407 8.13948 7.35712C8.71355 6.97353 9.16099 6.42833 9.42521 5.79045C9.68943 5.15257 9.75856 4.45066 9.62387 3.77349C9.48917 3.09632 9.15669 2.4743 8.66848 1.98609C8.18027 1.49788 7.55825 1.1654 6.88108 1.0307C6.20391 0.896004 5.502 0.965136 4.86412 1.22935C4.22624 1.49357 3.68103 1.94101 3.29745 2.51509C2.91386 3.08917 2.70912 3.7641 2.70912 4.45453C2.70912 5.38038 3.07692 6.26831 3.73159 6.92298C4.38626 7.57765 5.27419 7.94544 6.20003 7.94544ZM11.4364 16.6727C11.6679 16.6727 11.8898 16.5808 12.0535 16.4171C12.2172 16.2534 12.3091 16.0315 12.3091 15.8C12.3091 14.1798 11.6655 12.6259 10.5198 11.4802C9.37414 10.3345 7.82026 9.25453 6.20003 9.25453C4.5798 9.25453 3.02593 10.3345 1.88025 11.4802C0.734577 12.6259 0.0909424 14.1798 0.0909424 15.8C0.0909424 16.0315 0.18289 16.2534 0.346558 16.4171C0.510226 16.5808 0.732208 16.6727 0.96367 16.6727" fill="white"/>
</svg>
