<svg width="17" height="17" viewBox="0 0 17 17" fill="none" xmlns="http://www.w3.org/2000/svg">
<mask id="path-1-inside-1" fill="white">
<path d="M15.2693 7.11735C15.4757 7.06608 15.6855 7.1917 15.7267 7.40031C16.043 9.00181 15.8584 10.6655 15.1929 12.1629C14.4751 13.7778 13.2389 15.1071 11.6802 15.9401C10.1216 16.773 8.32953 17.0621 6.58801 16.7614C4.84649 16.4608 3.25509 15.5876 2.06594 14.2802C0.876782 12.9728 0.157876 11.3061 0.0231138 9.54393C-0.111649 7.78179 0.345439 6.02507 1.32196 4.55208C2.29848 3.07909 3.73859 1.97407 5.41414 1.41208C6.96776 0.890982 8.64142 0.864396 10.2059 1.33065C10.4096 1.39139 10.5149 1.61215 10.4443 1.81275V1.81275C10.3738 2.01335 10.1542 2.11771 9.95012 2.05804C8.54772 1.64802 7.05008 1.67557 5.65901 2.14214C4.14599 2.64962 2.84556 3.64745 1.96376 4.97756C1.08197 6.30767 0.669215 7.894 0.790906 9.48521C0.912596 11.0764 1.56177 12.5815 2.63558 13.7621C3.70938 14.9426 5.14642 15.7311 6.71901 16.0026C8.2916 16.2741 9.90983 16.0131 11.3173 15.2609C12.7248 14.5088 13.841 13.3084 14.4892 11.8501C15.0851 10.5094 15.2541 9.02105 14.9784 7.58618C14.9383 7.37736 15.0629 7.16862 15.2693 7.11735V7.11735Z"/>
</mask>
<path d="M15.2693 7.11735C15.4757 7.06608 15.6855 7.1917 15.7267 7.40031C16.043 9.00181 15.8584 10.6655 15.1929 12.1629C14.4751 13.7778 13.2389 15.1071 11.6802 15.9401C10.1216 16.773 8.32953 17.0621 6.58801 16.7614C4.84649 16.4608 3.25509 15.5876 2.06594 14.2802C0.876782 12.9728 0.157876 11.3061 0.0231138 9.54393C-0.111649 7.78179 0.345439 6.02507 1.32196 4.55208C2.29848 3.07909 3.73859 1.97407 5.41414 1.41208C6.96776 0.890982 8.64142 0.864396 10.2059 1.33065C10.4096 1.39139 10.5149 1.61215 10.4443 1.81275V1.81275C10.3738 2.01335 10.1542 2.11771 9.95012 2.05804C8.54772 1.64802 7.05008 1.67557 5.65901 2.14214C4.14599 2.64962 2.84556 3.64745 1.96376 4.97756C1.08197 6.30767 0.669215 7.894 0.790906 9.48521C0.912596 11.0764 1.56177 12.5815 2.63558 13.7621C3.70938 14.9426 5.14642 15.7311 6.71901 16.0026C8.2916 16.2741 9.90983 16.0131 11.3173 15.2609C12.7248 14.5088 13.841 13.3084 14.4892 11.8501C15.0851 10.5094 15.2541 9.02105 14.9784 7.58618C14.9383 7.37736 15.0629 7.16862 15.2693 7.11735V7.11735Z" fill="#E4E6EA" stroke="#E4E6EA" stroke-width="2.33621" mask="url(#path-1-inside-1)"/>
<circle cx="4.76295" cy="8.14485" r="1.3042" fill="#E4E6EA" stroke="#E4E6EA" stroke-width="0.567041"/>
<circle cx="11.114" cy="8.14485" r="1.3042" fill="#E4E6EA" stroke="#E4E6EA" stroke-width="0.567041"/>
<mask id="path-4-inside-2" fill="white">
<path d="M9.18613 11.3201C9.81247 11.3201 10.3424 11.8551 10.0553 12.4118C9.94353 12.6284 9.79822 12.8285 9.62267 13.0041C9.17604 13.4507 8.57027 13.7016 7.93864 13.7016C7.30701 13.7016 6.70125 13.4507 6.25461 13.0041C6.07907 12.8285 5.93376 12.6284 5.82203 12.4118C5.53493 11.8551 6.06481 11.3201 6.69115 11.3201L7.93864 11.3201H9.18613Z"/>
</mask>
<path d="M9.18613 11.3201C9.81247 11.3201 10.3424 11.8551 10.0553 12.4118C9.94353 12.6284 9.79822 12.8285 9.62267 13.0041C9.17604 13.4507 8.57027 13.7016 7.93864 13.7016C7.30701 13.7016 6.70125 13.4507 6.25461 13.0041C6.07907 12.8285 5.93376 12.6284 5.82203 12.4118C5.53493 11.8551 6.06481 11.3201 6.69115 11.3201L7.93864 11.3201H9.18613Z" fill="#E4E6EA" stroke="#E4E6EA" stroke-width="1.13408" mask="url(#path-4-inside-2)"/>
<path d="M14.2893 4.96924V0.999949" stroke="#E4E6EA" stroke-width="1.16811" stroke-linecap="round"/>
<path d="M12.3843 2.90527L16.3536 2.90525" stroke="#E4E6EA" stroke-width="1.16811" stroke-linecap="round"/>
</svg>
