<svg xmlns="http://www.w3.org/2000/svg" width="50" height="50" fill="none" viewBox="0 0 50 50">
    <path fill="#6D7884" d="M12.5 12.5h25C44.404 12.5 50 18.096 50 25s-5.596 12.5-12.5 12.5h-25C5.596 37.5 0 31.904 0 25s5.596-12.5 12.5-12.5z"/>
    <path fill="#C4C4C4" d="M12.5 35.417C6.747 35.417 2.083 30.753 2.083 25S6.747 14.583 12.5 14.583 22.917 19.247 22.917 25 18.253 35.417 12.5 35.417z"/>
    <path fill="url(#paint0_linear)" d="M12.5 35.417C6.747 35.417 2.083 30.753 2.083 25S6.747 14.583 12.5 14.583 22.917 19.247 22.917 25 18.253 35.417 12.5 35.417z"/>
    <defs>
        <linearGradient id="paint0_linear" x1="2.083" x2="12.5" y1="25" y2="45.833" gradientUnits="userSpaceOnUse">
            <stop stop-color="#fff"/>
            <stop offset="1" stop-color="#fff" stop-opacity="0"/>
        </linearGradient>
    </defs>
</svg>
