<svg width="50" height="50" viewBox="0 0 50 50" fill="none" xmlns="http://www.w3.org/2000/svg">
<path d="M37.5 12.5H12.5C5.59644 12.5 0 18.0964 0 25C0 31.9036 5.59644 37.5 12.5 37.5H37.5C44.4036 37.5 50 31.9036 50 25C50 18.0964 44.4036 12.5 37.5 12.5Z" fill="#60B515"/>
<path d="M37.5 35.4167C43.2529 35.4167 47.9166 30.753 47.9166 25C47.9166 19.2471 43.2529 14.5834 37.5 14.5834C31.747 14.5834 27.0833 19.2471 27.0833 25C27.0833 30.753 31.747 35.4167 37.5 35.4167Z" fill="#C4C4C4"/>
<path d="M37.5 35.4167C43.2529 35.4167 47.9166 30.753 47.9166 25C47.9166 19.2471 43.2529 14.5834 37.5 14.5834C31.747 14.5834 27.0833 19.2471 27.0833 25C27.0833 30.753 31.747 35.4167 37.5 35.4167Z" fill="url(#paint0_linear)"/>
<defs>
<linearGradient id="paint0_linear" x1="37.5" y1="14.5834" x2="27.0833" y2="35.4167" gradientUnits="userSpaceOnUse">
<stop stop-color="white"/>
<stop offset="1" stop-color="white" stop-opacity="0"/>
</linearGradient>
</defs>
</svg>
