<svg width="80" height="80" viewBox="0 0 80 80" fill="none" xmlns="http://www.w3.org/2000/svg">
<circle cx="40" cy="40" r="40" fill="#60B515"/>
<path d="M25.9167 15.1L28.2667 12.75L31.2501 15.75L28.9001 18.1L25.9167 15.1ZM38.3334 8.58333H41.6667V13.5H38.3334V8.58333ZM26.6667 28.5H21.6667V25.1667H26.6667V28.5ZM45.0001 35.4833V43.5H35.0001V35.4833C32.0167 33.75 30.0001 30.5333 30.0001 26.8333C30.0001 21.3167 34.4834 16.8333 40.0001 16.8333C45.5167 16.8333 50.0001 21.3167 50.0001 26.8333C50.0001 30.5333 47.9834 33.75 45.0001 35.4833ZM53.3334 28.5V25.1667H58.3334V28.5H53.3334ZM48.7334 15.7333L51.7167 12.7333L54.0667 15.0833L51.0667 18.0667L48.7334 15.7333Z" fill="white"/>
<path d="M37.3989 60.3516C37.4067 60.5625 37.4536 60.7539 37.5396 60.9258C37.6333 61.0977 37.7505 61.2383 37.8911 61.3477C38.0317 61.4492 38.188 61.5273 38.3599 61.582C38.5317 61.6367 38.7114 61.6641 38.8989 61.6641C39.313 61.6641 39.6685 61.5469 39.9653 61.3125C40.27 61.0703 40.4185 60.7422 40.4106 60.3281L40.3989 59.6953C40.3911 59.4609 40.4692 59.2266 40.6333 58.9922C40.8052 58.7578 41.0278 58.5352 41.3013 58.3242C41.5747 58.1133 41.8755 57.8906 42.2036 57.6562C42.5396 57.4219 42.8716 57.1641 43.1997 56.8828C43.5356 56.5938 43.8403 56.2852 44.1138 55.957C44.3872 55.6211 44.6099 55.2227 44.7817 54.7617C44.9536 54.3008 45.0396 53.8086 45.0396 53.2852C45.0396 52.4961 44.895 51.8047 44.606 51.2109C44.3247 50.6094 43.9341 50.1289 43.4341 49.7695C42.9341 49.4102 42.3638 49.1445 41.7231 48.9727C41.0903 48.793 40.3989 48.7031 39.6489 48.7031C38.3364 48.7031 37.1216 48.8633 36.0044 49.1836C35.645 49.293 35.3755 49.4688 35.1958 49.7109C35.0161 49.9531 34.9263 50.2188 34.9263 50.5078C34.9263 50.9141 35.0396 51.2461 35.2661 51.5039C35.4927 51.7539 35.7856 51.8789 36.145 51.8789C36.3091 51.8789 36.7036 51.8359 37.3286 51.75C37.9536 51.6562 38.4575 51.6094 38.8403 51.6094C39.1606 51.6094 39.4575 51.6445 39.731 51.7148C40.0044 51.7773 40.2544 51.8828 40.481 52.0312C40.7153 52.1719 40.895 52.375 41.02 52.6406C41.1528 52.8984 41.2192 53.2109 41.2192 53.5781C41.2192 53.8594 41.1646 54.1367 41.0552 54.4102C40.9458 54.6836 40.8013 54.9336 40.6216 55.1602C40.4419 55.3789 40.2349 55.6055 40.0005 55.8398C39.7739 56.0742 39.5396 56.293 39.2974 56.4961C39.0552 56.6992 38.8169 56.9219 38.5825 57.1641C38.356 57.3984 38.1528 57.6289 37.9731 57.8555C37.7935 58.082 37.6489 58.3359 37.5396 58.6172C37.4302 58.8906 37.3755 59.1719 37.3755 59.4609C37.3755 59.4766 37.3755 59.4922 37.3755 59.5078C37.3755 59.5156 37.3755 59.5273 37.3755 59.543L37.3989 60.3516ZM38.9224 66.5742C39.438 66.5742 39.8677 66.3984 40.2114 66.0469C40.5552 65.7031 40.7271 65.2852 40.7271 64.793C40.7271 64.293 40.5474 63.875 40.188 63.5391C39.8364 63.2031 39.4146 63.0352 38.9224 63.0352C38.3911 63.0352 37.9575 63.2109 37.6216 63.5625C37.2856 63.9062 37.1177 64.3164 37.1177 64.793C37.1177 65.2852 37.2896 65.7031 37.6333 66.0469C37.9771 66.3984 38.4067 66.5742 38.9224 66.5742Z" fill="#F9F9F9"/>
<path opacity="0.7" d="M32.0177 63.6026C32.0877 63.7446 32.1785 63.8612 32.29 63.9525C32.4069 64.0414 32.5302 64.1017 32.66 64.1334C32.7874 64.1598 32.9183 64.1654 33.0527 64.1501C33.1871 64.1348 33.3185 64.0984 33.4468 64.0409C33.7302 63.914 33.9376 63.7248 34.0689 63.4733C34.2032 63.2141 34.2042 62.944 34.0719 62.663L33.8698 62.2335C33.7926 62.0754 33.7742 61.8911 33.8146 61.6803C33.8604 61.4672 33.9445 61.2466 34.067 61.0183C34.1894 60.7901 34.327 60.5455 34.4797 60.2844C34.6378 60.021 34.786 59.7427 34.9243 59.4496C35.0656 59.1487 35.1795 58.8441 35.2661 58.5357C35.3502 58.2219 35.3804 57.8809 35.3567 57.5127C35.333 57.1445 35.2409 56.7813 35.0804 56.423C34.8384 55.883 34.5275 55.454 34.1476 55.1363C33.7706 54.8108 33.3559 54.6017 32.9035 54.5091C32.451 54.4164 31.9792 54.4095 31.4881 54.4883C30.9998 54.5594 30.4991 54.7099 29.9857 54.9399C29.0874 55.3424 28.305 55.8245 27.6386 56.3863C27.4261 56.5714 27.2956 56.7744 27.2468 56.9952C27.1981 57.2161 27.2181 57.4254 27.3067 57.6233C27.4313 57.9014 27.6106 58.0939 27.8448 58.2009C28.0765 58.3025 28.3154 58.2982 28.5613 58.188C28.6736 58.1377 28.9305 57.9873 29.3319 57.7368C29.7309 57.481 30.0615 57.2944 30.3235 57.177C30.5427 57.0788 30.7567 57.0118 30.9654 56.9761C31.1717 56.935 31.3752 56.9306 31.5758 56.9627C31.7793 56.9871 31.9646 57.071 32.1316 57.2145C32.3015 57.3502 32.4428 57.5437 32.5554 57.795C32.6417 57.9875 32.6893 58.1941 32.6983 58.4148C32.7073 58.6355 32.685 58.851 32.6315 59.0611C32.5756 59.2659 32.5034 59.4845 32.4148 59.7168C32.3316 59.9467 32.2383 60.1683 32.1348 60.3816C32.0313 60.5949 31.9365 60.8203 31.8504 61.058C31.7672 61.2879 31.6988 61.5079 31.6453 61.7181C31.5918 61.9282 31.5707 62.1463 31.5821 62.3724C31.5911 62.5931 31.6399 62.8023 31.7285 63.0002C31.7333 63.0109 31.7381 63.0216 31.7429 63.0323C31.7453 63.0376 31.7489 63.0456 31.7537 63.0563L32.0177 63.6026ZM34.9686 67.3945C35.3215 67.2364 35.5617 66.9843 35.6891 66.6383C35.819 66.2976 35.8085 65.9588 35.6576 65.6219C35.5042 65.2797 35.2531 65.0487 34.9041 64.929C34.5605 64.8069 34.2202 64.8213 33.8833 64.9722C33.5197 65.1351 33.2768 65.3884 33.1547 65.732C33.0302 66.0703 33.041 66.4026 33.1871 66.7287C33.3381 67.0656 33.5839 67.299 33.9246 67.4288C34.2676 67.5641 34.6156 67.5526 34.9686 67.3945Z" fill="#E9ECEF"/>
<path opacity="0.7" d="M45.9022 62.6791C45.8429 62.8259 45.8163 62.9713 45.8224 63.1152C45.8339 63.2616 45.871 63.3938 45.9337 63.5118C45.9988 63.6244 46.0818 63.7258 46.1827 63.8159C46.2836 63.9061 46.3982 63.9799 46.5265 64.0374C46.8099 64.1643 47.0892 64.1931 47.3642 64.1237C47.647 64.0514 47.8492 63.8723 47.9709 63.5865L48.1569 63.1497C48.2234 62.9869 48.3487 62.8504 48.5329 62.7403C48.7224 62.6326 48.943 62.5485 49.1949 62.4879C49.4467 62.4274 49.7208 62.3672 50.0173 62.3074C50.3191 62.25 50.6254 62.1753 50.9362 62.0834C51.2548 61.9886 51.558 61.8708 51.8457 61.73C52.1359 61.5839 52.4104 61.3795 52.6694 61.1167C52.9284 60.8539 53.1381 60.5433 53.2986 60.185C53.5405 59.645 53.6536 59.1274 53.6378 58.6324C53.6297 58.1344 53.5097 57.6858 53.2776 57.2865C53.0456 56.8872 52.7367 56.5305 52.3509 56.2165C51.9728 55.8994 51.5271 55.626 51.0138 55.396C50.1154 54.9936 49.2348 54.7307 48.3719 54.6074C48.0924 54.5721 47.854 54.6098 47.6568 54.7205C47.4595 54.8311 47.3166 54.9854 47.228 55.1833C47.1034 55.4613 47.0791 55.7233 47.1552 55.9692C47.2336 56.2098 47.3958 56.3852 47.6418 56.4954C47.7541 56.5457 48.0373 56.6373 48.4914 56.7701C48.948 56.8975 49.3072 57.0199 49.5693 57.1373C49.7885 57.2355 49.9809 57.3506 50.1465 57.4826C50.3145 57.6092 50.4533 57.758 50.5629 57.9291C50.6802 58.0972 50.7409 58.2913 50.745 58.5115C50.7568 58.7287 50.7065 58.9629 50.5939 59.2142C50.5077 59.4068 50.3852 59.5798 50.2265 59.7334C50.0678 59.8871 49.8922 60.0139 49.6998 60.1138C49.5097 60.2085 49.2985 60.3001 49.0662 60.3886C48.8393 60.4796 48.6118 60.5575 48.3838 60.6222C48.1557 60.687 47.9244 60.7664 47.6897 60.8603C47.4627 60.9512 47.2531 61.0467 47.0606 61.1467C46.8681 61.2466 46.6914 61.3761 46.5303 61.5351C46.3716 61.6887 46.2479 61.8645 46.1593 62.0623C46.1545 62.073 46.1497 62.0837 46.1449 62.0944C46.1425 62.0997 46.1389 62.1078 46.1341 62.1185L45.9022 62.6791ZM45.0371 67.4054C45.39 67.5635 45.738 67.5749 46.0811 67.4397C46.4218 67.3098 46.6676 67.0764 46.8185 66.7395C46.9718 66.3973 46.9769 66.0561 46.834 65.716C46.6963 65.3782 46.4591 65.1339 46.1222 64.983C45.7586 64.8201 45.4079 64.8075 45.0702 64.9451C44.7348 65.0774 44.4941 65.3067 44.348 65.6329C44.1971 65.9697 44.1866 66.3085 44.3165 66.6492C44.4439 66.9952 44.6842 67.2473 45.0371 67.4054Z" fill="#E9ECEF"/>
</svg>
