<svg width="20" height="20" viewBox="0 0 20 20" fill="none" xmlns="http://www.w3.org/2000/svg">
<path d="M10 0.000976562C15.524 0.000976562 20 4.47798 20 10.001C20 15.524 15.524 20.001 10 20.001C4.478 20.001 0 15.524 0 10.001C0 4.47798 4.478 0.000976562 10 0.000976562ZM14.25 9.25098H5.75C5.55109 9.25098 5.36032 9.32999 5.21967 9.47065C5.07902 9.6113 5 9.80206 5 10.001C5 10.1999 5.07902 10.3907 5.21967 10.5313C5.36032 10.672 5.55109 10.751 5.75 10.751H14.25C14.4489 10.751 14.6397 10.672 14.7803 10.5313C14.921 10.3907 15 10.1999 15 10.001C15 9.80206 14.921 9.6113 14.7803 9.47065C14.6397 9.32999 14.4489 9.25098 14.25 9.25098Z" fill="#F15744"/>
</svg>
