<svg width="28" height="28" viewBox="0 0 28 28" fill="none" xmlns="http://www.w3.org/2000/svg">
<path d="M18.025 1.48745L6.60622 4.7687L4.81247 5.2937C3.49997 5.68745 3.41247 6.4312 3.76247 7.7437L8.70622 25.7249C9.05622 27.0374 9.40622 27.2562 10.7625 26.8624L12.5562 26.3375L23.975 23.0562C25.2875 22.6625 26.075 21.3062 25.725 19.9499L21.0875 3.23745C20.7375 1.8812 19.3375 1.13745 18.025 1.48745Z" fill="#3E4347"/>
<path d="M17.0625 1.2249L5.77499 4.94365L3.98124 5.5124C2.66874 5.9499 2.62499 6.69365 3.01874 8.00615L8.70624 25.7687C9.14374 27.0812 9.49374 27.2562 10.8062 26.8187L12.6 26.2499L23.8875 22.5312C25.2 22.0937 25.9437 20.6937 25.5062 19.3812L20.2125 2.84365C19.775 1.53115 18.375 0.831151 17.0625 1.2249Z" fill="#D0D0D0"/>
<path d="M16.2312 1.05005L5.07495 5.16255L12.6 26.25L23.7562 22.1375C25.0687 21.6563 25.725 20.2125 25.2437 18.9L19.425 2.4938C18.9875 1.22505 17.5437 0.568796 16.2312 1.05005Z" fill="#42ADE2"/>
<path d="M3.32501 5.81873C2.01251 6.29998 2.01251 7.04373 2.45001 8.35623L8.75001 25.9C9.23126 27.2125 9.58126 27.3875 10.8938 26.9062L12.6438 26.25L5.07501 5.16248L3.32501 5.81873Z" fill="#3E4347"/>
<path d="M18.1562 9.36252L11.2438 11.9438L10.2812 9.18752L17.1937 6.65002L18.1562 9.36252Z" fill="white"/>
</svg>
