<svg width="21" height="14" viewBox="0 0 21 14" fill="none" xmlns="http://www.w3.org/2000/svg">
<path d="M19 2.21623C18.6962 2.09104 18.3588 2.05033 18.0299 2.09913C17.701 2.14794 17.395 2.28413 17.15 2.49076L15 4.32095V2.99406C15 2.26597 14.6839 1.56769 14.1213 1.05285C13.5587 0.538014 12.7957 0.248779 12 0.248779H3C2.20435 0.248779 1.44129 0.538014 0.87868 1.05285C0.316071 1.56769 0 2.26597 0 2.99406V10.3148C0 11.0429 0.316071 11.7412 0.87868 12.256C1.44129 12.7709 2.20435 13.0601 3 13.0601H12C12.7957 13.0601 13.5587 12.7709 14.1213 12.256C14.6839 11.7412 15 11.0429 15 10.3148V8.98793L17.16 10.8181C17.478 11.0815 17.8911 11.2282 18.32 11.2299C18.558 11.2294 18.7932 11.1826 19.01 11.0926C19.3049 10.9835 19.5576 10.7963 19.7357 10.5551C19.9139 10.3138 20.0094 10.0295 20.01 9.73831V3.57057C20.0086 3.27837 19.9116 2.99325 19.7316 2.75189C19.5516 2.51053 19.2968 2.32398 19 2.21623Z" fill="white"/>
</svg>
