<svg width="31" height="22" viewBox="0 0 31 22" fill="none" xmlns="http://www.w3.org/2000/svg">
<path d="M20.7273 21.4949H2.18182C1.60316 21.4949 1.04821 21.2685 0.63904 20.8654C0.229869 20.4623 0 19.9155 0 19.3455V2.14949C0 1.57941 0.229869 1.03268 0.63904 0.629572C1.04821 0.226464 1.60316 0 2.18182 0H20.7273C21.3059 0 21.8609 0.226464 22.2701 0.629572C22.6792 1.03268 22.9091 1.57941 22.9091 2.14949V6.51297L28.8218 2.3537C28.9846 2.23949 29.1762 2.17154 29.3755 2.15727C29.5749 2.14301 29.7744 2.18297 29.9522 2.2728C30.1301 2.36264 30.2795 2.49888 30.3841 2.66667C30.4887 2.83446 30.5445 3.02733 30.5455 3.22424V18.2707C30.5445 18.4676 30.4887 18.6605 30.3841 18.8283C30.2795 18.9961 30.1301 19.1323 29.9522 19.2221C29.7744 19.312 29.5749 19.3519 29.3755 19.3377C29.1762 19.3234 28.9846 19.2555 28.8218 19.1413L22.9091 14.982V19.3455C22.9091 19.9155 22.6792 20.4623 22.2701 20.8654C21.8609 21.2685 21.3059 21.4949 20.7273 21.4949Z" fill="url(#paint0_linear)"/>
<path fill-rule="evenodd" clip-rule="evenodd" d="M11.313 4.52527C11.513 4.52527 11.7049 4.60473 11.8463 4.74617C11.9878 4.88761 12.0672 5.07945 12.0672 5.27948V11.3131C12.0672 11.5132 11.9878 11.705 11.8463 11.8464C11.7049 11.9879 11.513 12.0673 11.313 12.0673H5.27935C5.07933 12.0673 4.88749 11.9879 4.74605 11.8464C4.60461 11.705 4.52515 11.5132 4.52515 11.3131C4.52515 11.1131 4.60461 10.9213 4.74605 10.7798C4.88749 10.6384 5.07933 10.5589 5.27935 10.5589H10.5588V5.27948C10.5588 5.07945 10.6383 4.88761 10.7797 4.74617C10.9211 4.60473 11.113 4.52527 11.313 4.52527Z" fill="white"/>
<path fill-rule="evenodd" clip-rule="evenodd" d="M10.5591 11.3132C10.5591 11.1131 10.6385 10.9213 10.78 10.7799C10.9214 10.6384 11.1133 10.559 11.3133 10.559H17.3469C17.547 10.559 17.7388 10.6384 17.8803 10.7799C18.0217 10.9213 18.1012 11.1131 18.1012 11.3132C18.1012 11.5132 18.0217 11.705 17.8803 11.8465C17.7388 11.9879 17.547 12.0674 17.3469 12.0674H12.0675V17.3468C12.0675 17.5469 11.988 17.7387 11.8466 17.8801C11.7052 18.0216 11.5133 18.101 11.3133 18.101C11.1133 18.101 10.9214 18.0216 10.78 17.8801C10.6385 17.7387 10.5591 17.5469 10.5591 17.3468V11.3132Z" fill="white"/>
<defs>
<linearGradient id="paint0_linear" x1="0" y1="0" x2="31.3508" y2="20.248" gradientUnits="userSpaceOnUse">
<stop offset="0.0989583" stop-color="#94DAF9"/>
<stop offset="0.833333" stop-color="#1E88E5"/>
</linearGradient>
</defs>
</svg>
