<svg width="25" height="31" viewBox="0 0 25 31" fill="none" xmlns="http://www.w3.org/2000/svg">
<path d="M13.0393 30.3455C13.9759 30.3447 14.8948 30.0766 15.6986 29.5696C16.5024 29.0627 17.1611 28.3357 17.6049 27.4659C17.6258 27.4242 17.6361 27.3776 17.6348 27.3304C17.6336 27.2833 17.6208 27.2373 17.5977 27.1969C17.5746 27.1565 17.542 27.1231 17.5031 27.1C17.4641 27.0768 17.4201 27.0647 17.3754 27.0647H8.70451C8.65973 27.0645 8.61569 27.0766 8.57665 27.0997C8.53761 27.1228 8.50492 27.1562 8.48175 27.1966C8.45858 27.237 8.44573 27.2831 8.44444 27.3302C8.44316 27.3774 8.45348 27.4242 8.47441 27.4659C8.91809 28.3356 9.57669 29.0625 10.3804 29.5695C11.184 30.0764 12.1028 30.3446 13.0393 30.3455Z" fill="url(#paint0_linear)"/>
<path d="M24.3862 21.9596C24.2786 21.8229 24.173 21.6862 24.0693 21.5543C22.6433 19.7355 21.7807 18.6378 21.7807 13.489C21.7807 10.8233 21.1759 8.63613 19.984 6.99573C19.1051 5.78388 17.917 4.86457 16.3511 4.18517C16.331 4.17335 16.313 4.15784 16.298 4.13937C15.7347 2.15038 14.1934 0.818237 12.4551 0.818237C10.7168 0.818237 9.17612 2.15038 8.61288 4.13732C8.59785 4.15511 8.5801 4.17013 8.56038 4.18175C4.90612 5.76816 3.13019 8.81179 3.13019 13.4869C3.13019 18.6378 2.26881 19.7355 0.841584 21.5523C0.73788 21.6842 0.632232 21.8181 0.524639 21.9576C0.246714 22.311 0.0706253 22.7411 0.0172129 23.1967C-0.0361994 23.6524 0.0353003 24.1147 0.22325 24.5289C0.623158 25.4175 1.47547 25.969 2.44834 25.969H22.469C23.4373 25.969 24.2838 25.4181 24.685 24.5337C24.8738 24.1194 24.9459 23.6567 24.893 23.2005C24.84 22.7443 24.6642 22.3137 24.3862 21.9596Z" fill="url(#paint1_linear)"/>
<defs>
<linearGradient id="paint0_linear" x1="8.44434" y1="27.0647" x2="13.5446" y2="33.5582" gradientUnits="userSpaceOnUse">
<stop offset="0.0989583" stop-color="#94DAF9"/>
<stop offset="0.833333" stop-color="#1E88E5"/>
</linearGradient>
<linearGradient id="paint1_linear" x1="0" y1="0.818237" x2="30.1268" y2="14.3793" gradientUnits="userSpaceOnUse">
<stop offset="0.0989583" stop-color="#94DAF9"/>
<stop offset="0.833333" stop-color="#1E88E5"/>
</linearGradient>
</defs>
</svg>
