<svg width="45" height="44" viewBox="0 0 45 44" fill="none" xmlns="http://www.w3.org/2000/svg">
<path d="M0 5.625C0 4.13316 0.592632 2.70242 1.64752 1.64752C2.70242 0.592632 4.13316 0 5.625 0L39.375 0C40.8668 0 42.2976 0.592632 43.3525 1.64752C44.4074 2.70242 45 4.13316 45 5.625V28.125C45 29.6168 44.4074 31.0476 43.3525 32.1025C42.2976 33.1574 40.8668 33.75 39.375 33.75H32.3438C31.9071 33.75 31.4765 33.8517 31.086 34.0469C30.6954 34.2422 30.3557 34.5257 30.0938 34.875L24.75 41.9991C24.488 42.3484 24.1483 42.6319 23.7578 42.8271C23.3673 43.0224 22.9366 43.1241 22.5 43.1241C22.0634 43.1241 21.6327 43.0224 21.2422 42.8271C20.8517 42.6319 20.512 42.3484 20.25 41.9991L14.9063 34.875C14.6443 34.5257 14.3046 34.2422 13.914 34.0469C13.5235 33.8517 13.0929 33.75 12.6562 33.75H5.625C4.13316 33.75 2.70242 33.1574 1.64752 32.1025C0.592632 31.0476 0 29.6168 0 28.125V5.625ZM9.84375 8.4375C9.47079 8.4375 9.1131 8.58566 8.84938 8.84938C8.58566 9.1131 8.4375 9.47079 8.4375 9.84375C8.4375 10.2167 8.58566 10.5744 8.84938 10.8381C9.1131 11.1018 9.47079 11.25 9.84375 11.25H35.1562C35.5292 11.25 35.8869 11.1018 36.1506 10.8381C36.4143 10.5744 36.5625 10.2167 36.5625 9.84375C36.5625 9.47079 36.4143 9.1131 36.1506 8.84938C35.8869 8.58566 35.5292 8.4375 35.1562 8.4375H9.84375ZM9.84375 15.4688C9.47079 15.4688 9.1131 15.6169 8.84938 15.8806C8.58566 16.1444 8.4375 16.502 8.4375 16.875C8.4375 17.248 8.58566 17.6056 8.84938 17.8694C9.1131 18.1331 9.47079 18.2812 9.84375 18.2812H35.1562C35.5292 18.2812 35.8869 18.1331 36.1506 17.8694C36.4143 17.6056 36.5625 17.248 36.5625 16.875C36.5625 16.502 36.4143 16.1444 36.1506 15.8806C35.8869 15.6169 35.5292 15.4688 35.1562 15.4688H9.84375ZM9.84375 22.5C9.47079 22.5 9.1131 22.6482 8.84938 22.9119C8.58566 23.1756 8.4375 23.5333 8.4375 23.9062C8.4375 24.2792 8.58566 24.6369 8.84938 24.9006C9.1131 25.1643 9.47079 25.3125 9.84375 25.3125H23.9062C24.2792 25.3125 24.6369 25.1643 24.9006 24.9006C25.1643 24.6369 25.3125 24.2792 25.3125 23.9062C25.3125 23.5333 25.1643 23.1756 24.9006 22.9119C24.6369 22.6482 24.2792 22.5 23.9062 22.5H9.84375Z" fill="#E4E6EA"/>
</svg>
