<svg width="26" height="28" viewBox="0 0 26 28" fill="none" xmlns="http://www.w3.org/2000/svg">
<path fill-rule="evenodd" clip-rule="evenodd" d="M2 26.2365C2 26.2365 0 26.2365 0 24.1274C0 22.0183 2.00001 15.691 10 15.691C18 15.691 20 22.0183 20 24.1274C20 26.2365 18 26.2365 18 26.2365H2ZM10 13.5819C11.5913 13.5819 13.1174 12.9153 14.2426 11.7287C15.3679 10.5421 16 8.93274 16 7.25464C16 5.57654 15.3679 3.96718 14.2426 2.78058C13.1174 1.59399 11.5913 0.927368 10 0.927368C8.40871 0.927368 6.88258 1.59399 5.75736 2.78058C4.63215 3.96718 4.00001 5.57654 4.00001 7.25464C4.00001 8.93274 4.63215 10.5421 5.75736 11.7287C6.88258 12.9153 8.40871 13.5819 10 13.5819Z" fill="url(#paint0_linear)"/>
<path fill-rule="evenodd" clip-rule="evenodd" d="M8 27.3091C8 27.3091 6 27.3091 6 25.2C6 23.0909 8.00001 16.7636 16 16.7636C24 16.7636 26 23.0909 26 25.2C26 27.3091 24 27.3091 24 27.3091H8ZM16 14.6545C17.5913 14.6545 19.1174 13.9879 20.2426 12.8013C21.3679 11.6147 22 10.0054 22 8.32727C22 6.64918 21.3679 5.03981 20.2426 3.85322C19.1174 2.66662 17.5913 2 16 2C14.4087 2 12.8826 2.66662 11.7574 3.85322C10.6321 5.03981 10 6.64918 10 8.32727C10 10.0054 10.6321 11.6147 11.7574 12.8013C12.8826 13.9879 14.4087 14.6545 16 14.6545Z" fill="url(#paint1_linear)"/>
<defs>
<linearGradient id="paint0_linear" x1="0" y1="0.927368" x2="25.7662" y2="10.1813" gradientUnits="userSpaceOnUse">
<stop offset="0.0989583" stop-color="#E4F7FF"/>
<stop offset="0.833333" stop-color="#1E88E5"/>
</linearGradient>
<linearGradient id="paint1_linear" x1="6" y1="2" x2="31.7662" y2="11.254" gradientUnits="userSpaceOnUse">
<stop offset="0.0989583" stop-color="#E4F7FF"/>
<stop offset="0.833333" stop-color="#1E88E5"/>
</linearGradient>
</defs>
</svg>
