<svg width="21" height="18" viewBox="0 0 21 18" fill="none" xmlns="http://www.w3.org/2000/svg">
<path d="M0.0400391 2.34788C0.0400391 1.72518 0.303431 1.12799 0.772272 0.687677C1.24111 0.247365 1.877 0 2.54004 0L17.54 0C18.2031 0 18.839 0.247365 19.3078 0.687677C19.7766 1.12799 20.04 1.72518 20.04 2.34788V11.7394C20.04 12.3621 19.7766 12.9593 19.3078 13.3996C18.839 13.8399 18.2031 14.0873 17.54 14.0873H14.415C14.221 14.0873 14.0296 14.1297 13.856 14.2112C13.6825 14.2927 13.5315 14.411 13.415 14.5568L11.04 17.5304C10.9236 17.6762 10.7726 17.7946 10.5991 17.8761C10.4255 17.9576 10.2341 18 10.04 18C9.84598 18 9.65459 17.9576 9.48102 17.8761C9.30745 17.7946 9.15647 17.6762 9.04004 17.5304L6.66504 14.5568C6.54861 14.411 6.39763 14.2927 6.22406 14.2112C6.05049 14.1297 5.8591 14.0873 5.66504 14.0873H2.54004C1.877 14.0873 1.24111 13.8399 0.772272 13.3996C0.303431 12.9593 0.0400391 12.3621 0.0400391 11.7394V2.34788ZM4.41504 3.52182C4.24928 3.52182 4.09031 3.58366 3.9731 3.69373C3.85589 3.80381 3.79004 3.95311 3.79004 4.10878C3.79004 4.26446 3.85589 4.41376 3.9731 4.52383C4.09031 4.63391 4.24928 4.69575 4.41504 4.69575H15.665C15.8308 4.69575 15.9898 4.63391 16.107 4.52383C16.2242 4.41376 16.29 4.26446 16.29 4.10878C16.29 3.95311 16.2242 3.80381 16.107 3.69373C15.9898 3.58366 15.8308 3.52182 15.665 3.52182H4.41504ZM4.41504 6.45666C4.24928 6.45666 4.09031 6.5185 3.9731 6.62858C3.85589 6.73866 3.79004 6.88796 3.79004 7.04363C3.79004 7.19931 3.85589 7.3486 3.9731 7.45868C4.09031 7.56876 4.24928 7.6306 4.41504 7.6306H15.665C15.8308 7.6306 15.9898 7.56876 16.107 7.45868C16.2242 7.3486 16.29 7.19931 16.29 7.04363C16.29 6.88796 16.2242 6.73866 16.107 6.62858C15.9898 6.5185 15.8308 6.45666 15.665 6.45666H4.41504ZM4.41504 9.39151C4.24928 9.39151 4.09031 9.45335 3.9731 9.56343C3.85589 9.6735 3.79004 9.8228 3.79004 9.97848C3.79004 10.1342 3.85589 10.2835 3.9731 10.3935C4.09031 10.5036 4.24928 10.5654 4.41504 10.5654H10.665C10.8308 10.5654 10.9898 10.5036 11.107 10.3935C11.2242 10.2835 11.29 10.1342 11.29 9.97848C11.29 9.8228 11.2242 9.6735 11.107 9.56343C10.9898 9.45335 10.8308 9.39151 10.665 9.39151H4.41504Z" fill="#E4E6EA"/>
</svg>
