<svg width="26" height="26" viewBox="0 0 26 26" fill="none" xmlns="http://www.w3.org/2000/svg">
<path fill-rule="evenodd" clip-rule="evenodd" d="M26 15.08C26 15.4937 25.8356 15.8905 25.5431 16.1831C25.2505 16.4756 24.8537 16.64 24.44 16.64H5.45999C5.04626 16.64 4.64946 16.4756 4.35691 16.1831C4.06435 15.8905 3.89999 15.4937 3.89999 15.08V1.56C3.89999 1.14626 4.06435 0.74947 4.35691 0.456913C4.64946 0.164357 5.04626 0 5.45999 0L24.44 0C24.8537 0 25.2505 0.164357 25.5431 0.456913C25.8356 0.74947 26 1.14626 26 1.56V15.08Z" fill="white"/>
<path fill-rule="evenodd" clip-rule="evenodd" d="M22.1 18.9801C22.1 19.8181 21.3876 20.5401 20.54 20.5401H17.16C16.8706 20.5401 16.64 20.7361 16.64 21.0601V25.7401C16.64 25.932 16.5742 26.0001 16.4016 26.0001C16.3413 26.0001 16.2791 25.96 16.1767 25.8813L9.94526 21.0601C9.16526 20.5401 8.35172 20.5385 8.35172 20.5385L1.53452 20.538C0.68692 20.538 0 19.8586 0 19.0206V5.72814C0 4.89068 0.75296 4.15592 1.56 4.16008H20.54C21.4661 4.16008 22.1 4.88236 22.1 5.72008V18.9801Z" fill="#1E88E5"/>
</svg>
