<svg width="25" height="24" viewBox="0 0 25 24" fill="none" xmlns="http://www.w3.org/2000/svg">
<path d="M21.875 1.5625C22.2894 1.5625 22.6868 1.72712 22.9799 2.02015C23.2729 2.31317 23.4375 2.7106 23.4375 3.125V15.625C23.4375 16.0394 23.2729 16.4368 22.9799 16.7299C22.6868 17.0229 22.2894 17.1875 21.875 17.1875H6.89688C6.06814 17.1877 5.27341 17.517 4.6875 18.1031L1.5625 21.2281V3.125C1.5625 2.7106 1.72712 2.31317 2.02015 2.02015C2.31317 1.72712 2.7106 1.5625 3.125 1.5625H21.875ZM3.125 0C2.2962 0 1.50134 0.32924 0.915291 0.915291C0.32924 1.50134 0 2.2962 0 3.125L0 23.1141C3.28357e-05 23.2686 0.0459259 23.4198 0.131871 23.5482C0.217816 23.6767 0.339948 23.7768 0.482811 23.8359C0.625675 23.8949 0.782845 23.9103 0.934431 23.88C1.08602 23.8497 1.2252 23.7751 1.33437 23.6656L5.79219 19.2078C6.08514 18.9148 6.48251 18.7501 6.89688 18.75H21.875C22.7038 18.75 23.4987 18.4208 24.0847 17.8347C24.6708 17.2487 25 16.4538 25 15.625V3.125C25 2.2962 24.6708 1.50134 24.0847 0.915291C23.4987 0.32924 22.7038 0 21.875 0L3.125 0Z" fill="white"/>
<path d="M5 5.78125C5 5.57405 5.08231 5.37534 5.22882 5.22882C5.37534 5.08231 5.57405 5 5.78125 5H19.8438C20.051 5 20.2497 5.08231 20.3962 5.22882C20.5427 5.37534 20.625 5.57405 20.625 5.78125C20.625 5.98845 20.5427 6.18716 20.3962 6.33368C20.2497 6.48019 20.051 6.5625 19.8438 6.5625H5.78125C5.57405 6.5625 5.37534 6.48019 5.22882 6.33368C5.08231 6.18716 5 5.98845 5 5.78125ZM5 9.6875C5 9.4803 5.08231 9.28159 5.22882 9.13507C5.37534 8.98856 5.57405 8.90625 5.78125 8.90625H19.8438C20.051 8.90625 20.2497 8.98856 20.3962 9.13507C20.5427 9.28159 20.625 9.4803 20.625 9.6875C20.625 9.8947 20.5427 10.0934 20.3962 10.2399C20.2497 10.3864 20.051 10.4688 19.8438 10.4688H5.78125C5.57405 10.4688 5.37534 10.3864 5.22882 10.2399C5.08231 10.0934 5 9.8947 5 9.6875ZM5 13.5938C5 13.3865 5.08231 13.1878 5.22882 13.0413C5.37534 12.8948 5.57405 12.8125 5.78125 12.8125H13.5938C13.801 12.8125 13.9997 12.8948 14.1462 13.0413C14.2927 13.1878 14.375 13.3865 14.375 13.5938C14.375 13.801 14.2927 13.9997 14.1462 14.1462C13.9997 14.2927 13.801 14.375 13.5938 14.375H5.78125C5.57405 14.375 5.37534 14.2927 5.22882 14.1462C5.08231 13.9997 5 13.801 5 13.5938Z" fill="white"/>
</svg>
