<svg width="25" height="27" viewBox="0 0 25 27" fill="none" xmlns="http://www.w3.org/2000/svg">
<path fill-rule="evenodd" clip-rule="evenodd" d="M2.91016 26.2365C2.91016 26.2365 0.910156 26.2365 0.910156 24.1274C0.910156 22.0183 2.91016 15.691 10.9102 15.691C18.9102 15.691 20.9102 22.0183 20.9102 24.1274C20.9102 26.2365 18.9102 26.2365 18.9102 26.2365H2.91016ZM10.9102 13.5819C12.5015 13.5819 14.0276 12.9153 15.1528 11.7287C16.278 10.5421 16.9102 8.93274 16.9102 7.25464C16.9102 5.57654 16.278 3.96718 15.1528 2.78058C14.0276 1.59399 12.5015 0.927368 10.9102 0.927368C9.31886 0.927368 7.79274 1.59399 6.66752 2.78058C5.5423 3.96718 4.91016 5.57654 4.91016 7.25464C4.91016 8.93274 5.5423 10.5421 6.66752 11.7287C7.79274 12.9153 9.31886 13.5819 10.9102 13.5819Z" fill="url(#paint0_linear)"/>
<path d="M22.8 6.552C23.1243 6.552 23.3888 6.66293 23.5936 6.8848C23.8155 7.0896 23.9264 7.35413 23.9264 7.6784C23.9264 8.00267 23.8155 8.27573 23.5936 8.4976C23.3888 8.7024 23.1243 8.8048 22.8 8.8048H18.8064V12.7728C18.8064 13.0971 18.6955 13.3701 18.4736 13.592C18.2688 13.8139 18.0043 13.9248 17.68 13.9248C17.3557 13.9248 17.0827 13.8139 16.8608 13.592C16.656 13.3701 16.5536 13.0971 16.5536 12.7728V8.8048H12.56C12.2357 8.8048 11.9627 8.7024 11.7408 8.4976C11.536 8.27573 11.4336 8.00267 11.4336 7.6784C11.4336 7.35413 11.536 7.0896 11.7408 6.8848C11.9627 6.66293 12.2357 6.552 12.56 6.552H16.5536V2.5584C16.5536 2.23413 16.656 1.9696 16.8608 1.7648C17.0827 1.54293 17.3557 1.432 17.68 1.432C18.0043 1.432 18.2688 1.54293 18.4736 1.7648C18.6955 1.9696 18.8064 2.23413 18.8064 2.5584V6.552H22.8Z" fill="#4CA8ED"/>
<path d="M23.5936 6.8848L23.0058 7.42742L23.0275 7.45094L23.051 7.47264L23.5936 6.8848ZM23.5936 8.4976L23.0279 7.93191V7.93191L23.5936 8.4976ZM18.8064 8.8048V8.0048H18.0064V8.8048H18.8064ZM18.4736 13.592L17.9079 13.0263L17.8966 13.0376L17.8858 13.0494L18.4736 13.592ZM16.8608 13.592L16.273 14.1346L16.2838 14.1464L16.2951 14.1577L16.8608 13.592ZM16.5536 8.8048H17.3536V8.0048H16.5536V8.8048ZM11.7408 8.4976L11.153 9.04022L11.1747 9.06374L11.1982 9.08544L11.7408 8.4976ZM11.7408 6.8848L12.3065 7.45049L12.3065 7.45048L11.7408 6.8848ZM16.5536 6.552V7.352H17.3536V6.552H16.5536ZM16.8608 1.7648L16.2951 1.19911L16.2951 1.19911L16.8608 1.7648ZM18.4736 1.7648L17.8858 2.30742L17.9075 2.33094L17.931 2.35264L18.4736 1.7648ZM18.8064 6.552H18.0064V7.352H18.8064V6.552ZM22.8 7.352C22.9195 7.352 22.9645 7.38274 23.0058 7.42742L24.1814 6.34218C23.8131 5.94313 23.329 5.752 22.8 5.752V7.352ZM23.051 7.47264C23.0957 7.51389 23.1264 7.55891 23.1264 7.6784H24.7264C24.7264 7.14935 24.5353 6.66531 24.1362 6.29696L23.051 7.47264ZM23.1264 7.6784C23.1264 7.79843 23.0942 7.86559 23.0279 7.93191L24.1593 9.06328C24.5367 8.68587 24.7264 8.2069 24.7264 7.6784H23.1264ZM23.0279 7.93191C22.9917 7.96815 22.9398 8.0048 22.8 8.0048V9.6048C23.3087 9.6048 23.7859 9.43665 24.1593 9.06328L23.0279 7.93191ZM22.8 8.0048H18.8064V9.6048H22.8V8.0048ZM18.0064 8.8048V12.7728H19.6064V8.8048H18.0064ZM18.0064 12.7728C18.0064 12.8928 17.9742 12.96 17.9079 13.0263L19.0393 14.1577C19.4167 13.7803 19.6064 13.3013 19.6064 12.7728H18.0064ZM17.8858 13.0494C17.8445 13.0941 17.7995 13.1248 17.68 13.1248V14.7248C18.209 14.7248 18.6931 14.5337 19.0614 14.1346L17.8858 13.0494ZM17.68 13.1248C17.56 13.1248 17.4928 13.0926 17.4265 13.0263L16.2951 14.1577C16.6725 14.5351 17.1515 14.7248 17.68 14.7248V13.1248ZM17.4486 13.0494C17.3909 12.9868 17.3536 12.9122 17.3536 12.7728H15.7536C15.7536 13.2819 15.9211 13.7535 16.273 14.1346L17.4486 13.0494ZM17.3536 12.7728V8.8048H15.7536V12.7728H17.3536ZM16.5536 8.0048H12.56V9.6048H16.5536V8.0048ZM12.56 8.0048C12.4206 8.0048 12.346 7.96751 12.2834 7.90976L11.1982 9.08544C11.5793 9.43729 12.0509 9.6048 12.56 9.6048V8.0048ZM12.3286 7.95498C12.2709 7.89241 12.2336 7.8178 12.2336 7.6784H10.6336C10.6336 8.18753 10.8011 8.65906 11.153 9.04022L12.3286 7.95498ZM12.2336 7.6784C12.2336 7.53857 12.2703 7.48672 12.3065 7.45049L11.1751 6.31911C10.8018 6.69248 10.6336 7.16969 10.6336 7.6784H12.2336ZM12.3065 7.45048C12.3728 7.38417 12.44 7.352 12.56 7.352V5.752C12.0315 5.752 11.5525 5.9417 11.1751 6.31911L12.3065 7.45048ZM12.56 7.352H16.5536V5.752H12.56V7.352ZM17.3536 6.552V2.5584H15.7536V6.552H17.3536ZM17.3536 2.5584C17.3536 2.41857 17.3903 2.36672 17.4265 2.33048L16.2951 1.19911C15.9218 1.57248 15.7536 2.04969 15.7536 2.5584H17.3536ZM17.4265 2.33048C17.4928 2.26416 17.56 2.232 17.68 2.232V0.631998C17.1515 0.631998 16.6725 0.821698 16.2951 1.19911L17.4265 2.33048ZM17.68 2.232C17.7995 2.232 17.8445 2.26274 17.8858 2.30742L19.0614 1.22217C18.6931 0.823125 18.209 0.631998 17.68 0.631998V2.232ZM17.931 2.35264C17.9757 2.39389 18.0064 2.43891 18.0064 2.5584H19.6064C19.6064 2.02935 19.4153 1.54531 19.0162 1.17696L17.931 2.35264ZM18.0064 2.5584V6.552H19.6064V2.5584H18.0064ZM18.8064 7.352H22.8V5.752H18.8064V7.352Z" fill="#37393E"/>
<defs>
<linearGradient id="paint0_linear" x1="0.910156" y1="0.927368" x2="26.6764" y2="10.1813" gradientUnits="userSpaceOnUse">
<stop offset="0.0989583" stop-color="#94DAF9"/>
<stop offset="0.833333" stop-color="#1E88E5"/>
</linearGradient>
</defs>
</svg>
