<svg width="22" height="21" viewBox="0 0 22 21" fill="none" xmlns="http://www.w3.org/2000/svg">
<path fill-rule="evenodd" clip-rule="evenodd" d="M1.5 21C1.5 21 0 21 0 19.5C0 18 1.5 13.5 7.5 13.5C13.5 13.5 15 18 15 19.5C15 21 13.5 21 13.5 21H1.5ZM7.5 12C8.69347 12 9.83807 11.5259 10.682 10.682C11.5259 9.83807 12 8.69347 12 7.5C12 6.30653 11.5259 5.16193 10.682 4.31802C9.83807 3.47411 8.69347 3 7.5 3C6.30653 3 5.16193 3.47411 4.31802 4.31802C3.47411 5.16193 3 6.30653 3 7.5C3 8.69347 3.47411 9.83807 4.31802 10.682C5.16193 11.5259 6.30653 12 7.5 12Z" fill="#BFBFC1"/>
<path d="M19.8 6.552C20.1243 6.552 20.3888 6.66293 20.5936 6.8848C20.8155 7.0896 20.9264 7.35413 20.9264 7.6784C20.9264 8.00267 20.8155 8.27573 20.5936 8.4976C20.3888 8.7024 20.1243 8.8048 19.8 8.8048H15.8064V12.7728C15.8064 13.0971 15.6955 13.3701 15.4736 13.592C15.2688 13.8139 15.0043 13.9248 14.68 13.9248C14.3557 13.9248 14.0827 13.8139 13.8608 13.592C13.656 13.3701 13.5536 13.0971 13.5536 12.7728V8.8048H9.56C9.23573 8.8048 8.96267 8.7024 8.7408 8.4976C8.536 8.27573 8.4336 8.00267 8.4336 7.6784C8.4336 7.35413 8.536 7.0896 8.7408 6.8848C8.96267 6.66293 9.23573 6.552 9.56 6.552H13.5536V2.5584C13.5536 2.23413 13.656 1.9696 13.8608 1.7648C14.0827 1.54293 14.3557 1.432 14.68 1.432C15.0043 1.432 15.2688 1.54293 15.4736 1.7648C15.6955 1.9696 15.8064 2.23413 15.8064 2.5584V6.552H19.8Z" fill="#BFBFC1"/>
<path d="M20.5936 6.8848L20.0058 7.42742L20.0275 7.45094L20.051 7.47264L20.5936 6.8848ZM20.5936 8.4976L20.0279 7.93191V7.93191L20.5936 8.4976ZM15.8064 8.8048V8.0048H15.0064V8.8048H15.8064ZM15.4736 13.592L14.9079 13.0263L14.8966 13.0376L14.8858 13.0494L15.4736 13.592ZM13.8608 13.592L13.273 14.1346L13.2838 14.1464L13.2951 14.1577L13.8608 13.592ZM13.5536 8.8048H14.3536V8.0048H13.5536V8.8048ZM8.7408 8.4976L8.15296 9.04022L8.17466 9.06374L8.19818 9.08544L8.7408 8.4976ZM8.7408 6.8848L9.30649 7.45049L9.30649 7.45048L8.7408 6.8848ZM13.5536 6.552V7.352H14.3536V6.552H13.5536ZM13.8608 1.7648L13.2951 1.19911L13.2951 1.19911L13.8608 1.7648ZM15.4736 1.7648L14.8858 2.30742L14.9075 2.33094L14.931 2.35264L15.4736 1.7648ZM15.8064 6.552H15.0064V7.352H15.8064V6.552ZM19.8 7.352C19.9195 7.352 19.9645 7.38274 20.0058 7.42742L21.1814 6.34218C20.8131 5.94313 20.329 5.752 19.8 5.752V7.352ZM20.051 7.47264C20.0957 7.51389 20.1264 7.55891 20.1264 7.6784H21.7264C21.7264 7.14935 21.5353 6.66531 21.1362 6.29696L20.051 7.47264ZM20.1264 7.6784C20.1264 7.79843 20.0942 7.86559 20.0279 7.93191L21.1593 9.06328C21.5367 8.68587 21.7264 8.2069 21.7264 7.6784H20.1264ZM20.0279 7.93191C19.9917 7.96815 19.9398 8.0048 19.8 8.0048V9.6048C20.3087 9.6048 20.7859 9.43665 21.1593 9.06328L20.0279 7.93191ZM19.8 8.0048H15.8064V9.6048H19.8V8.0048ZM15.0064 8.8048V12.7728H16.6064V8.8048H15.0064ZM15.0064 12.7728C15.0064 12.8928 14.9742 12.96 14.9079 13.0263L16.0393 14.1577C16.4167 13.7803 16.6064 13.3013 16.6064 12.7728H15.0064ZM14.8858 13.0494C14.8445 13.0941 14.7995 13.1248 14.68 13.1248V14.7248C15.209 14.7248 15.6931 14.5337 16.0614 14.1346L14.8858 13.0494ZM14.68 13.1248C14.56 13.1248 14.4928 13.0926 14.4265 13.0263L13.2951 14.1577C13.6725 14.5351 14.1515 14.7248 14.68 14.7248V13.1248ZM14.4486 13.0494C14.3909 12.9868 14.3536 12.9122 14.3536 12.7728H12.7536C12.7536 13.2819 12.9211 13.7535 13.273 14.1346L14.4486 13.0494ZM14.3536 12.7728V8.8048H12.7536V12.7728H14.3536ZM13.5536 8.0048H9.56V9.6048H13.5536V8.0048ZM9.56 8.0048C9.4206 8.0048 9.34599 7.96751 9.28342 7.90976L8.19818 9.08544C8.57934 9.43729 9.05087 9.6048 9.56 9.6048V8.0048ZM9.32864 7.95498C9.27089 7.89241 9.2336 7.8178 9.2336 7.6784H7.6336C7.6336 8.18753 7.80111 8.65906 8.15296 9.04022L9.32864 7.95498ZM9.2336 7.6784C9.2336 7.53857 9.27025 7.48672 9.30649 7.45049L8.17511 6.31911C7.80175 6.69248 7.6336 7.16969 7.6336 7.6784H9.2336ZM9.30649 7.45048C9.3728 7.38417 9.43997 7.352 9.56 7.352V5.752C9.03149 5.752 8.55253 5.9417 8.17511 6.31911L9.30649 7.45048ZM9.56 7.352H13.5536V5.752H9.56V7.352ZM14.3536 6.552V2.5584H12.7536V6.552H14.3536ZM14.3536 2.5584C14.3536 2.41857 14.3903 2.36672 14.4265 2.33048L13.2951 1.19911C12.9218 1.57248 12.7536 2.04969 12.7536 2.5584H14.3536ZM14.4265 2.33048C14.4928 2.26416 14.56 2.232 14.68 2.232V0.631998C14.1515 0.631998 13.6725 0.821698 13.2951 1.19911L14.4265 2.33048ZM14.68 2.232C14.7995 2.232 14.8445 2.26274 14.8858 2.30742L16.0614 1.22217C15.6931 0.823125 15.209 0.631998 14.68 0.631998V2.232ZM14.931 2.35264C14.9757 2.39389 15.0064 2.43891 15.0064 2.5584H16.6064C16.6064 2.02935 16.4153 1.54531 16.0162 1.17696L14.931 2.35264ZM15.0064 2.5584V6.552H16.6064V2.5584H15.0064ZM15.8064 7.352H19.8V5.752H15.8064V7.352Z" fill="#37393E"/>
</svg>
