<svg width="24" height="17" viewBox="0 0 24 17" fill="none" xmlns="http://www.w3.org/2000/svg">
<path fill-rule="evenodd" clip-rule="evenodd" d="M1.71429 16.7999H16.2857C16.7404 16.7999 17.1764 16.6229 17.4979 16.3079C17.8194 15.9928 18 15.5655 18 15.1199V11.7095L22.6457 14.9603C22.7736 15.0496 22.9241 15.1027 23.0808 15.1139C23.2374 15.125 23.3941 15.0938 23.5339 15.0236C23.6736 14.9534 23.791 14.8469 23.8732 14.7157C23.9554 14.5846 23.9993 14.4338 24 14.2799V2.51994C23.9993 2.36604 23.9554 2.21529 23.8732 2.08415C23.791 1.95301 23.6736 1.84653 23.5339 1.77631C23.3941 1.7061 23.2374 1.67487 23.0808 1.68602C22.9241 1.69717 22.7736 1.75027 22.6457 1.83954L18 5.09034V1.67994C18 1.23438 17.8194 0.807061 17.4979 0.491999C17.1764 0.176938 16.7404 -6.10352e-05 16.2857 -6.10352e-05H1.71429C1.25963 -6.10352e-05 0.823594 0.176938 0.502103 0.491999C0.180612 0.807061 0 1.23438 0 1.67994V15.1199C0 15.5655 0.180612 15.9928 0.502103 16.3079C0.823594 16.6229 1.25963 16.7999 1.71429 16.7999ZM8.93331 3.59994C9.07279 3.59994 9.20656 3.65535 9.30519 3.75398C9.40382 3.85261 9.45923 3.98638 9.45923 4.12586V7.80714H13.1407C13.2802 7.80714 13.414 7.86255 13.5126 7.96118C13.6112 8.05981 13.6667 8.19358 13.6667 8.33306C13.6667 8.47255 13.6112 8.60632 13.5126 8.70495C13.414 8.80358 13.2802 8.85899 13.1407 8.85899H9.45927V12.5405C9.45927 12.6799 9.40386 12.8137 9.30523 12.9123C9.2066 13.011 9.07283 13.0664 8.93334 13.0664C8.79386 13.0664 8.66009 13.011 8.56146 12.9123C8.46283 12.8137 8.40742 12.6799 8.40742 12.5405V8.85917H4.72592C4.58644 8.85917 4.45267 8.80376 4.35404 8.70513C4.25541 8.6065 4.2 8.47273 4.2 8.33325C4.2 8.19377 4.25541 8.06 4.35404 7.96137C4.45267 7.86274 4.58644 7.80733 4.72592 7.80733H8.40739V4.12586C8.40739 3.98638 8.4628 3.85261 8.56143 3.75398C8.66006 3.65535 8.79383 3.59994 8.93331 3.59994Z" fill="#BFBFC1"/>
</svg>
