<svg width="3062" height="776" viewBox="0 0 3062 776" fill="none" xmlns="http://www.w3.org/2000/svg">
<path fill-rule="evenodd" clip-rule="evenodd" d="M109.806 497.034C170.451 497.034 219.613 447.089 219.613 385.48C219.613 323.871 170.451 273.926 109.806 273.926C49.162 273.926 0 323.871 0 385.48C0 447.089 49.162 497.034 109.806 497.034Z" fill="#81D4F9"/>
<path fill-rule="evenodd" clip-rule="evenodd" d="M335.878 726.703C396.523 726.703 445.685 676.759 445.685 615.149C445.685 553.54 396.523 503.596 335.878 503.596C275.234 503.596 226.072 553.54 226.072 615.149C226.072 676.759 275.234 726.703 335.878 726.703Z" fill="#C0E9FC"/>
<path fill-rule="evenodd" clip-rule="evenodd" d="M555.491 497.034C616.136 497.034 665.298 447.089 665.298 385.48C665.298 323.871 616.136 273.926 555.491 273.926C494.847 273.926 445.685 323.871 445.685 385.48C445.685 447.089 494.847 497.034 555.491 497.034Z" fill="#03A9F4"/>
<path fill-rule="evenodd" clip-rule="evenodd" d="M335.878 273.926C396.523 273.926 445.685 223.982 445.685 162.373C445.685 100.763 396.523 50.8189 335.878 50.8189C275.234 50.8189 226.072 100.763 226.072 162.373C226.072 223.982 275.234 273.926 335.878 273.926Z" fill="#4EC2F7"/>
<path d="M1289.09 503.251C1282.27 513.474 1273.94 523.13 1264.1 532.218C1254.63 541.305 1243.46 549.257 1230.59 556.073C1218.09 562.888 1204.08 568.189 1188.55 571.976C1173.41 576.141 1156.75 578.224 1138.57 578.224C1108.28 578.224 1080.26 572.922 1054.51 562.32C1028.76 551.718 1006.61 537.14 988.059 518.586C969.505 499.654 954.927 477.313 944.325 451.565C934.102 425.817 928.99 397.607 928.99 366.937C928.99 336.266 934.291 308.056 944.893 282.308C955.495 256.56 970.073 234.409 988.627 215.855C1007.56 196.922 1029.71 182.155 1055.08 171.553C1080.83 160.951 1108.66 155.649 1138.57 155.649C1153.34 155.649 1167.73 157.164 1181.74 160.193C1196.13 163.222 1209.57 167.577 1222.07 173.257C1234.56 178.558 1245.92 185.184 1256.14 193.136C1266.37 200.709 1274.89 209.418 1281.7 219.263L1247.62 244.254C1243.46 237.817 1237.78 231.38 1230.59 224.943C1223.77 218.505 1215.63 212.826 1206.16 207.903C1196.7 202.981 1186.28 199.005 1174.92 195.976C1163.94 192.947 1152.02 191.432 1139.14 191.432C1113.01 191.432 1089.54 196.165 1068.71 205.631C1048.26 215.098 1030.85 227.972 1016.46 244.254C1002.07 260.157 991.089 278.711 983.516 299.915C975.943 321.12 972.156 343.46 972.156 366.937C972.156 390.413 975.943 412.753 983.516 433.958C991.467 455.162 1002.64 473.905 1017.03 490.187C1031.41 506.091 1048.83 518.775 1069.28 528.242C1090.11 537.708 1113.39 542.441 1139.14 542.441C1162.24 542.441 1184.2 537.708 1205.03 528.242C1225.85 518.775 1243.27 503.629 1257.28 482.804L1289.09 503.251ZM1405.22 568H1366.6V302.187H1405.22V568ZM1413.17 199.952C1413.17 207.903 1410.33 214.53 1404.65 219.831C1398.97 224.753 1392.72 227.214 1385.91 227.214C1379.09 227.214 1372.84 224.753 1367.17 219.831C1361.49 214.53 1358.65 207.903 1358.65 199.952C1358.65 192 1361.49 185.563 1367.17 180.64C1372.84 175.339 1379.09 172.689 1385.91 172.689C1392.72 172.689 1398.97 175.339 1404.65 180.64C1410.33 185.563 1413.17 192 1413.17 199.952ZM1516.96 360.689C1516.96 353.494 1516.77 344.217 1516.4 332.858C1516.02 321.498 1515.45 311.275 1514.69 302.187H1551.61C1552.37 309.382 1552.94 317.333 1553.31 326.042C1553.69 334.751 1553.88 341.946 1553.88 347.625H1555.02C1562.59 332.101 1573.95 319.605 1589.1 310.139C1604.24 300.294 1621.28 295.372 1640.21 295.372C1645.14 295.372 1649.49 295.561 1653.28 295.94C1657.44 296.318 1661.61 297.075 1665.77 298.211L1660.66 334.562C1658.39 333.805 1654.6 333.047 1649.3 332.29C1644 331.533 1638.7 331.154 1633.4 331.154C1623.18 331.154 1613.33 333.047 1603.86 336.834C1594.4 340.62 1586.07 346.679 1578.87 355.009C1572.06 362.961 1566.38 373.374 1561.83 386.248C1557.67 398.743 1555.59 413.889 1555.59 431.686V568H1516.96V360.689ZM1912 362.961C1905.56 352.737 1896.1 344.407 1883.6 337.97C1871.48 331.154 1858.23 327.746 1843.84 327.746C1828.32 327.746 1814.31 330.586 1801.81 336.266C1789.32 341.567 1778.53 349.14 1769.44 358.985C1760.73 368.451 1753.91 379.811 1748.99 393.063C1744.45 405.938 1742.18 419.948 1742.18 435.094C1742.18 450.24 1744.45 464.25 1748.99 477.124C1753.91 489.998 1760.73 501.357 1769.44 511.202C1778.15 520.669 1788.75 528.242 1801.24 533.921C1813.74 539.223 1827.75 541.873 1843.27 541.873C1860.31 541.873 1874.7 538.655 1886.44 532.218C1898.18 525.78 1907.83 517.45 1915.41 507.227L1944.37 528.81C1933.02 542.82 1919 553.99 1902.34 562.32C1886.06 570.651 1866.37 574.816 1843.27 574.816C1821.69 574.816 1802.19 571.408 1784.77 564.592C1767.36 557.398 1752.4 547.553 1739.9 535.057C1727.79 522.562 1718.32 507.795 1711.5 490.755C1704.69 473.716 1701.28 455.162 1701.28 435.094C1701.28 415.025 1704.69 396.471 1711.5 379.432C1718.32 362.393 1727.79 347.625 1739.9 335.13C1752.4 322.634 1767.36 312.979 1784.77 306.163C1802.19 298.969 1821.69 295.372 1843.27 295.372C1861.07 295.372 1879.06 299.347 1897.23 307.299C1915.79 314.872 1930.74 326.232 1942.1 341.378L1912 362.961ZM2053.28 568H2014.66V138.61H2053.28V568ZM2368.33 414.646C2367.2 389.656 2359.06 369.019 2343.91 352.737C2329.14 336.076 2307.94 327.746 2280.3 327.746C2267.42 327.746 2255.49 330.207 2244.51 335.13C2233.53 339.674 2223.88 346.111 2215.55 354.441C2207.22 362.393 2200.59 371.67 2195.67 382.272C2190.75 392.495 2187.91 403.287 2187.15 414.646H2368.33ZM2407.52 427.142C2407.52 429.793 2407.52 432.632 2407.52 435.662C2407.52 438.691 2407.33 441.909 2406.95 445.317H2186.58C2186.96 458.57 2189.61 471.065 2194.53 482.804C2199.45 494.542 2206.27 504.765 2214.98 513.474C2223.69 522.183 2233.91 529.188 2245.65 534.489C2257.39 539.412 2270.07 541.873 2283.7 541.873C2303.77 541.873 2321 537.329 2335.39 528.242C2350.16 518.775 2361.33 507.984 2368.9 495.867L2397.87 518.586C2381.96 538.655 2364.36 553.043 2345.05 561.752C2326.11 570.461 2305.67 574.816 2283.7 574.816C2264.01 574.816 2245.65 571.408 2228.61 564.592C2211.95 557.398 2197.56 547.553 2185.44 535.057C2173.33 522.562 2163.67 507.795 2156.48 490.755C2149.66 473.716 2146.25 455.162 2146.25 435.094C2146.25 415.025 2149.66 396.471 2156.48 379.432C2163.29 362.393 2172.76 347.625 2184.88 335.13C2196.99 322.634 2211.19 312.979 2227.47 306.163C2243.76 298.969 2261.36 295.372 2280.3 295.372C2301.12 295.372 2319.49 298.969 2335.39 306.163C2351.29 312.979 2364.55 322.445 2375.15 334.562C2385.75 346.3 2393.7 360.121 2399 376.024C2404.68 391.927 2407.52 408.967 2407.52 427.142ZM2489.88 568V165.873H2587.58V568H2489.88ZM2860.07 568V413.511C2860.07 405.559 2859.31 397.986 2857.79 390.791C2856.66 383.597 2854.58 377.349 2851.55 372.048C2848.52 366.369 2844.16 362.014 2838.48 358.985C2833.18 355.577 2826.37 353.873 2818.04 353.873C2809.71 353.873 2802.32 355.577 2795.88 358.985C2789.83 362.014 2784.71 366.369 2780.55 372.048C2776.38 377.728 2773.17 384.354 2770.89 391.927C2769 399.122 2768.05 406.695 2768.05 414.646V568H2674.34V285.148H2764.65V324.338H2765.78C2769.19 318.28 2773.54 312.411 2778.85 306.731C2784.52 300.673 2790.96 295.561 2798.16 291.396C2805.73 287.231 2813.87 283.823 2822.58 281.172C2831.29 278.522 2840.57 277.196 2850.41 277.196C2869.34 277.196 2885.44 280.604 2898.69 287.42C2911.94 294.236 2922.54 303.134 2930.49 314.115C2938.83 324.717 2944.69 337.023 2948.1 351.033C2951.89 365.043 2953.78 379.053 2953.78 393.063V568H2860.07Z" fill="#03A9F4"/>
</svg>
