<svg width="820" height="820" viewBox="0 0 820 820" fill="none" xmlns="http://www.w3.org/2000/svg">
<path fill-rule="evenodd" clip-rule="evenodd" d="M136.054 545.561C211.194 545.561 272.108 484.647 272.108 409.507C272.108 334.366 211.194 273.453 136.054 273.453C60.9134 273.453 0 334.366 0 409.507C0 484.647 60.9134 545.561 136.054 545.561Z" fill="#7BCEF3"/>
<path fill-rule="evenodd" clip-rule="evenodd" d="M409.655 820C484.795 820 545.708 759.087 545.708 683.946C545.708 608.806 484.795 547.892 409.655 547.892C334.514 547.892 273.601 608.806 273.601 683.946C273.601 759.087 334.514 820 409.655 820Z" fill="#B6DFF2"/>
<path fill-rule="evenodd" clip-rule="evenodd" d="M683.946 545.561C759.087 545.561 820 484.647 820 409.507C820 334.366 759.087 273.453 683.946 273.453C608.806 273.453 547.892 334.366 547.892 409.507C547.892 484.647 608.806 545.561 683.946 545.561Z" fill="#03A9F4"/>
<path fill-rule="evenodd" clip-rule="evenodd" d="M409.655 272.108C484.795 272.108 545.708 211.194 545.708 136.054C545.708 60.9134 484.795 0 409.655 0C334.514 0 273.601 60.9134 273.601 136.054C273.601 211.194 334.514 272.108 409.655 272.108Z" fill="#4ABEF3"/>
</svg>
