<svg width="25" height="25" viewBox="0 0 25 25" fill="none" xmlns="http://www.w3.org/2000/svg">
<path d="M12.5 7.5L19.1667 10.8333V24.1667H5.83333V10.8333L12.5 7.5ZM12.5 7.5V0V7.5ZM0 24.1667H25H0ZM2.5 24.1667V14.1667H5.83333L2.5 24.1667ZM22.5 24.1667V14.1667H19.1667L22.5 24.1667ZM10.8333 24.1667V19.1667H14.1667V24.1667H10.8333ZM12.5 0.833333H17.5V4.16667H12.5V0.833333ZM12.5 15.8333C12.058 15.8333 11.634 15.6577 11.3215 15.3452C11.0089 15.0326 10.8333 14.6087 10.8333 14.1667C10.8333 13.7246 11.0089 13.3007 11.3215 12.9882C11.634 12.6756 12.058 12.5 12.5 12.5C12.942 12.5 13.366 12.6756 13.6785 12.9882C13.9911 13.3007 14.1667 13.7246 14.1667 14.1667C14.1667 14.6087 13.9911 15.0326 13.6785 15.3452C13.366 15.6577 12.942 15.8333 12.5 15.8333Z" stroke="white"/>
</svg>
