<svg width="48" height="48" viewBox="0 0 48 48" fill="none" xmlns="http://www.w3.org/2000/svg">
<path fill-rule="evenodd" clip-rule="evenodd" d="M17.5641 23.907C17.1901 23.72 16.75 23.992 16.75 24.4101V26.5274C16.75 26.7404 16.8704 26.9352 17.0609 27.0305L23.2484 30.1242C23.4068 30.2034 23.5932 30.2034 23.7516 30.1242L29.9391 27.0305C30.1296 26.9352 30.25 26.7404 30.25 26.5274V24.4101C30.25 23.992 29.8099 23.72 29.4359 23.907L23.7516 26.7492C23.5932 26.8284 23.4068 26.8284 23.2484 26.7492L17.5641 23.907Z" fill="white"/>
<path fill-rule="evenodd" clip-rule="evenodd" d="M23.7285 15.7265C23.583 15.6619 23.417 15.6619 23.2715 15.7265L14.5315 19.611C14.0861 19.8089 14.0861 20.4411 14.5315 20.639L23.2756 24.5253C23.4187 24.5889 23.5818 24.59 23.7257 24.5283L30.5909 21.586C30.9621 21.427 31.375 21.6992 31.375 22.1031V25.1875C31.375 25.4982 31.6268 25.75 31.9375 25.75H33.0625C33.3732 25.75 33.625 25.4982 33.625 25.1875V20.4906C33.625 20.2683 33.4941 20.0668 33.291 19.9765L23.7285 15.7265Z" fill="white"/>
</svg>
