<svg width="25" height="25" viewBox="0 0 25 25" fill="none" xmlns="http://www.w3.org/2000/svg">
<g clip-path="url(#clip0)">
<path d="M12.8906 4.60938C12.8906 4.80469 12.6953 5 12.5 5C12.3047 5 12.1094 4.80469 12.1094 4.60938V0.390625C12.1094 0.15625 12.3047 0 12.5 0C12.6953 0 12.8906 0.15625 12.8906 0.390625V4.60938Z" fill="#B2C1C0"/>
<path d="M1.5625 10.9375H23.4375V23.4375H1.5625V10.9375Z" fill="#E5DEC1"/>
<path d="M23.6328 7.73437C23.4375 7.34375 22.9297 7.03125 22.461 7.03125H2.50002C2.07033 7.03125 1.52346 7.34375 1.32815 7.73437L0.0390833 10.2344C-0.156229 10.625 0.0390833 10.9375 0.468771 10.9375H24.4531C24.8828 10.9375 25.0781 10.625 24.8828 10.2344L23.6328 7.73437Z" fill="#D33B23"/>
<path d="M5.85938 17.5781C5.85938 17.7734 5.70312 17.9688 5.46875 17.9688H3.125C2.89062 17.9688 2.73438 17.7734 2.73438 17.5781V16.0156C2.73438 15.8203 2.89062 15.625 3.125 15.625H5.46875C5.70312 15.625 5.85938 15.8203 5.85938 16.0156V17.5781Z" fill="#D6EEF0"/>
<path d="M5.85938 13.6719C5.85938 13.8672 5.70312 14.0625 5.46875 14.0625H3.125C2.89062 14.0625 2.73438 13.8672 2.73438 13.6719V12.1094C2.73438 11.9141 2.89062 11.7188 3.125 11.7188H5.46875C5.70312 11.7188 5.85938 11.9141 5.85938 12.1094V13.6719Z" fill="#D6EEF0"/>
<path d="M5.46875 14.2578H3.125C2.8125 14.2578 2.53906 13.9844 2.53906 13.6719V12.1094C2.53906 11.7969 2.8125 11.5234 3.125 11.5234H5.46875C5.78125 11.5234 6.05469 11.7969 6.05469 12.1094V13.6719C6.05469 13.9844 5.78125 14.2578 5.46875 14.2578ZM3.125 11.9141C3.00781 11.9141 2.92969 11.9922 2.92969 12.1094V13.6719C2.92969 13.7891 3.00781 13.8672 3.125 13.8672H5.46875C5.58594 13.8672 5.66406 13.7891 5.66406 13.6719V12.1094C5.66406 11.9922 5.58594 11.9141 5.46875 11.9141H3.125Z" fill="#DBB471"/>
<path d="M4.10156 11.7188H4.49219V14.0625H4.10156V11.7188Z" fill="#DBB471"/>
<path d="M5.46875 18.3594H3.125C2.8125 18.3594 2.53906 18.0859 2.53906 17.7734V16.2109C2.53906 15.8984 2.8125 15.625 3.125 15.625H5.46875C5.78125 15.625 6.05469 15.8984 6.05469 16.2109V17.7734C6.05469 18.0859 5.78125 18.3594 5.46875 18.3594ZM3.125 16.0156C3.00781 16.0156 2.92969 16.0938 2.92969 16.2109V17.7734C2.92969 17.8906 3.00781 17.9688 3.125 17.9688H5.46875C5.58594 17.9688 5.66406 17.8906 5.66406 17.7734V16.2109C5.66406 16.0938 5.58594 16.0156 5.46875 16.0156H3.125Z" fill="#DBB471"/>
<path d="M4.10156 15.8203H4.49219V18.1641H4.10156V15.8203Z" fill="#DBB471"/>
<path d="M5.85938 21.4844C5.85938 21.6797 5.70312 21.875 5.46875 21.875H3.125C2.89062 21.875 2.73438 21.6797 2.73438 21.4844V19.9219C2.73438 19.7266 2.89062 19.5312 3.125 19.5312H5.46875C5.70312 19.5312 5.85938 19.7266 5.85938 19.9219V21.4844Z" fill="#D6EEF0"/>
<path d="M5.46875 22.2656H3.125C2.8125 22.2656 2.53906 21.9922 2.53906 21.6797V20.1172C2.53906 19.8047 2.8125 19.5312 3.125 19.5312H5.46875C5.78125 19.5312 6.05469 19.8047 6.05469 20.1172V21.6797C6.05469 21.9922 5.78125 22.2656 5.46875 22.2656ZM3.125 19.9219C3.00781 19.9219 2.92969 20 2.92969 20.1172V21.6797C2.92969 21.7969 3.00781 21.875 3.125 21.875H5.46875C5.58594 21.875 5.66406 21.7969 5.66406 21.6797V20.1172C5.66406 20 5.58594 19.9219 5.46875 19.9219H3.125Z" fill="#DBB471"/>
<path d="M4.10156 19.7266H4.49219V22.0703H4.10156V19.7266Z" fill="#DBB471"/>
<path d="M22.2656 17.5781C22.2656 17.7734 22.0703 17.9688 21.875 17.9688H19.5312C19.3359 17.9688 19.1406 17.7734 19.1406 17.5781V16.0156C19.1406 15.8203 19.3359 15.625 19.5312 15.625H21.875C22.0703 15.625 22.2656 15.8203 22.2656 16.0156V17.5781Z" fill="#D6EEF0"/>
<path d="M22.2656 13.6719C22.2656 13.8672 22.0703 14.0625 21.875 14.0625H19.5312C19.3359 14.0625 19.1406 13.8672 19.1406 13.6719V12.1094C19.1406 11.9141 19.3359 11.7188 19.5312 11.7188H21.875C22.0703 11.7188 22.2656 11.9141 22.2656 12.1094V13.6719Z" fill="#D6EEF0"/>
<path d="M21.875 14.2578H19.5312C19.2188 14.2578 18.9453 13.9844 18.9453 13.6719V12.1094C18.9453 11.7969 19.2188 11.5234 19.5312 11.5234H21.875C22.1875 11.5234 22.4609 11.7969 22.4609 12.1094V13.6719C22.4609 13.9844 22.1875 14.2578 21.875 14.2578ZM19.5312 11.9141C19.4141 11.9141 19.3359 11.9922 19.3359 12.1094V13.6719C19.3359 13.7891 19.4141 13.8672 19.5312 13.8672H21.875C21.9922 13.8672 22.0703 13.7891 22.0703 13.6719V12.1094C22.0703 11.9922 21.9922 11.9141 21.875 11.9141H19.5312Z" fill="#DBB471"/>
<path d="M20.5078 11.7188H20.8984V14.0625H20.5078V11.7188Z" fill="#DBB471"/>
<path d="M21.875 18.3594H19.5312C19.2188 18.3594 18.9453 18.0859 18.9453 17.7734V16.2109C18.9453 15.8984 19.2188 15.625 19.5312 15.625H21.875C22.1875 15.625 22.4609 15.8984 22.4609 16.2109V17.7734C22.4609 18.0859 22.1875 18.3594 21.875 18.3594ZM19.5312 16.0156C19.4141 16.0156 19.3359 16.0938 19.3359 16.2109V17.7734C19.3359 17.8906 19.4141 17.9688 19.5312 17.9688H21.875C21.9922 17.9688 22.0703 17.8906 22.0703 17.7734V16.2109C22.0703 16.0938 21.9922 16.0156 21.875 16.0156H19.5312Z" fill="#DBB471"/>
<path d="M20.5078 15.8203H20.8984V18.1641H20.5078V15.8203Z" fill="#DBB471"/>
<path d="M22.2656 21.4844C22.2656 21.6797 22.0703 21.875 21.875 21.875H19.5312C19.3359 21.875 19.1406 21.6797 19.1406 21.4844V19.9219C19.1406 19.7266 19.3359 19.5312 19.5312 19.5312H21.875C22.0703 19.5312 22.2656 19.7266 22.2656 19.9219V21.4844Z" fill="#D6EEF0"/>
<path d="M21.875 22.2656H19.5312C19.2188 22.2656 18.9453 21.9922 18.9453 21.6797V20.1172C18.9453 19.8047 19.2188 19.5312 19.5312 19.5312H21.875C22.1875 19.5312 22.4609 19.8047 22.4609 20.1172V21.6797C22.4609 21.9922 22.1875 22.2656 21.875 22.2656ZM19.5312 19.9219C19.4141 19.9219 19.3359 20 19.3359 20.1172V21.6797C19.3359 21.7969 19.4141 21.875 19.5312 21.875H21.875C21.9922 21.875 22.0703 21.7969 22.0703 21.6797V20.1172C22.0703 20 21.9922 19.9219 21.875 19.9219H19.5312Z" fill="#DBB471"/>
<path d="M20.5078 19.7266H20.8984V22.0703H20.5078V19.7266Z" fill="#DBB471"/>
<path d="M12.8124 4.53125C12.6562 4.41406 12.3828 4.41406 12.1874 4.53125L4.60932 10.7031C4.45307 10.8203 4.45307 10.9375 4.68745 10.9375H20.3124C20.5078 10.9375 20.5859 10.8203 20.3906 10.7031L12.8124 4.53125Z" fill="#F15744"/>
<path d="M18.8281 10.7031L12.8125 5.70309C12.6562 5.54684 12.3828 5.54684 12.2266 5.70309L6.17187 10.7031C5.97656 10.8203 6.01562 10.9375 6.24999 10.9375H7.03124V23.4375H17.9687V10.9375H18.75C18.9453 10.9375 19.0234 10.8203 18.8281 10.7031Z" fill="#F9F3D9"/>
<path d="M9.375 17.5781H15.625V23.4375H9.375V17.5781Z" fill="#E5DEC1"/>
<path d="M10.1562 17.5781H14.8438V23.4375H10.1562V17.5781Z" fill="#42ADE2"/>
<path d="M7.89063 14.8438C8.00781 14.8828 8.16406 14.9219 8.32031 14.9219C8.51562 14.9219 8.59375 14.8437 8.59375 14.7656C8.59375 14.6875 8.51562 14.6094 8.32031 14.5703C8.04687 14.4922 7.85156 14.3359 7.85156 14.1406C7.85156 13.8672 8.08594 13.6719 8.51562 13.6719C8.71094 13.6719 8.86719 13.7109 8.94531 13.75L8.86719 14.0234C8.78906 13.9844 8.67187 13.9453 8.51562 13.9453C8.35937 13.9453 8.28125 14.0234 8.28125 14.1016C8.28125 14.1797 8.35937 14.2578 8.59375 14.2969C8.90625 14.4141 9.02344 14.5312 9.02344 14.7656C9.02344 15 8.78906 15.2344 8.32031 15.2344C8.125 15.2344 7.92969 15.1953 7.85156 15.1562L7.89063 14.8438Z" fill="#89664C"/>
<path d="M10.5078 15.1562C10.4297 15.1953 10.2734 15.2344 10.0781 15.2344C9.49219 15.2344 9.17969 14.9219 9.17969 14.4922C9.17969 13.9844 9.60937 13.6719 10.1172 13.6719C10.3125 13.6719 10.4688 13.7109 10.5469 13.75L10.4687 14.0234C10.3906 13.9844 10.2734 13.9844 10.1562 13.9844C9.84375 13.9844 9.60938 14.1406 9.60938 14.4922C9.60938 14.8047 9.80469 15 10.1562 15C10.2734 15 10.3906 14.9609 10.4687 14.9609L10.5078 15.1562Z" fill="#89664C"/>
<path d="M11.1328 13.7109V14.2968H11.7578V13.7109H12.1484V15.2343H11.7578V14.6093H11.1328V15.2343H10.7422V13.7109H11.1328Z" fill="#89664C"/>
<path d="M14.0625 14.4531C14.0625 14.9609 13.7109 15.2344 13.2422 15.2344C12.7344 15.2344 12.4219 14.8828 12.4219 14.4531C12.4219 13.9844 12.7344 13.6719 13.2422 13.6719C13.75 13.6719 14.0625 14.0234 14.0625 14.4531ZM12.8125 14.4531C12.8125 14.7656 12.9688 14.9609 13.2422 14.9609C13.5156 14.9609 13.6328 14.7266 13.6328 14.4531C13.6328 14.1797 13.4766 13.9453 13.2031 13.9453C12.9687 13.9453 12.8125 14.1797 12.8125 14.4531Z" fill="#89664C"/>
<path d="M15.8594 14.4531C15.8594 14.9609 15.5078 15.2344 15.0391 15.2344C14.5312 15.2344 14.2188 14.8828 14.2188 14.4531C14.2188 13.9844 14.5312 13.6719 15.0391 13.6719C15.5859 13.6719 15.8594 14.0234 15.8594 14.4531ZM14.6484 14.4531C14.6484 14.7656 14.8047 14.9609 15.0781 14.9609C15.3516 14.9609 15.4687 14.7266 15.4687 14.4531C15.4687 14.1797 15.3125 13.9453 15.0391 13.9453C14.8047 13.9453 14.6484 14.1797 14.6484 14.4531Z" fill="#89664C"/>
<path d="M16.1328 13.7109H16.5234V14.9218H17.1875V15.1953H16.1328V13.7109Z" fill="#89664C"/>
<path d="M12.5 12.8906C14.0102 12.8906 15.2344 11.6664 15.2344 10.1562C15.2344 8.6461 14.0102 7.42188 12.5 7.42188C10.9898 7.42188 9.76562 8.6461 9.76562 10.1562C9.76562 11.6664 10.9898 12.8906 12.5 12.8906Z" fill="#DBB471"/>
<path d="M12.5 12.1094C13.5787 12.1094 14.4531 11.2349 14.4531 10.1562C14.4531 9.07757 13.5787 8.20312 12.5 8.20312C11.4213 8.20312 10.5469 9.07757 10.5469 10.1562C10.5469 11.2349 11.4213 12.1094 12.5 12.1094Z" fill="white"/>
<path d="M12.3047 17.5781H12.6953V23.4375H12.3047V17.5781Z" fill="#E5DEC1"/>
<path d="M12.5 8.59375C12.3047 8.59375 12.1094 8.78906 12.1094 8.98438V10.5469C12.1094 10.7422 12.3047 10.9375 12.5 10.9375C12.6953 10.9375 12.8906 10.7422 12.8906 10.5469V8.98438C12.8906 8.78906 12.6953 8.59375 12.5 8.59375Z" fill="#B2C1C0"/>
<path d="M12.5 10.1562H11.7188C11.5234 10.1562 11.3281 10.3516 11.3281 10.5469C11.3281 10.7422 11.5234 10.9375 11.7188 10.9375H12.5C12.6953 10.9375 12.8906 10.7422 12.8906 10.5469C12.8906 10.3516 12.6953 10.1562 12.5 10.1562Z" fill="#F15744"/>
<path d="M12.8906 0.78125V3.67187C14.4531 4.92188 16.0156 0.976562 17.5781 2.22656C16.0156 0 14.4531 2.96875 12.8906 0.78125Z" fill="#B4D7EE"/>
<path d="M12.8516 15.7422C12.6563 15.5859 12.3047 15.5859 12.1094 15.7422C11.2891 16.3281 8.59375 17.9688 8.59375 17.9688V18.75H16.4062V17.9688C16.4062 17.9688 13.7109 16.3281 12.8516 15.7422Z" fill="#F15744"/>
<path d="M24.6094 23.4375H0.390625C0.15625 23.4375 0 23.6328 0 23.8281V24.6094C0 24.8047 0.15625 25 0.390625 25H24.6094C24.8047 25 25 24.8047 25 24.6094V23.8281C25 23.6328 24.8047 23.4375 24.6094 23.4375Z" fill="#666666"/>
<path d="M7.8125 24.2188H17.1875V25H7.8125V24.2188Z" fill="#E8E8E8"/>
<path d="M8.59375 23.4375H16.4062V24.2188H8.59375V23.4375Z" fill="#D0D0D0"/>
<path d="M11.3672 20.8984H11.9141V21.1719H11.3672V20.8984Z" fill="#666666"/>
<path d="M13.0859 20.8984H13.6328V21.1719H13.0859V20.8984Z" fill="#666666"/>
</g>
<defs>
<clipPath id="clip0">
<rect width="25" height="25" fill="white"/>
</clipPath>
</defs>
</svg>
