<svg width="20" height="20" viewBox="0 0 20 20" fill="none" xmlns="http://www.w3.org/2000/svg">
<path d="M7.5 1.25C7.16848 1.25 6.85054 1.3817 6.61612 1.61612C6.3817 1.85054 6.25 2.16848 6.25 2.5V3.125C6.25 3.29076 6.18415 3.44973 6.06694 3.56694C5.94973 3.68415 5.79076 3.75 5.625 3.75C5.45924 3.75 5.30027 3.68415 5.18306 3.56694C5.06585 3.44973 5 3.29076 5 3.125V2.5C5 1.83696 5.26339 1.20107 5.73223 0.732233C6.20107 0.263392 6.83696 0 7.5 0H8.125C8.29076 0 8.44973 0.0658481 8.56694 0.183058C8.68415 0.300269 8.75 0.45924 8.75 0.625C8.75 0.79076 8.68415 0.949731 8.56694 1.06694C8.44973 1.18415 8.29076 1.25 8.125 1.25H7.5Z" fill="#03A9F4"/>
<path d="M6.25 12.5C6.25 12.8315 6.3817 13.1495 6.61612 13.3839C6.85054 13.6183 7.16848 13.75 7.5 13.75H8.125C8.29076 13.75 8.44973 13.8158 8.56694 13.9331C8.68415 14.0503 8.75 14.2092 8.75 14.375C8.75 14.5408 8.68415 14.6997 8.56694 14.8169C8.44973 14.9342 8.29076 15 8.125 15H7.5C6.83696 15 6.20107 14.7366 5.73223 14.2678C5.26339 13.7989 5 13.163 5 12.5V11.875C5 11.7092 5.06585 11.5503 5.18306 11.4331C5.30027 11.3158 5.45924 11.25 5.625 11.25C5.79076 11.25 5.94973 11.3158 6.06694 11.4331C6.18415 11.5503 6.25 11.7092 6.25 11.875V12.5Z" fill="#03A9F4"/>
<path d="M6.25 5.625C6.25 5.45924 6.18415 5.30027 6.06694 5.18306C5.94973 5.06585 5.79076 5 5.625 5C5.45924 5 5.30027 5.06585 5.18306 5.18306C5.06585 5.30027 5 5.45924 5 5.625V9.375C5 9.54076 5.06585 9.69973 5.18306 9.81694C5.30027 9.93415 5.45924 10 5.625 10C5.79076 10 5.94973 9.93415 6.06694 9.81694C6.18415 9.69973 6.25 9.54076 6.25 9.375V5.625Z" fill="#03A9F4"/>
<path d="M17.5 1.25C17.8315 1.25 18.1495 1.3817 18.3839 1.61612C18.6183 1.85054 18.75 2.16848 18.75 2.5V3.125C18.75 3.29076 18.8158 3.44973 18.9331 3.56694C19.0503 3.68415 19.2092 3.75 19.375 3.75C19.5408 3.75 19.6997 3.68415 19.8169 3.56694C19.9342 3.44973 20 3.29076 20 3.125V2.5C20 1.83696 19.7366 1.20107 19.2678 0.732233C18.7989 0.263392 18.163 0 17.5 0H16.875C16.7092 0 16.5503 0.0658481 16.4331 0.183058C16.3158 0.300269 16.25 0.45924 16.25 0.625C16.25 0.79076 16.3158 0.949731 16.4331 1.06694C16.5503 1.18415 16.7092 1.25 16.875 1.25H17.5Z" fill="#03A9F4"/>
<path d="M17.5 13.75C17.8315 13.75 18.1495 13.6183 18.3839 13.3839C18.6183 13.1495 18.75 12.8315 18.75 12.5V11.875C18.75 11.7092 18.8158 11.5503 18.9331 11.4331C19.0503 11.3158 19.2092 11.25 19.375 11.25C19.5408 11.25 19.6997 11.3158 19.8169 11.4331C19.9342 11.5503 20 11.7092 20 11.875V12.5C20 13.163 19.7366 13.7989 19.2678 14.2678C18.7989 14.7366 18.163 15 17.5 15H16.875C16.7092 15 16.5503 14.9342 16.4331 14.8169C16.3158 14.6997 16.25 14.5408 16.25 14.375C16.25 14.2092 16.3158 14.0503 16.4331 13.9331C16.5503 13.8158 16.7092 13.75 16.875 13.75H17.5Z" fill="#03A9F4"/>
<path d="M19.375 5C19.2092 5 19.0503 5.06585 18.9331 5.18306C18.8158 5.30027 18.75 5.45924 18.75 5.625V9.375C18.75 9.54076 18.8158 9.69973 18.9331 9.81694C19.0503 9.93415 19.2092 10 19.375 10C19.5408 10 19.6997 9.93415 19.8169 9.81694C19.9342 9.69973 20 9.54076 20 9.375V5.625C20 5.45924 19.9342 5.30027 19.8169 5.18306C19.6997 5.06585 19.5408 5 19.375 5Z" fill="#03A9F4"/>
<path d="M10.625 0C10.4592 0 10.3003 0.0658481 10.1831 0.183058C10.0658 0.300269 10 0.45924 10 0.625C10 0.79076 10.0658 0.949731 10.1831 1.06694C10.3003 1.18415 10.4592 1.25 10.625 1.25H14.375C14.5408 1.25 14.6997 1.18415 14.8169 1.06694C14.9342 0.949731 15 0.79076 15 0.625C15 0.45924 14.9342 0.300269 14.8169 0.183058C14.6997 0.0658481 14.5408 0 14.375 0H10.625Z" fill="#03A9F4"/>
<path d="M10 14.375C10 14.2092 10.0658 14.0503 10.1831 13.9331C10.3003 13.8158 10.4592 13.75 10.625 13.75H14.375C14.5408 13.75 14.6997 13.8158 14.8169 13.9331C14.9342 14.0503 15 14.2092 15 14.375C15 14.5408 14.9342 14.6997 14.8169 14.8169C14.6997 14.9342 14.5408 15 14.375 15H10.625C10.4592 15 10.3003 14.9342 10.1831 14.8169C10.0658 14.6997 10 14.5408 10 14.375Z" fill="#03A9F4"/>
<path d="M2.5 5H3.75V6.25H2.5C2.16848 6.25 1.85054 6.3817 1.61612 6.61612C1.3817 6.85054 1.25 7.16848 1.25 7.5V15.625C1.25 16.4538 1.57924 17.2487 2.16529 17.8347C2.75134 18.4208 3.5462 18.75 4.375 18.75H12.5C12.8315 18.75 13.1495 18.6183 13.3839 18.3839C13.6183 18.1495 13.75 17.8315 13.75 17.5V16.25H15V17.5C15 18.163 14.7366 18.7989 14.2678 19.2678C13.7989 19.7366 13.163 20 12.5 20H4.375C3.21468 20 2.10188 19.5391 1.28141 18.7186C0.460936 17.8981 0 16.7853 0 15.625V7.5C0 6.83696 0.263392 6.20107 0.732233 5.73223C1.20107 5.26339 1.83696 5 2.5 5Z" fill="#03A9F4"/>
</svg>
