<svg width="50" height="50" viewBox="0 0 50 50" fill="none" xmlns="http://www.w3.org/2000/svg">
<circle cx="25" cy="25" r="24.5" fill="#37393E" stroke="white"/>
<path d="M29.682 16.4461C29.8246 16.5866 29.9378 16.7535 30.015 16.9372C30.0922 17.1209 30.132 17.3179 30.132 17.5167C30.132 17.7156 30.0922 17.9126 30.015 18.0963C29.9378 18.28 29.8246 18.4469 29.682 18.5874L23.712 24.4797L29.682 30.3719C29.9697 30.6559 30.1313 31.041 30.1313 31.4426C30.1313 31.8441 29.9697 32.2293 29.682 32.5132C29.3943 32.7972 29.0041 32.9567 28.5972 32.9567C28.1904 32.9567 27.8002 32.7972 27.5125 32.5132L20.45 25.5427C20.3073 25.4022 20.1942 25.2353 20.117 25.0516C20.0397 24.8679 20 24.671 20 24.4721C20 24.2732 20.0397 24.0762 20.117 23.8925C20.1942 23.7088 20.3073 23.5419 20.45 23.4014L27.5125 16.4309C28.0972 15.8539 29.0819 15.8539 29.682 16.4461Z" fill="white"/>
</svg>
