<svg width="24" height="23" viewBox="0 0 24 23" fill="none" xmlns="http://www.w3.org/2000/svg">
<path fill-rule="evenodd" clip-rule="evenodd" d="M12 7.42854C10.9752 7.42854 10.0596 7.87425 9.45475 8.57139C9.08155 9.00214 8.8356 9.51982 8.74221 10.0712C8.64883 10.6225 8.71138 11.1876 8.92344 11.7082C9.13549 12.2289 9.48939 12.6863 9.94871 13.0335C10.408 13.3807 10.9562 13.605 11.5368 13.6834C12.3259 12.2335 13.675 11.1318 15.3 10.6103V10.5714C15.3 9.81139 15.0168 9.11425 14.5452 8.57139C13.9404 7.87425 13.0248 7.42854 12 7.42854ZM22.4123 12.4823C21.6937 11.6813 20.7748 11.0656 19.7404 10.6921C18.706 10.3186 17.5895 10.1993 16.494 10.3451C16.4608 9.72539 16.2859 9.12005 15.9816 8.57139H21C21.4773 8.57139 21.9352 8.752 22.2727 9.0735C22.6103 9.39499 22.7999 9.83102 22.7999 10.2857V10.8571C22.7999 11.4057 22.6679 11.9588 22.4123 12.4823ZM11.0484 14.8571C10.8864 15.4023 10.8 15.9771 10.8 16.5714C10.8 18.6251 11.8332 20.448 13.4328 21.5942C12.9599 21.6751 12.4804 21.7153 12 21.7143C8.23195 21.7143 5.99995 19.3954 5.99995 17.1428V16.5714C5.99932 16.3461 6.04544 16.1229 6.13568 15.9147C6.22591 15.7064 6.35847 15.5172 6.52575 15.3579C6.69302 15.1986 6.8917 15.0723 7.11037 14.9864C7.32904 14.9004 7.56339 14.8565 7.79995 14.8571H11.0484ZM5.17795 15.1817C2.64595 14.5291 1.19995 12.6708 1.19995 10.8571V10.2857C1.19995 9.83102 1.38959 9.39499 1.72716 9.0735C2.06472 8.752 2.52256 8.57139 2.99995 8.57139H8.01955C7.67743 9.18764 7.49904 9.87432 7.49995 10.5714C7.49915 11.1616 7.62669 11.7455 7.87452 12.2864C8.12235 12.8273 8.48511 13.3134 8.93995 13.7143H7.79995C7.26525 13.7141 6.74023 13.8501 6.27924 14.1081C5.81824 14.3661 5.43803 14.7367 5.17795 15.1817ZM7.19995 1.14282C8.07517 1.14282 8.91453 1.47394 9.5334 2.06334C10.1523 2.65274 10.5 3.45214 10.5 4.28568C10.5 5.11922 10.1523 5.91862 9.5334 6.50802C8.91453 7.09741 8.07517 7.42854 7.19995 7.42854C6.32474 7.42854 5.48537 7.09741 4.8665 6.50802C4.24763 5.91862 3.89995 5.11922 3.89995 4.28568C3.89995 3.45214 4.24763 2.65274 4.8665 2.06334C5.48537 1.47394 6.32474 1.14282 7.19995 1.14282ZM16.8 1.14282C17.6752 1.14282 18.5145 1.47394 19.1334 2.06334C19.7523 2.65274 20.1 3.45214 20.1 4.28568C20.1 5.11922 19.7523 5.91862 19.1334 6.50802C18.5145 7.09741 17.6752 7.42854 16.8 7.42854C15.9247 7.42854 15.0854 7.09741 14.4665 6.50802C13.8476 5.91862 13.5 5.11922 13.5 4.28568C13.5 3.45214 13.8476 2.65274 14.4665 2.06334C15.0854 1.47394 15.9247 1.14282 16.8 1.14282ZM17.4 21.7143C18.8321 21.7143 20.2056 21.1724 21.2183 20.2079C22.231 19.2435 22.7999 17.9354 22.7999 16.5714C22.7999 15.2074 22.231 13.8993 21.2183 12.9348C20.2056 11.9704 18.8321 11.4285 17.4 11.4285C15.9678 11.4285 14.5943 11.9704 13.5816 12.9348C12.5689 13.8993 12 15.2074 12 16.5714C12 17.9354 12.5689 19.2435 13.5816 20.2079C14.5943 21.1724 15.9678 21.7143 17.4 21.7143ZM18 16.6666C18 16.9296 17.7761 17.1428 17.5 17.1428C17.2239 17.1428 17 16.9296 17 16.6666C17 16.4036 17.2239 16.1904 17.5 16.1904C17.7761 16.1904 18 16.4036 18 16.6666ZM20.4744 14.4363C20.5342 14.2652 20.4875 14.0765 20.3536 13.949C20.2197 13.8214 20.0216 13.7769 19.8419 13.8339L16.0919 15.0244C15.9426 15.0718 15.8254 15.1834 15.7757 15.3256L14.5257 18.897C14.4658 19.0681 14.5125 19.2568 14.6465 19.3843C14.7804 19.5119 14.9785 19.5564 15.1581 19.4993L18.9081 18.3089C19.0574 18.2615 19.1746 18.1499 19.2244 18.0077L20.4744 14.4363ZM15.7906 18.2947L16.6453 15.8526L19.2094 15.0386L18.3547 17.4807L15.7906 18.2947Z" fill="#18191A"/>
</svg>
