<svg width="85" height="85" viewBox="0 0 85 85" fill="none" xmlns="http://www.w3.org/2000/svg">
<circle cx="42.5" cy="42.5" r="42.5" fill="#4BA6EE"/>
<g opacity="0.8">
<path fill-rule="evenodd" clip-rule="evenodd" d="M45.1429 39.1038C46.9483 38.0875 48.1697 36.1389 48.1697 33.9019C48.1697 30.6158 45.5341 27.9519 42.283 27.9519C39.0318 27.9519 36.3962 30.6158 36.3962 33.9019C36.3962 36.1389 37.6176 38.0876 39.4231 39.1038C35.6195 40.3145 32.8643 43.8758 32.8643 48.0805V57.7018H51.7017V48.0805C51.7017 43.8757 48.9464 40.3145 45.1429 39.1038Z" fill="#F9F9F9"/>
<path opacity="0.85" fill-rule="evenodd" clip-rule="evenodd" d="M27.6252 41.6097C29.1867 40.7302 30.2428 39.0445 30.2428 37.1095C30.2428 34.2662 27.9624 31.9612 25.1493 31.9612C22.3362 31.9612 20.0557 34.2662 20.0557 37.1095C20.0557 39.0446 21.112 40.7304 22.6737 41.6099C19.3833 42.6579 17 45.739 17 49.3766V57.7016H33.2994V49.3766C33.2994 45.7388 30.9158 42.6576 27.6252 41.6097Z" fill="#F9F9F9"/>
<path opacity="0.8" fill-rule="evenodd" clip-rule="evenodd" d="M62.3253 41.6098C63.8868 40.7303 64.943 39.0446 64.943 37.1095C64.943 34.2662 62.6626 31.9612 59.8495 31.9612C57.0364 31.9612 54.7559 34.2662 54.7559 37.1095C54.7559 39.0447 55.8123 40.7305 57.3739 41.6099C54.0836 42.658 51.7002 45.739 51.7002 49.3767V57.7016H67.9996V49.3767C67.9996 45.7388 65.616 42.6576 62.3253 41.6098Z" fill="#F9F9F9"/>
</g>
</svg>
