<svg width="1065" height="165" viewBox="0 0 1065 165" fill="none" xmlns="http://www.w3.org/2000/svg">
<path d="M0 10C0 4.47715 4.47715 0 10 0H1055C1060.52 0 1065 4.47715 1065 10V165H0V10Z" fill="#3A3B3B"/>
<g opacity="0.5">
<mask id="mask0" mask-type="alpha" maskUnits="userSpaceOnUse" x="0" y="0" width="1065" height="165">
<path d="M0 10C0 4.47715 4.47715 0 10 0H1055C1060.52 0 1065 4.47715 1065 10V165H0V10Z" fill="#C4C4C4"/>
</mask>
<g mask="url(#mask0)">
<path fill-rule="evenodd" clip-rule="evenodd" d="M880.916 127.801C895.781 127.801 907.831 115.607 907.831 100.565C907.831 85.5226 895.781 73.3286 880.916 73.3286C866.051 73.3286 854 85.5226 854 100.565C854 115.607 866.051 127.801 880.916 127.801Z" fill="#81D4F9"/>
<path fill-rule="evenodd" clip-rule="evenodd" d="M990.141 127.801C1005.01 127.801 1017.06 115.607 1017.06 100.565C1017.06 85.5226 1005.01 73.3286 990.141 73.3286C975.276 73.3286 963.226 85.5226 963.226 100.565C963.226 115.607 975.276 127.801 990.141 127.801Z" fill="#03A9F4"/>
<path fill-rule="evenodd" clip-rule="evenodd" d="M936.33 73.329C951.195 73.329 963.245 61.135 963.245 46.093C963.245 31.0509 951.195 18.8569 936.33 18.8569C921.465 18.8569 909.414 31.0509 909.414 46.093C909.414 61.135 921.465 73.329 936.33 73.329Z" fill="#4EC2F7"/>
<path fill-rule="evenodd" clip-rule="evenodd" d="M936.333 183.876C951.198 183.876 963.248 171.682 963.248 156.64C963.248 141.598 951.198 129.404 936.333 129.404C921.468 129.404 909.417 141.598 909.417 156.64C909.417 171.682 921.468 183.876 936.333 183.876Z" fill="#C0E9FC"/>
</g>
</g>
</svg>
