<svg width="280" height="280" viewBox="0 0 280 280" fill="none" xmlns="http://www.w3.org/2000/svg">
<path d="M160.03 66.1776C160.03 66.1776 142.473 105.442 95.6328 97.1269C48.7925 88.8118 20.8212 152.088 65.1571 174.433C109.493 196.777 78.9217 223.534 108.484 236.598C142.084 251.446 154.406 200.132 179.136 204.552C233.715 214.309 267.387 195.877 252.38 171.88C226.038 129.755 207.03 131.572 214.657 104.04C222.283 76.5078 178.493 34.9821 160.03 66.1776Z" fill="#5E5F5F"/>
<path d="M138.243 167.866C138.243 192.472 158.19 212.419 182.796 212.419C190.911 212.419 198.52 210.25 205.073 206.459C206.519 206.055 208.359 208.728 211.411 210.136C214.463 211.544 217.802 212.767 220.117 212.998C223.01 213.287 226.771 213.287 228.217 210.973C230.242 207.791 227.928 205.765 225.903 204.319C223.878 202.872 220.234 199.056 218.959 196.508C218.381 195.35 218.381 195.061 218.959 193.895C224.239 186.573 227.349 177.583 227.349 167.866C227.349 143.26 207.402 123.313 182.796 123.313C158.19 123.313 138.243 143.26 138.243 167.866Z" fill="#1E88E5"/>
<path d="M160.935 174.685C164.374 174.685 167.161 171.897 167.161 168.459C167.161 165.021 164.374 162.234 160.935 162.234C157.497 162.234 154.71 165.021 154.71 168.459C154.71 171.897 157.497 174.685 160.935 174.685Z" fill="white"/>
<path d="M182.369 174.685C185.807 174.685 188.594 171.897 188.594 168.459C188.594 165.021 185.807 162.234 182.369 162.234C178.93 162.234 176.143 165.021 176.143 168.459C176.143 171.897 178.93 174.685 182.369 174.685Z" fill="white"/>
<path d="M203.801 174.685C207.239 174.685 210.026 171.897 210.026 168.459C210.026 165.021 207.239 162.234 203.801 162.234C200.362 162.234 197.575 165.021 197.575 168.459C197.575 171.897 200.362 174.685 203.801 174.685Z" fill="white"/>
<path d="M172.537 132.282C172.537 161.708 148.682 185.564 119.255 185.564C109.55 185.564 100.452 182.969 92.6145 178.435C90.8846 177.952 88.6848 181.148 85.0349 182.832C81.385 184.516 77.3911 185.979 74.6233 186.255C71.1634 186.601 66.6656 186.601 64.9357 183.834C62.5138 180.028 65.2817 177.606 67.7036 175.876C70.1254 174.146 74.4833 169.582 76.0072 166.534C76.6992 165.15 76.6992 164.804 76.0072 163.41C69.6934 154.653 65.9736 143.902 65.9736 132.282C65.9736 102.855 89.8287 79 119.255 79C148.682 79 172.537 102.855 172.537 132.282Z" fill="#E4E6EA"/>
<path d="M145.4 140.436C141.288 140.436 137.954 137.102 137.954 132.991C137.954 128.879 141.288 125.545 145.4 125.545C149.511 125.545 152.845 128.879 152.845 132.991C152.845 137.102 149.511 140.436 145.4 140.436Z" fill="#1E88E5"/>
<path d="M119.768 140.436C115.656 140.436 112.322 137.102 112.322 132.991C112.322 128.879 115.656 125.545 119.768 125.545C123.88 125.545 127.213 128.879 127.213 132.991C127.213 137.102 123.88 140.436 119.768 140.436Z" fill="#1E88E5"/>
<path d="M94.1363 140.436C90.0245 140.436 86.6911 137.102 86.6911 132.991C86.6911 128.879 90.0245 125.545 94.1363 125.545C98.2482 125.545 101.582 128.879 101.582 132.991C101.582 137.102 98.2482 140.436 94.1363 140.436Z" fill="#1E88E5"/>
</svg>
