<svg width="134" height="134" viewBox="0 0 134 134" fill="none" xmlns="http://www.w3.org/2000/svg">
<circle cx="67" cy="67" r="67" fill="#E0E0E0"/>
<mask id="mask0" mask-type="alpha" maskUnits="userSpaceOnUse" x="1" y="0" width="133" height="134">
<ellipse cx="67.5" cy="67" rx="66.5" ry="67" fill="#F5F5F8"/>
</mask>
<g mask="url(#mask0)">
<mask id="mask1" mask-type="alpha" maskUnits="userSpaceOnUse" x="58" y="13" width="67" height="67">
<rect x="58" y="13" width="67" height="67" rx="33.5" fill="white"/>
</mask>
<g mask="url(#mask1)">
<path fill-rule="evenodd" clip-rule="evenodd" d="M116.06 72.2266C114.085 69.3696 111.173 67.293 107.829 66.3561L100.061 64.1801V58.597C103.345 56.1303 105.501 52.2485 105.634 47.8576C106.092 48.0599 106.599 48.1746 107.133 48.1746C109.189 48.1746 110.855 46.5081 110.855 44.4523C110.855 42.3966 109.189 40.7301 107.133 40.7301C106.603 40.7301 106.1 40.8423 105.644 41.0419V39.9857C105.644 32.2766 99.3949 26.0273 91.686 26.0273H91.6858C83.9769 26.0273 77.7276 32.2766 77.7276 39.9857V41.0419C77.2713 40.8423 76.7684 40.7301 76.2388 40.7301C74.183 40.7301 72.5165 42.3966 72.5165 44.4523C72.5165 46.5081 74.183 48.1746 76.2388 48.1746C76.7727 48.1746 77.2793 48.0601 77.7384 47.8576C77.8708 52.2485 80.0272 56.1303 83.3108 58.597V64.1801L75.5433 66.3561C72.1988 67.293 69.2871 69.3696 67.3121 72.2266L61.9082 80.0442V85.5829H121.464V80.0442L116.06 72.2266Z" fill="#B5683C"/>
<path fill-rule="evenodd" clip-rule="evenodd" d="M91.6854 61.3891C89.9643 61.3891 88.3168 61.0757 86.7944 60.506C88.9596 61.8892 91.531 62.6919 94.291 62.6919C96.3494 62.6919 98.3015 62.2428 100.06 61.4431V58.5977C97.7275 60.3501 94.8279 61.3891 91.6854 61.3891Z" fill="#A3420B"/>
<path d="M78.2131 44.9965C78.2606 44.8236 78.286 44.6414 78.286 44.4535C78.286 43.3228 77.3695 42.4062 76.2388 42.4062C75.9561 42.4062 75.6868 42.4636 75.4419 42.567" stroke="#00004D" stroke-width="2" stroke-linecap="round" stroke-linejoin="round"/>
<path d="M105.159 44.9965C105.111 44.8236 105.086 44.6414 105.086 44.4535C105.086 43.3228 106.003 42.4062 107.133 42.4062C107.416 42.4062 107.685 42.4636 107.93 42.567" stroke="#00004D" stroke-width="2" stroke-linecap="round" stroke-linejoin="round"/>
<path fill-rule="evenodd" clip-rule="evenodd" d="M95.2223 52.832C95.2223 54.8878 93.5558 56.5543 91.5001 56.5543C89.4443 56.5543 87.7778 54.8878 87.7778 52.832H95.2223Z" fill="white"/>
<path fill-rule="evenodd" clip-rule="evenodd" d="M99.1306 45.0104C99.1306 45.8326 98.464 46.4993 97.6417 46.4993C96.8195 46.4993 96.1528 45.8326 96.1528 45.0104C96.1528 44.1881 96.8195 43.5215 97.6417 43.5215C98.464 43.5215 99.1306 44.1881 99.1306 45.0104" fill="#00004D"/>
<path fill-rule="evenodd" clip-rule="evenodd" d="M86.8469 45.0104C86.8469 45.8326 86.1803 46.4993 85.358 46.4993C84.5358 46.4993 83.8691 45.8326 83.8691 45.0104C83.8691 44.1881 84.5358 43.5215 85.358 43.5215C86.1803 43.5215 86.8469 44.1881 86.8469 45.0104" fill="#00004D"/>
<path d="M91.4998 43.5215L93.3609 49.8493L90.7554 50.2215" stroke="#00004D" stroke-width="2" stroke-linecap="round" stroke-linejoin="round"/>
<path fill-rule="evenodd" clip-rule="evenodd" d="M97.5377 25.7339C97.7674 25.0678 97.894 24.3537 97.894 23.6096C97.894 20.0121 94.9776 17.0957 91.3801 17.0957C87.7825 17.0957 84.8662 20.0121 84.8662 23.6096C84.8662 24.3927 85.0046 25.1435 85.2581 25.839C79.6102 28.3061 75.6807 34.0115 75.6807 40.5576V41.1225C75.8031 41.1102 75.9271 41.1035 76.0529 41.1035C77.1697 41.1035 78.169 41.5978 78.8513 42.3768L78.8868 42.3683L80.0035 35.6681L81.0243 38.2206C81.3072 38.9271 81.9915 39.3903 82.7525 39.3903H100.248C101.009 39.3903 101.693 38.9271 101.976 38.2206L102.997 35.6681L104.113 42.3683L104.147 42.3785C104.83 41.5985 105.83 41.1035 106.947 41.1035C107.073 41.1035 107.197 41.1102 107.32 41.1225V40.359C107.32 33.7606 103.279 28.1066 97.5377 25.7339" fill="black"/>
<rect x="98.0142" y="57.2949" width="2.04723" height="6.32778" fill="#B5683C"/>
<path fill-rule="evenodd" clip-rule="evenodd" d="M121.278 80.0438L115.874 72.2262C113.899 69.3694 110.988 67.2926 107.643 66.3557L99.8754 64.1797C99.8754 68.8051 96.1259 72.5547 91.5004 72.5547V72.5547C86.875 72.5547 83.1254 68.8051 83.1254 64.1797L75.3577 66.3557C72.0133 67.2926 69.1016 69.3694 67.1266 72.2262L61.7227 80.0438V85.5825H121.278V80.0438Z" fill="black"/>
<rect x="84.2417" y="51.7109" width="14.8889" height="11.1667" fill="#B5683C"/>
<path fill-rule="evenodd" clip-rule="evenodd" d="M96.3388 53.4785C96.3388 56.0483 94.2556 58.1313 91.686 58.1313C89.1163 58.1313 87.0332 56.0483 87.0332 53.4785H96.3388Z" fill="#AE1328"/>
<path fill-rule="evenodd" clip-rule="evenodd" d="M94.2898 57.3343C93.6185 56.6766 92.7 56.2695 91.6859 56.2695C90.6718 56.2695 89.7533 56.6766 89.082 57.3343C89.8252 57.8371 90.7211 58.1306 91.6859 58.1306C92.6505 58.1306 93.5468 57.8371 94.2898 57.3343" fill="#FB344F"/>
<path fill-rule="evenodd" clip-rule="evenodd" d="M94.4778 54.9674H88.8944C88.3804 54.9674 87.9639 54.5509 87.9639 54.0368V53.4785H95.4083V54.0368C95.4083 54.5509 94.9918 54.9674 94.4778 54.9674" fill="white"/>
</g>
<mask id="mask2" mask-type="alpha" maskUnits="userSpaceOnUse" x="8" y="-3" width="68" height="68">
<rect x="8" y="-3" width="68" height="68" rx="6.55556" fill="white"/>
</mask>
<g mask="url(#mask2)">
<path fill-rule="evenodd" clip-rule="evenodd" d="M66.7375 57.1115C64.733 54.2119 61.7779 52.1042 58.3835 51.1534L50.4999 48.9449V43.2784C53.8326 40.7749 56.0213 36.8352 56.1558 32.3788C56.6216 32.5841 57.1357 32.7004 57.6778 32.7004C59.7641 32.7004 61.4556 31.0091 61.4556 28.9227C61.4556 26.8362 59.7641 25.1449 57.6778 25.1449C57.1401 25.1449 56.6297 25.2588 56.1667 25.4613V24.3893C56.1667 16.5652 49.824 10.2227 42.0001 10.2227H41.9999C34.1759 10.2227 27.8334 16.5652 27.8334 24.3893V25.4613C27.3702 25.2588 26.8599 25.1449 26.3223 25.1449C24.2358 25.1449 22.5445 26.8362 22.5445 28.9227C22.5445 31.0091 24.2358 32.7004 26.3223 32.7004C26.8642 32.7004 27.3784 32.5843 27.8443 32.3788C27.9786 36.8352 30.1673 40.7749 33.4999 43.2784V48.9449L25.6164 51.1534C22.2221 52.1042 19.2669 54.2119 17.2624 57.1115L11.7778 65.0458V70.6671H72.2223V65.0458L66.7375 57.1115Z" fill="#E9ADA1"/>
<path fill-rule="evenodd" clip-rule="evenodd" d="M42.0001 46.1105C40.2533 46.1105 38.5812 45.7924 37.0361 45.2142C39.2337 46.618 41.8434 47.4327 44.6446 47.4327C46.7337 47.4327 48.7149 46.9769 50.5001 46.1653V43.2773C48.1324 45.0559 45.1895 46.1105 42.0001 46.1105Z" fill="#DB8B79"/>
<path d="M28.3262 29.4727C28.3744 29.2972 28.4003 29.1123 28.4003 28.9215C28.4003 27.774 27.47 26.8438 26.3225 26.8438C26.0356 26.8438 25.7622 26.9019 25.5137 27.0069" stroke="#00004D" stroke-width="0.327778" stroke-linecap="round" stroke-linejoin="round"/>
<path d="M55.674 29.4727C55.6258 29.2972 55.6001 29.1123 55.6001 28.9215C55.6001 27.774 56.5304 26.8438 57.6779 26.8438C57.9646 26.8438 58.2379 26.9019 58.4867 27.0069" stroke="#00004D" stroke-width="0.327778" stroke-linecap="round" stroke-linejoin="round"/>
<path fill-rule="evenodd" clip-rule="evenodd" d="M45.7777 37.4238C45.7777 39.5103 44.0864 41.2016 41.9999 41.2016C39.9135 41.2016 38.2222 39.5103 38.2222 37.4238H45.7777Z" fill="white"/>
<rect x="34.4443" y="36.666" width="15.1111" height="11.3333" fill="#E9ADA1"/>
<path d="M44.3721 39.2168C43.8701 40.0107 42.9844 40.5377 41.9757 40.5377C40.9986 40.5377 40.1369 40.043 39.6274 39.2903" stroke="#00004D" stroke-width="0.327778" stroke-linecap="round" stroke-linejoin="round"/>
<path fill-rule="evenodd" clip-rule="evenodd" d="M49.7444 29.4896C49.7444 30.3241 49.0678 31.0007 48.2333 31.0007C47.3988 31.0007 46.7222 30.3241 46.7222 29.4896C46.7222 28.6551 47.3988 27.9785 48.2333 27.9785C49.0678 27.9785 49.7444 28.6551 49.7444 29.4896" fill="#00004D"/>
<path fill-rule="evenodd" clip-rule="evenodd" d="M37.2776 29.4896C37.2776 30.3241 36.601 31.0007 35.7665 31.0007C34.932 31.0007 34.2554 30.3241 34.2554 29.4896C34.2554 28.6551 34.932 27.9785 35.7665 27.9785C36.601 27.9785 37.2776 28.6551 37.2776 29.4896" fill="#00004D"/>
<path d="M42.0002 27.9785L43.8891 34.4007L41.2446 34.7785" stroke="#00004D" stroke-width="0.327778" stroke-linecap="round" stroke-linejoin="round"/>
<path fill-rule="evenodd" clip-rule="evenodd" d="M29.0282 26.2886C28.6895 25.9411 28.2853 25.6587 27.8344 25.4617C27.3715 25.2592 26.8611 25.1451 26.3233 25.1451C26.1958 25.1451 26.0698 25.1519 25.9456 25.1644V24.3895C25.9456 15.5223 33.1339 8.33398 42.0011 8.33398C50.8683 8.33398 58.0567 15.5223 58.0567 24.3895V25.1644C57.9324 25.1519 57.8064 25.1451 57.6789 25.1451C57.1411 25.1451 56.6307 25.2592 56.1678 25.4617C55.6787 25.6755 55.246 25.9911 54.8911 26.3799C48.1787 25.8593 42.1222 23.002 37.5358 18.6173C35.57 21.9759 32.5943 24.6678 29.0282 26.2886ZM33.5004 43.2778C30.1676 40.7745 27.9792 36.8348 27.8447 32.3782C27.3787 32.5837 26.8645 32.6998 26.3226 32.6998C26.1951 32.6998 26.0691 32.6932 25.9448 32.6808V51.061L33.5004 48.9443V43.2778ZM56.156 32.3782C56.0217 36.8348 53.8331 40.7745 50.5005 43.2778V48.9443L58.056 51.061V32.6809C57.9316 32.6932 57.8056 32.6998 57.6783 32.6998C57.1362 32.6998 56.622 32.5837 56.156 32.3782Z" fill="#533626"/>
<path d="M30.8555 25.7109H52.011V34.0221H30.8555V25.7109Z" fill="#E9ADA1"/>
<path fill-rule="evenodd" clip-rule="evenodd" d="M35.9548 28.7344C35.0418 28.7344 34.2565 29.2346 33.9077 29.9522C33.8057 30.1621 33.9807 30.3022 34.149 30.1646C34.6092 29.7881 35.2482 29.5549 35.9548 29.5549C35.9702 29.5549 35.9856 29.555 36.001 29.5552C35.8539 29.7464 35.7665 29.9858 35.7665 30.2456C35.7665 30.8715 36.2739 31.379 36.8998 31.379C37.5257 31.379 38.0331 30.8715 38.0331 30.2456C38.0331 30.1905 38.0292 30.1364 38.0216 30.0834C38.023 30.0416 38.0159 29.9942 37.9981 29.9446C37.9898 29.9212 37.9808 29.8982 37.9713 29.8753C37.9083 29.6931 37.8001 29.5319 37.6601 29.4052C37.2585 28.9832 36.6176 28.7344 35.9548 28.7344Z" fill="black" fill-opacity="0.6"/>
<path fill-rule="evenodd" clip-rule="evenodd" d="M46.9103 28.7344C45.9974 28.7344 45.212 29.2346 44.8633 29.9522C44.7612 30.1621 44.9363 30.3022 45.1045 30.1646C45.5647 29.7881 46.2038 29.5549 46.9103 29.5549C46.9257 29.5549 46.941 29.555 46.9562 29.5552C46.8092 29.7464 46.7217 29.9858 46.7217 30.2456C46.7217 30.8715 47.2291 31.379 47.855 31.379C48.481 31.379 48.9884 30.8715 48.9884 30.2456C48.9884 30.1911 48.9845 30.1376 48.9771 30.0851C48.9788 30.0429 48.9717 29.9949 48.9537 29.9446C48.9448 29.9198 48.9352 29.8953 48.925 29.8711C48.8622 29.6915 48.7554 29.5326 48.6176 29.4072C48.2161 28.984 47.5742 28.7344 46.9103 28.7344Z" fill="black" fill-opacity="0.6"/>
<path fill-rule="evenodd" clip-rule="evenodd" d="M72.2223 65.0442L66.7375 57.11C64.7332 54.2105 61.778 52.1027 58.3835 51.1518L50.5001 48.9434C50.5001 53.6378 46.6945 57.4434 42.0001 57.4434V57.4434C37.3056 57.4434 33.5001 53.6378 33.5001 48.9434L25.6164 51.1518C22.2221 52.1027 19.2669 54.2105 17.2624 57.11L11.7778 65.0442V70.6656H72.2223V65.0442Z" fill="white"/>
<path fill-rule="evenodd" clip-rule="evenodd" d="M48.2336 32.9728C46.3587 32.9728 44.8336 31.4477 44.8336 29.5728C44.8336 27.2262 47.2114 26.9727 48.2336 26.9727C49.2559 26.9727 51.6336 27.2262 51.6336 29.5728C51.6336 31.4477 50.1086 32.9728 48.2336 32.9728M35.7669 32.9728C33.892 32.9728 32.3669 31.4477 32.3669 29.5728C32.3669 27.2262 34.7447 26.9727 35.7669 26.9727C36.7892 26.9727 39.1669 27.2262 39.1669 29.5728C39.1669 31.4477 37.6419 32.9728 35.7669 32.9728M53.5223 27.4679H52.031L51.0116 26.6751C50.6801 26.4173 50.2721 26.2773 49.852 26.2773H46.5606C46.1128 26.2773 45.6797 26.4362 45.3383 26.7261L43.889 27.956L42.1754 27.0586C42.0656 27.0014 41.9346 27.0014 41.8248 27.0586L40.1112 27.956L38.6619 26.7261C38.3205 26.4362 37.8874 26.2773 37.4396 26.2773H34.1482C33.7281 26.2773 33.3201 26.4173 32.9886 26.6751L31.9692 27.4679H30.4779C30.2693 27.4679 30.1001 27.6372 30.1001 27.8457V28.1925C30.1001 28.4012 30.2693 28.5703 30.4779 28.5703H30.8557C31.1686 28.5703 31.4223 28.8239 31.4223 29.1369V29.3213C31.4223 31.6182 33.1724 33.5832 35.4638 33.7394C37.4609 33.8756 39.1983 32.6533 39.8436 30.9064L39.8437 30.9068L40.4979 29.3776C40.7551 28.7762 41.346 28.3863 42.0001 28.3863C42.6542 28.3863 43.2451 28.7762 43.5023 29.3776L44.1565 30.9068L44.1566 30.9064C44.8019 32.6535 46.5395 33.8756 48.5364 33.7394C50.8278 33.583 52.5779 31.6182 52.5779 29.3213V29.1369C52.5779 28.8239 52.8316 28.5703 53.1445 28.5703H53.5223C53.7309 28.5703 53.9001 28.4012 53.9001 28.1925V27.8457C53.9001 27.6372 53.7309 27.4679 53.5223 27.4679" fill="#00004D"/>
</g>
<path fill-rule="evenodd" clip-rule="evenodd" d="M47.1931 95.481C45.0707 92.4108 41.9417 90.1792 38.3477 89.1724L30.0003 86.834V80.8342C33.5291 78.1834 35.8465 74.012 35.9889 69.2934C36.4821 69.5108 37.0265 69.634 37.6005 69.634C39.8095 69.634 41.6005 67.8432 41.6005 65.634C41.6005 63.4248 39.8095 61.634 37.6005 61.634C37.0311 61.634 36.4907 61.7546 36.0005 61.969V60.834C36.0005 52.5496 29.2847 45.834 21.0005 45.834H21.0003C12.7161 45.834 6.00049 52.5496 6.00049 60.834V61.969C5.51009 61.7546 4.96969 61.634 4.40049 61.634C2.19129 61.634 0.400488 63.4248 0.400488 65.634C0.400488 67.8432 2.19129 69.634 4.40049 69.634C4.97429 69.634 5.51869 69.511 6.01209 69.2934C6.15429 74.012 8.47169 78.1834 12.0003 80.8342V86.834L3.65309 89.1724C0.0590887 90.1792 -3.06991 92.4108 -5.19231 95.481L-10.9995 103.882V109.834H53.0005V103.882L47.1931 95.481Z" fill="#B5683C"/>
<path fill-rule="evenodd" clip-rule="evenodd" d="M21.0001 83.8357C19.1505 83.8357 17.3801 83.4989 15.7441 82.8867C18.0709 84.3731 20.8341 85.2357 23.8001 85.2357C26.0121 85.2357 28.1099 84.7531 30.0001 83.8937V80.8359C27.4931 82.7191 24.3771 83.8357 21.0001 83.8357Z" fill="#A3420B"/>
<path d="M6.52243 66.2191C6.57343 66.0333 6.60083 65.8375 6.60083 65.6355C6.60083 64.4205 5.61583 63.4355 4.40083 63.4355C4.09703 63.4355 3.80763 63.4971 3.54443 63.6083" stroke="#00004D" stroke-width="1.09434" stroke-linecap="round" stroke-linejoin="round"/>
<path d="M35.4791 66.2191C35.4281 66.0333 35.4009 65.8375 35.4009 65.6355C35.4009 64.4205 36.3859 63.4355 37.6009 63.4355C37.9045 63.4355 38.1939 63.4971 38.4573 63.6083" stroke="#00004D" stroke-width="1.09434" stroke-linecap="round" stroke-linejoin="round"/>
<path fill-rule="evenodd" clip-rule="evenodd" d="M24.999 74.6328C24.999 76.842 23.2082 78.6328 20.999 78.6328C18.7898 78.6328 16.999 76.842 16.999 74.6328H24.999Z" fill="white"/>
<path fill-rule="evenodd" clip-rule="evenodd" d="M29.2005 66.2367C29.2005 67.1203 28.4841 67.8367 27.6005 67.8367C26.7169 67.8367 26.0005 67.1203 26.0005 66.2367C26.0005 65.3531 26.7169 64.6367 27.6005 64.6367C28.4841 64.6367 29.2005 65.3531 29.2005 66.2367" fill="#00004D"/>
<path fill-rule="evenodd" clip-rule="evenodd" d="M15.9993 66.2367C15.9993 67.1203 15.2829 67.8367 14.3993 67.8367C13.5157 67.8367 12.7993 67.1203 12.7993 66.2367C12.7993 65.3531 13.5157 64.6367 14.3993 64.6367C15.2829 64.6367 15.9993 65.3531 15.9993 66.2367" fill="#00004D"/>
<path d="M20.9997 64.6367L22.9997 71.4367L20.1997 71.8367" stroke="#00004D" stroke-width="1.09434" stroke-linecap="round" stroke-linejoin="round"/>
<path fill-rule="evenodd" clip-rule="evenodd" d="M37.5998 61.632C38.0226 61.632 38.4298 61.6988 38.8122 61.8202C38.9806 61.4936 39.0788 61.1244 39.0788 60.7308C39.0788 59.8382 38.5902 59.061 37.867 58.6476C38.9356 58.0232 39.6554 56.867 39.6554 55.5402C39.6554 53.7356 38.326 52.2452 36.5942 51.9848C36.8692 51.494 37.0276 50.9288 37.0276 50.3262C37.0276 48.4484 35.5052 46.9262 33.6276 46.9262C32.928 46.9262 32.2782 47.138 31.7376 47.5002C31.738 47.4762 31.7394 47.4526 31.7394 47.4284C31.7394 44.9984 29.7694 43.0284 27.3394 43.0284C26.2858 43.0284 25.319 43.3994 24.5612 44.0172C23.8994 42.7212 22.5548 41.832 20.9998 41.832C19.4448 41.832 18.1002 42.7212 17.4384 44.0172C16.6806 43.3994 15.7138 43.0284 14.6602 43.0284C12.2302 43.0284 10.2602 44.9984 10.2602 47.4284C10.2602 47.4526 10.2616 47.4762 10.262 47.5002C9.72144 47.138 9.07164 46.9262 8.37204 46.9262C6.49444 46.9262 4.97204 48.4484 4.97204 50.3262C4.97204 50.9288 5.13044 51.494 5.40544 51.9848C3.67364 52.2452 2.34424 53.7356 2.34424 55.5402C2.34424 56.867 3.06404 58.0232 4.13264 58.6476C3.40944 59.061 2.92084 59.8382 2.92084 60.7308C2.92084 61.1242 3.01864 61.4934 3.18624 61.8206C3.56924 61.6988 3.97664 61.632 4.39984 61.632C5.76924 61.632 6.97684 62.321 7.69784 63.3702C9.74564 62.5962 11.259 60.7342 11.5322 58.4884C12.1788 58.835 12.9174 59.032 13.7022 59.032C15.578 59.032 17.1904 57.9086 17.9064 56.2984C18.7128 57.0624 19.8012 57.532 20.9998 57.532C22.1984 57.532 23.2868 57.0624 24.0932 56.2984C24.8092 57.9086 26.4216 59.032 28.2974 59.032C29.0822 59.032 29.8208 58.835 30.4674 58.4884C30.7406 60.7342 32.254 62.5962 34.3018 63.3702C35.0228 62.321 36.2304 61.632 37.5998 61.632" fill="#00004D"/>
<path fill-rule="evenodd" clip-rule="evenodd" d="M53 103.88L47.1926 95.479C45.0704 92.409 41.9414 90.1772 38.3472 89.1704L30 86.832C30 91.8026 25.9706 95.832 21 95.832V95.832C16.0294 95.832 12 91.8026 12 86.832L3.6526 89.1704C0.0586004 90.1772 -3.0704 92.409 -5.1928 95.479L-11 103.88V109.832H53V103.88Z" fill="#80C43B"/>
<g filter="url(#filter0_d)">
<path d="M18.8137 66.7666C18.8137 69.268 16.7604 71.2968 13.339 71.2968H12.6545C9.23312 71.2968 7.86426 69.2673 7.86426 66.7666V66.7666C7.86426 64.2644 8.18385 62.2363 12.9741 62.2363H13.7038C18.4941 62.2363 18.8137 64.2644 18.8137 66.7666V66.7666Z" fill="black" fill-opacity="0.7"/>
<path d="M18.8137 66.7666C18.8137 69.268 16.7604 71.2968 13.339 71.2968H12.6545C9.23312 71.2968 7.86426 69.2673 7.86426 66.7666V66.7666C7.86426 64.2644 8.18385 62.2363 12.9741 62.2363H13.7038C18.4941 62.2363 18.8137 64.2644 18.8137 66.7666V66.7666Z" fill="url(#paint0_linear)" style="mix-blend-mode:screen"/>
<path d="M34.1369 66.7666C34.1369 69.268 32.0844 71.2968 28.6622 71.2968H27.9778C24.5564 71.2968 23.1875 69.2673 23.1875 66.7666V66.7666C23.1875 64.2644 23.5071 62.2363 28.2974 62.2363H29.027C33.8166 62.2363 34.1369 64.2644 34.1369 66.7666V66.7666Z" fill="black" fill-opacity="0.7"/>
<path d="M34.1369 66.7666C34.1369 69.268 32.0844 71.2968 28.6622 71.2968H27.9778C24.5564 71.2968 23.1875 69.2673 23.1875 66.7666V66.7666C23.1875 64.2644 23.5071 62.2363 28.2974 62.2363H29.027C33.8166 62.2363 34.1369 64.2644 34.1369 66.7666V66.7666Z" fill="url(#paint1_linear)" style="mix-blend-mode:screen"/>
<path fill-rule="evenodd" clip-rule="evenodd" d="M12.6552 72.053H13.3396C16.9931 72.053 19.544 69.8792 19.544 66.7677C19.544 64.0933 19.0931 61.4824 13.7045 61.4824H12.9748C7.58619 61.4824 7.13525 64.0933 7.13525 66.7677C7.13525 70.077 9.19876 72.053 12.6552 72.053ZM8.59456 66.768C8.59456 64.6584 8.59456 62.992 12.9748 62.992H13.7044C18.0846 62.992 18.0846 64.6584 18.0846 66.768C18.0846 68.9908 16.1335 70.5432 13.3396 70.5432H12.6552C9.29869 70.5432 8.59456 68.4902 8.59456 66.768Z" fill="#252C2F"/>
<path fill-rule="evenodd" clip-rule="evenodd" d="M27.9785 72.053H28.6629C32.3163 72.053 34.8673 69.8792 34.8673 66.7677C34.8673 64.0933 34.4163 61.4824 29.0277 61.4824H28.298C22.9094 61.4824 22.4585 64.0933 22.4585 66.7677C22.4585 70.077 24.522 72.053 27.9785 72.053ZM23.9176 66.768C23.9176 64.6584 23.9176 62.992 28.2978 62.992H29.0275C33.4077 62.992 33.4077 64.6584 33.4077 66.768C33.4077 68.9908 31.4565 70.5432 28.6626 70.5432H27.9782C24.6224 70.5432 23.9176 68.4902 23.9176 66.768Z" fill="#252C2F"/>
<path d="M5.67791 62.9925C5.84866 62.8158 7.71661 61.4824 12.9746 61.4824C17.3833 61.4824 18.3165 61.9672 19.7292 62.6995L19.8326 62.7536C19.9308 62.7904 20.433 62.9711 21.0205 62.991C21.5557 62.9667 22.0136 62.813 22.1473 62.7637C23.7597 61.933 25.338 61.4824 29.0274 61.4824C34.2854 61.4824 36.1533 62.8158 36.3241 62.9925C36.7276 62.9925 37.0537 63.33 37.0537 63.7475V64.5026C37.0537 64.9201 36.7276 65.2576 36.3241 65.2576C36.3241 65.2576 34.8647 65.2576 34.8647 66.0127C34.8647 66.7677 34.1351 64.9201 34.1351 64.5026V63.7672C33.2452 63.4064 31.6522 62.9925 29.0274 62.9925C26.1029 62.9925 24.6465 63.2841 23.3971 63.8296L23.4111 63.8653L22.7899 64.1251L23.4105 64.385L22.8629 65.7848L22.1865 65.5014C22.1261 65.4761 21.9958 65.4307 21.8151 65.3835C21.3112 65.2518 20.7933 65.2117 20.3352 65.3114C20.1671 65.3479 20.0112 65.4027 19.8681 65.4768L19.2155 65.8146L18.5626 64.4641L19.2152 64.1263L19.2168 64.1255L18.5916 63.8638L18.6116 63.8128C17.5341 63.2809 16.5406 62.9925 12.9746 62.9925C10.3499 62.9925 8.75697 63.4061 7.86692 63.7669V64.5026C7.86692 64.9201 7.13725 66.7677 7.13725 66.0127C7.13725 65.2576 5.67791 65.2576 5.67791 65.2576C5.27513 65.2576 4.94824 64.9201 4.94824 64.5026V63.7475C4.94824 63.33 5.27513 62.9925 5.67791 62.9925Z" fill="#252C2F"/>
</g>
<path fill-rule="evenodd" clip-rule="evenodd" d="M73.0107 119.34C71.0652 116.525 68.1969 114.48 64.9024 113.557L57.2506 111.413V105.914C60.4854 103.484 62.6097 99.6599 62.7402 95.3345C63.1923 95.5338 63.6913 95.6467 64.2175 95.6467C66.2424 95.6467 67.8842 94.0052 67.8842 91.9801C67.8842 89.955 66.2424 88.3134 64.2175 88.3134C63.6955 88.3134 63.2002 88.424 62.7508 88.6205V87.5801C62.7508 79.986 56.5947 73.8301 49.0008 73.8301H49.0006C41.4068 73.8301 35.2508 79.986 35.2508 87.5801V88.6205C34.8013 88.424 34.3059 88.3134 33.7841 88.3134C31.759 88.3134 30.1175 89.955 30.1175 91.9801C30.1175 94.0052 31.759 95.6467 33.7841 95.6467C34.3101 95.6467 34.8092 95.534 35.2614 95.3345C35.3918 99.6599 37.5161 103.484 40.7506 105.914V111.413L33.099 113.557C29.8045 114.48 26.9363 116.525 24.9907 119.34L19.6675 127.041V132.497H78.3342V127.041L73.0107 119.34Z" fill="#E9ADA1"/>
<path fill-rule="evenodd" clip-rule="evenodd" d="M49.0001 108.666C47.3047 108.666 45.6818 108.357 44.1821 107.796C46.315 109.158 48.848 109.949 51.5668 109.949C53.5945 109.949 55.5174 109.507 57.2501 108.719V105.916C54.952 107.642 52.0957 108.666 49.0001 108.666Z" fill="#DB8B79"/>
<path d="M35.7284 92.5145C35.7751 92.3442 35.8002 92.1647 35.8002 91.9796C35.8002 90.8658 34.8973 89.9629 33.7836 89.9629C33.5051 89.9629 33.2398 90.0194 32.9985 90.1213" stroke="#00004D" stroke-width="0.849045" stroke-linecap="round" stroke-linejoin="round"/>
<path d="M62.2719 92.5145C62.2251 92.3442 62.2002 92.1647 62.2002 91.9796C62.2002 90.8658 63.1031 89.9629 64.2169 89.9629C64.4952 89.9629 64.7604 90.0194 65.0019 90.1213" stroke="#00004D" stroke-width="0.849045" stroke-linecap="round" stroke-linejoin="round"/>
<path fill-rule="evenodd" clip-rule="evenodd" d="M52.6663 100.234C52.6663 102.259 51.0248 103.901 48.9997 103.901C46.9746 103.901 45.333 102.259 45.333 100.234H52.6663Z" fill="white"/>
<path fill-rule="evenodd" clip-rule="evenodd" d="M56.5168 92.5331C56.5168 93.343 55.8601 93.9997 55.0502 93.9997C54.2402 93.9997 53.5835 93.343 53.5835 92.5331C53.5835 91.7231 54.2402 91.0664 55.0502 91.0664C55.8601 91.0664 56.5168 91.7231 56.5168 92.5331" fill="#00004D"/>
<path fill-rule="evenodd" clip-rule="evenodd" d="M44.4167 92.5331C44.4167 93.343 43.76 93.9997 42.9501 93.9997C42.1401 93.9997 41.4834 93.343 41.4834 92.5331C41.4834 91.7231 42.1401 91.0664 42.9501 91.0664C43.76 91.0664 44.4167 91.7231 44.4167 92.5331" fill="#00004D"/>
<path d="M48.9999 91.0664L50.8333 97.2997L48.2666 97.6664" stroke="#00004D" stroke-width="0.849045" stroke-linecap="round" stroke-linejoin="round"/>
<path fill-rule="evenodd" clip-rule="evenodd" d="M44.6654 81.9822C42.7574 85.242 39.8692 87.8547 36.4079 89.4279C35.7961 88.7998 34.961 88.3935 34.0309 88.331L34.5126 85.282V85.2818C34.8195 83.3383 35.5086 81.5222 36.4995 79.9112C37.4147 78.424 38.5892 77.115 39.9581 76.0422C40.4933 75.6227 41.0574 75.2384 41.6484 74.895C43.308 73.9318 45.173 73.2839 47.1622 73.0342C47.7639 72.9587 48.3768 72.918 48.9992 72.918C51.6786 72.918 54.1883 73.6401 56.3499 74.895C58.4533 76.1162 60.226 77.8425 61.4989 79.9112C62.4898 81.5222 63.1789 83.3383 63.4858 85.282L63.9669 88.3273C62.9947 88.3931 62.1282 88.8392 61.51 89.5162C54.9951 89.0113 49.1167 86.2377 44.6654 81.9822ZM40.7493 105.913C37.5177 103.482 35.3903 99.6622 35.26 95.3381C34.8077 95.5375 34.3087 95.6503 33.7827 95.6503C33.475 95.6503 33.1782 95.6085 32.8928 95.537L30.666 109.634H40.7493V105.913ZM64.216 95.6503C63.69 95.6503 63.1908 95.5375 62.7385 95.3381C62.6081 99.6622 60.4809 103.482 57.2493 105.912V109.634H67.3326L65.1059 95.537C64.8204 95.6083 64.5236 95.6503 64.216 95.6503Z" fill="#00004D"/>
<path fill-rule="evenodd" clip-rule="evenodd" d="M78.3342 127.043L73.0107 119.342C71.0654 116.528 68.1971 114.482 64.9024 113.56L57.2508 111.416C57.2508 115.972 53.5572 119.666 49.0008 119.666V119.666C44.4444 119.666 40.7508 115.972 40.7508 111.416L33.099 113.56C29.8045 114.482 26.9363 116.528 24.9907 119.342L19.6675 127.043V132.499H78.3342V127.043Z" fill="#2384F5"/>
<path fill-rule="evenodd" clip-rule="evenodd" d="M132.247 115.127C130.144 112.086 127.044 109.875 123.484 108.878L115.215 106.561V100.618C118.711 97.9918 121.006 93.8594 121.147 89.185C121.636 89.4004 122.175 89.5224 122.744 89.5224C124.932 89.5224 126.706 87.7484 126.706 85.5599C126.706 83.3714 124.932 81.5973 122.744 81.5973C122.18 81.5973 121.645 81.7168 121.159 81.9292V80.8048C121.159 72.598 114.506 65.9453 106.299 65.9453H106.299C98.0926 65.9453 91.4399 72.598 91.4399 80.8048V81.9292C90.9541 81.7168 90.4188 81.5973 89.8549 81.5973C87.6664 81.5973 85.8924 83.3714 85.8924 85.5599C85.8924 87.7484 87.6664 89.5224 89.8549 89.5224C90.4233 89.5224 90.9626 89.4006 91.4514 89.185C91.5923 93.8594 93.888 97.9918 97.3835 100.618V106.561L89.1145 108.878C85.5542 109.875 82.4545 112.086 80.3519 115.127L74.5991 123.45V129.346H138V123.45L132.247 115.127Z" fill="#FFCF83"/>
<path fill-rule="evenodd" clip-rule="evenodd" d="M106.3 103.589C104.467 103.589 102.713 103.255 101.093 102.649C103.398 104.121 106.135 104.976 109.073 104.976C111.265 104.976 113.343 104.498 115.215 103.646V100.617C112.732 102.483 109.645 103.589 106.3 103.589Z" fill="#F7A74F"/>
<path d="M91.9565 86.1423C92.007 85.9582 92.0341 85.7643 92.0341 85.5642C92.0341 84.3605 91.0583 83.3848 89.8547 83.3848C89.5538 83.3848 89.2671 83.4458 89.0063 83.5559" stroke="#00004D" stroke-width="1.0492" stroke-linecap="round" stroke-linejoin="round"/>
<path d="M120.642 86.1423C120.592 85.9582 120.565 85.7643 120.565 85.5642C120.565 84.3605 121.541 83.3848 122.744 83.3848C123.045 83.3848 123.332 83.4458 123.593 83.5559" stroke="#00004D" stroke-width="1.0492" stroke-linecap="round" stroke-linejoin="round"/>
<path fill-rule="evenodd" clip-rule="evenodd" d="M110.262 94.4785C110.262 96.667 108.488 98.4411 106.3 98.4411C104.111 98.4411 102.337 96.667 102.337 94.4785H110.262Z" fill="white"/>
<path fill-rule="evenodd" clip-rule="evenodd" d="M114.423 86.1553C114.423 87.0306 113.713 87.7403 112.838 87.7403C111.963 87.7403 111.253 87.0306 111.253 86.1553C111.253 85.28 111.963 84.5703 112.838 84.5703C113.713 84.5703 114.423 85.28 114.423 86.1553" fill="#00004D"/>
<path fill-rule="evenodd" clip-rule="evenodd" d="M101.346 86.1553C101.346 87.0306 100.637 87.7403 99.7613 87.7403C98.886 87.7403 98.1763 87.0306 98.1763 86.1553C98.1763 85.28 98.886 84.5703 99.7613 84.5703C100.637 84.5703 101.346 85.28 101.346 86.1553" fill="#00004D"/>
<path d="M106.3 84.5703L108.281 91.3066L105.507 91.7029" stroke="#00004D" stroke-width="1.0492" stroke-linecap="round" stroke-linejoin="round"/>
<path fill-rule="evenodd" clip-rule="evenodd" d="M122.15 81.649V80.8072C122.15 77.7667 121.292 74.9272 119.808 72.5146C118.432 70.2787 116.516 68.4132 114.243 67.0936C111.907 65.7373 109.195 64.957 106.299 64.957C103.404 64.957 100.692 65.7373 98.3555 67.0936C96.0826 68.4132 94.1667 70.2787 92.7911 72.5146C91.3069 74.9272 90.4492 77.7667 90.4492 80.8072V81.649C91.2758 81.7738 92.0182 82.1513 92.5945 82.7037C94.4201 80.8714 95.8902 78.6852 96.8903 76.2548C99.6895 77.7683 102.894 78.6278 106.299 78.6278C109.705 78.6278 112.909 77.7683 115.708 76.2548C116.708 78.6852 118.179 80.8714 120.004 82.7037C120.581 82.1513 121.323 81.7738 122.15 81.649" fill="#00004D"/>
<path fill-rule="evenodd" clip-rule="evenodd" d="M118.177 70.9624L116.139 66.7115C114.819 63.9561 112.034 62.2031 108.979 62.2031H103.492C100.437 62.2031 97.6525 63.9561 96.3317 66.7115L94.2938 70.9624C82.6694 73.0272 74.4712 78.0158 74.4712 83.8428C74.4712 89.5209 82.2563 94.4029 93.4105 96.5595C92.1761 94.4666 91.4356 92.0474 91.3575 89.4604C90.8678 89.6766 90.3274 89.7987 89.7578 89.7987C87.5649 89.7987 85.7873 88.0208 85.7873 85.8281C85.7873 83.6352 87.5649 81.8575 89.7578 81.8575C90.3228 81.8575 90.8592 81.9773 91.346 82.1901V81.4605C91.346 78.2976 98.0122 75.7336 106.236 75.7336C114.459 75.7336 121.125 78.2976 121.125 81.4605V82.1901C121.612 81.9773 122.148 81.8575 122.713 81.8575C124.906 81.8575 126.684 83.6352 126.684 85.8281C126.684 88.0208 124.906 89.7987 122.713 89.7987C122.144 89.7987 121.603 89.6766 121.113 89.4604C121.035 92.0474 120.295 94.4666 119.06 96.5595C130.215 94.4029 138 89.5209 138 83.8428C138 78.0158 129.802 73.0272 118.177 70.9624" fill="#844123"/>
<path fill-rule="evenodd" clip-rule="evenodd" d="M138 123.451L132.247 115.129C130.144 112.087 127.045 109.876 123.484 108.879L115.215 106.562C115.215 111.487 111.223 115.478 106.299 115.478V115.478C101.375 115.478 97.3837 111.487 97.3837 106.562L89.1145 108.879C85.5542 109.876 82.4545 112.087 80.3519 115.129L74.5991 123.451V129.347H138V123.451Z" fill="#FB344F"/>
</g>
<rect x="94" width="31" height="31" rx="15.5" fill="#7E7E7E"/>
<line x1="109.646" y1="10.0905" x2="109.646" y2="20.9113" stroke="white" stroke-width="1.46226" stroke-linecap="round"/>
<line x1="104.09" y1="15.0618" x2="114.91" y2="15.0618" stroke="white" stroke-width="1.46226" stroke-linecap="round"/>
<defs>
<filter id="filter0_d" x="4.94824" y="61.4824" width="32.1055" height="12.2959" filterUnits="userSpaceOnUse" color-interpolation-filters="sRGB">
<feFlood flood-opacity="0" result="BackgroundImageFix"/>
<feColorMatrix in="SourceAlpha" type="matrix" values="0 0 0 0 0 0 0 0 0 0 0 0 0 0 0 0 0 0 127 0"/>
<feOffset dy="1.7254"/>
<feColorMatrix type="matrix" values="0 0 0 0 0 0 0 0 0 0 0 0 0 0 0 0 0 0 0.2 0"/>
<feBlend mode="normal" in2="BackgroundImageFix" result="effect1_dropShadow"/>
<feBlend mode="normal" in="SourceGraphic" in2="effect1_dropShadow" result="shape"/>
</filter>
<linearGradient id="paint0_linear" x1="7.86426" y1="62.2363" x2="7.86426" y2="71.2968" gradientUnits="userSpaceOnUse">
<stop stop-color="white" stop-opacity="0.5"/>
<stop offset="0.705058" stop-opacity="0.5"/>
</linearGradient>
<linearGradient id="paint1_linear" x1="23.1875" y1="62.2363" x2="23.1875" y2="71.2968" gradientUnits="userSpaceOnUse">
<stop stop-color="white" stop-opacity="0.5"/>
<stop offset="0.705058" stop-opacity="0.5"/>
</linearGradient>
</defs>
</svg>
