<svg width="280" height="177" viewBox="0 0 280 177" fill="none" xmlns="http://www.w3.org/2000/svg">
<path fill-rule="evenodd" clip-rule="evenodd" d="M53.7235 161.447C81.1851 161.447 103.447 139.185 103.447 111.724C103.447 84.262 81.1851 62 53.7235 62C26.262 62 4 84.262 4 111.724C4 139.185 26.262 161.447 53.7235 161.447Z" fill="#E0E0E0"/>
<mask id="mask0" mask-type="alpha" maskUnits="userSpaceOnUse" x="4" y="62" width="100" height="100">
<path fill-rule="evenodd" clip-rule="evenodd" d="M53.7235 161.447C81.1851 161.447 103.447 139.185 103.447 111.724C103.447 84.262 81.1851 62 53.7235 62C26.262 62 4 84.262 4 111.724C4 139.185 26.262 161.447 53.7235 161.447Z" fill="white"/>
</mask>
<g mask="url(#mask0)">
<path fill-rule="evenodd" clip-rule="evenodd" d="M89.9015 149.911C86.9701 145.67 82.6483 142.588 77.6842 141.197L66.1547 137.967V129.68C71.0287 126.019 74.2295 120.258 74.4262 113.74C75.1074 114.041 75.8593 114.211 76.6522 114.211C79.7032 114.211 82.177 111.737 82.177 108.686C82.177 105.634 79.7032 103.161 76.6522 103.161C75.8657 103.161 75.1193 103.328 74.4422 103.624V102.056C74.4422 90.6135 65.1663 81.3379 53.7241 81.3379H53.7238C42.2816 81.3379 33.0059 90.6135 33.0059 102.056V103.624C32.3286 103.328 31.5822 103.161 30.796 103.161C27.7446 103.161 25.2712 105.634 25.2712 108.686C25.2712 111.737 27.7446 114.211 30.796 114.211C31.5886 114.211 32.3405 114.041 33.022 113.74C33.2184 120.258 36.4192 126.019 41.2929 129.68V137.967L29.7637 141.197C24.7996 142.588 20.4778 145.67 17.5463 149.911L9.52539 161.514V169.735H97.9228V161.514L89.9015 149.911Z" fill="#FFCF83"/>
<path fill-rule="evenodd" clip-rule="evenodd" d="M53.7235 133.823C51.1688 133.823 48.7235 133.358 46.4639 132.512C49.6777 134.565 53.4942 135.757 57.5909 135.757C60.6461 135.757 63.5436 135.09 66.1544 133.903V129.68C62.6917 132.281 58.3878 133.823 53.7235 133.823Z" fill="#F7A74F"/>
<path d="M33.7265 109.491C33.797 109.235 33.8348 108.964 33.8348 108.685C33.8348 107.007 32.4743 105.646 30.7961 105.646C30.3765 105.646 29.9768 105.732 29.6133 105.885" stroke="#00004D" stroke-width="0.552484" stroke-linecap="round" stroke-linejoin="round"/>
<path d="M73.7213 109.491C73.6509 109.235 73.6133 108.964 73.6133 108.685C73.6133 107.007 74.9738 105.646 76.6519 105.646C77.0713 105.646 77.471 105.732 77.8348 105.885" stroke="#00004D" stroke-width="0.552484" stroke-linecap="round" stroke-linejoin="round"/>
<path fill-rule="evenodd" clip-rule="evenodd" d="M89.9015 149.911C86.9701 145.67 82.6483 142.588 77.6842 141.197L66.1547 137.967V129.68C71.0287 126.019 74.2295 120.258 74.4262 113.74C75.1074 114.041 75.8593 114.211 76.6522 114.211C79.7032 114.211 82.177 111.737 82.177 108.686C82.177 105.634 79.7032 103.161 76.6522 103.161C75.8657 103.161 75.1193 103.328 74.4422 103.624V102.056C74.4422 90.6135 65.1663 81.3379 53.7241 81.3379H53.7238C42.2816 81.3379 33.0059 90.6135 33.0059 102.056V103.624C32.3286 103.328 31.5822 103.161 30.796 103.161C27.7446 103.161 25.2712 105.634 25.2712 108.686C25.2712 111.737 27.7446 114.211 30.796 114.211C31.5886 114.211 32.3405 114.041 33.022 113.74C33.2184 120.258 36.4192 126.019 41.2929 129.68V137.967L29.7637 141.197C24.7996 142.588 20.4778 145.67 17.5463 149.911L9.52539 161.514V169.735H97.9228V161.514L89.9015 149.911Z" fill="#E9ADA1"/>
<path fill-rule="evenodd" clip-rule="evenodd" d="M53.7235 133.823C51.1688 133.823 48.7235 133.358 46.4639 132.512C49.6777 134.565 53.4942 135.757 57.5909 135.757C60.6461 135.757 63.5436 135.09 66.1544 133.903V129.68C62.6917 132.281 58.3878 133.823 53.7235 133.823Z" fill="#DB8B79"/>
<path d="M33.7265 109.491C33.797 109.235 33.8348 108.964 33.8348 108.685C33.8348 107.007 32.4743 105.646 30.7961 105.646C30.3765 105.646 29.9768 105.732 29.6133 105.885" stroke="#00004D" stroke-width="0.552484" stroke-linecap="round" stroke-linejoin="round"/>
<path d="M73.7213 109.491C73.6509 109.235 73.6133 108.964 73.6133 108.685C73.6133 107.007 74.9738 105.646 76.6519 105.646C77.0713 105.646 77.471 105.732 77.8348 105.885" stroke="#00004D" stroke-width="0.552484" stroke-linecap="round" stroke-linejoin="round"/>
<path fill-rule="evenodd" clip-rule="evenodd" d="M59.2484 121.119C59.2484 124.171 56.7749 126.644 53.7236 126.644C50.6722 126.644 48.1987 124.171 48.1987 121.119H59.2484Z" fill="white"/>
<rect x="41.5688" y="118.527" width="24.5855" height="18.4391" fill="#E9ADA1"/>
<path fill-rule="evenodd" clip-rule="evenodd" d="M60.0081 121.445C60.0081 124.84 57.2564 127.592 53.8617 127.592C50.4671 127.592 47.7153 124.84 47.7153 121.445H60.0081Z" fill="#AE1328"/>
<path fill-rule="evenodd" clip-rule="evenodd" d="M57.3018 126.539C56.4149 125.67 55.2016 125.133 53.862 125.133C52.5221 125.133 51.3088 125.67 50.4219 126.539C51.4038 127.204 52.5876 127.591 53.862 127.591C55.1361 127.591 56.3202 127.204 57.3018 126.539" fill="#FB344F"/>
<path fill-rule="evenodd" clip-rule="evenodd" d="M65.0498 109.513C65.0498 110.733 64.0603 111.723 62.8398 111.723C61.6194 111.723 60.6299 110.733 60.6299 109.513C60.6299 108.292 61.6194 107.303 62.8398 107.303C64.0603 107.303 65.0498 108.292 65.0498 109.513" fill="#00004D"/>
<path fill-rule="evenodd" clip-rule="evenodd" d="M46.8178 109.513C46.8178 110.733 45.8283 111.723 44.6079 111.723C43.3874 111.723 42.3979 110.733 42.3979 109.513C42.3979 108.292 43.3874 107.303 44.6079 107.303C45.8283 107.303 46.8178 108.292 46.8178 109.513" fill="#00004D"/>
<path d="M53.7236 107.303L55.8555 114.551C56.188 115.682 55.4405 116.844 54.2738 117.011L52.6187 117.247" stroke="#00004D" stroke-width="0.552484" stroke-linecap="round" stroke-linejoin="round"/>
<path fill-rule="evenodd" clip-rule="evenodd" d="M75.8227 103.228V102.054C75.8227 97.8152 74.6269 93.8561 72.5575 90.4923C70.6396 87.3749 67.9683 84.7738 64.7993 82.9341C61.5421 81.0429 57.7606 79.9551 53.7234 79.9551C49.6858 79.9551 45.9046 81.0429 42.6475 82.9341C39.4784 84.7738 36.8071 87.3749 34.8892 90.4923C32.8199 93.8561 31.624 97.8152 31.624 102.054V103.228C32.7765 103.402 33.8116 103.928 34.6152 104.699C37.1605 102.144 39.2102 99.0959 40.6046 95.7072C44.5074 97.8174 48.9753 99.0158 53.7234 99.0158C58.4714 99.0158 62.9394 97.8174 66.8421 95.7072C68.2363 99.0959 70.2866 102.144 72.8316 104.699C73.6352 103.928 74.6702 103.402 75.8227 103.228" fill="#00004D"/>
<path fill-rule="evenodd" clip-rule="evenodd" d="M97.9228 161.514L89.9015 149.91C86.9703 145.67 82.6485 142.587 77.6842 141.197L66.155 137.967C66.155 144.832 60.5895 150.398 53.7241 150.398V150.398C46.8586 150.398 41.2932 144.832 41.2932 137.967L29.7637 141.197C24.7996 142.587 20.4778 145.67 17.5463 149.91L9.52539 161.514V169.735H97.9228V161.514Z" fill="#FB344F"/>
<path fill-rule="evenodd" clip-rule="evenodd" d="M97.1533 160.704L89.0433 148.995C86.0796 144.717 81.7099 141.606 76.6906 140.203L76.073 140.03L73.575 135.191C72.96 134 71.9355 133.069 70.689 132.57L65.0337 130.306V137.011C65.0328 137.012 65.0325 137.014 65.0317 137.015L52.5366 149.486C52.5126 149.486 52.4891 149.487 52.4651 149.487L39.8965 136.944V130.236L34.2412 132.501C32.9947 133 31.9702 133.93 31.3552 135.122L28.8152 140.042L28.2393 140.203C23.2203 141.606 18.8506 144.717 15.8867 148.995L7.77686 160.704V168.999H97.1533V160.704Z" fill="#6A7A83"/>
<path d="M28.8145 140.043L52.4643 153.704L69.583 143.866" stroke="#00004D" stroke-width="0.539496" stroke-linecap="round" stroke-linejoin="round"/>
<path fill-rule="evenodd" clip-rule="evenodd" d="M46.0405 164.85V164.85C45.5777 164.85 45.2026 164.476 45.2026 164.014V149.527L46.8784 150.474V164.014C46.8784 164.476 46.5033 164.85 46.0405 164.85" fill="#00004D"/>
<path fill-rule="evenodd" clip-rule="evenodd" d="M58.8887 158.997V158.997C58.4259 158.997 58.0508 158.622 58.0508 158.16V150.49L59.7266 149.527V158.16C59.7266 158.622 59.3515 158.997 58.8887 158.997" fill="#00004D"/>
<path d="M37.6616 134.717L39.896 136.947" stroke="#00004D" stroke-width="0.539496" stroke-linecap="round" stroke-linejoin="round"/>
<path fill-rule="evenodd" clip-rule="evenodd" d="M58.3448 125.738L56.3221 126.951C54.7157 127.915 52.7326 127.915 51.1262 126.951L49.1032 125.738C48.0304 125.094 47.5504 123.753 47.9593 122.543L48.3068 121.514C48.4519 121.084 48.8437 120.796 49.2838 120.796H58.1642C58.6043 120.796 58.9963 121.084 59.1412 121.514L59.4887 122.543C59.8976 123.753 59.4176 125.094 58.3448 125.738M71.3765 112.354L70.0374 116.871C69.3069 119.335 67.476 121.287 65.1156 122.117L62.6258 122.993L61.6301 120.963C60.7483 119.166 58.9644 118.033 57.0146 118.033H53.7238H50.4326C48.4831 118.033 46.699 119.166 45.8171 120.963L44.8214 122.993L42.3317 122.117C39.9713 121.287 38.1403 119.335 37.4098 116.871L36.0708 112.354C35.5838 112.907 34.9889 113.356 34.3169 113.66V123.738C34.3169 134.818 43.0055 143.8 53.7238 143.8C64.4415 143.8 73.1306 134.818 73.1306 123.738V113.66C72.4584 113.356 71.8635 112.907 71.3765 112.354" fill="#00004D"/>
</g>
<path fill-rule="evenodd" clip-rule="evenodd" d="M28.495 176.409C30.5112 176.409 32.1457 174.774 32.1457 172.758C32.1457 170.742 30.5112 169.107 28.495 169.107C26.4787 169.107 24.8442 170.742 24.8442 172.758C24.8442 174.774 26.4787 176.409 28.495 176.409Z" fill="#F4F4F4"/>
<rect x="28" y="137" width="1" height="33" fill="#F4F4F4"/>
<path fill-rule="evenodd" clip-rule="evenodd" d="M79.6068 164.163C81.623 164.163 83.2575 162.528 83.2575 160.512C83.2575 158.496 81.623 156.861 79.6068 156.861C77.5905 156.861 75.9561 158.496 75.9561 160.512C75.9561 162.528 77.5905 164.163 79.6068 164.163Z" fill="#F4F4F4"/>
<rect x="79.2012" y="134.145" width="0.811275" height="23.527" fill="#F4F4F4"/>
<path fill-rule="evenodd" clip-rule="evenodd" d="M54.0498 82.2255C58.5303 82.2255 62.1625 78.5933 62.1625 74.1127C62.1625 69.6322 58.5303 66 54.0498 66C49.5692 66 45.937 69.6322 45.937 74.1127C45.937 78.5933 49.5692 82.2255 54.0498 82.2255Z" fill="#F4F4F4"/>
<path fill-rule="evenodd" clip-rule="evenodd" d="M54.0506 74.5165V74.5156C31.8328 74.5156 24.8447 93.9064 24.8447 107.796V137.759C24.8447 145.666 34.0256 145.683 34.0256 133.328V101.099C34.0256 98.6347 35.5393 97.4482 38.0071 97.4482H54.0501V97.4491H70.0936C72.5614 97.4491 74.0751 98.6355 74.0751 101.1V133.329C74.0751 145.684 83.2559 145.667 83.2559 137.76V107.797C83.2559 93.9074 76.268 74.5168 54.0506 74.5165Z" fill="#F4F4F4"/>
<mask id="mask1" mask-type="alpha" maskUnits="userSpaceOnUse" x="24" y="74" width="60" height="70">
<path fill-rule="evenodd" clip-rule="evenodd" d="M54.0506 74.5165V74.5156C31.8328 74.5156 24.8447 93.9064 24.8447 107.796V137.759C24.8447 145.666 34.0256 145.683 34.0256 133.328V101.099C34.0256 98.6347 35.5393 97.4482 38.0071 97.4482H54.0501V97.4491H70.0936C72.5614 97.4491 74.0751 98.6355 74.0751 101.1V133.329C74.0751 145.684 83.2559 145.667 83.2559 137.76V107.797C83.2559 93.9074 76.268 74.5168 54.0506 74.5165Z" fill="white"/>
</mask>
<g mask="url(#mask1)">
<rect x="24.0337" y="73.709" width="60.44" height="69.7696" fill="#65C9FF"/>
<rect x="24.439" y="74.5176" width="59.223" height="18.6593" fill="black" fill-opacity="0.2"/>
<path fill-rule="evenodd" clip-rule="evenodd" d="M41.6795 86.2793L36.6091 78.9778H46.75L41.6795 86.2793Z" fill="white" fill-opacity="0.5"/>
<path fill-rule="evenodd" clip-rule="evenodd" d="M54.2547 86.2793L49.1843 78.9778H59.3252L54.2547 86.2793Z" fill="white" fill-opacity="0.5"/>
<path fill-rule="evenodd" clip-rule="evenodd" d="M66.8289 86.2793L61.7585 78.9778H71.8994L66.8289 86.2793Z" fill="white" fill-opacity="0.5"/>
<path fill-rule="evenodd" clip-rule="evenodd" d="M35.1877 82.6289L40.2581 89.9304H30.1172L35.1877 82.6289Z" fill="black" fill-opacity="0.5"/>
<path fill-rule="evenodd" clip-rule="evenodd" d="M47.7628 82.6289L52.8333 89.9304H42.6924L47.7628 82.6289Z" fill="black" fill-opacity="0.5"/>
<path fill-rule="evenodd" clip-rule="evenodd" d="M60.3366 82.6289L65.407 89.9304H55.2661L60.3366 82.6289Z" fill="black" fill-opacity="0.5"/>
<path fill-rule="evenodd" clip-rule="evenodd" d="M72.9118 82.6289L77.9822 89.9304H67.8413L72.9118 82.6289Z" fill="black" fill-opacity="0.5"/>
</g>
<path fill-rule="evenodd" clip-rule="evenodd" d="M13 105C12.4477 105 12 104.552 12 104V102.5C12 102.224 11.7761 102 11.5 102V102C11.2239 102 11 102.224 11 102.5V104C11 104.552 10.5523 105 10 105H8.5C8.22386 105 8 105.224 8 105.5V105.5C8 105.776 8.22386 106 8.5 106H10C10.5523 106 11 106.448 11 107V108.5C11 108.776 11.2239 109 11.5 109V109C11.7761 109 12 108.776 12 108.5V107C12 106.448 12.4477 106 13 106H14.5C14.7761 106 15 105.776 15 105.5V105.5C15 105.224 14.7761 105 14.5 105H13Z" fill="white"/>
<path fill-rule="evenodd" clip-rule="evenodd" d="M20 125C19.4477 125 19 124.552 19 124V122.5C19 122.224 18.7761 122 18.5 122V122C18.2239 122 18 122.224 18 122.5V124C18 124.552 17.5523 125 17 125H15.5C15.2239 125 15 125.224 15 125.5V125.5C15 125.776 15.2239 126 15.5 126H17C17.5523 126 18 126.448 18 127V128.5C18 128.776 18.2239 129 18.5 129V129C18.7761 129 19 128.776 19 128.5V127C19 126.448 19.4477 126 20 126H21.5C21.7761 126 22 125.776 22 125.5V125.5C22 125.224 21.7761 125 21.5 125H20Z" fill="white"/>
<path fill-rule="evenodd" clip-rule="evenodd" d="M27 85C26.4477 85 26 84.5523 26 84V82.5C26 82.2239 25.7761 82 25.5 82V82C25.2239 82 25 82.2239 25 82.5V84C25 84.5523 24.5523 85 24 85H22.5C22.2239 85 22 85.2239 22 85.5V85.5C22 85.7761 22.2239 86 22.5 86H24C24.5523 86 25 86.4477 25 87V88.5C25 88.7761 25.2239 89 25.5 89V89C25.7761 89 26 88.7761 26 88.5V87C26 86.4477 26.4477 86 27 86H28.5C28.7761 86 29 85.7761 29 85.5V85.5C29 85.2239 28.7761 85 28.5 85H27Z" fill="white"/>
<path fill-rule="evenodd" clip-rule="evenodd" d="M91 87C90.4477 87 90 86.5523 90 86V84.5C90 84.2239 89.7761 84 89.5 84V84C89.2239 84 89 84.2239 89 84.5V86C89 86.5523 88.5523 87 88 87H86.5C86.2239 87 86 87.2239 86 87.5V87.5C86 87.7761 86.2239 88 86.5 88H88C88.5523 88 89 88.4477 89 89V90.5C89 90.7761 89.2239 91 89.5 91V91C89.7761 91 90 90.7761 90 90.5V89C90 88.4477 90.4477 88 91 88H92.5C92.7761 88 93 87.7761 93 87.5V87.5C93 87.2239 92.7761 87 92.5 87H91Z" fill="white"/>
<path fill-rule="evenodd" clip-rule="evenodd" d="M96 123C95.4477 123 95 122.552 95 122V120.5C95 120.224 94.7761 120 94.5 120V120C94.2239 120 94 120.224 94 120.5V122C94 122.552 93.5523 123 93 123H91.5C91.2239 123 91 123.224 91 123.5V123.5C91 123.776 91.2239 124 91.5 124H93C93.5523 124 94 124.448 94 125V126.5C94 126.776 94.2239 127 94.5 127V127C94.7761 127 95 126.776 95 126.5V125C95 124.448 95.4477 124 96 124H97.5C97.7761 124 98 123.776 98 123.5V123.5C98 123.224 97.7761 123 97.5 123H96Z" fill="white"/>
<path fill-rule="evenodd" clip-rule="evenodd" d="M90 106C89.4477 106 89 105.552 89 105V103.5C89 103.224 88.7761 103 88.5 103V103C88.2239 103 88 103.224 88 103.5V105C88 105.552 87.5523 106 87 106H85.5C85.2239 106 85 106.224 85 106.5V106.5C85 106.776 85.2239 107 85.5 107H87C87.5523 107 88 107.448 88 108V109.5C88 109.776 88.2239 110 88.5 110V110C88.7761 110 89 109.776 89 109.5V108C89 107.448 89.4477 107 90 107H91.5C91.7761 107 92 106.776 92 106.5V106.5C92 106.224 91.7761 106 91.5 106H90Z" fill="white"/>
<path d="M24 5.99999C24 2.68629 26.6863 0 30 0H274C277.314 0 280 2.68629 280 6V60C280 63.3137 277.314 66 274 66H152H88.7082C88.2425 66 87.7831 66.1084 87.3666 66.3167L72.4472 73.7764C72.1657 73.9172 71.8343 73.9172 71.5528 73.7764L56.6334 66.3167C56.2169 66.1084 55.7575 66 55.2918 66H30C26.6863 66 24 63.3137 24 60V5.99999Z" fill="#5922CE"/>
<path d="M51.4141 36.9453L53.8516 27.8906C53.862 27.8438 53.8698 27.7995 53.875 27.7578C53.8854 27.7161 53.8906 27.6745 53.8906 27.6328C53.8906 27.4609 53.8411 27.3099 53.7422 27.1797C53.6484 27.0495 53.5286 26.9531 53.3828 26.8906C53.237 26.8229 53.0833 26.7891 52.9219 26.7891C52.7188 26.7891 52.5365 26.8438 52.375 26.9531C52.2135 27.0625 52.1068 27.2214 52.0547 27.4297L49.8828 36.0938L47.3438 27.7031C47.2344 27.3438 47.0781 27.1016 46.875 26.9766C46.6771 26.8464 46.4193 26.7812 46.1016 26.7812C45.7891 26.7812 45.5312 26.849 45.3281 26.9844C45.125 27.1146 44.9714 27.3542 44.8672 27.7031L42.3203 36.0938L40.1562 27.4297C40.1042 27.2214 39.9974 27.0625 39.8359 26.9531C39.6745 26.8438 39.4922 26.7891 39.2891 26.7891C39.0339 26.7891 38.8073 26.8672 38.6094 27.0234C38.4167 27.1745 38.3203 27.375 38.3203 27.625C38.3203 27.7135 38.3333 27.8021 38.3594 27.8906L40.7969 36.9453C40.8906 37.2839 41.0677 37.5443 41.3281 37.7266C41.5885 37.9089 41.8828 38 42.2109 38C42.5339 38 42.8281 37.9115 43.0938 37.7344C43.3646 37.5521 43.5495 37.2995 43.6484 36.9766L46.1016 28.9844L48.5625 36.9766C48.6615 37.3047 48.8438 37.5573 49.1094 37.7344C49.375 37.9115 49.6693 38 49.9922 38C50.3203 38 50.6146 37.9089 50.875 37.7266C51.1406 37.5443 51.3203 37.2839 51.4141 36.9453ZM58.9062 36.9453C58.1823 36.9453 57.6146 36.6953 57.2031 36.1953C56.7969 35.6953 56.5938 35 56.5938 34.1094C56.5938 33.2083 56.7969 32.5052 57.2031 32C57.6146 31.4948 58.1823 31.2422 58.9062 31.2422C59.6302 31.2422 60.1953 31.4974 60.6016 32.0078C61.013 32.513 61.2188 33.2135 61.2188 34.1094C61.2188 35 61.0156 35.6953 60.6094 36.1953C60.2031 36.6953 59.6354 36.9453 58.9062 36.9453ZM58.9062 38.1094C59.4375 38.1094 59.9245 38.0365 60.3672 37.8906C60.8099 37.7396 61.1849 37.5391 61.4922 37.2891C61.8047 37.0339 62.0677 36.7344 62.2812 36.3906C62.5 36.0469 62.6589 35.6849 62.7578 35.3047C62.862 34.9193 62.9141 34.5208 62.9141 34.1094C62.9141 33.5677 62.8281 33.0573 62.6562 32.5781C62.4844 32.099 62.2344 31.6719 61.9062 31.2969C61.5833 30.9219 61.1641 30.6276 60.6484 30.4141C60.1328 30.1953 59.5521 30.0859 58.9062 30.0859C58.2552 30.0859 57.6693 30.1979 57.1484 30.4219C56.6276 30.6406 56.2057 30.9401 55.8828 31.3203C55.5651 31.6953 55.3203 32.1224 55.1484 32.6016C54.9818 33.0755 54.8984 33.5781 54.8984 34.1094C54.8984 34.6302 54.9818 35.1276 55.1484 35.6016C55.3151 36.0703 55.5573 36.4948 55.875 36.875C56.1979 37.25 56.6198 37.5495 57.1406 37.7734C57.6615 37.9974 58.25 38.1094 58.9062 38.1094ZM73.2266 38C73.7578 38 74.1276 37.6823 74.3359 37.0469L76.25 31.2031C76.2812 31.1094 76.2969 31.0182 76.2969 30.9297C76.2969 30.7891 76.2578 30.6615 76.1797 30.5469C76.1016 30.4323 76 30.349 75.875 30.2969C75.7552 30.2396 75.6276 30.2109 75.4922 30.2109C75.3307 30.2109 75.1823 30.2552 75.0469 30.3438C74.9167 30.4323 74.8229 30.5651 74.7656 30.7422L73.0781 36.2266L71.3281 31.0859C71.1302 30.4922 70.763 30.1953 70.2266 30.1953C69.6953 30.1953 69.3281 30.4922 69.125 31.0859L67.3828 36.2266L65.6953 30.7422C65.6693 30.6536 65.6302 30.5755 65.5781 30.5078C65.526 30.4349 65.4661 30.3776 65.3984 30.3359C65.3359 30.2943 65.2682 30.263 65.1953 30.2422C65.1224 30.2214 65.0469 30.2109 64.9688 30.2109C64.7552 30.2109 64.5651 30.2786 64.3984 30.4141C64.237 30.5443 64.1562 30.7188 64.1562 30.9375C64.1562 30.9583 64.1562 30.9792 64.1562 31C64.1615 31.0208 64.1641 31.0443 64.1641 31.0703C64.1693 31.0911 64.1745 31.112 64.1797 31.1328C64.1901 31.1536 64.1979 31.1771 64.2031 31.2031L66.125 37.0469C66.3229 37.6823 66.6927 38 67.2344 38C67.8229 38 68.237 37.6484 68.4766 36.9453L70.2266 31.8281L71.9844 36.9453C72.224 37.6484 72.638 38 73.2266 38ZM79.5078 34.1406C79.5182 34.2552 79.5495 34.3542 79.6016 34.4375C79.6536 34.5156 79.7135 34.5755 79.7812 34.6172C79.8542 34.6536 79.9323 34.6719 80.0156 34.6719C80.1458 34.6719 80.2578 34.6276 80.3516 34.5391C80.4505 34.4453 80.5104 34.3125 80.5312 34.1406L81.0469 27.25C81.0521 27.2188 81.0547 27.1875 81.0547 27.1562C81.0547 26.8854 80.9505 26.6745 80.7422 26.5234C80.5391 26.3672 80.2969 26.2891 80.0156 26.2891C79.7396 26.2891 79.4974 26.3672 79.2891 26.5234C79.0859 26.6745 78.9844 26.8854 78.9844 27.1562C78.9844 27.1667 78.9844 27.1771 78.9844 27.1875C78.9896 27.1979 78.9922 27.2083 78.9922 27.2188C78.9922 27.2292 78.9922 27.2396 78.9922 27.25L79.5078 34.1406ZM80.0469 38.0391C80.349 38.0391 80.5964 37.9427 80.7891 37.75C80.9818 37.5573 81.0781 37.3307 81.0781 37.0703C81.0781 36.7995 80.9792 36.5703 80.7812 36.3828C80.5833 36.1953 80.3385 36.1016 80.0469 36.1016C79.7396 36.1016 79.4896 36.1979 79.2969 36.3906C79.1042 36.5833 79.0078 36.8099 79.0078 37.0703C79.0078 37.3359 79.1068 37.5651 79.3047 37.7578C79.5026 37.9453 79.75 38.0391 80.0469 38.0391ZM92.125 38.0078C92.3906 38.0078 92.6198 37.9245 92.8125 37.7578C93.0052 37.5911 93.1016 37.3594 93.1016 37.0625V28.3281H95.8203C96.0547 28.3281 96.237 28.25 96.3672 28.0938C96.5026 27.9375 96.5703 27.7578 96.5703 27.5547C96.5703 27.3516 96.5026 27.1719 96.3672 27.0156C96.237 26.8594 96.0547 26.7812 95.8203 26.7812H88.4297C88.1901 26.7812 88.0026 26.8594 87.8672 27.0156C87.7318 27.1719 87.6641 27.3516 87.6641 27.5547C87.6641 27.7578 87.7318 27.9375 87.8672 28.0938C88.0026 28.25 88.1901 28.3281 88.4297 28.3281H91.1562V37.0625C91.1562 37.3594 91.2526 37.5911 91.4453 37.7578C91.638 37.9245 91.8646 38.0078 92.125 38.0078ZM98.7344 38C98.9688 38 99.1693 37.9271 99.3359 37.7812C99.5078 37.6354 99.5938 37.4323 99.5938 37.1719V33.6016C99.5938 32.8984 99.7995 32.3333 100.211 31.9062C100.622 31.4792 101.115 31.2656 101.688 31.2656C102.151 31.2656 102.526 31.4167 102.812 31.7188C103.104 32.0156 103.25 32.4557 103.25 33.0391V37.1719C103.25 37.4323 103.333 37.6354 103.5 37.7812C103.667 37.9271 103.865 38 104.094 38C104.328 38 104.531 37.9271 104.703 37.7812C104.875 37.6354 104.961 37.4323 104.961 37.1719V33.0703C104.961 32.5599 104.883 32.1094 104.727 31.7188C104.576 31.3281 104.365 31.0182 104.094 30.7891C103.828 30.5547 103.531 30.3802 103.203 30.2656C102.875 30.1458 102.521 30.0859 102.141 30.0859C101.557 30.0859 101.044 30.1927 100.602 30.4062C100.164 30.6146 99.8281 30.9036 99.5938 31.2734V27.5938C99.5938 27.3438 99.5078 27.1484 99.3359 27.0078C99.1693 26.862 98.9714 26.7891 98.7422 26.7891C98.5078 26.7891 98.3047 26.862 98.1328 27.0078C97.9609 27.1484 97.875 27.3438 97.875 27.5938V37.1719C97.875 37.4323 97.9583 37.6354 98.125 37.7812C98.2969 37.9271 98.5 38 98.7344 38ZM110.594 38.1094C111.729 38.1094 112.688 37.7656 113.469 37.0781C113.641 36.9375 113.727 36.7682 113.727 36.5703C113.727 36.4141 113.672 36.276 113.562 36.1562C113.458 36.0365 113.333 35.9766 113.188 35.9766C113.089 35.9766 112.99 36.0104 112.891 36.0781C112.094 36.6406 111.37 36.9219 110.719 36.9219C110.016 36.9167 109.453 36.7188 109.031 36.3281C108.615 35.9323 108.388 35.3203 108.352 34.4922H113.477C113.654 34.4922 113.781 34.4323 113.859 34.3125C113.943 34.1875 113.984 34.0312 113.984 33.8438C113.974 33.3281 113.896 32.8516 113.75 32.4141C113.604 31.9714 113.391 31.5755 113.109 31.2266C112.833 30.8724 112.464 30.5938 112 30.3906C111.542 30.1875 111.013 30.0859 110.414 30.0859C109.826 30.0859 109.289 30.1927 108.805 30.4062C108.32 30.6198 107.922 30.9089 107.609 31.2734C107.297 31.638 107.055 32.0573 106.883 32.5312C106.716 33 106.633 33.4974 106.633 34.0234C106.633 35.2839 106.995 36.2786 107.719 37.0078C108.448 37.7318 109.406 38.099 110.594 38.1094ZM108.367 33.4609C108.393 33.1797 108.453 32.9115 108.547 32.6562C108.646 32.401 108.779 32.1667 108.945 31.9531C109.112 31.7396 109.328 31.5677 109.594 31.4375C109.859 31.3073 110.156 31.2422 110.484 31.2422C111.12 31.2422 111.604 31.4531 111.938 31.875C112.271 32.2969 112.461 32.8255 112.508 33.4609H108.367ZM117.914 40.7734L122.578 31.2969C122.635 31.1823 122.664 31.0651 122.664 30.9453C122.664 30.7318 122.578 30.5495 122.406 30.3984C122.24 30.2474 122.049 30.1719 121.836 30.1719C121.508 30.1719 121.258 30.3411 121.086 30.6797L118.859 35.2188L116.68 30.7734C116.596 30.6016 116.487 30.4766 116.352 30.3984C116.221 30.3151 116.081 30.2734 115.93 30.2734C115.789 30.2734 115.654 30.3073 115.523 30.375C115.393 30.4375 115.286 30.5286 115.203 30.6484C115.125 30.7682 115.086 30.901 115.086 31.0469C115.086 31.1667 115.117 31.2891 115.18 31.4141L118.008 36.9531L116.461 40.0938C116.435 40.151 116.414 40.2083 116.398 40.2656C116.383 40.3229 116.375 40.3802 116.375 40.4375C116.375 40.6562 116.461 40.8438 116.633 41C116.81 41.1562 117.008 41.2344 117.227 41.2344C117.534 41.2344 117.763 41.0807 117.914 40.7734ZM129.359 38C129.594 38 129.797 37.9245 129.969 37.7734C130.146 37.6172 130.234 37.4089 130.234 37.1484V27.6406C130.234 27.3802 130.148 27.1745 129.977 27.0234C129.805 26.8672 129.604 26.7891 129.375 26.7891C129.141 26.7891 128.938 26.8646 128.766 27.0156C128.599 27.1667 128.516 27.375 128.516 27.6406V37.1484C128.516 37.4193 128.596 37.6302 128.758 37.7812C128.924 37.9271 129.125 38 129.359 38ZM135.984 36.9453C135.26 36.9453 134.693 36.6953 134.281 36.1953C133.875 35.6953 133.672 35 133.672 34.1094C133.672 33.2083 133.875 32.5052 134.281 32C134.693 31.4948 135.26 31.2422 135.984 31.2422C136.708 31.2422 137.273 31.4974 137.68 32.0078C138.091 32.513 138.297 33.2135 138.297 34.1094C138.297 35 138.094 35.6953 137.688 36.1953C137.281 36.6953 136.714 36.9453 135.984 36.9453ZM135.984 38.1094C136.516 38.1094 137.003 38.0365 137.445 37.8906C137.888 37.7396 138.263 37.5391 138.57 37.2891C138.883 37.0339 139.146 36.7344 139.359 36.3906C139.578 36.0469 139.737 35.6849 139.836 35.3047C139.94 34.9193 139.992 34.5208 139.992 34.1094C139.992 33.5677 139.906 33.0573 139.734 32.5781C139.562 32.099 139.312 31.6719 138.984 31.2969C138.661 30.9219 138.242 30.6276 137.727 30.4141C137.211 30.1953 136.63 30.0859 135.984 30.0859C135.333 30.0859 134.747 30.1979 134.227 30.4219C133.706 30.6406 133.284 30.9401 132.961 31.3203C132.643 31.6953 132.398 32.1224 132.227 32.6016C132.06 33.0755 131.977 33.5781 131.977 34.1094C131.977 34.6302 132.06 35.1276 132.227 35.6016C132.393 36.0703 132.635 36.4948 132.953 36.875C133.276 37.25 133.698 37.5495 134.219 37.7734C134.74 37.9974 135.328 38.1094 135.984 38.1094ZM145.25 36.9453C144.526 36.9453 143.958 36.6953 143.547 36.1953C143.141 35.6953 142.938 35 142.938 34.1094C142.938 33.2083 143.141 32.5052 143.547 32C143.958 31.4948 144.526 31.2422 145.25 31.2422C145.974 31.2422 146.539 31.4974 146.945 32.0078C147.357 32.513 147.562 33.2135 147.562 34.1094C147.562 35 147.359 35.6953 146.953 36.1953C146.547 36.6953 145.979 36.9453 145.25 36.9453ZM145.25 38.1094C145.781 38.1094 146.268 38.0365 146.711 37.8906C147.154 37.7396 147.529 37.5391 147.836 37.2891C148.148 37.0339 148.411 36.7344 148.625 36.3906C148.844 36.0469 149.003 35.6849 149.102 35.3047C149.206 34.9193 149.258 34.5208 149.258 34.1094C149.258 33.5677 149.172 33.0573 149 32.5781C148.828 32.099 148.578 31.6719 148.25 31.2969C147.927 30.9219 147.508 30.6276 146.992 30.4141C146.477 30.1953 145.896 30.0859 145.25 30.0859C144.599 30.0859 144.013 30.1979 143.492 30.4219C142.971 30.6406 142.549 30.9401 142.227 31.3203C141.909 31.6953 141.664 32.1224 141.492 32.6016C141.326 33.0755 141.242 33.5781 141.242 34.1094C141.242 34.6302 141.326 35.1276 141.492 35.6016C141.659 36.0703 141.901 36.4948 142.219 36.875C142.542 37.25 142.964 37.5495 143.484 37.7734C144.005 37.9974 144.594 38.1094 145.25 38.1094ZM151.828 38C152.062 38 152.266 37.9245 152.438 37.7734C152.609 37.6172 152.695 37.4062 152.695 37.1406V34.0156L156.273 37.7812C156.435 37.9531 156.622 38.0391 156.836 38.0391C156.971 38.0391 157.102 38.0052 157.227 37.9375C157.352 37.8646 157.451 37.7682 157.523 37.6484C157.602 37.5286 157.641 37.4036 157.641 37.2734C157.641 37.1901 157.622 37.1068 157.586 37.0234C157.555 36.9401 157.503 36.8594 157.43 36.7812L154.531 33.75L157.102 31.3359C157.148 31.2943 157.188 31.2474 157.219 31.1953C157.25 31.1432 157.271 31.0911 157.281 31.0391C157.297 30.987 157.305 30.9323 157.305 30.875C157.305 30.75 157.268 30.6276 157.195 30.5078C157.128 30.3828 157.034 30.2839 156.914 30.2109C156.799 30.1328 156.677 30.0938 156.547 30.0938C156.469 30.0938 156.391 30.112 156.312 30.1484C156.234 30.1797 156.159 30.2292 156.086 30.2969L152.695 33.5469V27.6406C152.695 27.3802 152.612 27.1745 152.445 27.0234C152.279 26.8672 152.081 26.7891 151.852 26.7891C151.617 26.7891 151.414 26.8646 151.242 27.0156C151.07 27.1667 150.984 27.375 150.984 27.6406V37.1406C150.984 37.4115 151.068 37.6224 151.234 37.7734C151.401 37.9245 151.599 38 151.828 38ZM166.867 41.4141C168.049 41.4141 168.99 41.1198 169.688 40.5312C170.391 39.9427 170.742 39.0573 170.742 37.875V31.0078C170.742 30.7526 170.661 30.5547 170.5 30.4141C170.339 30.2682 170.151 30.1953 169.938 30.1953C169.74 30.1953 169.562 30.2552 169.406 30.375C169.255 30.4896 169.167 30.651 169.141 30.8594V31.3828C168.964 31.1068 168.779 30.8802 168.586 30.7031C168.398 30.526 168.141 30.3802 167.812 30.2656C167.484 30.1458 167.099 30.0859 166.656 30.0859C165.917 30.0859 165.271 30.263 164.719 30.6172C164.167 30.9714 163.747 31.4531 163.461 32.0625C163.18 32.6719 163.039 33.3672 163.039 34.1484C163.039 35.3099 163.37 36.2422 164.031 36.9453C164.693 37.6484 165.583 38 166.703 38C167.828 38 168.628 37.5651 169.102 36.6953V38C169.102 38.7135 168.891 39.2682 168.469 39.6641C168.052 40.0599 167.477 40.2578 166.742 40.2578C166.513 40.2578 166.281 40.237 166.047 40.1953C165.818 40.1589 165.641 40.1198 165.516 40.0781C165.391 40.0417 165.216 39.9818 164.992 39.8984C164.773 39.8151 164.633 39.763 164.57 39.7422C164.544 39.7318 164.516 39.7214 164.484 39.7109C164.458 39.7057 164.432 39.7005 164.406 39.6953C164.385 39.6953 164.362 39.6953 164.336 39.6953C164.232 39.6953 164.138 39.7214 164.055 39.7734C163.971 39.8307 163.906 39.901 163.859 39.9844C163.818 40.0729 163.797 40.1641 163.797 40.2578C163.797 40.3568 163.82 40.4505 163.867 40.5391C163.919 40.6328 163.995 40.7109 164.094 40.7734C164.38 40.9505 164.771 41.1016 165.266 41.2266C165.766 41.3516 166.299 41.4141 166.867 41.4141ZM166.961 36.8828C166.336 36.8672 165.81 36.6276 165.383 36.1641C164.961 35.6953 164.75 35.0078 164.75 34.1016C164.75 33.7109 164.792 33.349 164.875 33.0156C164.964 32.6823 165.094 32.3802 165.266 32.1094C165.438 31.8385 165.669 31.6276 165.961 31.4766C166.258 31.3203 166.599 31.2422 166.984 31.2422C167.37 31.2422 167.701 31.3151 167.977 31.4609C168.258 31.6068 168.477 31.8151 168.633 32.0859C168.794 32.3516 168.911 32.651 168.984 32.9844C169.057 33.3177 169.094 33.6953 169.094 34.1172C169.089 35.0495 168.891 35.7422 168.5 36.1953C168.109 36.6484 167.596 36.8776 166.961 36.8828ZM173.719 38C173.953 38 174.156 37.9297 174.328 37.7891C174.505 37.6432 174.594 37.4427 174.594 37.1875V33.5469C174.594 33.1719 174.651 32.8542 174.766 32.5938C174.88 32.3333 175.044 32.1354 175.258 32C175.471 31.8594 175.703 31.7604 175.953 31.7031C176.208 31.6458 176.5 31.6172 176.828 31.6172C177 31.6172 177.135 31.5495 177.234 31.4141C177.333 31.2786 177.383 31.1172 177.383 30.9297C177.383 30.8359 177.37 30.7448 177.344 30.6562C177.318 30.5677 177.279 30.4896 177.227 30.4219C177.174 30.349 177.107 30.2917 177.023 30.25C176.94 30.2083 176.846 30.1875 176.742 30.1875C176.237 30.1875 175.781 30.3516 175.375 30.6797C174.974 31.0078 174.706 31.4141 174.57 31.8984L174.594 30.9297C174.599 30.7005 174.518 30.5208 174.352 30.3906C174.185 30.2604 173.984 30.1953 173.75 30.1953C173.599 30.1953 173.458 30.224 173.328 30.2812C173.198 30.3333 173.089 30.4219 173 30.5469C172.917 30.6667 172.875 30.8125 172.875 30.9844V37.1875C172.875 37.4479 172.958 37.6484 173.125 37.7891C173.292 37.9297 173.49 38 173.719 38ZM182.266 38.1094C183.401 38.1094 184.359 37.7656 185.141 37.0781C185.312 36.9375 185.398 36.7682 185.398 36.5703C185.398 36.4141 185.344 36.276 185.234 36.1562C185.13 36.0365 185.005 35.9766 184.859 35.9766C184.76 35.9766 184.661 36.0104 184.562 36.0781C183.766 36.6406 183.042 36.9219 182.391 36.9219C181.688 36.9167 181.125 36.7188 180.703 36.3281C180.286 35.9323 180.06 35.3203 180.023 34.4922H185.148C185.326 34.4922 185.453 34.4323 185.531 34.3125C185.615 34.1875 185.656 34.0312 185.656 33.8438C185.646 33.3281 185.568 32.8516 185.422 32.4141C185.276 31.9714 185.062 31.5755 184.781 31.2266C184.505 30.8724 184.135 30.5938 183.672 30.3906C183.214 30.1875 182.685 30.0859 182.086 30.0859C181.497 30.0859 180.961 30.1927 180.477 30.4062C179.992 30.6198 179.594 30.9089 179.281 31.2734C178.969 31.638 178.727 32.0573 178.555 32.5312C178.388 33 178.305 33.4974 178.305 34.0234C178.305 35.2839 178.667 36.2786 179.391 37.0078C180.12 37.7318 181.078 38.099 182.266 38.1094ZM180.039 33.4609C180.065 33.1797 180.125 32.9115 180.219 32.6562C180.318 32.401 180.451 32.1667 180.617 31.9531C180.784 31.7396 181 31.5677 181.266 31.4375C181.531 31.3073 181.828 31.2422 182.156 31.2422C182.792 31.2422 183.276 31.4531 183.609 31.875C183.943 32.2969 184.133 32.8255 184.18 33.4609H180.039ZM189.516 38.1094C190.573 38.1094 191.328 37.6615 191.781 36.7656V37.1875C191.781 37.5417 191.935 37.7865 192.242 37.9219C192.362 37.974 192.487 38 192.617 38C192.846 38 193.044 37.9297 193.211 37.7891C193.378 37.6432 193.461 37.4401 193.461 37.1797V32.8984C193.461 31.9349 193.18 31.2266 192.617 30.7734C192.055 30.3151 191.292 30.0859 190.328 30.0859C189.26 30.0859 188.305 30.2969 187.461 30.7188C187.268 30.8125 187.172 30.9609 187.172 31.1641C187.172 31.3307 187.229 31.4818 187.344 31.6172C187.464 31.7526 187.607 31.8203 187.773 31.8203C187.794 31.8203 187.815 31.8203 187.836 31.8203C187.857 31.8151 187.878 31.8099 187.898 31.8047C187.924 31.7995 187.948 31.7917 187.969 31.7812C188.26 31.6667 188.474 31.5859 188.609 31.5391C188.75 31.487 188.987 31.4245 189.32 31.3516C189.654 31.2734 189.966 31.2344 190.258 31.2344C191.247 31.2344 191.742 31.7448 191.742 32.7656V33.4531C191.263 33.4531 190.857 33.4583 190.523 33.4688C190.19 33.474 189.849 33.4922 189.5 33.5234C189.151 33.5495 188.859 33.5885 188.625 33.6406C188.396 33.6875 188.169 33.7526 187.945 33.8359C187.721 33.9141 187.542 34.013 187.406 34.1328C187.276 34.2474 187.156 34.388 187.047 34.5547C186.943 34.7214 186.867 34.9115 186.82 35.125C186.779 35.3385 186.758 35.5833 186.758 35.8594C186.758 36.5781 187.016 37.1328 187.531 37.5234C188.047 37.9141 188.708 38.1094 189.516 38.1094ZM189.664 36.9922C189.279 36.9922 188.969 36.8958 188.734 36.7031C188.5 36.5052 188.383 36.1979 188.383 35.7812C188.383 35.6302 188.393 35.4974 188.414 35.3828C188.44 35.263 188.482 35.1562 188.539 35.0625C188.596 34.9688 188.664 34.8906 188.742 34.8281C188.826 34.7604 188.935 34.7031 189.07 34.6562C189.211 34.6042 189.359 34.5651 189.516 34.5391C189.672 34.5078 189.867 34.4844 190.102 34.4688C190.341 34.4479 190.583 34.4349 190.828 34.4297C191.078 34.4245 191.38 34.4219 191.734 34.4219V34.625C191.734 35.3125 191.526 35.8802 191.109 36.3281C190.693 36.7708 190.211 36.9922 189.664 36.9922ZM198.352 38.0781C198.378 38.0781 198.409 38.0781 198.445 38.0781C198.487 38.0781 198.526 38.0781 198.562 38.0781C198.599 38.0781 198.63 38.0781 198.656 38.0781C198.771 38.0781 198.867 38.0755 198.945 38.0703C199.023 38.0703 199.112 38.0677 199.211 38.0625C199.31 38.0573 199.396 38.0469 199.469 38.0312C199.542 38.0156 199.615 37.9974 199.688 37.9766C199.766 37.9557 199.831 37.9271 199.883 37.8906C199.935 37.8542 199.982 37.8125 200.023 37.7656C200.065 37.7188 200.096 37.6641 200.117 37.6016C200.138 37.5339 200.148 37.4583 200.148 37.375C200.148 37.2604 200.122 37.1536 200.07 37.0547C200.023 36.9557 199.948 36.875 199.844 36.8125C199.745 36.7448 199.625 36.7109 199.484 36.7109C199.464 36.7109 199.445 36.7109 199.43 36.7109L198.859 36.75H198.789C198.576 36.75 198.404 36.6927 198.273 36.5781C198.143 36.4583 198.052 36.2969 198 36.0938C197.948 35.8854 197.922 35.625 197.922 35.3125V31.3828H199.289C199.492 31.3828 199.643 31.3333 199.742 31.2344C199.841 31.1302 199.891 30.9974 199.891 30.8359C199.891 30.6745 199.839 30.5417 199.734 30.4375C199.635 30.3281 199.487 30.2734 199.289 30.2734H197.922V28.0547C197.922 27.8359 197.862 27.6745 197.742 27.5703C197.628 27.4609 197.477 27.4062 197.289 27.4062C197.06 27.4062 196.867 27.4766 196.711 27.6172C196.56 27.7526 196.471 27.9323 196.445 28.1562L196.211 30.2734H195.328C195.13 30.2734 194.979 30.3255 194.875 30.4297C194.771 30.5339 194.719 30.6641 194.719 30.8203C194.719 30.9766 194.773 31.1094 194.883 31.2188C194.992 31.3281 195.146 31.3828 195.344 31.3828H196.211V35.7188C196.211 36.4635 196.401 37.0443 196.781 37.4609C197.167 37.8724 197.69 38.0781 198.352 38.0781ZM201.664 40.5391H202.242C202.253 40.5391 202.26 40.5391 202.266 40.5391C202.339 40.5391 202.398 40.526 202.445 40.5C202.497 40.4792 202.542 40.4427 202.578 40.3906C202.62 40.3438 202.654 40.2812 202.68 40.2031L204 36.4297C204 36.4245 204 36.4193 204 36.4141C204.005 36.4036 204.008 36.3932 204.008 36.3828C204.013 36.3724 204.016 36.3646 204.016 36.3594C204.021 36.349 204.023 36.3385 204.023 36.3281C204.023 36.3177 204.023 36.3047 204.023 36.2891C204.023 36.1068 203.927 36.0078 203.734 35.9922H202.703C202.37 36.0026 202.18 36.1484 202.133 36.4297L201.477 40.2031C201.477 40.2188 201.474 40.2344 201.469 40.25C201.469 40.2656 201.469 40.2812 201.469 40.2969C201.469 40.4531 201.534 40.5339 201.664 40.5391ZM213.602 38.0781C213.628 38.0781 213.659 38.0781 213.695 38.0781C213.737 38.0781 213.776 38.0781 213.812 38.0781C213.849 38.0781 213.88 38.0781 213.906 38.0781C214.021 38.0781 214.117 38.0755 214.195 38.0703C214.273 38.0703 214.362 38.0677 214.461 38.0625C214.56 38.0573 214.646 38.0469 214.719 38.0312C214.792 38.0156 214.865 37.9974 214.938 37.9766C215.016 37.9557 215.081 37.9271 215.133 37.8906C215.185 37.8542 215.232 37.8125 215.273 37.7656C215.315 37.7188 215.346 37.6641 215.367 37.6016C215.388 37.5339 215.398 37.4583 215.398 37.375C215.398 37.2604 215.372 37.1536 215.32 37.0547C215.273 36.9557 215.198 36.875 215.094 36.8125C214.995 36.7448 214.875 36.7109 214.734 36.7109C214.714 36.7109 214.695 36.7109 214.68 36.7109L214.109 36.75H214.039C213.826 36.75 213.654 36.6927 213.523 36.5781C213.393 36.4583 213.302 36.2969 213.25 36.0938C213.198 35.8854 213.172 35.625 213.172 35.3125V31.3828H214.539C214.742 31.3828 214.893 31.3333 214.992 31.2344C215.091 31.1302 215.141 30.9974 215.141 30.8359C215.141 30.6745 215.089 30.5417 214.984 30.4375C214.885 30.3281 214.737 30.2734 214.539 30.2734H213.172V28.0547C213.172 27.8359 213.112 27.6745 212.992 27.5703C212.878 27.4609 212.727 27.4062 212.539 27.4062C212.31 27.4062 212.117 27.4766 211.961 27.6172C211.81 27.7526 211.721 27.9323 211.695 28.1562L211.461 30.2734H210.578C210.38 30.2734 210.229 30.3255 210.125 30.4297C210.021 30.5339 209.969 30.6641 209.969 30.8203C209.969 30.9766 210.023 31.1094 210.133 31.2188C210.242 31.3281 210.396 31.3828 210.594 31.3828H211.461V35.7188C211.461 36.4635 211.651 37.0443 212.031 37.4609C212.417 37.8724 212.94 38.0781 213.602 38.0781ZM217.703 38C217.938 38 218.138 37.9271 218.305 37.7812C218.477 37.6354 218.562 37.4323 218.562 37.1719V33.6016C218.562 32.8984 218.768 32.3333 219.18 31.9062C219.591 31.4792 220.083 31.2656 220.656 31.2656C221.12 31.2656 221.495 31.4167 221.781 31.7188C222.073 32.0156 222.219 32.4557 222.219 33.0391V37.1719C222.219 37.4323 222.302 37.6354 222.469 37.7812C222.635 37.9271 222.833 38 223.062 38C223.297 38 223.5 37.9271 223.672 37.7812C223.844 37.6354 223.93 37.4323 223.93 37.1719V33.0703C223.93 32.5599 223.852 32.1094 223.695 31.7188C223.544 31.3281 223.333 31.0182 223.062 30.7891C222.797 30.5547 222.5 30.3802 222.172 30.2656C221.844 30.1458 221.49 30.0859 221.109 30.0859C220.526 30.0859 220.013 30.1927 219.57 30.4062C219.133 30.6146 218.797 30.9036 218.562 31.2734V27.5938C218.562 27.3438 218.477 27.1484 218.305 27.0078C218.138 26.862 217.94 26.7891 217.711 26.7891C217.477 26.7891 217.273 26.862 217.102 27.0078C216.93 27.1484 216.844 27.3438 216.844 27.5938V37.1719C216.844 37.4323 216.927 37.6354 217.094 37.7812C217.266 37.9271 217.469 38 217.703 38ZM228.25 38.1094C229.307 38.1094 230.062 37.6615 230.516 36.7656V37.1875C230.516 37.5417 230.669 37.7865 230.977 37.9219C231.096 37.974 231.221 38 231.352 38C231.581 38 231.779 37.9297 231.945 37.7891C232.112 37.6432 232.195 37.4401 232.195 37.1797V32.8984C232.195 31.9349 231.914 31.2266 231.352 30.7734C230.789 30.3151 230.026 30.0859 229.062 30.0859C227.995 30.0859 227.039 30.2969 226.195 30.7188C226.003 30.8125 225.906 30.9609 225.906 31.1641C225.906 31.3307 225.964 31.4818 226.078 31.6172C226.198 31.7526 226.341 31.8203 226.508 31.8203C226.529 31.8203 226.549 31.8203 226.57 31.8203C226.591 31.8151 226.612 31.8099 226.633 31.8047C226.659 31.7995 226.682 31.7917 226.703 31.7812C226.995 31.6667 227.208 31.5859 227.344 31.5391C227.484 31.487 227.721 31.4245 228.055 31.3516C228.388 31.2734 228.701 31.2344 228.992 31.2344C229.982 31.2344 230.477 31.7448 230.477 32.7656V33.4531C229.997 33.4531 229.591 33.4583 229.258 33.4688C228.924 33.474 228.583 33.4922 228.234 33.5234C227.885 33.5495 227.594 33.5885 227.359 33.6406C227.13 33.6875 226.904 33.7526 226.68 33.8359C226.456 33.9141 226.276 34.013 226.141 34.1328C226.01 34.2474 225.891 34.388 225.781 34.5547C225.677 34.7214 225.602 34.9115 225.555 35.125C225.513 35.3385 225.492 35.5833 225.492 35.8594C225.492 36.5781 225.75 37.1328 226.266 37.5234C226.781 37.9141 227.443 38.1094 228.25 38.1094ZM228.398 36.9922C228.013 36.9922 227.703 36.8958 227.469 36.7031C227.234 36.5052 227.117 36.1979 227.117 35.7812C227.117 35.6302 227.128 35.4974 227.148 35.3828C227.174 35.263 227.216 35.1562 227.273 35.0625C227.331 34.9688 227.398 34.8906 227.477 34.8281C227.56 34.7604 227.669 34.7031 227.805 34.6562C227.945 34.6042 228.094 34.5651 228.25 34.5391C228.406 34.5078 228.602 34.4844 228.836 34.4688C229.076 34.4479 229.318 34.4349 229.562 34.4297C229.812 34.4245 230.115 34.4219 230.469 34.4219V34.625C230.469 35.3125 230.26 35.8802 229.844 36.3281C229.427 36.7708 228.945 36.9922 228.398 36.9922ZM235.203 38C235.438 38 235.638 37.9271 235.805 37.7812C235.977 37.6354 236.062 37.4349 236.062 37.1797V33.625C236.068 32.9115 236.271 32.3359 236.672 31.8984C237.073 31.4609 237.552 31.2422 238.109 31.2422C238.589 31.2422 238.977 31.3984 239.273 31.7109C239.57 32.0234 239.719 32.474 239.719 33.0625V37.1797C239.719 37.4401 239.802 37.6432 239.969 37.7891C240.135 37.9297 240.333 38 240.562 38C240.797 38 241 37.9297 241.172 37.7891C241.344 37.6432 241.43 37.4401 241.43 37.1797V33.0781C241.43 32.5677 241.354 32.1172 241.203 31.7266C241.052 31.3359 240.844 31.0234 240.578 30.7891C240.312 30.5547 240.01 30.3802 239.672 30.2656C239.339 30.1458 238.979 30.0859 238.594 30.0859C238 30.0859 237.484 30.2005 237.047 30.4297C236.609 30.6536 236.281 30.9818 236.062 31.4141V30.9766C236.062 30.7318 235.979 30.5417 235.812 30.4062C235.646 30.2656 235.445 30.1953 235.211 30.1953C234.977 30.1953 234.773 30.2682 234.602 30.4141C234.43 30.5547 234.344 30.75 234.344 31V37.1797C234.344 37.4401 234.427 37.6432 234.594 37.7891C234.766 37.9297 234.969 38 235.203 38ZM244.406 38C244.641 38 244.844 37.9245 245.016 37.7734C245.188 37.6172 245.273 37.4062 245.273 37.1406V34.0156L248.852 37.7812C249.013 37.9531 249.201 38.0391 249.414 38.0391C249.549 38.0391 249.68 38.0052 249.805 37.9375C249.93 37.8646 250.029 37.7682 250.102 37.6484C250.18 37.5286 250.219 37.4036 250.219 37.2734C250.219 37.1901 250.201 37.1068 250.164 37.0234C250.133 36.9401 250.081 36.8594 250.008 36.7812L247.109 33.75L249.68 31.3359C249.727 31.2943 249.766 31.2474 249.797 31.1953C249.828 31.1432 249.849 31.0911 249.859 31.0391C249.875 30.987 249.883 30.9323 249.883 30.875C249.883 30.75 249.846 30.6276 249.773 30.5078C249.706 30.3828 249.612 30.2839 249.492 30.2109C249.378 30.1328 249.255 30.0938 249.125 30.0938C249.047 30.0938 248.969 30.112 248.891 30.1484C248.812 30.1797 248.737 30.2292 248.664 30.2969L245.273 33.5469V27.6406C245.273 27.3802 245.19 27.1745 245.023 27.0234C244.857 26.8672 244.659 26.7891 244.43 26.7891C244.195 26.7891 243.992 26.8646 243.82 27.0156C243.648 27.1667 243.562 27.375 243.562 27.6406V37.1406C243.562 37.4115 243.646 37.6224 243.812 37.7734C243.979 37.9245 244.177 38 244.406 38ZM251.562 37.2578C252.177 37.6953 252.927 37.9714 253.812 38.0859C254.062 38.1172 254.31 38.1328 254.555 38.1328C255.003 38.1328 255.414 38.0833 255.789 37.9844C256.169 37.8854 256.5 37.7396 256.781 37.5469C257.062 37.349 257.281 37.0938 257.438 36.7812C257.599 36.4635 257.68 36.1042 257.68 35.7031C257.68 35.1042 257.497 34.625 257.133 34.2656C256.768 33.9062 256.177 33.625 255.359 33.4219L254.094 33.1094C253.604 32.9896 253.279 32.8698 253.117 32.75C252.956 32.625 252.875 32.4219 252.875 32.1406C252.875 31.9167 252.953 31.7318 253.109 31.5859C253.266 31.4401 253.461 31.3385 253.695 31.2812C253.93 31.2188 254.198 31.1875 254.5 31.1875C254.646 31.1875 254.794 31.1979 254.945 31.2188C255.096 31.2344 255.224 31.2526 255.328 31.2734C255.438 31.2943 255.565 31.3255 255.711 31.3672C255.857 31.4089 255.958 31.4401 256.016 31.4609C256.073 31.4818 256.167 31.5182 256.297 31.5703C256.427 31.6172 256.495 31.6406 256.5 31.6406C256.552 31.6562 256.599 31.6693 256.641 31.6797C256.688 31.6901 256.734 31.6953 256.781 31.6953C256.885 31.6953 256.977 31.6719 257.055 31.625C257.138 31.5729 257.201 31.5078 257.242 31.4297C257.284 31.3516 257.305 31.2682 257.305 31.1797C257.305 30.9349 257.18 30.7526 256.93 30.6328C256.159 30.2422 255.318 30.0469 254.406 30.0469C253.255 30.0469 252.404 30.3099 251.852 30.8359C251.477 31.2057 251.289 31.6667 251.289 32.2188C251.289 32.4271 251.307 32.6172 251.344 32.7891C251.385 32.9557 251.438 33.1042 251.5 33.2344C251.568 33.3594 251.659 33.4766 251.773 33.5859C251.893 33.6901 252.013 33.7786 252.133 33.8516C252.253 33.9245 252.406 33.9974 252.594 34.0703C252.786 34.1432 252.966 34.2057 253.133 34.2578C253.299 34.3047 253.51 34.362 253.766 34.4297L255.055 34.7578C255.461 34.862 255.758 35 255.945 35.1719C256.133 35.3385 256.227 35.5521 256.227 35.8125C256.227 36.0833 256.141 36.3125 255.969 36.5C255.797 36.6823 255.581 36.8125 255.32 36.8906C255.06 36.9635 254.766 37 254.438 37C254.135 37 253.836 36.9635 253.539 36.8906C253.242 36.8125 253.005 36.7318 252.828 36.6484C252.651 36.5651 252.458 36.4609 252.25 36.3359C252.12 36.263 251.992 36.2266 251.867 36.2266C251.836 36.2266 251.805 36.2292 251.773 36.2344C251.742 36.2396 251.711 36.2474 251.68 36.2578C251.654 36.2682 251.628 36.2812 251.602 36.2969C251.576 36.3073 251.549 36.3229 251.523 36.3438C251.503 36.3594 251.482 36.3776 251.461 36.3984C251.44 36.4193 251.422 36.4427 251.406 36.4688C251.391 36.4896 251.375 36.513 251.359 36.5391C251.349 36.5651 251.339 36.5911 251.328 36.6172C251.323 36.6432 251.318 36.6719 251.312 36.7031C251.307 36.7292 251.305 36.7578 251.305 36.7891C251.305 36.9766 251.391 37.1328 251.562 37.2578ZM261.008 34.1406C261.018 34.2552 261.049 34.3542 261.102 34.4375C261.154 34.5156 261.214 34.5755 261.281 34.6172C261.354 34.6536 261.432 34.6719 261.516 34.6719C261.646 34.6719 261.758 34.6276 261.852 34.5391C261.951 34.4453 262.01 34.3125 262.031 34.1406L262.547 27.25C262.552 27.2188 262.555 27.1875 262.555 27.1562C262.555 26.8854 262.451 26.6745 262.242 26.5234C262.039 26.3672 261.797 26.2891 261.516 26.2891C261.24 26.2891 260.997 26.3672 260.789 26.5234C260.586 26.6745 260.484 26.8854 260.484 27.1562C260.484 27.1667 260.484 27.1771 260.484 27.1875C260.49 27.1979 260.492 27.2083 260.492 27.2188C260.492 27.2292 260.492 27.2396 260.492 27.25L261.008 34.1406ZM261.547 38.0391C261.849 38.0391 262.096 37.9427 262.289 37.75C262.482 37.5573 262.578 37.3307 262.578 37.0703C262.578 36.7995 262.479 36.5703 262.281 36.3828C262.083 36.1953 261.839 36.1016 261.547 36.1016C261.24 36.1016 260.99 36.1979 260.797 36.3906C260.604 36.5833 260.508 36.8099 260.508 37.0703C260.508 37.3359 260.607 37.5651 260.805 37.7578C261.003 37.9453 261.25 38.0391 261.547 38.0391Z" fill="white"/>
</svg>
