<svg width="159" height="148" viewBox="0 0 159 148" fill="none" xmlns="http://www.w3.org/2000/svg">
<rect x="59" y="48" width="99.4101" height="99.4101" rx="49.7051" fill="#E0E0E0"/>
<mask id="mask0" mask-type="alpha" maskUnits="userSpaceOnUse" x="59" y="48" width="100" height="100">
<rect x="59" y="48" width="99.4101" height="99.4101" rx="49.7051" fill="white"/>
</mask>
<g mask="url(#mask0)">
<path d="M49 87.1463L51.2805 89.0329C86.2259 117.942 138.714 108.919 162 70V70" stroke="#5B5B5B" stroke-width="0.5"/>
<ellipse cx="65.2975" cy="98.2688" rx="3" ry="1.5" transform="rotate(16 65.2975 98.2688)" fill="#FF0000"/>
<ellipse cx="141.298" cy="92.2676" rx="3" ry="1.5" transform="rotate(-28 141.298 92.2676)" fill="#FF0000"/>
<ellipse cx="84.2972" cy="104.27" rx="3" ry="1.5" transform="rotate(8 84.2972 104.27)" fill="#9EFF00"/>
<ellipse cx="74.2975" cy="102.269" rx="3" ry="1.5" transform="rotate(16 74.2975 102.269)" fill="#001AFF"/>
<ellipse cx="149.297" cy="85.2725" rx="3" ry="1.5" transform="rotate(-33 149.297 85.2725)" fill="#001AFF"/>
<path fill-rule="evenodd" clip-rule="evenodd" d="M144.869 135.878C141.938 131.639 137.618 128.557 132.656 127.167L121.131 123.939V115.655C126.003 111.995 129.203 106.235 129.399 99.7204C130.08 100.021 130.832 100.191 131.624 100.191C134.674 100.191 137.147 97.7181 137.147 94.6679C137.147 91.6176 134.674 89.1451 131.624 89.1451C130.838 89.1451 130.092 89.3116 129.415 89.6076V88.0405C129.415 76.6023 120.143 67.3301 108.705 67.3301H108.704C97.2665 67.3301 87.9943 76.6023 87.9943 88.0405V89.6076C87.3172 89.3116 86.5711 89.1451 85.7852 89.1451C82.735 89.1451 80.2624 91.6176 80.2624 94.6679C80.2624 97.7181 82.735 100.191 85.7852 100.191C86.5774 100.191 87.3291 100.021 88.0103 99.7204C88.2067 106.235 91.4063 111.995 96.2782 115.655V123.939L84.7533 127.167C79.791 128.557 75.4708 131.639 72.5404 135.878L64.5225 147.477V155.695H152.887V147.477L144.869 135.878Z" fill="#E9ADA1"/>
<path fill-rule="evenodd" clip-rule="evenodd" d="M108.705 119.796C106.151 119.796 103.707 119.331 101.448 118.486C104.66 120.538 108.475 121.729 112.571 121.729C115.625 121.729 118.521 121.063 121.131 119.876V115.654C117.67 118.254 113.367 119.796 108.705 119.796Z" fill="#DB8B79"/>
<path d="M88.7147 95.4722C88.7852 95.2157 88.823 94.9453 88.823 94.6664C88.823 92.9889 87.463 91.6289 85.7855 91.6289C85.366 91.6289 84.9664 91.714 84.603 91.8675" stroke="#00004D" stroke-width="1.71397" stroke-linecap="round" stroke-linejoin="round"/>
<path d="M128.695 95.4722C128.624 95.2157 128.587 94.9453 128.587 94.6664C128.587 92.9889 129.947 91.6289 131.624 91.6289C132.044 91.6289 132.443 91.714 132.807 91.8675" stroke="#00004D" stroke-width="1.71397" stroke-linecap="round" stroke-linejoin="round"/>
<path fill-rule="evenodd" clip-rule="evenodd" d="M114.228 107.096C114.228 110.146 111.755 112.618 108.705 112.618C105.655 112.618 103.182 110.146 103.182 107.096H114.228Z" fill="white"/>
<path fill-rule="evenodd" clip-rule="evenodd" d="M120.027 95.4982C120.027 96.7182 119.037 97.7073 117.818 97.7073C116.598 97.7073 115.608 96.7182 115.608 95.4982C115.608 94.2782 116.598 93.2891 117.818 93.2891C119.037 93.2891 120.027 94.2782 120.027 95.4982" fill="#00004D"/>
<path fill-rule="evenodd" clip-rule="evenodd" d="M101.801 95.4982C101.801 96.7182 100.812 97.7073 99.5919 97.7073C98.3719 97.7073 97.3828 96.7182 97.3828 95.4982C97.3828 94.2782 98.3719 93.2891 99.5919 93.2891C100.812 93.2891 101.801 94.2782 101.801 95.4982" fill="#00004D"/>
<path d="M108.705 93.2891L111.467 102.678L107.601 103.23" stroke="#00004D" stroke-width="1.71397" stroke-linecap="round" stroke-linejoin="round"/>
<path fill-rule="evenodd" clip-rule="evenodd" d="M119.366 69.2356C119.416 68.8209 119.445 68.4 119.445 67.9718C119.445 62.2036 114.769 57.5273 109 57.5273C103.232 57.5273 98.5557 62.2036 98.5557 67.9718C98.5557 68.4 98.5844 68.8209 98.6345 69.2356C91.6004 72.9587 86.8057 80.3482 86.8057 88.8607C86.8057 89.2197 86.8174 89.5756 86.8354 89.9302C86.9978 89.9148 87.1616 89.9051 87.3279 89.9051C88.7948 89.9051 90.1184 90.5119 91.067 91.4859C95.9965 89.2453 100.11 85.5242 102.828 80.8814C109.167 86.9423 117.54 90.8924 126.819 91.6117C127.773 90.5655 129.144 89.9051 130.672 89.9051C130.838 89.9051 131.002 89.9148 131.164 89.9302C131.182 89.5756 131.195 89.2197 131.195 88.8607C131.195 80.3482 126.4 72.9587 119.366 69.2356" fill="#5A3825"/>
<path fill-rule="evenodd" clip-rule="evenodd" d="M62.3364 150.07V158.999H155.481V150.071L147.03 137.469C143.94 132.864 139.387 129.517 134.156 128.006L125.564 125.525L112.024 142.337C110.423 144.325 107.395 144.325 105.794 142.337L92.2537 125.525L83.662 128.006C78.431 129.517 73.8771 132.864 70.7882 137.469L62.3364 150.07Z" fill="black"/>
<path fill-rule="evenodd" clip-rule="evenodd" d="M120.9 90H113.043C111.895 90 110.922 90.7396 110.569 91.7673C110.233 91.3305 109.708 91.0476 109.115 91.0476H107.405C106.812 91.0476 106.286 91.3305 105.951 91.7673C105.597 90.7396 104.624 90 103.476 90H95.619C94.1725 90 93 91.1728 93 92.619V94.4524C93 98.0688 95.9315 101 99.5476 101C103.164 101 106.095 98.0688 106.095 94.4524C106.095 93.4399 106.916 92.619 107.929 92.619H108.591C109.603 92.619 110.424 93.4399 110.424 94.4524C110.424 98.0688 113.355 101 116.972 101C120.588 101 123.519 98.0688 123.519 94.4524V92.619C123.519 91.1728 122.347 90 120.9 90" fill="#FFDF00"/>
<rect x="95" y="94" width="9" height="1" fill="white"/>
<rect x="95" y="92" width="9" height="1" fill="white"/>
<rect x="95" y="96" width="9" height="1" fill="white"/>
<rect x="113" y="96" width="9" height="1" fill="white"/>
<rect x="113" y="94" width="9" height="1" fill="white"/>
<rect x="113" y="92" width="9" height="1" fill="white"/>
</g>
<path d="M0 5.99999C0 2.68629 2.68629 0 6 0H143C146.314 0 149 2.68629 149 6V40.3784C149 43.6921 146.314 46.3784 143 46.3784H131.21C130.664 46.3784 130.128 46.5276 129.66 46.8101L121.579 51.688C121.261 51.8799 120.864 51.8799 120.546 51.688L112.465 46.8101C111.997 46.5276 111.461 46.3784 110.915 46.3784H74.5H37.25H27.9375H18.625H6C2.68629 46.3784 0 43.6921 0 40.3784V5.99999Z" fill="#99FF88"/>
<path d="M31.2109 29C31.4505 29 31.6589 28.9271 31.8359 28.7812C32.0182 28.6302 32.1094 28.4271 32.1094 28.1719V20.7422L37.4609 28.3594C37.5964 28.5521 37.7786 28.7083 38.0078 28.8281C38.2422 28.9427 38.4583 29 38.6562 29C38.9583 29 39.2135 28.8932 39.4219 28.6797C39.6354 28.4661 39.7422 28.1797 39.7422 27.8203V18.625C39.7422 18.3594 39.6536 18.1536 39.4766 18.0078C39.3047 17.8568 39.099 17.7812 38.8594 17.7812C38.6198 17.7812 38.4115 17.8568 38.2344 18.0078C38.0573 18.1589 37.9688 18.3646 37.9688 18.625V26.1094L32.5781 18.3984C32.4375 18.2005 32.2552 18.0495 32.0312 17.9453C31.8073 17.8411 31.5911 17.7891 31.3828 17.7891C31.0859 17.7891 30.8359 17.8958 30.6328 18.1094C30.4297 18.3177 30.3281 18.6042 30.3281 18.9688V28.1719C30.3281 28.4323 30.4141 28.6354 30.5859 28.7812C30.763 28.9271 30.9714 29 31.2109 29ZM45.7188 27.9453C44.9948 27.9453 44.4271 27.6953 44.0156 27.1953C43.6094 26.6953 43.4062 26 43.4062 25.1094C43.4062 24.2083 43.6094 23.5052 44.0156 23C44.4271 22.4948 44.9948 22.2422 45.7188 22.2422C46.4427 22.2422 47.0078 22.4974 47.4141 23.0078C47.8255 23.513 48.0312 24.2135 48.0312 25.1094C48.0312 26 47.8281 26.6953 47.4219 27.1953C47.0156 27.6953 46.4479 27.9453 45.7188 27.9453ZM45.7188 29.1094C46.25 29.1094 46.737 29.0365 47.1797 28.8906C47.6224 28.7396 47.9974 28.5391 48.3047 28.2891C48.6172 28.0339 48.8802 27.7344 49.0938 27.3906C49.3125 27.0469 49.4714 26.6849 49.5703 26.3047C49.6745 25.9193 49.7266 25.5208 49.7266 25.1094C49.7266 24.5677 49.6406 24.0573 49.4688 23.5781C49.2969 23.099 49.0469 22.6719 48.7188 22.2969C48.3958 21.9219 47.9766 21.6276 47.4609 21.4141C46.9453 21.1953 46.3646 21.0859 45.7188 21.0859C45.0677 21.0859 44.4818 21.1979 43.9609 21.4219C43.4401 21.6406 43.0182 21.9401 42.6953 22.3203C42.3776 22.6953 42.1328 23.1224 41.9609 23.6016C41.7943 24.0755 41.7109 24.5781 41.7109 25.1094C41.7109 25.6302 41.7943 26.1276 41.9609 26.6016C42.1276 27.0703 42.3698 27.4948 42.6875 27.875C43.0104 28.25 43.4323 28.5495 43.9531 28.7734C44.474 28.9974 45.0625 29.1094 45.7188 29.1094ZM56.7969 31.9766C57.0312 31.9766 57.2318 31.9062 57.3984 31.7656C57.5703 31.625 57.6562 31.4297 57.6562 31.1797V27.8125C58.1719 28.6771 59.0026 29.1094 60.1484 29.1094C61.2214 29.1094 62.0703 28.7448 62.6953 28.0156C63.3203 27.2865 63.6328 26.3307 63.6328 25.1484C63.6328 24.6068 63.5573 24.0938 63.4062 23.6094C63.2604 23.1198 63.0495 22.6875 62.7734 22.3125C62.4974 21.9375 62.1432 21.6406 61.7109 21.4219C61.2786 21.1979 60.7943 21.0859 60.2578 21.0859C59.0339 21.0859 58.1667 21.5417 57.6562 22.4531V22.0156C57.6562 21.7396 57.5781 21.5339 57.4219 21.3984C57.2708 21.263 57.0651 21.1953 56.8047 21.1953C56.5755 21.1953 56.3724 21.2708 56.1953 21.4219C56.0234 21.5677 55.9375 21.7682 55.9375 22.0234V31.1797C55.9375 31.4297 56.0208 31.625 56.1875 31.7656C56.3594 31.9062 56.5625 31.9766 56.7969 31.9766ZM59.8359 27.9453C59.4557 27.9453 59.1198 27.8672 58.8281 27.7109C58.5417 27.5495 58.3151 27.3333 58.1484 27.0625C57.987 26.7917 57.8646 26.4948 57.7812 26.1719C57.7031 25.8438 57.6641 25.4948 57.6641 25.125C57.6641 24.1875 57.8307 23.474 58.1641 22.9844C58.4974 22.4896 59.0651 22.2422 59.8672 22.2422C60.1745 22.2422 60.4505 22.3047 60.6953 22.4297C60.9401 22.5547 61.1354 22.7161 61.2812 22.9141C61.4323 23.1068 61.5573 23.3333 61.6562 23.5938C61.7552 23.8542 61.8229 24.112 61.8594 24.3672C61.901 24.6224 61.9219 24.8802 61.9219 25.1406C61.9219 25.4896 61.8854 25.8203 61.8125 26.1328C61.7448 26.4453 61.6328 26.7422 61.4766 27.0234C61.3255 27.3047 61.1094 27.5286 60.8281 27.6953C60.5469 27.862 60.2161 27.9453 59.8359 27.9453ZM66.2344 29C66.4688 29 66.6719 28.9297 66.8438 28.7891C67.0208 28.6432 67.1094 28.4427 67.1094 28.1875V24.5469C67.1094 24.1719 67.1667 23.8542 67.2812 23.5938C67.3958 23.3333 67.5599 23.1354 67.7734 23C67.987 22.8594 68.2188 22.7604 68.4688 22.7031C68.724 22.6458 69.0156 22.6172 69.3438 22.6172C69.5156 22.6172 69.651 22.5495 69.75 22.4141C69.849 22.2786 69.8984 22.1172 69.8984 21.9297C69.8984 21.8359 69.8854 21.7448 69.8594 21.6562C69.8333 21.5677 69.7943 21.4896 69.7422 21.4219C69.6901 21.349 69.6224 21.2917 69.5391 21.25C69.4557 21.2083 69.362 21.1875 69.2578 21.1875C68.7526 21.1875 68.2969 21.3516 67.8906 21.6797C67.4896 22.0078 67.2214 22.4141 67.0859 22.8984L67.1094 21.9297C67.1146 21.7005 67.0339 21.5208 66.8672 21.3906C66.7005 21.2604 66.5 21.1953 66.2656 21.1953C66.1146 21.1953 65.974 21.224 65.8438 21.2812C65.7135 21.3333 65.6042 21.4219 65.5156 21.5469C65.4323 21.6667 65.3906 21.8125 65.3906 21.9844V28.1875C65.3906 28.4479 65.474 28.6484 65.6406 28.7891C65.8073 28.9297 66.0052 29 66.2344 29ZM74.8125 27.9453C74.0885 27.9453 73.5208 27.6953 73.1094 27.1953C72.7031 26.6953 72.5 26 72.5 25.1094C72.5 24.2083 72.7031 23.5052 73.1094 23C73.5208 22.4948 74.0885 22.2422 74.8125 22.2422C75.5365 22.2422 76.1016 22.4974 76.5078 23.0078C76.9193 23.513 77.125 24.2135 77.125 25.1094C77.125 26 76.9219 26.6953 76.5156 27.1953C76.1094 27.6953 75.5417 27.9453 74.8125 27.9453ZM74.8125 29.1094C75.3438 29.1094 75.8307 29.0365 76.2734 28.8906C76.7161 28.7396 77.0911 28.5391 77.3984 28.2891C77.7109 28.0339 77.974 27.7344 78.1875 27.3906C78.4062 27.0469 78.5651 26.6849 78.6641 26.3047C78.7682 25.9193 78.8203 25.5208 78.8203 25.1094C78.8203 24.5677 78.7344 24.0573 78.5625 23.5781C78.3906 23.099 78.1406 22.6719 77.8125 22.2969C77.4896 21.9219 77.0703 21.6276 76.5547 21.4141C76.0391 21.1953 75.4583 21.0859 74.8125 21.0859C74.1615 21.0859 73.5755 21.1979 73.0547 21.4219C72.5339 21.6406 72.112 21.9401 71.7891 22.3203C71.4714 22.6953 71.2266 23.1224 71.0547 23.6016C70.888 24.0755 70.8047 24.5781 70.8047 25.1094C70.8047 25.6302 70.888 26.1276 71.0547 26.6016C71.2214 27.0703 71.4635 27.4948 71.7812 27.875C72.1042 28.25 72.526 28.5495 73.0469 28.7734C73.5677 28.9974 74.1562 29.1094 74.8125 29.1094ZM84.8516 29.1094C85.388 29.1094 85.8724 29 86.3047 28.7812C86.737 28.5573 87.0911 28.2578 87.3672 27.8828C87.6432 27.5078 87.8542 27.0781 88 26.5938C88.151 26.1042 88.2266 25.5885 88.2266 25.0469C88.2266 23.8646 87.9141 22.9089 87.2891 22.1797C86.6641 21.4505 85.8151 21.0859 84.7422 21.0859C83.5964 21.0859 82.7656 21.5156 82.25 22.375V18.5859C82.25 18.3359 82.1641 18.1406 81.9922 18C81.8255 17.8594 81.625 17.7891 81.3906 17.7891C81.1562 17.7891 80.9531 17.8594 80.7812 18C80.6146 18.1406 80.5312 18.3359 80.5312 18.5859V28.1719C80.5312 28.4271 80.6172 28.6276 80.7891 28.7734C80.9661 28.9193 81.1693 28.9922 81.3984 28.9922C81.6589 28.9922 81.8646 28.9245 82.0156 28.7891C82.1719 28.6536 82.25 28.4479 82.25 28.1719V27.7422C82.7604 28.6536 83.6276 29.1094 84.8516 29.1094ZM84.4609 27.9453C83.6589 27.9453 83.0911 27.7031 82.7578 27.2188C82.4245 26.7292 82.2578 26.013 82.2578 25.0703C82.2578 24.7005 82.2969 24.3542 82.375 24.0312C82.4583 23.7031 82.5807 23.4036 82.7422 23.1328C82.9089 22.8568 83.1354 22.6406 83.4219 22.4844C83.7135 22.3229 84.0495 22.2422 84.4297 22.2422C84.8099 22.2422 85.1406 22.3255 85.4219 22.4922C85.7031 22.6589 85.9193 22.8854 86.0703 23.1719C86.2266 23.4531 86.3385 23.75 86.4062 24.0625C86.4792 24.375 86.5156 24.7057 86.5156 25.0547C86.5156 25.3203 86.4948 25.5807 86.4531 25.8359C86.4167 26.0859 86.349 26.3411 86.25 26.6016C86.151 26.862 86.026 27.0911 85.875 27.2891C85.7292 27.4818 85.5339 27.6406 85.2891 27.7656C85.0443 27.8854 84.7682 27.9453 84.4609 27.9453ZM90.8594 29C91.0938 29 91.2969 28.9245 91.4688 28.7734C91.6458 28.6172 91.7344 28.4089 91.7344 28.1484V18.6406C91.7344 18.3802 91.6484 18.1745 91.4766 18.0234C91.3047 17.8672 91.1042 17.7891 90.875 17.7891C90.6406 17.7891 90.4375 17.8646 90.2656 18.0156C90.099 18.1667 90.0156 18.375 90.0156 18.6406V28.1484C90.0156 28.4193 90.0964 28.6302 90.2578 28.7812C90.4245 28.9271 90.625 29 90.8594 29ZM97.4531 29.1094C98.5885 29.1094 99.5469 28.7656 100.328 28.0781C100.5 27.9375 100.586 27.7682 100.586 27.5703C100.586 27.4141 100.531 27.276 100.422 27.1562C100.318 27.0365 100.193 26.9766 100.047 26.9766C99.9479 26.9766 99.849 27.0104 99.75 27.0781C98.9531 27.6406 98.2292 27.9219 97.5781 27.9219C96.875 27.9167 96.3125 27.7188 95.8906 27.3281C95.474 26.9323 95.2474 26.3203 95.2109 25.4922H100.336C100.513 25.4922 100.641 25.4323 100.719 25.3125C100.802 25.1875 100.844 25.0312 100.844 24.8438C100.833 24.3281 100.755 23.8516 100.609 23.4141C100.464 22.9714 100.25 22.5755 99.9688 22.2266C99.6927 21.8724 99.3229 21.5938 98.8594 21.3906C98.401 21.1875 97.8724 21.0859 97.2734 21.0859C96.6849 21.0859 96.1484 21.1927 95.6641 21.4062C95.1797 21.6198 94.7812 21.9089 94.4688 22.2734C94.1562 22.638 93.9141 23.0573 93.7422 23.5312C93.5755 24 93.4922 24.4974 93.4922 25.0234C93.4922 26.2839 93.8542 27.2786 94.5781 28.0078C95.3073 28.7318 96.2656 29.099 97.4531 29.1094ZM95.2266 24.4609C95.2526 24.1797 95.3125 23.9115 95.4062 23.6562C95.5052 23.401 95.638 23.1667 95.8047 22.9531C95.9714 22.7396 96.1875 22.5677 96.4531 22.4375C96.7188 22.3073 97.0156 22.2422 97.3438 22.2422C97.9792 22.2422 98.4635 22.4531 98.7969 22.875C99.1302 23.2969 99.3203 23.8255 99.3672 24.4609H95.2266ZM103.352 29C103.586 29 103.789 28.9297 103.961 28.7891C104.138 28.6432 104.227 28.4401 104.227 28.1797V24.5781C104.227 23.8594 104.411 23.2917 104.781 22.875C105.151 22.4531 105.646 22.2422 106.266 22.2422C106.766 22.2422 107.154 22.3958 107.43 22.7031C107.706 23.0104 107.844 23.474 107.844 24.0938V28.1719C107.844 28.4323 107.927 28.6354 108.094 28.7812C108.26 28.9271 108.461 29 108.695 29C108.93 29 109.13 28.9271 109.297 28.7812C109.469 28.6354 109.555 28.4323 109.555 28.1719V24.7344C109.555 23.9531 109.745 23.3438 110.125 22.9062C110.51 22.4635 111.005 22.2422 111.609 22.2422C112.115 22.2422 112.503 22.3932 112.773 22.6953C113.049 22.9922 113.188 23.4401 113.188 24.0391V28.1797C113.188 28.4401 113.271 28.6432 113.438 28.7891C113.604 28.9297 113.805 29 114.039 29C114.273 29 114.477 28.9297 114.648 28.7891C114.82 28.6432 114.906 28.4401 114.906 28.1797V24.0703C114.906 23.0703 114.641 22.3229 114.109 21.8281C113.578 21.3333 112.883 21.0859 112.023 21.0859C111.378 21.0859 110.818 21.2318 110.344 21.5234C109.875 21.8151 109.523 22.2526 109.289 22.8359C109.128 22.3151 108.82 21.8932 108.367 21.5703C107.919 21.2474 107.367 21.0859 106.711 21.0859C105.555 21.0859 104.727 21.5521 104.227 22.4844V21.9453C104.227 21.7109 104.141 21.5286 103.969 21.3984C103.797 21.263 103.596 21.1953 103.367 21.1953C103.133 21.1953 102.93 21.2682 102.758 21.4141C102.586 21.5547 102.5 21.75 102.5 22V28.1797C102.5 28.4401 102.583 28.6432 102.75 28.7891C102.922 28.9297 103.122 29 103.352 29ZM118.617 25.1406C118.628 25.2552 118.659 25.3542 118.711 25.4375C118.763 25.5156 118.823 25.5755 118.891 25.6172C118.964 25.6536 119.042 25.6719 119.125 25.6719C119.255 25.6719 119.367 25.6276 119.461 25.5391C119.56 25.4453 119.62 25.3125 119.641 25.1406L120.156 18.25C120.161 18.2188 120.164 18.1875 120.164 18.1562C120.164 17.8854 120.06 17.6745 119.852 17.5234C119.648 17.3672 119.406 17.2891 119.125 17.2891C118.849 17.2891 118.607 17.3672 118.398 17.5234C118.195 17.6745 118.094 17.8854 118.094 18.1562C118.094 18.1667 118.094 18.1771 118.094 18.1875C118.099 18.1979 118.102 18.2083 118.102 18.2188C118.102 18.2292 118.102 18.2396 118.102 18.25L118.617 25.1406ZM119.156 29.0391C119.458 29.0391 119.706 28.9427 119.898 28.75C120.091 28.5573 120.188 28.3307 120.188 28.0703C120.188 27.7995 120.089 27.5703 119.891 27.3828C119.693 27.1953 119.448 27.1016 119.156 27.1016C118.849 27.1016 118.599 27.1979 118.406 27.3906C118.214 27.5833 118.117 27.8099 118.117 28.0703C118.117 28.3359 118.216 28.5651 118.414 28.7578C118.612 28.9453 118.859 29.0391 119.156 29.0391Z" fill="black"/>
</svg>
