<svg width="111" height="93" viewBox="0 0 111 93" fill="none" xmlns="http://www.w3.org/2000/svg">
<rect x="18" y="0.910156" width="92.0905" height="92.0905" rx="46.0452" fill="#F5F5F8"/>
<rect x="18" y="0.910156" width="92.0905" height="92.0905" rx="46.0452" fill="#F5F5F8"/>
<mask id="mask0" mask-type="alpha" maskUnits="userSpaceOnUse" x="18" y="0" width="93" height="94">
<rect x="18" y="0.910156" width="92.0905" height="92.0905" rx="46.0452" fill="white"/>
</mask>
<g mask="url(#mask0)">
</g>
<mask id="mask1" mask-type="alpha" maskUnits="userSpaceOnUse" x="18" y="0" width="93" height="94">
<rect x="18" y="0.910156" width="92.0905" height="92.0905" rx="46.0452" fill="white"/>
</mask>
<g mask="url(#mask1)">
<path fill-rule="evenodd" clip-rule="evenodd" d="M97.5466 82.3166C94.8319 78.3898 90.8298 75.5355 86.233 74.2477L75.5564 71.2568V63.5829C80.0698 60.1924 83.0339 54.857 83.216 48.8218C83.8468 49.0999 84.5431 49.2574 85.2773 49.2574C88.1027 49.2574 90.3934 46.9669 90.3934 44.1413C90.3934 41.3157 88.1027 39.0252 85.2773 39.0252C84.549 39.0252 83.8578 39.1794 83.2308 39.4536V38.0019C83.2308 27.4059 74.6411 18.8164 64.0453 18.8164H64.0451C53.4493 18.8164 44.8598 27.4059 44.8598 38.0019V39.4536C44.2326 39.1794 43.5414 39.0252 42.8133 39.0252C39.9877 39.0252 37.6972 41.3157 37.6972 44.1413C37.6972 46.9669 39.9877 49.2574 42.8133 49.2574C43.5473 49.2574 44.2436 49.1001 44.8746 48.8218C45.0565 54.857 48.0206 60.1924 52.5338 63.5829V71.2568L41.8574 74.2477C37.2605 75.5355 33.2584 78.3898 30.5438 82.3166L23.1162 93.0618V100.675H104.974V93.0618L97.5466 82.3166Z" fill="#B5683C"/>
<path fill-rule="evenodd" clip-rule="evenodd" d="M64.0454 67.4189C61.6797 67.4189 59.4153 66.9881 57.3228 66.2051C60.2988 68.1062 63.833 69.2095 67.6267 69.2095C70.4559 69.2095 73.139 68.5923 75.5567 67.4931V63.582C72.3501 65.9907 68.3647 67.4189 64.0454 67.4189Z" fill="#A3420B"/>
<path d="M45.5272 44.8884C45.5925 44.6508 45.6275 44.4004 45.6275 44.142C45.6275 42.588 44.3677 41.3281 42.8136 41.3281C42.4251 41.3281 42.0549 41.4069 41.7183 41.5491" stroke="#00004D" stroke-width="1.73756" stroke-linecap="round" stroke-linejoin="round"/>
<path d="M82.5634 44.8884C82.4982 44.6508 82.4634 44.4004 82.4634 44.142C82.4634 42.588 83.7232 41.3281 85.2773 41.3281C85.6656 41.3281 86.0357 41.4069 86.3726 41.5491" stroke="#00004D" stroke-width="1.73756" stroke-linecap="round" stroke-linejoin="round"/>
<path fill-rule="evenodd" clip-rule="evenodd" d="M69.161 55.6543C69.161 58.4799 66.8705 60.7704 64.0448 60.7704C61.2192 60.7704 58.9287 58.4799 58.9287 55.6543H69.161Z" fill="white"/>
<path fill-rule="evenodd" clip-rule="evenodd" d="M74.5333 44.9078C74.5333 46.0379 73.617 46.9542 72.4869 46.9542C71.3567 46.9542 70.4404 46.0379 70.4404 44.9078C70.4404 43.7776 71.3567 42.8613 72.4869 42.8613C73.617 42.8613 74.5333 43.7776 74.5333 44.9078" fill="#00004D"/>
<path fill-rule="evenodd" clip-rule="evenodd" d="M57.65 44.9078C57.65 46.0379 56.7337 46.9542 55.6036 46.9542C54.4734 46.9542 53.5571 46.0379 53.5571 44.9078C53.5571 43.7776 54.4734 42.8613 55.6036 42.8613C56.7337 42.8613 57.65 43.7776 57.65 44.9078" fill="#00004D"/>
<path d="M64.0452 42.8613L66.6033 51.5588L63.022 52.0704" stroke="#00004D" stroke-width="1.73756" stroke-linecap="round" stroke-linejoin="round"/>
<path fill-rule="evenodd" clip-rule="evenodd" d="M85.2772 39.0261C85.818 39.0261 86.3388 39.1115 86.8279 39.2668C87.0433 38.849 87.1689 38.3768 87.1689 37.8734C87.1689 36.7317 86.544 35.7377 85.619 35.2089C86.9858 34.4103 87.9064 32.9315 87.9064 31.2344C87.9064 28.9263 86.2061 27.02 83.991 26.687C84.3428 26.0592 84.5454 25.3363 84.5454 24.5655C84.5454 22.1638 82.5982 20.2168 80.1966 20.2168C79.3018 20.2168 78.4707 20.4877 77.7793 20.951C77.7798 20.9203 77.7816 20.8901 77.7816 20.8592C77.7816 17.7511 75.2619 15.2314 72.1538 15.2314C70.8062 15.2314 69.5696 15.7059 68.6004 16.4961C67.7539 14.8385 66.0341 13.7012 64.0452 13.7012C62.0563 13.7012 60.3366 14.8385 59.4901 16.4961C58.5208 15.7059 57.2843 15.2314 55.9367 15.2314C52.8286 15.2314 50.3089 17.7511 50.3089 20.8592C50.3089 20.8901 50.3107 20.9203 50.3112 20.951C49.6198 20.4877 48.7887 20.2168 47.8938 20.2168C45.4923 20.2168 43.5451 22.1638 43.5451 24.5655C43.5451 25.3363 43.7477 26.0592 44.0995 26.687C41.8844 27.02 40.1841 28.9263 40.1841 31.2344C40.1841 32.9315 41.1047 34.4103 42.4715 35.2089C41.5465 35.7377 40.9216 36.7317 40.9216 37.8734C40.9216 38.3766 41.0467 38.8488 41.261 39.2673C41.7509 39.1115 42.272 39.0261 42.8133 39.0261C44.5648 39.0261 46.1093 39.9073 47.0315 41.2493C49.6507 40.2593 51.5864 37.8777 51.9359 35.0053C52.7629 35.4486 53.7076 35.7006 54.7114 35.7006C57.1106 35.7006 59.1729 34.2637 60.0887 32.2042C61.1201 33.1814 62.5122 33.782 64.0452 33.782C65.5783 33.782 66.9704 33.1814 68.0018 32.2042C68.9176 34.2637 70.9799 35.7006 73.3791 35.7006C74.3829 35.7006 75.3276 35.4486 76.1546 35.0053C76.5041 37.8777 78.4398 40.2593 81.059 41.2493C81.9811 39.9073 83.5257 39.0261 85.2772 39.0261" fill="#00004D"/>
<path fill-rule="evenodd" clip-rule="evenodd" d="M104.974 93.0608L97.5461 82.3157C94.8317 78.389 90.8296 75.5345 86.2325 74.2468L75.5561 71.2559C75.5561 77.6134 70.4024 82.7672 64.0448 82.7672V82.7672C57.6873 82.7672 52.5335 77.6134 52.5335 71.2559L41.8569 74.2468C37.2601 75.5345 33.258 78.389 30.5433 82.3157L23.1157 93.0608V100.674H104.974V93.0608Z" fill="#80C43B"/>
</g>
<path d="M29.7472 50.4441L29.7427 51.7345C29.7386 52.9294 29.1893 54.0571 28.251 54.7969C27.9343 55.0466 27.8107 55.4697 27.9432 55.8507L28.7886 58.2801C28.8183 58.3656 28.8389 58.4539 28.8499 58.5437L31.4168 79.5L26.1401 74.6293C26.0472 74.5436 25.9676 74.4445 25.904 74.3354L22.5805 68.638C22.527 68.5464 22.4853 68.4484 22.4561 68.3464L20.5 61.5L19.848 58.4873C19.705 57.8268 19.2443 57.2798 18.6176 57.0266C18.3161 56.9047 18.0795 56.6619 17.9655 56.3573L14.5511 47.2301C14.5269 47.1653 14.4974 47.1027 14.463 47.0427L12.0035 42.7555C11.8091 42.4168 11.7811 42.0075 11.9274 41.6454L12.123 41.1611C12.231 40.894 12.4406 40.6807 12.7058 40.5681C12.971 40.4555 13.2701 40.4529 13.5372 40.5608L13.5923 40.5831C13.859 40.6908 14.0795 40.8887 14.2154 41.1422L16.2734 44.9812C16.325 45.0775 16.4088 45.1527 16.5101 45.1936L16.5261 45.2001C16.7565 45.2932 17.0188 45.1819 17.1119 44.9515C17.1566 44.8408 17.1555 44.7169 17.1089 44.6071L13.6955 36.5656C13.5636 36.2549 13.5605 35.9045 13.687 35.5915L13.7027 35.5526C13.7968 35.3196 13.9578 35.1197 14.1653 34.9781L14.232 34.9326C14.5835 34.6927 15.0316 34.6444 15.4262 34.8038L15.7648 34.9406C16.0873 35.0709 16.3424 35.3275 16.4708 35.6507L19.8172 44.0736C19.8341 44.1162 19.8582 44.1555 19.8885 44.1898C20.0838 44.411 20.4436 44.3494 20.5542 44.0758L20.6086 43.9411C20.6491 43.8408 20.6551 43.7298 20.6255 43.6257L17.8004 33.6915C17.7315 33.4494 17.7453 33.1911 17.8396 32.9577C17.9731 32.6273 18.2544 32.379 18.5988 32.2876L18.8291 32.2264C19.295 32.1027 19.7908 32.2529 20.1098 32.6143L20.3421 32.8774C20.4665 33.0183 20.5581 33.185 20.6104 33.3655L23.6839 43.974L23.7046 44.0229C23.8267 44.3106 24.2356 44.307 24.3527 44.0173C24.379 43.9522 24.3852 43.8807 24.3704 43.812L22.2376 33.9137C22.1657 33.5802 22.2307 33.2318 22.4181 32.9466L22.5699 32.7156C22.8402 32.3043 23.3312 32.0959 23.8147 32.1872C24.2969 32.2782 24.6774 32.6494 24.7804 33.1292L27.0513 43.7089C27.0903 43.8905 27.1753 44.059 27.2982 44.1982C27.7083 44.6629 28.4241 44.6891 28.8671 44.2557L31.5277 41.6529C31.8296 41.3576 32.2776 41.269 32.6691 41.4272C33.2651 41.668 33.5126 42.3786 33.1951 42.9376L31.4168 46.0688L29.8399 49.9717C29.7792 50.1218 29.7478 50.2821 29.7472 50.4441Z" fill="#B5683C" stroke="#B5683C" stroke-width="0.636364" stroke-linejoin="round"/>
</svg>
