<svg width="92" height="89" viewBox="0 0 92 89" fill="none" xmlns="http://www.w3.org/2000/svg">
<path d="M82.4021 49.473C83.3815 49.0459 84.2027 48.3229 84.7505 47.4055C85.2983 46.4881 85.5453 45.4222 85.4568 44.3574C85.3682 43.2925 84.9486 42.2821 84.2568 41.4677C83.5651 40.6534 82.6358 40.0759 81.5992 39.8164L61.569 34.3423C61.4712 34.3123 61.3842 34.2546 61.3185 34.1763C61.2527 34.098 61.211 34.0023 61.1984 33.9008L58.612 13.412C58.4848 12.3707 58.0407 11.3935 57.3398 10.6129C56.6389 9.83231 55.7151 9.28594 54.6934 9.04777C53.6717 8.8096 52.6014 8.89115 51.6276 9.28137C50.6538 9.67158 49.8234 10.3516 49.2488 11.2294L37.8759 28.5352C37.8197 28.6207 37.74 28.688 37.6464 28.7292C37.5528 28.7704 37.4493 28.7836 37.3483 28.7673L16.9621 24.8201C15.9177 24.5945 14.8288 24.7015 13.8483 25.126C12.8677 25.5505 12.0446 26.2713 11.4943 27.1872C10.944 28.1032 10.6942 29.1684 10.7799 30.2334C10.8655 31.2985 11.2824 32.3101 11.972 33.1263L24.9193 49.2833C24.9841 49.3642 25.0237 49.4624 25.0333 49.5656C25.0429 49.6688 25.0221 49.7726 24.9733 49.8641L15.0106 67.9247C14.4983 68.8433 14.2815 69.8973 14.3896 70.9435C14.4976 71.9896 14.9254 72.9771 15.6145 73.7715C16.3037 74.566 17.2209 75.1288 18.2413 75.3835C19.2617 75.6382 20.3358 75.5724 21.3175 75.195L40.6849 67.8728C40.7807 67.8351 40.8857 67.8274 40.986 67.8507C41.0863 67.8741 41.177 67.9274 41.2463 68.0036L55.3796 83.1351C56.0771 83.9246 57.0033 84.4774 58.0293 84.7166C59.0554 84.9557 60.1305 84.8695 61.1053 84.4698C62.0736 84.0677 62.8935 83.3754 63.4522 82.4881C64.0109 81.6009 64.2809 80.5623 64.2251 79.5153L63.2462 58.8331C63.2398 58.7289 63.2656 58.6253 63.3202 58.5363C63.3749 58.4474 63.4556 58.3774 63.5514 58.3361L82.4021 49.473Z" fill="url(#paint0_linear)"/>
<defs>
<linearGradient id="paint0_linear" x1="10.5" y1="32.0001" x2="38.1467" y2="80.0818" gradientUnits="userSpaceOnUse">
<stop offset="0.260417" stop-color="#03A9F4"/>
<stop offset="0.739583" stop-color="#1E88E5"/>
</linearGradient>
</defs>
</svg>
