<svg width="102" height="200" viewBox="0 0 102 200" fill="none" xmlns="http://www.w3.org/2000/svg">
<path d="M1.88743 16.2097C1.45082 16.5479 1.37106 17.176 1.70928 17.6126L7.22087 24.7276C7.55909 25.1642 8.18721 25.2439 8.62382 24.9057C9.06043 24.5675 9.14019 23.9394 8.80197 23.5028L3.90277 17.1784L10.2272 12.2792C10.6638 11.941 10.7435 11.3128 10.4053 10.8762C10.0671 10.4396 9.43897 10.3599 9.00236 10.6981L1.88743 16.2097ZM79.1199 191.318C82.2427 188.585 84.7983 183.942 86.7433 178.031C88.6963 172.097 90.0684 164.778 90.7523 156.575C92.1203 140.169 90.7434 120.126 85.6639 100.353C75.514 60.8416 50.4664 22.0831 2.6258 16.0082L2.37386 17.9923C49.0334 23.9172 73.6695 61.6998 83.7268 100.85C88.7509 120.408 90.1085 140.227 88.7592 156.409C88.0846 164.5 86.7352 171.658 84.8435 177.406C82.9438 183.179 80.5314 187.425 77.8028 189.813L79.1199 191.318Z" fill="white" fill-opacity="0.5"/>
</svg>
