<svg xmlns="http://www.w3.org/2000/svg" width="322" height="125" fill="none" viewBox="0 0 322 125">
    <rect width="322" height="125" fill="#fff" rx="2"/>
    <path fill="#60B515" d="M293.714 0h-26.428C264.379 0 262 2.35 262 5.222V47l18.5-7.833L299 47V5.222C299 2.35 296.621 0 293.714 0z"/>
    <rect width="49.252" height="49.252" x="13" y="10" fill="#1B2A32" rx="24.626"/>
    <rect width="49.252" height="49.252" x="13" y="10" fill="#1B2A32" rx="24.626"/>
    <mask id="prefix__a" width="50" height="50" x="13" y="10" maskUnits="userSpaceOnUse">
        <rect width="49.252" height="49.252" x="13" y="10" fill="#fff" rx="24.626"/>
    </mask>
    <mask id="prefix__b" width="50" height="50" x="13" y="10" maskUnits="userSpaceOnUse">
        <rect width="49.252" height="49.252" x="13" y="10" fill="#fff" rx="24.626"/>
    </mask>
    <g mask="url(#prefix__b)">
        <path fill="#FFCF83" fill-rule="evenodd" d="M55.3 52.167c-1.358-1.963-3.36-3.39-5.658-4.034l-5.338-1.496V42.8c2.256-1.695 3.739-4.363 3.83-7.38.315.138.663.217 1.03.217 1.413 0 2.558-1.145 2.558-2.558 0-1.413-1.145-2.558-2.558-2.558-.364 0-.71.077-1.023.214v-.726c0-5.298-4.295-9.593-9.593-9.593s-9.593 4.295-9.593 9.593v.726c-.314-.137-.66-.214-1.023-.214-1.413 0-2.559 1.145-2.559 2.558 0 1.413 1.146 2.558 2.558 2.558.367 0 .716-.078 1.031-.218.091 3.018 1.573 5.686 3.83 7.381v3.837l-5.339 1.496c-2.298.644-4.3 2.07-5.656 4.034l-3.715 5.373v3.807h40.931V57.54L55.3 52.167z" clip-rule="evenodd"/>
        <path fill="#F7A74F" fill-rule="evenodd" d="M38.548 44.717c-1.183 0-2.315-.215-3.361-.607 1.488.951 3.255 1.503 5.152 1.503 1.414 0 2.756-.309 3.965-.859V42.8c-1.604 1.204-3.596 1.918-5.756 1.918z" clip-rule="evenodd"/>
        <path stroke="#00004D" stroke-linecap="round" stroke-linejoin="round" stroke-width="1.049" d="M29.288 33.455c.033-.119.05-.244.05-.373 0-.777-.63-1.407-1.407-1.407-.194 0-.379.04-.547.11M47.808 33.455c-.033-.119-.05-.244-.05-.373 0-.777.63-1.407 1.407-1.407.194 0 .38.04.547.11"/>
        <path fill="#fff" fill-rule="evenodd" d="M41.106 38.837c0 1.413-1.145 2.558-2.558 2.558-1.413 0-2.558-1.145-2.558-2.558h5.116z" clip-rule="evenodd"/>
        <path fill="#00004D" fill-rule="evenodd" d="M43.792 33.462c0 .565-.458 1.023-1.023 1.023s-1.023-.458-1.023-1.023.458-1.024 1.023-1.024 1.023.459 1.023 1.024zM35.35 33.462c0 .565-.458 1.023-1.023 1.023s-1.023-.458-1.023-1.023.458-1.024 1.023-1.024 1.023.459 1.023 1.024z" clip-rule="evenodd"/>
        <path stroke="#00004D" stroke-linecap="round" stroke-linejoin="round" stroke-width="1.049" d="M38.548 32.438l1.279 4.35-1.79.255"/>
        <path fill="#00004D" fill-rule="evenodd" d="M48.78 30.553v-.543c0-1.963-.553-3.796-1.511-5.354-.889-1.443-2.125-2.647-3.593-3.5-1.508-.875-3.259-1.379-5.128-1.379-1.87 0-3.62.504-5.129 1.38-1.467.852-2.704 2.056-3.592 3.5-.958 1.557-1.512 3.39-1.512 5.353v.543c.534.081 1.013.325 1.385.681 1.178-1.183 2.128-2.594 2.773-4.163 1.807.977 3.876 1.532 6.075 1.532 2.198 0 4.267-.555 6.074-1.532.646 1.57 1.595 2.98 2.773 4.163.372-.356.852-.6 1.385-.68z" clip-rule="evenodd"/>
        <path fill="#FB344F" fill-rule="evenodd" d="M59.013 57.54L55.3 52.169c-1.357-1.964-3.358-3.39-5.657-4.035l-5.338-1.495c0 3.179-2.577 5.756-5.756 5.756-3.179 0-5.756-2.577-5.756-5.756l-5.339 1.495c-2.298.644-4.3 2.071-5.656 4.035l-3.715 5.373v3.806h40.931v-3.806z" clip-rule="evenodd"/>
        <g filter="url(#prefix__filter0_d)">
            <path fill="#000" fill-opacity=".7" d="M36.82 33.617c0 1.688-1.386 3.057-3.695 3.057h-.462c-2.309 0-3.232-1.37-3.232-3.057 0-1.689.215-3.057 3.448-3.057h.492c3.233 0 3.448 1.368 3.448 3.057z"/>
            <path fill="url(#prefix__paint0_linear)" d="M36.82 33.617c0 1.688-1.386 3.057-3.695 3.057h-.462c-2.309 0-3.232-1.37-3.232-3.057 0-1.689.215-3.057 3.448-3.057h.492c3.233 0 3.448 1.368 3.448 3.057z" style="mix-blend-mode:screen"/>
            <path fill="#000" fill-opacity=".7" d="M47.16 33.617c0 1.688-1.385 3.057-3.695 3.057h-.462c-2.308 0-3.232-1.37-3.232-3.057 0-1.689.216-3.057 3.448-3.057h.493c3.232 0 3.448 1.368 3.448 3.057z"/>
            <path fill="url(#prefix__paint1_linear)" d="M47.16 33.617c0 1.688-1.385 3.057-3.695 3.057h-.462c-2.308 0-3.232-1.37-3.232-3.057 0-1.689.216-3.057 3.448-3.057h.493c3.232 0 3.448 1.368 3.448 3.057z" style="mix-blend-mode:screen"/>
            <path fill="#252C2F" fill-rule="evenodd" d="M32.663 37.183h.462c2.466 0 4.187-1.467 4.187-3.567 0-1.804-.304-3.566-3.94-3.566h-.493c-3.636 0-3.94 1.762-3.94 3.566 0 2.234 1.392 3.567 3.724 3.567zm-2.74-3.567c0-1.423 0-2.548 2.956-2.548h.493c2.955 0 2.955 1.125 2.955 2.548 0 1.5-1.316 2.548-3.202 2.548h-.462c-2.264 0-2.74-1.386-2.74-2.548zM43.003 37.183h.462c2.465 0 4.187-1.467 4.187-3.567 0-1.804-.304-3.566-3.94-3.566h-.493c-3.636 0-3.94 1.762-3.94 3.566 0 2.234 1.392 3.567 3.724 3.567zm-2.74-3.567c0-1.423 0-2.548 2.956-2.548h.492c2.956 0 2.956 1.125 2.956 2.548 0 1.5-1.317 2.548-3.202 2.548h-.462c-2.264 0-2.74-1.386-2.74-2.548z" clip-rule="evenodd"/>
            <path fill="#252C2F" d="M27.955 31.069c.115-.12 1.376-1.02 4.924-1.02 2.975 0 3.605.328 4.558.822l.07.037c.066.024.405.146.801.16.361-.017.67-.12.76-.154 1.089-.56 2.154-.864 4.643-.864 3.549 0 4.809.9 4.924 1.019.273 0 .493.228.493.51v.509c0 .282-.22.51-.493.51 0 0-.984 0-.984.509 0 .51-.493-.737-.493-1.02v-.495c-.6-.244-1.675-.523-3.447-.523-1.973 0-2.956.197-3.799.565l.01.024-.42.175.419.175-.37.945-.456-.191c-.04-.017-.129-.048-.25-.08-.34-.089-.69-.116-1-.048-.113.024-.218.061-.314.111l-.44.228-.441-.911.44-.228h.001l-.422-.177.014-.035c-.727-.359-1.398-.553-3.804-.553-1.771 0-2.846.279-3.447.522v.497c0 .282-.492 1.528-.492 1.019 0-.51-.985-.51-.985-.51-.272 0-.493-.227-.493-.51v-.509c0-.281.221-.51.493-.51z"/>
        </g>
    </g>
    <path fill="#B4B4B5" d="M71 17H156V25H71zM71 31H110V39H71z"/>
    <rect width="298" height="45.925" x="13" y="69.537" fill="#C4C4C4" rx="5.103"/>
    <defs>
        <linearGradient id="prefix__paint0_linear" x1="29.431" x2="29.431" y1="30.56" y2="36.674" gradientUnits="userSpaceOnUse">
            <stop stop-color="#fff" stop-opacity=".5"/>
            <stop offset=".705" stop-opacity=".5"/>
        </linearGradient>
        <linearGradient id="prefix__paint1_linear" x1="39.771" x2="39.771" y1="30.56" y2="36.674" gradientUnits="userSpaceOnUse">
            <stop stop-color="#fff" stop-opacity=".5"/>
            <stop offset=".705" stop-opacity=".5"/>
        </linearGradient>
        <filter id="prefix__filter0_d" width="21.665" height="8.297" x="27.462" y="30.05" color-interpolation-filters="sRGB" filterUnits="userSpaceOnUse">
            <feFlood flood-opacity="0" result="BackgroundImageFix"/>
            <feColorMatrix in="SourceAlpha" values="0 0 0 0 0 0 0 0 0 0 0 0 0 0 0 0 0 0 127 0"/>
            <feOffset dy="1.164"/>
            <feColorMatrix values="0 0 0 0 0 0 0 0 0 0 0 0 0 0 0 0 0 0 0.2 0"/>
            <feBlend in2="BackgroundImageFix" result="effect1_dropShadow"/>
            <feBlend in="SourceGraphic" in2="effect1_dropShadow" result="shape"/>
        </filter>
    </defs>
</svg>
