<svg width="134" height="134" viewBox="0 0 134 134" fill="none" xmlns="http://www.w3.org/2000/svg">
<circle cx="67" cy="67" r="67" fill="#E0E0E0"/>
<mask id="mask0" mask-type="alpha" maskUnits="userSpaceOnUse" x="0" y="0" width="134" height="134">
<circle cx="67" cy="67" r="67" fill="#F5F5F8"/>
</mask>
<g mask="url(#mask0)">
<path fill-rule="evenodd" clip-rule="evenodd" d="M59.4706 91.9293C57.3387 88.8454 54.1957 86.6038 50.5857 85.5925L42.201 83.2437V77.2171C45.7456 74.5544 48.0733 70.3644 48.2163 65.6247C48.7117 65.8431 49.2586 65.9669 49.8351 65.9669C52.054 65.9669 53.853 64.1681 53.853 61.949C53.853 59.7299 52.054 57.9311 49.8351 57.9311C49.2632 57.9311 48.7204 58.0523 48.228 58.2676V57.1275C48.228 48.8061 41.4822 42.0605 33.161 42.0605H33.1608C24.8396 42.0605 18.094 48.8061 18.094 57.1275V58.2676C17.6014 58.0523 17.0586 57.9311 16.4869 57.9311C14.2678 57.9311 12.469 59.7299 12.469 61.949C12.469 64.1681 14.2678 65.9669 16.4869 65.9669C17.0632 65.9669 17.61 65.8433 18.1056 65.6247C18.2485 70.3644 20.5762 74.5544 24.1206 77.2171V83.2437L15.7361 85.5925C12.1261 86.6038 8.98308 88.8454 6.8512 91.9293L1.01807 100.368V106.346H65.3039V100.368L59.4706 91.9293Z" fill="#E9ADA1"/>
<path fill-rule="evenodd" clip-rule="evenodd" d="M33.1608 80.2319C31.303 80.2319 29.5247 79.8936 27.8813 79.2787C30.2185 80.7717 32.9941 81.6382 35.9733 81.6382C38.1952 81.6382 40.3024 81.1534 42.201 80.2902V77.2188C39.6828 79.1104 36.5529 80.2319 33.1608 80.2319Z" fill="#DB8B79"/>
<path d="M18.6183 62.5363C18.6695 62.3496 18.697 62.153 18.697 61.9501C18.697 60.7296 17.7076 59.7402 16.4872 59.7402C16.182 59.7402 15.8913 59.8021 15.627 59.9138" stroke="#00004D" stroke-width="1.24692" stroke-linecap="round" stroke-linejoin="round"/>
<path d="M47.704 62.5363C47.6528 62.3496 47.6255 62.153 47.6255 61.9501C47.6255 60.7296 48.6149 59.7402 49.8353 59.7402C50.1403 59.7402 50.431 59.8021 50.6955 59.9138" stroke="#00004D" stroke-width="1.24692" stroke-linecap="round" stroke-linejoin="round"/>
<path fill-rule="evenodd" clip-rule="evenodd" d="M37.1788 70.9922C37.1788 73.2113 35.38 75.0101 33.1609 75.0101C30.9419 75.0101 29.1431 73.2113 29.1431 70.9922H37.1788Z" fill="white"/>
<path fill-rule="evenodd" clip-rule="evenodd" d="M41.3974 62.5525C41.3974 63.44 40.6778 64.1596 39.7903 64.1596C38.9027 64.1596 38.1831 63.44 38.1831 62.5525C38.1831 61.6649 38.9027 60.9453 39.7903 60.9453C40.6778 60.9453 41.3974 61.6649 41.3974 62.5525" fill="#00004D"/>
<path fill-rule="evenodd" clip-rule="evenodd" d="M28.1386 62.5525C28.1386 63.44 27.419 64.1596 26.5315 64.1596C25.6439 64.1596 24.9243 63.44 24.9243 62.5525C24.9243 61.6649 25.6439 60.9453 26.5315 60.9453C27.419 60.9453 28.1386 61.6649 28.1386 62.5525" fill="#00004D"/>
<path d="M33.161 60.9453L35.1699 67.7757L32.3574 68.1775" stroke="#00004D" stroke-width="1.24692" stroke-linecap="round" stroke-linejoin="round"/>
<path fill-rule="evenodd" clip-rule="evenodd" d="M28.4116 50.991C26.3209 54.563 23.1561 57.426 19.3632 59.1498C18.6928 58.4616 17.7778 58.0164 16.7586 57.9479L17.2864 54.6068V54.6066C17.6227 52.477 18.3778 50.4869 19.4637 48.7217C20.4665 47.092 21.7534 45.6576 23.2535 44.482C23.8399 44.0224 24.4581 43.6013 25.1057 43.225C26.9242 42.1695 28.9679 41.4596 31.1476 41.186C31.8069 41.1032 32.4785 41.0586 33.1606 41.0586C36.0966 41.0586 38.8466 41.8499 41.2154 43.225C43.5202 44.5632 45.4627 46.4548 46.8575 48.7217C47.9433 50.4869 48.6985 52.477 49.0347 54.6068L49.5619 57.9439C48.4966 58.016 47.5471 58.5048 46.8697 59.2467C39.7308 58.6934 33.2893 55.6541 28.4116 50.991ZM24.1204 77.2146C20.5793 74.5514 18.2481 70.3656 18.1053 65.6273C17.6097 65.8459 17.0628 65.9694 16.4865 65.9694C16.1494 65.9694 15.8241 65.9236 15.5113 65.8453L13.0713 81.2929H24.1204V77.2146ZM49.8348 65.9694C49.2584 65.9694 48.7114 65.8459 48.2158 65.6273C48.0729 70.3656 45.742 74.5514 42.2008 77.2144V81.2928H53.25L50.8099 65.8453C50.4971 65.9234 50.1719 65.9694 49.8348 65.9694Z" fill="#00004D"/>
<path fill-rule="evenodd" clip-rule="evenodd" d="M65.3039 100.368L59.4706 91.9298C57.3389 88.8461 54.1959 86.6043 50.5857 85.593L42.2012 83.2441C42.2012 88.2369 38.1538 92.2843 33.161 92.2843V92.2843C28.1682 92.2843 24.1208 88.2369 24.1208 83.2441L15.7361 85.593C12.1261 86.6043 8.98308 88.8461 6.8512 91.9298L1.01807 100.368V106.347H65.3039V100.368Z" fill="#2384F5"/>
<path fill-rule="evenodd" clip-rule="evenodd" d="M125.204 92.0234C123.086 88.9594 119.963 86.7323 116.377 85.7275L108.046 83.3938V77.4061C111.568 74.7607 113.88 70.5977 114.022 65.8886C114.515 66.1056 115.058 66.2285 115.631 66.2285C117.835 66.2285 119.623 64.4414 119.623 62.2366C119.623 60.0319 117.835 58.2447 115.631 58.2447C115.063 58.2447 114.523 58.365 114.034 58.579V57.4463C114.034 49.1786 107.332 42.4766 99.0643 42.4766H99.0641C90.7966 42.4766 84.0946 49.1786 84.0946 57.4463V58.579C83.6052 58.365 83.0659 58.2447 82.4978 58.2447C80.2931 58.2447 78.5059 60.0319 78.5059 62.2366C78.5059 64.4414 80.2931 66.2285 82.4978 66.2285C83.0705 66.2285 83.6138 66.1058 84.1062 65.8886C84.2481 70.5977 86.5608 74.7607 90.0823 77.4061V83.3938L81.7519 85.7275C78.1652 86.7323 75.0425 88.9594 72.9244 92.0234L67.1289 100.407V106.347H131V100.407L125.204 92.0234Z" fill="#FFCF83"/>
<path fill-rule="evenodd" clip-rule="evenodd" d="M99.0642 80.398C97.2184 80.398 95.4515 80.0619 93.8188 79.451C96.141 80.9344 98.8986 81.7952 101.859 81.7952C104.066 81.7952 106.16 81.3136 108.046 80.4559V77.4043C105.544 79.2837 102.434 80.398 99.0642 80.398Z" fill="#F7A74F"/>
<path d="M84.6151 62.821C84.666 62.6355 84.6933 62.4401 84.6933 62.2385C84.6933 61.026 83.7103 60.043 82.4977 60.043C82.1946 60.043 81.9057 60.1044 81.6431 60.2154" stroke="#00004D" stroke-width="1.35575" stroke-linecap="round" stroke-linejoin="round"/>
<path d="M113.514 62.821C113.463 62.6355 113.436 62.4401 113.436 62.2385C113.436 61.026 114.419 60.043 115.631 60.043C115.934 60.043 116.223 60.1044 116.486 60.2154" stroke="#00004D" stroke-width="1.35575" stroke-linecap="round" stroke-linejoin="round"/>
<path fill-rule="evenodd" clip-rule="evenodd" d="M103.057 71.2207C103.057 73.4254 101.269 75.2126 99.0647 75.2126C96.8599 75.2126 95.0728 73.4254 95.0728 71.2207H103.057Z" fill="white"/>
<path fill-rule="evenodd" clip-rule="evenodd" d="M107.248 62.8331C107.248 63.7149 106.533 64.4299 105.651 64.4299C104.769 64.4299 104.054 63.7149 104.054 62.8331C104.054 61.9513 104.769 61.2363 105.651 61.2363C106.533 61.2363 107.248 61.9513 107.248 62.8331Z" fill="#00004D"/>
<path fill-rule="evenodd" clip-rule="evenodd" d="M94.0744 62.8331C94.0744 63.7149 93.3594 64.4299 92.4776 64.4299C91.5958 64.4299 90.8809 63.7149 90.8809 62.8331C90.8809 61.9513 91.5958 61.2363 92.4776 61.2363C93.3594 61.2363 94.0744 61.9513 94.0744 62.8331Z" fill="#00004D"/>
<path d="M99.0645 61.2363L101.06 68.0226L98.2661 68.4218" stroke="#00004D" stroke-width="1.35575" stroke-linecap="round" stroke-linejoin="round"/>
<path fill-rule="evenodd" clip-rule="evenodd" d="M115.032 58.2943V57.4462C115.032 54.3832 114.168 51.5226 112.673 49.0921C111.287 46.8397 109.357 44.9603 107.067 43.631C104.714 42.2645 101.981 41.4785 99.0644 41.4785C96.1471 41.4785 93.415 42.2645 91.0616 43.631C88.7718 44.9603 86.8417 46.8397 85.4559 49.0921C83.9607 51.5226 83.0967 54.3832 83.0967 57.4462V58.2943C83.9294 58.4201 84.6773 58.8003 85.2579 59.3568C87.097 57.5109 88.578 55.3085 89.5856 52.8601C92.4055 54.3848 95.6337 55.2507 99.0644 55.2507C102.495 55.2507 105.723 54.3848 108.543 52.8601C109.551 55.3085 111.032 57.5109 112.871 59.3568C113.452 58.8003 114.199 58.4201 115.032 58.2943Z" fill="#00004D"/>
<path fill-rule="evenodd" clip-rule="evenodd" d="M111.03 47.5293L108.977 43.2469C107.647 40.4711 104.842 38.7051 101.763 38.7051H96.2364C93.1584 38.7051 90.3532 40.4711 89.0226 43.2469L86.9696 47.5293C75.259 49.6095 67 54.6351 67 60.5053C67 66.2255 74.8428 71.1437 86.0798 73.3163C84.8362 71.2079 84.0902 68.7707 84.0116 66.1645C83.5182 66.3823 82.9738 66.5053 82.4 66.5053C80.1908 66.5053 78.4 64.7143 78.4 62.5053C78.4 60.2961 80.1908 58.5053 82.4 58.5053C82.9692 58.5053 83.5096 58.6259 84 58.8403V58.1053C84 54.9189 90.7156 52.3359 99 52.3359C107.284 52.3359 114 54.9189 114 58.1053V58.8403C114.49 58.6259 115.031 58.5053 115.6 58.5053C117.809 58.5053 119.6 60.2961 119.6 62.5053C119.6 64.7143 117.809 66.5053 115.6 66.5053C115.026 66.5053 114.482 66.3823 113.988 66.1645C113.91 68.7707 113.164 71.2079 111.92 73.3163C123.157 71.1437 131 66.2255 131 60.5053C131 54.6351 122.741 49.6095 111.03 47.5293Z" fill="#844123"/>
<path fill-rule="evenodd" clip-rule="evenodd" d="M131 100.408L125.204 92.0241C123.086 88.9603 119.963 86.733 116.377 85.7282L108.046 83.3945C108.046 88.3551 104.025 92.3764 99.0643 92.3764C94.1038 92.3764 90.0825 88.3551 90.0825 83.3945L81.7519 85.7282C78.1652 86.733 75.0425 88.9603 72.9244 92.0241L67.1289 100.408V106.348H131V100.408Z" fill="#FB344F"/>
</g>
<rect x="94" width="31" height="31" rx="15.5" fill="#7E7E7E"/>
<line x1="109.646" y1="10.0905" x2="109.646" y2="20.9113" stroke="white" stroke-width="1.46226" stroke-linecap="round"/>
<line x1="104.09" y1="15.0618" x2="114.91" y2="15.0618" stroke="white" stroke-width="1.46226" stroke-linecap="round"/>
</svg>
