<?xml version="1.0" encoding="UTF-8"?>
<svg width="322px" height="269px" viewBox="0 0 322 269" version="1.1" xmlns="http://www.w3.org/2000/svg" xmlns:xlink="http://www.w3.org/1999/xlink">
    <!-- Generator: Sketch 64 (93537) - https://sketch.com -->
    <title>my-posts</title>
    <desc>Created with Sketch.</desc>
    <defs>
        <rect id="path-1" x="0" y="0" width="49.252" height="49.252" rx="24.626"></rect>
        <rect id="path-3" x="0" y="0" width="49.252" height="49.252" rx="24.626"></rect>
    </defs>
    <g id="Page-1" stroke="none" stroke-width="1" fill="none" fill-rule="evenodd">
        <g id="my-posts">
            <g id="my-posts-1">
                <rect id="Rectangle" fill="#FFFFFF" fill-rule="nonzero" x="0" y="0" width="322" height="109" rx="2"></rect>
                <rect id="Rectangle" fill="#1B2A32" fill-rule="nonzero" x="13" y="10" width="49.252" height="49.252" rx="24.626"></rect>
                <rect id="Rectangle" fill="#1B2A32" fill-rule="nonzero" x="13" y="10" width="49.252" height="49.252" rx="24.626"></rect>
                <g id="Clipped" transform="translate(13.000000, 10.000000)">
                    <mask id="mask-2" fill="white">
                        <use xlink:href="#path-1"></use>
                    </mask>
                    <g id="Rectangle"></g>
                    <g id="Group" mask="url(#mask-2)">
                        <g transform="translate(5.000000, 9.000000)">
                            <path d="M35.874,31.757 C34.582,29.887 32.676,28.528 30.487,27.915 L25.404,26.491 L25.404,22.837 C27.554,21.223 28.964,18.683 29.051,15.809 C29.351,15.942 29.683,16.017 30.032,16.017 C31.378,16.017 32.468,14.927 32.468,13.581 C32.468,12.236 31.378,11.145 30.032,11.145 C29.686,11.145 29.357,11.219 29.058,11.349 L29.058,10.658 C29.058,5.613 24.968,1.523 19.924,1.523 C14.879,1.523 10.789,5.613 10.789,10.658 L10.789,11.349 C10.49,11.219 10.161,11.145 9.815,11.145 C8.469,11.145 7.379,12.235 7.379,13.581 C7.379,14.926 8.469,16.017 9.815,16.017 C10.165,16.017 10.495,15.942 10.796,15.809 C10.883,18.683 12.294,21.223 14.443,22.838 L14.443,26.491 L9.36,27.915 C7.17,28.528 5.265,29.887 3.973,31.757 L0.436,36.873 L0.436,40.498 L39.411,40.498 L39.411,36.873 L35.874,31.757 L35.874,31.757 Z" id="Path" stroke="none" fill="#E9ADA1" fill-rule="evenodd"></path>
                            <path d="M19.923,24.666 C18.797,24.666 17.719,24.461 16.723,24.088 C18.139,24.993 19.823,25.518 21.628,25.518 C22.975,25.518 24.253,25.224 25.404,24.701 L25.404,22.839 C23.877,23.986 21.98,24.666 19.924,24.666 L19.923,24.666 Z" id="Path" stroke="none" fill="#DB8B79" fill-rule="evenodd"></path>
                            <path d="M11.107,13.936 C11.137,13.823 11.154,13.704 11.154,13.581 C11.154,12.841 10.554,12.241 9.814,12.241 C9.63,12.241 9.454,12.279 9.293,12.346 M28.74,13.936 C28.709,13.823 28.692,13.704 28.692,13.581 C28.692,12.841 29.292,12.241 30.032,12.241 C30.217,12.241 30.393,12.279 30.554,12.346" id="Shape" stroke="#00004D" stroke-width="0.849" fill="none" stroke-linecap="round" stroke-linejoin="round"></path>
                            <path d="M22.36,19.063 C22.36,20.409 21.269,21.499 19.923,21.499 C18.578,21.499 17.487,20.409 17.487,19.063 L22.359,19.063 L22.36,19.063 Z" id="Path" stroke="none" fill="#FFFFFF" fill-rule="evenodd"></path>
                            <path d="M24.916,13.948 C24.916,14.486 24.48,14.922 23.942,14.922 C23.404,14.922 22.968,14.486 22.968,13.948 C22.968,13.41 23.404,12.974 23.942,12.974 C24.48,12.974 24.916,13.41 24.916,13.948 Z M16.878,13.948 C16.878,14.486 16.442,14.922 15.904,14.922 C15.365,14.922 14.929,14.486 14.929,13.948 C14.929,13.41 15.365,12.974 15.904,12.974 C16.442,12.974 16.878,13.41 16.878,13.948 Z" id="Shape" stroke="none" fill="#00004D" fill-rule="evenodd"></path>
                            <polyline id="Path" stroke="#00004D" stroke-width="0.849" fill="none" stroke-linecap="round" stroke-linejoin="round" points="19.923 12.974 21.141 17.114 19.436 17.358"></polyline>
                            <path d="M17.043,6.939 C15.776,9.104 13.857,10.839 11.558,11.885 C11.151,11.468 10.596,11.198 9.978,11.156 L10.298,9.131 C10.502,7.84 10.96,6.633 11.618,5.563 C12.227,4.575 13.007,3.705 13.916,2.993 C14.272,2.713 14.646,2.459 15.039,2.23 C16.142,1.59 17.381,1.16 18.702,0.994 C19.102,0.944 19.509,0.917 19.922,0.917 C21.702,0.917 23.37,1.397 24.806,2.23 C26.203,3.042 27.381,4.189 28.226,5.563 C28.885,6.633 29.343,7.84 29.546,9.131 L29.866,11.154 C29.22,11.198 28.645,11.494 28.234,11.944 C23.906,11.608 20.001,9.766 17.044,6.939 L17.043,6.939 Z M14.442,22.836 C12.295,21.222 10.882,18.684 10.795,15.811 C10.495,15.944 10.163,16.019 9.814,16.019 C9.609,16.019 9.412,15.991 9.223,15.944 L7.743,25.309 L14.442,25.309 L14.442,22.836 Z M30.032,16.019 C29.682,16.019 29.35,15.944 29.05,15.811 C28.963,18.684 27.55,21.221 25.403,22.836 L25.403,25.309 L32.102,25.309 L30.622,15.944 C30.433,15.991 30.236,16.019 30.032,16.019 Z" id="Shape" stroke="none" fill="#00004D" fill-rule="evenodd"></path>
                            <path d="M39.41,36.874 L35.874,31.758 C34.582,29.888 32.676,28.529 30.487,27.916 L25.404,26.492 C25.404,29.519 22.95,31.972 19.924,31.972 C16.897,31.972 14.443,29.519 14.443,26.492 L9.36,27.916 C7.17,28.529 5.265,29.888 3.973,31.758 L0.436,36.874 L0.436,40.498 L39.411,40.498 L39.411,36.874 L39.41,36.874 Z" id="Path" stroke="none" fill="#2384F5" fill-rule="evenodd"></path>
                        </g>
                    </g>
                </g>
                <path d="M71,17 L156,17 L156,25 L71,25 L71,17 Z M71,31 L110,31 L110,39 L71,39 L71,31 Z" id="Shape" fill="#B4B4B5" fill-rule="nonzero"></path>
                <rect id="Rectangle" fill="#C4C4C4" fill-rule="nonzero" x="13" y="70" width="298" height="23" rx="5.103"></rect>
            </g>
            <g id="my-posts-2" transform="translate(0.000000, 119.000000)">
                <rect id="Rectangle" fill="#FFFFFF" fill-rule="nonzero" x="0" y="0" width="322" height="150" rx="2"></rect>
                <rect id="Rectangle" fill="#1B2A32" fill-rule="nonzero" x="13" y="10" width="49.252" height="49.252" rx="24.626"></rect>
                <rect id="Rectangle" fill="#1B2A32" fill-rule="nonzero" x="13" y="10" width="49.252" height="49.252" rx="24.626"></rect>
                <g id="Clipped" transform="translate(13.000000, 10.000000)">
                    <mask id="mask-4" fill="white">
                        <use xlink:href="#path-3"></use>
                    </mask>
                    <g id="Rectangle"></g>
                    <g id="Group" mask="url(#mask-4)">
                        <g transform="translate(5.000000, 9.000000)">
                            <path d="M35.874,31.757 C34.582,29.887 32.676,28.528 30.487,27.915 L25.404,26.491 L25.404,22.837 C27.554,21.223 28.964,18.683 29.051,15.809 C29.351,15.942 29.683,16.017 30.032,16.017 C31.378,16.017 32.468,14.927 32.468,13.581 C32.468,12.236 31.378,11.145 30.032,11.145 C29.686,11.145 29.357,11.219 29.058,11.349 L29.058,10.658 C29.058,5.613 24.968,1.523 19.924,1.523 C14.879,1.523 10.789,5.613 10.789,10.658 L10.789,11.349 C10.49,11.219 10.161,11.145 9.815,11.145 C8.469,11.145 7.379,12.235 7.379,13.581 C7.379,14.926 8.469,16.017 9.815,16.017 C10.165,16.017 10.495,15.942 10.796,15.809 C10.883,18.683 12.294,21.223 14.443,22.838 L14.443,26.491 L9.36,27.915 C7.17,28.528 5.265,29.887 3.973,31.757 L0.436,36.873 L0.436,40.498 L39.411,40.498 L39.411,36.873 L35.874,31.757 L35.874,31.757 Z" id="Path" stroke="none" fill="#E9ADA1" fill-rule="evenodd"></path>
                            <path d="M19.923,24.666 C18.797,24.666 17.719,24.461 16.723,24.088 C18.139,24.993 19.823,25.518 21.628,25.518 C22.975,25.518 24.253,25.224 25.404,24.701 L25.404,22.839 C23.877,23.986 21.98,24.666 19.924,24.666 L19.923,24.666 Z" id="Path" stroke="none" fill="#DB8B79" fill-rule="evenodd"></path>
                            <path d="M11.107,13.936 C11.137,13.823 11.154,13.704 11.154,13.581 C11.154,12.841 10.554,12.241 9.814,12.241 C9.63,12.241 9.454,12.279 9.293,12.346 M28.74,13.936 C28.709,13.823 28.692,13.704 28.692,13.581 C28.692,12.841 29.292,12.241 30.032,12.241 C30.217,12.241 30.393,12.279 30.554,12.346" id="Shape" stroke="#00004D" stroke-width="0.849" fill="none" stroke-linecap="round" stroke-linejoin="round"></path>
                            <path d="M22.36,19.063 C22.36,20.409 21.269,21.499 19.923,21.499 C18.578,21.499 17.487,20.409 17.487,19.063 L22.359,19.063 L22.36,19.063 Z" id="Path" stroke="none" fill="#FFFFFF" fill-rule="evenodd"></path>
                            <path d="M24.916,13.948 C24.916,14.486 24.48,14.922 23.942,14.922 C23.404,14.922 22.968,14.486 22.968,13.948 C22.968,13.41 23.404,12.974 23.942,12.974 C24.48,12.974 24.916,13.41 24.916,13.948 Z M16.878,13.948 C16.878,14.486 16.442,14.922 15.904,14.922 C15.365,14.922 14.929,14.486 14.929,13.948 C14.929,13.41 15.365,12.974 15.904,12.974 C16.442,12.974 16.878,13.41 16.878,13.948 Z" id="Shape" stroke="none" fill="#00004D" fill-rule="evenodd"></path>
                            <polyline id="Path" stroke="#00004D" stroke-width="0.849" fill="none" stroke-linecap="round" stroke-linejoin="round" points="19.923 12.974 21.141 17.114 19.436 17.358"></polyline>
                            <path d="M17.043,6.939 C15.776,9.104 13.857,10.839 11.558,11.885 C11.151,11.468 10.596,11.198 9.978,11.156 L10.298,9.131 C10.502,7.84 10.96,6.633 11.618,5.563 C12.227,4.575 13.007,3.705 13.916,2.993 C14.272,2.713 14.646,2.459 15.039,2.23 C16.142,1.59 17.381,1.16 18.702,0.994 C19.102,0.944 19.509,0.917 19.922,0.917 C21.702,0.917 23.37,1.397 24.806,2.23 C26.203,3.042 27.381,4.189 28.226,5.563 C28.885,6.633 29.343,7.84 29.546,9.131 L29.866,11.154 C29.22,11.198 28.645,11.494 28.234,11.944 C23.906,11.608 20.001,9.766 17.044,6.939 L17.043,6.939 Z M14.442,22.836 C12.295,21.222 10.882,18.684 10.795,15.811 C10.495,15.944 10.163,16.019 9.814,16.019 C9.609,16.019 9.412,15.991 9.223,15.944 L7.743,25.309 L14.442,25.309 L14.442,22.836 Z M30.032,16.019 C29.682,16.019 29.35,15.944 29.05,15.811 C28.963,18.684 27.55,21.221 25.403,22.836 L25.403,25.309 L32.102,25.309 L30.622,15.944 C30.433,15.991 30.236,16.019 30.032,16.019 Z" id="Shape" stroke="none" fill="#00004D" fill-rule="evenodd"></path>
                            <path d="M39.41,36.874 L35.874,31.758 C34.582,29.888 32.676,28.529 30.487,27.916 L25.404,26.492 C25.404,29.519 22.95,31.972 19.924,31.972 C16.897,31.972 14.443,29.519 14.443,26.492 L9.36,27.916 C7.17,28.529 5.265,29.888 3.973,31.758 L0.436,36.874 L0.436,40.498 L39.411,40.498 L39.411,36.874 L39.41,36.874 Z" id="Path" stroke="none" fill="#2384F5" fill-rule="evenodd"></path>
                        </g>
                    </g>
                </g>
                <path d="M71,17 L156,17 L156,25 L71,25 L71,17 Z M71,31 L110,31 L110,39 L71,39 L71,31 Z" id="Shape" fill="#B4B4B5" fill-rule="nonzero"></path>
                <rect id="Rectangle" fill="#C4C4C4" fill-rule="nonzero" x="13" y="70" width="298" height="72" rx="5.103"></rect>
            </g>
        </g>
    </g>
</svg>