<svg width="214" height="154" viewBox="0 0 214 154" fill="none" xmlns="http://www.w3.org/2000/svg">
<rect x="114" y="54" width="99.4101" height="99.4101" rx="49.7051" fill="#E0E0E0"/>
<mask id="mask0" mask-type="alpha" maskUnits="userSpaceOnUse" x="114" y="54" width="100" height="100">
<rect x="114" y="54" width="99.4101" height="99.4101" rx="49.7051" fill="white"/>
</mask>
<g mask="url(#mask0)">
<path fill-rule="evenodd" clip-rule="evenodd" d="M199.869 141.878C196.938 137.639 192.618 134.557 187.656 133.167L176.131 129.939V121.655C181.003 117.995 184.203 112.235 184.399 105.72C185.08 106.021 185.832 106.191 186.624 106.191C189.674 106.191 192.147 103.718 192.147 100.668C192.147 97.6176 189.674 95.1451 186.624 95.1451C185.838 95.1451 185.092 95.3116 184.415 95.6076V94.0405C184.415 82.6023 175.143 73.3301 163.705 73.3301H163.704C152.267 73.3301 142.994 82.6023 142.994 94.0405V95.6076C142.317 95.3116 141.571 95.1451 140.785 95.1451C137.735 95.1451 135.262 97.6176 135.262 100.668C135.262 103.718 137.735 106.191 140.785 106.191C141.577 106.191 142.329 106.021 143.01 105.72C143.207 112.235 146.406 117.995 151.278 121.655V129.939L139.753 133.167C134.791 134.557 130.471 137.639 127.54 141.878L119.522 153.477V161.695H207.887V153.477L199.869 141.878Z" fill="#E9ADA1"/>
<path fill-rule="evenodd" clip-rule="evenodd" d="M163.705 125.796C161.151 125.796 158.707 125.331 156.448 124.486C159.66 126.538 163.475 127.729 167.571 127.729C170.625 127.729 173.521 127.063 176.131 125.876V121.654C172.67 124.254 168.367 125.796 163.705 125.796Z" fill="#DB8B79"/>
<path d="M143.715 101.472C143.785 101.216 143.823 100.945 143.823 100.666C143.823 98.9889 142.463 97.6289 140.785 97.6289C140.366 97.6289 139.966 97.714 139.603 97.8675" stroke="#00004D" stroke-width="1.71397" stroke-linecap="round" stroke-linejoin="round"/>
<path d="M183.695 101.472C183.624 101.216 183.587 100.945 183.587 100.666C183.587 98.9889 184.947 97.6289 186.624 97.6289C187.044 97.6289 187.443 97.714 187.807 97.8675" stroke="#00004D" stroke-width="1.71397" stroke-linecap="round" stroke-linejoin="round"/>
<path fill-rule="evenodd" clip-rule="evenodd" d="M169.228 113.096C169.228 116.146 166.755 118.618 163.705 118.618C160.655 118.618 158.182 116.146 158.182 113.096H169.228Z" fill="white"/>
<path fill-rule="evenodd" clip-rule="evenodd" d="M175.027 101.498C175.027 102.718 174.037 103.707 172.818 103.707C171.598 103.707 170.608 102.718 170.608 101.498C170.608 100.278 171.598 99.2891 172.818 99.2891C174.037 99.2891 175.027 100.278 175.027 101.498Z" fill="#00004D"/>
<path fill-rule="evenodd" clip-rule="evenodd" d="M156.801 101.498C156.801 102.718 155.812 103.707 154.592 103.707C153.372 103.707 152.383 102.718 152.383 101.498C152.383 100.278 153.372 99.2891 154.592 99.2891C155.812 99.2891 156.801 100.278 156.801 101.498Z" fill="#00004D"/>
<path d="M163.705 99.2891L166.467 108.678L162.601 109.23" stroke="#00004D" stroke-width="1.71397" stroke-linecap="round" stroke-linejoin="round"/>
<path fill-rule="evenodd" clip-rule="evenodd" d="M174.366 73.2356C174.416 72.8209 174.445 72.4 174.445 71.9718C174.445 66.2036 169.769 61.5273 164 61.5273C158.232 61.5273 153.556 66.2036 153.556 71.9718C153.556 72.4 153.584 72.8209 153.635 73.2356C146.6 76.9587 141.806 84.3482 141.806 92.8607C141.806 93.2197 141.817 93.5756 141.835 93.9302C141.998 93.9148 142.162 93.9051 142.328 93.9051C143.795 93.9051 145.118 94.5119 146.067 95.4859C150.997 93.2453 155.11 89.5242 157.828 84.8814C164.167 90.9423 172.54 94.8924 181.819 95.6117C182.773 94.5655 184.144 93.9051 185.672 93.9051C185.838 93.9051 186.002 93.9148 186.164 93.9302C186.182 93.5756 186.195 93.2197 186.195 92.8607C186.195 84.3482 181.4 76.9587 174.366 73.2356Z" fill="#5A3825"/>
<path fill-rule="evenodd" clip-rule="evenodd" d="M117.336 156.07V164.999H210.481V156.071L202.03 143.469C198.94 138.864 194.387 135.517 189.156 134.006L180.564 131.525L167.024 148.337C165.423 150.325 162.395 150.325 160.794 148.337L147.254 131.525L138.662 134.006C133.431 135.517 128.877 138.864 125.788 143.469L117.336 156.07Z" fill="black"/>
</g>
<path d="M0 6C0 2.68629 2.68629 0 6 0H198C201.314 0 204 2.68629 204 6V45.7297C204 49.0434 201.314 51.7297 198 51.7297H179.198C178.739 51.7297 178.286 51.8351 177.874 52.0377L166.191 57.783C165.913 57.9198 165.587 57.9198 165.309 57.783L153.626 52.0377C153.214 51.8351 152.761 51.7297 152.302 51.7297H102H51H38.25H25.5H6C2.68629 51.7297 0 49.0434 0 45.7297V6Z" fill="#99FF88"/>
<path d="M13.6562 30.0078C13.9219 30.0078 14.151 29.9245 14.3438 29.7578C14.5365 29.5911 14.6328 29.3594 14.6328 29.0625V20.3281H17.3516C17.5859 20.3281 17.7682 20.25 17.8984 20.0938C18.0339 19.9375 18.1016 19.7578 18.1016 19.5547C18.1016 19.3516 18.0339 19.1719 17.8984 19.0156C17.7682 18.8594 17.5859 18.7812 17.3516 18.7812H9.96094C9.72135 18.7812 9.53385 18.8594 9.39844 19.0156C9.26302 19.1719 9.19531 19.3516 9.19531 19.5547C9.19531 19.7578 9.26302 19.9375 9.39844 20.0938C9.53385 20.25 9.72135 20.3281 9.96094 20.3281H12.6875V29.0625C12.6875 29.3594 12.7839 29.5911 12.9766 29.7578C13.1693 29.9245 13.3958 30.0078 13.6562 30.0078ZM21.6094 30.1094C22.6667 30.1094 23.4219 29.6615 23.875 28.7656V29.1875C23.875 29.5417 24.0286 29.7865 24.3359 29.9219C24.4557 29.974 24.5807 30 24.7109 30C24.9401 30 25.138 29.9297 25.3047 29.7891C25.4714 29.6432 25.5547 29.4401 25.5547 29.1797V24.8984C25.5547 23.9349 25.2734 23.2266 24.7109 22.7734C24.1484 22.3151 23.3854 22.0859 22.4219 22.0859C21.3542 22.0859 20.3984 22.2969 19.5547 22.7188C19.362 22.8125 19.2656 22.9609 19.2656 23.1641C19.2656 23.3307 19.3229 23.4818 19.4375 23.6172C19.5573 23.7526 19.7005 23.8203 19.8672 23.8203C19.888 23.8203 19.9089 23.8203 19.9297 23.8203C19.9505 23.8151 19.9714 23.8099 19.9922 23.8047C20.0182 23.7995 20.0417 23.7917 20.0625 23.7812C20.3542 23.6667 20.5677 23.5859 20.7031 23.5391C20.8438 23.487 21.0807 23.4245 21.4141 23.3516C21.7474 23.2734 22.0599 23.2344 22.3516 23.2344C23.3411 23.2344 23.8359 23.7448 23.8359 24.7656V25.4531C23.3568 25.4531 22.9505 25.4583 22.6172 25.4688C22.2839 25.474 21.9427 25.4922 21.5938 25.5234C21.2448 25.5495 20.9531 25.5885 20.7188 25.6406C20.4896 25.6875 20.263 25.7526 20.0391 25.8359C19.8151 25.9141 19.6354 26.013 19.5 26.1328C19.3698 26.2474 19.25 26.388 19.1406 26.5547C19.0365 26.7214 18.9609 26.9115 18.9141 27.125C18.8724 27.3385 18.8516 27.5833 18.8516 27.8594C18.8516 28.5781 19.1094 29.1328 19.625 29.5234C20.1406 29.9141 20.8021 30.1094 21.6094 30.1094ZM21.7578 28.9922C21.3724 28.9922 21.0625 28.8958 20.8281 28.7031C20.5938 28.5052 20.4766 28.1979 20.4766 27.7812C20.4766 27.6302 20.487 27.4974 20.5078 27.3828C20.5339 27.263 20.5755 27.1562 20.6328 27.0625C20.6901 26.9688 20.7578 26.8906 20.8359 26.8281C20.9193 26.7604 21.0286 26.7031 21.1641 26.6562C21.3047 26.6042 21.4531 26.5651 21.6094 26.5391C21.7656 26.5078 21.9609 26.4844 22.1953 26.4688C22.4349 26.4479 22.6771 26.4349 22.9219 26.4297C23.1719 26.4245 23.474 26.4219 23.8281 26.4219V26.625C23.8281 27.3125 23.6198 27.8802 23.2031 28.3281C22.7865 28.7708 22.3047 28.9922 21.7578 28.9922ZM28.5625 30C28.7969 30 29 29.9245 29.1719 29.7734C29.3438 29.6172 29.4297 29.4062 29.4297 29.1406V26.0156L33.0078 29.7812C33.1693 29.9531 33.3568 30.0391 33.5703 30.0391C33.7057 30.0391 33.8359 30.0052 33.9609 29.9375C34.0859 29.8646 34.1849 29.7682 34.2578 29.6484C34.3359 29.5286 34.375 29.4036 34.375 29.2734C34.375 29.1901 34.3568 29.1068 34.3203 29.0234C34.2891 28.9401 34.237 28.8594 34.1641 28.7812L31.2656 25.75L33.8359 23.3359C33.8828 23.2943 33.9219 23.2474 33.9531 23.1953C33.9844 23.1432 34.0052 23.0911 34.0156 23.0391C34.0312 22.987 34.0391 22.9323 34.0391 22.875C34.0391 22.75 34.0026 22.6276 33.9297 22.5078C33.862 22.3828 33.7682 22.2839 33.6484 22.2109C33.5339 22.1328 33.4115 22.0938 33.2812 22.0938C33.2031 22.0938 33.125 22.112 33.0469 22.1484C32.9688 22.1797 32.8932 22.2292 32.8203 22.2969L29.4297 25.5469V19.6406C29.4297 19.3802 29.3464 19.1745 29.1797 19.0234C29.013 18.8672 28.8151 18.7891 28.5859 18.7891C28.3516 18.7891 28.1484 18.8646 27.9766 19.0156C27.8047 19.1667 27.7188 19.375 27.7188 19.6406V29.1406C27.7188 29.4115 27.8021 29.6224 27.9688 29.7734C28.1354 29.9245 28.3333 30 28.5625 30ZM39.25 30.1094C40.3854 30.1094 41.3438 29.7656 42.125 29.0781C42.2969 28.9375 42.3828 28.7682 42.3828 28.5703C42.3828 28.4141 42.3281 28.276 42.2188 28.1562C42.1146 28.0365 41.9896 27.9766 41.8438 27.9766C41.7448 27.9766 41.6458 28.0104 41.5469 28.0781C40.75 28.6406 40.026 28.9219 39.375 28.9219C38.6719 28.9167 38.1094 28.7188 37.6875 28.3281C37.2708 27.9323 37.0443 27.3203 37.0078 26.4922H42.1328C42.3099 26.4922 42.4375 26.4323 42.5156 26.3125C42.599 26.1875 42.6406 26.0312 42.6406 25.8438C42.6302 25.3281 42.5521 24.8516 42.4062 24.4141C42.2604 23.9714 42.0469 23.5755 41.7656 23.2266C41.4896 22.8724 41.1198 22.5938 40.6562 22.3906C40.1979 22.1875 39.6693 22.0859 39.0703 22.0859C38.4818 22.0859 37.9453 22.1927 37.4609 22.4062C36.9766 22.6198 36.5781 22.9089 36.2656 23.2734C35.9531 23.638 35.7109 24.0573 35.5391 24.5312C35.3724 25 35.2891 25.4974 35.2891 26.0234C35.2891 27.2839 35.651 28.2786 36.375 29.0078C37.1042 29.7318 38.0625 30.099 39.25 30.1094ZM37.0234 25.4609C37.0495 25.1797 37.1094 24.9115 37.2031 24.6562C37.3021 24.401 37.4349 24.1667 37.6016 23.9531C37.7682 23.7396 37.9844 23.5677 38.25 23.4375C38.5156 23.3073 38.8125 23.2422 39.1406 23.2422C39.776 23.2422 40.2604 23.4531 40.5938 23.875C40.9271 24.2969 41.1172 24.8255 41.1641 25.4609H37.0234ZM51 30.1094C52.0573 30.1094 52.8125 29.6615 53.2656 28.7656V29.1875C53.2656 29.5417 53.4193 29.7865 53.7266 29.9219C53.8464 29.974 53.9714 30 54.1016 30C54.3307 30 54.5286 29.9297 54.6953 29.7891C54.862 29.6432 54.9453 29.4401 54.9453 29.1797V24.8984C54.9453 23.9349 54.6641 23.2266 54.1016 22.7734C53.5391 22.3151 52.776 22.0859 51.8125 22.0859C50.7448 22.0859 49.7891 22.2969 48.9453 22.7188C48.7526 22.8125 48.6562 22.9609 48.6562 23.1641C48.6562 23.3307 48.7135 23.4818 48.8281 23.6172C48.9479 23.7526 49.0911 23.8203 49.2578 23.8203C49.2786 23.8203 49.2995 23.8203 49.3203 23.8203C49.3411 23.8151 49.362 23.8099 49.3828 23.8047C49.4089 23.7995 49.4323 23.7917 49.4531 23.7812C49.7448 23.6667 49.9583 23.5859 50.0938 23.5391C50.2344 23.487 50.4714 23.4245 50.8047 23.3516C51.138 23.2734 51.4505 23.2344 51.7422 23.2344C52.7318 23.2344 53.2266 23.7448 53.2266 24.7656V25.4531C52.7474 25.4531 52.3411 25.4583 52.0078 25.4688C51.6745 25.474 51.3333 25.4922 50.9844 25.5234C50.6354 25.5495 50.3438 25.5885 50.1094 25.6406C49.8802 25.6875 49.6536 25.7526 49.4297 25.8359C49.2057 25.9141 49.026 26.013 48.8906 26.1328C48.7604 26.2474 48.6406 26.388 48.5312 26.5547C48.4271 26.7214 48.3516 26.9115 48.3047 27.125C48.263 27.3385 48.2422 27.5833 48.2422 27.8594C48.2422 28.5781 48.5 29.1328 49.0156 29.5234C49.5312 29.9141 50.1927 30.1094 51 30.1094ZM51.1484 28.9922C50.763 28.9922 50.4531 28.8958 50.2188 28.7031C49.9844 28.5052 49.8672 28.1979 49.8672 27.7812C49.8672 27.6302 49.8776 27.4974 49.8984 27.3828C49.9245 27.263 49.9661 27.1562 50.0234 27.0625C50.0807 26.9688 50.1484 26.8906 50.2266 26.8281C50.3099 26.7604 50.4193 26.7031 50.5547 26.6562C50.6953 26.6042 50.8438 26.5651 51 26.5391C51.1562 26.5078 51.3516 26.4844 51.5859 26.4688C51.8255 26.4479 52.0677 26.4349 52.3125 26.4297C52.5625 26.4245 52.8646 26.4219 53.2188 26.4219V26.625C53.2188 27.3125 53.0104 27.8802 52.5938 28.3281C52.1771 28.7708 51.6953 28.9922 51.1484 28.9922ZM62.4844 30C62.7188 30 62.9219 29.9245 63.0938 29.7734C63.2708 29.6172 63.3594 29.4089 63.3594 29.1484V19.6406C63.3594 19.3802 63.2734 19.1745 63.1016 19.0234C62.9297 18.8672 62.7292 18.7891 62.5 18.7891C62.2656 18.7891 62.0625 18.8646 61.8906 19.0156C61.724 19.1667 61.6406 19.375 61.6406 19.6406V29.1484C61.6406 29.4193 61.7214 29.6302 61.8828 29.7812C62.0495 29.9271 62.25 30 62.4844 30ZM69.1094 28.9453C68.3854 28.9453 67.8177 28.6953 67.4062 28.1953C67 27.6953 66.7969 27 66.7969 26.1094C66.7969 25.2083 67 24.5052 67.4062 24C67.8177 23.4948 68.3854 23.2422 69.1094 23.2422C69.8333 23.2422 70.3984 23.4974 70.8047 24.0078C71.2161 24.513 71.4219 25.2135 71.4219 26.1094C71.4219 27 71.2188 27.6953 70.8125 28.1953C70.4062 28.6953 69.8385 28.9453 69.1094 28.9453ZM69.1094 30.1094C69.6406 30.1094 70.1276 30.0365 70.5703 29.8906C71.013 29.7396 71.388 29.5391 71.6953 29.2891C72.0078 29.0339 72.2708 28.7344 72.4844 28.3906C72.7031 28.0469 72.862 27.6849 72.9609 27.3047C73.0651 26.9193 73.1172 26.5208 73.1172 26.1094C73.1172 25.5677 73.0312 25.0573 72.8594 24.5781C72.6875 24.099 72.4375 23.6719 72.1094 23.2969C71.7865 22.9219 71.3672 22.6276 70.8516 22.4141C70.3359 22.1953 69.7552 22.0859 69.1094 22.0859C68.4583 22.0859 67.8724 22.1979 67.3516 22.4219C66.8307 22.6406 66.4089 22.9401 66.0859 23.3203C65.7682 23.6953 65.5234 24.1224 65.3516 24.6016C65.1849 25.0755 65.1016 25.5781 65.1016 26.1094C65.1016 26.6302 65.1849 27.1276 65.3516 27.6016C65.5182 28.0703 65.7604 28.4948 66.0781 28.875C66.401 29.25 66.8229 29.5495 67.3438 29.7734C67.8646 29.9974 68.4531 30.1094 69.1094 30.1094ZM78.375 28.9453C77.651 28.9453 77.0833 28.6953 76.6719 28.1953C76.2656 27.6953 76.0625 27 76.0625 26.1094C76.0625 25.2083 76.2656 24.5052 76.6719 24C77.0833 23.4948 77.651 23.2422 78.375 23.2422C79.099 23.2422 79.6641 23.4974 80.0703 24.0078C80.4818 24.513 80.6875 25.2135 80.6875 26.1094C80.6875 27 80.4844 27.6953 80.0781 28.1953C79.6719 28.6953 79.1042 28.9453 78.375 28.9453ZM78.375 30.1094C78.9062 30.1094 79.3932 30.0365 79.8359 29.8906C80.2786 29.7396 80.6536 29.5391 80.9609 29.2891C81.2734 29.0339 81.5365 28.7344 81.75 28.3906C81.9688 28.0469 82.1276 27.6849 82.2266 27.3047C82.3307 26.9193 82.3828 26.5208 82.3828 26.1094C82.3828 25.5677 82.2969 25.0573 82.125 24.5781C81.9531 24.099 81.7031 23.6719 81.375 23.2969C81.0521 22.9219 80.6328 22.6276 80.1172 22.4141C79.6016 22.1953 79.0208 22.0859 78.375 22.0859C77.724 22.0859 77.138 22.1979 76.6172 22.4219C76.0964 22.6406 75.6745 22.9401 75.3516 23.3203C75.0339 23.6953 74.7891 24.1224 74.6172 24.6016C74.4505 25.0755 74.3672 25.5781 74.3672 26.1094C74.3672 26.6302 74.4505 27.1276 74.6172 27.6016C74.7839 28.0703 75.026 28.4948 75.3438 28.875C75.6667 29.25 76.0885 29.5495 76.6094 29.7734C77.1302 29.9974 77.7188 30.1094 78.375 30.1094ZM84.9531 30C85.1875 30 85.3906 29.9245 85.5625 29.7734C85.7344 29.6172 85.8203 29.4062 85.8203 29.1406V26.0156L89.3984 29.7812C89.5599 29.9531 89.7474 30.0391 89.9609 30.0391C90.0964 30.0391 90.2266 30.0052 90.3516 29.9375C90.4766 29.8646 90.5755 29.7682 90.6484 29.6484C90.7266 29.5286 90.7656 29.4036 90.7656 29.2734C90.7656 29.1901 90.7474 29.1068 90.7109 29.0234C90.6797 28.9401 90.6276 28.8594 90.5547 28.7812L87.6562 25.75L90.2266 23.3359C90.2734 23.2943 90.3125 23.2474 90.3438 23.1953C90.375 23.1432 90.3958 23.0911 90.4062 23.0391C90.4219 22.987 90.4297 22.9323 90.4297 22.875C90.4297 22.75 90.3932 22.6276 90.3203 22.5078C90.2526 22.3828 90.1589 22.2839 90.0391 22.2109C89.9245 22.1328 89.8021 22.0938 89.6719 22.0938C89.5938 22.0938 89.5156 22.112 89.4375 22.1484C89.3594 22.1797 89.2839 22.2292 89.2109 22.2969L85.8203 25.5469V19.6406C85.8203 19.3802 85.737 19.1745 85.5703 19.0234C85.4036 18.8672 85.2057 18.7891 84.9766 18.7891C84.7422 18.7891 84.5391 18.8646 84.3672 19.0156C84.1953 19.1667 84.1094 19.375 84.1094 19.6406V29.1406C84.1094 29.4115 84.1927 29.6224 84.3594 29.7734C84.526 29.9245 84.724 30 84.9531 30ZM98.8281 30.1094C99.8854 30.1094 100.641 29.6615 101.094 28.7656V29.1875C101.094 29.5417 101.247 29.7865 101.555 29.9219C101.674 29.974 101.799 30 101.93 30C102.159 30 102.357 29.9297 102.523 29.7891C102.69 29.6432 102.773 29.4401 102.773 29.1797V24.8984C102.773 23.9349 102.492 23.2266 101.93 22.7734C101.367 22.3151 100.604 22.0859 99.6406 22.0859C98.5729 22.0859 97.6172 22.2969 96.7734 22.7188C96.5807 22.8125 96.4844 22.9609 96.4844 23.1641C96.4844 23.3307 96.5417 23.4818 96.6562 23.6172C96.776 23.7526 96.9193 23.8203 97.0859 23.8203C97.1068 23.8203 97.1276 23.8203 97.1484 23.8203C97.1693 23.8151 97.1901 23.8099 97.2109 23.8047C97.237 23.7995 97.2604 23.7917 97.2812 23.7812C97.5729 23.6667 97.7865 23.5859 97.9219 23.5391C98.0625 23.487 98.2995 23.4245 98.6328 23.3516C98.9661 23.2734 99.2786 23.2344 99.5703 23.2344C100.56 23.2344 101.055 23.7448 101.055 24.7656V25.4531C100.576 25.4531 100.169 25.4583 99.8359 25.4688C99.5026 25.474 99.1615 25.4922 98.8125 25.5234C98.4635 25.5495 98.1719 25.5885 97.9375 25.6406C97.7083 25.6875 97.4818 25.7526 97.2578 25.8359C97.0339 25.9141 96.8542 26.013 96.7188 26.1328C96.5885 26.2474 96.4688 26.388 96.3594 26.5547C96.2552 26.7214 96.1797 26.9115 96.1328 27.125C96.0911 27.3385 96.0703 27.5833 96.0703 27.8594C96.0703 28.5781 96.3281 29.1328 96.8438 29.5234C97.3594 29.9141 98.0208 30.1094 98.8281 30.1094ZM98.9766 28.9922C98.5911 28.9922 98.2812 28.8958 98.0469 28.7031C97.8125 28.5052 97.6953 28.1979 97.6953 27.7812C97.6953 27.6302 97.7057 27.4974 97.7266 27.3828C97.7526 27.263 97.7943 27.1562 97.8516 27.0625C97.9089 26.9688 97.9766 26.8906 98.0547 26.8281C98.138 26.7604 98.2474 26.7031 98.3828 26.6562C98.5234 26.6042 98.6719 26.5651 98.8281 26.5391C98.9844 26.5078 99.1797 26.4844 99.4141 26.4688C99.6536 26.4479 99.8958 26.4349 100.141 26.4297C100.391 26.4245 100.693 26.4219 101.047 26.4219V26.625C101.047 27.3125 100.839 27.8802 100.422 28.3281C100.005 28.7708 99.5234 28.9922 98.9766 28.9922ZM107.664 30.0781C107.69 30.0781 107.721 30.0781 107.758 30.0781C107.799 30.0781 107.839 30.0781 107.875 30.0781C107.911 30.0781 107.943 30.0781 107.969 30.0781C108.083 30.0781 108.18 30.0755 108.258 30.0703C108.336 30.0703 108.424 30.0677 108.523 30.0625C108.622 30.0573 108.708 30.0469 108.781 30.0312C108.854 30.0156 108.927 29.9974 109 29.9766C109.078 29.9557 109.143 29.9271 109.195 29.8906C109.247 29.8542 109.294 29.8125 109.336 29.7656C109.378 29.7188 109.409 29.6641 109.43 29.6016C109.451 29.5339 109.461 29.4583 109.461 29.375C109.461 29.2604 109.435 29.1536 109.383 29.0547C109.336 28.9557 109.26 28.875 109.156 28.8125C109.057 28.7448 108.938 28.7109 108.797 28.7109C108.776 28.7109 108.758 28.7109 108.742 28.7109L108.172 28.75H108.102C107.888 28.75 107.716 28.6927 107.586 28.5781C107.456 28.4583 107.365 28.2969 107.312 28.0938C107.26 27.8854 107.234 27.625 107.234 27.3125V23.3828H108.602C108.805 23.3828 108.956 23.3333 109.055 23.2344C109.154 23.1302 109.203 22.9974 109.203 22.8359C109.203 22.6745 109.151 22.5417 109.047 22.4375C108.948 22.3281 108.799 22.2734 108.602 22.2734H107.234V20.0547C107.234 19.8359 107.174 19.6745 107.055 19.5703C106.94 19.4609 106.789 19.4062 106.602 19.4062C106.372 19.4062 106.18 19.4766 106.023 19.6172C105.872 19.7526 105.784 19.9323 105.758 20.1562L105.523 22.2734H104.641C104.443 22.2734 104.292 22.3255 104.188 22.4297C104.083 22.5339 104.031 22.6641 104.031 22.8203C104.031 22.9766 104.086 23.1094 104.195 23.2188C104.305 23.3281 104.458 23.3828 104.656 23.3828H105.523V27.7188C105.523 28.4635 105.714 29.0443 106.094 29.4609C106.479 29.8724 107.003 30.0781 107.664 30.0781ZM116.258 30C116.492 30 116.695 29.9297 116.867 29.7891C117.044 29.6432 117.133 29.4401 117.133 29.1797V25.5781C117.133 24.8594 117.318 24.2917 117.688 23.875C118.057 23.4531 118.552 23.2422 119.172 23.2422C119.672 23.2422 120.06 23.3958 120.336 23.7031C120.612 24.0104 120.75 24.474 120.75 25.0938V29.1719C120.75 29.4323 120.833 29.6354 121 29.7812C121.167 29.9271 121.367 30 121.602 30C121.836 30 122.036 29.9271 122.203 29.7812C122.375 29.6354 122.461 29.4323 122.461 29.1719V25.7344C122.461 24.9531 122.651 24.3438 123.031 23.9062C123.417 23.4635 123.911 23.2422 124.516 23.2422C125.021 23.2422 125.409 23.3932 125.68 23.6953C125.956 23.9922 126.094 24.4401 126.094 25.0391V29.1797C126.094 29.4401 126.177 29.6432 126.344 29.7891C126.51 29.9297 126.711 30 126.945 30C127.18 30 127.383 29.9297 127.555 29.7891C127.727 29.6432 127.812 29.4401 127.812 29.1797V25.0703C127.812 24.0703 127.547 23.3229 127.016 22.8281C126.484 22.3333 125.789 22.0859 124.93 22.0859C124.284 22.0859 123.724 22.2318 123.25 22.5234C122.781 22.8151 122.43 23.2526 122.195 23.8359C122.034 23.3151 121.727 22.8932 121.273 22.5703C120.826 22.2474 120.273 22.0859 119.617 22.0859C118.461 22.0859 117.633 22.5521 117.133 23.4844V22.9453C117.133 22.7109 117.047 22.5286 116.875 22.3984C116.703 22.263 116.503 22.1953 116.273 22.1953C116.039 22.1953 115.836 22.2682 115.664 22.4141C115.492 22.5547 115.406 22.75 115.406 23V29.1797C115.406 29.4401 115.49 29.6432 115.656 29.7891C115.828 29.9297 116.029 30 116.258 30ZM132.211 32.7734L136.875 23.2969C136.932 23.1823 136.961 23.0651 136.961 22.9453C136.961 22.7318 136.875 22.5495 136.703 22.3984C136.536 22.2474 136.346 22.1719 136.133 22.1719C135.805 22.1719 135.555 22.3411 135.383 22.6797L133.156 27.2188L130.977 22.7734C130.893 22.6016 130.784 22.4766 130.648 22.3984C130.518 22.3151 130.378 22.2734 130.227 22.2734C130.086 22.2734 129.951 22.3073 129.82 22.375C129.69 22.4375 129.583 22.5286 129.5 22.6484C129.422 22.7682 129.383 22.901 129.383 23.0469C129.383 23.1667 129.414 23.2891 129.477 23.4141L132.305 28.9531L130.758 32.0938C130.732 32.151 130.711 32.2083 130.695 32.2656C130.68 32.3229 130.672 32.3802 130.672 32.4375C130.672 32.6562 130.758 32.8438 130.93 33C131.107 33.1562 131.305 33.2344 131.523 33.2344C131.831 33.2344 132.06 33.0807 132.211 32.7734ZM143.625 30C143.859 30 144.06 29.9271 144.227 29.7812C144.398 29.6354 144.484 29.4349 144.484 29.1797V25.625C144.49 24.9115 144.693 24.3359 145.094 23.8984C145.495 23.4609 145.974 23.2422 146.531 23.2422C147.01 23.2422 147.398 23.3984 147.695 23.7109C147.992 24.0234 148.141 24.474 148.141 25.0625V29.1797C148.141 29.4401 148.224 29.6432 148.391 29.7891C148.557 29.9297 148.755 30 148.984 30C149.219 30 149.422 29.9297 149.594 29.7891C149.766 29.6432 149.852 29.4401 149.852 29.1797V25.0781C149.852 24.5677 149.776 24.1172 149.625 23.7266C149.474 23.3359 149.266 23.0234 149 22.7891C148.734 22.5547 148.432 22.3802 148.094 22.2656C147.76 22.1458 147.401 22.0859 147.016 22.0859C146.422 22.0859 145.906 22.2005 145.469 22.4297C145.031 22.6536 144.703 22.9818 144.484 23.4141V22.9766C144.484 22.7318 144.401 22.5417 144.234 22.4062C144.068 22.2656 143.867 22.1953 143.633 22.1953C143.398 22.1953 143.195 22.2682 143.023 22.4141C142.852 22.5547 142.766 22.75 142.766 23V29.1797C142.766 29.4401 142.849 29.6432 143.016 29.7891C143.188 29.9297 143.391 30 143.625 30ZM155.516 28.9453C154.792 28.9453 154.224 28.6953 153.812 28.1953C153.406 27.6953 153.203 27 153.203 26.1094C153.203 25.2083 153.406 24.5052 153.812 24C154.224 23.4948 154.792 23.2422 155.516 23.2422C156.24 23.2422 156.805 23.4974 157.211 24.0078C157.622 24.513 157.828 25.2135 157.828 26.1094C157.828 27 157.625 27.6953 157.219 28.1953C156.812 28.6953 156.245 28.9453 155.516 28.9453ZM155.516 30.1094C156.047 30.1094 156.534 30.0365 156.977 29.8906C157.419 29.7396 157.794 29.5391 158.102 29.2891C158.414 29.0339 158.677 28.7344 158.891 28.3906C159.109 28.0469 159.268 27.6849 159.367 27.3047C159.471 26.9193 159.523 26.5208 159.523 26.1094C159.523 25.5677 159.438 25.0573 159.266 24.5781C159.094 24.099 158.844 23.6719 158.516 23.2969C158.193 22.9219 157.773 22.6276 157.258 22.4141C156.742 22.1953 156.161 22.0859 155.516 22.0859C154.865 22.0859 154.279 22.1979 153.758 22.4219C153.237 22.6406 152.815 22.9401 152.492 23.3203C152.174 23.6953 151.93 24.1224 151.758 24.6016C151.591 25.0755 151.508 25.5781 151.508 26.1094C151.508 26.6302 151.591 27.1276 151.758 27.6016C151.924 28.0703 152.167 28.4948 152.484 28.875C152.807 29.25 153.229 29.5495 153.75 29.7734C154.271 29.9974 154.859 30.1094 155.516 30.1094ZM163.977 30.0781C164.003 30.0781 164.034 30.0781 164.07 30.0781C164.112 30.0781 164.151 30.0781 164.188 30.0781C164.224 30.0781 164.255 30.0781 164.281 30.0781C164.396 30.0781 164.492 30.0755 164.57 30.0703C164.648 30.0703 164.737 30.0677 164.836 30.0625C164.935 30.0573 165.021 30.0469 165.094 30.0312C165.167 30.0156 165.24 29.9974 165.312 29.9766C165.391 29.9557 165.456 29.9271 165.508 29.8906C165.56 29.8542 165.607 29.8125 165.648 29.7656C165.69 29.7188 165.721 29.6641 165.742 29.6016C165.763 29.5339 165.773 29.4583 165.773 29.375C165.773 29.2604 165.747 29.1536 165.695 29.0547C165.648 28.9557 165.573 28.875 165.469 28.8125C165.37 28.7448 165.25 28.7109 165.109 28.7109C165.089 28.7109 165.07 28.7109 165.055 28.7109L164.484 28.75H164.414C164.201 28.75 164.029 28.6927 163.898 28.5781C163.768 28.4583 163.677 28.2969 163.625 28.0938C163.573 27.8854 163.547 27.625 163.547 27.3125V23.3828H164.914C165.117 23.3828 165.268 23.3333 165.367 23.2344C165.466 23.1302 165.516 22.9974 165.516 22.8359C165.516 22.6745 165.464 22.5417 165.359 22.4375C165.26 22.3281 165.112 22.2734 164.914 22.2734H163.547V20.0547C163.547 19.8359 163.487 19.6745 163.367 19.5703C163.253 19.4609 163.102 19.4062 162.914 19.4062C162.685 19.4062 162.492 19.4766 162.336 19.6172C162.185 19.7526 162.096 19.9323 162.07 20.1562L161.836 22.2734H160.953C160.755 22.2734 160.604 22.3255 160.5 22.4297C160.396 22.5339 160.344 22.6641 160.344 22.8203C160.344 22.9766 160.398 23.1094 160.508 23.2188C160.617 23.3281 160.771 23.3828 160.969 23.3828H161.836V27.7188C161.836 28.4635 162.026 29.0443 162.406 29.4609C162.792 29.8724 163.315 30.0781 163.977 30.0781ZM170.734 30.1094C171.87 30.1094 172.828 29.7656 173.609 29.0781C173.781 28.9375 173.867 28.7682 173.867 28.5703C173.867 28.4141 173.812 28.276 173.703 28.1562C173.599 28.0365 173.474 27.9766 173.328 27.9766C173.229 27.9766 173.13 28.0104 173.031 28.0781C172.234 28.6406 171.51 28.9219 170.859 28.9219C170.156 28.9167 169.594 28.7188 169.172 28.3281C168.755 27.9323 168.529 27.3203 168.492 26.4922H173.617C173.794 26.4922 173.922 26.4323 174 26.3125C174.083 26.1875 174.125 26.0312 174.125 25.8438C174.115 25.3281 174.036 24.8516 173.891 24.4141C173.745 23.9714 173.531 23.5755 173.25 23.2266C172.974 22.8724 172.604 22.5938 172.141 22.3906C171.682 22.1875 171.154 22.0859 170.555 22.0859C169.966 22.0859 169.43 22.1927 168.945 22.4062C168.461 22.6198 168.062 22.9089 167.75 23.2734C167.438 23.638 167.195 24.0573 167.023 24.5312C166.857 25 166.773 25.4974 166.773 26.0234C166.773 27.2839 167.135 28.2786 167.859 29.0078C168.589 29.7318 169.547 30.099 170.734 30.1094ZM168.508 25.4609C168.534 25.1797 168.594 24.9115 168.688 24.6562C168.786 24.401 168.919 24.1667 169.086 23.9531C169.253 23.7396 169.469 23.5677 169.734 23.4375C170 23.3073 170.297 23.2422 170.625 23.2422C171.26 23.2422 171.745 23.4531 172.078 23.875C172.411 24.2969 172.602 24.8255 172.648 25.4609H168.508ZM175.766 29.2578C176.38 29.6953 177.13 29.9714 178.016 30.0859C178.266 30.1172 178.513 30.1328 178.758 30.1328C179.206 30.1328 179.617 30.0833 179.992 29.9844C180.372 29.8854 180.703 29.7396 180.984 29.5469C181.266 29.349 181.484 29.0938 181.641 28.7812C181.802 28.4635 181.883 28.1042 181.883 27.7031C181.883 27.1042 181.701 26.625 181.336 26.2656C180.971 25.9062 180.38 25.625 179.562 25.4219L178.297 25.1094C177.807 24.9896 177.482 24.8698 177.32 24.75C177.159 24.625 177.078 24.4219 177.078 24.1406C177.078 23.9167 177.156 23.7318 177.312 23.5859C177.469 23.4401 177.664 23.3385 177.898 23.2812C178.133 23.2188 178.401 23.1875 178.703 23.1875C178.849 23.1875 178.997 23.1979 179.148 23.2188C179.299 23.2344 179.427 23.2526 179.531 23.2734C179.641 23.2943 179.768 23.3255 179.914 23.3672C180.06 23.4089 180.161 23.4401 180.219 23.4609C180.276 23.4818 180.37 23.5182 180.5 23.5703C180.63 23.6172 180.698 23.6406 180.703 23.6406C180.755 23.6562 180.802 23.6693 180.844 23.6797C180.891 23.6901 180.938 23.6953 180.984 23.6953C181.089 23.6953 181.18 23.6719 181.258 23.625C181.341 23.5729 181.404 23.5078 181.445 23.4297C181.487 23.3516 181.508 23.2682 181.508 23.1797C181.508 22.9349 181.383 22.7526 181.133 22.6328C180.362 22.2422 179.521 22.0469 178.609 22.0469C177.458 22.0469 176.607 22.3099 176.055 22.8359C175.68 23.2057 175.492 23.6667 175.492 24.2188C175.492 24.4271 175.51 24.6172 175.547 24.7891C175.589 24.9557 175.641 25.1042 175.703 25.2344C175.771 25.3594 175.862 25.4766 175.977 25.5859C176.096 25.6901 176.216 25.7786 176.336 25.8516C176.456 25.9245 176.609 25.9974 176.797 26.0703C176.99 26.1432 177.169 26.2057 177.336 26.2578C177.503 26.3047 177.714 26.362 177.969 26.4297L179.258 26.7578C179.664 26.862 179.961 27 180.148 27.1719C180.336 27.3385 180.43 27.5521 180.43 27.8125C180.43 28.0833 180.344 28.3125 180.172 28.5C180 28.6823 179.784 28.8125 179.523 28.8906C179.263 28.9635 178.969 29 178.641 29C178.339 29 178.039 28.9635 177.742 28.8906C177.445 28.8125 177.208 28.7318 177.031 28.6484C176.854 28.5651 176.661 28.4609 176.453 28.3359C176.323 28.263 176.195 28.2266 176.07 28.2266C176.039 28.2266 176.008 28.2292 175.977 28.2344C175.945 28.2396 175.914 28.2474 175.883 28.2578C175.857 28.2682 175.831 28.2812 175.805 28.2969C175.779 28.3073 175.753 28.3229 175.727 28.3438C175.706 28.3594 175.685 28.3776 175.664 28.3984C175.643 28.4193 175.625 28.4427 175.609 28.4688C175.594 28.4896 175.578 28.513 175.562 28.5391C175.552 28.5651 175.542 28.5911 175.531 28.6172C175.526 28.6432 175.521 28.6719 175.516 28.7031C175.51 28.7292 175.508 28.7578 175.508 28.7891C175.508 28.9766 175.594 29.1328 175.766 29.2578ZM184.914 30.0234C185.216 30.0234 185.464 29.9271 185.656 29.7344C185.849 29.5417 185.945 29.3151 185.945 29.0547C185.945 28.7839 185.846 28.5547 185.648 28.3672C185.451 28.1797 185.206 28.0859 184.914 28.0859C184.607 28.0859 184.357 28.1823 184.164 28.375C183.971 28.5677 183.875 28.7943 183.875 29.0547C183.875 29.3203 183.974 29.5495 184.172 29.7422C184.37 29.9297 184.617 30.0234 184.914 30.0234ZM189.68 30.0234C189.982 30.0234 190.229 29.9271 190.422 29.7344C190.615 29.5417 190.711 29.3151 190.711 29.0547C190.711 28.7839 190.612 28.5547 190.414 28.3672C190.216 28.1797 189.971 28.0859 189.68 28.0859C189.372 28.0859 189.122 28.1823 188.93 28.375C188.737 28.5677 188.641 28.7943 188.641 29.0547C188.641 29.3203 188.74 29.5495 188.938 29.7422C189.135 29.9297 189.383 30.0234 189.68 30.0234ZM194.445 30.0234C194.747 30.0234 194.995 29.9271 195.188 29.7344C195.38 29.5417 195.477 29.3151 195.477 29.0547C195.477 28.7839 195.378 28.5547 195.18 28.3672C194.982 28.1797 194.737 28.0859 194.445 28.0859C194.138 28.0859 193.888 28.1823 193.695 28.375C193.503 28.5677 193.406 28.7943 193.406 29.0547C193.406 29.3203 193.505 29.5495 193.703 29.7422C193.901 29.9297 194.148 30.0234 194.445 30.0234Z" fill="black"/>
</svg>
