<svg xmlns="http://www.w3.org/2000/svg" width="376" height="193" fill="none" viewBox="0 0 376 193">
    <path fill="#fff" d="M192.204 73.278H376V113.584H192.204z"/>
    <path fill="#919191" d="M322.796 82.952H359.878V91.013H322.796z"/>
    <path fill="#B4B4B5" d="M229.286 97.462H359.87800000000004V105.523H229.286z"/>
    <path fill="#fff" d="M58.863 1.202H242.514V48.052H58.863z"/>
    <path fill="#B4B4B5" d="M71.981 12.445H115.083V21.814999999999998H71.981z"/>
    <path fill="#B4B4B5" d="M71.981 12.445H115.083V21.814999999999998H71.981z"/>
    <path fill="#B4B4B5" d="M71.981 12.445H115.083V21.814999999999998H71.981z"/>
    <path fill="#CCC" d="M71.981 29.311H223.774V38.681H71.981z"/>
    <rect width="49.252" height="49.252" fill="#F5F5F8" rx="24.626"/>
    <rect width="49.252" height="49.252" fill="#F5F5F8" rx="24.626"/>
    <mask id="prefix__a" width="50" height="50" x="0" y="0" maskUnits="userSpaceOnUse">
        <rect width="49.252" height="49.252" fill="#fff" rx="24.626"/>
    </mask>
    <mask id="prefix__b" width="50" height="50" x="0" y="0" maskUnits="userSpaceOnUse">
        <rect width="49.252" height="49.252" fill="#fff" rx="24.626"/>
    </mask>
    <g mask="url(#prefix__b)">
        <path fill="#B5683C" fill-rule="evenodd" d="M42.544 43.539c-1.452-2.1-3.593-3.627-6.051-4.316l-5.71-1.6V33.52c2.414-1.813 3.999-4.666 4.096-7.894.338.148.71.233 1.103.233 1.51 0 2.736-1.225 2.736-2.736 0-1.512-1.225-2.737-2.736-2.737-.39 0-.76.083-1.095.23v-.777c0-5.667-4.594-10.26-10.26-10.26-5.668 0-10.262 4.593-10.262 10.26v.776c-.335-.146-.705-.229-1.094-.229-1.511 0-2.736 1.225-2.736 2.737 0 1.51 1.225 2.736 2.736 2.736.392 0 .765-.084 1.102-.233.098 3.228 1.683 6.081 4.097 7.894v4.105l-5.71 1.6c-2.459.688-4.6 2.215-6.051 4.315l-3.973 5.746v4.072h43.78v-4.072l-3.972-5.746z" clip-rule="evenodd"/>
        <path fill="#A3420B" fill-rule="evenodd" d="M24.626 35.571c-1.265 0-2.476-.23-3.595-.65 1.592 1.018 3.482 1.608 5.51 1.608 1.514 0 2.949-.33 4.242-.918v-2.092c-1.715 1.288-3.847 2.052-6.157 2.052z" clip-rule="evenodd"/>
        <path stroke="#00004D" stroke-linecap="round" stroke-linejoin="round" stroke-width=".929" d="M14.722 23.521c.035-.127.054-.26.054-.399 0-.831-.674-1.505-1.505-1.505-.208 0-.406.042-.586.118M34.53 23.521c-.035-.127-.053-.26-.053-.399 0-.831.674-1.505 1.505-1.505.208 0 .405.042.586.118"/>
        <path fill="#fff" fill-rule="evenodd" d="M27.362 29.279c0 1.511-1.225 2.736-2.736 2.736-1.511 0-2.736-1.225-2.736-2.736h5.472z" clip-rule="evenodd"/>
        <path fill="#00004D" fill-rule="evenodd" d="M30.236 23.531c0 .605-.49 1.095-1.095 1.095-.604 0-1.094-.49-1.094-1.095 0-.604.49-1.095 1.094-1.095.605 0 1.095.49 1.095 1.095zM21.206 23.531c0 .605-.49 1.095-1.095 1.095-.604 0-1.094-.49-1.094-1.095 0-.604.49-1.095 1.094-1.095.605 0 1.095.49 1.095 1.095z" clip-rule="evenodd"/>
        <path stroke="#00004D" stroke-linecap="round" stroke-linejoin="round" stroke-width=".929" d="M24.626 22.436l1.368 4.652-1.915.274"/>
        <path fill="#00004D" fill-rule="evenodd" d="M35.981 20.386c.29 0 .568.045.83.129.115-.224.182-.477.182-.746 0-.61-.334-1.142-.829-1.425.731-.427 1.224-1.218 1.224-2.125 0-1.235-.91-2.254-2.094-2.433.188-.335.296-.722.296-1.134 0-1.285-1.041-2.326-2.326-2.326-.478 0-.923.145-1.293.393l.002-.05c0-1.662-1.348-3.01-3.01-3.01-.72 0-1.382.255-1.9.677-.453-.886-1.373-1.495-2.437-1.495-1.064 0-1.983.609-2.436 1.495-.518-.422-1.18-.676-1.9-.676-1.663 0-3.01 1.347-3.01 3.01v.049c-.369-.248-.814-.393-1.292-.393-1.284 0-2.326 1.041-2.326 2.326 0 .412.108.799.297 1.134-1.185.179-2.094 1.198-2.094 2.433 0 .907.492 1.698 1.223 2.125-.495.283-.829.815-.829 1.425 0 .27.067.522.181.746.263-.084.541-.13.83-.13.938 0 1.764.472 2.257 1.19 1.4-.53 2.436-1.803 2.623-3.34.442.237.947.372 1.484.372 1.283 0 2.386-.768 2.876-1.87.552.523 1.296.844 2.116.844.82 0 1.565-.321 2.116-.844.49 1.102 1.593 1.87 2.876 1.87.537 0 1.042-.135 1.485-.372.186 1.537 1.222 2.81 2.622 3.34.494-.718 1.32-1.19 2.256-1.19z" clip-rule="evenodd"/>
        <path fill="#80C43B" fill-rule="evenodd" d="M46.516 49.286l-3.972-5.747c-1.452-2.1-3.593-3.627-6.051-4.315l-5.71-1.6c0 3.4-2.757 6.157-6.157 6.157s-6.156-2.757-6.156-6.157l-5.71 1.6c-2.459.688-4.6 2.215-6.051 4.315l-3.973 5.747v4.071h43.78v-4.071z" clip-rule="evenodd"/>
    </g>
    <path fill="#E0E0E0" fill-rule="evenodd" d="M24.477 185.655c12.535 0 22.697-10.161 22.697-22.697 0-12.535-10.162-22.697-22.697-22.697-12.535 0-22.697 10.162-22.697 22.697 0 12.536 10.162 22.697 22.697 22.697z" clip-rule="evenodd"/>
    <mask id="prefix__c" width="47" height="46" x="1" y="140" maskUnits="userSpaceOnUse">
        <path fill="#fff" fill-rule="evenodd" d="M24.477 185.655c12.535 0 22.697-10.161 22.697-22.697 0-12.535-10.162-22.697-22.697-22.697-12.535 0-22.697 10.162-22.697 22.697 0 12.536 10.162 22.697 22.697 22.697z" clip-rule="evenodd"/>
    </mask>
    <g mask="url(#prefix__c)">
        <path fill="#FFCF83" fill-rule="evenodd" d="M40.991 180.39c-1.338-1.936-3.31-3.343-5.577-3.978l-5.263-1.474v-3.783c2.225-1.671 3.686-4.301 3.776-7.276.311.137.654.215 1.016.215 1.393 0 2.522-1.129 2.522-2.522 0-1.393-1.13-2.522-2.522-2.522-.359 0-.7.076-1.009.211v-.716c0-5.223-4.234-9.457-9.457-9.457-5.223 0-9.457 4.234-9.457 9.457v.716c-.31-.135-.65-.211-1.009-.211-1.393 0-2.522 1.129-2.522 2.522 0 1.393 1.13 2.522 2.522 2.522.362 0 .705-.078 1.016-.215.09 2.975 1.551 5.605 3.776 7.276v3.783l-5.263 1.474c-2.266.635-4.239 2.042-5.577 3.978l-3.661 5.296v3.753h40.35v-3.753l-3.661-5.296z" clip-rule="evenodd"/>
        <path fill="#F7A74F" fill-rule="evenodd" d="M24.477 173.046c-1.166 0-2.282-.213-3.314-.599 1.467.937 3.21 1.481 5.08 1.481 1.394 0 2.716-.304 3.908-.846v-1.928c-1.58 1.188-3.545 1.892-5.674 1.892z" clip-rule="evenodd"/>
        <path stroke="#00004D" stroke-linecap="round" stroke-linejoin="round" stroke-width=".252" d="M15.349 161.939c.032-.118.05-.241.05-.368 0-.766-.622-1.387-1.388-1.387-.191 0-.374.038-.54.109M33.605 161.939c-.032-.118-.049-.241-.049-.368 0-.766.621-1.387 1.387-1.387.192 0 .374.038.54.109"/>
        <path fill="#E9ADA1" fill-rule="evenodd" d="M40.991 180.39c-1.338-1.936-3.31-3.343-5.577-3.978l-5.263-1.474v-3.783c2.225-1.671 3.686-4.301 3.776-7.276.311.137.654.215 1.016.215 1.393 0 2.522-1.129 2.522-2.522 0-1.393-1.13-2.522-2.522-2.522-.359 0-.7.076-1.009.211v-.716c0-5.223-4.234-9.457-9.457-9.457-5.223 0-9.457 4.234-9.457 9.457v.716c-.31-.135-.65-.211-1.009-.211-1.393 0-2.522 1.129-2.522 2.522 0 1.393 1.13 2.522 2.522 2.522.362 0 .705-.078 1.016-.215.09 2.975 1.551 5.605 3.776 7.276v3.783l-5.263 1.474c-2.266.635-4.239 2.042-5.577 3.978l-3.661 5.296v3.753h40.35v-3.753l-3.661-5.296z" clip-rule="evenodd"/>
        <path fill="#DB8B79" fill-rule="evenodd" d="M24.477 173.046c-1.166 0-2.282-.213-3.314-.599 1.467.937 3.21 1.481 5.08 1.481 1.394 0 2.716-.304 3.908-.846v-1.928c-1.58 1.188-3.545 1.892-5.674 1.892z" clip-rule="evenodd"/>
        <path stroke="#00004D" stroke-linecap="round" stroke-linejoin="round" stroke-width=".252" d="M15.349 161.939c.032-.118.05-.241.05-.368 0-.766-.622-1.387-1.388-1.387-.191 0-.374.038-.54.109M33.605 161.939c-.032-.118-.049-.241-.049-.368 0-.766.621-1.387 1.387-1.387.192 0 .374.038.54.109"/>
        <path fill="#fff" fill-rule="evenodd" d="M26.999 167.247c0 1.392-1.13 2.521-2.522 2.521-1.393 0-2.522-1.129-2.522-2.521H27z" clip-rule="evenodd"/>
        <path fill="#E9ADA1" d="M18.929 166.063H30.150999999999996V174.48H18.929z"/>
        <path fill="#AE1328" fill-rule="evenodd" d="M27.346 167.396c0 1.549-1.256 2.805-2.806 2.805s-2.805-1.256-2.805-2.805h5.61z" clip-rule="evenodd"/>
        <path fill="#FB344F" fill-rule="evenodd" d="M26.11 169.721c-.404-.397-.958-.642-1.57-.642-.611 0-1.165.245-1.57.642.448.303.988.48 1.57.48.582 0 1.122-.177 1.57-.48z" clip-rule="evenodd"/>
        <path fill="#00004D" fill-rule="evenodd" d="M29.647 161.949c0 .557-.452 1.008-1.009 1.008-.557 0-1.008-.451-1.008-1.008 0-.557.451-1.009 1.008-1.009.557 0 1.01.452 1.01 1.009zM21.325 161.949c0 .557-.452 1.008-1.009 1.008-.557 0-1.009-.451-1.009-1.008 0-.557.452-1.009 1.009-1.009.557 0 1.009.452 1.009 1.009z" clip-rule="evenodd"/>
        <path stroke="#00004D" stroke-linecap="round" stroke-linejoin="round" stroke-width=".252" d="M24.477 160.94l.973 3.309c.152.516-.19 1.046-.722 1.122l-.756.108"/>
        <path fill="#00004D" fill-rule="evenodd" d="M34.565 159.08v-.536c0-1.935-.546-3.742-1.49-5.278-.876-1.423-2.096-2.61-3.542-3.45-1.487-.863-3.213-1.359-5.056-1.359s-3.569.496-5.056 1.359c-1.446.84-2.666 2.027-3.541 3.45-.945 1.536-1.49 3.343-1.49 5.278v.536c.525.079.998.32 1.365.671 1.162-1.166 2.097-2.557 2.734-4.104 1.781.963 3.82 1.51 5.988 1.51 2.167 0 4.207-.547 5.988-1.51.637 1.547 1.573 2.938 2.734 4.104.367-.351.84-.592 1.366-.671z" clip-rule="evenodd"/>
        <path fill="#FB344F" fill-rule="evenodd" d="M44.652 185.686l-3.661-5.297c-1.338-1.935-3.31-3.342-5.577-3.977l-5.263-1.474c0 3.133-2.54 5.674-5.674 5.674-3.134 0-5.674-2.541-5.674-5.674l-5.263 1.474c-2.266.635-4.239 2.042-5.577 3.977l-3.661 5.297v3.752h40.35v-3.752z" clip-rule="evenodd"/>
        <path fill="#6A7A83" fill-rule="evenodd" d="M44.301 185.317l-3.702-5.345c-1.353-1.953-3.347-3.372-5.638-4.013l-.282-.079-1.14-2.209c-.281-.544-.749-.968-1.318-1.196l-2.581-1.034v3.061l-.001.002-5.704 5.692-.033.001-5.737-5.726v-3.061l-2.581 1.033c-.57.228-1.037.653-1.317 1.197l-1.16 2.246-.263.073c-2.29.641-4.285 2.06-5.638 4.013l-3.702 5.345v3.786H44.3v-3.786z" clip-rule="evenodd"/>
        <path stroke="#00004D" stroke-linecap="round" stroke-linejoin="round" stroke-width=".246" d="M13.107 175.886l10.795 6.235 7.814-4.49"/>
        <path fill="#00004D" fill-rule="evenodd" d="M20.97 187.21c-.211 0-.383-.171-.383-.382v-6.613l.765.432v6.181c0 .211-.17.382-.382.382zM26.835 184.538c-.212 0-.383-.171-.383-.382v-3.501l.765-.44v3.941c0 .211-.171.382-.382.382z" clip-rule="evenodd"/>
        <path stroke="#00004D" stroke-linecap="round" stroke-linejoin="round" stroke-width=".246" d="M17.145 173.454l1.02 1.018"/>
        <path fill="#00004D" fill-rule="evenodd" d="M26.586 169.354l-.923.554c-.733.44-1.638.44-2.372 0l-.923-.554c-.49-.294-.709-.906-.522-1.458l.158-.47c.067-.196.245-.327.446-.327h4.054c.2 0 .38.131.446.327l.159.47c.186.552-.033 1.164-.523 1.458zm5.949-6.109l-.611 2.062c-.334 1.125-1.17 2.016-2.247 2.395l-1.136.4-.455-.927c-.402-.82-1.217-1.337-2.107-1.337h-3.004c-.89 0-1.705.517-2.107 1.337l-.454.927-1.137-.4c-1.078-.379-1.913-1.27-2.247-2.395l-.61-2.062c-.223.253-.495.458-.802.596v4.601c0 5.057 3.966 9.157 8.86 9.157 4.891 0 8.858-4.1 8.858-9.157v-4.601c-.307-.138-.579-.343-.801-.596z" clip-rule="evenodd"/>
    </g>
    <path fill="#F4F4F4" fill-rule="evenodd" d="M12.961 192.483c.92 0 1.666-.746 1.666-1.666 0-.921-.746-1.667-1.666-1.667-.92 0-1.666.746-1.666 1.667 0 .92.746 1.666 1.666 1.666z" clip-rule="evenodd"/>
    <path fill="#F4F4F4" d="M12.735 174.495H13.190999999999999V189.558H12.735z"/>
    <path fill="#F4F4F4" fill-rule="evenodd" d="M36.292 186.894c.92 0 1.666-.746 1.666-1.667 0-.92-.746-1.666-1.666-1.666-.92 0-1.666.746-1.666 1.666 0 .921.746 1.667 1.666 1.667z" clip-rule="evenodd"/>
    <path fill="#F4F4F4" d="M36.107 173.192H36.477V183.931H36.107z"/>
    <path fill="#F4F4F4" fill-rule="evenodd" d="M24.626 149.492c2.045 0 3.703-1.658 3.703-3.703s-1.658-3.703-3.703-3.703-3.703 1.658-3.703 3.703 1.658 3.703 3.703 3.703z" clip-rule="evenodd"/>
    <path fill="#F4F4F4" fill-rule="evenodd" d="M24.626 145.973c10.142 0 13.332 8.851 13.332 15.191v13.677c0 3.61-4.191 3.617-4.191-2.022v-14.712c0-1.125-.691-1.666-1.818-1.666H17.303c-1.127 0-1.818.542-1.818 1.667v14.711c0 5.64-4.19 5.632-4.19 2.022v-13.676c0-6.341 3.19-15.192 13.331-15.192z" clip-rule="evenodd"/>
    <mask id="prefix__d" width="27" height="33" x="11" y="145" maskUnits="userSpaceOnUse">
        <path fill="#fff" fill-rule="evenodd" d="M24.626 145.973c10.142 0 13.332 8.851 13.332 15.191v13.677c0 3.61-4.191 3.617-4.191-2.022v-14.712c0-1.125-.691-1.666-1.818-1.666H17.303c-1.127 0-1.818.542-1.818 1.667v14.711c0 5.64-4.19 5.632-4.19 2.022v-13.676c0-6.341 3.19-15.192 13.331-15.192z" clip-rule="evenodd"/>
    </mask>
    <g mask="url(#prefix__d)">
        <path fill="#65C9FF" d="M10.925 145.603H38.513999999999996V177.45000000000002H10.925z"/>
        <path fill="#000" fill-opacity=".2" d="M11.11 145.974H38.143V154.49099999999999H11.11z"/>
        <path fill="#fff" fill-opacity=".5" fill-rule="evenodd" d="M18.98 151.343l-2.315-3.333h4.629l-2.315 3.333zM24.72 151.343l-2.315-3.333h4.629l-2.314 3.333zM30.46 151.343l-2.315-3.333h4.629l-2.315 3.333z" clip-rule="evenodd"/>
        <path fill="#000" fill-opacity=".5" fill-rule="evenodd" d="M16.016 149.677l2.315 3.333H13.7l2.315-3.333zM21.756 149.677l2.315 3.333h-4.63l2.315-3.333zM27.496 149.677l2.314 3.333h-4.629l2.315-3.333zM33.236 149.677l2.314 3.333h-4.629l2.315-3.333z" clip-rule="evenodd"/>
    </g>
    <path fill="#fff" d="M58.863 138.147h183.651v46.85H58.863v-46.85z"/>
    <path fill="#B4B4B5" d="M71.981 149.391H115.083V158.761H71.981z"/>
    <path fill="#B4B4B5" d="M71.981 149.391H115.083V158.761H71.981z"/>
    <path fill="#B4B4B5" d="M71.981 149.391H115.083V158.761H71.981z"/>
    <path fill="#CCC" d="M71.981 166.257H223.774V175.627H71.981z"/>
</svg>
