<svg width="93" height="93" viewBox="0 0 93 93" fill="none" xmlns="http://www.w3.org/2000/svg">
<rect y="0.910156" width="92.0905" height="92.0905" rx="46.0452" fill="#F5F5F8"/>
<rect y="0.910156" width="92.0905" height="92.0905" rx="46.0452" fill="#F5F5F8"/>
<mask id="mask0" mask-type="alpha" maskUnits="userSpaceOnUse" x="0" y="0" width="93" height="94">
<rect y="0.910156" width="92.0905" height="92.0905" rx="46.0452" fill="white"/>
</mask>
<g mask="url(#mask0)">
</g>
<mask id="mask1" mask-type="alpha" maskUnits="userSpaceOnUse" x="0" y="0" width="93" height="94">
<rect y="0.910156" width="92.0905" height="92.0905" rx="46.0452" fill="white"/>
</mask>
<g mask="url(#mask1)">
<path fill-rule="evenodd" clip-rule="evenodd" d="M79.5466 82.3166C76.8319 78.3898 72.8298 75.5355 68.233 74.2477L57.5564 71.2568V63.5829C62.0698 60.1924 65.0339 54.857 65.216 48.8218C65.8468 49.0999 66.5431 49.2574 67.2773 49.2574C70.1027 49.2574 72.3934 46.9669 72.3934 44.1413C72.3934 41.3157 70.1027 39.0252 67.2773 39.0252C66.549 39.0252 65.8578 39.1794 65.2308 39.4536V38.0019C65.2308 27.4059 56.6411 18.8164 46.0453 18.8164H46.0451C35.4493 18.8164 26.8598 27.4059 26.8598 38.0019V39.4536C26.2326 39.1794 25.5414 39.0252 24.8133 39.0252C21.9877 39.0252 19.6972 41.3157 19.6972 44.1413C19.6972 46.9669 21.9877 49.2574 24.8133 49.2574C25.5473 49.2574 26.2436 49.1001 26.8746 48.8218C27.0565 54.857 30.0206 60.1924 34.5338 63.5829V71.2568L23.8574 74.2477C19.2605 75.5355 15.2584 78.3898 12.5438 82.3166L5.11621 93.0618V100.675H86.9744V93.0618L79.5466 82.3166Z" fill="#B5683C"/>
<path fill-rule="evenodd" clip-rule="evenodd" d="M46.0454 67.4189C43.6797 67.4189 41.4153 66.9881 39.3228 66.2051C42.2988 68.1062 45.833 69.2095 49.6267 69.2095C52.4559 69.2095 55.139 68.5923 57.5567 67.4931V63.582C54.3501 65.9907 50.3647 67.4189 46.0454 67.4189Z" fill="#A3420B"/>
<path d="M27.5272 44.8884C27.5925 44.6508 27.6275 44.4004 27.6275 44.142C27.6275 42.588 26.3677 41.3281 24.8136 41.3281C24.4251 41.3281 24.0549 41.4069 23.7183 41.5491" stroke="#00004D" stroke-width="1.73756" stroke-linecap="round" stroke-linejoin="round"/>
<path d="M64.5634 44.8884C64.4982 44.6508 64.4634 44.4004 64.4634 44.142C64.4634 42.588 65.7232 41.3281 67.2773 41.3281C67.6656 41.3281 68.0357 41.4069 68.3726 41.5491" stroke="#00004D" stroke-width="1.73756" stroke-linecap="round" stroke-linejoin="round"/>
<path fill-rule="evenodd" clip-rule="evenodd" d="M51.161 55.6543C51.161 58.4799 48.8705 60.7704 46.0448 60.7704C43.2192 60.7704 40.9287 58.4799 40.9287 55.6543H51.161Z" fill="white"/>
<path fill-rule="evenodd" clip-rule="evenodd" d="M56.5333 44.9078C56.5333 46.0379 55.617 46.9542 54.4869 46.9542C53.3567 46.9542 52.4404 46.0379 52.4404 44.9078C52.4404 43.7776 53.3567 42.8613 54.4869 42.8613C55.617 42.8613 56.5333 43.7776 56.5333 44.9078Z" fill="#00004D"/>
<path fill-rule="evenodd" clip-rule="evenodd" d="M39.65 44.9078C39.65 46.0379 38.7337 46.9542 37.6036 46.9542C36.4734 46.9542 35.5571 46.0379 35.5571 44.9078C35.5571 43.7776 36.4734 42.8613 37.6036 42.8613C38.7337 42.8613 39.65 43.7776 39.65 44.9078Z" fill="#00004D"/>
<path d="M46.0452 42.8613L48.6033 51.5588L45.022 52.0704" stroke="#00004D" stroke-width="1.73756" stroke-linecap="round" stroke-linejoin="round"/>
<path fill-rule="evenodd" clip-rule="evenodd" d="M67.2772 39.0261C67.818 39.0261 68.3388 39.1115 68.8279 39.2668C69.0433 38.849 69.1689 38.3768 69.1689 37.8734C69.1689 36.7317 68.544 35.7377 67.619 35.2089C68.9858 34.4103 69.9064 32.9315 69.9064 31.2344C69.9064 28.9263 68.2061 27.02 65.991 26.687C66.3428 26.0592 66.5454 25.3363 66.5454 24.5655C66.5454 22.1638 64.5982 20.2168 62.1966 20.2168C61.3018 20.2168 60.4707 20.4877 59.7793 20.951C59.7798 20.9203 59.7816 20.8901 59.7816 20.8592C59.7816 17.7511 57.2619 15.2314 54.1538 15.2314C52.8062 15.2314 51.5696 15.7059 50.6004 16.4961C49.7539 14.8385 48.0341 13.7012 46.0452 13.7012C44.0563 13.7012 42.3366 14.8385 41.4901 16.4961C40.5208 15.7059 39.2843 15.2314 37.9367 15.2314C34.8286 15.2314 32.3089 17.7511 32.3089 20.8592C32.3089 20.8901 32.3107 20.9203 32.3112 20.951C31.6198 20.4877 30.7887 20.2168 29.8938 20.2168C27.4923 20.2168 25.5451 22.1638 25.5451 24.5655C25.5451 25.3363 25.7477 26.0592 26.0995 26.687C23.8844 27.02 22.1841 28.9263 22.1841 31.2344C22.1841 32.9315 23.1047 34.4103 24.4715 35.2089C23.5465 35.7377 22.9216 36.7317 22.9216 37.8734C22.9216 38.3766 23.0467 38.8488 23.261 39.2673C23.7509 39.1115 24.272 39.0261 24.8133 39.0261C26.5648 39.0261 28.1093 39.9073 29.0315 41.2493C31.6507 40.2593 33.5864 37.8777 33.9359 35.0053C34.7629 35.4486 35.7076 35.7006 36.7114 35.7006C39.1106 35.7006 41.1729 34.2637 42.0887 32.2042C43.1201 33.1814 44.5122 33.782 46.0452 33.782C47.5783 33.782 48.9704 33.1814 50.0018 32.2042C50.9176 34.2637 52.9799 35.7006 55.3791 35.7006C56.3829 35.7006 57.3276 35.4486 58.1546 35.0053C58.5041 37.8777 60.4398 40.2593 63.059 41.2493C63.9811 39.9073 65.5257 39.0261 67.2772 39.0261Z" fill="#00004D"/>
<path fill-rule="evenodd" clip-rule="evenodd" d="M86.9739 93.0608L79.5461 82.3157C76.8317 78.389 72.8296 75.5345 68.2325 74.2468L57.5561 71.2559C57.5561 77.6134 52.4024 82.7672 46.0448 82.7672C39.6873 82.7672 34.5335 77.6134 34.5335 71.2559L23.8569 74.2468C19.2601 75.5345 15.258 78.389 12.5433 82.3157L5.11572 93.0608V100.674H86.9739V93.0608Z" fill="#80C43B"/>
</g>
</svg>
