<?xml version="1.0" encoding="UTF-8"?>
<svg width="510px" height="260px" viewBox="0 0 510 260" version="1.1" xmlns="http://www.w3.org/2000/svg" xmlns:xlink="http://www.w3.org/1999/xlink">
    <!-- Generator: Sketch 64 (93537) - https://sketch.com -->
    <title>my-feed</title>
    <desc>Created with Sketch.</desc>
    <defs>
        <path d="M23.477,46.307 C36.012,46.307 46.174,36.145 46.174,23.61 C46.174,11.075 36.012,0.913 23.477,0.913 C10.942,0.913 0.78,11.075 0.78,23.61 C0.78,36.145 10.942,46.307 23.477,46.307 Z" id="path-1"></path>
        <path d="M13.626,0.626 L13.626,0.625 C23.767,0.625 26.957,9.476 26.957,15.816 L26.957,29.493 C26.957,33.103 22.767,33.111 22.767,27.471 L22.767,12.759 C22.767,11.634 22.075,11.093 20.949,11.093 L6.303,11.093 C5.176,11.093 4.485,11.635 4.485,12.76 L4.485,27.472 C4.485,33.112 0.295,33.103 0.295,29.494 L0.295,15.817 C0.295,9.477 3.485,0.626 13.625,0.626 L13.626,0.626 Z" id="path-3"></path>
        <rect id="path-5" x="0" y="0" width="49.252" height="49.252" rx="24.626"></rect>
    </defs>
    <g id="Page-1" stroke="none" stroke-width="1" fill="none" fill-rule="evenodd">
        <g id="my-feed">
            <g id="my-feed-1">
                <rect id="Rectangle" fill="#FFFFFF" fill-rule="nonzero" x="0" y="0" width="322" height="125" rx="2"></rect>
                <path d="M71,15 L156,15 L156,23 L71,23 L71,15 Z M71,29 L110,29 L110,37 L71,37 L71,29 Z" id="Shape" fill="#B4B4B5" fill-rule="nonzero"></path>
                <path d="M37.477,57.307 C50.012,57.307 60.174,47.145 60.174,34.61 C60.174,22.075 50.012,11.913 37.477,11.913 C24.942,11.913 14.78,22.075 14.78,34.61 C14.78,47.145 24.942,57.307 37.477,57.307 Z" id="Path" fill="#1B2A32"></path>
                <g id="Clipped" transform="translate(14.000000, 11.000000)">
                    <mask id="mask-2" fill="white">
                        <use xlink:href="#path-1"></use>
                    </mask>
                    <g id="Path"></g>
                    <g id="Group" mask="url(#mask-2)">
                        <g transform="translate(2.000000, 9.000000)">
                            <path d="M37.99,32.041 C36.653,30.106 34.68,28.699 32.414,28.064 L27.15,26.59 L27.15,22.807 C29.375,21.136 30.836,18.506 30.926,15.531 C31.236,15.668 31.58,15.746 31.942,15.746 C33.335,15.746 34.464,14.616 34.464,13.224 C34.464,11.831 33.334,10.702 31.942,10.702 C31.582,10.702 31.242,10.778 30.933,10.912 L30.933,10.197 C30.933,4.974 26.699,0.74 21.476,0.74 C16.253,0.74 12.019,4.974 12.019,10.197 L12.019,10.913 C11.709,10.778 11.369,10.702 11.01,10.702 C9.617,10.702 8.488,11.831 8.488,13.224 C8.488,14.617 9.618,15.746 11.01,15.746 C11.372,15.746 11.715,15.668 12.026,15.531 C12.116,18.506 13.576,21.136 15.801,22.807 L15.801,26.59 L10.539,28.064 C8.273,28.699 6.3,30.106 4.962,32.041 L1.301,37.338 L1.301,41.091 L41.651,41.091 L41.651,37.338 L37.99,32.041 L37.99,32.041 Z" id="Path" stroke="none" fill="#FFCF83" fill-rule="evenodd"></path>
                            <path d="M21.477,24.697 C20.311,24.697 19.195,24.485 18.163,24.099 C19.63,25.036 21.373,25.579 23.243,25.579 C24.637,25.579 25.959,25.275 27.151,24.733 L27.151,22.806 C25.571,23.993 23.606,24.697 21.477,24.697 Z" id="Path" stroke="none" fill="#F7A74F" fill-rule="evenodd"></path>
                            <path d="M12.349,13.59 C12.381,13.474 12.399,13.35 12.399,13.223 C12.399,12.457 11.777,11.836 11.011,11.836 C10.82,11.836 10.637,11.875 10.471,11.945 M30.605,13.59 C30.573,13.474 30.555,13.35 30.555,13.223 C30.555,12.457 31.177,11.836 31.943,11.836 C32.134,11.836 32.317,11.875 32.483,11.945" id="Shape" stroke="#00004D" stroke-width="0.252" fill="none" stroke-linecap="round" stroke-linejoin="round"></path>
                            <path d="M37.99,32.041 C36.653,30.106 34.68,28.699 32.414,28.064 L27.15,26.59 L27.15,22.807 C29.375,21.136 30.836,18.506 30.926,15.531 C31.236,15.668 31.58,15.746 31.942,15.746 C33.335,15.746 34.464,14.616 34.464,13.224 C34.464,11.831 33.334,10.702 31.942,10.702 C31.582,10.702 31.242,10.778 30.933,10.912 L30.933,10.197 C30.933,4.974 26.699,0.74 21.476,0.74 C16.253,0.74 12.019,4.974 12.019,10.197 L12.019,10.913 C11.709,10.778 11.369,10.702 11.01,10.702 C9.617,10.702 8.488,11.831 8.488,13.224 C8.488,14.617 9.618,15.746 11.01,15.746 C11.372,15.746 11.715,15.668 12.026,15.531 C12.116,18.506 13.576,21.136 15.801,22.807 L15.801,26.59 L10.539,28.064 C8.273,28.699 6.3,30.106 4.962,32.041 L1.301,37.338 L1.301,41.091 L41.651,41.091 L41.651,37.338 L37.99,32.041 L37.99,32.041 Z" id="Path" stroke="none" fill="#E9ADA1" fill-rule="evenodd"></path>
                            <path d="M21.477,24.697 C20.311,24.697 19.195,24.485 18.163,24.099 C19.63,25.036 21.373,25.579 23.243,25.579 C24.637,25.579 25.959,25.275 27.151,24.733 L27.151,22.806 C25.571,23.993 23.606,24.697 21.477,24.697 Z" id="Path" stroke="none" fill="#DB8B79" fill-rule="evenodd"></path>
                            <path d="M12.349,13.59 C12.381,13.474 12.399,13.35 12.399,13.223 C12.399,12.457 11.777,11.836 11.011,11.836 C10.82,11.836 10.637,11.875 10.471,11.945 M30.605,13.59 C30.573,13.474 30.555,13.35 30.555,13.223 C30.555,12.457 31.177,11.836 31.943,11.836 C32.134,11.836 32.317,11.875 32.483,11.945" id="Shape" stroke="#00004D" stroke-width="0.252" fill="none" stroke-linecap="round" stroke-linejoin="round"></path>
                            <path d="M23.999,18.898 C23.999,20.29 22.869,21.419 21.477,21.419 C20.084,21.419 18.955,20.29 18.955,18.898 L24,18.898 L23.999,18.898 Z" id="Path" stroke="none" fill="#FFFFFF" fill-rule="evenodd"></path>
                            <polygon id="Path" stroke="none" fill="#E9ADA1" fill-rule="nonzero" points="15.929 17.715 27.151 17.715 27.151 26.132 15.929 26.132"></polygon>
                            <path d="M24.346,19.047 C24.346,20.597 23.09,21.853 21.54,21.853 C19.99,21.853 18.734,20.596 18.734,19.047 L24.346,19.047 L24.346,19.047 Z" id="Path" stroke="none" fill="#AE1328" fill-rule="evenodd"></path>
                            <path d="M23.11,21.373 C22.705,20.976 22.151,20.731 21.54,20.731 C20.928,20.731 20.375,20.976 19.97,21.373 C20.418,21.676 20.958,21.853 21.54,21.853 C22.122,21.853 22.662,21.676 23.11,21.373 Z" id="Path" stroke="none" fill="#FB344F" fill-rule="evenodd"></path>
                            <path d="M26.647,13.6 C26.647,14.157 26.195,14.608 25.638,14.608 C25.081,14.608 24.629,14.157 24.629,13.6 C24.629,13.042 25.081,12.59 25.639,12.59 C26.195,12.59 26.647,13.042 26.647,13.6 Z M18.325,13.6 C18.325,14.157 17.873,14.608 17.315,14.608 C16.759,14.608 16.307,14.157 16.307,13.6 C16.307,13.042 16.759,12.59 17.316,12.59 C17.873,12.59 18.325,13.042 18.325,13.6 Z" id="Shape" stroke="none" fill="#00004D" fill-rule="evenodd"></path>
                            <path d="M21.477,12.59 L22.45,15.9 C22.602,16.416 22.26,16.946 21.728,17.022 L20.973,17.13" id="Path" stroke="#00004D" stroke-width="0.252" fill="none" stroke-linecap="round" stroke-linejoin="round"></path>
                            <path d="M31.564,10.732 L31.564,10.196 C31.564,8.261 31.019,6.454 30.074,4.918 C29.198,3.495 27.979,2.308 26.533,1.468 C25.046,0.605 23.32,0.108 21.477,0.108 C19.634,0.108 17.907,0.605 16.421,1.468 C14.974,2.308 13.755,3.495 12.88,4.918 C11.935,6.454 11.39,8.261 11.39,10.196 L11.39,10.732 C11.915,10.812 12.388,11.052 12.754,11.403 C13.916,10.237 14.852,8.846 15.488,7.299 C17.27,8.262 19.309,8.809 21.477,8.809 C23.644,8.809 25.684,8.262 27.465,7.299 C28.101,8.846 29.037,10.237 30.199,11.403 C30.566,11.051 31.039,10.811 31.564,10.732 L31.564,10.732 Z" id="Path" stroke="none" fill="#00004D" fill-rule="evenodd"></path>
                            <path d="M41.652,37.338 L37.991,32.042 C36.653,30.106 34.68,28.699 32.414,28.064 L27.15,26.59 C27.15,29.724 24.61,32.264 21.476,32.264 C18.342,32.264 15.802,29.724 15.802,26.59 L10.539,28.064 C8.273,28.699 6.3,30.106 4.962,32.042 L1.301,37.338 L1.301,41.091 L41.651,41.091 L41.651,37.338 L41.652,37.338 Z" id="Path" stroke="none" fill="#FB344F" fill-rule="evenodd"></path>
                            <path d="M41.301,36.969 L37.6,31.624 C36.247,29.671 34.253,28.251 31.962,27.611 L31.68,27.532 L30.54,25.323 C30.259,24.779 29.791,24.355 29.222,24.127 L26.641,23.093 L26.641,26.153 L26.64,26.156 L20.936,31.848 L20.904,31.848 L15.166,26.123 L15.166,23.062 L12.585,24.095 C12.016,24.323 11.548,24.748 11.268,25.291 L10.108,27.537 L9.845,27.611 C7.555,28.251 5.56,29.671 4.207,31.624 L0.505,36.969 L0.505,40.755 L41.3,40.755 L41.3,36.97 L41.301,36.969 Z" id="Path" stroke="none" fill="#6A7A83" fill-rule="evenodd"></path>
                            <polyline id="Path" stroke="#00004D" stroke-width="0.246" fill="none" stroke-linecap="round" stroke-linejoin="round" points="10.107 27.537 20.902 33.773 28.716 29.283"></polyline>
                            <path d="M17.97,38.861 C17.759,38.861 17.587,38.691 17.587,38.48 L17.587,31.867 L18.352,32.299 L18.352,38.479 C18.352,38.691 18.182,38.862 17.97,38.862 L17.97,38.861 Z M23.835,36.19 C23.623,36.19 23.452,36.019 23.452,35.808 L23.452,32.307 L24.217,31.867 L24.217,35.807 C24.217,36.019 24.046,36.19 23.835,36.19 L23.835,36.19 Z" id="Shape" stroke="none" fill="#00004D" fill-rule="evenodd"></path>
                            <line x1="14.145" y1="25.106" x2="15.165" y2="26.124" id="Path" stroke="#00004D" stroke-width="0.246" fill="none" stroke-linecap="round" stroke-linejoin="round"></line>
                            <path d="M23.587,21.006 L22.663,21.559 C21.93,21.999 21.025,21.999 20.292,21.559 L19.368,21.006 C18.878,20.712 18.659,20.1 18.846,19.547 L19.005,19.077 C19.071,18.881 19.25,18.75 19.45,18.75 L23.504,18.75 C23.705,18.75 23.884,18.881 23.95,19.078 L24.109,19.548 C24.295,20.1 24.076,20.712 23.586,21.006 L23.587,21.006 Z M29.535,14.896 L28.924,16.959 C28.59,18.083 27.754,18.974 26.677,19.353 L25.541,19.753 L25.086,18.827 C24.684,18.007 23.869,17.489 22.979,17.489 L19.975,17.489 C19.085,17.489 18.271,18.006 17.868,18.827 L17.414,19.753 L16.277,19.353 C15.2,18.974 14.364,18.083 14.03,16.958 L13.42,14.897 C13.197,15.149 12.925,15.354 12.619,15.493 L12.619,20.093 C12.619,25.151 16.585,29.251 21.477,29.251 C26.37,29.251 30.336,25.151 30.336,20.093 L30.336,15.493 C30.029,15.354 29.757,15.149 29.536,14.897 L29.535,14.896 Z" id="Shape" stroke="none" fill="#00004D" fill-rule="evenodd"></path>
                        </g>
                    </g>
                </g>
                <path d="M25.96,64.137 C26.881,64.137 27.627,63.391 27.627,62.47 C27.627,61.55 26.881,60.804 25.961,60.804 C25.041,60.804 24.294,61.55 24.294,62.47 C24.294,63.39 25.041,64.137 25.961,64.137 L25.96,64.137 Z" id="Path" fill="#F4F4F4"></path>
                <polygon id="Path" fill="#F4F4F4" fill-rule="nonzero" points="25.735 46.148 26.191 46.148 26.191 61.211 25.735 61.211"></polygon>
                <path d="M49.292,58.547 C50.212,58.547 50.958,57.801 50.958,56.88 C50.958,55.96 50.212,55.214 49.292,55.214 C48.372,55.214 47.626,55.96 47.626,56.88 C47.626,57.8 48.372,58.547 49.292,58.547 Z" id="Path" fill="#F4F4F4"></path>
                <polygon id="Path" fill="#F4F4F4" fill-rule="nonzero" points="49.107 44.845 49.477 44.845 49.477 55.584 49.107 55.584"></polygon>
                <path d="M37.626,21.145 C39.671,21.145 41.329,19.487 41.329,17.442 C41.329,15.396 39.671,13.738 37.626,13.738 C35.581,13.738 33.923,15.396 33.923,17.442 C33.923,19.487 35.581,21.145 37.626,21.145 Z" id="Path" fill="#F4F4F4"></path>
                <path d="M37.626,17.626 L37.626,17.625 C47.767,17.625 50.957,26.476 50.957,32.816 L50.957,46.493 C50.957,50.103 46.767,50.111 46.767,44.471 L46.767,29.759 C46.767,28.634 46.075,28.093 44.949,28.093 L30.303,28.093 C29.176,28.093 28.485,28.635 28.485,29.76 L28.485,44.472 C28.485,50.112 24.295,50.103 24.295,46.494 L24.295,32.817 C24.295,26.477 27.485,17.626 37.625,17.626 L37.626,17.626 Z" id="Path" fill="#F4F4F4"></path>
                <g id="Clipped" transform="translate(24.000000, 17.000000)">
                    <mask id="mask-4" fill="white">
                        <use xlink:href="#path-3"></use>
                    </mask>
                    <g id="Path"></g>
                    <g id="Group" mask="url(#mask-4)">
                        <g transform="translate(-1.000000, 0.000000)">
                            <polygon id="Path" fill="#65C9FF" fill-rule="nonzero" points="0.924 0.256 28.513 0.256 28.513 32.103 0.924 32.103"></polygon>
                            <polygon id="Path" fill-opacity="0.2" fill="#000000" fill-rule="nonzero" points="1.109 0.626 28.142 0.626 28.142 9.143 1.109 9.143"></polygon>
                            <path d="M8.979,5.995 L6.665,2.662 L11.294,2.662 L8.979,5.995 L8.979,5.995 Z M14.72,5.995 L12.405,2.662 L17.034,2.662 L14.719,5.995 L14.72,5.995 Z M20.459,5.995 L18.144,2.662 L22.774,2.662 L20.459,5.995 L20.459,5.995 Z" id="Shape" fill-opacity="0.5" fill="#FFFFFF" fill-rule="evenodd"></path>
                            <path d="M6.016,4.33 L8.331,7.663 L3.7,7.663 L6.015,4.33 L6.016,4.33 Z M11.756,4.33 L14.071,7.663 L9.441,7.663 L11.756,4.33 L11.756,4.33 Z M17.496,4.33 L19.81,7.663 L15.181,7.663 L17.496,4.33 Z M23.236,4.33 L25.55,7.663 L20.921,7.663 L23.236,4.33 Z" id="Shape" fill-opacity="0.5" fill="#000000" fill-rule="evenodd"></path>
                        </g>
                    </g>
                </g>
                <rect id="Rectangle" fill="#C4C4C4" fill-rule="nonzero" x="15" y="69.691" width="296" height="45.616" rx="5.068"></rect>
                <path d="M346,45 C346,42.79 347.791,41 350,41 L506,41 C508.209,41 510,42.79 510,45 L510,80 C510,82.21 508.209,84 506,84 L350,84 C347.791,84 346,82.21 346,80 L346,64.891 C346,63.419 345.191,62.065 343.894,61.368 L336,57.125 L343.894,52.882 C345.191,52.185 346,50.832 346,49.359 L346,45 Z" id="Path" fill="#484848" fill-rule="nonzero"></path>
                <path d="M372.537,69 C372.895,69 373.19,68.871 373.425,68.613 C373.659,68.356 373.776,68.013 373.776,67.585 L373.768,57.776 C373.768,57.313 373.656,56.956 373.434,56.704 C373.217,56.452 372.936,56.326 372.59,56.326 C372.355,56.332 372.118,56.408 371.878,56.555 L368.767,58.392 C368.462,58.579 368.31,58.832 368.31,59.147 C368.31,59.387 368.392,59.599 368.556,59.78 C368.72,59.962 368.919,60.053 369.153,60.053 C369.323,60.053 369.473,60.009 369.602,59.921 L371.307,58.875 L371.315,67.532 C371.315,68.001 371.43,68.364 371.658,68.622 C371.887,68.874 372.18,69 372.537,69 L372.537,69 Z M382.794,67.269 C382.478,67.269 382.193,67.21 381.941,67.093 C381.695,66.976 381.49,66.806 381.326,66.583 C381.168,66.355 381.033,66.103 380.922,65.827 C380.816,65.552 380.734,65.227 380.676,64.852 C380.623,64.477 380.585,64.116 380.562,63.77 C380.544,63.425 380.535,63.035 380.535,62.602 C380.535,62.168 380.544,61.782 380.562,61.442 C380.585,61.096 380.623,60.738 380.676,60.369 C380.734,60 380.816,59.681 380.922,59.411 C381.033,59.141 381.168,58.895 381.326,58.673 C381.49,58.45 381.695,58.283 381.941,58.172 C382.193,58.055 382.478,57.996 382.794,57.996 C383.11,57.996 383.392,58.055 383.638,58.172 C383.89,58.283 384.095,58.45 384.253,58.672 C384.417,58.896 384.552,59.142 384.657,59.412 C384.769,59.681 384.851,60 384.903,60.369 C384.962,60.739 385,61.096 385.018,61.441 C385.041,61.787 385.053,62.174 385.053,62.601 C385.053,63.035 385.041,63.428 385.018,63.779 C385,64.125 384.962,64.485 384.903,64.86 C384.851,65.23 384.769,65.552 384.657,65.827 C384.546,66.103 384.408,66.355 384.244,66.583 C384.086,66.806 383.884,66.976 383.638,67.093 C383.392,67.21 383.11,67.269 382.794,67.269 L382.794,67.269 Z M382.794,69.229 C383.497,69.229 384.124,69.109 384.675,68.869 C385.226,68.622 385.677,68.297 386.028,67.893 C386.386,67.483 386.679,66.99 386.907,66.416 C387.142,65.836 387.306,65.236 387.399,64.614 C387.493,63.987 387.54,63.316 387.54,62.602 C387.54,61.881 387.49,61.21 387.391,60.589 C387.297,59.968 387.133,59.376 386.898,58.813 C386.67,58.245 386.377,57.762 386.02,57.363 C385.668,56.959 385.217,56.64 384.666,56.405 C384.115,56.165 383.491,56.045 382.794,56.045 C382.085,56.045 381.452,56.165 380.896,56.405 C380.345,56.645 379.894,56.968 379.542,57.372 C379.19,57.77 378.897,58.257 378.663,58.832 C378.435,59.399 378.273,59.992 378.18,60.606 C378.086,61.222 378.039,61.886 378.039,62.602 C378.039,63.322 378.086,63.996 378.18,64.623 C378.273,65.244 378.435,65.845 378.663,66.425 C378.897,66.999 379.19,67.488 379.542,67.893 C379.899,68.297 380.354,68.623 380.904,68.868 C381.461,69.108 382.091,69.228 382.794,69.228 L382.794,69.229 Z M389.535,71.777 L390.353,71.777 C390.47,71.777 390.563,71.748 390.634,71.689 C390.704,71.631 390.766,71.534 390.818,71.399 L392.339,67.075 C392.356,67.005 392.365,66.952 392.365,66.917 C392.365,66.712 392.257,66.601 392.04,66.583 L390.704,66.583 C390.329,66.595 390.115,66.759 390.062,67.075 L389.324,71.399 C389.318,71.417 389.315,71.452 389.315,71.505 C389.315,71.681 389.389,71.772 389.535,71.777 L389.535,71.777 Z M399.212,67.269 C398.896,67.269 398.611,67.21 398.359,67.093 C398.113,66.976 397.908,66.806 397.744,66.583 C397.586,66.355 397.451,66.103 397.34,65.827 C397.234,65.552 397.152,65.227 397.094,64.852 C397.041,64.477 397.003,64.116 396.979,63.77 C396.962,63.425 396.953,63.035 396.953,62.602 C396.953,62.168 396.962,61.782 396.979,61.442 C397.003,61.096 397.041,60.738 397.094,60.369 C397.152,60 397.234,59.681 397.34,59.411 C397.451,59.141 397.586,58.895 397.744,58.673 C397.908,58.45 398.113,58.283 398.359,58.172 C398.611,58.055 398.896,57.996 399.212,57.996 C399.528,57.996 399.81,58.055 400.056,58.172 C400.308,58.283 400.513,58.45 400.671,58.672 C400.835,58.896 400.97,59.142 401.075,59.412 C401.187,59.681 401.269,60 401.321,60.369 C401.38,60.739 401.418,61.096 401.436,61.441 C401.459,61.787 401.471,62.174 401.471,62.601 C401.471,63.035 401.459,63.428 401.436,63.779 C401.418,64.125 401.38,64.485 401.321,64.86 C401.269,65.23 401.187,65.552 401.075,65.827 C400.964,66.103 400.826,66.355 400.662,66.583 C400.504,66.806 400.302,66.976 400.056,67.093 C399.81,67.21 399.528,67.269 399.212,67.269 L399.212,67.269 Z M399.212,69.229 C399.915,69.229 400.542,69.109 401.093,68.869 C401.644,68.622 402.095,68.297 402.446,67.893 C402.804,67.483 403.097,66.99 403.325,66.416 C403.56,65.836 403.724,65.236 403.817,64.614 C403.911,63.987 403.958,63.316 403.958,62.602 C403.958,61.881 403.908,61.21 403.809,60.589 C403.715,59.968 403.551,59.376 403.316,58.813 C403.088,58.245 402.795,57.762 402.438,57.363 C402.086,56.959 401.635,56.64 401.084,56.405 C400.533,56.165 399.909,56.045 399.212,56.045 C398.503,56.045 397.87,56.165 397.313,56.405 C396.763,56.645 396.312,56.968 395.96,57.372 C395.608,57.77 395.315,58.257 395.081,58.832 C394.853,59.399 394.691,59.992 394.598,60.606 C394.504,61.222 394.457,61.886 394.457,62.602 C394.457,63.322 394.504,63.996 394.598,64.623 C394.691,65.244 394.853,65.845 395.081,66.425 C395.315,66.999 395.608,67.488 395.96,67.893 C396.317,68.297 396.771,68.623 397.322,68.868 C397.879,69.108 398.509,69.228 399.212,69.228 L399.212,69.229 Z M410.146,67.269 C409.829,67.269 409.545,67.21 409.293,67.093 C409.047,66.976 408.842,66.806 408.678,66.583 C408.52,66.355 408.385,66.103 408.273,65.827 C408.168,65.552 408.086,65.227 408.027,64.852 C407.975,64.477 407.937,64.116 407.913,63.77 C407.896,63.425 407.887,63.035 407.887,62.602 C407.887,62.168 407.896,61.782 407.913,61.442 C407.937,61.096 407.975,60.738 408.027,60.369 C408.086,60 408.168,59.681 408.273,59.411 C408.385,59.141 408.52,58.895 408.678,58.673 C408.842,58.45 409.047,58.283 409.293,58.172 C409.545,58.055 409.829,57.996 410.146,57.996 C410.462,57.996 410.743,58.055 410.989,58.172 C411.241,58.283 411.446,58.45 411.604,58.672 C411.769,58.896 411.903,59.142 412.009,59.412 C412.12,59.681 412.202,60 412.255,60.369 C412.313,60.739 412.352,61.096 412.369,61.441 C412.393,61.787 412.404,62.174 412.404,62.601 C412.404,63.035 412.393,63.428 412.369,63.779 C412.352,64.125 412.313,64.485 412.255,64.86 C412.202,65.23 412.12,65.552 412.009,65.827 C411.897,66.103 411.76,66.355 411.596,66.583 C411.438,66.806 411.235,66.976 410.989,67.093 C410.743,67.21 410.462,67.269 410.146,67.269 L410.146,67.269 Z M410.146,69.229 C410.849,69.229 411.476,69.109 412.026,68.869 C412.577,68.622 413.028,68.297 413.38,67.893 C413.737,67.483 414.03,66.99 414.259,66.416 C414.493,65.836 414.657,65.236 414.751,64.614 C414.845,63.987 414.892,63.316 414.892,62.602 C414.892,61.881 414.842,61.21 414.742,60.589 C414.648,59.968 414.484,59.376 414.25,58.813 C414.021,58.245 413.729,57.762 413.371,57.363 C413.02,56.959 412.568,56.64 412.018,56.405 C411.467,56.165 410.843,56.045 410.146,56.045 C409.437,56.045 408.804,56.165 408.247,56.405 C407.696,56.645 407.245,56.968 406.894,57.372 C406.542,57.77 406.249,58.257 406.015,58.832 C405.786,59.399 405.625,59.992 405.531,60.606 C405.438,61.222 405.391,61.886 405.391,62.602 C405.391,63.322 405.438,63.996 405.531,64.623 C405.625,65.244 405.786,65.845 406.015,66.425 C406.249,66.999 406.542,67.488 406.894,67.893 C407.251,68.297 407.705,68.623 408.256,68.868 C408.812,69.108 409.442,69.228 410.146,69.228 L410.146,69.229 Z M421.079,67.269 C420.763,67.269 420.479,67.21 420.227,67.093 C419.98,66.976 419.775,66.806 419.611,66.583 C419.453,66.355 419.318,66.103 419.207,65.827 C419.102,65.552 419.02,65.227 418.961,64.852 C418.908,64.477 418.87,64.116 418.847,63.77 C418.829,63.425 418.82,63.035 418.82,62.602 C418.82,62.168 418.829,61.782 418.847,61.442 C418.87,61.096 418.908,60.738 418.961,60.369 C419.02,60 419.102,59.681 419.207,59.411 C419.318,59.141 419.453,58.895 419.611,58.673 C419.775,58.45 419.98,58.283 420.227,58.172 C420.479,58.055 420.763,57.996 421.079,57.996 C421.396,57.996 421.677,58.055 421.923,58.172 C422.175,58.283 422.38,58.45 422.538,58.672 C422.702,58.896 422.837,59.142 422.942,59.412 C423.054,59.681 423.136,60 423.188,60.369 C423.247,60.739 423.285,61.096 423.303,61.441 C423.326,61.787 423.338,62.174 423.338,62.601 C423.338,63.035 423.326,63.428 423.303,63.779 C423.285,64.125 423.247,64.485 423.188,64.86 C423.136,65.23 423.054,65.552 422.942,65.827 C422.831,66.103 422.693,66.355 422.529,66.583 C422.371,66.806 422.169,66.976 421.923,67.093 C421.677,67.21 421.396,67.269 421.079,67.269 L421.079,67.269 Z M421.079,69.229 C421.782,69.229 422.409,69.109 422.96,68.869 C423.511,68.622 423.962,68.297 424.313,67.893 C424.671,67.483 424.964,66.99 425.192,66.416 C425.427,65.836 425.591,65.236 425.685,64.614 C425.778,63.987 425.825,63.316 425.825,62.602 C425.825,61.881 425.775,61.21 425.676,60.589 C425.582,59.968 425.418,59.376 425.184,58.813 C424.955,58.245 424.662,57.762 424.305,57.363 C423.953,56.959 423.502,56.64 422.951,56.405 C422.4,56.165 421.776,56.045 421.079,56.045 C420.37,56.045 419.737,56.165 419.181,56.405 C418.63,56.645 418.179,56.968 417.827,57.372 C417.476,57.77 417.183,58.257 416.948,58.832 C416.72,59.399 416.559,59.992 416.465,60.606 C416.371,61.222 416.324,61.886 416.324,62.602 C416.324,63.322 416.371,63.996 416.465,64.623 C416.559,65.244 416.72,65.845 416.948,66.425 C417.183,66.999 417.476,67.488 417.827,67.893 C418.185,68.297 418.639,68.623 419.189,68.868 C419.746,69.108 420.376,69.228 421.079,69.228 L421.079,69.229 Z M434.315,69.009 C434.661,69.009 434.957,68.889 435.203,68.649 C435.455,68.409 435.581,68.092 435.581,67.699 L435.581,63.964 L438.033,63.964 C441.238,63.964 442.841,62.687 442.841,60.132 C442.841,59.435 442.732,58.837 442.516,58.339 C442.299,57.835 441.979,57.439 441.558,57.152 C441.142,56.859 440.658,56.648 440.107,56.519 C439.562,56.385 438.927,56.317 438.2,56.317 L434.421,56.317 C433.987,56.317 433.65,56.464 433.41,56.757 C433.17,57.05 433.05,57.419 433.05,57.864 L433.05,67.7 C433.05,68.093 433.176,68.41 433.428,68.65 C433.68,68.89 433.976,69.01 434.315,69.01 L434.315,69.009 Z M435.581,62.136 L435.581,58.242 L437.928,58.242 C438.338,58.242 438.678,58.266 438.947,58.312 C439.223,58.359 439.472,58.447 439.694,58.576 C439.923,58.706 440.09,58.898 440.195,59.156 C440.301,59.414 440.354,59.739 440.354,60.132 C440.354,60.536 440.301,60.87 440.195,61.134 C440.09,61.398 439.923,61.602 439.694,61.749 C439.472,61.889 439.217,61.989 438.93,62.048 C438.648,62.106 438.294,62.136 437.866,62.136 L435.581,62.136 L435.581,62.136 Z M448.466,67.603 C447.71,67.603 447.121,67.339 446.699,66.812 C446.277,66.284 446.066,65.546 446.066,64.597 C446.066,63.636 446.274,62.892 446.69,62.364 C447.112,61.831 447.704,61.564 448.466,61.564 C449.228,61.564 449.819,61.831 450.241,62.364 C450.663,62.898 450.874,63.642 450.874,64.597 C450.874,65.546 450.663,66.284 450.241,66.812 C449.819,67.339 449.228,67.602 448.466,67.602 L448.466,67.603 Z M448.466,69.106 C449.087,69.106 449.655,69.021 450.171,68.851 C450.687,68.681 451.12,68.455 451.472,68.174 C451.829,67.887 452.128,67.55 452.368,67.164 C452.614,66.77 452.793,66.36 452.904,65.933 C453.021,65.505 453.08,65.06 453.08,64.597 C453.08,64.11 453.019,63.645 452.896,63.199 C452.778,62.754 452.594,62.341 452.342,61.96 C452.09,61.573 451.785,61.242 451.428,60.967 C451.07,60.685 450.637,60.466 450.127,60.307 C449.623,60.144 449.069,60.062 448.466,60.062 C447.851,60.062 447.285,60.147 446.77,60.316 C446.26,60.48 445.826,60.706 445.469,60.993 C445.117,61.28 444.818,61.617 444.572,62.003 C444.326,62.391 444.145,62.803 444.027,63.243 C443.916,63.677 443.86,64.128 443.86,64.597 C443.86,65.189 443.954,65.748 444.142,66.275 C444.329,66.803 444.602,67.28 444.959,67.708 C445.322,68.136 445.806,68.476 446.409,68.728 C447.013,68.98 447.698,69.106 448.466,69.106 Z M456.104,69 C456.426,69 456.689,68.892 456.895,68.675 C457.105,68.458 457.211,68.156 457.211,67.769 L457.211,61.424 C457.211,61.031 457.105,60.727 456.895,60.51 C456.689,60.293 456.426,60.185 456.104,60.185 C455.781,60.185 455.518,60.293 455.312,60.51 C455.107,60.727 455.005,61.031 455.005,61.424 L455.005,67.769 C455.005,68.162 455.107,68.467 455.312,68.684 C455.518,68.894 455.781,69 456.104,69 Z M456.104,58.427 C456.484,58.427 456.792,58.315 457.026,58.093 C457.267,57.864 457.387,57.568 457.387,57.205 C457.387,56.842 457.27,56.549 457.035,56.326 C456.801,56.103 456.493,55.992 456.112,55.992 C455.726,55.992 455.412,56.103 455.172,56.326 C454.938,56.549 454.82,56.842 454.82,57.206 C454.82,57.568 454.938,57.864 455.172,58.093 C455.412,58.315 455.723,58.427 456.104,58.427 L456.104,58.427 Z M460.551,69 C460.873,69 461.137,68.894 461.342,68.684 C461.553,68.467 461.658,68.168 461.658,67.787 L461.658,64.07 C461.658,63.326 461.872,62.723 462.3,62.26 C462.728,61.797 463.234,61.566 463.82,61.566 C464.307,61.566 464.705,61.726 465.016,62.049 C465.332,62.365 465.49,62.825 465.49,63.429 L465.49,67.789 C465.49,68.169 465.593,68.468 465.798,68.685 C466.003,68.895 466.261,69.001 466.571,69.001 C466.899,69.001 467.169,68.895 467.38,68.685 C467.591,68.468 467.696,68.169 467.696,67.788 L467.696,63.438 C467.696,62.875 467.611,62.374 467.441,61.935 C467.271,61.495 467.04,61.144 466.747,60.88 C466.454,60.61 466.12,60.408 465.745,60.274 C465.376,60.133 464.98,60.062 464.559,60.062 C463.873,60.062 463.281,60.192 462.783,60.449 C462.291,60.707 461.916,61.085 461.658,61.583 L461.658,61.275 C461.658,60.93 461.556,60.663 461.351,60.475 C461.146,60.282 460.885,60.185 460.568,60.185 C460.246,60.185 459.979,60.282 459.769,60.475 C459.558,60.669 459.452,60.941 459.452,61.293 L459.452,67.788 C459.452,68.169 459.555,68.468 459.76,68.685 C459.965,68.895 460.229,69.001 460.551,69.001 L460.551,69 Z M473.163,69.08 L473.356,69.08 C473.567,69.08 473.737,69.076 473.866,69.07 C473.995,69.065 474.147,69.053 474.323,69.035 C474.505,69.023 474.648,68.997 474.754,68.956 C474.859,68.915 474.962,68.862 475.062,68.798 C475.167,68.733 475.243,68.648 475.29,68.543 C475.337,68.437 475.36,68.314 475.36,68.173 C475.36,67.951 475.29,67.758 475.149,67.593 C475.009,67.43 474.818,67.348 474.578,67.348 L474.517,67.348 L473.893,67.383 L473.796,67.383 C473.438,67.383 473.189,67.245 473.049,66.97 C472.908,66.694 472.838,66.275 472.838,65.713 L472.838,61.713 L474.244,61.713 C474.496,61.713 474.687,61.649 474.815,61.52 C474.944,61.392 475.009,61.216 475.009,60.993 C475.009,60.765 474.944,60.583 474.815,60.448 C474.687,60.308 474.499,60.238 474.253,60.238 L472.838,60.238 L472.838,57.996 C472.838,57.656 472.765,57.401 472.618,57.231 C472.478,57.061 472.278,56.977 472.021,56.977 C471.698,56.977 471.443,57.079 471.256,57.284 C471.074,57.484 470.966,57.741 470.931,58.058 L470.667,60.238 L469.744,60.238 C469.492,60.238 469.302,60.305 469.173,60.44 C469.044,60.568 468.979,60.741 468.979,60.958 C468.979,61.187 469.047,61.371 469.182,61.512 C469.322,61.647 469.519,61.714 469.771,61.714 L470.623,61.714 L470.623,66.258 C470.623,67.166 470.846,67.863 471.291,68.35 C471.742,68.83 472.366,69.073 473.163,69.08 L473.163,69.08 Z M476.872,68.112 C477.804,68.792 478.952,69.132 480.317,69.132 C481.372,69.132 482.228,68.894 482.884,68.42 C483.546,67.945 483.877,67.26 483.877,66.363 C483.877,65.648 483.657,65.089 483.218,64.685 C482.784,64.28 482.096,63.961 481.152,63.727 L479.799,63.384 C479.312,63.273 478.981,63.152 478.806,63.024 C478.636,62.889 478.551,62.684 478.551,62.408 C478.551,62.098 478.709,61.869 479.025,61.723 C479.342,61.57 479.726,61.494 480.177,61.494 C480.312,61.494 480.443,61.5 480.572,61.512 C480.707,61.523 480.842,61.544 480.977,61.573 C481.111,61.597 481.226,61.62 481.319,61.643 C481.419,61.661 481.536,61.693 481.671,61.74 C481.806,61.781 481.896,61.81 481.943,61.828 C481.996,61.84 482.084,61.869 482.207,61.916 C482.33,61.963 482.395,61.986 482.4,61.986 C482.529,62.033 482.644,62.056 482.743,62.056 C482.942,62.056 483.101,61.992 483.218,61.863 C483.341,61.728 483.402,61.567 483.402,61.38 C483.402,61.063 483.244,60.83 482.928,60.677 C482.02,60.237 481.059,60.017 480.045,60.017 C478.996,60.017 478.149,60.234 477.505,60.668 C476.86,61.096 476.538,61.711 476.538,62.514 C476.538,62.848 476.582,63.141 476.67,63.393 C476.758,63.639 476.872,63.847 477.013,64.017 C477.153,64.181 477.355,64.333 477.619,64.474 C477.883,64.608 478.144,64.72 478.401,64.808 C478.659,64.895 478.996,64.995 479.412,65.106 L480.783,65.458 C481.598,65.658 482.005,66.006 482.005,66.504 C482.005,66.785 481.908,67.017 481.715,67.198 C481.527,67.374 481.299,67.498 481.029,67.568 C480.766,67.632 480.464,67.664 480.124,67.664 C479.778,67.664 479.433,67.617 479.087,67.524 C478.741,67.424 478.489,67.336 478.331,67.26 C478.179,67.184 477.974,67.072 477.716,66.926 C477.558,66.838 477.405,66.794 477.259,66.794 C477.054,66.794 476.884,66.867 476.749,67.014 C476.62,67.16 476.556,67.33 476.556,67.524 C476.556,67.764 476.661,67.96 476.872,68.112 L476.872,68.112 Z" id="Shape" fill="#E9ECEF" fill-rule="nonzero"></path>
            </g>
            <g id="my-feed-2" transform="translate(0.000000, 135.000000)">
                <rect id="Rectangle" fill="#FFFFFF" fill-rule="nonzero" x="0" y="0" width="322" height="125" rx="2"></rect>
                <rect id="Rectangle" fill="#1B2A32" fill-rule="nonzero" x="13" y="10" width="49.252" height="49.252" rx="24.626"></rect>
                <rect id="Rectangle" fill="#1B2A32" fill-rule="nonzero" x="13" y="10" width="49.252" height="49.252" rx="24.626"></rect>
                <g id="Clipped" transform="translate(13.000000, 10.000000)">
                    <mask id="mask-6" fill="white">
                        <use xlink:href="#path-5"></use>
                    </mask>
                    <g id="Rectangle"></g>
                    <g id="Group" mask="url(#mask-6)">
                        <g transform="translate(2.000000, 6.000000)">
                            <path d="M40.544,37.539 C39.092,35.439 36.951,33.912 34.493,33.223 L28.783,31.623 L28.783,27.52 C31.197,25.707 32.782,22.854 32.879,19.626 C33.217,19.774 33.589,19.859 33.982,19.859 C35.492,19.859 36.718,18.634 36.718,17.123 C36.718,15.611 35.493,14.386 33.982,14.386 C33.592,14.386 33.222,14.469 32.887,14.616 L32.887,13.839 C32.887,8.172 28.293,3.579 22.627,3.579 C16.959,3.579 12.365,8.172 12.365,13.839 L12.365,14.615 C12.03,14.469 11.66,14.386 11.271,14.386 C9.76,14.386 8.535,15.611 8.535,17.123 C8.535,18.633 9.76,19.859 11.271,19.859 C11.663,19.859 12.036,19.775 12.373,19.626 C12.471,22.854 14.056,25.707 16.47,27.52 L16.47,31.625 L10.76,33.225 C8.301,33.913 6.16,35.44 4.709,37.54 L0.736,43.286 L0.736,47.358 L44.516,47.358 L44.516,43.286 L40.544,37.54 L40.544,37.539 Z" id="Path" stroke="none" fill="#B5683C" fill-rule="evenodd"></path>
                            <path d="M22.626,29.572 C21.361,29.572 20.15,29.342 19.031,28.922 C20.622,29.939 22.513,30.529 24.541,30.529 C26.055,30.529 27.49,30.199 28.783,29.611 L28.783,27.52 C27.068,28.808 24.936,29.572 22.626,29.572 L22.626,29.572 Z" id="Path" stroke="none" fill="#A3420B" fill-rule="evenodd"></path>
                            <path d="M12.722,17.521 C12.757,17.394 12.776,17.261 12.776,17.122 C12.776,16.291 12.102,15.617 11.271,15.617 C11.063,15.617 10.865,15.659 10.685,15.735 M32.53,17.521 C32.496,17.394 32.477,17.261 32.477,17.122 C32.477,16.291 33.151,15.617 33.982,15.617 C34.19,15.617 34.388,15.659 34.568,15.735" id="Shape" stroke="#00004D" stroke-width="0.929" fill="none" stroke-linecap="round" stroke-linejoin="round"></path>
                            <path d="M25.363,23.278 C25.363,24.789 24.138,26.015 22.626,26.015 C21.116,26.015 19.89,24.789 19.89,23.278 L25.363,23.278 Z" id="Path" stroke="none" fill="#FFFFFF" fill-rule="evenodd"></path>
                            <path d="M28.236,17.532 C28.236,18.136 27.746,18.627 27.141,18.627 C26.537,18.627 26.047,18.137 26.047,17.532 C26.047,16.928 26.537,16.438 27.141,16.438 C27.746,16.438 28.236,16.928 28.236,17.532 Z M19.206,17.532 C19.206,18.136 18.716,18.627 18.112,18.627 C17.507,18.627 17.017,18.137 17.017,17.532 C17.017,16.928 17.507,16.438 18.112,16.438 C18.716,16.438 19.206,16.928 19.206,17.532 Z" id="Shape" stroke="none" fill="#00004D" fill-rule="evenodd"></path>
                            <polyline id="Path" stroke="#00004D" stroke-width="0.929" fill="none" stroke-linecap="round" stroke-linejoin="round" points="22.626 16.438 23.994 21.089 22.079 21.363"></polyline>
                            <path d="M33.982,14.385 C34.271,14.385 34.55,14.431 34.812,14.514 C34.926,14.291 34.993,14.038 34.993,13.769 C34.993,13.159 34.659,12.627 34.164,12.344 C34.895,11.917 35.388,11.126 35.388,10.218 C35.388,8.984 34.478,7.964 33.294,7.786 C33.482,7.45 33.59,7.064 33.59,6.651 C33.59,5.367 32.549,4.326 31.264,4.326 C30.786,4.326 30.341,4.47 29.972,4.718 L29.972,4.669 C29.972,3.007 28.625,1.659 26.963,1.659 C26.243,1.659 25.581,1.913 25.063,2.336 C24.61,1.449 23.69,0.841 22.626,0.841 C21.563,0.841 20.643,1.449 20.19,2.336 C19.672,1.913 19.01,1.659 18.29,1.659 C16.627,1.659 15.28,3.007 15.28,4.669 L15.281,4.719 C14.911,4.47 14.467,4.326 13.988,4.326 C12.704,4.326 11.662,5.366 11.662,6.651 C11.662,7.064 11.771,7.451 11.959,7.786 C10.774,7.964 9.865,8.984 9.865,10.218 C9.865,11.126 10.357,11.917 11.088,12.344 C10.593,12.626 10.259,13.158 10.259,13.769 C10.259,14.038 10.326,14.29 10.441,14.514 C10.703,14.431 10.981,14.385 11.271,14.385 C12.208,14.385 13.034,14.856 13.527,15.575 C14.927,15.045 15.963,13.771 16.15,12.235 C16.592,12.472 17.097,12.607 17.634,12.607 C18.917,12.607 20.02,11.838 20.51,10.737 C21.062,11.259 21.806,11.581 22.626,11.581 C23.446,11.581 24.191,11.259 24.742,10.737 C25.232,11.838 26.335,12.607 27.618,12.607 C28.155,12.607 28.66,12.472 29.103,12.235 C29.29,13.771 30.325,15.045 31.726,15.575 C32.219,14.857 33.045,14.385 33.982,14.385 L33.982,14.385 Z" id="Path" stroke="none" fill="#00004D" fill-rule="evenodd"></path>
                            <path d="M44.516,43.286 L40.544,37.539 C39.092,35.439 36.952,33.912 34.493,33.224 L28.783,31.624 C28.783,35.024 26.026,37.781 22.626,37.781 C19.226,37.781 16.47,35.024 16.47,31.624 L10.76,33.224 C8.301,33.912 6.16,35.439 4.709,37.539 L0.736,43.286 L0.736,47.357 L44.516,47.357 L44.516,43.286 L44.516,43.286 Z" id="Path" stroke="none" fill="#80C43B" fill-rule="evenodd"></path>
                        </g>
                    </g>
                </g>
                <path d="M71,17 L156,17 L156,25 L71,25 L71,17 Z M71,31 L110,31 L110,39 L71,39 L71,31 Z" id="Shape" fill="#B4B4B5" fill-rule="nonzero"></path>
                <rect id="Rectangle" fill="#C4C4C4" fill-rule="nonzero" x="13" y="69.537" width="298" height="45.925" rx="5.103"></rect>
                <path d="M346,45 C346,42.79 347.791,41 350,41 L506,41 C508.209,41 510,42.79 510,45 L510,80 C510,82.21 508.209,84 506,84 L350,84 C347.791,84 346,82.21 346,80 L346,64.891 C346,63.419 345.191,62.065 343.894,61.368 L336,57.125 L343.894,52.882 C345.191,52.185 346,50.832 346,49.359 L346,45 Z" id="Path" fill="#484848" fill-rule="nonzero"></path>
                <path d="M379.906,69.202 C380.75,69.202 381.515,69.035 382.2,68.702 C382.886,68.367 383.431,67.878 383.835,67.233 C384.245,66.589 384.45,65.848 384.45,65.01 C384.45,63.78 384.084,62.798 383.352,62.065 C382.625,61.333 381.685,60.967 380.53,60.967 C380.214,60.967 379.909,60.99 379.616,61.037 C379.329,61.084 379.092,61.14 378.904,61.204 C378.723,61.269 378.559,61.336 378.412,61.406 C378.271,61.471 378.169,61.526 378.104,61.573 L378.017,61.643 L378.034,58.163 L382.877,58.163 C383.158,58.163 383.375,58.078 383.527,57.908 C383.68,57.732 383.756,57.513 383.756,57.249 C383.756,56.985 383.68,56.766 383.527,56.589 C383.375,56.409 383.17,56.317 382.912,56.317 L377.349,56.317 C376.892,56.317 376.558,56.405 376.347,56.581 C376.142,56.757 376.039,57.059 376.039,57.486 L376.039,62.707 C376.039,63.012 376.194,63.261 376.505,63.454 C376.821,63.648 377.141,63.744 377.463,63.744 C377.633,63.744 377.759,63.712 377.841,63.648 C378.562,63.108 379.273,62.838 379.977,62.838 C380.598,62.838 381.102,63.029 381.488,63.41 C381.881,63.791 382.077,64.321 382.077,65.001 C382.077,65.733 381.884,66.293 381.497,66.68 C381.11,67.066 380.551,67.26 379.818,67.26 C378.887,67.26 378.008,66.955 377.182,66.346 C377.059,66.246 376.921,66.196 376.769,66.196 C376.534,66.196 376.32,66.314 376.127,66.548 C375.939,66.782 375.846,67.031 375.846,67.295 C375.846,67.529 375.925,67.717 376.083,67.857 C377.173,68.754 378.447,69.202 379.906,69.202 L379.906,69.202 Z M386.568,71.777 L387.386,71.777 C387.503,71.777 387.597,71.748 387.667,71.689 C387.737,71.631 387.799,71.534 387.852,71.399 L389.372,67.075 C389.39,67.005 389.398,66.952 389.398,66.917 C389.398,66.712 389.29,66.601 389.073,66.583 L387.737,66.583 C387.362,66.595 387.148,66.759 387.096,67.075 L386.357,71.399 C386.352,71.417 386.349,71.452 386.349,71.505 C386.349,71.681 386.422,71.772 386.568,71.777 L386.568,71.777 Z M396.245,67.269 C395.929,67.269 395.645,67.21 395.393,67.093 C395.146,66.976 394.941,66.806 394.777,66.583 C394.619,66.355 394.484,66.103 394.373,65.827 C394.268,65.552 394.186,65.227 394.127,64.852 C394.074,64.477 394.036,64.116 394.013,63.77 C393.995,63.425 393.986,63.035 393.986,62.602 C393.986,62.168 393.995,61.782 394.013,61.442 C394.036,61.096 394.074,60.738 394.127,60.369 C394.186,60 394.268,59.681 394.373,59.411 C394.484,59.141 394.619,58.895 394.777,58.673 C394.941,58.45 395.146,58.283 395.393,58.172 C395.645,58.055 395.929,57.996 396.245,57.996 C396.562,57.996 396.843,58.055 397.089,58.172 C397.341,58.283 397.546,58.45 397.704,58.672 C397.868,58.896 398.003,59.142 398.108,59.412 C398.22,59.681 398.302,60 398.354,60.369 C398.413,60.739 398.451,61.096 398.469,61.441 C398.492,61.787 398.504,62.174 398.504,62.601 C398.504,63.035 398.492,63.428 398.469,63.779 C398.451,64.125 398.413,64.485 398.354,64.86 C398.302,65.23 398.22,65.552 398.108,65.827 C397.997,66.103 397.859,66.355 397.695,66.583 C397.537,66.806 397.335,66.976 397.089,67.093 C396.843,67.21 396.562,67.269 396.245,67.269 L396.245,67.269 Z M396.245,69.229 C396.948,69.229 397.575,69.109 398.126,68.869 C398.677,68.622 399.128,68.297 399.479,67.893 C399.837,67.483 400.13,66.99 400.358,66.416 C400.593,65.836 400.757,65.236 400.851,64.614 C400.944,63.987 400.991,63.316 400.991,62.602 C400.991,61.881 400.941,61.21 400.842,60.589 C400.748,59.968 400.584,59.376 400.35,58.813 C400.121,58.245 399.828,57.762 399.471,57.363 C399.119,56.959 398.668,56.64 398.117,56.405 C397.566,56.165 396.942,56.045 396.245,56.045 C395.536,56.045 394.903,56.165 394.347,56.405 C393.796,56.645 393.345,56.968 392.993,57.372 C392.642,57.77 392.349,58.257 392.114,58.832 C391.886,59.399 391.725,59.992 391.631,60.606 C391.537,61.222 391.49,61.886 391.49,62.602 C391.49,63.322 391.537,63.996 391.631,64.623 C391.725,65.244 391.886,65.845 392.114,66.425 C392.349,66.999 392.642,67.488 392.993,67.893 C393.351,68.297 393.805,68.623 394.355,68.868 C394.912,69.108 395.542,69.228 396.245,69.228 L396.245,69.229 Z M407.179,67.269 C406.862,67.269 406.578,67.21 406.326,67.093 C406.08,66.976 405.875,66.806 405.711,66.583 C405.553,66.355 405.418,66.103 405.307,65.827 C405.201,65.552 405.119,65.227 405.061,64.852 C405.008,64.477 404.97,64.116 404.946,63.77 C404.929,63.425 404.92,63.035 404.92,62.602 C404.92,62.168 404.929,61.782 404.946,61.442 C404.97,61.096 405.008,60.738 405.061,60.369 C405.119,60 405.201,59.681 405.307,59.411 C405.418,59.141 405.553,58.895 405.711,58.673 C405.875,58.45 406.08,58.283 406.326,58.172 C406.578,58.055 406.862,57.996 407.179,57.996 C407.495,57.996 407.776,58.055 408.022,58.172 C408.274,58.283 408.479,58.45 408.638,58.672 C408.802,58.896 408.937,59.142 409.042,59.412 C409.153,59.681 409.235,60 409.288,60.369 C409.347,60.739 409.385,61.096 409.402,61.441 C409.426,61.787 409.438,62.174 409.438,62.601 C409.438,63.035 409.426,63.428 409.402,63.779 C409.385,64.125 409.347,64.485 409.288,64.86 C409.235,65.23 409.153,65.552 409.042,65.827 C408.931,66.103 408.793,66.355 408.629,66.583 C408.471,66.806 408.269,66.976 408.022,67.093 C407.776,67.21 407.495,67.269 407.179,67.269 L407.179,67.269 Z M407.179,69.229 C407.882,69.229 408.509,69.109 409.06,68.869 C409.61,68.622 410.062,68.297 410.413,67.893 C410.771,67.483 411.063,66.99 411.292,66.416 C411.526,65.836 411.69,65.236 411.784,64.614 C411.878,63.987 411.925,63.316 411.925,62.602 C411.925,61.881 411.875,61.21 411.775,60.589 C411.682,59.968 411.518,59.376 411.283,58.813 C411.055,58.245 410.762,57.762 410.404,57.363 C410.053,56.959 409.602,56.64 409.051,56.405 C408.5,56.165 407.876,56.045 407.179,56.045 C406.47,56.045 405.837,56.165 405.28,56.405 C404.729,56.645 404.278,56.968 403.927,57.372 C403.575,57.77 403.282,58.257 403.048,58.832 C402.819,59.399 402.658,59.992 402.564,60.606 C402.471,61.222 402.424,61.886 402.424,62.602 C402.424,63.322 402.471,63.996 402.564,64.623 C402.658,65.244 402.819,65.845 403.048,66.425 C403.282,66.999 403.575,67.488 403.927,67.893 C404.284,68.297 404.738,68.623 405.289,68.868 C405.846,69.108 406.476,69.228 407.179,69.228 L407.179,69.229 Z M418.112,67.269 C417.796,67.269 417.512,67.21 417.26,67.093 C417.014,66.976 416.809,66.806 416.645,66.583 C416.486,66.355 416.352,66.103 416.24,65.827 C416.135,65.552 416.053,65.227 415.994,64.852 C415.941,64.477 415.903,64.116 415.88,63.77 C415.862,63.425 415.854,63.035 415.854,62.602 C415.854,62.168 415.862,61.782 415.88,61.442 C415.903,61.096 415.941,60.738 415.994,60.369 C416.053,60 416.135,59.681 416.24,59.411 C416.352,59.141 416.486,58.895 416.645,58.673 C416.809,58.45 417.014,58.283 417.26,58.172 C417.512,58.055 417.796,57.996 418.112,57.996 C418.429,57.996 418.71,58.055 418.956,58.172 C419.208,58.283 419.413,58.45 419.571,58.672 C419.735,58.896 419.87,59.142 419.976,59.412 C420.087,59.681 420.169,60 420.222,60.369 C420.28,60.739 420.318,61.096 420.336,61.441 C420.359,61.787 420.371,62.174 420.371,62.601 C420.371,63.035 420.359,63.428 420.336,63.779 C420.318,64.125 420.28,64.485 420.222,64.86 C420.169,65.23 420.087,65.552 419.976,65.827 C419.864,66.103 419.727,66.355 419.562,66.583 C419.404,66.806 419.202,66.976 418.956,67.093 C418.71,67.21 418.429,67.269 418.112,67.269 L418.112,67.269 Z M418.112,69.229 C418.815,69.229 419.442,69.109 419.993,68.869 C420.544,68.622 420.995,68.297 421.347,67.893 C421.704,67.483 421.997,66.99 422.226,66.416 C422.46,65.836 422.624,65.236 422.718,64.614 C422.812,63.987 422.858,63.316 422.858,62.602 C422.858,61.881 422.809,61.21 422.709,60.589 C422.615,59.968 422.451,59.376 422.217,58.813 C421.988,58.245 421.695,57.762 421.338,57.363 C420.986,56.959 420.535,56.64 419.984,56.405 C419.434,56.165 418.81,56.045 418.112,56.045 C417.403,56.045 416.771,56.165 416.214,56.405 C415.663,56.645 415.212,56.968 414.86,57.372 C414.509,57.77 414.216,58.257 413.981,58.832 C413.753,59.399 413.592,59.992 413.498,60.606 C413.404,61.222 413.357,61.886 413.357,62.602 C413.357,63.322 413.404,63.996 413.498,64.623 C413.592,65.244 413.753,65.845 413.981,66.425 C414.216,66.999 414.509,67.488 414.86,67.893 C415.218,68.297 415.672,68.623 416.223,68.868 C416.779,69.108 417.409,69.228 418.112,69.228 L418.112,69.229 Z M431.349,69.009 C431.694,69.009 431.99,68.889 432.236,68.649 C432.488,68.409 432.614,68.092 432.614,67.699 L432.614,63.964 L435.066,63.964 C438.271,63.964 439.874,62.687 439.874,60.132 C439.874,59.435 439.766,58.837 439.549,58.339 C439.332,57.835 439.013,57.439 438.591,57.152 C438.175,56.859 437.691,56.648 437.141,56.519 C436.596,56.385 435.96,56.317 435.233,56.317 L431.454,56.317 C431.021,56.317 430.684,56.464 430.443,56.757 C430.203,57.05 430.083,57.419 430.083,57.864 L430.083,67.7 C430.083,68.093 430.209,68.41 430.461,68.65 C430.713,68.89 431.009,69.01 431.349,69.01 L431.349,69.009 Z M432.614,62.136 L432.614,58.242 L434.961,58.242 C435.371,58.242 435.711,58.266 435.98,58.312 C436.256,58.359 436.505,58.447 436.728,58.576 C436.956,58.706 437.123,58.898 437.229,59.156 C437.334,59.414 437.387,59.739 437.387,60.132 C437.387,60.536 437.334,60.87 437.229,61.134 C437.123,61.398 436.956,61.602 436.728,61.749 C436.505,61.889 436.25,61.989 435.963,62.048 C435.682,62.106 435.327,62.136 434.899,62.136 L432.614,62.136 L432.614,62.136 Z M445.499,67.603 C444.743,67.603 444.154,67.339 443.732,66.812 C443.311,66.284 443.1,65.546 443.1,64.597 C443.1,63.636 443.308,62.892 443.724,62.364 C444.146,61.831 444.737,61.564 445.499,61.564 C446.261,61.564 446.853,61.831 447.274,62.364 C447.696,62.898 447.907,63.642 447.907,64.597 C447.907,65.546 447.696,66.284 447.274,66.812 C446.853,67.339 446.261,67.602 445.499,67.602 L445.499,67.603 Z M445.499,69.106 C446.12,69.106 446.688,69.021 447.204,68.851 C447.72,68.681 448.153,68.455 448.505,68.174 C448.862,67.887 449.161,67.55 449.401,67.164 C449.647,66.77 449.826,66.36 449.938,65.933 C450.055,65.505 450.113,65.06 450.113,64.597 C450.113,64.11 450.052,63.645 449.929,63.199 C449.812,62.754 449.627,62.341 449.375,61.96 C449.123,61.573 448.818,61.242 448.461,60.967 C448.104,60.685 447.67,60.466 447.16,60.307 C446.656,60.144 446.103,60.062 445.499,60.062 C444.884,60.062 444.318,60.147 443.803,60.316 C443.293,60.48 442.859,60.706 442.502,60.993 C442.15,61.28 441.852,61.617 441.605,62.003 C441.359,62.391 441.178,62.803 441.061,63.243 C440.949,63.677 440.894,64.128 440.894,64.597 C440.894,65.189 440.987,65.748 441.175,66.275 C441.362,66.803 441.635,67.28 441.992,67.708 C442.355,68.136 442.839,68.476 443.442,68.728 C444.046,68.98 444.731,69.106 445.499,69.106 L445.499,69.106 Z M453.137,69 C453.459,69 453.723,68.892 453.928,68.675 C454.139,68.458 454.244,68.156 454.244,67.769 L454.244,61.424 C454.244,61.031 454.139,60.727 453.928,60.51 C453.723,60.293 453.459,60.185 453.137,60.185 C452.814,60.185 452.551,60.293 452.346,60.51 C452.141,60.727 452.038,61.031 452.038,61.424 L452.038,67.769 C452.038,68.162 452.141,68.467 452.346,68.684 C452.551,68.894 452.814,69 453.137,69 Z M453.137,58.427 C453.518,58.427 453.825,58.315 454.06,58.093 C454.3,57.864 454.42,57.568 454.42,57.205 C454.42,56.842 454.303,56.549 454.068,56.326 C453.834,56.103 453.526,55.992 453.146,55.992 C452.759,55.992 452.445,56.103 452.205,56.326 C451.971,56.549 451.854,56.842 451.854,57.206 C451.854,57.568 451.971,57.864 452.205,58.093 C452.445,58.315 452.756,58.427 453.137,58.427 L453.137,58.427 Z M457.584,69 C457.906,69 458.17,68.894 458.375,68.684 C458.586,68.467 458.691,68.168 458.691,67.787 L458.691,64.07 C458.691,63.326 458.905,62.723 459.333,62.26 C459.761,61.797 460.268,61.566 460.854,61.566 C461.34,61.566 461.738,61.726 462.049,62.049 C462.365,62.365 462.523,62.825 462.523,63.429 L462.523,67.789 C462.523,68.169 462.626,68.468 462.831,68.685 C463.036,68.895 463.294,69.001 463.604,69.001 C463.933,69.001 464.202,68.895 464.413,68.685 C464.624,68.468 464.729,68.169 464.729,67.788 L464.729,63.438 C464.729,62.875 464.645,62.374 464.475,61.935 C464.305,61.495 464.073,61.144 463.78,60.88 C463.487,60.61 463.153,60.408 462.778,60.274 C462.409,60.133 462.014,60.062 461.592,60.062 C460.906,60.062 460.314,60.192 459.816,60.449 C459.324,60.707 458.949,61.085 458.691,61.583 L458.691,61.275 C458.691,60.93 458.589,60.663 458.384,60.475 C458.179,60.282 457.918,60.185 457.602,60.185 C457.279,60.185 457.013,60.282 456.802,60.475 C456.591,60.669 456.485,60.941 456.485,61.293 L456.485,67.788 C456.485,68.169 456.588,68.468 456.793,68.685 C456.998,68.895 457.262,69.001 457.584,69.001 L457.584,69 Z M470.196,69.08 L470.39,69.08 C470.601,69.08 470.771,69.076 470.899,69.07 C471.028,69.065 471.181,69.053 471.356,69.035 C471.538,69.023 471.682,68.997 471.787,68.956 C471.893,68.915 471.995,68.862 472.095,68.798 C472.2,68.733 472.276,68.648 472.323,68.543 C472.37,68.437 472.394,68.314 472.394,68.173 C472.394,67.951 472.323,67.758 472.183,67.593 C472.042,67.43 471.852,67.348 471.611,67.348 L471.55,67.348 L470.926,67.383 L470.829,67.383 C470.472,67.383 470.223,67.245 470.082,66.97 C469.941,66.694 469.871,66.275 469.871,65.713 L469.871,61.713 L471.277,61.713 C471.529,61.713 471.72,61.649 471.849,61.52 C471.978,61.392 472.042,61.216 472.042,60.993 C472.042,60.765 471.978,60.583 471.849,60.448 C471.72,60.308 471.532,60.238 471.286,60.238 L469.871,60.238 L469.871,57.996 C469.871,57.656 469.798,57.401 469.651,57.231 C469.511,57.061 469.312,56.977 469.054,56.977 C468.731,56.977 468.477,57.079 468.289,57.284 C468.107,57.484 467.999,57.741 467.964,58.058 L467.7,60.238 L466.777,60.238 C466.525,60.238 466.335,60.305 466.206,60.44 C466.077,60.568 466.013,60.741 466.013,60.958 C466.013,61.187 466.08,61.371 466.215,61.512 C466.355,61.647 466.552,61.714 466.804,61.714 L467.656,61.714 L467.656,66.258 C467.656,67.166 467.879,67.863 468.324,68.35 C468.775,68.83 469.399,69.073 470.196,69.08 Z M473.905,68.112 C474.837,68.792 475.985,69.132 477.351,69.132 C478.405,69.132 479.261,68.894 479.917,68.42 C480.579,67.945 480.91,67.26 480.91,66.363 C480.91,65.648 480.69,65.089 480.251,64.685 C479.817,64.28 479.129,63.961 478.186,63.727 L476.832,63.384 C476.346,63.273 476.015,63.152 475.839,63.024 C475.669,62.889 475.584,62.684 475.584,62.408 C475.584,62.098 475.742,61.869 476.059,61.723 C476.375,61.57 476.759,61.494 477.21,61.494 C477.345,61.494 477.477,61.5 477.605,61.512 C477.74,61.523 477.875,61.544 478.01,61.573 C478.145,61.597 478.259,61.62 478.353,61.643 C478.452,61.661 478.569,61.693 478.704,61.74 C478.839,61.781 478.93,61.81 478.977,61.828 C479.029,61.84 479.117,61.869 479.24,61.916 C479.363,61.963 479.428,61.986 479.434,61.986 C479.562,62.033 479.677,62.056 479.776,62.056 C479.976,62.056 480.134,61.992 480.251,61.863 C480.374,61.728 480.436,61.567 480.436,61.38 C480.436,61.063 480.277,60.83 479.961,60.677 C479.053,60.237 478.092,60.017 477.078,60.017 C476.029,60.017 475.183,60.234 474.538,60.668 C473.894,61.096 473.571,61.711 473.571,62.514 C473.571,62.848 473.615,63.141 473.703,63.393 C473.791,63.639 473.905,63.847 474.046,64.017 C474.187,64.181 474.389,64.333 474.652,64.474 C474.916,64.608 475.177,64.72 475.435,64.808 C475.692,64.895 476.029,64.995 476.445,65.106 L477.816,65.458 C478.631,65.658 479.038,66.006 479.038,66.504 C479.038,66.785 478.941,67.017 478.748,67.198 C478.561,67.374 478.332,67.498 478.062,67.568 C477.799,67.632 477.497,67.664 477.157,67.664 C476.812,67.664 476.466,67.617 476.12,67.524 C475.774,67.424 475.522,67.336 475.364,67.26 C475.212,67.184 475.007,67.072 474.749,66.926 C474.591,66.838 474.438,66.794 474.292,66.794 C474.087,66.794 473.917,66.867 473.782,67.014 C473.653,67.16 473.589,67.33 473.589,67.524 C473.589,67.764 473.694,67.96 473.905,68.112 L473.905,68.112 Z" id="Shape" fill="#E9ECEF" fill-rule="nonzero"></path>
            </g>
        </g>
    </g>
</svg>