<svg width="292" height="191" viewBox="0 0 292 191" fill="none" xmlns="http://www.w3.org/2000/svg">
<path fill-rule="evenodd" clip-rule="evenodd" d="M53.7235 178.447C81.1851 178.447 103.447 156.185 103.447 128.724C103.447 101.262 81.1851 79 53.7235 79C26.262 79 4 101.262 4 128.724C4 156.185 26.262 178.447 53.7235 178.447Z" fill="#E0E0E0"/>
<mask id="mask0" mask-type="alpha" maskUnits="userSpaceOnUse" x="4" y="79" width="100" height="100">
<path fill-rule="evenodd" clip-rule="evenodd" d="M53.7235 178.447C81.1851 178.447 103.447 156.185 103.447 128.724C103.447 101.262 81.1851 79 53.7235 79C26.262 79 4 101.262 4 128.724C4 156.185 26.262 178.447 53.7235 178.447Z" fill="white"/>
</mask>
<g mask="url(#mask0)">
<path fill-rule="evenodd" clip-rule="evenodd" d="M89.9016 166.911C86.9701 162.67 82.6483 159.588 77.6842 158.197L66.1547 154.967V146.68C71.0287 143.019 74.2295 137.258 74.4262 130.74C75.1074 131.041 75.8593 131.211 76.6522 131.211C79.7032 131.211 82.177 128.737 82.177 125.686C82.177 122.634 79.7032 120.161 76.6522 120.161C75.8657 120.161 75.1193 120.328 74.4422 120.624V119.056C74.4422 107.614 65.1663 98.3379 53.7241 98.3379H53.7238C42.2816 98.3379 33.0059 107.614 33.0059 119.056V120.624C32.3286 120.328 31.5822 120.161 30.796 120.161C27.7446 120.161 25.2712 122.634 25.2712 125.686C25.2712 128.737 27.7446 131.211 30.796 131.211C31.5886 131.211 32.3405 131.041 33.022 130.74C33.2184 137.258 36.4192 143.019 41.2929 146.68V154.967L29.7637 158.197C24.7996 159.588 20.4778 162.67 17.5463 166.911L9.52539 178.514V186.735H97.9228V178.514L89.9016 166.911Z" fill="#FFCF83"/>
<path fill-rule="evenodd" clip-rule="evenodd" d="M53.7235 150.823C51.1688 150.823 48.7235 150.358 46.4639 149.512C49.6777 151.565 53.4942 152.757 57.5909 152.757C60.6461 152.757 63.5436 152.09 66.1544 150.903V146.68C62.6917 149.281 58.3878 150.823 53.7235 150.823Z" fill="#F7A74F"/>
<path d="M33.7265 126.491C33.797 126.235 33.8348 125.964 33.8348 125.685C33.8348 124.007 32.4743 122.646 30.7961 122.646C30.3765 122.646 29.9768 122.732 29.6133 122.885" stroke="#00004D" stroke-width="0.552484" stroke-linecap="round" stroke-linejoin="round"/>
<path d="M73.7213 126.491C73.6509 126.235 73.6133 125.964 73.6133 125.685C73.6133 124.007 74.9738 122.646 76.6519 122.646C77.0713 122.646 77.471 122.732 77.8348 122.885" stroke="#00004D" stroke-width="0.552484" stroke-linecap="round" stroke-linejoin="round"/>
<path fill-rule="evenodd" clip-rule="evenodd" d="M89.9016 166.911C86.9701 162.67 82.6483 159.588 77.6842 158.197L66.1547 154.967V146.68C71.0287 143.019 74.2295 137.258 74.4262 130.74C75.1074 131.041 75.8593 131.211 76.6522 131.211C79.7032 131.211 82.177 128.737 82.177 125.686C82.177 122.634 79.7032 120.161 76.6522 120.161C75.8657 120.161 75.1193 120.328 74.4422 120.624V119.056C74.4422 107.614 65.1663 98.3379 53.7241 98.3379H53.7238C42.2816 98.3379 33.0059 107.614 33.0059 119.056V120.624C32.3286 120.328 31.5822 120.161 30.796 120.161C27.7446 120.161 25.2712 122.634 25.2712 125.686C25.2712 128.737 27.7446 131.211 30.796 131.211C31.5886 131.211 32.3405 131.041 33.022 130.74C33.2184 137.258 36.4192 143.019 41.2929 146.68V154.967L29.7637 158.197C24.7996 159.588 20.4778 162.67 17.5463 166.911L9.52539 178.514V186.735H97.9228V178.514L89.9016 166.911Z" fill="#E9ADA1"/>
<path fill-rule="evenodd" clip-rule="evenodd" d="M53.7235 150.823C51.1688 150.823 48.7235 150.358 46.4639 149.512C49.6777 151.565 53.4942 152.757 57.5909 152.757C60.6461 152.757 63.5436 152.09 66.1544 150.903V146.68C62.6917 149.281 58.3878 150.823 53.7235 150.823Z" fill="#DB8B79"/>
<path d="M33.7265 126.491C33.797 126.235 33.8348 125.964 33.8348 125.685C33.8348 124.007 32.4743 122.646 30.7961 122.646C30.3765 122.646 29.9768 122.732 29.6133 122.885" stroke="#00004D" stroke-width="0.552484" stroke-linecap="round" stroke-linejoin="round"/>
<path d="M73.7213 126.491C73.6509 126.235 73.6133 125.964 73.6133 125.685C73.6133 124.007 74.9738 122.646 76.6519 122.646C77.0713 122.646 77.471 122.732 77.8348 122.885" stroke="#00004D" stroke-width="0.552484" stroke-linecap="round" stroke-linejoin="round"/>
<path fill-rule="evenodd" clip-rule="evenodd" d="M59.2484 138.119C59.2484 141.171 56.7749 143.644 53.7236 143.644C50.6722 143.644 48.1987 141.171 48.1987 138.119H59.2484Z" fill="white"/>
<rect x="41.5688" y="135.527" width="24.5855" height="18.4391" fill="#E9ADA1"/>
<path fill-rule="evenodd" clip-rule="evenodd" d="M60.0081 138.445C60.0081 141.84 57.2564 144.592 53.8617 144.592C50.4671 144.592 47.7153 141.84 47.7153 138.445H60.0081Z" fill="#AE1328"/>
<path fill-rule="evenodd" clip-rule="evenodd" d="M57.3018 143.539C56.4149 142.67 55.2016 142.133 53.862 142.133C52.5221 142.133 51.3088 142.67 50.4219 143.539C51.4038 144.204 52.5876 144.591 53.862 144.591C55.1361 144.591 56.3202 144.204 57.3018 143.539Z" fill="#FB344F"/>
<path fill-rule="evenodd" clip-rule="evenodd" d="M65.0498 126.513C65.0498 127.733 64.0603 128.723 62.8398 128.723C61.6194 128.723 60.6299 127.733 60.6299 126.513C60.6299 125.292 61.6194 124.303 62.8398 124.303C64.0603 124.303 65.0498 125.292 65.0498 126.513Z" fill="#00004D"/>
<path fill-rule="evenodd" clip-rule="evenodd" d="M46.8178 126.513C46.8178 127.733 45.8283 128.723 44.6079 128.723C43.3874 128.723 42.3979 127.733 42.3979 126.513C42.3979 125.292 43.3874 124.303 44.6079 124.303C45.8283 124.303 46.8178 125.292 46.8178 126.513Z" fill="#00004D"/>
<path d="M53.7236 124.303L55.8555 131.551C56.188 132.682 55.4405 133.844 54.2738 134.011L52.6187 134.247" stroke="#00004D" stroke-width="0.552484" stroke-linecap="round" stroke-linejoin="round"/>
<path fill-rule="evenodd" clip-rule="evenodd" d="M75.8227 120.228V119.054C75.8227 114.815 74.6269 110.856 72.5575 107.492C70.6396 104.375 67.9683 101.774 64.7993 99.9341C61.5421 98.0429 57.7606 96.9551 53.7234 96.9551C49.6858 96.9551 45.9046 98.0429 42.6475 99.9341C39.4784 101.774 36.8071 104.375 34.8892 107.492C32.8199 110.856 31.624 114.815 31.624 119.054V120.228C32.7765 120.402 33.8116 120.928 34.6152 121.699C37.1605 119.144 39.2102 116.096 40.6046 112.707C44.5074 114.817 48.9753 116.016 53.7234 116.016C58.4714 116.016 62.9394 114.817 66.8421 112.707C68.2363 116.096 70.2866 119.144 72.8316 121.699C73.6352 120.928 74.6702 120.402 75.8227 120.228Z" fill="#00004D"/>
<path fill-rule="evenodd" clip-rule="evenodd" d="M97.9228 178.514L89.9016 166.91C86.9703 162.67 82.6485 159.587 77.6842 158.197L66.155 154.967C66.155 161.832 60.5895 167.398 53.7241 167.398C46.8586 167.398 41.2932 161.832 41.2932 154.967L29.7637 158.197C24.7996 159.587 20.4778 162.67 17.5463 166.91L9.52539 178.514V186.735H97.9228V178.514Z" fill="#FB344F"/>
<path fill-rule="evenodd" clip-rule="evenodd" d="M97.1533 177.704L89.0433 165.995C86.0796 161.717 81.7099 158.606 76.6906 157.203L76.073 157.03L73.575 152.191C72.96 151 71.9355 150.069 70.689 149.57L65.0337 147.306V154.011C65.0328 154.012 65.0325 154.014 65.0317 154.015L52.5366 166.486C52.5126 166.486 52.4891 166.487 52.4651 166.487L39.8965 153.944V147.236L34.2412 149.501C32.9947 150 31.9702 150.93 31.3552 152.122L28.8152 157.042L28.2393 157.203C23.2203 158.606 18.8506 161.717 15.8867 165.995L7.77686 177.704V185.999H97.1533V177.704Z" fill="#6A7A83"/>
<path d="M28.8145 157.043L52.4643 170.704L69.583 160.866" stroke="#00004D" stroke-width="0.539496" stroke-linecap="round" stroke-linejoin="round"/>
<path fill-rule="evenodd" clip-rule="evenodd" d="M46.0405 181.85C45.5777 181.85 45.2026 181.476 45.2026 181.014V166.527L46.8784 167.474V181.014C46.8784 181.476 46.5033 181.85 46.0405 181.85Z" fill="#00004D"/>
<path fill-rule="evenodd" clip-rule="evenodd" d="M58.8887 175.997C58.4259 175.997 58.0508 175.622 58.0508 175.16V167.49L59.7266 166.527V175.16C59.7266 175.622 59.3515 175.997 58.8887 175.997Z" fill="#00004D"/>
<path d="M37.6616 151.717L39.896 153.947" stroke="#00004D" stroke-width="0.539496" stroke-linecap="round" stroke-linejoin="round"/>
<path fill-rule="evenodd" clip-rule="evenodd" d="M58.3448 142.738L56.3221 143.951C54.7157 144.915 52.7326 144.915 51.1262 143.951L49.1032 142.738C48.0304 142.094 47.5504 140.753 47.9593 139.543L48.3068 138.514C48.4519 138.084 48.8437 137.796 49.2838 137.796H58.1642C58.6043 137.796 58.9963 138.084 59.1412 138.514L59.4887 139.543C59.8976 140.753 59.4176 142.094 58.3448 142.738ZM71.3765 129.354L70.0374 133.871C69.3069 136.335 67.476 138.287 65.1156 139.117L62.6258 139.993L61.6301 137.963C60.7483 136.166 58.9644 135.033 57.0146 135.033H53.7238H50.4326C48.4831 135.033 46.699 136.166 45.8171 137.963L44.8214 139.993L42.3317 139.117C39.9713 138.287 38.1403 136.335 37.4098 133.871L36.0708 129.354C35.5838 129.907 34.9889 130.356 34.3169 130.66V140.738C34.3169 151.818 43.0055 160.8 53.7238 160.8C64.4415 160.8 73.1306 151.818 73.1306 140.738V130.66C72.4584 130.356 71.8635 129.907 71.3765 129.354Z" fill="#00004D"/>
</g>
<path d="M24 6.00001C24 2.6863 26.6863 0 30 0H286C289.314 0 292 2.68629 292 6V75.1622C292 78.4759 289.314 81.1622 286 81.1622H158H91.8158C91.2816 81.1622 90.7571 81.3048 90.2965 81.5753L74.7564 90.7026C74.4438 90.8862 74.0562 90.8862 73.7436 90.7026L58.2035 81.5753C57.7429 81.3048 57.2183 81.1622 56.6842 81.1622H30C26.6863 81.1622 24 78.4759 24 75.1622V6.00001Z" fill="#5922CE"/>
<path d="M36.3203 22.9844C36.5911 22.9844 36.8203 22.9036 37.0078 22.7422C37.2005 22.5755 37.2969 22.3438 37.2969 22.0469V17.9609H42.5156V22.0469C42.5156 22.3438 42.6094 22.5755 42.7969 22.7422C42.9896 22.9036 43.2188 22.9844 43.4844 22.9844C43.75 22.9844 43.9766 22.9036 44.1641 22.7422C44.3568 22.5755 44.4531 22.3438 44.4531 22.0469V12.7344C44.4531 12.4375 44.3568 12.2083 44.1641 12.0469C43.9766 11.8802 43.7526 11.7969 43.4922 11.7969C43.2266 11.7969 42.9974 11.8802 42.8047 12.0469C42.612 12.2135 42.5156 12.4427 42.5156 12.7344V16.4141H37.2969V12.7344C37.2969 12.4375 37.2005 12.2083 37.0078 12.0469C36.8203 11.8802 36.5938 11.7969 36.3281 11.7969C36.0625 11.7969 35.8333 11.8802 35.6406 12.0469C35.4531 12.2135 35.3594 12.4427 35.3594 12.7344V22.0469C35.3594 22.3438 35.4531 22.5755 35.6406 22.7422C35.8333 22.9036 36.0599 22.9844 36.3203 22.9844ZM50.4219 23.1094C51.5573 23.1094 52.5156 22.7656 53.2969 22.0781C53.4688 21.9375 53.5547 21.7682 53.5547 21.5703C53.5547 21.4141 53.5 21.276 53.3906 21.1562C53.2865 21.0365 53.1615 20.9766 53.0156 20.9766C52.9167 20.9766 52.8177 21.0104 52.7188 21.0781C51.9219 21.6406 51.1979 21.9219 50.5469 21.9219C49.8438 21.9167 49.2812 21.7188 48.8594 21.3281C48.4427 20.9323 48.2161 20.3203 48.1797 19.4922H53.3047C53.4818 19.4922 53.6094 19.4323 53.6875 19.3125C53.7708 19.1875 53.8125 19.0312 53.8125 18.8438C53.8021 18.3281 53.724 17.8516 53.5781 17.4141C53.4323 16.9714 53.2188 16.5755 52.9375 16.2266C52.6615 15.8724 52.2917 15.5938 51.8281 15.3906C51.3698 15.1875 50.8411 15.0859 50.2422 15.0859C49.6536 15.0859 49.1172 15.1927 48.6328 15.4062C48.1484 15.6198 47.75 15.9089 47.4375 16.2734C47.125 16.638 46.8828 17.0573 46.7109 17.5312C46.5443 18 46.4609 18.4974 46.4609 19.0234C46.4609 20.2839 46.8229 21.2786 47.5469 22.0078C48.276 22.7318 49.2344 23.099 50.4219 23.1094ZM48.1953 18.4609C48.2214 18.1797 48.2812 17.9115 48.375 17.6562C48.474 17.401 48.6068 17.1667 48.7734 16.9531C48.9401 16.7396 49.1562 16.5677 49.4219 16.4375C49.6875 16.3073 49.9844 16.2422 50.3125 16.2422C50.9479 16.2422 51.4323 16.4531 51.7656 16.875C52.099 17.2969 52.2891 17.8255 52.3359 18.4609H48.1953ZM57.7422 25.7734L62.4062 16.2969C62.4635 16.1823 62.4922 16.0651 62.4922 15.9453C62.4922 15.7318 62.4062 15.5495 62.2344 15.3984C62.0677 15.2474 61.8776 15.1719 61.6641 15.1719C61.3359 15.1719 61.0859 15.3411 60.9141 15.6797L58.6875 20.2188L56.5078 15.7734C56.4245 15.6016 56.3151 15.4766 56.1797 15.3984C56.0495 15.3151 55.9089 15.2734 55.7578 15.2734C55.6172 15.2734 55.4818 15.3073 55.3516 15.375C55.2214 15.4375 55.1146 15.5286 55.0312 15.6484C54.9531 15.7682 54.9141 15.901 54.9141 16.0469C54.9141 16.1667 54.9453 16.2891 55.0078 16.4141L57.8359 21.9531L56.2891 25.0938C56.263 25.151 56.2422 25.2083 56.2266 25.2656C56.2109 25.3229 56.2031 25.3802 56.2031 25.4375C56.2031 25.6562 56.2891 25.8438 56.4609 26C56.638 26.1562 56.8359 26.2344 57.0547 26.2344C57.362 26.2344 57.5911 26.0807 57.7422 25.7734ZM65.3828 19.1406C65.3932 19.2552 65.4245 19.3542 65.4766 19.4375C65.5286 19.5156 65.5885 19.5755 65.6562 19.6172C65.7292 19.6536 65.8073 19.6719 65.8906 19.6719C66.0208 19.6719 66.1328 19.6276 66.2266 19.5391C66.3255 19.4453 66.3854 19.3125 66.4062 19.1406L66.9219 12.25C66.9271 12.2188 66.9297 12.1875 66.9297 12.1562C66.9297 11.8854 66.8255 11.6745 66.6172 11.5234C66.4141 11.3672 66.1719 11.2891 65.8906 11.2891C65.6146 11.2891 65.3724 11.3672 65.1641 11.5234C64.9609 11.6745 64.8594 11.8854 64.8594 12.1562C64.8594 12.1667 64.8594 12.1771 64.8594 12.1875C64.8646 12.1979 64.8672 12.2083 64.8672 12.2188C64.8672 12.2292 64.8672 12.2396 64.8672 12.25L65.3828 19.1406ZM65.9219 23.0391C66.224 23.0391 66.4714 22.9427 66.6641 22.75C66.8568 22.5573 66.9531 22.3307 66.9531 22.0703C66.9531 21.7995 66.8542 21.5703 66.6562 21.3828C66.4583 21.1953 66.2135 21.1016 65.9219 21.1016C65.6146 21.1016 65.3646 21.1979 65.1719 21.3906C64.9792 21.5833 64.8828 21.8099 64.8828 22.0703C64.8828 22.3359 64.9818 22.5651 65.1797 22.7578C65.3776 22.9453 65.625 23.0391 65.9219 23.0391ZM36.4531 44.9844C36.7188 44.9844 36.9479 44.9036 37.1406 44.7422C37.3333 44.5807 37.4297 44.3516 37.4297 44.0547V34.7109C37.4297 34.4141 37.3333 34.1849 37.1406 34.0234C36.9479 33.8568 36.7214 33.7734 36.4609 33.7734C36.1953 33.7734 35.9661 33.8568 35.7734 34.0234C35.5807 34.1849 35.4844 34.4141 35.4844 34.7109V44.0547C35.4844 44.3464 35.5781 44.5755 35.7656 44.7422C35.9583 44.9036 36.1875 44.9844 36.4531 44.9844ZM45.3594 45C45.5938 45 45.7943 44.9271 45.9609 44.7812C46.1328 44.6354 46.2188 44.4349 46.2188 44.1797V40.625C46.224 39.9115 46.4271 39.3359 46.8281 38.8984C47.2292 38.4609 47.7083 38.2422 48.2656 38.2422C48.7448 38.2422 49.1328 38.3984 49.4297 38.7109C49.7266 39.0234 49.875 39.474 49.875 40.0625V44.1797C49.875 44.4401 49.9583 44.6432 50.125 44.7891C50.2917 44.9297 50.4896 45 50.7188 45C50.9531 45 51.1562 44.9297 51.3281 44.7891C51.5 44.6432 51.5859 44.4401 51.5859 44.1797V40.0781C51.5859 39.5677 51.5104 39.1172 51.3594 38.7266C51.2083 38.3359 51 38.0234 50.7344 37.7891C50.4688 37.5547 50.1667 37.3802 49.8281 37.2656C49.4948 37.1458 49.1354 37.0859 48.75 37.0859C48.1562 37.0859 47.6406 37.2005 47.2031 37.4297C46.7656 37.6536 46.4375 37.9818 46.2188 38.4141V37.9766C46.2188 37.7318 46.1354 37.5417 45.9688 37.4062C45.8021 37.2656 45.6016 37.1953 45.3672 37.1953C45.1328 37.1953 44.9297 37.2682 44.7578 37.4141C44.5859 37.5547 44.5 37.75 44.5 38V44.1797C44.5 44.4401 44.5833 44.6432 44.75 44.7891C44.9219 44.9297 45.125 45 45.3594 45ZM57.2188 45.1094C58.3542 45.1094 59.3125 44.7656 60.0938 44.0781C60.2656 43.9375 60.3516 43.7682 60.3516 43.5703C60.3516 43.4141 60.2969 43.276 60.1875 43.1562C60.0833 43.0365 59.9583 42.9766 59.8125 42.9766C59.7135 42.9766 59.6146 43.0104 59.5156 43.0781C58.7188 43.6406 57.9948 43.9219 57.3438 43.9219C56.6406 43.9167 56.0781 43.7188 55.6562 43.3281C55.2396 42.9323 55.013 42.3203 54.9766 41.4922H60.1016C60.2786 41.4922 60.4062 41.4323 60.4844 41.3125C60.5677 41.1875 60.6094 41.0312 60.6094 40.8438C60.599 40.3281 60.5208 39.8516 60.375 39.4141C60.2292 38.9714 60.0156 38.5755 59.7344 38.2266C59.4583 37.8724 59.0885 37.5938 58.625 37.3906C58.1667 37.1875 57.638 37.0859 57.0391 37.0859C56.4505 37.0859 55.9141 37.1927 55.4297 37.4062C54.9453 37.6198 54.5469 37.9089 54.2344 38.2734C53.9219 38.638 53.6797 39.0573 53.5078 39.5312C53.3411 40 53.2578 40.4974 53.2578 41.0234C53.2578 42.2839 53.6198 43.2786 54.3438 44.0078C55.0729 44.7318 56.0312 45.099 57.2188 45.1094ZM54.9922 40.4609C55.0182 40.1797 55.0781 39.9115 55.1719 39.6562C55.2708 39.401 55.4036 39.1667 55.5703 38.9531C55.737 38.7396 55.9531 38.5677 56.2188 38.4375C56.4844 38.3073 56.7812 38.2422 57.1094 38.2422C57.7448 38.2422 58.2292 38.4531 58.5625 38.875C58.8958 39.2969 59.0859 39.8255 59.1328 40.4609H54.9922ZM65.7812 45.1094C66.9167 45.1094 67.875 44.7656 68.6562 44.0781C68.8281 43.9375 68.9141 43.7682 68.9141 43.5703C68.9141 43.4141 68.8594 43.276 68.75 43.1562C68.6458 43.0365 68.5208 42.9766 68.375 42.9766C68.276 42.9766 68.1771 43.0104 68.0781 43.0781C67.2812 43.6406 66.5573 43.9219 65.9062 43.9219C65.2031 43.9167 64.6406 43.7188 64.2188 43.3281C63.8021 42.9323 63.5755 42.3203 63.5391 41.4922H68.6641C68.8411 41.4922 68.9688 41.4323 69.0469 41.3125C69.1302 41.1875 69.1719 41.0312 69.1719 40.8438C69.1615 40.3281 69.0833 39.8516 68.9375 39.4141C68.7917 38.9714 68.5781 38.5755 68.2969 38.2266C68.0208 37.8724 67.651 37.5938 67.1875 37.3906C66.7292 37.1875 66.2005 37.0859 65.6016 37.0859C65.013 37.0859 64.4766 37.1927 63.9922 37.4062C63.5078 37.6198 63.1094 37.9089 62.7969 38.2734C62.4844 38.638 62.2422 39.0573 62.0703 39.5312C61.9036 40 61.8203 40.4974 61.8203 41.0234C61.8203 42.2839 62.1823 43.2786 62.9062 44.0078C63.6354 44.7318 64.5938 45.099 65.7812 45.1094ZM63.5547 40.4609C63.5807 40.1797 63.6406 39.9115 63.7344 39.6562C63.8333 39.401 63.9661 39.1667 64.1328 38.9531C64.2995 38.7396 64.5156 38.5677 64.7812 38.4375C65.0469 38.3073 65.3438 38.2422 65.6719 38.2422C66.3073 38.2422 66.7917 38.4531 67.125 38.875C67.4583 39.2969 67.6484 39.8255 67.6953 40.4609H63.5547ZM73.7422 45.1094C74.9714 45.1094 75.8411 44.6536 76.3516 43.7422V44.1719C76.3516 44.7188 76.6328 44.9922 77.1953 44.9922C77.4297 44.9922 77.6328 44.9193 77.8047 44.7734C77.9766 44.6276 78.0625 44.4271 78.0625 44.1719V34.5859C78.0625 34.3359 77.9792 34.1406 77.8125 34C77.6458 33.8594 77.4453 33.7891 77.2109 33.7891C76.9766 33.7891 76.7734 33.8594 76.6016 34C76.4349 34.1406 76.3516 34.3359 76.3516 34.5859V38.375C75.8359 37.5156 75.0052 37.0859 73.8594 37.0859C72.7865 37.0859 71.9349 37.4505 71.3047 38.1797C70.6797 38.9089 70.3672 39.8646 70.3672 41.0469C70.3672 41.5885 70.4401 42.1042 70.5859 42.5938C70.737 43.0781 70.9505 43.5078 71.2266 43.8828C71.5026 44.2578 71.8568 44.5573 72.2891 44.7812C72.7214 45 73.2057 45.1094 73.7422 45.1094ZM74.1328 43.9453C73.8255 43.9453 73.5495 43.8854 73.3047 43.7656C73.0599 43.6406 72.862 43.4818 72.7109 43.2891C72.5651 43.0911 72.4427 42.862 72.3438 42.6016C72.2448 42.3411 72.1745 42.0859 72.1328 41.8359C72.0964 41.5807 72.0781 41.3203 72.0781 41.0547C72.0781 40.7839 72.099 40.5208 72.1406 40.2656C72.1823 40.0104 72.2526 39.7578 72.3516 39.5078C72.4557 39.2578 72.5859 39.0417 72.7422 38.8594C72.8984 38.6719 73.0964 38.5234 73.3359 38.4141C73.5807 38.2995 73.8568 38.2422 74.1641 38.2422C74.5495 38.2422 74.8854 38.3229 75.1719 38.4844C75.4635 38.6406 75.6901 38.8568 75.8516 39.1328C76.0182 39.4036 76.1406 39.7031 76.2188 40.0312C76.3021 40.3542 76.3438 40.7005 76.3438 41.0703C76.3438 42.013 76.1745 42.7292 75.8359 43.2188C75.5026 43.7031 74.9349 43.9453 74.1328 43.9453ZM85.625 45C85.8594 45 86.0599 44.9271 86.2266 44.7812C86.3984 44.6354 86.4844 44.4323 86.4844 44.1719V40.6016C86.4844 39.8984 86.6901 39.3333 87.1016 38.9062C87.513 38.4792 88.0052 38.2656 88.5781 38.2656C89.0417 38.2656 89.4167 38.4167 89.7031 38.7188C89.9948 39.0156 90.1406 39.4557 90.1406 40.0391V44.1719C90.1406 44.4323 90.224 44.6354 90.3906 44.7812C90.5573 44.9271 90.7552 45 90.9844 45C91.2188 45 91.4219 44.9271 91.5938 44.7812C91.7656 44.6354 91.8516 44.4323 91.8516 44.1719V40.0703C91.8516 39.5599 91.7734 39.1094 91.6172 38.7188C91.4661 38.3281 91.2552 38.0182 90.9844 37.7891C90.7188 37.5547 90.4219 37.3802 90.0938 37.2656C89.7656 37.1458 89.4115 37.0859 89.0312 37.0859C88.4479 37.0859 87.9349 37.1927 87.4922 37.4062C87.0547 37.6146 86.7188 37.9036 86.4844 38.2734V34.5938C86.4844 34.3438 86.3984 34.1484 86.2266 34.0078C86.0599 33.862 85.862 33.7891 85.6328 33.7891C85.3984 33.7891 85.1953 33.862 85.0234 34.0078C84.8516 34.1484 84.7656 34.3438 84.7656 34.5938V44.1719C84.7656 44.4323 84.849 44.6354 85.0156 44.7812C85.1875 44.9271 85.3906 45 85.625 45ZM97.4844 45.1094C98.6198 45.1094 99.5781 44.7656 100.359 44.0781C100.531 43.9375 100.617 43.7682 100.617 43.5703C100.617 43.4141 100.562 43.276 100.453 43.1562C100.349 43.0365 100.224 42.9766 100.078 42.9766C99.9792 42.9766 99.8802 43.0104 99.7812 43.0781C98.9844 43.6406 98.2604 43.9219 97.6094 43.9219C96.9062 43.9167 96.3438 43.7188 95.9219 43.3281C95.5052 42.9323 95.2786 42.3203 95.2422 41.4922H100.367C100.544 41.4922 100.672 41.4323 100.75 41.3125C100.833 41.1875 100.875 41.0312 100.875 40.8438C100.865 40.3281 100.786 39.8516 100.641 39.4141C100.495 38.9714 100.281 38.5755 100 38.2266C99.724 37.8724 99.3542 37.5938 98.8906 37.3906C98.4323 37.1875 97.9036 37.0859 97.3047 37.0859C96.7161 37.0859 96.1797 37.1927 95.6953 37.4062C95.2109 37.6198 94.8125 37.9089 94.5 38.2734C94.1875 38.638 93.9453 39.0573 93.7734 39.5312C93.6068 40 93.5234 40.4974 93.5234 41.0234C93.5234 42.2839 93.8854 43.2786 94.6094 44.0078C95.3385 44.7318 96.2969 45.099 97.4844 45.1094ZM95.2578 40.4609C95.2839 40.1797 95.3438 39.9115 95.4375 39.6562C95.5365 39.401 95.6693 39.1667 95.8359 38.9531C96.0026 38.7396 96.2188 38.5677 96.4844 38.4375C96.75 38.3073 97.0469 38.2422 97.375 38.2422C98.0104 38.2422 98.4948 38.4531 98.8281 38.875C99.1615 39.2969 99.3516 39.8255 99.3984 40.4609H95.2578ZM103.422 45C103.656 45 103.859 44.9245 104.031 44.7734C104.208 44.6172 104.297 44.4089 104.297 44.1484V34.6406C104.297 34.3802 104.211 34.1745 104.039 34.0234C103.867 33.8672 103.667 33.7891 103.438 33.7891C103.203 33.7891 103 33.8646 102.828 34.0156C102.661 34.1667 102.578 34.375 102.578 34.6406V44.1484C102.578 44.4193 102.659 44.6302 102.82 44.7812C102.987 44.9271 103.188 45 103.422 45ZM107.359 47.9766C107.594 47.9766 107.794 47.9062 107.961 47.7656C108.133 47.625 108.219 47.4297 108.219 47.1797V43.8125C108.734 44.6771 109.565 45.1094 110.711 45.1094C111.784 45.1094 112.633 44.7448 113.258 44.0156C113.883 43.2865 114.195 42.3307 114.195 41.1484C114.195 40.6068 114.12 40.0938 113.969 39.6094C113.823 39.1198 113.612 38.6875 113.336 38.3125C113.06 37.9375 112.706 37.6406 112.273 37.4219C111.841 37.1979 111.357 37.0859 110.82 37.0859C109.596 37.0859 108.729 37.5417 108.219 38.4531V38.0156C108.219 37.7396 108.141 37.5339 107.984 37.3984C107.833 37.263 107.628 37.1953 107.367 37.1953C107.138 37.1953 106.935 37.2708 106.758 37.4219C106.586 37.5677 106.5 37.7682 106.5 38.0234V47.1797C106.5 47.4297 106.583 47.625 106.75 47.7656C106.922 47.9062 107.125 47.9766 107.359 47.9766ZM110.398 43.9453C110.018 43.9453 109.682 43.8672 109.391 43.7109C109.104 43.5495 108.878 43.3333 108.711 43.0625C108.549 42.7917 108.427 42.4948 108.344 42.1719C108.266 41.8438 108.227 41.4948 108.227 41.125C108.227 40.1875 108.393 39.474 108.727 38.9844C109.06 38.4896 109.628 38.2422 110.43 38.2422C110.737 38.2422 111.013 38.3047 111.258 38.4297C111.503 38.5547 111.698 38.7161 111.844 38.9141C111.995 39.1068 112.12 39.3333 112.219 39.5938C112.318 39.8542 112.385 40.112 112.422 40.3672C112.464 40.6224 112.484 40.8802 112.484 41.1406C112.484 41.4896 112.448 41.8203 112.375 42.1328C112.307 42.4453 112.195 42.7422 112.039 43.0234C111.888 43.3047 111.672 43.5286 111.391 43.6953C111.109 43.862 110.779 43.9453 110.398 43.9453ZM129.039 45C129.57 45 129.94 44.6823 130.148 44.0469L132.062 38.2031C132.094 38.1094 132.109 38.0182 132.109 37.9297C132.109 37.7891 132.07 37.6615 131.992 37.5469C131.914 37.4323 131.812 37.349 131.688 37.2969C131.568 37.2396 131.44 37.2109 131.305 37.2109C131.143 37.2109 130.995 37.2552 130.859 37.3438C130.729 37.4323 130.635 37.5651 130.578 37.7422L128.891 43.2266L127.141 38.0859C126.943 37.4922 126.576 37.1953 126.039 37.1953C125.508 37.1953 125.141 37.4922 124.938 38.0859L123.195 43.2266L121.508 37.7422C121.482 37.6536 121.443 37.5755 121.391 37.5078C121.339 37.4349 121.279 37.3776 121.211 37.3359C121.148 37.2943 121.081 37.263 121.008 37.2422C120.935 37.2214 120.859 37.2109 120.781 37.2109C120.568 37.2109 120.378 37.2786 120.211 37.4141C120.049 37.5443 119.969 37.7188 119.969 37.9375C119.969 37.9583 119.969 37.9792 119.969 38C119.974 38.0208 119.977 38.0443 119.977 38.0703C119.982 38.0911 119.987 38.112 119.992 38.1328C120.003 38.1536 120.01 38.1771 120.016 38.2031L121.938 44.0469C122.135 44.6823 122.505 45 123.047 45C123.635 45 124.049 44.6484 124.289 43.9453L126.039 38.8281L127.797 43.9453C128.036 44.6484 128.451 45 129.039 45ZM134.617 45C134.852 45 135.055 44.9245 135.227 44.7734C135.404 44.6172 135.492 44.4089 135.492 44.1484V38.0469C135.492 37.7812 135.406 37.5729 135.234 37.4219C135.068 37.2708 134.87 37.1953 134.641 37.1953C134.406 37.1953 134.203 37.2708 134.031 37.4219C133.859 37.5729 133.773 37.7812 133.773 38.0469V44.1484C133.773 44.4193 133.854 44.6302 134.016 44.7812C134.182 44.9271 134.383 45 134.617 45ZM134.625 35.5625C134.938 35.5625 135.188 35.474 135.375 35.2969C135.568 35.1146 135.664 34.875 135.664 34.5781C135.664 34.2865 135.57 34.0495 135.383 33.8672C135.195 33.6849 134.945 33.5938 134.633 33.5938C134.32 33.5938 134.068 33.6849 133.875 33.8672C133.688 34.0495 133.594 34.2865 133.594 34.5781C133.594 34.875 133.688 35.1146 133.875 35.2969C134.068 35.474 134.318 35.5625 134.625 35.5625ZM140.336 45.0781C140.362 45.0781 140.393 45.0781 140.43 45.0781C140.471 45.0781 140.51 45.0781 140.547 45.0781C140.583 45.0781 140.615 45.0781 140.641 45.0781C140.755 45.0781 140.852 45.0755 140.93 45.0703C141.008 45.0703 141.096 45.0677 141.195 45.0625C141.294 45.0573 141.38 45.0469 141.453 45.0312C141.526 45.0156 141.599 44.9974 141.672 44.9766C141.75 44.9557 141.815 44.9271 141.867 44.8906C141.919 44.8542 141.966 44.8125 142.008 44.7656C142.049 44.7188 142.081 44.6641 142.102 44.6016C142.122 44.5339 142.133 44.4583 142.133 44.375C142.133 44.2604 142.107 44.1536 142.055 44.0547C142.008 43.9557 141.932 43.875 141.828 43.8125C141.729 43.7448 141.609 43.7109 141.469 43.7109C141.448 43.7109 141.43 43.7109 141.414 43.7109L140.844 43.75H140.773C140.56 43.75 140.388 43.6927 140.258 43.5781C140.128 43.4583 140.036 43.2969 139.984 43.0938C139.932 42.8854 139.906 42.625 139.906 42.3125V38.3828H141.273C141.477 38.3828 141.628 38.3333 141.727 38.2344C141.826 38.1302 141.875 37.9974 141.875 37.8359C141.875 37.6745 141.823 37.5417 141.719 37.4375C141.62 37.3281 141.471 37.2734 141.273 37.2734H139.906V35.0547C139.906 34.8359 139.846 34.6745 139.727 34.5703C139.612 34.4609 139.461 34.4062 139.273 34.4062C139.044 34.4062 138.852 34.4766 138.695 34.6172C138.544 34.7526 138.456 34.9323 138.43 35.1562L138.195 37.2734H137.312C137.115 37.2734 136.964 37.3255 136.859 37.4297C136.755 37.5339 136.703 37.6641 136.703 37.8203C136.703 37.9766 136.758 38.1094 136.867 38.2188C136.977 38.3281 137.13 38.3828 137.328 38.3828H138.195V42.7188C138.195 43.4635 138.385 44.0443 138.766 44.4609C139.151 44.8724 139.674 45.0781 140.336 45.0781ZM144.438 45C144.672 45 144.872 44.9271 145.039 44.7812C145.211 44.6354 145.297 44.4323 145.297 44.1719V40.6016C145.297 39.8984 145.503 39.3333 145.914 38.9062C146.326 38.4792 146.818 38.2656 147.391 38.2656C147.854 38.2656 148.229 38.4167 148.516 38.7188C148.807 39.0156 148.953 39.4557 148.953 40.0391V44.1719C148.953 44.4323 149.036 44.6354 149.203 44.7812C149.37 44.9271 149.568 45 149.797 45C150.031 45 150.234 44.9271 150.406 44.7812C150.578 44.6354 150.664 44.4323 150.664 44.1719V40.0703C150.664 39.5599 150.586 39.1094 150.43 38.7188C150.279 38.3281 150.068 38.0182 149.797 37.7891C149.531 37.5547 149.234 37.3802 148.906 37.2656C148.578 37.1458 148.224 37.0859 147.844 37.0859C147.26 37.0859 146.747 37.1927 146.305 37.4062C145.867 37.6146 145.531 37.9036 145.297 38.2734V34.5938C145.297 34.3438 145.211 34.1484 145.039 34.0078C144.872 33.862 144.674 33.7891 144.445 33.7891C144.211 33.7891 144.008 33.862 143.836 34.0078C143.664 34.1484 143.578 34.3438 143.578 34.5938V44.1719C143.578 44.4323 143.661 44.6354 143.828 44.7812C144 44.9271 144.203 45 144.438 45ZM160.039 45.1094C160.628 45.1094 161.143 44.9948 161.586 44.7656C162.034 44.5365 162.367 44.2057 162.586 43.7734V44.2266C162.586 44.4714 162.669 44.6615 162.836 44.7969C163.003 44.9323 163.201 45 163.43 45C163.664 45 163.867 44.9297 164.039 44.7891C164.211 44.6484 164.297 44.4505 164.297 44.1953V38.0156C164.297 37.7552 164.214 37.5547 164.047 37.4141C163.88 37.2682 163.68 37.1953 163.445 37.1953C163.211 37.1953 163.008 37.2682 162.836 37.4141C162.669 37.5599 162.586 37.7604 162.586 38.0156V41.5625C162.576 42.2812 162.367 42.8594 161.961 43.2969C161.555 43.7292 161.073 43.9453 160.516 43.9453C160.036 43.9453 159.651 43.7917 159.359 43.4844C159.073 43.1719 158.93 42.7188 158.93 42.125V38.0156C158.93 37.7552 158.844 37.5547 158.672 37.4141C158.505 37.2682 158.307 37.1953 158.078 37.1953C157.844 37.1953 157.641 37.2682 157.469 37.4141C157.302 37.5547 157.219 37.7552 157.219 38.0156V42.1094C157.219 42.6198 157.294 43.0703 157.445 43.4609C157.596 43.8516 157.802 44.1667 158.062 44.4062C158.328 44.6406 158.628 44.8177 158.961 44.9375C159.294 45.0521 159.654 45.1094 160.039 45.1094ZM167.344 45C167.578 45 167.779 44.9271 167.945 44.7812C168.117 44.6354 168.203 44.4349 168.203 44.1797V40.625C168.208 39.9115 168.411 39.3359 168.812 38.8984C169.214 38.4609 169.693 38.2422 170.25 38.2422C170.729 38.2422 171.117 38.3984 171.414 38.7109C171.711 39.0234 171.859 39.474 171.859 40.0625V44.1797C171.859 44.4401 171.943 44.6432 172.109 44.7891C172.276 44.9297 172.474 45 172.703 45C172.938 45 173.141 44.9297 173.312 44.7891C173.484 44.6432 173.57 44.4401 173.57 44.1797V40.0781C173.57 39.5677 173.495 39.1172 173.344 38.7266C173.193 38.3359 172.984 38.0234 172.719 37.7891C172.453 37.5547 172.151 37.3802 171.812 37.2656C171.479 37.1458 171.12 37.0859 170.734 37.0859C170.141 37.0859 169.625 37.2005 169.188 37.4297C168.75 37.6536 168.422 37.9818 168.203 38.4141V37.9766C168.203 37.7318 168.12 37.5417 167.953 37.4062C167.786 37.2656 167.586 37.1953 167.352 37.1953C167.117 37.1953 166.914 37.2682 166.742 37.4141C166.57 37.5547 166.484 37.75 166.484 38V44.1797C166.484 44.4401 166.568 44.6432 166.734 44.7891C166.906 44.9297 167.109 45 167.344 45ZM178.602 45.1094C179.831 45.1094 180.701 44.6536 181.211 43.7422V44.1719C181.211 44.7188 181.492 44.9922 182.055 44.9922C182.289 44.9922 182.492 44.9193 182.664 44.7734C182.836 44.6276 182.922 44.4271 182.922 44.1719V34.5859C182.922 34.3359 182.839 34.1406 182.672 34C182.505 33.8594 182.305 33.7891 182.07 33.7891C181.836 33.7891 181.633 33.8594 181.461 34C181.294 34.1406 181.211 34.3359 181.211 34.5859V38.375C180.695 37.5156 179.865 37.0859 178.719 37.0859C177.646 37.0859 176.794 37.4505 176.164 38.1797C175.539 38.9089 175.227 39.8646 175.227 41.0469C175.227 41.5885 175.299 42.1042 175.445 42.5938C175.596 43.0781 175.81 43.5078 176.086 43.8828C176.362 44.2578 176.716 44.5573 177.148 44.7812C177.581 45 178.065 45.1094 178.602 45.1094ZM178.992 43.9453C178.685 43.9453 178.409 43.8854 178.164 43.7656C177.919 43.6406 177.721 43.4818 177.57 43.2891C177.424 43.0911 177.302 42.862 177.203 42.6016C177.104 42.3411 177.034 42.0859 176.992 41.8359C176.956 41.5807 176.938 41.3203 176.938 41.0547C176.938 40.7839 176.958 40.5208 177 40.2656C177.042 40.0104 177.112 39.7578 177.211 39.5078C177.315 39.2578 177.445 39.0417 177.602 38.8594C177.758 38.6719 177.956 38.5234 178.195 38.4141C178.44 38.2995 178.716 38.2422 179.023 38.2422C179.409 38.2422 179.745 38.3229 180.031 38.4844C180.323 38.6406 180.549 38.8568 180.711 39.1328C180.878 39.4036 181 39.7031 181.078 40.0312C181.161 40.3542 181.203 40.7005 181.203 41.0703C181.203 42.013 181.034 42.7292 180.695 43.2188C180.362 43.7031 179.794 43.9453 178.992 43.9453ZM188.641 45.1094C189.776 45.1094 190.734 44.7656 191.516 44.0781C191.688 43.9375 191.773 43.7682 191.773 43.5703C191.773 43.4141 191.719 43.276 191.609 43.1562C191.505 43.0365 191.38 42.9766 191.234 42.9766C191.135 42.9766 191.036 43.0104 190.938 43.0781C190.141 43.6406 189.417 43.9219 188.766 43.9219C188.062 43.9167 187.5 43.7188 187.078 43.3281C186.661 42.9323 186.435 42.3203 186.398 41.4922H191.523C191.701 41.4922 191.828 41.4323 191.906 41.3125C191.99 41.1875 192.031 41.0312 192.031 40.8438C192.021 40.3281 191.943 39.8516 191.797 39.4141C191.651 38.9714 191.438 38.5755 191.156 38.2266C190.88 37.8724 190.51 37.5938 190.047 37.3906C189.589 37.1875 189.06 37.0859 188.461 37.0859C187.872 37.0859 187.336 37.1927 186.852 37.4062C186.367 37.6198 185.969 37.9089 185.656 38.2734C185.344 38.638 185.102 39.0573 184.93 39.5312C184.763 40 184.68 40.4974 184.68 41.0234C184.68 42.2839 185.042 43.2786 185.766 44.0078C186.495 44.7318 187.453 45.099 188.641 45.1094ZM186.414 40.4609C186.44 40.1797 186.5 39.9115 186.594 39.6562C186.693 39.401 186.826 39.1667 186.992 38.9531C187.159 38.7396 187.375 38.5677 187.641 38.4375C187.906 38.3073 188.203 38.2422 188.531 38.2422C189.167 38.2422 189.651 38.4531 189.984 38.875C190.318 39.2969 190.508 39.8255 190.555 40.4609H186.414ZM194.547 45C194.781 45 194.984 44.9297 195.156 44.7891C195.333 44.6432 195.422 44.4427 195.422 44.1875V40.5469C195.422 40.1719 195.479 39.8542 195.594 39.5938C195.708 39.3333 195.872 39.1354 196.086 39C196.299 38.8594 196.531 38.7604 196.781 38.7031C197.036 38.6458 197.328 38.6172 197.656 38.6172C197.828 38.6172 197.964 38.5495 198.062 38.4141C198.161 38.2786 198.211 38.1172 198.211 37.9297C198.211 37.8359 198.198 37.7448 198.172 37.6562C198.146 37.5677 198.107 37.4896 198.055 37.4219C198.003 37.349 197.935 37.2917 197.852 37.25C197.768 37.2083 197.674 37.1875 197.57 37.1875C197.065 37.1875 196.609 37.3516 196.203 37.6797C195.802 38.0078 195.534 38.4141 195.398 38.8984L195.422 37.9297C195.427 37.7005 195.346 37.5208 195.18 37.3906C195.013 37.2604 194.812 37.1953 194.578 37.1953C194.427 37.1953 194.286 37.224 194.156 37.2812C194.026 37.3333 193.917 37.4219 193.828 37.5469C193.745 37.6667 193.703 37.8125 193.703 37.9844V44.1875C193.703 44.4479 193.786 44.6484 193.953 44.7891C194.12 44.9297 194.318 45 194.547 45ZM199.562 44.2578C200.177 44.6953 200.927 44.9714 201.812 45.0859C202.062 45.1172 202.31 45.1328 202.555 45.1328C203.003 45.1328 203.414 45.0833 203.789 44.9844C204.169 44.8854 204.5 44.7396 204.781 44.5469C205.062 44.349 205.281 44.0938 205.438 43.7812C205.599 43.4635 205.68 43.1042 205.68 42.7031C205.68 42.1042 205.497 41.625 205.133 41.2656C204.768 40.9062 204.177 40.625 203.359 40.4219L202.094 40.1094C201.604 39.9896 201.279 39.8698 201.117 39.75C200.956 39.625 200.875 39.4219 200.875 39.1406C200.875 38.9167 200.953 38.7318 201.109 38.5859C201.266 38.4401 201.461 38.3385 201.695 38.2812C201.93 38.2188 202.198 38.1875 202.5 38.1875C202.646 38.1875 202.794 38.1979 202.945 38.2188C203.096 38.2344 203.224 38.2526 203.328 38.2734C203.438 38.2943 203.565 38.3255 203.711 38.3672C203.857 38.4089 203.958 38.4401 204.016 38.4609C204.073 38.4818 204.167 38.5182 204.297 38.5703C204.427 38.6172 204.495 38.6406 204.5 38.6406C204.552 38.6562 204.599 38.6693 204.641 38.6797C204.688 38.6901 204.734 38.6953 204.781 38.6953C204.885 38.6953 204.977 38.6719 205.055 38.625C205.138 38.5729 205.201 38.5078 205.242 38.4297C205.284 38.3516 205.305 38.2682 205.305 38.1797C205.305 37.9349 205.18 37.7526 204.93 37.6328C204.159 37.2422 203.318 37.0469 202.406 37.0469C201.255 37.0469 200.404 37.3099 199.852 37.8359C199.477 38.2057 199.289 38.6667 199.289 39.2188C199.289 39.4271 199.307 39.6172 199.344 39.7891C199.385 39.9557 199.438 40.1042 199.5 40.2344C199.568 40.3594 199.659 40.4766 199.773 40.5859C199.893 40.6901 200.013 40.7786 200.133 40.8516C200.253 40.9245 200.406 40.9974 200.594 41.0703C200.786 41.1432 200.966 41.2057 201.133 41.2578C201.299 41.3047 201.51 41.362 201.766 41.4297L203.055 41.7578C203.461 41.862 203.758 42 203.945 42.1719C204.133 42.3385 204.227 42.5521 204.227 42.8125C204.227 43.0833 204.141 43.3125 203.969 43.5C203.797 43.6823 203.581 43.8125 203.32 43.8906C203.06 43.9635 202.766 44 202.438 44C202.135 44 201.836 43.9635 201.539 43.8906C201.242 43.8125 201.005 43.7318 200.828 43.6484C200.651 43.5651 200.458 43.4609 200.25 43.3359C200.12 43.263 199.992 43.2266 199.867 43.2266C199.836 43.2266 199.805 43.2292 199.773 43.2344C199.742 43.2396 199.711 43.2474 199.68 43.2578C199.654 43.2682 199.628 43.2812 199.602 43.2969C199.576 43.3073 199.549 43.3229 199.523 43.3438C199.503 43.3594 199.482 43.3776 199.461 43.3984C199.44 43.4193 199.422 43.4427 199.406 43.4688C199.391 43.4896 199.375 43.513 199.359 43.5391C199.349 43.5651 199.339 43.5911 199.328 43.6172C199.323 43.6432 199.318 43.6719 199.312 43.7031C199.307 43.7292 199.305 43.7578 199.305 43.7891C199.305 43.9766 199.391 44.1328 199.562 44.2578ZM210.164 45.0781C210.19 45.0781 210.221 45.0781 210.258 45.0781C210.299 45.0781 210.339 45.0781 210.375 45.0781C210.411 45.0781 210.443 45.0781 210.469 45.0781C210.583 45.0781 210.68 45.0755 210.758 45.0703C210.836 45.0703 210.924 45.0677 211.023 45.0625C211.122 45.0573 211.208 45.0469 211.281 45.0312C211.354 45.0156 211.427 44.9974 211.5 44.9766C211.578 44.9557 211.643 44.9271 211.695 44.8906C211.747 44.8542 211.794 44.8125 211.836 44.7656C211.878 44.7188 211.909 44.6641 211.93 44.6016C211.951 44.5339 211.961 44.4583 211.961 44.375C211.961 44.2604 211.935 44.1536 211.883 44.0547C211.836 43.9557 211.76 43.875 211.656 43.8125C211.557 43.7448 211.438 43.7109 211.297 43.7109C211.276 43.7109 211.258 43.7109 211.242 43.7109L210.672 43.75H210.602C210.388 43.75 210.216 43.6927 210.086 43.5781C209.956 43.4583 209.865 43.2969 209.812 43.0938C209.76 42.8854 209.734 42.625 209.734 42.3125V38.3828H211.102C211.305 38.3828 211.456 38.3333 211.555 38.2344C211.654 38.1302 211.703 37.9974 211.703 37.8359C211.703 37.6745 211.651 37.5417 211.547 37.4375C211.448 37.3281 211.299 37.2734 211.102 37.2734H209.734V35.0547C209.734 34.8359 209.674 34.6745 209.555 34.5703C209.44 34.4609 209.289 34.4062 209.102 34.4062C208.872 34.4062 208.68 34.4766 208.523 34.6172C208.372 34.7526 208.284 34.9323 208.258 35.1562L208.023 37.2734H207.141C206.943 37.2734 206.792 37.3255 206.688 37.4297C206.583 37.5339 206.531 37.6641 206.531 37.8203C206.531 37.9766 206.586 38.1094 206.695 38.2188C206.805 38.3281 206.958 38.3828 207.156 38.3828H208.023V42.7188C208.023 43.4635 208.214 44.0443 208.594 44.4609C208.979 44.8724 209.503 45.0781 210.164 45.0781ZM215.609 45.1094C216.667 45.1094 217.422 44.6615 217.875 43.7656V44.1875C217.875 44.5417 218.029 44.7865 218.336 44.9219C218.456 44.974 218.581 45 218.711 45C218.94 45 219.138 44.9297 219.305 44.7891C219.471 44.6432 219.555 44.4401 219.555 44.1797V39.8984C219.555 38.9349 219.273 38.2266 218.711 37.7734C218.148 37.3151 217.385 37.0859 216.422 37.0859C215.354 37.0859 214.398 37.2969 213.555 37.7188C213.362 37.8125 213.266 37.9609 213.266 38.1641C213.266 38.3307 213.323 38.4818 213.438 38.6172C213.557 38.7526 213.701 38.8203 213.867 38.8203C213.888 38.8203 213.909 38.8203 213.93 38.8203C213.951 38.8151 213.971 38.8099 213.992 38.8047C214.018 38.7995 214.042 38.7917 214.062 38.7812C214.354 38.6667 214.568 38.5859 214.703 38.5391C214.844 38.487 215.081 38.4245 215.414 38.3516C215.747 38.2734 216.06 38.2344 216.352 38.2344C217.341 38.2344 217.836 38.7448 217.836 39.7656V40.4531C217.357 40.4531 216.951 40.4583 216.617 40.4688C216.284 40.474 215.943 40.4922 215.594 40.5234C215.245 40.5495 214.953 40.5885 214.719 40.6406C214.49 40.6875 214.263 40.7526 214.039 40.8359C213.815 40.9141 213.635 41.013 213.5 41.1328C213.37 41.2474 213.25 41.388 213.141 41.5547C213.036 41.7214 212.961 41.9115 212.914 42.125C212.872 42.3385 212.852 42.5833 212.852 42.8594C212.852 43.5781 213.109 44.1328 213.625 44.5234C214.141 44.9141 214.802 45.1094 215.609 45.1094ZM215.758 43.9922C215.372 43.9922 215.062 43.8958 214.828 43.7031C214.594 43.5052 214.477 43.1979 214.477 42.7812C214.477 42.6302 214.487 42.4974 214.508 42.3828C214.534 42.263 214.576 42.1562 214.633 42.0625C214.69 41.9688 214.758 41.8906 214.836 41.8281C214.919 41.7604 215.029 41.7031 215.164 41.6562C215.305 41.6042 215.453 41.5651 215.609 41.5391C215.766 41.5078 215.961 41.4844 216.195 41.4688C216.435 41.4479 216.677 41.4349 216.922 41.4297C217.172 41.4245 217.474 41.4219 217.828 41.4219V41.625C217.828 42.3125 217.62 42.8802 217.203 43.3281C216.786 43.7708 216.305 43.9922 215.758 43.9922ZM222.562 45C222.797 45 222.997 44.9271 223.164 44.7812C223.336 44.6354 223.422 44.4349 223.422 44.1797V40.625C223.427 39.9115 223.63 39.3359 224.031 38.8984C224.432 38.4609 224.911 38.2422 225.469 38.2422C225.948 38.2422 226.336 38.3984 226.633 38.7109C226.93 39.0234 227.078 39.474 227.078 40.0625V44.1797C227.078 44.4401 227.161 44.6432 227.328 44.7891C227.495 44.9297 227.693 45 227.922 45C228.156 45 228.359 44.9297 228.531 44.7891C228.703 44.6432 228.789 44.4401 228.789 44.1797V40.0781C228.789 39.5677 228.714 39.1172 228.562 38.7266C228.411 38.3359 228.203 38.0234 227.938 37.7891C227.672 37.5547 227.37 37.3802 227.031 37.2656C226.698 37.1458 226.339 37.0859 225.953 37.0859C225.359 37.0859 224.844 37.2005 224.406 37.4297C223.969 37.6536 223.641 37.9818 223.422 38.4141V37.9766C223.422 37.7318 223.339 37.5417 223.172 37.4062C223.005 37.2656 222.805 37.1953 222.57 37.1953C222.336 37.1953 222.133 37.2682 221.961 37.4141C221.789 37.5547 221.703 37.75 221.703 38V44.1797C221.703 44.4401 221.786 44.6432 221.953 44.7891C222.125 44.9297 222.328 45 222.562 45ZM233.82 45.1094C235.049 45.1094 235.919 44.6536 236.43 43.7422V44.1719C236.43 44.7188 236.711 44.9922 237.273 44.9922C237.508 44.9922 237.711 44.9193 237.883 44.7734C238.055 44.6276 238.141 44.4271 238.141 44.1719V34.5859C238.141 34.3359 238.057 34.1406 237.891 34C237.724 33.8594 237.523 33.7891 237.289 33.7891C237.055 33.7891 236.852 33.8594 236.68 34C236.513 34.1406 236.43 34.3359 236.43 34.5859V38.375C235.914 37.5156 235.083 37.0859 233.938 37.0859C232.865 37.0859 232.013 37.4505 231.383 38.1797C230.758 38.9089 230.445 39.8646 230.445 41.0469C230.445 41.5885 230.518 42.1042 230.664 42.5938C230.815 43.0781 231.029 43.5078 231.305 43.8828C231.581 44.2578 231.935 44.5573 232.367 44.7812C232.799 45 233.284 45.1094 233.82 45.1094ZM234.211 43.9453C233.904 43.9453 233.628 43.8854 233.383 43.7656C233.138 43.6406 232.94 43.4818 232.789 43.2891C232.643 43.0911 232.521 42.862 232.422 42.6016C232.323 42.3411 232.253 42.0859 232.211 41.8359C232.174 41.5807 232.156 41.3203 232.156 41.0547C232.156 40.7839 232.177 40.5208 232.219 40.2656C232.26 40.0104 232.331 39.7578 232.43 39.5078C232.534 39.2578 232.664 39.0417 232.82 38.8594C232.977 38.6719 233.174 38.5234 233.414 38.4141C233.659 38.2995 233.935 38.2422 234.242 38.2422C234.628 38.2422 234.964 38.3229 235.25 38.4844C235.542 38.6406 235.768 38.8568 235.93 39.1328C236.096 39.4036 236.219 39.7031 236.297 40.0312C236.38 40.3542 236.422 40.7005 236.422 41.0703C236.422 42.013 236.253 42.7292 235.914 43.2188C235.581 43.7031 235.013 43.9453 234.211 43.9453ZM241.227 45C241.461 45 241.664 44.9245 241.836 44.7734C242.013 44.6172 242.102 44.4089 242.102 44.1484V38.0469C242.102 37.7812 242.016 37.5729 241.844 37.4219C241.677 37.2708 241.479 37.1953 241.25 37.1953C241.016 37.1953 240.812 37.2708 240.641 37.4219C240.469 37.5729 240.383 37.7812 240.383 38.0469V44.1484C240.383 44.4193 240.464 44.6302 240.625 44.7812C240.792 44.9271 240.992 45 241.227 45ZM241.234 35.5625C241.547 35.5625 241.797 35.474 241.984 35.2969C242.177 35.1146 242.273 34.875 242.273 34.5781C242.273 34.2865 242.18 34.0495 241.992 33.8672C241.805 33.6849 241.555 33.5938 241.242 33.5938C240.93 33.5938 240.677 33.6849 240.484 33.8672C240.297 34.0495 240.203 34.2865 240.203 34.5781C240.203 34.875 240.297 35.1146 240.484 35.2969C240.677 35.474 240.927 35.5625 241.234 35.5625ZM245.062 45C245.297 45 245.497 44.9271 245.664 44.7812C245.836 44.6354 245.922 44.4349 245.922 44.1797V40.625C245.927 39.9115 246.13 39.3359 246.531 38.8984C246.932 38.4609 247.411 38.2422 247.969 38.2422C248.448 38.2422 248.836 38.3984 249.133 38.7109C249.43 39.0234 249.578 39.474 249.578 40.0625V44.1797C249.578 44.4401 249.661 44.6432 249.828 44.7891C249.995 44.9297 250.193 45 250.422 45C250.656 45 250.859 44.9297 251.031 44.7891C251.203 44.6432 251.289 44.4401 251.289 44.1797V40.0781C251.289 39.5677 251.214 39.1172 251.062 38.7266C250.911 38.3359 250.703 38.0234 250.438 37.7891C250.172 37.5547 249.87 37.3802 249.531 37.2656C249.198 37.1458 248.839 37.0859 248.453 37.0859C247.859 37.0859 247.344 37.2005 246.906 37.4297C246.469 37.6536 246.141 37.9818 245.922 38.4141V37.9766C245.922 37.7318 245.839 37.5417 245.672 37.4062C245.505 37.2656 245.305 37.1953 245.07 37.1953C244.836 37.1953 244.633 37.2682 244.461 37.4141C244.289 37.5547 244.203 37.75 244.203 38V44.1797C244.203 44.4401 244.286 44.6432 244.453 44.7891C244.625 44.9297 244.828 45 245.062 45ZM256.773 48.4141C257.956 48.4141 258.896 48.1198 259.594 47.5312C260.297 46.9427 260.648 46.0573 260.648 44.875V38.0078C260.648 37.7526 260.568 37.5547 260.406 37.4141C260.245 37.2682 260.057 37.1953 259.844 37.1953C259.646 37.1953 259.469 37.2552 259.312 37.375C259.161 37.4896 259.073 37.651 259.047 37.8594V38.3828C258.87 38.1068 258.685 37.8802 258.492 37.7031C258.305 37.526 258.047 37.3802 257.719 37.2656C257.391 37.1458 257.005 37.0859 256.562 37.0859C255.823 37.0859 255.177 37.263 254.625 37.6172C254.073 37.9714 253.654 38.4531 253.367 39.0625C253.086 39.6719 252.945 40.3672 252.945 41.1484C252.945 42.3099 253.276 43.2422 253.938 43.9453C254.599 44.6484 255.49 45 256.609 45C257.734 45 258.534 44.5651 259.008 43.6953V45C259.008 45.7135 258.797 46.2682 258.375 46.6641C257.958 47.0599 257.383 47.2578 256.648 47.2578C256.419 47.2578 256.188 47.237 255.953 47.1953C255.724 47.1589 255.547 47.1198 255.422 47.0781C255.297 47.0417 255.122 46.9818 254.898 46.8984C254.68 46.8151 254.539 46.763 254.477 46.7422C254.451 46.7318 254.422 46.7214 254.391 46.7109C254.365 46.7057 254.339 46.7005 254.312 46.6953C254.292 46.6953 254.268 46.6953 254.242 46.6953C254.138 46.6953 254.044 46.7214 253.961 46.7734C253.878 46.8307 253.812 46.901 253.766 46.9844C253.724 47.0729 253.703 47.1641 253.703 47.2578C253.703 47.3568 253.727 47.4505 253.773 47.5391C253.826 47.6328 253.901 47.7109 254 47.7734C254.286 47.9505 254.677 48.1016 255.172 48.2266C255.672 48.3516 256.206 48.4141 256.773 48.4141ZM256.867 43.8828C256.242 43.8672 255.716 43.6276 255.289 43.1641C254.867 42.6953 254.656 42.0078 254.656 41.1016C254.656 40.7109 254.698 40.349 254.781 40.0156C254.87 39.6823 255 39.3802 255.172 39.1094C255.344 38.8385 255.576 38.6276 255.867 38.4766C256.164 38.3203 256.505 38.2422 256.891 38.2422C257.276 38.2422 257.607 38.3151 257.883 38.4609C258.164 38.6068 258.383 38.8151 258.539 39.0859C258.701 39.3516 258.818 39.651 258.891 39.9844C258.964 40.3177 259 40.6953 259 41.1172C258.995 42.0495 258.797 42.7422 258.406 43.1953C258.016 43.6484 257.503 43.8776 256.867 43.8828ZM37.8359 67.0781C37.862 67.0781 37.8932 67.0781 37.9297 67.0781C37.9714 67.0781 38.0104 67.0781 38.0469 67.0781C38.0833 67.0781 38.1146 67.0781 38.1406 67.0781C38.2552 67.0781 38.3516 67.0755 38.4297 67.0703C38.5078 67.0703 38.5964 67.0677 38.6953 67.0625C38.7943 67.0573 38.8802 67.0469 38.9531 67.0312C39.026 67.0156 39.099 66.9974 39.1719 66.9766C39.25 66.9557 39.3151 66.9271 39.3672 66.8906C39.4193 66.8542 39.4661 66.8125 39.5078 66.7656C39.5495 66.7188 39.5807 66.6641 39.6016 66.6016C39.6224 66.5339 39.6328 66.4583 39.6328 66.375C39.6328 66.2604 39.6068 66.1536 39.5547 66.0547C39.5078 65.9557 39.4323 65.875 39.3281 65.8125C39.2292 65.7448 39.1094 65.7109 38.9688 65.7109C38.9479 65.7109 38.9297 65.7109 38.9141 65.7109L38.3438 65.75H38.2734C38.0599 65.75 37.888 65.6927 37.7578 65.5781C37.6276 65.4583 37.5365 65.2969 37.4844 65.0938C37.4323 64.8854 37.4062 64.625 37.4062 64.3125V60.3828H38.7734C38.9766 60.3828 39.1276 60.3333 39.2266 60.2344C39.3255 60.1302 39.375 59.9974 39.375 59.8359C39.375 59.6745 39.3229 59.5417 39.2188 59.4375C39.1198 59.3281 38.9714 59.2734 38.7734 59.2734H37.4062V57.0547C37.4062 56.8359 37.3464 56.6745 37.2266 56.5703C37.112 56.4609 36.9609 56.4062 36.7734 56.4062C36.5443 56.4062 36.3516 56.4766 36.1953 56.6172C36.0443 56.7526 35.9557 56.9323 35.9297 57.1562L35.6953 59.2734H34.8125C34.6146 59.2734 34.4635 59.3255 34.3594 59.4297C34.2552 59.5339 34.2031 59.6641 34.2031 59.8203C34.2031 59.9766 34.2578 60.1094 34.3672 60.2188C34.4766 60.3281 34.6302 60.3828 34.8281 60.3828H35.6953V64.7188C35.6953 65.4635 35.8854 66.0443 36.2656 66.4609C36.651 66.8724 37.1745 67.0781 37.8359 67.0781ZM41.9375 67C42.1719 67 42.3724 66.9271 42.5391 66.7812C42.7109 66.6354 42.7969 66.4323 42.7969 66.1719V62.6016C42.7969 61.8984 43.0026 61.3333 43.4141 60.9062C43.8255 60.4792 44.3177 60.2656 44.8906 60.2656C45.3542 60.2656 45.7292 60.4167 46.0156 60.7188C46.3073 61.0156 46.4531 61.4557 46.4531 62.0391V66.1719C46.4531 66.4323 46.5365 66.6354 46.7031 66.7812C46.8698 66.9271 47.0677 67 47.2969 67C47.5312 67 47.7344 66.9271 47.9062 66.7812C48.0781 66.6354 48.1641 66.4323 48.1641 66.1719V62.0703C48.1641 61.5599 48.0859 61.1094 47.9297 60.7188C47.7786 60.3281 47.5677 60.0182 47.2969 59.7891C47.0312 59.5547 46.7344 59.3802 46.4062 59.2656C46.0781 59.1458 45.724 59.0859 45.3438 59.0859C44.7604 59.0859 44.2474 59.1927 43.8047 59.4062C43.3672 59.6146 43.0312 59.9036 42.7969 60.2734V56.5938C42.7969 56.3438 42.7109 56.1484 42.5391 56.0078C42.3724 55.862 42.1745 55.7891 41.9453 55.7891C41.7109 55.7891 41.5078 55.862 41.3359 56.0078C41.1641 56.1484 41.0781 56.3438 41.0781 56.5938V66.1719C41.0781 66.4323 41.1615 66.6354 41.3281 66.7812C41.5 66.9271 41.7031 67 41.9375 67ZM51.1641 67C51.3984 67 51.6016 66.9245 51.7734 66.7734C51.9505 66.6172 52.0391 66.4089 52.0391 66.1484V60.0469C52.0391 59.7812 51.9531 59.5729 51.7812 59.4219C51.6146 59.2708 51.4167 59.1953 51.1875 59.1953C50.9531 59.1953 50.75 59.2708 50.5781 59.4219C50.4062 59.5729 50.3203 59.7812 50.3203 60.0469V66.1484C50.3203 66.4193 50.401 66.6302 50.5625 66.7812C50.7292 66.9271 50.9297 67 51.1641 67ZM51.1719 57.5625C51.4844 57.5625 51.7344 57.474 51.9219 57.2969C52.1146 57.1146 52.2109 56.875 52.2109 56.5781C52.2109 56.2865 52.1172 56.0495 51.9297 55.8672C51.7422 55.6849 51.4922 55.5938 51.1797 55.5938C50.8672 55.5938 50.6146 55.6849 50.4219 55.8672C50.2344 56.0495 50.1406 56.2865 50.1406 56.5781C50.1406 56.875 50.2344 57.1146 50.4219 57.2969C50.6146 57.474 50.8646 57.5625 51.1719 57.5625ZM54.125 66.2578C54.7396 66.6953 55.4896 66.9714 56.375 67.0859C56.625 67.1172 56.8724 67.1328 57.1172 67.1328C57.5651 67.1328 57.9766 67.0833 58.3516 66.9844C58.7318 66.8854 59.0625 66.7396 59.3438 66.5469C59.625 66.349 59.8438 66.0938 60 65.7812C60.1615 65.4635 60.2422 65.1042 60.2422 64.7031C60.2422 64.1042 60.0599 63.625 59.6953 63.2656C59.3307 62.9062 58.7396 62.625 57.9219 62.4219L56.6562 62.1094C56.1667 61.9896 55.8411 61.8698 55.6797 61.75C55.5182 61.625 55.4375 61.4219 55.4375 61.1406C55.4375 60.9167 55.5156 60.7318 55.6719 60.5859C55.8281 60.4401 56.0234 60.3385 56.2578 60.2812C56.4922 60.2188 56.7604 60.1875 57.0625 60.1875C57.2083 60.1875 57.3568 60.1979 57.5078 60.2188C57.6589 60.2344 57.7865 60.2526 57.8906 60.2734C58 60.2943 58.1276 60.3255 58.2734 60.3672C58.4193 60.4089 58.5208 60.4401 58.5781 60.4609C58.6354 60.4818 58.7292 60.5182 58.8594 60.5703C58.9896 60.6172 59.0573 60.6406 59.0625 60.6406C59.1146 60.6562 59.1615 60.6693 59.2031 60.6797C59.25 60.6901 59.2969 60.6953 59.3438 60.6953C59.4479 60.6953 59.5391 60.6719 59.6172 60.625C59.7005 60.5729 59.763 60.5078 59.8047 60.4297C59.8464 60.3516 59.8672 60.2682 59.8672 60.1797C59.8672 59.9349 59.7422 59.7526 59.4922 59.6328C58.7214 59.2422 57.8802 59.0469 56.9688 59.0469C55.8177 59.0469 54.9661 59.3099 54.4141 59.8359C54.0391 60.2057 53.8516 60.6667 53.8516 61.2188C53.8516 61.4271 53.8698 61.6172 53.9062 61.7891C53.9479 61.9557 54 62.1042 54.0625 62.2344C54.1302 62.3594 54.2214 62.4766 54.3359 62.5859C54.4557 62.6901 54.5755 62.7786 54.6953 62.8516C54.8151 62.9245 54.9688 62.9974 55.1562 63.0703C55.349 63.1432 55.5286 63.2057 55.6953 63.2578C55.862 63.3047 56.0729 63.362 56.3281 63.4297L57.6172 63.7578C58.0234 63.862 58.3203 64 58.5078 64.1719C58.6953 64.3385 58.7891 64.5521 58.7891 64.8125C58.7891 65.0833 58.7031 65.3125 58.5312 65.5C58.3594 65.6823 58.1432 65.8125 57.8828 65.8906C57.6224 65.9635 57.3281 66 57 66C56.6979 66 56.3984 65.9635 56.1016 65.8906C55.8047 65.8125 55.5677 65.7318 55.3906 65.6484C55.2135 65.5651 55.0208 65.4609 54.8125 65.3359C54.6823 65.263 54.5547 65.2266 54.4297 65.2266C54.3984 65.2266 54.3672 65.2292 54.3359 65.2344C54.3047 65.2396 54.2734 65.2474 54.2422 65.2578C54.2161 65.2682 54.1901 65.2812 54.1641 65.2969C54.138 65.3073 54.112 65.3229 54.0859 65.3438C54.0651 65.3594 54.0443 65.3776 54.0234 65.3984C54.0026 65.4193 53.9844 65.4427 53.9688 65.4688C53.9531 65.4896 53.9375 65.513 53.9219 65.5391C53.9115 65.5651 53.901 65.5911 53.8906 65.6172C53.8854 65.6432 53.8802 65.6719 53.875 65.7031C53.8698 65.7292 53.8672 65.7578 53.8672 65.7891C53.8672 65.9766 53.9531 66.1328 54.125 66.2578ZM67.3438 69.9766C67.5781 69.9766 67.7786 69.9062 67.9453 69.7656C68.1172 69.625 68.2031 69.4297 68.2031 69.1797V65.8125C68.7188 66.6771 69.5495 67.1094 70.6953 67.1094C71.7682 67.1094 72.6172 66.7448 73.2422 66.0156C73.8672 65.2865 74.1797 64.3307 74.1797 63.1484C74.1797 62.6068 74.1042 62.0938 73.9531 61.6094C73.8073 61.1198 73.5964 60.6875 73.3203 60.3125C73.0443 59.9375 72.6901 59.6406 72.2578 59.4219C71.8255 59.1979 71.3411 59.0859 70.8047 59.0859C69.5807 59.0859 68.7135 59.5417 68.2031 60.4531V60.0156C68.2031 59.7396 68.125 59.5339 67.9688 59.3984C67.8177 59.263 67.612 59.1953 67.3516 59.1953C67.1224 59.1953 66.9193 59.2708 66.7422 59.4219C66.5703 59.5677 66.4844 59.7682 66.4844 60.0234V69.1797C66.4844 69.4297 66.5677 69.625 66.7344 69.7656C66.9062 69.9062 67.1094 69.9766 67.3438 69.9766ZM70.3828 65.9453C70.0026 65.9453 69.6667 65.8672 69.375 65.7109C69.0885 65.5495 68.862 65.3333 68.6953 65.0625C68.5339 64.7917 68.4115 64.4948 68.3281 64.1719C68.25 63.8438 68.2109 63.4948 68.2109 63.125C68.2109 62.1875 68.3776 61.474 68.7109 60.9844C69.0443 60.4896 69.612 60.2422 70.4141 60.2422C70.7214 60.2422 70.9974 60.3047 71.2422 60.4297C71.487 60.5547 71.6823 60.7161 71.8281 60.9141C71.9792 61.1068 72.1042 61.3333 72.2031 61.5938C72.3021 61.8542 72.3698 62.112 72.4062 62.3672C72.4479 62.6224 72.4688 62.8802 72.4688 63.1406C72.4688 63.4896 72.4323 63.8203 72.3594 64.1328C72.2917 64.4453 72.1797 64.7422 72.0234 65.0234C71.8724 65.3047 71.6562 65.5286 71.375 65.6953C71.0938 65.862 70.763 65.9453 70.3828 65.9453ZM76.7812 67C77.0156 67 77.2188 66.9297 77.3906 66.7891C77.5677 66.6432 77.6562 66.4427 77.6562 66.1875V62.5469C77.6562 62.1719 77.7135 61.8542 77.8281 61.5938C77.9427 61.3333 78.1068 61.1354 78.3203 61C78.5339 60.8594 78.7656 60.7604 79.0156 60.7031C79.2708 60.6458 79.5625 60.6172 79.8906 60.6172C80.0625 60.6172 80.1979 60.5495 80.2969 60.4141C80.3958 60.2786 80.4453 60.1172 80.4453 59.9297C80.4453 59.8359 80.4323 59.7448 80.4062 59.6562C80.3802 59.5677 80.3411 59.4896 80.2891 59.4219C80.237 59.349 80.1693 59.2917 80.0859 59.25C80.0026 59.2083 79.9089 59.1875 79.8047 59.1875C79.2995 59.1875 78.8438 59.3516 78.4375 59.6797C78.0365 60.0078 77.7682 60.4141 77.6328 60.8984L77.6562 59.9297C77.6615 59.7005 77.5807 59.5208 77.4141 59.3906C77.2474 59.2604 77.0469 59.1953 76.8125 59.1953C76.6615 59.1953 76.5208 59.224 76.3906 59.2812C76.2604 59.3333 76.151 59.4219 76.0625 59.5469C75.9792 59.6667 75.9375 59.8125 75.9375 59.9844V66.1875C75.9375 66.4479 76.0208 66.6484 76.1875 66.7891C76.3542 66.9297 76.5521 67 76.7812 67ZM85.3594 65.9453C84.6354 65.9453 84.0677 65.6953 83.6562 65.1953C83.25 64.6953 83.0469 64 83.0469 63.1094C83.0469 62.2083 83.25 61.5052 83.6562 61C84.0677 60.4948 84.6354 60.2422 85.3594 60.2422C86.0833 60.2422 86.6484 60.4974 87.0547 61.0078C87.4661 61.513 87.6719 62.2135 87.6719 63.1094C87.6719 64 87.4688 64.6953 87.0625 65.1953C86.6562 65.6953 86.0885 65.9453 85.3594 65.9453ZM85.3594 67.1094C85.8906 67.1094 86.3776 67.0365 86.8203 66.8906C87.263 66.7396 87.638 66.5391 87.9453 66.2891C88.2578 66.0339 88.5208 65.7344 88.7344 65.3906C88.9531 65.0469 89.112 64.6849 89.2109 64.3047C89.3151 63.9193 89.3672 63.5208 89.3672 63.1094C89.3672 62.5677 89.2812 62.0573 89.1094 61.5781C88.9375 61.099 88.6875 60.6719 88.3594 60.2969C88.0365 59.9219 87.6172 59.6276 87.1016 59.4141C86.5859 59.1953 86.0052 59.0859 85.3594 59.0859C84.7083 59.0859 84.1224 59.1979 83.6016 59.4219C83.0807 59.6406 82.6589 59.9401 82.3359 60.3203C82.0182 60.6953 81.7734 61.1224 81.6016 61.6016C81.4349 62.0755 81.3516 62.5781 81.3516 63.1094C81.3516 63.6302 81.4349 64.1276 81.6016 64.6016C81.7682 65.0703 82.0104 65.4948 82.3281 65.875C82.651 66.25 83.0729 66.5495 83.5938 66.7734C84.1146 66.9974 84.7031 67.1094 85.3594 67.1094ZM95.3984 67.1094C95.9349 67.1094 96.4193 67 96.8516 66.7812C97.2839 66.5573 97.638 66.2578 97.9141 65.8828C98.1901 65.5078 98.401 65.0781 98.5469 64.5938C98.6979 64.1042 98.7734 63.5885 98.7734 63.0469C98.7734 61.8646 98.4609 60.9089 97.8359 60.1797C97.2109 59.4505 96.362 59.0859 95.2891 59.0859C94.1432 59.0859 93.3125 59.5156 92.7969 60.375V56.5859C92.7969 56.3359 92.7109 56.1406 92.5391 56C92.3724 55.8594 92.1719 55.7891 91.9375 55.7891C91.7031 55.7891 91.5 55.8594 91.3281 56C91.1615 56.1406 91.0781 56.3359 91.0781 56.5859V66.1719C91.0781 66.4271 91.1641 66.6276 91.3359 66.7734C91.513 66.9193 91.7161 66.9922 91.9453 66.9922C92.2057 66.9922 92.4115 66.9245 92.5625 66.7891C92.7188 66.6536 92.7969 66.4479 92.7969 66.1719V65.7422C93.3073 66.6536 94.1745 67.1094 95.3984 67.1094ZM95.0078 65.9453C94.2057 65.9453 93.638 65.7031 93.3047 65.2188C92.9714 64.7292 92.8047 64.013 92.8047 63.0703C92.8047 62.7005 92.8438 62.3542 92.9219 62.0312C93.0052 61.7031 93.1276 61.4036 93.2891 61.1328C93.4557 60.8568 93.6823 60.6406 93.9688 60.4844C94.2604 60.3229 94.5964 60.2422 94.9766 60.2422C95.3568 60.2422 95.6875 60.3255 95.9688 60.4922C96.25 60.6589 96.4661 60.8854 96.6172 61.1719C96.7734 61.4531 96.8854 61.75 96.9531 62.0625C97.026 62.375 97.0625 62.7057 97.0625 63.0547C97.0625 63.3203 97.0417 63.5807 97 63.8359C96.9635 64.0859 96.8958 64.3411 96.7969 64.6016C96.6979 64.862 96.5729 65.0911 96.4219 65.2891C96.276 65.4818 96.0807 65.6406 95.8359 65.7656C95.5911 65.8854 95.3151 65.9453 95.0078 65.9453ZM101.406 67C101.641 67 101.844 66.9245 102.016 66.7734C102.193 66.6172 102.281 66.4089 102.281 66.1484V56.6406C102.281 56.3802 102.195 56.1745 102.023 56.0234C101.852 55.8672 101.651 55.7891 101.422 55.7891C101.188 55.7891 100.984 55.8646 100.812 56.0156C100.646 56.1667 100.562 56.375 100.562 56.6406V66.1484C100.562 66.4193 100.643 66.6302 100.805 66.7812C100.971 66.9271 101.172 67 101.406 67ZM108 67.1094C109.135 67.1094 110.094 66.7656 110.875 66.0781C111.047 65.9375 111.133 65.7682 111.133 65.5703C111.133 65.4141 111.078 65.276 110.969 65.1562C110.865 65.0365 110.74 64.9766 110.594 64.9766C110.495 64.9766 110.396 65.0104 110.297 65.0781C109.5 65.6406 108.776 65.9219 108.125 65.9219C107.422 65.9167 106.859 65.7188 106.438 65.3281C106.021 64.9323 105.794 64.3203 105.758 63.4922H110.883C111.06 63.4922 111.188 63.4323 111.266 63.3125C111.349 63.1875 111.391 63.0312 111.391 62.8438C111.38 62.3281 111.302 61.8516 111.156 61.4141C111.01 60.9714 110.797 60.5755 110.516 60.2266C110.24 59.8724 109.87 59.5938 109.406 59.3906C108.948 59.1875 108.419 59.0859 107.82 59.0859C107.232 59.0859 106.695 59.1927 106.211 59.4062C105.727 59.6198 105.328 59.9089 105.016 60.2734C104.703 60.638 104.461 61.0573 104.289 61.5312C104.122 62 104.039 62.4974 104.039 63.0234C104.039 64.2839 104.401 65.2786 105.125 66.0078C105.854 66.7318 106.812 67.099 108 67.1094ZM105.773 62.4609C105.799 62.1797 105.859 61.9115 105.953 61.6562C106.052 61.401 106.185 61.1667 106.352 60.9531C106.518 60.7396 106.734 60.5677 107 60.4375C107.266 60.3073 107.562 60.2422 107.891 60.2422C108.526 60.2422 109.01 60.4531 109.344 60.875C109.677 61.2969 109.867 61.8255 109.914 62.4609H105.773ZM113.898 67C114.133 67 114.336 66.9297 114.508 66.7891C114.685 66.6432 114.773 66.4401 114.773 66.1797V62.5781C114.773 61.8594 114.958 61.2917 115.328 60.875C115.698 60.4531 116.193 60.2422 116.812 60.2422C117.312 60.2422 117.701 60.3958 117.977 60.7031C118.253 61.0104 118.391 61.474 118.391 62.0938V66.1719C118.391 66.4323 118.474 66.6354 118.641 66.7812C118.807 66.9271 119.008 67 119.242 67C119.477 67 119.677 66.9271 119.844 66.7812C120.016 66.6354 120.102 66.4323 120.102 66.1719V62.7344C120.102 61.9531 120.292 61.3438 120.672 60.9062C121.057 60.4635 121.552 60.2422 122.156 60.2422C122.661 60.2422 123.049 60.3932 123.32 60.6953C123.596 60.9922 123.734 61.4401 123.734 62.0391V66.1797C123.734 66.4401 123.818 66.6432 123.984 66.7891C124.151 66.9297 124.352 67 124.586 67C124.82 67 125.023 66.9297 125.195 66.7891C125.367 66.6432 125.453 66.4401 125.453 66.1797V62.0703C125.453 61.0703 125.188 60.3229 124.656 59.8281C124.125 59.3333 123.43 59.0859 122.57 59.0859C121.924 59.0859 121.365 59.2318 120.891 59.5234C120.422 59.8151 120.07 60.2526 119.836 60.8359C119.674 60.3151 119.367 59.8932 118.914 59.5703C118.466 59.2474 117.914 59.0859 117.258 59.0859C116.102 59.0859 115.273 59.5521 114.773 60.4844V59.9453C114.773 59.7109 114.688 59.5286 114.516 59.3984C114.344 59.263 114.143 59.1953 113.914 59.1953C113.68 59.1953 113.477 59.2682 113.305 59.4141C113.133 59.5547 113.047 59.75 113.047 60V66.1797C113.047 66.4401 113.13 66.6432 113.297 66.7891C113.469 66.9297 113.669 67 113.898 67Z" fill="white"/>
</svg>
