<svg xmlns="http://www.w3.org/2000/svg" width="147" height="147" fill="none" viewBox="0 0 147 147">
    <circle cx="73.5" cy="73.5" r="73.5" fill="#E0E0E0"/>
    <mask id="prefix__a" width="146" height="147" x="1" y="0" maskUnits="userSpaceOnUse">
        <ellipse cx="74.049" cy="73.5" fill="#F5F5F8" rx="72.951" ry="73.5"/>
    </mask>
    <g mask="url(#prefix__a)">
        <mask id="prefix__b" width="75" height="74" x="63" y="14" maskUnits="userSpaceOnUse">
            <rect width="73.5" height="73.5" x="63.627" y="14.261" fill="#fff" rx="36.75"/>
        </mask>
        <g mask="url(#prefix__b)">
            <path fill="#B5683C" fill-rule="evenodd" d="M127.319 79.234c-2.166-3.134-5.361-5.412-9.029-6.44l-8.522-2.387v-6.125c3.603-2.706 5.968-6.964 6.114-11.781.503.222 1.059.348 1.645.348 2.255 0 4.083-1.828 4.083-4.084 0-2.255-1.828-4.083-4.083-4.083-.582 0-1.133.123-1.634.342v-1.159c0-8.457-6.855-15.312-15.312-15.312-8.457 0-15.313 6.855-15.313 15.312v1.159c-.5-.219-1.052-.342-1.633-.342-2.255 0-4.083 1.828-4.083 4.083s1.828 4.084 4.083 4.084c.586 0 1.142-.126 1.645-.348.145 4.817 2.511 9.075 6.113 11.781v6.125l-8.52 2.387c-3.67 1.028-6.864 3.306-9.03 6.44l-5.929 8.576v6.076h65.334V87.81l-5.929-8.576z" clip-rule="evenodd"/>
            <path fill="#A3420B" fill-rule="evenodd" d="M100.58 67.344c-1.888 0-3.695-.343-5.365-.968 2.375 1.517 5.196 2.398 8.224 2.398 2.258 0 4.399-.493 6.329-1.37v-3.122c-2.559 1.923-5.74 3.063-9.188 3.063z" clip-rule="evenodd"/>
            <path stroke="#00004D" stroke-linecap="round" stroke-linejoin="round" stroke-width="2.194" d="M85.8 49.362c.053-.19.081-.39.081-.596 0-1.24-1.005-2.245-2.246-2.245-.31 0-.605.062-.874.176M115.361 49.362c-.052-.19-.08-.39-.08-.596 0-1.24 1.005-2.245 2.246-2.245.31 0 .605.062.874.176"/>
            <path fill="#fff" fill-rule="evenodd" d="M104.46 57.957c0 2.255-1.828 4.083-4.083 4.083s-4.083-1.828-4.083-4.083h8.166z" clip-rule="evenodd"/>
            <path fill="#00004D" fill-rule="evenodd" d="M108.748 49.378c0 .902-.732 1.633-1.634 1.633-.902 0-1.633-.731-1.633-1.633s.731-1.633 1.633-1.633 1.634.731 1.634 1.633zM95.273 49.378c0 .902-.732 1.633-1.634 1.633-.902 0-1.633-.731-1.633-1.633s.731-1.633 1.633-1.633 1.634.731 1.634 1.633z" clip-rule="evenodd"/>
            <path stroke="#00004D" stroke-linecap="round" stroke-linejoin="round" stroke-width="2.194" d="M100.377 47.745l2.041 6.941-2.858.409"/>
            <path fill="#000" fill-rule="evenodd" d="M107 28.23c.252-.732.391-1.515.391-2.331 0-3.947-3.199-7.146-7.146-7.146-3.946 0-7.146 3.2-7.146 7.146 0 .859.152 1.682.43 2.445-6.195 2.707-10.506 8.966-10.506 16.147v.62c.134-.014.27-.021.408-.021 1.225 0 2.321.542 3.07 1.397l.039-.01 1.225-7.35 1.12 2.8c.31.775 1.06 1.284 1.896 1.284h19.192c.835 0 1.585-.509 1.896-1.284l1.12-2.8 1.225 7.35.037.012c.749-.856 1.845-1.4 3.072-1.4.138 0 .274.008.408.022v-.838c0-7.238-4.432-13.441-10.731-16.044z" clip-rule="evenodd"/>
            <path fill="#B5683C" d="M107.523 62.852H109.76899999999999V69.794H107.523z"/>
            <path fill="#000" fill-rule="evenodd" d="M133.044 87.81l-5.928-8.576c-2.167-3.134-5.361-5.412-9.03-6.44l-8.521-2.387c0 5.074-4.113 9.188-9.187 9.188-5.075 0-9.188-4.114-9.188-9.188l-8.521 2.387c-3.67 1.028-6.863 3.306-9.03 6.44l-5.928 8.576v6.076h65.333V87.81z" clip-rule="evenodd"/>
            <path fill="#B5683C" d="M92.414 56.727H108.747V68.977H92.414z"/>
            <path fill="#AE1328" fill-rule="evenodd" d="M105.685 58.667c0 2.82-2.285 5.105-5.104 5.105s-5.104-2.285-5.104-5.105h10.208z" clip-rule="evenodd"/>
            <path fill="#FB344F" fill-rule="evenodd" d="M103.437 62.897c-.736-.721-1.744-1.168-2.856-1.168-1.113 0-2.12.447-2.857 1.168.816.552 1.798.874 2.857.874 1.058 0 2.041-.322 2.856-.874z" clip-rule="evenodd"/>
            <path fill="#fff" fill-rule="evenodd" d="M103.643 60.3h-6.124c-.564 0-1.021-.457-1.021-1.02v-.613h8.166v.612c0 .564-.457 1.021-1.021 1.021z" clip-rule="evenodd"/>
        </g>
        <mask id="prefix__c" width="76" height="76" x="8" y="-4" maskUnits="userSpaceOnUse">
            <rect width="74.597" height="74.597" x="8.776" y="-3.291" fill="#fff" rx="7.192"/>
        </mask>
        <g mask="url(#prefix__c)">
            <path fill="#E9ADA1" fill-rule="evenodd" d="M73.212 62.652c-2.199-3.18-5.44-5.493-9.164-6.536l-8.649-2.423v-6.216c3.656-2.746 6.057-7.068 6.205-11.957.51.225 1.075.353 1.67.353 2.288 0 4.144-1.856 4.144-4.144 0-2.29-1.856-4.145-4.145-4.145-.59 0-1.15.125-1.657.347v-1.176c0-8.583-6.958-15.54-15.541-15.54-8.584 0-15.541 6.957-15.541 15.54v1.176c-.508-.222-1.068-.347-1.658-.347-2.289 0-4.144 1.856-4.144 4.145 0 2.288 1.855 4.144 4.144 4.144.594 0 1.159-.128 1.67-.353.147 4.889 2.548 9.21 6.204 11.957v6.216l-8.648 2.423c-3.724 1.043-6.966 3.355-9.165 6.536l-6.017 8.704v6.167H79.23v-6.167l-6.017-8.704z" clip-rule="evenodd"/>
            <path fill="#DB8B79" fill-rule="evenodd" d="M46.075 50.585c-1.917 0-3.751-.35-5.446-.984 2.41 1.54 5.274 2.434 8.347 2.434 2.291 0 4.465-.5 6.423-1.39v-3.168c-2.597 1.95-5.826 3.108-9.324 3.108z" clip-rule="evenodd"/>
            <path stroke="#00004D" stroke-linecap="round" stroke-linejoin="round" stroke-width=".36" d="M31.074 32.332c.053-.192.081-.395.081-.604 0-1.26-1.02-2.28-2.279-2.28-.315 0-.614.064-.887.18M61.075 32.332c-.053-.192-.08-.395-.08-.604 0-1.26 1.02-2.28 2.279-2.28.314 0 .614.064.887.18"/>
            <path fill="#fff" fill-rule="evenodd" d="M50.219 41.055c0 2.29-1.855 4.145-4.144 4.145-2.29 0-4.145-1.856-4.145-4.145h8.289z" clip-rule="evenodd"/>
            <path fill="#E9ADA1" d="M37.786 40.223H54.363V52.656H37.786z"/>
            <path stroke="#00004D" stroke-linecap="round" stroke-linejoin="round" stroke-width=".36" d="M48.677 43.022c-.55.87-1.522 1.449-2.629 1.449-1.072 0-2.017-.543-2.576-1.369"/>
            <path fill="#00004D" fill-rule="evenodd" d="M54.57 32.35c0 .915-.742 1.657-1.657 1.657-.916 0-1.658-.742-1.658-1.657 0-.916.742-1.658 1.658-1.658.915 0 1.658.742 1.658 1.658zM40.894 32.35c0 .915-.742 1.657-1.657 1.657-.916 0-1.658-.742-1.658-1.657 0-.916.742-1.658 1.658-1.658.915 0 1.657.742 1.657 1.658z" clip-rule="evenodd"/>
            <path stroke="#00004D" stroke-linecap="round" stroke-linejoin="round" stroke-width=".36" d="M46.075 30.692l2.072 7.045-2.901.415"/>
            <path fill="#533626" fill-rule="evenodd" d="M31.844 28.839c-.371-.382-.815-.691-1.31-.908-.507-.222-1.067-.347-1.657-.347-.14 0-.278.008-.415.021v-.85c0-9.727 7.886-17.613 17.614-17.613 9.727 0 17.613 7.886 17.613 17.613v.85c-.136-.013-.275-.02-.415-.02-.59 0-1.15.124-1.657.346-.537.235-1.011.581-1.4 1.008-7.364-.571-14.009-3.706-19.04-8.516-2.156 3.685-5.42 6.638-9.333 8.416zm4.906 18.637c-3.656-2.747-6.057-7.069-6.204-11.957-.511.225-1.075.352-1.67.352-.14 0-.278-.007-.414-.02v20.163l8.288-2.322v-6.216zm24.854-11.957c-.148 4.889-2.548 9.21-6.204 11.957v6.216l8.288 2.322V35.85c-.136.013-.275.02-.414.02-.595 0-1.159-.127-1.67-.352z" clip-rule="evenodd"/>
            <path fill="#E9ADA1" d="M33.849 28.205h23.208v9.117H33.849v-9.117z"/>
            <path fill="#000" fill-opacity=".6" fill-rule="evenodd" d="M39.443 31.522c-1.001 0-1.863.549-2.245 1.336-.112.23.08.384.264.233.505-.413 1.206-.669 1.981-.669h.05c-.16.21-.256.473-.256.758 0 .686.556 1.243 1.243 1.243s1.243-.557 1.243-1.243c0-.06-.004-.12-.012-.178.001-.046-.007-.098-.026-.152l-.03-.076c-.069-.2-.188-.378-.342-.517-.44-.462-1.143-.735-1.87-.735zM51.462 31.522c-1.002 0-1.863.549-2.246 1.336-.112.23.08.384.265.233.505-.413 1.206-.669 1.98-.669h.05c-.16.21-.256.473-.256.758 0 .686.556 1.243 1.243 1.243s1.243-.557 1.243-1.243c0-.06-.004-.119-.012-.176.002-.047-.006-.1-.026-.154l-.03-.08c-.07-.198-.188-.373-.34-.51-.44-.464-1.143-.738-1.871-.738z" clip-rule="evenodd"/>
            <path fill="#fff" fill-rule="evenodd" d="M79.229 71.355l-6.017-8.704c-2.199-3.18-5.44-5.493-9.165-6.536L55.4 53.692c0 5.15-4.175 9.325-9.324 9.325-5.15 0-9.325-4.175-9.325-9.325l-8.648 2.423c-3.724 1.043-6.966 3.355-9.165 6.536l-6.017 8.704v6.166H79.23v-6.166z" clip-rule="evenodd"/>
            <path fill="#00004D" fill-rule="evenodd" d="M52.913 36.172c-2.057 0-3.73-1.673-3.73-3.73 0-2.574 2.608-2.852 3.73-2.852 1.121 0 3.73.278 3.73 2.852 0 2.057-1.673 3.73-3.73 3.73zm-13.676 0c-2.057 0-3.73-1.673-3.73-3.73 0-2.574 2.608-2.852 3.73-2.852 1.121 0 3.73.278 3.73 2.852 0 2.057-1.673 3.73-3.73 3.73zm19.478-6.039h-1.636l-1.119-.87c-.363-.282-.81-.436-1.272-.436h-3.61c-.492 0-.967.174-1.341.492l-1.59 1.35-1.88-.985c-.12-.063-.264-.063-.385 0l-1.88.985-1.59-1.35c-.374-.318-.849-.492-1.34-.492H37.46c-.46 0-.908.154-1.272.436l-1.118.87h-1.636c-.23 0-.415.186-.415.415v.38c0 .23.186.415.415.415h.414c.343 0 .622.278.622.621v.202c0 2.52 1.92 4.676 4.433 4.847 2.191.15 4.097-1.191 4.805-3.108l.718-1.677c.282-.66.93-1.087 1.648-1.087.717 0 1.365.427 1.648 1.087l.717 1.678c.708 1.916 2.614 3.257 4.805 3.107 2.514-.171 4.434-2.327 4.434-4.847v-.202c0-.343.278-.621.621-.621h.415c.228 0 .414-.186.414-.415v-.38c0-.23-.186-.415-.414-.415z" clip-rule="evenodd"/>
        </g>
        <path fill="#B5683C" fill-rule="evenodd" d="M51.772 104.744c-2.329-3.368-5.761-5.816-9.704-6.92l-9.157-2.566v-6.582c3.87-2.908 6.413-7.484 6.57-12.66.54.238 1.138.373 1.767.373 2.424 0 4.388-1.964 4.388-4.388 0-2.423-1.964-4.388-4.388-4.388-.624 0-1.217.132-1.755.368v-1.245c0-9.089-7.367-16.456-16.455-16.456-9.088 0-16.455 7.367-16.455 16.456v1.245c-.538-.236-1.131-.368-1.756-.368-2.423 0-4.388 1.965-4.388 4.388 0 2.424 1.965 4.388 4.388 4.388.63 0 1.227-.135 1.768-.373.156 5.176 2.699 9.752 6.57 12.66v6.582l-9.157 2.565c-3.943 1.105-7.376 3.553-9.704 6.921l-6.37 9.216v6.529h70.208v-6.529l-6.37-9.216z" clip-rule="evenodd"/>
        <path fill="#A3420B" fill-rule="evenodd" d="M23.038 91.968c-2.03 0-3.972-.37-5.767-1.041 2.553 1.63 5.584 2.577 8.838 2.577 2.427 0 4.728-.53 6.802-1.472v-3.355c-2.75 2.066-6.169 3.291-9.873 3.291z" clip-rule="evenodd"/>
        <path stroke="#00004D" stroke-linecap="round" stroke-linejoin="round" stroke-width="1.201" d="M7.155 72.641c.056-.203.086-.418.086-.64 0-1.333-1.08-2.413-2.413-2.413-.334 0-.651.068-.94.19M38.921 72.641c-.056-.203-.086-.418-.086-.64 0-1.333 1.08-2.413 2.414-2.413.333 0 .65.068.94.19"/>
        <path fill="#fff" fill-rule="evenodd" d="M27.424 81.874c0 2.423-1.964 4.388-4.388 4.388-2.423 0-4.388-1.965-4.388-4.388h8.776z" clip-rule="evenodd"/>
        <path fill="#00004D" fill-rule="evenodd" d="M32.033 72.662c0 .969-.786 1.755-1.755 1.755-.97 0-1.755-.786-1.755-1.755 0-.97.786-1.756 1.755-1.756.97 0 1.755.786 1.755 1.755zM17.552 72.662c0 .969-.786 1.755-1.756 1.755-.969 0-1.755-.786-1.755-1.755 0-.97.786-1.756 1.755-1.756.97 0 1.756.786 1.756 1.755z" clip-rule="evenodd"/>
        <path stroke="#00004D" stroke-linecap="round" stroke-linejoin="round" stroke-width="1.201" d="M23.037 70.906l2.194 7.46-3.072.439"/>
        <path fill="#00004D" fill-rule="evenodd" d="M41.248 67.612c.463 0 .91.074 1.33.207.184-.358.292-.763.292-1.195 0-.98-.536-1.832-1.33-2.285 1.173-.685 1.963-1.954 1.963-3.41 0-1.979-1.459-3.614-3.358-3.9.301-.538.475-1.158.475-1.82 0-2.06-1.67-3.729-3.73-3.729-.767 0-1.48.232-2.073.63l.002-.08c0-2.665-2.162-4.826-4.827-4.826-1.156 0-2.217.407-3.048 1.085-.726-1.422-2.201-2.397-3.907-2.397s-3.18.975-3.907 2.397c-.831-.678-1.892-1.085-3.047-1.085-2.666 0-4.827 2.161-4.827 4.827l.002.079c-.593-.398-1.306-.63-2.074-.63-2.06 0-3.73 1.67-3.73 3.73 0 .66.174 1.281.476 1.82-1.9.285-3.358 1.92-3.358 3.9 0 1.455.79 2.724 1.962 3.409-.794.453-1.33 1.306-1.33 2.285 0 .431.108.836.291 1.195.42-.133.867-.207 1.332-.207 1.502 0 2.827.756 3.618 1.907 2.246-.849 3.906-2.891 4.206-5.355.71.38 1.52.596 2.38.596 2.058 0 3.827-1.232 4.613-2.999.884.839 2.078 1.354 3.393 1.354s2.509-.515 3.394-1.354c.785 1.767 2.554 3 4.612 3 .86 0 1.67-.217 2.38-.597.3 2.464 1.96 4.506 4.207 5.355.79-1.15 2.115-1.907 3.618-1.907z" clip-rule="evenodd"/>
        <path fill="#80C43B" fill-rule="evenodd" d="M58.142 113.959l-6.371-9.216c-2.328-3.368-5.76-5.816-9.704-6.92l-9.157-2.566c0 5.453-4.42 9.873-9.873 9.873-5.453 0-9.873-4.42-9.873-9.873l-9.157 2.566c-3.943 1.104-7.375 3.552-9.704 6.92l-6.37 9.216v6.53h70.209v-6.53z" clip-rule="evenodd"/>
        <g filter="url(#prefix__filter0_d)">
            <path fill="#000" fill-opacity=".7" d="M20.64 73.249c0 2.744-2.253 4.97-6.006 4.97h-.751c-3.754 0-5.255-2.227-5.255-4.97 0-2.745.35-4.97 5.605-4.97h.8c5.256 0 5.606 2.225 5.606 4.97z"/>
            <path fill="url(#prefix__paint0_linear)" d="M20.64 73.249c0 2.744-2.253 4.97-6.006 4.97h-.751c-3.754 0-5.255-2.227-5.255-4.97 0-2.745.35-4.97 5.605-4.97h.8c5.256 0 5.606 2.225 5.606 4.97z" style="mix-blend-mode:screen"/>
            <path fill="#000" fill-opacity=".7" d="M37.449 73.249c0 2.744-2.252 4.97-6.006 4.97h-.75c-3.754 0-5.256-2.227-5.256-4.97 0-2.745.35-4.97 5.606-4.97h.8c5.255 0 5.606 2.225 5.606 4.97z"/>
            <path fill="url(#prefix__paint1_linear)" d="M37.449 73.249c0 2.744-2.252 4.97-6.006 4.97h-.75c-3.754 0-5.256-2.227-5.256-4.97 0-2.745.35-4.97 5.606-4.97h.8c5.255 0 5.606 2.225 5.606 4.97z" style="mix-blend-mode:screen"/>
            <path fill="#252C2F" fill-rule="evenodd" d="M13.883 79.046h.75c4.009 0 6.807-2.384 6.807-5.798 0-2.934-.495-5.798-6.406-5.798h-.8c-5.912 0-6.407 2.864-6.407 5.798 0 3.63 2.264 5.798 6.056 5.798zM9.428 73.25c0-2.314 0-4.142 4.805-4.142h.8c4.806 0 4.806 1.828 4.806 4.142 0 2.438-2.14 4.141-5.205 4.141h-.751c-3.682 0-4.455-2.252-4.455-4.141zM30.692 79.046h.751c4.008 0 6.806-2.384 6.806-5.798 0-2.934-.494-5.798-6.406-5.798h-.8c-5.911 0-6.406 2.864-6.406 5.798 0 3.63 2.264 5.798 6.055 5.798zm-4.454-5.797c0-2.314 0-4.142 4.805-4.142h.8c4.805 0 4.805 1.828 4.805 4.142 0 2.438-2.14 4.141-5.205 4.141h-.75c-3.682 0-4.455-2.252-4.455-4.141z" clip-rule="evenodd"/>
            <path fill="#252C2F" d="M6.229 69.107c.187-.194 2.236-1.657 8.004-1.657 4.837 0 5.86.532 7.41 1.335l.114.06c.107.04.658.238 1.303.26.587-.027 1.09-.195 1.236-.25 1.769-.91 3.5-1.405 7.547-1.405 5.768 0 7.818 1.463 8.005 1.657.443 0 .8.37.8.828v.828c0 .458-.357.829-.8.829 0 0-1.6 0-1.6.828s-.801-1.199-.801-1.657v-.806c-.977-.396-2.724-.85-5.604-.85-3.208 0-4.805.32-6.176.918l.015.04-.681.284.68.285-.6 1.536-.742-.31c-.066-.029-.21-.079-.408-.13-.552-.145-1.12-.189-1.623-.08-.184.04-.355.1-.512.182l-.716.37-.717-1.48.716-.371.002-.001-.686-.287.022-.056c-1.182-.584-2.272-.9-6.184-.9-2.879 0-4.627.454-5.603.85v.806c0 .458-.8 2.485-.8 1.657 0-.828-1.601-.828-1.601-.828-.442 0-.8-.37-.8-.829v-.828c0-.458.358-.828.8-.828z"/>
        </g>
        <path fill="#E9ADA1" fill-rule="evenodd" d="M80.094 130.918c-2.134-3.087-5.28-5.331-8.895-6.344l-8.394-2.351v-6.034c3.548-2.665 5.879-6.86 6.022-11.605.496.218 1.043.342 1.62.342 2.222 0 4.023-1.8 4.023-4.022 0-2.222-1.801-4.022-4.022-4.022-.573 0-1.116.12-1.61.337v-1.142c0-8.33-6.753-15.084-15.083-15.084-8.331 0-15.084 6.753-15.084 15.084v1.142c-.493-.216-1.037-.337-1.61-.337-2.22 0-4.022 1.8-4.022 4.022 0 2.222 1.801 4.022 4.023 4.022.577 0 1.124-.123 1.62-.342.143 4.745 2.474 8.94 6.022 11.605v6.034l-8.394 2.351c-3.614 1.013-6.76 3.257-8.895 6.344l-5.84 8.448v5.985h64.359v-5.985l-5.84-8.448z" clip-rule="evenodd"/>
        <path fill="#DB8B79" fill-rule="evenodd" d="M53.754 119.208c-1.86 0-3.64-.338-5.286-.954 2.34 1.495 5.119 2.362 8.101 2.362 2.225 0 4.334-.485 6.235-1.349v-3.075c-2.52 1.894-5.654 3.016-9.05 3.016z" clip-rule="evenodd"/>
        <path stroke="#00004D" stroke-linecap="round" stroke-linejoin="round" stroke-width=".931" d="M39.195 101.491c.051-.187.079-.384.079-.587 0-1.222-.99-2.212-2.213-2.212-.305 0-.596.062-.86.174M68.313 101.491c-.051-.187-.078-.384-.078-.587 0-1.222.99-2.212 2.212-2.212.305 0 .596.062.861.174"/>
        <path fill="#fff" fill-rule="evenodd" d="M57.776 109.958c0 2.222-1.8 4.022-4.022 4.022-2.222 0-4.023-1.8-4.023-4.022h8.045z" clip-rule="evenodd"/>
        <path fill="#00004D" fill-rule="evenodd" d="M62 101.51c0 .888-.72 1.609-1.61 1.609-.888 0-1.608-.721-1.608-1.609 0-.889.72-1.61 1.609-1.61.888 0 1.609.721 1.609 1.61zM48.726 101.51c0 .888-.72 1.609-1.61 1.609-.888 0-1.608-.721-1.608-1.609 0-.889.72-1.61 1.609-1.61.888 0 1.609.721 1.609 1.61z" clip-rule="evenodd"/>
        <path stroke="#00004D" stroke-linecap="round" stroke-linejoin="round" stroke-width=".931" d="M53.754 99.9l2.01 6.839-2.815.402"/>
        <path fill="#00004D" fill-rule="evenodd" d="M48.999 89.935c-2.093 3.576-5.262 6.442-9.059 8.168-.671-.69-1.587-1.135-2.607-1.203l.528-3.345c.337-2.133 1.093-4.125 2.18-5.892 1.004-1.632 2.292-3.068 3.794-4.245.587-.46 1.206-.881 1.854-1.258 1.82-1.057 3.867-1.767 6.049-2.041.66-.083 1.332-.128 2.015-.128 2.94 0 5.692.792 8.064 2.17 2.307 1.339 4.252 3.233 5.648 5.502 1.087 1.767 1.843 3.76 2.18 5.892l.528 3.34c-1.067.073-2.017.562-2.695 1.305-7.147-.554-13.596-3.597-18.48-8.265zm-4.296 26.252c-3.545-2.667-5.88-6.857-6.022-11.601-.496.219-1.044.343-1.62.343-.338 0-.664-.046-.977-.125L33.64 120.27h11.062v-4.083zm25.743-11.258c-.577 0-1.125-.124-1.62-.343-.144 4.744-2.477 8.934-6.023 11.6v4.083h11.062l-2.443-15.465c-.313.079-.639.125-.976.125z" clip-rule="evenodd"/>
        <path fill="#2384F5" fill-rule="evenodd" d="M85.934 139.367l-5.84-8.448c-2.134-3.087-5.28-5.331-8.895-6.344l-8.394-2.351c0 4.998-4.052 9.05-9.05 9.05-4.999 0-9.05-4.052-9.05-9.05l-8.395 2.351c-3.614 1.013-6.76 3.257-8.895 6.344l-5.84 8.448v5.985h64.359v-5.985z" clip-rule="evenodd"/>
        <path fill="#FFCF83" fill-rule="evenodd" d="M145.076 126.297c-2.306-3.336-5.706-5.762-9.612-6.856l-9.072-2.541v-6.52c3.835-2.881 6.354-7.414 6.508-12.542.536.236 1.128.37 1.752.37 2.4 0 4.347-1.946 4.347-4.347 0-2.4-1.947-4.347-4.347-4.347-.619 0-1.206.131-1.739.364v-1.233c0-9.003-7.298-16.301-16.301-16.301-9.003 0-16.301 7.298-16.301 16.3v1.234c-.533-.233-1.12-.364-1.739-.364-2.4 0-4.347 1.946-4.347 4.347 0 2.401 1.946 4.347 4.347 4.347.623 0 1.215-.133 1.751-.37.155 5.128 2.673 9.661 6.508 12.542v6.52l-9.071 2.541c-3.906 1.094-7.306 3.52-9.613 6.856l-6.31 9.13v6.468h69.551v-6.468l-6.312-9.13z" clip-rule="evenodd"/>
        <path fill="#F7A74F" fill-rule="evenodd" d="M116.612 113.64c-2.01 0-3.934-.366-5.712-1.031 2.529 1.615 5.532 2.552 8.755 2.552 2.404 0 4.684-.524 6.738-1.458v-3.323c-2.725 2.046-6.111 3.26-9.781 3.26z" clip-rule="evenodd"/>
        <path stroke="#00004D" stroke-linecap="round" stroke-linejoin="round" stroke-width="1.151" d="M100.877 94.5c.056-.202.086-.415.086-.635 0-1.32-1.07-2.39-2.391-2.39-.33 0-.645.067-.93.187M132.347 94.5c-.056-.202-.085-.415-.085-.635 0-1.32 1.07-2.39 2.39-2.39.33 0 .645.067.931.187"/>
        <path fill="#fff" fill-rule="evenodd" d="M120.959 103.645c0 2.401-1.946 4.347-4.346 4.347-2.401 0-4.347-1.946-4.347-4.347h8.693z" clip-rule="evenodd"/>
        <path fill="#00004D" fill-rule="evenodd" d="M125.523 94.512c0 .96-.778 1.739-1.738 1.739-.961 0-1.739-.779-1.739-1.739 0-.96.778-1.739 1.739-1.739.96 0 1.738.779 1.738 1.74zM111.178 94.512c0 .96-.778 1.739-1.738 1.739-.961 0-1.739-.779-1.739-1.739 0-.96.778-1.739 1.739-1.739.96 0 1.738.779 1.738 1.74z" clip-rule="evenodd"/>
        <path stroke="#00004D" stroke-linecap="round" stroke-linejoin="round" stroke-width="1.151" d="M116.612 92.773l2.174 7.39-3.043.435"/>
        <path fill="#00004D" fill-rule="evenodd" d="M134 89.57v-.924c0-3.335-.941-6.45-2.569-9.097-1.509-2.453-3.611-4.5-6.104-5.947-2.563-1.488-5.538-2.344-8.715-2.344-3.177 0-6.152.856-8.714 2.344-2.494 1.448-4.596 3.494-6.105 5.947-1.628 2.647-2.569 5.762-2.569 9.097v.924c.907.137 1.722.55 2.354 1.157 2.002-2.01 3.615-4.409 4.712-7.075 3.071 1.66 6.586 2.603 10.322 2.603 3.736 0 7.251-.942 10.322-2.603 1.097 2.666 2.71 5.065 4.713 7.075.632-.606 1.446-1.02 2.353-1.157z" clip-rule="evenodd"/>
        <path fill="#844123" fill-rule="evenodd" d="M129.642 77.847l-2.235-4.663c-1.449-3.023-4.504-4.946-7.856-4.946h-6.018c-3.352 0-6.407 1.923-7.856 4.945l-2.235 4.664c-12.752 2.265-21.746 7.738-21.746 14.13 0 6.229 8.54 11.584 20.777 13.95-1.354-2.296-2.167-4.95-2.252-7.788-.538.238-1.13.371-1.755.371-2.406 0-4.356-1.95-4.356-4.355 0-2.406 1.95-4.356 4.356-4.356.62 0 1.208.131 1.742.365v-.8c0-3.47 7.313-6.283 16.334-6.283s16.334 2.813 16.334 6.282v.8c.534-.233 1.122-.364 1.742-.364 2.406 0 4.356 1.95 4.356 4.356 0 2.405-1.95 4.355-4.356 4.355-.624 0-1.217-.133-1.755-.37-.085 2.837-.898 5.491-2.252 7.787 12.237-2.366 20.777-7.721 20.777-13.95 0-6.392-8.993-11.865-21.746-14.13z" clip-rule="evenodd"/>
        <path fill="#FB344F" fill-rule="evenodd" d="M151.388 135.428l-6.312-9.13c-2.306-3.336-5.706-5.762-9.612-6.856l-9.071-2.541c0 5.402-4.379 9.781-9.781 9.781-5.402 0-9.781-4.379-9.781-9.781l-9.071 2.541c-3.906 1.094-7.306 3.52-9.613 6.856l-6.31 9.13v6.468h69.551v-6.468z" clip-rule="evenodd"/>
    </g>
    <defs>
        <linearGradient id="prefix__paint0_linear" x1="8.628" x2="8.628" y1="68.279" y2="78.218" gradientUnits="userSpaceOnUse">
            <stop stop-color="#fff" stop-opacity=".5"/>
            <stop offset=".705" stop-opacity=".5"/>
        </linearGradient>
        <linearGradient id="prefix__paint1_linear" x1="25.437" x2="25.437" y1="68.279" y2="78.218" gradientUnits="userSpaceOnUse">
            <stop stop-color="#fff" stop-opacity=".5"/>
            <stop offset=".705" stop-opacity=".5"/>
        </linearGradient>
        <filter id="prefix__filter0_d" width="35.22" height="13.489" x="5.428" y="67.45" color-interpolation-filters="sRGB" filterUnits="userSpaceOnUse">
            <feFlood flood-opacity="0" result="BackgroundImageFix"/>
            <feColorMatrix in="SourceAlpha" values="0 0 0 0 0 0 0 0 0 0 0 0 0 0 0 0 0 0 127 0"/>
            <feOffset dy="1.893"/>
            <feColorMatrix values="0 0 0 0 0 0 0 0 0 0 0 0 0 0 0 0 0 0 0.2 0"/>
            <feBlend in2="BackgroundImageFix" result="effect1_dropShadow"/>
            <feBlend in="SourceGraphic" in2="effect1_dropShadow" result="shape"/>
        </filter>
    </defs>
</svg>
