<svg width="406" height="406" viewBox="0 0 406 406" fill="none" xmlns="http://www.w3.org/2000/svg">
<mask id="mask0" mask-type="alpha" maskUnits="userSpaceOnUse" x="0" y="0" width="406" height="406">
<circle cx="203" cy="203" r="203" fill="#C4C4C4"/>
</mask>
<g mask="url(#mask0)">
<path d="M406.262 3.08008H26.4658V382.876H406.262V3.08008Z" fill="#3573D7"/>
<path d="M310.726 -49.3184L120.007 -24.8215L219.055 427.185L478 396.101C478 396.101 444.283 193.016 351.82 173.261C259.358 153.505 310.726 -49.3184 310.726 -49.3184Z" fill="#3066BD"/>
<path d="M306.471 444.226C390.517 327.148 140.604 151.882 97.4191 -25.8561C54.2337 -203.594 0.0908203 462.703 0.0908203 462.703L306.471 444.226Z" fill="#3177E7"/>
<path d="M196.562 410.298L-72 426.482C-72 426.482 0.0968323 179.039 20.8813 58.4596C1.56713 38.6824 -7.3797 19.6643 13.3145 -1.40743C29.2989 -17.6835 29.1917 10.2474 20.8813 58.4596C53.7973 92.164 116.825 128.072 114.563 180.102C110.974 262.663 240.954 348.512 196.562 410.298Z" fill="#346FCD"/>
<path opacity="0.9" d="M326.5 34L136 176L130.5 239.5L336 406C336 406 395.042 358.5 406 213C416.958 67.5 326.5 34 326.5 34Z" fill="#5DCBFD"/>
</g>
<g filter="url(#filter0_d)">
<rect x="223.949" y="120.712" width="78.2828" height="109.011" rx="8" transform="rotate(-5.65328 223.949 120.712)" fill="white"/>
<rect x="223.949" y="120.712" width="78.2828" height="109.011" rx="8" transform="rotate(-5.65328 223.949 120.712)" fill="white"/>
<rect x="231.416" y="130.012" width="64.7235" height="5.17788" transform="rotate(-5.65328 231.416 130.012)" fill="#C4C4C4"/>
<rect x="232.437" y="140.317" width="64.7235" height="5.17788" transform="rotate(-5.65328 232.437 140.317)" fill="#C4C4C4"/>
<rect x="233.457" y="150.622" width="64.7235" height="5.17788" transform="rotate(-5.65328 233.457 150.622)" fill="#C4C4C4"/>
<rect x="234.413" y="160.284" width="64.7235" height="5.17788" transform="rotate(-5.65328 234.413 160.284)" fill="#C4C4C4"/>
<rect x="236.006" y="176.386" width="23.9477" height="5.17788" transform="rotate(-5.65328 236.006 176.386)" fill="#C4C4C4"/>
<rect x="243.468" y="186.054" width="36.2451" height="5.17788" transform="rotate(-5.65328 243.468 186.054)" fill="#C4C4C4"/>
<rect x="244.424" y="195.715" width="36.2451" height="5.17788" transform="rotate(-5.65328 244.424 195.715)" fill="#C4C4C4"/>
<rect x="245.316" y="204.732" width="36.2451" height="5.17788" transform="rotate(-5.65328 245.316 204.732)" fill="#C4C4C4"/>
<rect x="239.768" y="214.387" width="64.7235" height="5.17788" transform="rotate(-5.65328 239.768 214.387)" fill="#C4C4C4"/>
</g>
<g filter="url(#filter1_d)">
<rect x="276.98" y="136.938" width="78.2828" height="109.011" rx="8" transform="rotate(5.40652 276.98 136.938)" fill="white"/>
<rect x="276.98" y="136.938" width="78.2828" height="109.011" rx="8" transform="rotate(5.40652 276.98 136.938)" fill="white"/>
<rect x="282.525" y="147.497" width="64.7235" height="5.17788" transform="rotate(5.40652 282.525 147.497)" fill="#C4C4C4"/>
<rect x="281.549" y="157.807" width="64.7235" height="5.17788" transform="rotate(5.40652 281.549 157.807)" fill="#C4C4C4"/>
<rect x="280.574" y="168.116" width="64.7235" height="5.17788" transform="rotate(5.40652 280.574 168.116)" fill="#C4C4C4"/>
<rect x="279.659" y="177.781" width="64.7235" height="5.17788" transform="rotate(5.40652 279.659 177.781)" fill="#C4C4C4"/>
<rect x="278.134" y="193.891" width="23.9477" height="5.17788" transform="rotate(5.40652 278.134 193.891)" fill="#C4C4C4"/>
<rect x="283.603" y="204.81" width="36.2451" height="5.17788" transform="rotate(5.40652 283.603 204.81)" fill="#C4C4C4"/>
<rect x="282.688" y="214.475" width="36.2451" height="5.17788" transform="rotate(5.40652 282.688 214.475)" fill="#C4C4C4"/>
<rect x="281.834" y="223.496" width="36.2451" height="5.17788" transform="rotate(5.40652 281.834 223.496)" fill="#C4C4C4"/>
<rect x="274.536" y="231.907" width="64.7235" height="5.17788" transform="rotate(5.40652 274.536 231.907)" fill="#C4C4C4"/>
</g>
<g filter="url(#filter2_d)">
<rect x="204" y="188.107" width="78.2828" height="109.011" rx="8" transform="rotate(-13.7379 204 188.107)" fill="white"/>
<rect x="204" y="188.107" width="78.2828" height="109.011" rx="8" transform="rotate(-13.7379 204 188.107)" fill="white"/>
<rect x="212.701" y="196.265" width="64.7235" height="5.17788" transform="rotate(-13.7379 212.701 196.265)" fill="#C4C4C4"/>
<rect x="215.16" y="206.324" width="64.7235" height="5.17788" transform="rotate(-13.7379 215.16 206.324)" fill="#C4C4C4"/>
<rect x="217.619" y="216.384" width="64.7235" height="5.17788" transform="rotate(-13.7379 217.619 216.384)" fill="#C4C4C4"/>
<rect x="219.925" y="225.814" width="64.7235" height="5.17788" transform="rotate(-13.7379 219.925 225.814)" fill="#C4C4C4"/>
<rect x="223.768" y="241.532" width="23.9477" height="5.17788" transform="rotate(-13.7379 223.768 241.532)" fill="#C4C4C4"/>
<rect x="232.514" y="250.055" width="36.2451" height="5.17788" transform="rotate(-13.7379 232.514 250.055)" fill="#C4C4C4"/>
<rect x="234.819" y="259.485" width="36.2451" height="5.17788" transform="rotate(-13.7379 234.819 259.485)" fill="#C4C4C4"/>
<rect x="236.972" y="268.287" width="36.2451" height="5.17788" transform="rotate(-13.7379 236.972 268.287)" fill="#C4C4C4"/>
<rect x="232.836" y="278.627" width="64.7235" height="5.17788" transform="rotate(-13.7379 232.836 278.627)" fill="#C4C4C4"/>
</g>
<g filter="url(#filter3_d)">
<path d="M40.258 174.439C40.2814 173.335 41.1957 172.458 42.3 172.482L135.279 174.453C136.383 174.476 137.26 175.39 137.236 176.495L135.88 240.48C135.856 241.585 134.942 242.461 133.838 242.438L40.8588 240.467C39.7544 240.443 38.8782 239.529 38.9016 238.425L40.258 174.439Z" fill="#1B2A32" stroke="black" stroke-width="4"/>
<rect x="36.9448" y="236.383" width="100" height="2" transform="rotate(1.21443 36.9448 236.383)" fill="black"/>
<rect x="38.2798" y="173.397" width="100" height="2" transform="rotate(1.21443 38.2798 173.397)" fill="black"/>
<path d="M24.9048 238.128L149.877 240.777L149.792 244.776C149.745 246.985 147.917 248.737 145.708 248.691L28.7343 246.211C26.5257 246.164 24.7732 244.336 24.82 242.127L24.9048 238.128Z" fill="#BBBBBB"/>
<path d="M70.8945 239.104L103.887 239.803C103.852 241.459 102.481 242.774 100.824 242.739L73.8303 242.166C72.1738 242.131 70.8594 240.76 70.8945 239.104Z" fill="#717171"/>
</g>
<rect x="42.0415" y="175.022" width="93.1107" height="5.77355" transform="rotate(1.21847 42.0415 175.022)" fill="#37474F"/>
<rect x="119.857" y="177.578" width="13.2115" height="4.01585" rx="2.00793" transform="rotate(1.21847 119.857 177.578)" fill="#49AFD9"/>
<rect x="71.2261" y="184.691" width="34.784" height="47.9718" transform="rotate(1.21847 71.2261 184.691)" fill="white"/>
<rect x="74.1802" y="188.384" width="20.0044" height="1.24042" transform="rotate(1.21847 74.1802 188.384)" fill="#ADBBC4"/>
<rect x="73.9688" y="191.376" width="20.0044" height="1.24042" transform="rotate(1.21847 73.9688 191.376)" fill="#ADBBC4"/>
<rect x="73.7578" y="194.368" width="24.2207" height="1.24042" transform="rotate(1.21847 73.7578 194.368)" fill="#ADBBC4"/>
<defs>
<filter id="filter0_d" x="219.949" y="113" width="96.6405" height="124.192" filterUnits="userSpaceOnUse" color-interpolation-filters="sRGB">
<feFlood flood-opacity="0" result="BackgroundImageFix"/>
<feColorMatrix in="SourceAlpha" type="matrix" values="0 0 0 0 0 0 0 0 0 0 0 0 0 0 0 0 0 0 127 0"/>
<feOffset dy="4"/>
<feGaussianBlur stdDeviation="2"/>
<feColorMatrix type="matrix" values="0 0 0 0 0 0 0 0 0 0 0 0 0 0 0 0 0 0 0.25 0"/>
<feBlend mode="normal" in2="BackgroundImageFix" result="effect1_dropShadow"/>
<feBlend mode="normal" in="SourceGraphic" in2="effect1_dropShadow" result="shape"/>
</filter>
<filter id="filter1_d" x="262.709" y="136.938" width="96.2057" height="123.902" filterUnits="userSpaceOnUse" color-interpolation-filters="sRGB">
<feFlood flood-opacity="0" result="BackgroundImageFix"/>
<feColorMatrix in="SourceAlpha" type="matrix" values="0 0 0 0 0 0 0 0 0 0 0 0 0 0 0 0 0 0 127 0"/>
<feOffset dy="4"/>
<feGaussianBlur stdDeviation="2"/>
<feColorMatrix type="matrix" values="0 0 0 0 0 0 0 0 0 0 0 0 0 0 0 0 0 0 0.25 0"/>
<feBlend mode="normal" in2="BackgroundImageFix" result="effect1_dropShadow"/>
<feBlend mode="normal" in="SourceGraphic" in2="effect1_dropShadow" result="shape"/>
</filter>
<filter id="filter2_d" x="200" y="169.517" width="109.931" height="132.483" filterUnits="userSpaceOnUse" color-interpolation-filters="sRGB">
<feFlood flood-opacity="0" result="BackgroundImageFix"/>
<feColorMatrix in="SourceAlpha" type="matrix" values="0 0 0 0 0 0 0 0 0 0 0 0 0 0 0 0 0 0 127 0"/>
<feOffset dy="4"/>
<feGaussianBlur stdDeviation="2"/>
<feColorMatrix type="matrix" values="0 0 0 0 0 0 0 0 0 0 0 0 0 0 0 0 0 0 0.25 0"/>
<feBlend mode="normal" in2="BackgroundImageFix" result="effect1_dropShadow"/>
<feBlend mode="normal" in="SourceGraphic" in2="effect1_dropShadow" result="shape"/>
</filter>
<filter id="filter3_d" x="16.8188" y="167.481" width="133.058" height="86.2101" filterUnits="userSpaceOnUse" color-interpolation-filters="sRGB">
<feFlood flood-opacity="0" result="BackgroundImageFix"/>
<feColorMatrix in="SourceAlpha" type="matrix" values="0 0 0 0 0 0 0 0 0 0 0 0 0 0 0 0 0 0 127 0"/>
<feOffset dx="-4" dy="1"/>
<feGaussianBlur stdDeviation="2"/>
<feColorMatrix type="matrix" values="0 0 0 0 0 0 0 0 0 0 0 0 0 0 0 0 0 0 0.1 0"/>
<feBlend mode="normal" in2="BackgroundImageFix" result="effect1_dropShadow"/>
<feBlend mode="normal" in="SourceGraphic" in2="effect1_dropShadow" result="shape"/>
</filter>
</defs>
</svg>
