<svg width="251" height="215" viewBox="0 0 251 215" fill="none" xmlns="http://www.w3.org/2000/svg">
<path d="M169.397 9.40788C169.397 9.40788 135.169 52.7629 80.4051 26.902C25.6408 1.041 -29.1237 71.0178 18.0345 113.612C65.1928 156.207 19.0449 179.612 51.0823 205.717C87.495 235.386 119.196 175.222 148.1 188.913C211.891 219.13 259.15 207.168 248.501 172.18C229.809 110.762 205.907 106.767 224.161 74.8208C242.416 42.8749 202.128 -23.5484 169.397 9.40788Z" fill="#5E5F5F"/>
<path d="M150.762 129.316L148.058 143.834L135.178 212.846L111.978 208.514L126.854 128.793L127.561 124.994L150.762 129.316Z" fill="#BFBFC1"/>
<path d="M207.901 94.5985L199.901 137.488C199.877 137.614 199.829 137.734 199.759 137.841C199.69 137.948 199.599 138.04 199.494 138.113C199.388 138.185 199.27 138.236 199.145 138.262C199.019 138.289 198.89 138.29 198.765 138.266L86.3706 117.304L99.5994 46.3759L184.947 62.2943C200.416 65.1788 210.691 79.6389 207.901 94.5985Z" fill="#37393E"/>
<path d="M123.605 80.2052L115.668 122.762L56.6719 111.759L64.6092 69.2018C67.5316 53.533 83.1079 43.2938 99.3989 46.3322C115.69 49.3706 126.528 64.5361 123.605 80.2052Z" fill="#37393E"/>
<path d="M151.071 100.099C146.723 99.2881 143.854 95.0628 144.673 90.675C145.492 86.2871 149.69 83.379 154.038 84.1903C155.424 84.4507 156.716 85.0734 157.783 85.9952C158.85 86.917 159.654 88.105 160.113 89.4383L215.03 99.6809L213.546 107.635L158.629 97.3929C157.721 98.4714 156.543 99.2899 155.215 99.7652C153.887 100.241 152.457 100.356 151.071 100.099V100.099Z" fill="#1E1F22"/>
<path d="M121.648 80.9873L113.914 122.45L58.3379 112.085L66.0718 70.6215C68.919 55.3556 83.6689 45.2999 99.0158 48.1623C114.363 51.0247 124.495 65.7212 121.648 80.9873Z" fill="#18191A"/>
<path d="M152.628 96.0807C154.862 96.0807 156.674 94.2693 156.674 92.0348C156.674 89.8003 154.862 87.9889 152.628 87.9889C150.393 87.9889 148.582 89.8003 148.582 92.0348C148.582 94.2693 150.393 96.0807 152.628 96.0807Z" fill="white"/>
<path d="M215.665 99.6527L210.814 125.662C210.793 125.774 210.728 125.873 210.634 125.938C210.54 126.002 210.424 126.026 210.312 126.006L197.56 123.627C197.538 123.623 197.519 123.61 197.506 123.592C197.493 123.573 197.489 123.55 197.493 123.528L202.407 97.18C202.411 97.1579 202.424 97.1383 202.442 97.1256C202.461 97.1129 202.484 97.1081 202.506 97.1122L215.597 99.5538C215.619 99.5579 215.638 99.5707 215.651 99.5892C215.664 99.6078 215.669 99.6306 215.665 99.6527V99.6527Z" fill="#18191A"/>
<path d="M76.7297 97.2057C77.2667 101.156 81.6014 105.851 81.6014 105.851C74.9963 106.319 71.4192 102.584 69.88 100.314C67.977 100.864 66.0211 101.211 64.0451 101.35C50.485 102.311 38.8117 93.4579 37.9686 81.566C37.1256 69.6742 47.4336 59.263 60.9938 58.302C74.5539 57.3411 86.2264 66.1936 87.0692 78.0856C87.6176 85.8208 83.4437 92.9307 76.7297 97.2057Z" fill="#E4E6EA"/>
<path d="M115.725 122.788C115.111 124.342 103.882 170.646 67.5426 163.868C27.6948 157.122 56.5177 111.745 56.5177 111.745L115.725 122.788Z" fill="#37393E"/>
<path d="M62.5185 83.9053C64.3805 83.9053 65.89 82.3958 65.89 80.5338C65.89 78.6717 64.3805 77.1622 62.5185 77.1622C60.6565 77.1622 59.147 78.6717 59.147 80.5338C59.147 82.3958 60.6565 83.9053 62.5185 83.9053Z" fill="#1E88E5"/>
<path d="M47.4251 82.4351C49.2983 82.4351 50.8169 80.9165 50.8169 79.0432C50.8169 77.1699 49.2983 75.6514 47.4251 75.6514C45.5518 75.6514 44.0332 77.1699 44.0332 79.0432C44.0332 80.9165 45.5518 82.4351 47.4251 82.4351Z" fill="#1E88E5"/>
<path d="M77.468 85.3421C79.3413 85.3421 80.8599 83.8235 80.8599 81.9502C80.8599 80.077 79.3413 78.5584 77.468 78.5584C75.5948 78.5584 74.0762 80.077 74.0762 81.9502C74.0762 83.8235 75.5948 85.3421 77.468 85.3421Z" fill="#1E88E5"/>
<path d="M150.762 129.316L148.058 143.834L126.854 128.793L127.561 124.994L150.762 129.316Z" fill="#242526"/>
</svg>
