<svg width="140" height="144" viewBox="0 0 140 144" fill="none" xmlns="http://www.w3.org/2000/svg">
<path d="M15.1025 62.847C15.1025 62.847 39.4728 61.871 44.7392 21.8115C49.416 -13.7652 90.5106 2.428 102.39 16.6097C117.778 34.981 109.575 66.5833 129.481 70.5756C149.388 74.5679 136.388 118.955 106.172 114.707C68.5829 109.421 77.6772 131.386 66.3933 140.683C58.2951 147.355 25.0894 140.932 23.9827 116.711C23.0514 96.3296 14.454 96.3942 8.3601 94.0832C-0.428727 90.75 -5.96665 66.6107 15.1025 62.847Z" fill="#5E5F5F"/>
<path d="M97.9477 107.336L74.0046 83.6767L69.2636 88.4747L93.2066 112.134L97.9477 107.336Z" fill="#C7D3DA"/>
<path d="M107.094 113.693L88.4662 95.2861C88.3625 95.1836 88.1953 95.1846 88.0929 95.2883L81.0424 102.423C80.9399 102.527 80.9409 102.694 81.0446 102.797L99.6724 121.204C99.7761 121.306 99.9433 121.305 100.046 121.201L107.096 114.066C107.199 113.962 107.198 113.795 107.094 113.693Z" fill="#1E88E5"/>
<path d="M52.7838 95.5754C69.2559 95.5754 82.6092 82.2221 82.6092 65.75C82.6092 49.2779 69.2559 35.9246 52.7838 35.9246C36.3117 35.9246 22.9584 49.2779 22.9584 65.75C22.9584 82.2221 36.3117 95.5754 52.7838 95.5754Z" fill="#0E84E5"/>
<path d="M52.7838 90.7089C66.5682 90.7089 77.7427 79.5344 77.7427 65.75C77.7427 51.9657 66.5682 40.7912 52.7838 40.7912C38.9995 40.7912 27.825 51.9657 27.825 65.75C27.825 79.5344 38.9995 90.7089 52.7838 90.7089Z" fill="#545659"/>
<path d="M43.5774 76.7756C44.4423 75.9106 44.2086 74.2746 43.0554 73.1214C41.9022 71.9682 40.2661 71.7344 39.4012 72.5994C38.5363 73.4643 38.77 75.1003 39.9232 76.2536C41.0764 77.4068 42.7125 77.6405 43.5774 76.7756Z" fill="white"/>
<path d="M63.7249 56.628C64.5899 55.7631 64.3561 54.127 63.2029 52.9738C62.0497 51.8206 60.4137 51.5869 59.5487 52.4518C58.6838 53.3167 58.9175 54.9528 60.0707 56.106C61.224 57.2592 62.86 57.4929 63.7249 56.628Z" fill="white"/>
<path d="M67.3797 67.7087C67.3269 67.7616 67.2615 67.8001 67.1897 67.8208C67.1179 67.8414 67.042 67.8434 66.9692 67.8266C66.9269 67.817 62.5926 66.8891 58.3041 70.518C56.5192 72.0285 55.4143 74.0509 55.0226 76.5279C54.8422 77.627 54.8254 78.7467 54.9728 79.8507C54.9922 79.9653 54.9655 80.0829 54.8985 80.1778C54.8315 80.2728 54.7296 80.3374 54.6152 80.3575C54.5008 80.3776 54.383 80.3517 54.2876 80.2853C54.1922 80.2189 54.127 80.1175 54.1061 80.0032C54.0949 79.9398 53.836 78.429 54.1482 76.4223C54.5632 73.7548 55.8041 71.4809 57.7354 69.8462C62.3747 65.9206 66.9737 66.9245 67.1669 66.9694C67.2434 66.987 67.3138 67.0248 67.3708 67.0789C67.4277 67.1329 67.4692 67.2012 67.4909 67.2766C67.5126 67.3521 67.5137 67.432 67.4941 67.508C67.4745 67.584 67.4349 67.6535 67.3794 67.709L67.3797 67.7087Z" fill="white"/>
<path d="M103.207 38.7876C96.2111 36.52 88.6506 40.3553 86.3737 47.38C84.1061 54.376 87.9413 61.9366 94.9662 64.2134C101.991 66.4902 109.532 62.6173 111.8 55.621C114.068 48.6246 110.203 41.0552 103.207 38.7876ZM101.096 45.3005C101.879 45.5543 102.569 46.035 103.079 46.6816C103.588 47.3282 103.894 48.1115 103.958 48.9322C104.022 49.7529 103.84 50.5741 103.437 51.2915C103.033 52.009 102.425 52.5903 101.691 52.9619C100.956 53.3335 100.128 53.4786 99.3106 53.3787C98.4935 53.2789 97.7245 52.9386 97.101 52.4011C96.4776 51.8635 96.0278 51.1529 95.8088 50.3594C95.5898 49.5659 95.6114 48.7252 95.8708 47.9439C96.5714 45.7825 98.9344 44.5999 101.096 45.3005ZM95.8142 61.5969C93.4899 60.8474 91.4985 59.3131 90.181 57.2568C92.6464 55.8559 95.2243 55.4657 97.5565 56.2217C99.8886 56.9776 101.785 58.7864 102.922 61.3865C100.649 62.279 98.1363 62.3533 95.8142 61.5969Z" fill="#03A9F4"/>
<path d="M44.9771 102.539C43.762 103.159 42.758 104.126 42.0922 105.317C41.4264 106.508 41.1288 107.869 41.2368 109.229C41.3448 110.589 41.8537 111.887 42.6991 112.958C43.5446 114.029 44.6885 114.825 45.9864 115.245C47.2842 115.666 48.6777 115.692 49.9905 115.321C51.3034 114.95 52.4766 114.197 53.3619 113.159C54.2472 112.121 54.8048 110.844 54.9642 109.489C55.1235 108.134 54.8775 106.762 54.2572 105.547C53.424 103.919 51.979 102.688 50.2392 102.124C48.4994 101.56 46.607 101.709 44.9771 102.539ZM46.5838 105.687C46.9623 105.494 47.3896 105.417 47.8116 105.467C48.2336 105.517 48.6312 105.691 48.9541 105.968C49.2769 106.244 49.5104 106.61 49.6249 107.019C49.7394 107.428 49.7298 107.862 49.5973 108.266C49.4648 108.67 49.2154 109.025 48.8806 109.287C48.5459 109.549 48.141 109.705 47.7172 109.737C47.2934 109.768 46.8699 109.673 46.5003 109.463C46.1308 109.253 45.8318 108.938 45.6414 108.558C45.3891 108.052 45.3465 107.467 45.5229 106.929C45.6993 106.391 46.0805 105.945 46.5838 105.687V105.687ZM50.6039 113.563C49.482 114.138 48.1952 114.304 46.9638 114.035C47.3523 112.624 48.1508 111.54 49.2782 110.965C50.4056 110.39 51.7577 110.358 53.1218 110.892C52.6177 112.047 51.7276 112.991 50.6039 113.562V113.563Z" fill="#03A9F4"/>
</svg>
