<svg width="138" height="142" viewBox="0 0 138 142" fill="none" xmlns="http://www.w3.org/2000/svg">
<path d="M15.1889 62.2469C15.1889 62.2469 39.2443 61.2835 44.4427 21.7416C49.0591 -13.3755 89.6228 2.60851 101.348 16.607C116.538 34.7409 108.441 65.935 128.09 69.8757C147.739 73.8164 134.908 117.63 105.081 113.436C67.9784 108.22 76.9551 129.901 65.817 139.077C57.8235 145.663 25.0468 139.323 23.9544 115.415C23.0352 95.2969 14.5488 95.3607 8.53364 93.0795C-0.141629 89.7894 -5.60801 65.962 15.1889 62.2469Z" fill="#37474F"/>
<path d="M96.9638 106.161L73.3301 82.8075L68.6503 87.5435L92.284 110.897L96.9638 106.161Z" fill="#C7D3DA"/>
<path d="M105.992 112.436L87.6048 94.2668C87.5024 94.1657 87.3374 94.1667 87.2363 94.269L80.2769 101.312C80.1757 101.414 80.1767 101.579 80.2791 101.681L98.6662 119.849C98.7686 119.951 98.9336 119.95 99.0347 119.847L105.994 112.804C106.095 112.702 106.094 112.537 105.992 112.436Z" fill="#1E88E5"/>
<path d="M52.3834 94.5524C68.6427 94.5524 81.8235 81.3717 81.8235 65.1124C81.8235 48.8531 68.6427 35.6723 52.3834 35.6723C36.1241 35.6723 22.9434 48.8531 22.9434 65.1124C22.9434 81.3717 36.1241 94.5524 52.3834 94.5524Z" fill="#0E84E5"/>
<path d="M52.3834 89.7488C65.9897 89.7488 77.0198 78.7187 77.0198 65.1124C77.0198 51.5061 65.9897 40.4761 52.3834 40.4761C38.7771 40.4761 27.7471 51.5061 27.7471 65.1124C27.7471 78.7187 38.7771 89.7488 52.3834 89.7488Z" fill="#DAF2FD"/>
<path d="M43.296 75.9955C44.1498 75.1418 43.9191 73.5269 42.7808 72.3885C41.6424 71.2502 40.0275 71.0195 39.1738 71.8733C38.32 72.727 38.5507 74.3419 39.6891 75.4802C40.8274 76.6186 42.4423 76.8493 43.296 75.9955Z" fill="#03A9F4"/>
<path d="M63.1832 56.1082C64.037 55.2545 63.8063 53.6396 62.668 52.5013C61.5296 51.3629 59.9147 51.1323 59.061 51.986C58.2072 52.8398 58.4379 54.4547 59.5763 55.593C60.7146 56.7313 62.3295 56.962 63.1832 56.1082Z" fill="#03A9F4"/>
<path d="M66.791 67.0457C66.7389 67.0979 66.6743 67.136 66.6034 67.1564C66.5325 67.1767 66.4576 67.1787 66.3858 67.1621C66.344 67.1527 62.0657 66.2368 57.8326 69.8188C56.0708 71.3097 54.9802 73.3061 54.5935 75.751C54.4154 76.8359 54.3989 77.9412 54.5444 79.0309C54.5635 79.144 54.5372 79.2601 54.471 79.3538C54.4049 79.4475 54.3044 79.5113 54.1914 79.5311C54.0784 79.551 53.9622 79.5254 53.8681 79.4599C53.7739 79.3943 53.7095 79.2942 53.6889 79.1814C53.6778 79.1188 53.4223 77.6276 53.7304 75.6468C54.1401 73.0137 55.3649 70.7693 57.2713 69.1556C61.8507 65.2808 66.3902 66.2717 66.5809 66.316C66.6564 66.3334 66.7259 66.3707 66.7822 66.4241C66.8384 66.4774 66.8794 66.5448 66.9008 66.6193C66.9222 66.6938 66.9233 66.7726 66.9039 66.8477C66.8846 66.9227 66.8455 66.9912 66.7907 67.0461L66.791 67.0457Z" fill="#03A9F4"/>
<path d="M102.155 38.4984C95.2499 36.26 87.787 40.0457 85.5395 46.9798C83.3012 53.8854 87.0869 61.3482 94.021 63.5956C100.955 65.843 108.398 62.0202 110.637 55.1142C112.876 48.2083 109.061 40.7367 102.155 38.4984ZM100.072 44.9271C100.845 45.1777 101.526 45.6521 102.029 46.2904C102.532 46.9286 102.834 47.7018 102.897 48.5119C102.96 49.322 102.78 50.1326 102.382 50.8407C101.983 51.5489 101.384 52.1227 100.659 52.4895C99.9336 52.8563 99.1159 52.9995 98.3093 52.901C97.5028 52.8024 96.7437 52.4665 96.1283 51.9359C95.5129 51.4053 95.069 50.7039 94.8528 49.9206C94.6366 49.1374 94.6579 48.3075 94.914 47.5364C95.6055 45.4029 97.9379 44.2356 100.072 44.9271ZM94.8581 61.0129C92.5639 60.2731 90.5982 58.7586 89.2977 56.7289C91.7312 55.3462 94.2758 54.961 96.5778 55.7072C98.8799 56.4533 100.752 58.2388 101.874 60.8052C99.6305 61.6862 97.1502 61.7596 94.8581 61.0129Z" fill="#03A9F4"/>
<path d="M44.6778 101.426C43.4783 102.039 42.4873 102.993 41.8301 104.168C41.173 105.344 40.8791 106.688 40.9857 108.03C41.0924 109.373 41.5947 110.653 42.4292 111.71C43.2637 112.767 44.3929 113.553 45.674 113.968C46.9551 114.383 48.3305 114.409 49.6264 114.043C50.9223 113.676 52.0803 112.934 52.9542 111.909C53.8281 110.885 54.3785 109.624 54.5358 108.286C54.6931 106.949 54.4502 105.595 53.838 104.395C53.0155 102.788 51.5892 101.573 49.8718 101.016C48.1545 100.46 46.2865 100.607 44.6778 101.426ZM46.2637 104.533C46.6373 104.342 47.0591 104.267 47.4756 104.316C47.8922 104.366 48.2846 104.538 48.6033 104.81C48.922 105.083 49.1524 105.444 49.2655 105.848C49.3785 106.252 49.369 106.681 49.2382 107.079C49.1075 107.478 48.8612 107.829 48.5308 108.087C48.2004 108.345 47.8007 108.5 47.3824 108.531C46.9641 108.562 46.5461 108.468 46.1813 108.26C45.8165 108.053 45.5214 107.743 45.3335 107.368C45.0844 106.868 45.0424 106.29 45.2165 105.759C45.3906 105.229 45.7669 104.788 46.2637 104.533V104.533ZM50.2319 112.307C49.1245 112.875 47.8542 113.04 46.6388 112.773C47.0223 111.38 47.8105 110.311 48.9233 109.743C50.0361 109.175 51.3707 109.144 52.7172 109.671C52.2196 110.811 51.341 111.743 50.2319 112.307V112.307Z" fill="#03A9F4"/>
</svg>
