<svg width="64" height="64" viewBox="0 0 64 64" fill="none" xmlns="http://www.w3.org/2000/svg">
<circle cx="32" cy="32" r="32" fill="#C45960"/>
<g clip-path="url(#clip0)">
<path d="M27.1922 12C26.969 12.0332 26.7557 12.1152 26.5676 12.24C26.5676 12.24 24.6215 13.4646 22.5292 14.7892C20.4369 16.1123 18.1092 17.5708 17.5769 17.8662C17.544 17.8804 17.5117 17.8958 17.4799 17.9123C15.5476 19.1046 15.1461 21.0523 15.0769 22.1446C15.0722 22.1954 15.0769 22.2369 15.0769 22.2908C15.0599 22.7 15.0769 22.9631 15.0769 22.9631V43.06C15.0769 45.98 18.4815 47.3846 21.7122 47.3846C22.7892 47.3846 23.8661 47.2108 24.7892 46.9031C25.4045 46.5954 25.8461 45.98 25.8461 45.3646V29.2108C25.8461 25.6723 26.6153 24.0108 28.923 22.6262C29.5384 22.3185 35.9907 17.8646 35.9907 17.8646C36.2984 17.5569 36.6153 16.9323 36.6153 16.4708V16.3262C36.6153 15.7108 36.3076 15.24 35.8461 14.9323C35.3846 14.6246 34.7692 14.6246 34.3076 14.9323C34.1538 15.0862 24.7692 21.4046 22.7692 22.4816C20.7692 23.7123 18.903 24.0092 18.4415 23.3939C18.2984 23.2508 18.1738 22.8123 18.1538 22.3846V22.3369V22.2877C18.1553 21.8692 18.263 21.0816 19.1153 20.5569C19.9799 20.0754 22.1261 18.7046 24.2122 17.3846C25.0938 16.8262 25.203 16.7662 25.8938 16.3262C25.9847 16.702 26.2138 17.0298 26.5355 17.2444C26.8573 17.4589 27.248 17.5444 27.6299 17.4839C28.0118 17.4234 28.3569 17.2213 28.5965 16.9178C28.8362 16.6143 28.9527 16.2317 28.923 15.8462V13.5385C28.9247 13.3192 28.8796 13.1021 28.7905 12.9017C28.7015 12.7013 28.5706 12.5222 28.4067 12.3765C28.2428 12.2309 28.0496 12.1219 27.8402 12.057C27.6307 11.992 27.4098 11.9726 27.1922 12ZM39.4999 17.3846C39.2553 17.4253 39.0241 17.5246 38.8261 17.6739C38.8261 17.6739 31.0815 22.8846 29.7399 23.7785C29.7237 23.7945 29.7078 23.8109 29.6922 23.8277C28.5784 24.6631 27.9184 25.6569 27.6245 26.5662C27.4169 27.2108 27.3861 27.7369 27.3845 28.1539V28.6354C27.3823 28.6831 27.3823 28.7308 27.3845 28.7785V47.3846C27.3845 50.3077 30.7507 52 33.8276 52C35.2122 52 36.4615 51.7016 37.3846 51.0862C39.2307 50.0093 48.1538 43.0585 48.1538 43.0585C48.6153 42.7508 48.923 42.3169 48.923 41.8554V21.8554C48.923 21.0862 48.6245 20.6246 48.0092 20.3169C47.5476 20.0092 46.7892 20.1539 46.3276 20.4616C43.8661 22.3077 37.2399 27.52 35.7015 28.4431C33.5476 29.6739 31.5184 29.9816 30.7492 29.2123C30.4415 28.9046 30.4615 28.6154 30.4615 28.1539C30.4707 27.8892 30.4999 27.6616 30.5584 27.48C30.6445 27.2123 30.8199 26.8831 31.4707 26.3754C31.5015 26.3508 31.4861 26.3523 31.5184 26.3277C32.6307 25.5846 36.0322 23.2662 38.2507 21.7585C38.3764 22.0957 38.6163 22.3781 38.9287 22.5567C39.2411 22.7353 39.6062 22.7988 39.9605 22.736C40.3149 22.6733 40.636 22.4883 40.8681 22.2133C41.1001 21.9383 41.2284 21.5906 41.2307 21.2308V18.9231C41.2324 18.7038 41.1872 18.4867 41.0982 18.2863C41.0091 18.0859 40.8783 17.9069 40.7144 17.7612C40.5505 17.6155 40.3573 17.5065 40.1479 17.4416C39.9384 17.3766 39.7175 17.3572 39.4999 17.3846ZM45.8461 28.6354V31.7123L38.1538 37.6723V34.5954L45.8461 28.6354Z" fill="white"/>
</g>
<defs>
<clipPath id="clip0">
<rect width="40" height="40" fill="white" transform="translate(12 12)"/>
</clipPath>
</defs>
</svg>