<svg width="695" height="435" viewBox="0 0 695 435" fill="none" xmlns="http://www.w3.org/2000/svg">
<g filter="url(#filter0_d)">
<g clip-path="url(#clip0)">
<rect x="8" width="679" height="419" rx="8" fill="#18191A"/>
<rect x="213" y="103" width="394" height="197" rx="8" fill="#242526"/>
<path d="M220.82 89.18C219.46 89.18 218.267 88.8867 217.24 88.3C216.227 87.7133 215.447 86.8733 214.9 85.78C214.353 84.6867 214.08 83.4067 214.08 81.94C214.08 80.4733 214.353 79.2 214.9 78.12C215.447 77.0267 216.227 76.1867 217.24 75.6C218.267 75.0133 219.46 74.72 220.82 74.72C221.7 74.72 222.527 74.8533 223.3 75.12C224.073 75.3733 224.76 75.7467 225.36 76.24C225.533 76.3733 225.653 76.5133 225.72 76.66C225.787 76.8067 225.82 76.9867 225.82 77.2C225.82 77.4933 225.74 77.74 225.58 77.94C225.42 78.14 225.227 78.24 225 78.24C224.733 78.24 224.46 78.1467 224.18 77.96C223.607 77.5333 223.073 77.24 222.58 77.08C222.087 76.9067 221.54 76.82 220.94 76.82C219.553 76.82 218.5 77.2533 217.78 78.12C217.073 78.9867 216.72 80.26 216.72 81.94C216.72 83.6333 217.073 84.9133 217.78 85.78C218.5 86.6467 219.553 87.08 220.94 87.08C221.513 87.08 222.04 86.9933 222.52 86.82C223.013 86.6467 223.567 86.3533 224.18 85.94C224.313 85.86 224.447 85.7933 224.58 85.74C224.713 85.6867 224.853 85.66 225 85.66C225.227 85.66 225.42 85.76 225.58 85.96C225.74 86.16 225.82 86.4067 225.82 86.7C225.82 86.9 225.787 87.08 225.72 87.24C225.653 87.3867 225.533 87.5267 225.36 87.66C224.76 88.1533 224.073 88.5333 223.3 88.8C222.527 89.0533 221.7 89.18 220.82 89.18ZM229.095 89.12C228.735 89.12 228.435 89.02 228.195 88.82C227.968 88.6067 227.855 88.3067 227.855 87.92V75.98C227.855 75.5933 227.968 75.3 228.195 75.1C228.435 74.9 228.735 74.8 229.095 74.8C229.455 74.8 229.755 74.9 229.995 75.1C230.235 75.3 230.355 75.5933 230.355 75.98V87.92C230.355 88.3067 230.235 88.6067 229.995 88.82C229.755 89.02 229.455 89.12 229.095 89.12ZM237.173 78.98C238.533 78.98 239.539 79.32 240.193 80C240.859 80.6667 241.193 81.6867 241.193 83.06V87.94C241.193 88.3 241.086 88.5867 240.873 88.8C240.659 89 240.366 89.1 239.993 89.1C239.646 89.1 239.359 88.9933 239.133 88.78C238.919 88.5667 238.813 88.2867 238.813 87.94V87.5C238.586 88.02 238.226 88.4267 237.733 88.72C237.253 89.0133 236.693 89.16 236.053 89.16C235.399 89.16 234.806 89.0267 234.273 88.76C233.739 88.4933 233.319 88.1267 233.013 87.66C232.706 87.1933 232.553 86.6733 232.553 86.1C232.553 85.38 232.733 84.8133 233.093 84.4C233.466 83.9867 234.066 83.6867 234.893 83.5C235.719 83.3133 236.859 83.22 238.313 83.22H238.813V82.76C238.813 82.1067 238.673 81.6333 238.393 81.34C238.113 81.0333 237.659 80.88 237.033 80.88C236.646 80.88 236.253 80.94 235.853 81.06C235.453 81.1667 234.979 81.3267 234.433 81.54C234.086 81.7133 233.833 81.8 233.673 81.8C233.433 81.8 233.233 81.7133 233.073 81.54C232.926 81.3667 232.853 81.14 232.853 80.86C232.853 80.6333 232.906 80.44 233.013 80.28C233.133 80.1067 233.326 79.9467 233.593 79.8C234.059 79.5467 234.613 79.3467 235.253 79.2C235.906 79.0533 236.546 78.98 237.173 78.98ZM236.553 87.36C237.219 87.36 237.759 87.14 238.173 86.7C238.599 86.2467 238.813 85.6667 238.813 84.96V84.54H238.453C237.559 84.54 236.866 84.58 236.373 84.66C235.879 84.74 235.526 84.88 235.313 85.08C235.099 85.28 234.993 85.5533 234.993 85.9C234.993 86.3267 235.139 86.68 235.433 86.96C235.739 87.2267 236.113 87.36 236.553 87.36ZM247.274 89.16C245.82 89.16 244.647 88.8733 243.754 88.3C243.327 88.0467 243.114 87.6867 243.114 87.22C243.114 86.9533 243.187 86.74 243.334 86.58C243.48 86.4067 243.66 86.32 243.874 86.32C244.1 86.32 244.414 86.4267 244.814 86.64C245.24 86.84 245.627 86.9933 245.974 87.1C246.334 87.2067 246.787 87.26 247.334 87.26C247.894 87.26 248.327 87.1667 248.634 86.98C248.954 86.7933 249.114 86.5333 249.114 86.2C249.114 85.9733 249.047 85.7933 248.914 85.66C248.794 85.5267 248.567 85.4067 248.234 85.3C247.914 85.18 247.42 85.0467 246.754 84.9C245.567 84.66 244.714 84.32 244.194 83.88C243.687 83.44 243.434 82.8333 243.434 82.06C243.434 81.4733 243.607 80.9467 243.954 80.48C244.3 80 244.774 79.6333 245.374 79.38C245.987 79.1133 246.68 78.98 247.454 78.98C248.014 78.98 248.554 79.0533 249.074 79.2C249.594 79.3333 250.06 79.5333 250.474 79.8C250.9 80.0667 251.114 80.42 251.114 80.86C251.114 81.1267 251.04 81.3533 250.894 81.54C250.747 81.7133 250.567 81.8 250.354 81.8C250.207 81.8 250.06 81.7733 249.914 81.72C249.78 81.6533 249.607 81.56 249.394 81.44C249.007 81.24 248.674 81.0933 248.394 81C248.114 80.8933 247.767 80.84 247.354 80.84C246.86 80.84 246.467 80.94 246.174 81.14C245.894 81.34 245.754 81.6133 245.754 81.96C245.754 82.2933 245.9 82.5467 246.194 82.72C246.487 82.8933 247.054 83.0667 247.894 83.24C248.787 83.4267 249.487 83.64 249.994 83.88C250.5 84.12 250.86 84.42 251.074 84.78C251.3 85.14 251.414 85.6 251.414 86.16C251.414 87.0667 251.034 87.7933 250.274 88.34C249.527 88.8867 248.527 89.16 247.274 89.16ZM256.981 89.16C255.527 89.16 254.354 88.8733 253.461 88.3C253.034 88.0467 252.821 87.6867 252.821 87.22C252.821 86.9533 252.894 86.74 253.041 86.58C253.187 86.4067 253.367 86.32 253.581 86.32C253.807 86.32 254.121 86.4267 254.521 86.64C254.947 86.84 255.334 86.9933 255.681 87.1C256.041 87.2067 256.494 87.26 257.041 87.26C257.601 87.26 258.034 87.1667 258.341 86.98C258.661 86.7933 258.821 86.5333 258.821 86.2C258.821 85.9733 258.754 85.7933 258.621 85.66C258.501 85.5267 258.274 85.4067 257.941 85.3C257.621 85.18 257.127 85.0467 256.461 84.9C255.274 84.66 254.421 84.32 253.901 83.88C253.394 83.44 253.141 82.8333 253.141 82.06C253.141 81.4733 253.314 80.9467 253.661 80.48C254.007 80 254.481 79.6333 255.081 79.38C255.694 79.1133 256.387 78.98 257.161 78.98C257.721 78.98 258.261 79.0533 258.781 79.2C259.301 79.3333 259.767 79.5333 260.181 79.8C260.607 80.0667 260.821 80.42 260.821 80.86C260.821 81.1267 260.747 81.3533 260.601 81.54C260.454 81.7133 260.274 81.8 260.061 81.8C259.914 81.8 259.767 81.7733 259.621 81.72C259.487 81.6533 259.314 81.56 259.101 81.44C258.714 81.24 258.381 81.0933 258.101 81C257.821 80.8933 257.474 80.84 257.061 80.84C256.567 80.84 256.174 80.94 255.881 81.14C255.601 81.34 255.461 81.6133 255.461 81.96C255.461 82.2933 255.607 82.5467 255.901 82.72C256.194 82.8933 256.761 83.0667 257.601 83.24C258.494 83.4267 259.194 83.64 259.701 83.88C260.207 84.12 260.567 84.42 260.781 84.78C261.007 85.14 261.121 85.6 261.121 86.16C261.121 87.0667 260.741 87.7933 259.981 88.34C259.234 88.8867 258.234 89.16 256.981 89.16ZM270.077 89.12C269.691 89.12 269.377 89 269.137 88.76C268.911 88.52 268.797 88.2067 268.797 87.82V76.12C268.797 75.7333 268.904 75.4333 269.117 75.22C269.344 75.0067 269.651 74.9 270.037 74.9H277.057C277.871 74.9 278.277 75.2467 278.277 75.94C278.277 76.62 277.871 76.96 277.057 76.96H271.337V80.8H276.657C277.471 80.8 277.877 81.1467 277.877 81.84C277.877 82.52 277.471 82.86 276.657 82.86H271.337V87.82C271.337 88.2067 271.224 88.52 270.997 88.76C270.771 89 270.464 89.12 270.077 89.12ZM287.45 86.32C287.677 86.32 287.857 86.4067 287.99 86.58C288.137 86.7533 288.21 86.9867 288.21 87.28C288.21 87.6933 287.963 88.04 287.47 88.32C287.017 88.5733 286.503 88.78 285.93 88.94C285.357 89.0867 284.81 89.16 284.29 89.16C282.717 89.16 281.47 88.7067 280.55 87.8C279.63 86.8933 279.17 85.6533 279.17 84.08C279.17 83.08 279.37 82.1933 279.77 81.42C280.17 80.6467 280.73 80.0467 281.45 79.62C282.183 79.1933 283.01 78.98 283.93 78.98C284.81 78.98 285.577 79.1733 286.23 79.56C286.883 79.9467 287.39 80.4933 287.75 81.2C288.11 81.9067 288.29 82.74 288.29 83.7C288.29 84.2733 288.037 84.56 287.53 84.56H281.63C281.71 85.48 281.97 86.16 282.41 86.6C282.85 87.0267 283.49 87.24 284.33 87.24C284.757 87.24 285.13 87.1867 285.45 87.08C285.783 86.9733 286.157 86.8267 286.57 86.64C286.97 86.4267 287.263 86.32 287.45 86.32ZM283.99 80.74C283.31 80.74 282.763 80.9533 282.35 81.38C281.95 81.8067 281.71 82.42 281.63 83.22H286.15C286.123 82.4067 285.923 81.7933 285.55 81.38C285.177 80.9533 284.657 80.74 283.99 80.74ZM298.075 86.32C298.302 86.32 298.482 86.4067 298.615 86.58C298.762 86.7533 298.835 86.9867 298.835 87.28C298.835 87.6933 298.588 88.04 298.095 88.32C297.642 88.5733 297.128 88.78 296.555 88.94C295.982 89.0867 295.435 89.16 294.915 89.16C293.342 89.16 292.095 88.7067 291.175 87.8C290.255 86.8933 289.795 85.6533 289.795 84.08C289.795 83.08 289.995 82.1933 290.395 81.42C290.795 80.6467 291.355 80.0467 292.075 79.62C292.808 79.1933 293.635 78.98 294.555 78.98C295.435 78.98 296.202 79.1733 296.855 79.56C297.508 79.9467 298.015 80.4933 298.375 81.2C298.735 81.9067 298.915 82.74 298.915 83.7C298.915 84.2733 298.662 84.56 298.155 84.56H292.255C292.335 85.48 292.595 86.16 293.035 86.6C293.475 87.0267 294.115 87.24 294.955 87.24C295.382 87.24 295.755 87.1867 296.075 87.08C296.408 86.9733 296.782 86.8267 297.195 86.64C297.595 86.4267 297.888 86.32 298.075 86.32ZM294.615 80.74C293.935 80.74 293.388 80.9533 292.975 81.38C292.575 81.8067 292.335 82.42 292.255 83.22H296.775C296.748 82.4067 296.548 81.7933 296.175 81.38C295.802 80.9533 295.282 80.74 294.615 80.74ZM309.12 74.8C309.493 74.8 309.8 74.9067 310.04 75.12C310.28 75.3333 310.4 75.6133 310.4 75.96V87.92C310.4 88.28 310.287 88.5667 310.06 88.78C309.833 88.9933 309.533 89.1 309.16 89.1C308.787 89.1 308.487 88.9933 308.26 88.78C308.033 88.5667 307.92 88.28 307.92 87.92V87.42C307.627 87.9667 307.2 88.3933 306.64 88.7C306.093 89.0067 305.467 89.16 304.76 89.16C303.92 89.16 303.167 88.9467 302.5 88.52C301.847 88.0933 301.333 87.4933 300.96 86.72C300.6 85.9333 300.42 85.0333 300.42 84.02C300.42 83.0067 300.6 82.12 300.96 81.36C301.333 80.6 301.847 80.0133 302.5 79.6C303.153 79.1867 303.907 78.98 304.76 78.98C305.467 78.98 306.093 79.1267 306.64 79.42C307.187 79.7133 307.607 80.1267 307.9 80.66V75.92C307.9 75.5867 308.007 75.32 308.22 75.12C308.447 74.9067 308.747 74.8 309.12 74.8ZM305.42 87.22C306.22 87.22 306.833 86.9467 307.26 86.4C307.7 85.8533 307.92 85.0733 307.92 84.06C307.92 83.0467 307.7 82.2733 307.26 81.74C306.833 81.1933 306.227 80.92 305.44 80.92C304.64 80.92 304.02 81.1867 303.58 81.72C303.14 82.2533 302.92 83.02 302.92 84.02C302.92 85.0333 303.14 85.82 303.58 86.38C304.02 86.94 304.633 87.22 305.42 87.22Z" fill="#E9ECEF"/>
<rect x="229" y="126" width="90" height="7" rx="2" fill="#C7D3DA"/>
<rect x="229" y="176" width="180" height="7" rx="2" fill="#C7D3DA"/>
<rect x="229" y="196" width="360" height="7" rx="2" fill="#C7D3DA"/>
<rect x="229" y="236" width="360" height="7" rx="2" fill="#C7D3DA"/>
<rect x="229" y="256" width="270" height="7" rx="2" fill="#C7D3DA"/>
<rect x="229" y="142" width="58" height="7" rx="2" fill="#C7D3DA"/>
<rect x="212" y="320" width="394" height="197" rx="8" fill="#242526"/>
<rect x="228" y="343" width="90" height="7" rx="2" fill="#C7D3DA"/>
<rect x="228" y="393" width="180" height="7" rx="2" fill="#C7D3DA"/>
<rect x="228" y="413" width="360" height="7" rx="2" fill="#C7D3DA"/>
<rect x="228" y="359" width="58" height="7" rx="2" fill="#C7D3DA"/>
<rect x="8" width="679" height="44" fill="#37393E"/>
<path fill-rule="evenodd" clip-rule="evenodd" d="M26.9406 24.4509C28.5647 24.4509 29.8812 23.0993 29.8812 21.432C29.8812 19.7648 28.5647 18.4132 26.9406 18.4132C25.3166 18.4132 24 19.7648 24 21.432C24 23.0993 25.3166 24.4509 26.9406 24.4509Z" fill="#81D4F9"/>
<path fill-rule="evenodd" clip-rule="evenodd" d="M32.9948 30.6658C34.6189 30.6658 35.9354 29.3142 35.9354 27.6469C35.9354 25.9797 34.6189 24.6281 32.9948 24.6281C31.3707 24.6281 30.0542 25.9797 30.0542 27.6469C30.0542 29.3142 31.3707 30.6658 32.9948 30.6658Z" fill="#C0E9FC"/>
<path fill-rule="evenodd" clip-rule="evenodd" d="M38.876 24.4509C40.5001 24.4509 41.8166 23.0993 41.8166 21.432C41.8166 19.7648 40.5001 18.4132 38.876 18.4132C37.252 18.4132 35.9354 19.7648 35.9354 21.432C35.9354 23.0993 37.252 24.4509 38.876 24.4509Z" fill="#03A9F4"/>
<path fill-rule="evenodd" clip-rule="evenodd" d="M32.9948 18.4133C34.6189 18.4133 35.9354 17.0617 35.9354 15.3944C35.9354 13.7271 34.6189 12.3755 32.9948 12.3755C31.3707 12.3755 30.0542 13.7271 30.0542 15.3944C30.0542 17.0617 31.3707 18.4133 32.9948 18.4133Z" fill="#4EC2F7"/>
<path d="M58.5216 24.6186C58.339 24.8952 58.1159 25.1566 57.8524 25.4025C57.5988 25.6484 57.2996 25.8636 56.9547 26.0481C56.6202 26.2325 56.245 26.3759 55.8292 26.4784C55.4237 26.5911 54.9775 26.6475 54.4907 26.6475C53.6795 26.6475 52.9292 26.504 52.2396 26.2171C51.55 25.9302 50.9568 25.5357 50.46 25.0336C49.9632 24.5213 49.5728 23.9167 49.2888 23.2199C49.0151 22.5231 48.8782 21.7597 48.8782 20.9297C48.8782 20.0997 49.0201 19.3363 49.304 18.6395C49.588 17.9427 49.9784 17.3432 50.4752 16.8411C50.9823 16.3288 51.5754 15.9291 52.2548 15.6422C52.9444 15.3553 53.6897 15.2118 54.4907 15.2118C54.8862 15.2118 55.2716 15.2528 55.6468 15.3348C56.0321 15.4168 56.3921 15.5346 56.7268 15.6883C57.0613 15.8318 57.3655 16.0111 57.6392 16.2263C57.9132 16.4312 58.1413 16.6669 58.3237 16.9334L57.411 17.6097C57.2996 17.4355 57.1475 17.2613 56.9547 17.0871C56.7723 16.9128 56.5544 16.7592 56.3007 16.6259C56.0474 16.4927 55.7684 16.3851 55.4641 16.3032C55.1701 16.2212 54.8506 16.1802 54.506 16.1802C53.8062 16.1802 53.1777 16.3083 52.6198 16.5644C52.0722 16.8206 51.606 17.169 51.2206 17.6097C50.8352 18.04 50.5411 18.5421 50.3383 19.1159C50.1355 19.6898 50.0341 20.2944 50.0341 20.9297C50.0341 21.565 50.1355 22.1696 50.3383 22.7434C50.5513 23.3172 50.8505 23.8244 51.2359 24.2651C51.621 24.6955 52.0875 25.0387 52.6351 25.2949C53.1929 25.5511 53.8164 25.6791 54.506 25.6791C55.1246 25.6791 55.7127 25.5511 56.2705 25.2949C56.828 25.0387 57.2945 24.6288 57.6697 24.0653L58.5216 24.6186ZM61.6315 26.3708H60.5973V19.1774H61.6315V26.3708ZM61.8444 16.4108C61.8444 16.6259 61.7684 16.8053 61.6163 16.9487C61.4642 17.0819 61.2968 17.1485 61.1144 17.1485C60.9318 17.1485 60.7644 17.0819 60.6126 16.9487C60.4605 16.8053 60.3844 16.6259 60.3844 16.4108C60.3844 16.1956 60.4605 16.0214 60.6126 15.8881C60.7644 15.7447 60.9318 15.673 61.1144 15.673C61.2968 15.673 61.4642 15.7447 61.6163 15.8881C61.7684 16.0214 61.8444 16.1956 61.8444 16.4108ZM64.6239 20.7606C64.6239 20.5659 64.6188 20.3148 64.6089 20.0074C64.5988 19.7 64.5835 19.4234 64.5631 19.1774H65.5519C65.5722 19.3721 65.5875 19.5873 65.5974 19.823C65.6076 20.0587 65.6126 20.2534 65.6126 20.4071H65.6432C65.8459 19.987 66.1501 19.6488 66.5558 19.3926C66.9613 19.1262 67.4176 18.993 67.9246 18.993C68.0566 18.993 68.1731 18.9981 68.2746 19.0084C68.386 19.0186 68.4976 19.0391 68.609 19.0698L68.4722 20.0536C68.4114 20.0331 68.3099 20.0126 68.168 19.9921C68.0261 19.9716 67.8841 19.9613 67.7422 19.9613C67.4685 19.9613 67.2047 20.0126 66.9511 20.115C66.6978 20.2175 66.4747 20.3815 66.2819 20.6069C66.0995 20.8221 65.9474 21.1039 65.8255 21.4523C65.7141 21.7904 65.6584 22.2003 65.6584 22.6819V26.3708H64.6239V20.7606ZM75.2031 20.8221C75.0306 20.5454 74.7773 20.32 74.4425 20.1458C74.1179 19.9613 73.7631 19.8691 73.3777 19.8691C72.9621 19.8691 72.5869 19.946 72.2522 20.0997C71.9177 20.2431 71.6287 20.4481 71.3853 20.7145C71.1521 20.9707 70.9694 21.2781 70.8377 21.6367C70.7161 21.9851 70.6553 22.3643 70.6553 22.7741C70.6553 23.184 70.7161 23.5632 70.8377 23.9115C70.9694 24.2599 71.1521 24.5673 71.3853 24.8338C71.6186 25.09 71.9024 25.2949 72.2369 25.4486C72.5717 25.5921 72.9469 25.6638 73.3625 25.6638C73.8188 25.6638 74.2042 25.5767 74.5186 25.4025C74.833 25.2283 75.0914 25.0028 75.2944 24.7262L76.0699 25.3103C75.7657 25.6894 75.3905 25.9917 74.9444 26.2171C74.5084 26.4426 73.9811 26.5553 73.3625 26.5553C72.7846 26.5553 72.2624 26.4631 71.7959 26.2786C71.3296 26.0839 70.929 25.8175 70.5942 25.4793C70.2699 25.1412 70.0163 24.7416 69.8337 24.2804C69.6513 23.8193 69.56 23.3172 69.56 22.7741C69.56 22.231 69.6513 21.7289 69.8337 21.2678C70.0163 20.8067 70.2699 20.4071 70.5942 20.0689C70.929 19.7308 71.3296 19.4695 71.7959 19.285C72.2624 19.0903 72.7846 18.993 73.3625 18.993C73.8392 18.993 74.3209 19.1006 74.8075 19.3158C75.3046 19.5207 75.7049 19.8281 76.0091 20.238L75.2031 20.8221ZM78.9865 26.3708H77.9523V14.7507H78.9865V26.3708ZM87.4235 22.2208C87.3933 21.5445 87.1753 20.986 86.7696 20.5454C86.374 20.0945 85.8063 19.8691 85.0661 19.8691C84.7212 19.8691 84.4017 19.9357 84.1076 20.0689C83.8136 20.1919 83.5552 20.3661 83.3321 20.5915C83.109 20.8067 82.9315 21.0578 82.7997 21.3447C82.668 21.6213 82.5919 21.9134 82.5715 22.2208H87.4235ZM88.473 22.5589C88.473 22.6307 88.473 22.7075 88.473 22.7895C88.473 22.8715 88.4679 22.9586 88.4578 23.0508H82.5563C82.5665 23.4094 82.6374 23.7476 82.7692 24.0653C82.9009 24.3829 83.0836 24.6596 83.3168 24.8952C83.5501 25.1309 83.8238 25.3205 84.1382 25.464C84.4526 25.5972 84.7921 25.6638 85.1571 25.6638C85.6946 25.6638 86.156 25.5408 86.5414 25.2949C86.9369 25.0387 87.2361 24.7467 87.4388 24.4188L88.2146 25.0336C87.7885 25.5767 87.3172 25.9661 86.8001 26.2017C86.2929 26.4374 85.7455 26.5553 85.1571 26.5553C84.6298 26.5553 84.1382 26.4631 83.6818 26.2786C83.2357 26.0839 82.8503 25.8175 82.5258 25.4793C82.2014 25.1412 81.9428 24.7416 81.7502 24.2804C81.5676 23.8193 81.4762 23.3172 81.4762 22.7741C81.4762 22.231 81.5676 21.7289 81.7502 21.2678C81.9326 20.8067 82.1862 20.4071 82.5108 20.0689C82.8351 19.7308 83.2153 19.4695 83.6513 19.285C84.0876 19.0903 84.5589 18.993 85.0661 18.993C85.6237 18.993 86.1156 19.0903 86.5414 19.285C86.9672 19.4695 87.3223 19.7256 87.6062 20.0536C87.89 20.3712 88.1029 20.7452 88.2449 21.1756C88.397 21.606 88.473 22.0671 88.473 22.5589ZM90.6786 26.3708V15.4885H93.295V26.3708H90.6786ZM100.592 26.3708V22.1901C100.592 21.9749 100.572 21.7699 100.531 21.5752C100.501 21.3805 100.445 21.2115 100.364 21.068C100.283 20.9143 100.166 20.7965 100.014 20.7145C99.8722 20.6223 99.6898 20.5761 99.4667 20.5761C99.2436 20.5761 99.0457 20.6223 98.8733 20.7145C98.7112 20.7965 98.5741 20.9143 98.4627 21.068C98.3511 21.2217 98.2651 21.401 98.204 21.606C98.1534 21.8007 98.128 22.0056 98.128 22.2208V26.3708H95.6184V18.7163H98.0369V19.7769H98.0672C98.1585 19.6129 98.275 19.4541 98.4172 19.3004C98.569 19.1365 98.7415 18.9981 98.9343 18.8854C99.137 18.7727 99.355 18.6805 99.5883 18.6087C99.8215 18.537 100.07 18.5011 100.334 18.5011C100.841 18.5011 101.272 18.5934 101.627 18.7778C101.981 18.9623 102.265 19.2031 102.478 19.5002C102.701 19.7871 102.858 20.1202 102.95 20.4993C103.051 20.8784 103.102 21.2576 103.102 21.6367V26.3708H100.592Z" fill="#03A9F4"/>
<circle cx="656" cy="22" r="12" fill="#C7D3DA"/>
<path d="M617.5 14L626.593 29.75H608.407L617.5 14Z" fill="#C7D3DA"/>
<rect x="575" y="14" width="16" height="16" fill="#C7D3DA"/>
<rect x="41" y="139" width="90" height="7" rx="2" fill="#3A3B3B"/>
<rect x="41" y="159" width="90" height="7" rx="2" fill="#3A3B3B"/>
<rect x="65" y="179" width="66" height="7" rx="2" fill="#3A3B3B"/>
<rect x="65" y="199" width="66" height="7" rx="2" fill="#3A3B3B"/>
<rect x="65" y="219" width="66" height="7" rx="2" fill="#3A3B3B"/>
<rect x="65" y="239" width="66" height="7" rx="2" fill="#3A3B3B"/>
<rect x="41" y="259" width="90" height="7" rx="2" fill="#3A3B3B"/>
<rect x="41" y="279" width="90" height="7" rx="2" fill="#3A3B3B"/>
<rect x="41" y="299" width="90" height="7" rx="2" fill="#3A3B3B"/>
<g filter="url(#filter1_i)">
<rect x="33.3265" y="86" width="127.673" height="20.2188" rx="10.1094" fill="#282B30"/>
</g>
<rect x="32.3265" y="85" width="129.673" height="22.2188" rx="11.1094" stroke="url(#paint0_linear)" stroke-width="2"/>
<g filter="url(#filter2_d)">
<rect x="33" y="86" width="62.0089" height="20.48" rx="10.24" fill="url(#paint1_linear)"/>
<rect x="32" y="85" width="64.0089" height="22.48" rx="11.24" stroke="url(#paint2_linear)" stroke-width="2"/>
</g>
<path d="M40.4011 99C40.2657 99 40.1584 98.9627 40.0791 98.888C40.0044 98.8133 39.9671 98.7083 39.9671 98.573V94.492C39.9671 94.3567 40.0044 94.2517 40.0791 94.177C40.1584 94.1023 40.2657 94.065 40.4011 94.065H42.9281C43.0634 94.065 43.1684 94.0953 43.2431 94.156C43.3177 94.2167 43.3551 94.303 43.3551 94.415C43.3551 94.5317 43.3177 94.6227 43.2431 94.688C43.1684 94.7487 43.0634 94.779 42.9281 94.779H40.8491V96.137H42.7881C42.9234 96.137 43.0284 96.1673 43.1031 96.228C43.1777 96.2887 43.2151 96.3773 43.2151 96.494C43.2151 96.606 43.1777 96.6923 43.1031 96.753C43.0284 96.8137 42.9234 96.844 42.7881 96.844H40.8491V98.286H42.9281C43.0634 98.286 43.1684 98.3187 43.2431 98.384C43.3177 98.4447 43.3551 98.5333 43.3551 98.65C43.3551 98.762 43.3177 98.8483 43.2431 98.909C43.1684 98.9697 43.0634 99 42.9281 99H40.4011ZM47.8773 98.356C47.9519 98.4447 47.9893 98.5333 47.9893 98.622C47.9893 98.734 47.9449 98.832 47.8563 98.916C47.7723 99 47.6743 99.042 47.5623 99.042C47.4456 99.042 47.3429 98.9907 47.2543 98.888L45.8333 97.124L44.4053 98.888C44.3213 98.986 44.2209 99.035 44.1043 99.035C43.9923 99.035 43.8919 98.9953 43.8033 98.916C43.7193 98.832 43.6773 98.734 43.6773 98.622C43.6773 98.5287 43.7123 98.44 43.7823 98.356L45.3083 96.494L43.8453 94.709C43.7753 94.6343 43.7403 94.5457 43.7403 94.443C43.7403 94.331 43.7823 94.2353 43.8663 94.156C43.9503 94.072 44.0483 94.03 44.1603 94.03C44.2769 94.03 44.3796 94.0813 44.4683 94.184L45.8333 95.871L47.1983 94.184C47.2823 94.0813 47.3826 94.03 47.4993 94.03C47.6113 94.03 47.7093 94.072 47.7933 94.156C47.8819 94.2353 47.9263 94.331 47.9263 94.443C47.9263 94.5457 47.8913 94.6343 47.8213 94.709L46.3583 96.494L47.8773 98.356ZM49.1377 99.042C49.0024 99.042 48.8927 99.0023 48.8087 98.923C48.7294 98.839 48.6897 98.727 48.6897 98.587V94.492C48.6897 94.3567 48.727 94.2517 48.8017 94.177C48.881 94.1023 48.9884 94.065 49.1237 94.065H50.8457C51.373 94.065 51.7837 94.198 52.0777 94.464C52.3717 94.7253 52.5187 95.094 52.5187 95.57C52.5187 96.046 52.3717 96.417 52.0777 96.683C51.7837 96.949 51.373 97.082 50.8457 97.082H49.5927V98.587C49.5927 98.727 49.5507 98.839 49.4667 98.923C49.3874 99.0023 49.2777 99.042 49.1377 99.042ZM50.7337 96.389C51.3544 96.389 51.6647 96.1183 51.6647 95.577C51.6647 95.0357 51.3544 94.765 50.7337 94.765H49.5927V96.389H50.7337ZM53.7448 99C53.6095 99 53.5021 98.9627 53.4228 98.888C53.3481 98.8133 53.3108 98.7083 53.3108 98.573V94.492C53.3108 94.3567 53.3481 94.2517 53.4228 94.177C53.5021 94.1023 53.6095 94.065 53.7448 94.065H56.2718C56.4071 94.065 56.5121 94.0953 56.5868 94.156C56.6615 94.2167 56.6988 94.303 56.6988 94.415C56.6988 94.5317 56.6615 94.6227 56.5868 94.688C56.5121 94.7487 56.4071 94.779 56.2718 94.779H54.1928V96.137H56.1318C56.2671 96.137 56.3721 96.1673 56.4468 96.228C56.5215 96.2887 56.5588 96.3773 56.5588 96.494C56.5588 96.606 56.5215 96.6923 56.4468 96.753C56.3721 96.8137 56.2671 96.844 56.1318 96.844H54.1928V98.286H56.2718C56.4071 98.286 56.5121 98.3187 56.5868 98.384C56.6615 98.4447 56.6988 98.5333 56.6988 98.65C56.6988 98.762 56.6615 98.8483 56.5868 98.909C56.5121 98.9697 56.4071 99 56.2718 99H53.7448ZM61.3809 98.433C61.4369 98.517 61.4649 98.5987 61.4649 98.678C61.4649 98.7853 61.4205 98.874 61.3319 98.944C61.2479 99.014 61.1475 99.049 61.0309 99.049C60.9562 99.049 60.8839 99.0327 60.8139 99C60.7485 98.9627 60.6925 98.909 60.6459 98.839L59.7149 97.425C59.6215 97.2757 59.5212 97.1707 59.4139 97.11C59.3112 97.0493 59.1759 97.019 59.0079 97.019H58.3219V98.587C58.3219 98.727 58.2822 98.839 58.2029 98.923C58.1235 99.0023 58.0162 99.042 57.8809 99.042C57.7455 99.042 57.6359 99.0023 57.5519 98.923C57.4725 98.839 57.4329 98.727 57.4329 98.587V94.492C57.4329 94.3567 57.4702 94.2517 57.5449 94.177C57.6242 94.1023 57.7315 94.065 57.8669 94.065H59.6169C60.1769 94.065 60.6015 94.191 60.8909 94.443C61.1849 94.6903 61.3319 95.0497 61.3319 95.521C61.3319 95.9037 61.2222 96.2187 61.0029 96.466C60.7882 96.7087 60.4825 96.865 60.0859 96.935C60.2212 96.9677 60.3402 97.026 60.4429 97.11C60.5455 97.194 60.6459 97.3107 60.7439 97.46L61.3809 98.433ZM59.4909 96.326C59.8315 96.326 60.0812 96.263 60.2399 96.137C60.3985 96.0063 60.4779 95.808 60.4779 95.542C60.4779 95.2713 60.3985 95.0753 60.2399 94.954C60.0812 94.828 59.8315 94.765 59.4909 94.765H58.3149V96.326H59.4909ZM63.7803 99.035C63.6403 99.035 63.5283 98.9953 63.4443 98.916C63.365 98.832 63.3253 98.7223 63.3253 98.587V94.807H62.0513C61.7713 94.807 61.6313 94.6833 61.6313 94.436C61.6313 94.1887 61.7713 94.065 62.0513 94.065H65.5023C65.7823 94.065 65.9223 94.1887 65.9223 94.436C65.9223 94.6833 65.7823 94.807 65.5023 94.807H64.2283V98.587C64.2283 98.7223 64.1863 98.832 64.1023 98.916C64.023 98.9953 63.9157 99.035 63.7803 99.035ZM72.7387 94.03C72.8694 94.03 72.9744 94.072 73.0537 94.156C73.133 94.2353 73.1727 94.3427 73.1727 94.478V98.622C73.1727 98.7527 73.1354 98.8553 73.0607 98.93C72.986 99.0047 72.888 99.042 72.7667 99.042C72.6454 99.042 72.5497 99.0047 72.4797 98.93C72.4097 98.8553 72.3747 98.7527 72.3747 98.622V95.738L71.1847 97.992C71.1287 98.0947 71.068 98.1717 71.0027 98.223C70.9374 98.2697 70.8604 98.293 70.7717 98.293C70.683 98.293 70.606 98.2697 70.5407 98.223C70.4754 98.1763 70.4147 98.0993 70.3587 97.992L69.1617 95.773V98.622C69.1617 98.748 69.1244 98.8507 69.0497 98.93C68.9797 99.0047 68.884 99.042 68.7627 99.042C68.6414 99.042 68.5457 99.0047 68.4757 98.93C68.4057 98.8553 68.3707 98.7527 68.3707 98.622V94.478C68.3707 94.3427 68.408 94.2353 68.4827 94.156C68.562 94.072 68.667 94.03 68.7977 94.03C68.9797 94.03 69.122 94.1303 69.2247 94.331L70.7787 97.292L72.3257 94.331C72.4284 94.1303 72.566 94.03 72.7387 94.03ZM76.4404 99.063C75.9598 99.063 75.5421 98.9603 75.1874 98.755C74.8374 98.5497 74.5668 98.2557 74.3754 97.873C74.1841 97.4903 74.0884 97.0423 74.0884 96.529C74.0884 96.0157 74.1818 95.57 74.3684 95.192C74.5598 94.8093 74.8328 94.5153 75.1874 94.31C75.5421 94.1047 75.9598 94.002 76.4404 94.002C76.9211 94.002 77.3364 94.1047 77.6864 94.31C78.0411 94.5153 78.3118 94.8093 78.4984 95.192C78.6898 95.57 78.7854 96.0157 78.7854 96.529C78.7854 97.0423 78.6898 97.4903 78.4984 97.873C78.3071 98.2557 78.0341 98.5497 77.6794 98.755C77.3294 98.9603 76.9164 99.063 76.4404 99.063ZM76.4404 98.342C76.8931 98.342 77.2454 98.1857 77.4974 97.873C77.7541 97.5603 77.8824 97.1123 77.8824 96.529C77.8824 95.9457 77.7541 95.5 77.4974 95.192C77.2454 94.8793 76.8931 94.723 76.4404 94.723C75.9831 94.723 75.6261 94.8793 75.3694 95.192C75.1174 95.5 74.9914 95.9457 74.9914 96.529C74.9914 97.1123 75.1174 97.5603 75.3694 97.873C75.6261 98.1857 75.9831 98.342 76.4404 98.342ZM80.1315 99C79.9962 99 79.8889 98.9627 79.8095 98.888C79.7349 98.8133 79.6975 98.7083 79.6975 98.573V94.492C79.6975 94.3567 79.7349 94.2517 79.8095 94.177C79.8889 94.1023 79.9962 94.065 80.1315 94.065H81.5175C82.3249 94.065 82.9502 94.282 83.3935 94.716C83.8415 95.1453 84.0655 95.7497 84.0655 96.529C84.0655 97.313 83.8415 97.922 83.3935 98.356C82.9502 98.7853 82.3249 99 81.5175 99H80.1315ZM81.4615 98.265C82.5955 98.265 83.1625 97.6863 83.1625 96.529C83.1625 95.3763 82.5955 94.8 81.4615 94.8H80.6005V98.265H81.4615ZM85.4089 99C85.2735 99 85.1662 98.9627 85.0869 98.888C85.0122 98.8133 84.9749 98.7083 84.9749 98.573V94.492C84.9749 94.3567 85.0122 94.2517 85.0869 94.177C85.1662 94.1023 85.2735 94.065 85.4089 94.065H87.9359C88.0712 94.065 88.1762 94.0953 88.2509 94.156C88.3255 94.2167 88.3629 94.303 88.3629 94.415C88.3629 94.5317 88.3255 94.6227 88.2509 94.688C88.1762 94.7487 88.0712 94.779 87.9359 94.779H85.8569V96.137H87.7959C87.9312 96.137 88.0362 96.1673 88.1109 96.228C88.1855 96.2887 88.2229 96.3773 88.2229 96.494C88.2229 96.606 88.1855 96.6923 88.1109 96.753C88.0362 96.8137 87.9312 96.844 87.7959 96.844H85.8569V98.286H87.9359C88.0712 98.286 88.1762 98.3187 88.2509 98.384C88.3255 98.4447 88.3629 98.5333 88.3629 98.65C88.3629 98.762 88.3255 98.8483 88.2509 98.909C88.1762 98.9697 88.0712 99 87.9359 99H85.4089Z" fill="#3A3B3B"/>
<path d="M101.24 99.063C100.881 99.063 100.54 99.0163 100.218 98.923C99.9007 98.825 99.6417 98.6943 99.441 98.531C99.3337 98.4517 99.28 98.3397 99.28 98.195C99.28 98.097 99.308 98.013 99.364 97.943C99.4247 97.8683 99.4947 97.831 99.574 97.831C99.658 97.831 99.7537 97.8637 99.861 97.929C100.062 98.0737 100.272 98.1787 100.491 98.244C100.71 98.3093 100.953 98.342 101.219 98.342C101.56 98.342 101.821 98.2837 102.003 98.167C102.185 98.0457 102.276 97.8707 102.276 97.642C102.276 97.4647 102.19 97.3293 102.017 97.236C101.849 97.138 101.567 97.0447 101.17 96.956C100.759 96.8673 100.426 96.7647 100.169 96.648C99.9123 96.5313 99.7187 96.382 99.588 96.2C99.4573 96.018 99.392 95.787 99.392 95.507C99.392 95.2177 99.4737 94.9587 99.637 94.73C99.8003 94.5013 100.027 94.324 100.316 94.198C100.61 94.0673 100.939 94.002 101.303 94.002C101.97 94.002 102.514 94.1793 102.934 94.534C102.995 94.5853 103.037 94.6367 103.06 94.688C103.088 94.7347 103.102 94.7953 103.102 94.87C103.102 94.968 103.072 95.0543 103.011 95.129C102.955 95.199 102.887 95.234 102.808 95.234C102.761 95.234 102.717 95.227 102.675 95.213C102.638 95.199 102.586 95.1733 102.521 95.136C102.33 94.996 102.143 94.8933 101.961 94.828C101.784 94.758 101.564 94.723 101.303 94.723C100.986 94.723 100.734 94.7883 100.547 94.919C100.365 95.045 100.274 95.2223 100.274 95.451C100.274 95.6423 100.356 95.7893 100.519 95.892C100.682 95.9947 100.96 96.0903 101.352 96.179C101.767 96.2723 102.103 96.3773 102.36 96.494C102.621 96.606 102.82 96.7507 102.955 96.928C103.095 97.1053 103.165 97.327 103.165 97.593C103.165 97.8823 103.083 98.139 102.92 98.363C102.761 98.5823 102.535 98.755 102.241 98.881C101.952 99.0023 101.618 99.063 101.24 99.063ZM105.51 99.035C105.37 99.035 105.258 98.9953 105.174 98.916C105.095 98.832 105.055 98.7223 105.055 98.587V94.807H103.781C103.501 94.807 103.361 94.6833 103.361 94.436C103.361 94.1887 103.501 94.065 103.781 94.065H107.232C107.512 94.065 107.652 94.1887 107.652 94.436C107.652 94.6833 107.512 94.807 107.232 94.807H105.958V98.587C105.958 98.7223 105.916 98.832 105.832 98.916C105.753 98.9953 105.646 99.035 105.51 99.035ZM110.223 99.063C109.547 99.063 109.033 98.888 108.683 98.538C108.333 98.188 108.158 97.677 108.158 97.005V94.478C108.158 94.3427 108.198 94.2353 108.277 94.156C108.357 94.072 108.464 94.03 108.599 94.03C108.735 94.03 108.842 94.072 108.921 94.156C109.001 94.2353 109.04 94.3427 109.04 94.478V97.054C109.04 97.4787 109.141 97.8007 109.341 98.02C109.542 98.2347 109.836 98.342 110.223 98.342C110.606 98.342 110.898 98.2323 111.098 98.013C111.299 97.7937 111.399 97.474 111.399 97.054V94.478C111.399 94.3427 111.439 94.2353 111.518 94.156C111.598 94.072 111.705 94.03 111.84 94.03C111.976 94.03 112.083 94.072 112.162 94.156C112.242 94.2353 112.281 94.3427 112.281 94.478V97.005C112.281 97.6723 112.106 98.1833 111.756 98.538C111.406 98.888 110.895 99.063 110.223 99.063ZM113.754 99C113.619 99 113.511 98.9627 113.432 98.888C113.357 98.8133 113.32 98.7083 113.32 98.573V94.492C113.32 94.3567 113.357 94.2517 113.432 94.177C113.511 94.1023 113.619 94.065 113.754 94.065H115.14C115.947 94.065 116.573 94.282 117.016 94.716C117.464 95.1453 117.688 95.7497 117.688 96.529C117.688 97.313 117.464 97.922 117.016 98.356C116.573 98.7853 115.947 99 115.14 99H113.754ZM115.084 98.265C116.218 98.265 116.785 97.6863 116.785 96.529C116.785 95.3763 116.218 94.8 115.084 94.8H114.223V98.265H115.084ZM119.031 99C118.896 99 118.789 98.9627 118.709 98.888C118.635 98.8133 118.597 98.7083 118.597 98.573V94.492C118.597 94.3567 118.635 94.2517 118.709 94.177C118.789 94.1023 118.896 94.065 119.031 94.065H121.558C121.694 94.065 121.799 94.0953 121.873 94.156C121.948 94.2167 121.985 94.303 121.985 94.415C121.985 94.5317 121.948 94.6227 121.873 94.688C121.799 94.7487 121.694 94.779 121.558 94.779H119.479V96.137H121.418C121.554 96.137 121.659 96.1673 121.733 96.228C121.808 96.2887 121.845 96.3773 121.845 96.494C121.845 96.606 121.808 96.6923 121.733 96.753C121.659 96.8137 121.554 96.844 121.418 96.844H119.479V98.286H121.558C121.694 98.286 121.799 98.3187 121.873 98.384C121.948 98.4447 121.985 98.5333 121.985 98.65C121.985 98.762 121.948 98.8483 121.873 98.909C121.799 98.9697 121.694 99 121.558 99H119.031ZM126.458 94.03C126.588 94.03 126.691 94.072 126.766 94.156C126.845 94.2353 126.885 94.3427 126.885 94.478V98.587C126.885 98.7223 126.845 98.832 126.766 98.916C126.686 99 126.584 99.042 126.458 99.042C126.308 99.042 126.194 98.9883 126.115 98.881L123.56 95.556V98.587C123.56 98.7223 123.522 98.832 123.448 98.916C123.373 99 123.27 99.042 123.14 99.042C123.009 99.042 122.906 99 122.832 98.916C122.757 98.832 122.72 98.7223 122.72 98.587V94.478C122.72 94.3427 122.759 94.2353 122.839 94.156C122.918 94.072 123.023 94.03 123.154 94.03C123.298 94.03 123.41 94.0837 123.49 94.191L126.038 97.502V94.478C126.038 94.3427 126.075 94.2353 126.15 94.156C126.229 94.072 126.332 94.03 126.458 94.03ZM129.566 99.035C129.426 99.035 129.314 98.9953 129.23 98.916C129.151 98.832 129.111 98.7223 129.111 98.587V94.807H127.837C127.557 94.807 127.417 94.6833 127.417 94.436C127.417 94.1887 127.557 94.065 127.837 94.065H131.288C131.568 94.065 131.708 94.1887 131.708 94.436C131.708 94.6833 131.568 94.807 131.288 94.807H130.014V98.587C130.014 98.7223 129.972 98.832 129.888 98.916C129.809 98.9953 129.701 99.035 129.566 99.035ZM138.524 94.03C138.655 94.03 138.76 94.072 138.839 94.156C138.919 94.2353 138.958 94.3427 138.958 94.478V98.622C138.958 98.7527 138.921 98.8553 138.846 98.93C138.772 99.0047 138.674 99.042 138.552 99.042C138.431 99.042 138.335 99.0047 138.265 98.93C138.195 98.8553 138.16 98.7527 138.16 98.622V95.738L136.97 97.992C136.914 98.0947 136.854 98.1717 136.788 98.223C136.723 98.2697 136.646 98.293 136.557 98.293C136.469 98.293 136.392 98.2697 136.326 98.223C136.261 98.1763 136.2 98.0993 136.144 97.992L134.947 95.773V98.622C134.947 98.748 134.91 98.8507 134.835 98.93C134.765 99.0047 134.67 99.042 134.548 99.042C134.427 99.042 134.331 99.0047 134.261 98.93C134.191 98.8553 134.156 98.7527 134.156 98.622V94.478C134.156 94.3427 134.194 94.2353 134.268 94.156C134.348 94.072 134.453 94.03 134.583 94.03C134.765 94.03 134.908 94.1303 135.01 94.331L136.564 97.292L138.111 94.331C138.214 94.1303 138.352 94.03 138.524 94.03ZM142.226 99.063C141.745 99.063 141.328 98.9603 140.973 98.755C140.623 98.5497 140.352 98.2557 140.161 97.873C139.97 97.4903 139.874 97.0423 139.874 96.529C139.874 96.0157 139.967 95.57 140.154 95.192C140.345 94.8093 140.618 94.5153 140.973 94.31C141.328 94.1047 141.745 94.002 142.226 94.002C142.707 94.002 143.122 94.1047 143.472 94.31C143.827 94.5153 144.097 94.8093 144.284 95.192C144.475 95.57 144.571 96.0157 144.571 96.529C144.571 97.0423 144.475 97.4903 144.284 97.873C144.093 98.2557 143.82 98.5497 143.465 98.755C143.115 98.9603 142.702 99.063 142.226 99.063ZM142.226 98.342C142.679 98.342 143.031 98.1857 143.283 97.873C143.54 97.5603 143.668 97.1123 143.668 96.529C143.668 95.9457 143.54 95.5 143.283 95.192C143.031 94.8793 142.679 94.723 142.226 94.723C141.769 94.723 141.412 94.8793 141.155 95.192C140.903 95.5 140.777 95.9457 140.777 96.529C140.777 97.1123 140.903 97.5603 141.155 97.873C141.412 98.1857 141.769 98.342 142.226 98.342ZM145.917 99C145.782 99 145.675 98.9627 145.595 98.888C145.521 98.8133 145.483 98.7083 145.483 98.573V94.492C145.483 94.3567 145.521 94.2517 145.595 94.177C145.675 94.1023 145.782 94.065 145.917 94.065H147.303C148.111 94.065 148.736 94.282 149.179 94.716C149.627 95.1453 149.851 95.7497 149.851 96.529C149.851 97.313 149.627 97.922 149.179 98.356C148.736 98.7853 148.111 99 147.303 99H145.917ZM147.247 98.265C148.381 98.265 148.948 97.6863 148.948 96.529C148.948 95.3763 148.381 94.8 147.247 94.8H146.386V98.265H147.247ZM151.195 99C151.059 99 150.952 98.9627 150.873 98.888C150.798 98.8133 150.761 98.7083 150.761 98.573V94.492C150.761 94.3567 150.798 94.2517 150.873 94.177C150.952 94.1023 151.059 94.065 151.195 94.065H153.722C153.857 94.065 153.962 94.0953 154.037 94.156C154.111 94.2167 154.149 94.303 154.149 94.415C154.149 94.5317 154.111 94.6227 154.037 94.688C153.962 94.7487 153.857 94.779 153.722 94.779H151.643V96.137H153.582C153.717 96.137 153.822 96.1673 153.897 96.228C153.971 96.2887 154.009 96.3773 154.009 96.494C154.009 96.606 153.971 96.6923 153.897 96.753C153.822 96.8137 153.717 96.844 153.582 96.844H151.643V98.286H153.722C153.857 98.286 153.962 98.3187 154.037 98.384C154.111 98.4447 154.149 98.5333 154.149 98.65C154.149 98.762 154.111 98.8483 154.037 98.909C153.962 98.9697 153.857 99 153.722 99H151.195Z" fill="#979797"/>
</g>
</g>
<defs>
<filter id="filter0_d" x="0" y="0" width="695" height="435" filterUnits="userSpaceOnUse" color-interpolation-filters="sRGB">
<feFlood flood-opacity="0" result="BackgroundImageFix"/>
<feColorMatrix in="SourceAlpha" type="matrix" values="0 0 0 0 0 0 0 0 0 0 0 0 0 0 0 0 0 0 127 0"/>
<feOffset dy="8"/>
<feGaussianBlur stdDeviation="4"/>
<feColorMatrix type="matrix" values="0 0 0 0 0 0 0 0 0 0 0 0 0 0 0 0 0 0 0.1 0"/>
<feBlend mode="normal" in2="BackgroundImageFix" result="effect1_dropShadow"/>
<feBlend mode="normal" in="SourceGraphic" in2="effect1_dropShadow" result="shape"/>
</filter>
<filter id="filter1_i" x="31.3265" y="84" width="131.673" height="27.2188" filterUnits="userSpaceOnUse" color-interpolation-filters="sRGB">
<feFlood flood-opacity="0" result="BackgroundImageFix"/>
<feBlend mode="normal" in="SourceGraphic" in2="BackgroundImageFix" result="shape"/>
<feColorMatrix in="SourceAlpha" type="matrix" values="0 0 0 0 0 0 0 0 0 0 0 0 0 0 0 0 0 0 127 0" result="hardAlpha"/>
<feOffset dy="3"/>
<feGaussianBlur stdDeviation="10"/>
<feComposite in2="hardAlpha" operator="arithmetic" k2="-1" k3="1"/>
<feColorMatrix type="matrix" values="0 0 0 0 0 0 0 0 0 0 0 0 0 0 0 0 0 0 0.15 0"/>
<feBlend mode="normal" in2="shape" result="effect1_innerShadow"/>
</filter>
<filter id="filter2_d" x="27" y="80" width="74.0089" height="32.48" filterUnits="userSpaceOnUse" color-interpolation-filters="sRGB">
<feFlood flood-opacity="0" result="BackgroundImageFix"/>
<feColorMatrix in="SourceAlpha" type="matrix" values="0 0 0 0 0 0 0 0 0 0 0 0 0 0 0 0 0 0 127 0"/>
<feOffset/>
<feGaussianBlur stdDeviation="2"/>
<feColorMatrix type="matrix" values="0 0 0 0 0 0 0 0 0 0 0 0 0 0 0 0 0 0 0.35 0"/>
<feBlend mode="normal" in2="BackgroundImageFix" result="effect1_dropShadow"/>
<feBlend mode="normal" in="SourceGraphic" in2="effect1_dropShadow" result="shape"/>
</filter>
<linearGradient id="paint0_linear" x1="97.1633" y1="86" x2="97.1633" y2="106.219" gradientUnits="userSpaceOnUse">
<stop stop-color="#191A1D"/>
<stop offset="1" stop-color="#373C42"/>
</linearGradient>
<linearGradient id="paint1_linear" x1="64.0044" y1="89.6267" x2="64.0044" y2="104.522" gradientUnits="userSpaceOnUse">
<stop stop-color="#94DAF9"/>
<stop offset="1" stop-color="#1E88E5"/>
</linearGradient>
<linearGradient id="paint2_linear" x1="64.0044" y1="86" x2="64.0044" y2="106.48" gradientUnits="userSpaceOnUse">
<stop stop-color="#16181C"/>
<stop offset="1" stop-color="#1E1E1F"/>
</linearGradient>
<clipPath id="clip0">
<rect x="8" width="679" height="419" rx="8" fill="white"/>
</clipPath>
</defs>
</svg>
