<svg width="26" height="26" viewBox="0 0 26 26" fill="none" xmlns="http://www.w3.org/2000/svg">
<path d="M20.8767 9.34006C20.8767 4.88192 17.3774 1.26792 13.0608 1.26792C8.74415 1.26792 5.24481 4.88197 5.24481 9.34006C5.24481 11.3561 5.96047 13.1994 7.14362 14.614H7.14357L8.85318 17.713C9.2997 18.5397 9.46545 19.0736 10.2137 19.0736H15.7882C16.5365 19.0736 16.7566 18.5114 17.1487 17.713L18.9779 14.614H18.9778C20.161 13.1994 20.8767 11.3561 20.8767 9.34006Z" fill="#FFE46A"/>
<path d="M5.72842 10.3231C5.72842 5.71621 9.20074 1.90863 13.7085 1.29834C13.4836 1.27824 13.2579 1.26809 13.0321 1.26792C8.71552 1.26792 5.21619 4.88197 5.21619 9.34006C5.21619 10.8071 5.59547 12.1825 6.25781 13.368C5.91504 12.4159 5.72842 11.391 5.72842 10.3231Z" fill="#FFF0B7"/>
<path d="M20.8767 9.35728C20.8767 7.76046 20.4276 6.27206 19.653 5.01914C19.8189 5.67341 19.9027 6.34576 19.9027 7.02073C19.9027 12.325 14.7668 16.6449 8.35095 16.8198L8.85318 17.7303C9.2997 18.557 9.46545 19.0908 10.2137 19.0908H15.7882C16.5365 19.0908 16.7566 18.5287 17.1487 17.7303L18.9779 14.6313H18.9778C20.161 13.2166 20.8767 11.3733 20.8767 9.35728Z" fill="#FFDA00"/>
<path d="M16.3467 10.7252C16.3543 10.7185 16.3618 10.7124 16.3694 10.7051C16.511 10.5697 16.6275 10.3537 16.5299 10.1533C16.1298 9.33184 14.9065 9.07123 14.0151 9.34327C13.9699 9.35703 13.9261 9.37201 13.8836 9.38821C13.3981 9.1047 12.7952 9.03655 12.2586 9.20697C12.1951 9.22709 12.1327 9.25072 12.0718 9.27776C11.778 9.10612 11.4344 9.0205 11.092 9.05361C10.3754 9.12293 9.75268 9.70412 9.62928 10.4121L9.57281 10.447C10.0612 11.2362 11.3466 13.4975 11.429 14.4706C11.5328 15.6982 11.4291 19.0304 11.428 19.0639L12.0371 19.0832C12.0414 18.9449 12.143 15.6819 12.0361 14.4192C11.9885 13.8562 11.644 12.9588 11.0122 11.7521C10.7173 11.1889 10.431 10.6944 10.2577 10.4026C10.3775 10.0143 10.7457 9.69934 11.1507 9.66019C11.274 9.64826 11.3992 9.66207 11.5189 9.69721C11.4739 9.75491 11.4344 9.81677 11.4011 9.88195C11.1956 10.2849 11.2815 10.7908 11.6008 11.0589C11.79 11.2176 12.0648 11.276 12.3182 11.2112C12.5542 11.1509 12.7366 10.9958 12.8186 10.7857C12.8923 10.5969 12.886 10.3789 12.8 10.1379C12.7501 9.99929 12.6809 9.86841 12.5943 9.74921C12.8243 9.70496 13.0616 9.71794 13.2854 9.78699C13.1983 9.88728 13.1317 9.9989 13.0879 10.1199C12.9943 10.3789 13.0356 10.6868 13.196 10.9234C13.3341 11.1273 13.5441 11.2485 13.7722 11.256C13.7798 11.2563 13.7875 11.2564 13.7951 11.2564C13.9949 11.2564 14.1846 11.1705 14.3314 11.0129C14.5039 10.8277 14.5917 10.5705 14.5662 10.3251C14.55 10.169 14.4945 10.0164 14.4052 9.87479C15.0265 9.76191 15.6343 9.97184 15.8973 10.2905C15.7386 10.5546 15.4127 11.1086 15.0757 11.7522C14.444 12.959 14.0994 13.8563 14.0518 14.4193C13.9449 15.682 14.0465 18.945 14.0508 19.0833L14.6599 19.064C14.6588 19.0305 14.5551 15.6985 14.6589 14.4707C14.733 13.5947 15.7818 11.6754 16.3467 10.7252ZM12.2509 10.5641C12.2367 10.6005 12.1833 10.6167 12.1672 10.6208C12.1038 10.637 12.0319 10.6252 11.9924 10.5921C11.8901 10.5063 11.8679 10.3078 11.9438 10.1589C11.9688 10.1109 12.0004 10.0667 12.0378 10.0277C12.1196 10.1205 12.1846 10.2271 12.226 10.3429C12.2598 10.4374 12.2688 10.5181 12.2509 10.5641ZM13.8855 10.5974C13.8677 10.6164 13.8314 10.6477 13.7921 10.6469C13.7499 10.6456 13.7165 10.6053 13.7003 10.5815C13.6499 10.507 13.6337 10.4024 13.6609 10.3271C13.6923 10.2403 13.7529 10.1692 13.8236 10.112C13.9023 10.201 13.9506 10.2966 13.9601 10.388C13.9674 10.4576 13.9374 10.5417 13.8855 10.5974Z" fill="#FAAF63"/>
<path d="M16.0435 20.4496H10.0495C9.71434 20.4496 9.44012 20.7238 9.44012 21.059V21.4123C9.44012 21.7474 9.71434 22.0216 10.0495 22.0216H11.9854C11.4082 22.2364 10.7987 22.7471 10.7987 23.3392V23.5769C11.262 24.0976 11.6934 25.0029 12.5152 25.0029H13.6268C14.2741 25.0029 14.734 24.304 15.2942 23.5769V23.3392C15.2942 22.7471 14.7127 22.2364 14.1492 22.0216H16.0435C16.3786 22.0216 16.6528 21.7474 16.6528 21.4123V21.059C16.6528 20.7238 16.3786 20.4496 16.0435 20.4496Z" fill="#6B83A5"/>
<path d="M16.4737 20.4497H9.61908C9.28392 20.4497 9.0097 20.1755 9.0097 19.8403V19.487C9.0097 19.1519 9.28392 18.8776 9.61908 18.8776H16.4737C16.8088 18.8776 17.0831 19.1519 17.0831 19.487V19.8403C17.0831 20.1755 16.8088 20.4497 16.4737 20.4497ZM16.1179 22.9844V22.6311C16.1179 22.296 15.8436 22.0218 15.5085 22.0218H10.5843C10.2491 22.0218 9.9749 22.296 9.9749 22.6311V22.9844C9.9749 23.3196 10.2491 23.5938 10.5843 23.5938H15.5085C15.8436 23.5938 16.1179 23.3196 16.1179 22.9844Z" fill="#ABBDDB"/>
</svg>
