<svg width="20" height="20" viewBox="0 0 20 20" fill="none" xmlns="http://www.w3.org/2000/svg">
<path d="M10.0049 19.6001C15.2529 19.6001 19.5999 15.2509 19.5999 10.0001C19.5999 4.74937 15.243 0.400146 9.99495 0.400146C4.74688 0.400146 0.399902 4.74937 0.399902 10.0001C0.399902 15.2509 4.75679 19.6001 10.0049 19.6001ZM6.73719 14.0918C6.2817 14.0918 5.92522 13.7252 5.92522 13.2596C5.92522 13.0515 6.00444 12.8435 6.16287 12.6949L8.84632 10.0101L6.16287 7.32522C6.00444 7.17662 5.92522 6.97847 5.92522 6.76052C5.92522 6.30479 6.2817 5.95804 6.73719 5.95804C6.96494 5.95804 7.15307 6.02739 7.3016 6.1859L9.99495 8.87073L12.6982 6.176C12.8665 6.00758 13.0547 5.93823 13.2725 5.93823C13.7181 5.93823 14.0845 6.29488 14.0845 6.7407C14.0845 6.96857 14.0053 7.1469 13.8468 7.32522L11.1535 10.0101L13.8369 12.685C13.9855 12.8435 14.0746 13.0416 14.0746 13.2596C14.0746 13.7252 13.7082 14.0918 13.2527 14.0918C13.025 14.0918 12.8269 13.9927 12.6685 13.8441L9.99495 11.1593L7.33131 13.8441C7.17288 14.0026 6.96494 14.0918 6.73719 14.0918Z" fill="#5F6165"/>
</svg>
