<svg xmlns="http://www.w3.org/2000/svg" width="36" height="36" fill="none" viewBox="0 0 36 36">
    <circle cx="18" cy="18" r="18" fill="#F54F47"/>
    <g opacity=".95">
        <g filter="url(#prefix__filter0_d)">
            <rect width="16" height="10" fill="#F9F9F9" rx="2" transform="matrix(-1 0 0 1 30 12.998)"/>
        </g>
        <path stroke="#000" stroke-width=".5" d="M16 15.748L28 15.748M16 17.748L28 17.748M16 19.748L22 19.748"/>
    </g>
    <g filter="url(#prefix__filter1_d)">
        <rect width="16" height="10" x="26" y="18.999" fill="#F9F9F9" rx="2" transform="rotate(180 26 19)"/>
    </g>
    <path stroke="#000" stroke-width=".5" d="M24 16.248L12 16.248M24 14.249L12 14.249M24 12.249L18 12.249"/>
    <g opacity=".9">
        <rect width="16" height="10" x="6" y="17" fill="#F9F9F9" rx="2"/>
        <path stroke="#000" stroke-width=".5" d="M8 19.751L20 19.751M8 21.751L20 21.751M8 23.751L14 23.751"/>
    </g>
    <defs>
        <filter id="prefix__filter0_d" width="24" height="18" x="10" y="12.998" color-interpolation-filters="sRGB" filterUnits="userSpaceOnUse">
            <feFlood flood-opacity="0" result="BackgroundImageFix"/>
            <feColorMatrix in="SourceAlpha" values="0 0 0 0 0 0 0 0 0 0 0 0 0 0 0 0 0 0 127 0"/>
            <feOffset dy="4"/>
            <feGaussianBlur stdDeviation="2"/>
            <feColorMatrix values="0 0 0 0 0 0 0 0 0 0 0 0 0 0 0 0 0 0 0.05 0"/>
            <feBlend in2="BackgroundImageFix" result="effect1_dropShadow"/>
            <feBlend in="SourceGraphic" in2="effect1_dropShadow" result="shape"/>
        </filter>
        <filter id="prefix__filter1_d" width="24" height="18" x="6" y="8.999" color-interpolation-filters="sRGB" filterUnits="userSpaceOnUse">
            <feFlood flood-opacity="0" result="BackgroundImageFix"/>
            <feColorMatrix in="SourceAlpha" values="0 0 0 0 0 0 0 0 0 0 0 0 0 0 0 0 0 0 127 0"/>
            <feOffset dy="4"/>
            <feGaussianBlur stdDeviation="2"/>
            <feColorMatrix values="0 0 0 0 0 0 0 0 0 0 0 0 0 0 0 0 0 0 0.05 0"/>
            <feBlend in2="BackgroundImageFix" result="effect1_dropShadow"/>
            <feBlend in="SourceGraphic" in2="effect1_dropShadow" result="shape"/>
        </filter>
    </defs>
</svg>
