<svg width="32" height="32" viewBox="0 0 32 32" fill="none" xmlns="http://www.w3.org/2000/svg">
<circle cx="16" cy="16" r="16" fill="#F54F47"/>
<rect x="3.25586" y="11.0505" width="16.3462" height="11.3713" transform="rotate(-16.1638 3.25586 11.0505)" fill="#F9F9F9"/>
<line x1="3.64609" y1="12.3968" x2="19.3462" y2="7.84625" stroke="#D2615C" stroke-width="0.75"/>
<line x1="3.91369" y1="13.3195" x2="19.6138" y2="8.76898" stroke="#808DBA" stroke-width="0.25"/>
<line x1="4.11144" y1="14.0021" x2="19.8115" y2="9.4516" stroke="#808DBA" stroke-width="0.25"/>
<line x1="4.3092" y1="14.6848" x2="20.0093" y2="10.1342" stroke="#808DBA" stroke-width="0.25"/>
<line x1="4.50719" y1="15.3674" x2="20.2073" y2="10.8168" stroke="#808DBA" stroke-width="0.25"/>
<line x1="4.70495" y1="16.05" x2="20.405" y2="11.4995" stroke="#808DBA" stroke-width="0.25"/>
<line x1="4.9027" y1="16.7326" x2="20.6028" y2="12.1821" stroke="#808DBA" stroke-width="0.25"/>
<line x1="5.1007" y1="17.4152" x2="20.8008" y2="12.8647" stroke="#808DBA" stroke-width="0.25"/>
<line x1="5.29845" y1="18.0978" x2="20.9985" y2="13.5473" stroke="#808DBA" stroke-width="0.25"/>
<line x1="5.49645" y1="18.7805" x2="21.1965" y2="14.2299" stroke="#808DBA" stroke-width="0.25"/>
<line x1="5.69421" y1="19.4629" x2="21.3943" y2="14.9124" stroke="#808DBA" stroke-width="0.25"/>
<line x1="5.89196" y1="20.1456" x2="21.592" y2="15.595" stroke="#808DBA" stroke-width="0.25"/>
<line x1="6.08996" y1="20.8282" x2="21.79" y2="16.2777" stroke="#808DBA" stroke-width="0.25"/>
<line x1="6.28771" y1="21.5109" x2="21.9878" y2="16.9604" stroke="#808DBA" stroke-width="0.25"/>
<rect x="10.9097" y="13.676" width="16.3462" height="11.3713" fill="#F9F9F9"/>
<line x1="10.9097" y1="15.0778" x2="27.2559" y2="15.0778" stroke="#D2615C" stroke-width="0.75"/>
<line x1="10.9097" y1="16.0383" x2="27.2559" y2="16.0383" stroke="#808DBA" stroke-width="0.25"/>
<line x1="10.9097" y1="16.7491" x2="27.2559" y2="16.7491" stroke="#808DBA" stroke-width="0.25"/>
<line x1="10.9097" y1="17.4598" x2="27.2559" y2="17.4598" stroke="#808DBA" stroke-width="0.25"/>
<line x1="10.9097" y1="18.1705" x2="27.2559" y2="18.1705" stroke="#808DBA" stroke-width="0.25"/>
<line x1="10.9097" y1="18.8812" x2="27.2559" y2="18.8812" stroke="#808DBA" stroke-width="0.25"/>
<line x1="10.9097" y1="19.592" x2="27.2559" y2="19.592" stroke="#808DBA" stroke-width="0.25"/>
<line x1="10.9097" y1="20.3026" x2="27.2559" y2="20.3026" stroke="#808DBA" stroke-width="0.25"/>
<line x1="10.9097" y1="21.0134" x2="27.2559" y2="21.0134" stroke="#808DBA" stroke-width="0.25"/>
<line x1="10.9097" y1="21.724" x2="27.2559" y2="21.724" stroke="#808DBA" stroke-width="0.25"/>
<line x1="10.9097" y1="22.4348" x2="27.2559" y2="22.4348" stroke="#808DBA" stroke-width="0.25"/>
<line x1="10.9097" y1="23.1455" x2="27.2559" y2="23.1455" stroke="#808DBA" stroke-width="0.25"/>
<line x1="10.9097" y1="23.8562" x2="27.2559" y2="23.8562" stroke="#808DBA" stroke-width="0.25"/>
<line x1="10.9097" y1="24.5669" x2="27.2559" y2="24.5669" stroke="#808DBA" stroke-width="0.25"/>
</svg>
