<svg width="48" height="48" viewBox="0 0 48 48" fill="none" xmlns="http://www.w3.org/2000/svg">
<circle cx="24" cy="24" r="24" fill="#E35B4F"/>
<g clip-path="url(#clip0_1019_29632)">
<path d="M34.8465 13.0685L26.3473 11.154C24.6889 10.7805 22.9343 11.8011 22.5374 13.5631L26.5797 14.4736C29.4819 15.1274 31.3289 18.0483 30.6751 20.9505L28.1303 32.2483L30.4106 32.7619C32.069 33.1354 33.8236 32.1149 34.2205 30.3528L37.2556 16.8784C37.6525 15.1163 36.6086 13.4654 34.8465 13.0685Z" fill="white"/>
<path d="M25.487 33.8309L28.5221 20.3565C28.8956 18.6981 27.875 16.9435 26.113 16.5466L17.7174 14.6555C16.059 14.2819 14.3044 15.3025 13.9075 17.0646L10.8724 30.539C10.4988 32.1974 11.5194 33.952 13.2814 34.3489L21.7807 36.2634C23.4391 36.6369 25.0901 35.593 25.487 33.8309Z" fill="white"/>
</g>
<defs>
<clipPath id="clip0_1019_29632">
<rect width="27.4286" height="27.4286" fill="white" transform="translate(10.2856 10.2856)"/>
</clipPath>
</defs>
</svg>
