<svg width="34" height="32" viewBox="0 0 34 32" fill="none" xmlns="http://www.w3.org/2000/svg">
<rect y="5.68811" width="20.4328" height="14.2141" transform="rotate(-16.1638 0 5.68811)" fill="#F9F9F9"/>
<line x1="0.479216" y1="7.34093" x2="20.1043" y2="1.65277" stroke="#D2615C"/>
<line x1="0.796005" y1="8.43432" x2="20.4211" y2="2.74616" stroke="#808DBA" stroke-width="0.5"/>
<line x1="1.04332" y1="9.28759" x2="20.6684" y2="3.59943" stroke="#808DBA" stroke-width="0.5"/>
<line x1="1.29076" y1="10.1409" x2="20.9158" y2="4.4527" stroke="#808DBA" stroke-width="0.5"/>
<line x1="1.53795" y1="10.9941" x2="21.163" y2="5.30597" stroke="#808DBA" stroke-width="0.5"/>
<line x1="1.78526" y1="11.8474" x2="21.4104" y2="6.15924" stroke="#808DBA" stroke-width="0.5"/>
<line x1="2.0327" y1="12.7007" x2="21.6578" y2="7.01251" stroke="#808DBA" stroke-width="0.5"/>
<line x1="2.27989" y1="13.5539" x2="21.905" y2="7.86579" stroke="#808DBA" stroke-width="0.5"/>
<line x1="2.52721" y1="14.4072" x2="22.1523" y2="8.71906" stroke="#808DBA" stroke-width="0.5"/>
<line x1="2.77452" y1="15.2605" x2="22.3996" y2="9.57233" stroke="#808DBA" stroke-width="0.5"/>
<line x1="3.02183" y1="16.1136" x2="22.6469" y2="10.4255" stroke="#808DBA" stroke-width="0.5"/>
<line x1="3.26915" y1="16.9669" x2="22.8942" y2="11.2787" stroke="#808DBA" stroke-width="0.5"/>
<line x1="3.51646" y1="17.8202" x2="23.1416" y2="12.132" stroke="#808DBA" stroke-width="0.5"/>
<line x1="3.76378" y1="18.6735" x2="23.3889" y2="12.9853" stroke="#808DBA" stroke-width="0.5"/>
<g filter="url(#filter0_d)">
<rect x="9.56726" y="8.96997" width="20.4328" height="14.2141" fill="#F9F9F9"/>
<line x1="9.56726" y1="10.6909" x2="30.0001" y2="10.6909" stroke="#D2615C"/>
<line x1="9.56726" y1="11.8292" x2="30.0001" y2="11.8292" stroke="#808DBA" stroke-width="0.5"/>
<line x1="9.56726" y1="12.7177" x2="30.0001" y2="12.7177" stroke="#808DBA" stroke-width="0.5"/>
<line x1="9.56726" y1="13.606" x2="30.0001" y2="13.606" stroke="#808DBA" stroke-width="0.5"/>
<line x1="9.56726" y1="14.4944" x2="30.0001" y2="14.4944" stroke="#808DBA" stroke-width="0.5"/>
<line x1="9.56726" y1="15.3827" x2="30.0001" y2="15.3827" stroke="#808DBA" stroke-width="0.5"/>
<line x1="9.56726" y1="16.2711" x2="30.0001" y2="16.2711" stroke="#808DBA" stroke-width="0.5"/>
<line x1="9.56726" y1="17.1594" x2="30.0001" y2="17.1594" stroke="#808DBA" stroke-width="0.5"/>
<line x1="9.56726" y1="18.048" x2="30.0001" y2="18.048" stroke="#808DBA" stroke-width="0.5"/>
<line x1="9.56726" y1="18.9362" x2="30.0001" y2="18.9362" stroke="#808DBA" stroke-width="0.5"/>
<line x1="9.56726" y1="19.8247" x2="30.0001" y2="19.8247" stroke="#808DBA" stroke-width="0.5"/>
<line x1="9.56726" y1="20.713" x2="30.0001" y2="20.713" stroke="#808DBA" stroke-width="0.5"/>
<line x1="9.56726" y1="21.6014" x2="30.0001" y2="21.6014" stroke="#808DBA" stroke-width="0.5"/>
<line x1="9.56726" y1="22.4899" x2="30.0001" y2="22.4899" stroke="#808DBA" stroke-width="0.5"/>
</g>
<defs>
<filter id="filter0_d" x="5.56726" y="8.96997" width="28.4328" height="22.2141" filterUnits="userSpaceOnUse" color-interpolation-filters="sRGB">
<feFlood flood-opacity="0" result="BackgroundImageFix"/>
<feColorMatrix in="SourceAlpha" type="matrix" values="0 0 0 0 0 0 0 0 0 0 0 0 0 0 0 0 0 0 127 0"/>
<feOffset dy="4"/>
<feGaussianBlur stdDeviation="2"/>
<feColorMatrix type="matrix" values="0 0 0 0 0 0 0 0 0 0 0 0 0 0 0 0 0 0 0.25 0"/>
<feBlend mode="normal" in2="BackgroundImageFix" result="effect1_dropShadow"/>
<feBlend mode="normal" in="SourceGraphic" in2="effect1_dropShadow" result="shape"/>
</filter>
</defs>
</svg>
