<svg width="32" height="28" viewBox="0 0 32 28" fill="none" xmlns="http://www.w3.org/2000/svg">
<path d="M21.2388 16.0247L5.68124 19.7612C5.16547 19.8851 4.62162 19.799 4.16933 19.5219C3.71704 19.2448 3.39335 18.7993 3.26947 18.2836L0.467068 6.61538C0.343194 6.09962 0.42928 5.55577 0.70639 5.10347C0.983499 4.65118 1.42893 4.32749 1.9447 4.20362L17.5023 0.467076C18.018 0.343202 18.5619 0.429288 19.0142 0.706398C19.4665 0.983507 19.7902 1.42894 19.914 1.94471L22.7164 13.6129C22.8403 14.1287 22.7542 14.6725 22.4771 15.1248C22.2 15.5771 21.7546 15.9008 21.2388 16.0247ZM2.41177 6.14831L5.21417 17.8165L20.7718 14.08L17.9693 2.41177L2.41177 6.14831ZM5.05706 8.59829L16.7252 5.79589L17.1923 7.74058L5.52413 10.543L5.05706 8.59829ZM5.9912 12.4877L15.7147 10.1523L16.1818 12.097L6.45827 14.4324L5.9912 12.4877Z" fill="white"/>
<path d="M30 28H14C13.4696 28 12.9609 27.7893 12.5858 27.4142C12.2107 27.0392 12 26.5305 12 26V14C12 13.4696 12.2107 12.9609 12.5858 12.5858C12.9609 12.2107 13.4696 12 14 12H30C30.5304 12 31.0391 12.2107 31.4142 12.5858C31.7893 12.9609 32 13.4696 32 14V26C32 26.5305 31.7893 27.0392 31.4142 27.4142C31.0391 27.7893 30.5304 28 30 28ZM14 14V26H30V14H14ZM16 17H28V19H16V17ZM16 21H26V23H16V21Z" fill="white"/>
</svg>
