<svg width="16" height="12" viewBox="0 0 16 12" fill="none" xmlns="http://www.w3.org/2000/svg">
<path fill-rule="evenodd" clip-rule="evenodd" d="M1.14286 11.1999H10.8571C11.1602 11.1999 11.4509 11.0819 11.6653 10.8718C11.8796 10.6618 12 10.3769 12 10.0799V7.80628L15.0971 9.97348C15.1824 10.033 15.2828 10.0684 15.3872 10.0758C15.4916 10.0833 15.5961 10.0624 15.6893 10.0156C15.7824 9.96882 15.8607 9.89783 15.9155 9.8104C15.9703 9.72298 15.9995 9.62248 16 9.51988V1.67988C15.9995 1.57728 15.9703 1.47678 15.9155 1.38935C15.8607 1.30193 15.7824 1.23094 15.6893 1.18413C15.5961 1.13732 15.4916 1.1165 15.3872 1.12393C15.2828 1.13136 15.1824 1.16677 15.0971 1.22628L12 3.39348V1.11988C12 0.822835 11.8796 0.537959 11.6653 0.327918C11.4509 0.117878 11.1602 -0.00012207 10.8571 -0.00012207H1.14286C0.839753 -0.00012207 0.549062 0.117878 0.334735 0.327918C0.120408 0.537959 0 0.822835 0 1.11988V10.0799C0 10.3769 0.120408 10.6618 0.334735 10.8718C0.549062 11.0819 0.839753 11.1999 1.14286 11.1999ZM5.95563 2.39978C6.04862 2.39978 6.1378 2.43672 6.20355 2.50247C6.2693 2.56823 6.30624 2.65741 6.30624 2.7504V5.20455H8.76064C8.85363 5.20455 8.94281 5.24149 9.00856 5.30724C9.07432 5.373 9.11125 5.46218 9.11125 5.55516C9.11125 5.64815 9.07432 5.73733 9.00856 5.80309C8.94281 5.86884 8.85363 5.90578 8.76064 5.90578H6.30633V8.36009C6.30633 8.45308 6.26939 8.54226 6.20364 8.60801C6.13789 8.67377 6.04871 8.71071 5.95572 8.71071C5.86273 8.71071 5.77355 8.67377 5.7078 8.60801C5.64204 8.54226 5.6051 8.45308 5.6051 8.36009V5.90594H3.1507C3.05772 5.90594 2.96854 5.869 2.90278 5.80324C2.83703 5.73749 2.80009 5.64831 2.80009 5.55532C2.80009 5.46233 2.83703 5.37315 2.90278 5.3074C2.96854 5.24164 3.05772 5.2047 3.1507 5.2047H5.60501V2.7504C5.60501 2.65741 5.64195 2.56823 5.7077 2.50247C5.77346 2.43672 5.86264 2.39978 5.95563 2.39978Z" fill="#18191A"/>
</svg>
