<svg width="160" height="160" viewBox="0 0 160 160" fill="none" xmlns="http://www.w3.org/2000/svg">
<path d="M103.199 31.2039C103.199 31.2039 86.0847 52.8814 58.7025 39.951C31.3204 27.0205 3.93814 62.0089 27.5173 83.3061C51.0964 104.603 28.0225 116.306 44.0412 129.358C62.2475 144.193 78.0982 114.111 92.5499 120.957C124.446 136.065 148.075 130.084 142.751 112.59C133.404 81.8811 121.453 79.8834 130.581 63.9104C139.708 47.9374 119.564 14.7257 103.199 31.2039Z" fill="#5E5F5F"/>
<path d="M93.8811 91.1582L92.5291 98.417L86.0893 132.923L74.4889 130.757L81.927 90.8965L82.2806 88.9971L93.8811 91.1582Z" fill="#BFBFC1"/>
<path d="M122.45 73.7992L118.45 95.244C118.438 95.3069 118.414 95.3668 118.38 95.4204C118.345 95.474 118.3 95.5202 118.247 95.5563C118.194 95.5924 118.135 95.6178 118.072 95.631C118.01 95.6442 117.945 95.645 117.882 95.6332L61.6852 85.1519L68.2996 49.6879L110.973 57.6471C118.708 59.0894 123.845 66.3195 122.45 73.7992Z" fill="#37393E"/>
<path d="M80.3026 66.6026L76.3339 87.8809L46.8358 82.3793L50.8045 61.1009C52.2657 53.2665 60.0538 48.1469 68.1993 49.6661C76.3448 51.1853 81.7638 58.768 80.3026 66.6026Z" fill="#37393E"/>
<path d="M94.0353 76.5495C91.8615 76.1441 90.4272 74.0314 90.8366 71.8375C91.246 69.6436 93.3451 68.1895 95.5188 68.5952C96.2118 68.7254 96.8579 69.0367 97.3914 69.4976C97.925 69.9585 98.327 70.5525 98.5565 71.2192L126.015 76.3405L125.273 80.3177L97.8147 75.1965C97.3603 75.7357 96.7713 76.145 96.1074 76.3826C95.4435 76.6203 94.7286 76.6779 94.0353 76.5495Z" fill="#1E1F22"/>
<path d="M79.324 66.9936L75.4573 87.7251L47.6691 82.5423L51.536 61.8107C52.9596 54.1778 60.3346 49.1499 68.008 50.5811C75.6815 52.0123 80.7476 59.3606 79.324 66.9936Z" fill="#18191A"/>
<path d="M94.814 74.5403C95.9312 74.5403 96.8369 73.6346 96.8369 72.5173C96.8369 71.4001 95.9312 70.4944 94.814 70.4944C93.6967 70.4944 92.791 71.4001 92.791 72.5173C92.791 73.6346 93.6967 74.5403 94.814 74.5403Z" fill="white"/>
<path d="M126.332 76.3264L123.907 89.331C123.896 89.387 123.864 89.4366 123.817 89.4688C123.77 89.501 123.712 89.5132 123.656 89.5028L117.28 88.3136C117.269 88.3115 117.259 88.3052 117.253 88.2959C117.247 88.2866 117.244 88.2752 117.246 88.2641L119.703 75.09C119.706 75.0789 119.712 75.0692 119.721 75.0628C119.73 75.0564 119.742 75.054 119.753 75.0561L126.298 76.2769C126.309 76.279 126.319 76.2853 126.326 76.2946C126.332 76.3039 126.334 76.3153 126.332 76.3264Z" fill="#18191A"/>
<path d="M56.8649 75.1028C57.1333 77.078 59.3007 79.4256 59.3007 79.4256C55.9981 79.6596 54.2096 77.792 53.44 76.6571C52.4885 76.932 51.5106 77.1056 50.5226 77.1748C43.7425 77.6554 37.9058 73.2289 37.4843 67.283C37.0628 61.3371 42.2168 56.1315 48.9969 55.651C55.777 55.1705 61.6132 59.5967 62.0346 65.5427C62.3088 69.4103 60.2218 72.9653 56.8649 75.1028Z" fill="#E4E6EA"/>
<path d="M76.3625 87.894C76.0555 88.6711 70.4408 111.823 52.2713 108.434C32.3474 105.061 46.7588 82.3726 46.7588 82.3726L76.3625 87.894Z" fill="#37393E"/>
<path d="M49.7592 68.4526C50.6903 68.4526 51.445 67.6979 51.445 66.7669C51.445 65.8359 50.6903 65.0811 49.7592 65.0811C48.8282 65.0811 48.0735 65.8359 48.0735 66.7669C48.0735 67.6979 48.8282 68.4526 49.7592 68.4526Z" fill="#1E88E5"/>
<path d="M42.2125 67.7175C43.1492 67.7175 43.9085 66.9582 43.9085 66.0216C43.9085 65.085 43.1492 64.3257 42.2125 64.3257C41.2759 64.3257 40.5166 65.085 40.5166 66.0216C40.5166 66.9582 41.2759 67.7175 42.2125 67.7175Z" fill="#1E88E5"/>
<path d="M57.2339 69.171C58.1705 69.171 58.9298 68.4117 58.9298 67.4751C58.9298 66.5385 58.1705 65.7792 57.2339 65.7792C56.2973 65.7792 55.538 66.5385 55.538 67.4751C55.538 68.4117 56.2973 69.171 57.2339 69.171Z" fill="#1E88E5"/>
<path d="M93.8812 91.1582L92.5292 98.417L81.927 90.8965L82.2807 88.9971L93.8812 91.1582Z" fill="#242526"/>
</svg>
