<svg width="45" height="44" viewBox="0 0 45 44" fill="none" xmlns="http://www.w3.org/2000/svg">
<path d="M22.0947 12.4C27.3867 12.4 31.6947 16.708 31.6947 22C31.6947 27.292 27.3867 31.6 22.0947 31.6C16.8027 31.6 12.4947 27.292 12.4947 22C12.4947 16.708 16.8027 12.4 22.0947 12.4ZM22.0947 10C15.4671 10 10.0947 15.3724 10.0947 22C10.0947 28.6276 15.4671 34 22.0947 34C28.7223 34 34.0947 28.6276 34.0947 22C34.0947 15.3724 28.7223 10 22.0947 10ZM16.7547 23.2C16.7307 23.3992 16.6947 23.596 16.6947 23.8C16.6947 25.2322 17.2637 26.6057 18.2764 27.6184C19.289 28.6311 20.6626 29.2 22.0947 29.2C23.5269 29.2 24.9004 28.6311 25.9131 27.6184C26.9258 26.6057 27.4947 25.2322 27.4947 23.8C27.4947 23.596 27.4563 23.3992 27.4347 23.2H16.7547V23.2ZM19.6947 19.6V17.2C19.6947 16.8817 19.5683 16.5765 19.3433 16.3515C19.1182 16.1264 18.813 16 18.4947 16C18.1765 16 17.8712 16.1264 17.6462 16.3515C17.4212 16.5765 17.2947 16.8817 17.2947 17.2V19.6C17.2947 19.9183 17.4212 20.2235 17.6462 20.4485C17.8712 20.6736 18.1765 20.8 18.4947 20.8C18.813 20.8 19.1182 20.6736 19.3433 20.4485C19.5683 20.2235 19.6947 19.9183 19.6947 19.6ZM26.8947 19.6V17.2C26.8947 16.8817 26.7683 16.5765 26.5433 16.3515C26.3182 16.1264 26.013 16 25.6947 16C25.3765 16 25.0712 16.1264 24.8462 16.3515C24.6212 16.5765 24.4947 16.8817 24.4947 17.2V19.6C24.4947 19.9183 24.6212 20.2235 24.8462 20.4485C25.0712 20.6736 25.3765 20.8 25.6947 20.8C26.013 20.8 26.3182 20.6736 26.5433 20.4485C26.7683 20.2235 26.8947 19.9183 26.8947 19.6Z" fill="#03A9F4"/>
</svg>
