<svg width="24" height="24" viewBox="0 0 24 24" fill="none" xmlns="http://www.w3.org/2000/svg">
<path d="M4.73972 20H19.8343C21.6666 20 22.5741 19.0961 22.5741 17.3058V6.69419C22.5741 4.90386 21.6666 4 19.8343 4H4.73972C2.91615 4 2 4.89517 2 6.69419V17.3058C2 19.1048 2.91615 20 4.73972 20ZM16.4926 11.9783C16.0999 11.6306 15.6462 11.4481 15.1751 11.4481C14.6952 11.4481 14.2677 11.6133 13.8663 11.9696L9.92249 15.4807L8.30833 14.0206C7.94187 13.6991 7.54051 13.5253 7.13043 13.5253C6.73779 13.5253 6.37133 13.6904 6.00487 14.012L3.40476 16.3498V6.76372C3.40476 5.85986 3.88465 5.39924 4.75717 5.39924H19.8169C20.6807 5.39924 21.1693 5.85986 21.1693 6.76372V16.3585L16.4926 11.9783ZM8.50028 12.0739C9.62584 12.0739 10.5507 11.1526 10.5507 10.0228C10.5507 8.90168 9.62584 7.97175 8.50028 7.97175C7.36601 7.97175 6.44113 8.90168 6.44113 10.0228C6.44113 11.1526 7.36601 12.0739 8.50028 12.0739Z" fill="#03A9F4"/>
</svg>
