<svg width="25" height="24" viewBox="0 0 25 24" fill="none" xmlns="http://www.w3.org/2000/svg">
<ellipse cx="12.0473" cy="12" rx="12.0473" ry="12" fill="#03A9F4"/>
<path d="M7.73552 17H17.1697C18.3148 17 18.882 16.4351 18.882 15.3161V8.68387C18.882 7.56491 18.3148 7 17.1697 7H7.73552C6.59579 7 6.02319 7.55948 6.02319 8.68387V15.3161C6.02319 16.4405 6.59579 17 7.73552 17ZM15.0811 11.9864C14.8357 11.7691 14.5521 11.6551 14.2576 11.6551C13.9577 11.6551 13.6905 11.7583 13.4396 11.981L10.9748 14.1754L9.9659 13.2629C9.73686 13.0619 9.48601 12.9533 9.22971 12.9533C8.98431 12.9533 8.75528 13.0565 8.52624 13.2575L6.90117 14.7186V8.72732C6.90117 8.16241 7.2011 7.87452 7.74642 7.87452H17.1587C17.6986 7.87452 18.004 8.16241 18.004 8.72732V14.7241L15.0811 11.9864ZM10.0859 12.0462C10.7893 12.0462 11.3674 11.4704 11.3674 10.7643C11.3674 10.0636 10.7893 9.48235 10.0859 9.48235C9.37695 9.48235 8.7989 10.0636 8.7989 10.7643C8.7989 11.4704 9.37695 12.0462 10.0859 12.0462Z" fill="white"/>
</svg>
