<svg width="16" height="15" viewBox="0 0 16 15" fill="none" xmlns="http://www.w3.org/2000/svg">
<path d="M7.33337 2.16669H2.66671C2.31309 2.16669 1.97395 2.30716 1.7239 2.55721C1.47385 2.80726 1.33337 3.1464 1.33337 3.50002V12.8334C1.33337 13.187 1.47385 13.5261 1.7239 13.7762C1.97395 14.0262 2.31309 14.1667 2.66671 14.1667H12C12.3537 14.1667 12.6928 14.0262 12.9429 13.7762C13.1929 13.5261 13.3334 13.187 13.3334 12.8334V8.16669" stroke="#18191A" stroke-width="1.25" stroke-linecap="round" stroke-linejoin="round"/>
<path d="M12.3334 1.16665C12.5986 0.901438 12.9583 0.752441 13.3334 0.752441C13.7084 0.752441 14.0682 0.901438 14.3334 1.16665C14.5986 1.43187 14.7476 1.79158 14.7476 2.16665C14.7476 2.54173 14.5986 2.90144 14.3334 3.16665L8.00004 9.49999L5.33337 10.1667L6.00004 7.49999L12.3334 1.16665Z" stroke="#18191A" stroke-width="1.25" stroke-linecap="round" stroke-linejoin="round"/>
</svg>
