<svg width="28" height="28" viewBox="0 0 28 28" fill="none" xmlns="http://www.w3.org/2000/svg">
<g clip-path="url(#clip0)">
<path d="M21.916 4.38955C22.0028 3.64459 21.3118 2.7712 20.4923 2.67567L10.2865 1.48583C9.46702 1.39029 8.59362 2.08131 8.50677 2.82626L6.08802 23.5732C5.99683 24.3554 6.69218 25.1916 7.51163 25.2871L17.7548 26.4813C18.537 26.5725 19.4476 25.8858 19.5344 25.1409L21.9532 4.39389L21.916 4.38955Z" fill="#5C6D6D"/>
<path d="M19.1595 24.7951C19.0727 25.5401 18.2409 26.1982 17.4959 26.1113L7.81149 24.9823C7.06654 24.8955 6.40843 24.0636 6.49528 23.3187L8.84022 3.20492C8.92707 2.45997 9.75887 1.80186 10.5038 1.88871L20.1882 3.01775C20.9332 3.1046 21.5913 3.93641 21.5044 4.68136L19.1595 24.7951Z" fill="#212528"/>
<path d="M19.4343 4.62876C19.64 4.65274 19.8262 4.50542 19.8502 4.2997C19.8742 4.09399 19.7269 3.90779 19.5212 3.8838C19.3154 3.85982 19.1292 4.00714 19.1053 4.21286C19.0813 4.41857 19.2286 4.60477 19.4343 4.62876Z" fill="#94989B"/>
<path d="M16.3115 3.88717C16.2985 3.99891 16.2526 4.06907 16.1781 4.06038L14.1667 3.82589C14.0922 3.8172 14.0636 3.73837 14.0767 3.62662C14.0854 3.55213 14.1356 3.44473 14.2101 3.45341L16.2215 3.6879C16.296 3.69659 16.3202 3.81268 16.3115 3.88717Z" fill="#94989B"/>
<path d="M9.45483 4.40919L20.6292 5.71194L18.5448 23.5908L7.37045 22.2881L9.45483 4.40919Z" fill="#3E4347"/>
<path d="M14.1907 24.6689C14.1733 24.8179 14.0442 24.9538 13.8579 24.9321L11.6231 24.6716C11.4741 24.6542 11.3381 24.5251 11.3598 24.3389L11.425 23.7801C11.4423 23.6312 11.5715 23.4952 11.7577 23.5169L13.9926 23.7775C14.1416 23.7948 14.2775 23.9239 14.2558 24.1102L14.1907 24.6689Z" fill="#94989B"/>
<path d="M11.7714 7.20878C11.7497 7.39502 11.5876 7.48939 11.4386 7.47202L10.2095 7.32872C10.0232 7.30701 9.92886 7.14499 9.94623 6.996L10.0895 5.76682C10.1112 5.58058 10.2733 5.48621 10.4222 5.50358L11.6514 5.64688C11.8377 5.6686 11.932 5.83061 11.9147 5.9796L11.7714 7.20878Z" fill="#42ADE2"/>
<path d="M14.3785 7.51275C14.3568 7.69899 14.1948 7.79336 14.0458 7.77599L12.8166 7.63269C12.6304 7.61098 12.536 7.44896 12.5534 7.29997L12.6967 6.07079C12.7184 5.88455 12.8804 5.79018 13.0294 5.80755L14.2586 5.95085C14.4448 5.97257 14.5392 6.13458 14.5218 6.28357L14.3785 7.51275Z" fill="#C7E755"/>
<path d="M16.986 7.81672C16.9643 8.00296 16.8022 8.09733 16.6532 8.07996L15.4241 7.93666C15.2378 7.91495 15.1435 7.75293 15.1608 7.60394L15.3041 6.37476C15.3258 6.18853 15.4879 6.09415 15.6369 6.11152L16.866 6.25482C17.0523 6.27654 17.1466 6.43855 17.1293 6.58754L16.986 7.81672Z" fill="#F2B200"/>
<path d="M19.5934 8.12069C19.5717 8.30693 19.4097 8.4013 19.2607 8.38393L18.0315 8.24063C17.8453 8.21892 17.7509 8.0569 17.7682 7.90791L17.9115 6.67873C17.9333 6.4925 18.0953 6.39812 18.2443 6.41549L19.4734 6.55879C19.6597 6.58051 19.7541 6.74252 19.7367 6.89152L19.5934 8.12069Z" fill="#42ADE2"/>
<path d="M10.0995 21.5492C10.0778 21.7354 9.91576 21.8298 9.76677 21.8124L8.53759 21.6691C8.35135 21.6474 8.25698 21.4854 8.27435 21.3364L8.41765 20.1072C8.43937 19.921 8.60138 19.8266 8.75037 19.844L9.97955 19.9873C10.1658 20.009 10.2602 20.171 10.2428 20.32L10.0995 21.5492Z" fill="#C7E755"/>
<path d="M12.7067 21.8531C12.685 22.0394 12.5229 22.1337 12.3739 22.1164L11.1448 21.9731C10.9585 21.9514 10.8642 21.7893 10.8815 21.6403L11.0248 20.4112C11.0465 20.2249 11.2086 20.1306 11.3576 20.1479L12.5867 20.2912C12.773 20.3129 12.8673 20.475 12.85 20.624L12.7067 21.8531Z" fill="#FF435E"/>
<path d="M15.3141 22.1571C15.2924 22.3433 15.1304 22.4377 14.9814 22.4203L13.7522 22.277C13.566 22.2553 13.4716 22.0933 13.489 21.9443L13.6323 20.7151C13.654 20.5289 13.816 20.4345 13.965 20.4519L15.1941 20.5952C15.3804 20.6169 15.4748 20.7789 15.4574 20.9279L15.3141 22.1571Z" fill="#42ADE2"/>
<path d="M17.9215 22.4611C17.8998 22.6473 17.7378 22.7417 17.5888 22.7243L16.3596 22.581C16.1734 22.5593 16.079 22.3973 16.0964 22.2483L16.2397 21.0191C16.2614 20.8329 16.4234 20.7385 16.5724 20.7559L17.8016 20.8992C17.9878 20.9209 18.0822 21.0829 18.0648 21.2319L17.9215 22.4611Z" fill="#C28FEF"/>
<path d="M10.9376 14.3603C10.9159 14.5466 10.7539 14.6409 10.6049 14.6236L9.37573 14.4803C9.18949 14.4586 9.09512 14.2965 9.11249 14.1475L9.25579 12.9184C9.2775 12.7321 9.43952 12.6378 9.58851 12.6551L10.8177 12.7984C11.0039 12.8201 11.0983 12.9822 11.0809 13.1312L10.9376 14.3603Z" fill="#C7E755"/>
<path d="M13.5448 14.6643C13.5231 14.8505 13.3611 14.9449 13.2121 14.9275L11.9829 14.7842C11.7967 14.7625 11.7023 14.6005 11.7197 14.4515L11.863 13.2223C11.8847 13.0361 12.0467 12.9417 12.1957 12.9591L13.4249 13.1024C13.6111 13.1241 13.7055 13.2861 13.6881 13.4351L13.5448 14.6643Z" fill="#C28FEF"/>
<path d="M16.1522 14.9683C16.1305 15.1545 15.9685 15.2489 15.8195 15.2315L14.5903 15.0882C14.4041 15.0665 14.3097 14.9045 14.3271 14.7555L14.4704 13.5263C14.4921 13.3401 14.6541 13.2457 14.8031 13.2631L16.0323 13.4064C16.2185 13.4281 16.3129 13.5901 16.2955 13.7391L16.1522 14.9683Z" fill="#42ADE2"/>
<path d="M11.2155 11.9765C11.1937 12.1627 11.0317 12.2571 10.8827 12.2397L9.65356 12.0964C9.46732 12.0747 9.37295 11.9127 9.39032 11.7637L9.53362 10.5345C9.55533 10.3483 9.71735 10.2539 9.86634 10.2713L11.0955 10.4146C11.2818 10.4363 11.3761 10.5983 11.3588 10.7473L11.2155 11.9765Z" fill="#FF435E"/>
<path d="M13.8229 12.2804C13.8012 12.4667 13.6391 12.561 13.4902 12.5437L12.261 12.4004C12.0747 12.3787 11.9804 12.2166 11.9977 12.0677L12.141 10.8385C12.1628 10.6522 12.3248 10.5579 12.4738 10.5752L13.7029 10.7185C13.8892 10.7403 13.9836 10.9023 13.9662 11.0513L13.8229 12.2804Z" fill="#F2B200"/>
<path d="M16.4301 12.5844C16.4083 12.7706 16.2463 12.865 16.0973 12.8476L14.8682 12.7043C14.6819 12.6826 14.5875 12.5206 14.6049 12.3716L14.7482 11.1424C14.7699 10.9562 14.932 10.8618 15.0809 10.8792L16.3101 11.0225C16.4964 11.0442 16.5907 11.2062 16.5734 11.3552L16.4301 12.5844Z" fill="#C7E755"/>
<path d="M19.0375 12.8884C19.0158 13.0746 18.8537 13.169 18.7048 13.1516L17.4756 13.0083C17.2893 12.9866 17.195 12.8246 17.2123 12.6756L17.3556 11.4464C17.3774 11.2602 17.5394 11.1658 17.6884 11.1832L18.9175 11.3265C19.1038 11.3482 19.1981 11.5102 19.1808 11.6592L19.0375 12.8884Z" fill="#F2B200"/>
<path d="M11.4933 9.59261C11.4716 9.77885 11.3096 9.87323 11.1606 9.85586L9.93139 9.71255C9.74515 9.69084 9.65078 9.52882 9.66815 9.37983L9.81145 8.15066C9.83316 7.96442 9.99518 7.87005 10.1442 7.88742L11.3733 8.03072C11.5596 8.05243 11.654 8.21445 11.6366 8.36344L11.4933 9.59261Z" fill="#C28FEF"/>
<path d="M14.1007 9.8966C14.079 10.0828 13.917 10.1772 13.768 10.1598L12.5388 10.0165C12.3526 9.99483 12.2582 9.83281 12.2756 9.68382L12.4189 8.45464C12.4406 8.2684 12.6026 8.17403 12.7516 8.1914L13.9808 8.3347C14.167 8.35642 14.2614 8.51843 14.244 8.66742L14.1007 9.8966Z" fill="#42ADE2"/>
<path d="M16.7081 10.2006C16.6864 10.3868 16.5244 10.4812 16.3754 10.4638L15.1462 10.3205C14.96 10.2988 14.8656 10.1368 14.883 9.98779L15.0263 8.75861C15.048 8.57238 15.21 8.478 15.359 8.49537L16.5882 8.63867C16.7744 8.66039 16.8688 8.8224 16.8514 8.97139L16.7081 10.2006Z" fill="#FF435E"/>
<path d="M19.3153 10.5045C19.2936 10.6908 19.1316 10.7852 18.9826 10.7678L17.7534 10.6245C17.5672 10.6028 17.4728 10.4408 17.4902 10.2918L17.6335 9.06258C17.6552 8.87635 17.8172 8.78197 17.9662 8.79934L19.1954 8.94264C19.3816 8.96436 19.476 9.12637 19.4586 9.27537L19.3153 10.5045Z" fill="#C28FEF"/>
</g>
<defs>
<clipPath id="clip0">
<rect width="24" height="24" fill="white" transform="translate(3.47021 0.691162) rotate(6.64972)"/>
</clipPath>
</defs>
</svg>
