<svg xmlns="http://www.w3.org/2000/svg" width="36" height="36" fill="none" viewBox="0 0 36 36">
    <circle cx="18" cy="18" r="18" fill="#727475"/>
    <path fill="#fff" fill-rule="evenodd" d="M15.018 10.796c.002-.44.36-.796.8-.796h10.376c.442 0 .8.358.8.8V19.9c0 .032-.009.048-.017.059-.01.013-.026.026-.048.035-.023.008-.044.009-.06.005-.013-.002-.03-.01-.05-.033l-.951-1.089c-.095-.109-.232-.171-.377-.171h-1.004v1h.777l.801.918c.668.765 1.929.293 1.929-.724V10.8c0-.994-.806-1.8-1.8-1.8H15.818c-.991 0-1.795.8-1.8 1.791L14 14.5h1l.018-3.704z" clip-rule="evenodd"/>
    <path stroke="#fff" stroke-linecap="square" d="M17.214 13.5h5.572"/>
    <path fill-rule="evenodd" stroke="#fff" stroke-linecap="round" stroke-linejoin="round" d="M11.3 16c-.718 0-1.3.582-1.3 1.3v9.296c0 .528.633.798 1.015.433l1.383-1.323h9.312c.72 0 1.303-.586 1.3-1.306l-.034-7.106c-.003-.716-.585-1.294-1.3-1.294H11.3z" clip-rule="evenodd"/>
    <path stroke="#fff" stroke-linecap="square" d="M19.762 19.5h-6.508M16.808 22.583h-3.604"/>
</svg>
