<svg width="64" height="64" viewBox="0 0 64 64" fill="none" xmlns="http://www.w3.org/2000/svg">
<circle cx="32" cy="32" r="32" fill="#4681B4"/>
<path fill-rule="evenodd" clip-rule="evenodd" d="M33.7573 28.6217C35.1531 27.836 36.0974 26.3295 36.0974 24.6C36.0974 22.0595 34.0598 20 31.5463 20C29.0328 20 26.9952 22.0595 26.9952 24.6C26.9952 26.3294 27.9394 27.8359 29.3352 28.6216C26.3946 29.5576 24.2644 32.3109 24.2644 35.5617V43H38.8279V35.5616C38.8279 32.3109 36.6978 29.5577 33.7573 28.6217Z" fill="#F9F9F9"/>
<path opacity="0.85" fill-rule="evenodd" clip-rule="evenodd" d="M20.2144 30.559C21.4216 29.8791 22.2382 28.5758 22.2382 27.0798C22.2382 24.8816 20.4751 23.0996 18.3003 23.0996C16.1254 23.0996 14.3624 24.8816 14.3624 27.0798C14.3624 28.5759 15.179 29.8793 16.3864 30.5592C13.8426 31.3694 12 33.7514 12 36.5638V42.9999H24.6013V36.5638C24.6013 33.7512 22.7585 31.3692 20.2144 30.559Z" fill="#F9F9F9"/>
<path opacity="0.8" fill-rule="evenodd" clip-rule="evenodd" d="M47.0418 30.5591C48.2491 29.8791 49.0657 28.5759 49.0657 27.0798C49.0657 24.8816 47.3026 23.0996 45.1278 23.0996C42.9529 23.0996 41.1899 24.8816 41.1899 27.0798C41.1899 28.576 42.0066 29.8793 43.2139 30.5592C40.67 31.3694 38.8274 33.7514 38.8274 36.5638V42.9999H51.4287V36.5638C51.4287 33.7513 49.5859 31.3692 47.0418 30.5591Z" fill="#F9F9F9"/>
</svg>