<svg xmlns="http://www.w3.org/2000/svg" width="28" height="19" fill="none" viewBox="0 0 28 19">
    <path fill="#fff" d="M24.528 14.184c2.03 0 2.753-1.648 2.777-2.777V6.534c-.008-2.038-1.649-2.753-2.777-2.777l-2.77.008-2.103-2.103C18.112.119 16.407.038 15.018.517h-7.21l-3.25 3.248-1.144-.008C1.375 3.765.66 5.406.636 6.534v4.873c0 .877.309 1.51.756 1.957.576.576 1.388.82 2.022.82l4.393-.008 2.915 2.915c1.38 1.38 2.94 1.218 4.036.626 1.162.674 2.364.479 3.249 0 1.583.934 3.248.21 4.084-.626l2.437-2.436-.48-.479.48.008zm-4.06 1.283c-.366.366-.967.658-1.625 0l-.812-.812-.812.812c-.365.366-.966.658-1.624 0l-.812-.812-.812.812c-.366.366-.967.658-1.624 0l-3.582-3.581H3.438c-.487-.016-.495-.3-.495-.48L2.935 6.56c.016-.488.3-.496.479-.496l2.103-.008 3.248-3.248h3.249l-1.292 1.291c-.982.983-1.786 3.086 0 4.873 1.787 1.786 3.89.982 4.873 0l5.684 5.684-.812.812zm4.06-3.59l-2.77.009-6.163-6.164-1.624 1.624c-.366.366-.967.658-1.624 0-.658-.657-.366-1.258 0-1.624l2.436-2.436c.373-.374 1.762-1.486 3.248 0l2.77 2.77h3.702c.488.015.496.3.496.478l.008 4.848c-.017.488-.3.496-.48.496z"/>
</svg>
