<svg width="26" height="26" viewBox="0 0 26 26" fill="none" xmlns="http://www.w3.org/2000/svg">
<path d="M13 4.0625C11.2323 4.0625 9.50436 4.58668 8.03459 5.56874C6.56483 6.55081 5.41929 7.94665 4.74283 9.57977C4.06637 11.2129 3.88938 13.0099 4.23424 14.7436C4.57909 16.4773 5.43031 18.0698 6.68024 19.3198C7.93017 20.5697 9.52268 21.4209 11.2564 21.7658C12.9901 22.1106 14.7871 21.9336 16.4202 21.2572C18.0534 20.5807 19.4492 19.4352 20.4313 17.9654C21.4133 16.4956 21.9375 14.7677 21.9375 13C21.9375 10.6296 20.9959 8.35634 19.3198 6.68023C17.6437 5.00413 15.3704 4.0625 13 4.0625Z" stroke="white" stroke-width="2" stroke-miterlimit="10"/>
<path d="M10.1562 10.2725C10.1562 10.2725 10.1989 9.38386 11.15 8.61859C11.7142 8.16409 12.3906 8.03257 13 8.02343C13.555 8.01632 14.0507 8.10823 14.3472 8.24941C14.855 8.49112 15.8438 9.0812 15.8438 10.336C15.8438 11.6563 14.9805 12.256 13.9968 12.9157C13.0132 13.5753 12.7461 14.2914 12.7461 15.0312" stroke="white" stroke-width="2" stroke-miterlimit="10" stroke-linecap="round"/>
<path d="M12.6953 18.6875C13.2562 18.6875 13.7109 18.2328 13.7109 17.6719C13.7109 17.111 13.2562 16.6562 12.6953 16.6562C12.1344 16.6562 11.6797 17.111 11.6797 17.6719C11.6797 18.2328 12.1344 18.6875 12.6953 18.6875Z" fill="white"/>
</svg>
