<svg width="25" height="24" viewBox="0 0 25 24" fill="none" xmlns="http://www.w3.org/2000/svg">
<path d="M5.04004 20.5V12.4842L12.04 6.65085L19.04 12.4842V20.5H15.04V15.25C15.04 14.6977 14.5923 14.25 14.04 14.25H10.04C9.48775 14.25 9.04004 14.6977 9.04004 15.25V20.5H5.04004Z" fill="white" stroke="white"/>
<path fill-rule="evenodd" clip-rule="evenodd" d="M11.5599 2.42383C11.8381 2.19206 12.2421 2.19206 12.5202 2.42383L21.5202 9.92383C21.8384 10.189 21.8814 10.6619 21.6162 10.9801C21.3511 11.2983 20.8781 11.3413 20.5599 11.0762L12.0401 3.97628L3.5202 11.0762C3.20199 11.3413 2.72907 11.2983 2.46389 10.9801C2.19872 10.6619 2.24171 10.189 2.55992 9.92383L11.5599 2.42383Z" fill="white"/>
</svg>
