<svg width="24" height="24" viewBox="0 0 24 24" fill="none" xmlns="http://www.w3.org/2000/svg">
<path d="M12.531 1.719C12.4613 1.64915 12.3786 1.59374 12.2875 1.55593C12.1963 1.51812 12.0987 1.49866 12 1.49866C11.9014 1.49866 11.8037 1.51812 11.7126 1.55593C11.6214 1.59374 11.5387 1.64915 11.469 1.719L2.469 10.719C2.3994 10.7888 2.34423 10.8716 2.30665 10.9627C2.26908 11.0538 2.24983 11.1514 2.25 11.25V21.75C2.25 21.9489 2.32902 22.1397 2.46967 22.2803C2.61032 22.421 2.80109 22.5 3 22.5H9.75C9.94891 22.5 10.1397 22.421 10.2803 22.2803C10.421 22.1397 10.5 21.9489 10.5 21.75V15.75H13.5V21.75C13.5 21.9489 13.579 22.1397 13.7197 22.2803C13.8603 22.421 14.0511 22.5 14.25 22.5H21C21.1989 22.5 21.3897 22.421 21.5303 22.2803C21.671 22.1397 21.75 21.9489 21.75 21.75V11.25C21.7502 11.1514 21.7309 11.0538 21.6933 10.9627C21.6558 10.8716 21.6006 10.7888 21.531 10.719L19.5 8.6895V3.75C19.5 3.55109 19.421 3.36032 19.2803 3.21967C19.1397 3.07902 18.9489 3 18.75 3H17.25C17.0511 3 16.8603 3.07902 16.7197 3.21967C16.579 3.36032 16.5 3.55109 16.5 3.75V5.6895L12.531 1.719ZM3.75 21V11.5605L12 3.3105L20.25 11.5605V21H15V15C15 14.8011 14.921 14.6103 14.7803 14.4697C14.6397 14.329 14.4489 14.25 14.25 14.25H9.75C9.55109 14.25 9.36032 14.329 9.21967 14.4697C9.07902 14.6103 9 14.8011 9 15V21H3.75Z" fill="#E4E6EA"/>
</svg>
