<svg width="24" height="24" viewBox="0 0 24 24" fill="none" xmlns="http://www.w3.org/2000/svg">
<path d="M21 19.5H3V11.5L12 3L21 11.5V19.5Z" fill="#E8EAF6"/>
<path d="M19.5 10.5L17 8V4.5H19.5V10.5Z" fill="#C5CAE9"/>
<path d="M3 19.5H21V22H3V19.5Z" fill="#C5CAE9"/>
<path d="M12 2.14999L2 11.45L3 12.55L12 4.19999L21 12.55L22 11.45L12 2.14999Z" fill="#B71C1C"/>
<path d="M9 14H15V22H9V14Z" fill="#D84315"/>
<path d="M10.5 8.5H13.5V11.5H10.5V8.5Z" fill="#01579B"/>
<path d="M13.75 17.75C13.6 17.75 13.5 17.85 13.5 18V19C13.5 19.15 13.6 19.25 13.75 19.25C13.9 19.25 14 19.15 14 19V18C14 17.85 13.9 17.75 13.75 17.75Z" fill="#FF8A65"/>
</svg>
