<svg width="48" height="48" viewBox="0 0 48 48" fill="none" xmlns="http://www.w3.org/2000/svg">
<g opacity="0.4" filter="url(#filter0_f_1067_27536)">
<ellipse cx="24" cy="34.2859" rx="6.85714" ry="6.85714" fill="#5745C5"/>
</g>
<circle cx="24" cy="24" r="24" fill="#75B23A"/>
<circle cx="24" cy="24" r="23.5" stroke="#7761FF" stroke-opacity="0.12"/>
<g clip-path="url(#clip0_1067_27536)">
<path d="M24.389 10.2856C17.2267 10.2856 11.4286 16.0837 11.4286 23.246C11.4286 26.543 12.5655 29.6125 14.8392 32L13.9297 36.3201C13.7023 37.3433 14.7255 38.0254 15.635 37.5706L19.7278 35.2969C21.2057 35.8653 22.7973 36.2064 24.5027 36.2064C31.665 36.2064 37.463 30.4083 37.463 23.246C37.2357 16.0837 31.4376 10.2856 24.389 10.2856ZM25.1848 29.9536C24.73 30.4083 24.0479 30.4083 23.5932 29.9536C23.1384 29.4988 23.1384 28.8167 23.5932 28.362C24.0479 27.9072 24.73 27.9072 25.1848 28.362C25.5258 28.703 25.6395 29.3851 25.1848 29.9536ZM25.9806 23.9281C25.7532 24.0418 25.5258 24.1555 25.5258 24.4966V25.1787C25.5258 25.7471 25.0711 26.3156 24.389 26.3156C23.7068 26.3156 23.2521 25.7471 23.2521 25.1787V24.4966C23.2521 23.3597 24.0479 22.2228 25.1848 21.7681C26.0943 21.427 26.6627 20.4038 26.549 19.3806C26.4353 18.5848 25.7532 17.789 24.8437 17.6753C23.4795 17.448 22.3426 18.4711 22.3426 19.7217C22.3426 20.2901 21.8878 20.8586 21.2057 20.8586C20.6373 20.8586 20.0688 20.2901 20.0688 19.7217C20.0688 16.9932 22.57 14.8331 25.2985 15.4016C27.1175 15.7426 28.4817 17.2206 28.8228 18.9259C29.0502 21.086 27.9133 23.1323 25.9806 23.9281Z" fill="white"/>
</g>
<defs>
<filter id="filter0_f_1067_27536" x="12.1428" y="22.4287" width="23.7142" height="23.7144" filterUnits="userSpaceOnUse" color-interpolation-filters="sRGB">
<feFlood flood-opacity="0" result="BackgroundImageFix"/>
<feBlend mode="normal" in="SourceGraphic" in2="BackgroundImageFix" result="shape"/>
<feGaussianBlur stdDeviation="2.5" result="effect1_foregroundBlur_1067_27536"/>
</filter>
<clipPath id="clip0_1067_27536">
<rect width="27.4286" height="27.4286" fill="white" transform="translate(10.2858 10.2856)"/>
</clipPath>
</defs>
</svg>
