<svg width="32" height="32" viewBox="0 0 32 32" fill="none" xmlns="http://www.w3.org/2000/svg">
<g clip-path="url(#clip0_876_18151)">
<path d="M24.4286 23.6H23.7857V14.5729H24.1429C24.5715 14.5729 24.8572 14.2643 24.8572 13.8014C24.8572 13.3384 24.5715 13.0298 24.1429 13.0298H23.0715H15.3572V11.1009C15.3572 10.9466 15.2857 10.7152 15.1429 10.5609L12.1429 7.08889C11.8572 6.78027 11.3572 6.78027 11.0715 7.08889L8.00003 10.5609C7.85718 10.7152 7.85718 10.8695 7.85718 11.1009V23.6H7.57146C7.14289 23.6 6.85718 23.9087 6.85718 24.3716C6.85718 24.8345 7.14289 25.1431 7.57146 25.1431H24.4286C24.8572 25.1431 25.1429 24.8345 25.1429 24.3716C25.1429 23.9087 24.8572 23.6 24.4286 23.6ZM21.2143 18.1992H22.2143C22.3572 18.1992 22.4286 18.2763 22.4286 18.4307V19.588C22.4286 19.7423 22.3572 19.8194 22.2143 19.8194H21.2143C21.0715 19.8194 21 19.7423 21 19.588V18.4307C21 18.3535 21.1429 18.1992 21.2143 18.1992ZM21 16.4246V15.3445C21 15.1902 21.0715 15.113 21.2143 15.113H22.2143C22.3572 15.113 22.4286 15.1902 22.4286 15.3445V16.4246C22.4286 16.5789 22.3572 16.6561 22.2143 16.6561H21.2143C21.1429 16.6561 21 16.5018 21 16.4246ZM21.2143 21.3625H22.2143C22.3572 21.3625 22.4286 21.4397 22.4286 21.594V22.7513C22.4286 22.9056 22.3572 22.9828 22.2143 22.9828H21.2143C21.0715 22.9828 21 22.9056 21 22.7513V21.594C21 21.5169 21.1429 21.3625 21.2143 21.3625ZM18.5 15.2673C18.5 15.113 18.5715 15.0358 18.7143 15.0358H19.7143C19.8572 15.0358 19.9286 15.113 19.9286 15.2673V16.3475C19.9286 16.5018 19.8572 16.5789 19.7143 16.5789H18.7143C18.5715 16.5789 18.5 16.5018 18.5 16.3475V15.2673ZM18.5 18.4307C18.5 18.2763 18.5715 18.1992 18.7143 18.1992H19.7143C19.8572 18.1992 19.9286 18.2763 19.9286 18.4307V19.588C19.9286 19.7423 19.8572 19.8194 19.7143 19.8194H18.7143C18.5715 19.8194 18.5 19.7423 18.5 19.588V18.4307ZM18.5 21.594C18.5 21.4397 18.5715 21.3625 18.7143 21.3625H19.7143C19.8572 21.3625 19.9286 21.4397 19.9286 21.594V22.7513C19.9286 22.9056 19.8572 22.9828 19.7143 22.9828H18.7143C18.5715 22.9828 18.5 22.9056 18.5 22.7513V21.594ZM16 15.2673C16 15.113 16.0715 15.0358 16.2143 15.0358H17.2143C17.3572 15.0358 17.4286 15.113 17.4286 15.2673V16.3475C17.4286 16.5018 17.3572 16.5789 17.2143 16.5789H16.2143C16.0715 16.5789 16 16.5018 16 16.3475V15.2673ZM16 18.4307C16 18.2763 16.0715 18.1992 16.2143 18.1992H17.2143C17.3572 18.1992 17.4286 18.2763 17.4286 18.4307V19.588C17.4286 19.7423 17.3572 19.8194 17.2143 19.8194H16.2143C16.0715 19.8194 16 19.7423 16 19.588V18.4307ZM16 21.594C16 21.4397 16.0715 21.3625 16.2143 21.3625H17.2143C17.3572 21.3625 17.4286 21.4397 17.4286 21.594V22.7513C17.4286 22.9056 17.3572 22.9828 17.2143 22.9828H16.2143C16.0715 22.9828 16 22.9056 16 22.7513V21.594ZM11.5715 9.94362C12.0715 9.94362 12.4286 10.3294 12.4286 10.8695C12.4286 11.4096 12 11.7953 11.5715 11.7953C11.1429 11.7953 10.7143 11.4096 10.7143 10.8695C10.7143 10.3294 11.1429 9.94362 11.5715 9.94362ZM11.5715 13.8014C12.0715 13.8014 12.4286 14.2643 12.4286 14.7272C12.4286 15.1902 12 15.6531 11.5715 15.6531C11.1429 15.6531 10.7143 15.2673 10.7143 14.7272C10.7143 14.1871 11.1429 13.8014 11.5715 13.8014ZM10.2143 20.2052C10.2143 19.3565 10.8572 18.6621 11.6429 18.6621C12.4286 18.6621 13.0715 19.3565 13.0715 20.2052V23.6H10.2143V20.2052V20.2052Z" fill="white"/>
</g>
<defs>
<clipPath id="clip0_876_18151">
<rect width="18.2857" height="18.2857" fill="white" transform="translate(6.85718 6.85742)"/>
</clipPath>
</defs>
</svg>
