<svg width="48" height="48" viewBox="0 0 48 48" fill="none" xmlns="http://www.w3.org/2000/svg">
<circle cx="24" cy="24" r="24" fill="#6DC1F2"/>
<circle cx="24" cy="24" r="23.5" stroke="#7761FF" stroke-opacity="0.12"/>
<g clip-path="url(#clip0_1067_27520)">
<path d="M37.7144 21.9427V33.1427C37.7144 33.8284 37.3715 34.3999 36.6858 34.7427C36.0001 34.9713 35.3144 34.857 34.8572 34.3999L32.0001 31.657H24.4572C22.8572 31.657 21.4858 30.5142 21.1429 29.0284H24.8001C28.1144 29.0284 30.7429 26.3999 30.7429 23.0856V18.5142H34.2858C36.2287 18.5142 37.7144 20.1142 37.7144 21.9427Z" fill="white"/>
<path d="M24.8001 12.5713H13.9429C11.8858 12.5713 10.2858 14.1713 10.2858 16.2284V28.457C10.2858 29.1427 10.7429 29.8284 11.3143 30.057C11.8858 30.2856 12.6858 30.1713 13.2572 29.7141L16.2286 26.857C16.3429 26.7427 16.5715 26.6284 16.8001 26.6284H24.8001C26.8572 26.6284 28.4572 25.0284 28.4572 22.9713V16.1141C28.4572 14.1713 26.7429 12.5713 24.8001 12.5713ZM21.2572 20.7999H17.4858C16.8001 20.7999 16.3429 20.2284 16.3429 19.657C16.3429 19.0856 16.8001 18.5141 17.4858 18.5141H21.2572C21.9429 18.5141 22.4001 19.0856 22.4001 19.657C22.4001 20.2284 21.9429 20.7999 21.2572 20.7999Z" fill="white"/>
</g>
<defs>
<clipPath id="clip0_1067_27520">
<rect width="27.4286" height="27.4286" fill="white" transform="translate(10.2858 10.2856)"/>
</clipPath>
</defs>
</svg>
