<svg width="48" height="48" viewBox="0 0 48 48" fill="none" xmlns="http://www.w3.org/2000/svg">
<circle cx="24" cy="24" r="24" fill="#4178DF"/>
<path d="M17.5 18L33.2922 12.0246C34.6006 11.5295 36 12.4962 36 13.8951V33.0311C36 34.45 34.5635 35.4177 33.2486 34.8846L17.5 28.5H15.5V36.5C15.5 37.0523 15.0523 37.5 14.5 37.5H13C12.4477 37.5 12 37.0523 12 36.5V28.5C9.79086 28.5 8 26.7091 8 24.5V23V22C8 19.7909 9.79086 18 12 18H17.5Z" fill="white"/>
<path d="M17.5 18L33.2922 12.0246C34.6006 11.5295 36 12.4962 36 13.8951V33.0311C36 34.45 34.5635 35.4177 33.2486 34.8846L17.5 28.5M17.5 18V28.5M17.5 18H12V18C9.79086 18 8 19.7909 8 22V23V24.5C8 26.7091 9.79086 28.5 12 28.5V28.5M17.5 28.5H15.5M15.5 28.5V36.5C15.5 37.0523 15.0523 37.5 14.5 37.5H13C12.4477 37.5 12 37.0523 12 36.5V28.5M15.5 28.5H12" stroke="#4178DF" stroke-linejoin="round"/>
<path d="M37 24H41" stroke="white" stroke-linecap="round" stroke-linejoin="round"/>
<path d="M37 21L41 19" stroke="white" stroke-linecap="round"/>
<path d="M37 27L41 29" stroke="white" stroke-linecap="round"/>
</svg>
