<svg width="32" height="32" viewBox="0 0 32 32" fill="none" xmlns="http://www.w3.org/2000/svg">
<path fill-rule="evenodd" clip-rule="evenodd" d="M10.5263 8C9.13107 8 8 9.13107 8 10.5263V21.4737C8 22.8689 9.13107 24 10.5263 24H21.4737C22.8689 24 24 22.8689 24 21.4737V10.5263C24 9.13107 22.8689 8 21.4737 8H10.5263ZM10.9474 11.3684C11.645 11.3684 12.2105 10.8029 12.2105 10.1053C12.2105 9.40764 11.645 8.84211 10.9474 8.84211C10.2497 8.84211 9.68421 9.40764 9.68421 10.1053C9.68421 10.8029 10.2497 11.3684 10.9474 11.3684ZM9.68421 13.0526C9.68421 12.5876 10.0612 12.2105 10.5263 12.2105H21.4737C21.9388 12.2105 22.3158 12.5875 22.3158 13.0526V13.8947C22.3158 14.3598 21.9388 14.7368 21.4737 14.7368H10.5263C10.0612 14.7368 9.68421 14.3598 9.68421 13.8947V13.0526ZM10.5263 15.5789C10.0612 15.5789 9.68421 15.956 9.68421 16.4211V21.4737C9.68421 21.9388 10.0612 22.3158 10.5263 22.3158H21.4737C21.9388 22.3158 22.3158 21.9388 22.3158 21.4737V16.4211C22.3158 15.956 21.9388 15.5789 21.4737 15.5789H10.5263Z" fill="white"/>
</svg>
