<svg width="32" height="32" viewBox="0 0 32 32" fill="none" xmlns="http://www.w3.org/2000/svg">
<g clip-path="url(#clip0_876_18155)">
<g clip-path="url(#clip1_876_18155)">
<path d="M16.1525 6.85742C20.0382 6.85742 23.2382 10.0574 23.2382 13.9431C23.2382 16.5336 21.8668 18.8955 19.581 20.0384H16.9906V15.086C16.9906 14.4003 17.5239 13.7908 18.2858 13.7908H18.5906C19.0477 13.7908 19.3525 13.4098 19.3525 13.0288C19.3525 12.5717 19.0477 12.2669 18.5906 12.2669H18.2858C17.4477 12.2669 16.762 12.6479 16.1525 13.2574C15.6953 12.7241 14.9334 12.3431 14.0953 12.3431H13.7906C13.4096 12.3431 13.0287 12.6479 13.0287 13.105C13.0287 13.486 13.4096 13.8669 13.7906 13.8669H14.0953C14.781 13.8669 15.3906 14.4003 15.3906 15.1622V20.1146H12.8001C10.5906 18.8955 9.14294 16.5336 9.14294 13.9431C9.14294 10.0574 12.3429 6.85742 16.1525 6.85742Z" fill="white"/>
<path d="M14.7809 25.1432C13.7142 25.1432 12.7999 24.2289 12.7999 23.1622V21.6384H19.5809V23.1622C19.5809 24.2289 18.6666 25.1432 17.5999 25.1432H14.7809Z" fill="white"/>
</g>
</g>
<defs>
<clipPath id="clip0_876_18155">
<rect width="18.2857" height="18.2857" fill="white" transform="translate(6.85718 6.85742)"/>
</clipPath>
<clipPath id="clip1_876_18155">
<rect width="18.2857" height="18.2857" fill="white" transform="translate(6.85718 6.85742)"/>
</clipPath>
</defs>
</svg>
