<svg width="32" height="32" viewBox="0 0 32 32" fill="none" xmlns="http://www.w3.org/2000/svg">
<g clip-path="url(#clip0_876_18167)">
<path d="M20.1905 6.85742H11.6572C10.4381 6.85742 9.44763 7.8479 9.44763 9.06695V22.9336C9.44763 23.0098 9.44763 23.0098 9.44763 23.086C9.52382 24.2288 10.4381 25.1431 11.581 25.1431C11.581 25.1431 11.581 25.1431 11.6572 25.1431H20.1905C20.1905 25.1431 20.1905 25.1431 20.2667 25.1431C20.4191 25.1431 20.4953 25.1431 20.6476 25.1431C20.7238 25.1431 20.7238 25.1431 20.8 25.0669C20.8762 25.0669 20.9524 24.9908 21.1048 24.9908C21.7143 24.686 22.2476 24.1527 22.4 23.4669C22.4 23.3146 22.4762 23.1622 22.4762 23.0098V9.06695C22.4 7.8479 21.4095 6.85742 20.1905 6.85742ZM15.9238 23.8479C15.5429 23.8479 15.1619 23.5431 15.1619 23.086C15.1619 22.6288 15.4667 22.3241 15.9238 22.3241C16.381 22.3241 16.6857 22.705 16.6857 23.086C16.6857 23.4669 16.381 23.8479 15.9238 23.8479ZM20.1143 21.105H11.8095C11.3524 21.105 10.9714 20.7241 10.9714 20.2669V9.06695C10.9714 8.68599 11.2762 8.38123 11.6572 8.38123H11.8095L12.3429 9.37171C12.4953 9.67647 12.8 9.90504 13.1048 9.90504H18.8191C19.1238 9.90504 19.4286 9.67647 19.5048 9.37171L20.0381 8.38123H20.1905C20.5714 8.38123 20.8762 8.68599 20.8762 9.06695V20.3431C20.8762 20.7241 20.4953 21.105 20.1143 21.105Z" fill="white"/>
<path d="M18.362 14.0189H13.4858C13.0286 14.0189 12.7239 13.7142 12.7239 13.257C12.7239 12.7999 13.0286 12.4951 13.4858 12.4951H18.362C18.8191 12.4951 19.1239 12.7999 19.1239 13.257C19.1239 13.7142 18.8191 14.0189 18.362 14.0189Z" fill="white"/>
<path d="M16.0763 17.0668H13.4858C13.0286 17.0668 12.7239 16.762 12.7239 16.3049C12.7239 15.8477 13.0286 15.543 13.4858 15.543H16.0763C16.5334 15.543 16.8382 15.8477 16.8382 16.3049C16.8382 16.762 16.4572 17.0668 16.0763 17.0668Z" fill="white"/>
</g>
<defs>
<clipPath id="clip0_876_18167">
<rect width="18.2857" height="18.2857" fill="white" transform="translate(6.85718 6.85742)"/>
</clipPath>
</defs>
</svg>
