<svg width="32" height="32" viewBox="0 0 32 32" fill="none" xmlns="http://www.w3.org/2000/svg">
<g clip-path="url(#clip0_1083_28121)">
<path d="M13.569 9.8785H18.8094L20.0641 8.18092C20.2117 7.9595 20.2117 7.66427 20.1379 7.44285C19.9165 7.14762 19.6951 7 19.3999 7H12.9048C12.6095 7 12.3881 7.14762 12.2405 7.44285C12.0929 7.66427 12.1667 7.9595 12.3143 8.18092L13.569 9.8785Z" fill="white"/>
<path d="M14.0118 11.3545L12.1667 19.9162C12.0928 20.1376 12.1667 20.359 12.3143 20.5067L15.5618 24.4185C15.857 24.7875 16.3737 24.7875 16.6689 24.4185L19.9165 20.5067C20.0641 20.359 20.1379 20.1376 20.0641 19.9162L18.2927 11.3545H14.0118Z" fill="white"/>
</g>
<defs>
<clipPath id="clip0_1083_28121">
<rect width="17.7139" height="17.7139" fill="white" transform="translate(7 7)"/>
</clipPath>
</defs>
</svg>
