<svg width="24" height="24" viewBox="0 0 24 24" fill="none" xmlns="http://www.w3.org/2000/svg">
<path fill-rule="evenodd" clip-rule="evenodd" d="M6.72361 12.3618C6.39116 12.1956 6 12.4373 6 12.809V14.691C6 14.8804 6.107 15.0535 6.27639 15.1382L11.7764 17.8882C11.9172 17.9586 12.0828 17.9586 12.2236 17.8882L17.7236 15.1382C17.893 15.0535 18 14.8804 18 14.691V12.809C18 12.4373 17.6088 12.1956 17.2764 12.3618L12.2236 14.8882C12.0828 14.9586 11.9172 14.9586 11.7764 14.8882L6.72361 12.3618Z" fill="#828282"/>
<path fill-rule="evenodd" clip-rule="evenodd" d="M12.2031 5.09025C12.0738 5.03279 11.9262 5.03279 11.7969 5.09025L4.02804 8.54309C3.63213 8.71905 3.63213 9.28095 4.02804 9.45691L11.8006 12.9114C11.9277 12.9679 12.0727 12.9688 12.2006 12.914L18.303 10.2987C18.633 10.1573 19 10.3993 19 10.7583V13.5C19 13.7761 19.2239 14 19.5 14H20.5C20.7761 14 21 13.7761 21 13.5V9.32494C21 9.12734 20.8836 8.94828 20.7031 8.86803L12.2031 5.09025Z" fill="#828282"/>
</svg>
