<svg width="48" height="48" viewBox="0 0 48 48" fill="none" xmlns="http://www.w3.org/2000/svg">
<ellipse opacity="0.4" cx="24" cy="34.2859" rx="6.85714" ry="6.85714" fill="#5745C5"/>
<circle cx="24" cy="24" r="24" fill="#F5C164"/>
<circle cx="24" cy="24" r="23.5" stroke="#7761FF" stroke-opacity="0.12"/>
<g clip-path="url(#clip0_1067_27524)">
<path d="M32.3048 33.7474C31.9762 33.8569 31.5381 33.9665 31.2096 33.9665C30.881 33.9665 30.4429 33.8569 30.1143 33.7474C29.8953 34.5141 29.2381 34.9522 28.4715 34.9522H15.3286C14.3429 34.9522 13.5762 34.1855 13.5762 33.1998V18.8522V18.7426H17.1905C18.3953 18.7426 19.2715 17.7569 19.2715 16.6617V13.0474C19.2715 13.0474 19.2715 13.0474 19.381 13.0474H28.3619C29.3476 13.0474 30.1143 13.8141 30.1143 14.7998V15.4569H32.3048V14.7998C32.3048 12.6093 30.5524 10.8569 28.3619 10.8569H19.381C18.5048 10.8569 17.6286 11.1855 16.8619 11.8426C16.7524 11.9522 12.2619 16.3331 12.5905 16.1141C11.9334 16.7712 11.3857 17.7569 11.3857 18.8522V33.1998C11.3857 35.3903 13.1381 37.1427 15.3286 37.1427H28.3619C30.4429 37.1427 32.0857 35.6093 32.3048 33.7474Z" fill="white"/>
<path d="M25.7333 18.6333V24C25.7333 26.3 26.719 28.3809 28.4714 29.8047L30.6618 31.5571C30.8809 31.6667 30.9904 31.7762 31.2095 31.7762C31.4285 31.7762 31.6476 31.6667 31.7571 31.5571L33.9476 29.8047C35.6999 28.3809 36.6857 26.3 36.6857 24V18.6333C36.6857 18.0857 36.2476 17.7571 35.8095 17.7571H26.719C26.0618 17.6476 25.7333 18.0857 25.7333 18.6333Z" fill="white"/>
<path d="M16.9715 32.2139H24.0905C24.7476 32.2139 25.1857 31.7758 25.1857 31.1187C25.1857 30.4615 24.7476 30.0234 24.0905 30.0234H16.9715C16.3143 30.0234 15.8762 30.4615 15.8762 31.1187C15.8762 31.7758 16.4238 32.2139 16.9715 32.2139Z" fill="white"/>
<path d="M16.9715 27.8331H22.4476C23.1048 27.8331 23.5429 27.395 23.5429 26.7378C23.5429 26.0807 23.1048 25.6426 22.4476 25.6426H16.9715C16.3143 25.6426 15.8762 26.0807 15.8762 26.7378C15.8762 27.395 16.4238 27.8331 16.9715 27.8331Z" fill="white"/>
<path d="M16.9715 23.5616H21.7905C22.4476 23.5616 22.8857 23.1235 22.8857 22.4663C22.8857 21.8092 22.4476 21.3711 21.7905 21.3711H16.9715C16.3143 21.3711 15.8762 21.8092 15.8762 22.4663C15.8762 23.1235 16.4238 23.5616 16.9715 23.5616Z" fill="white"/>
</g>
<defs>
<clipPath id="clip0_1067_27524">
<rect width="27.4286" height="27.4286" fill="white" transform="translate(10.2858 10.2856)"/>
</clipPath>
</defs>
</svg>
