<svg width="48" height="48" viewBox="0 0 48 48" fill="none" xmlns="http://www.w3.org/2000/svg">
<circle cx="24" cy="24" r="24" fill="#F28A4F"/>
<g clip-path="url(#clip0_1102_32195)">
<path d="M15.5429 37.7142H29.9429C31.8857 37.7142 33.4857 36.1142 33.4857 34.1714V31.8856L32 33.1428C31.7714 33.3714 31.5429 33.4856 31.2 33.7142V34.1714C31.2 34.8571 30.6286 35.4285 29.9429 35.4285H15.5429C14.8571 35.4285 14.2857 34.8571 14.2857 34.1714V18.8571C14.2857 18.6285 14.2857 18.5142 14.4 18.2856C14.5143 18.1714 14.5143 18.0571 14.6286 17.9428L20 12.9142C20.1143 12.7999 20.2286 12.7999 20.3429 12.6856H20.4571C20.4571 12.5714 20.5714 12.5714 20.8 12.5714H29.9429C30.6286 12.5714 31.2 13.1428 31.2 13.8285V21.0285L33.4857 19.0856V13.8285C33.4857 11.8856 31.8857 10.2856 29.9429 10.2856H20.8C20.3429 10.2856 19.7714 10.3999 19.4286 10.6285C19.0857 10.7428 18.7429 10.9714 18.4 11.3142L13.1429 16.3428C12.8 16.5714 12.5714 16.9142 12.3429 17.3714C12.1143 17.8285 12 18.3999 12 18.8571V34.1714C12 36.1142 13.6 37.7142 15.5429 37.7142Z" fill="white"/>
<path d="M38.4001 20.6858C37.3716 20.0001 36.0001 20.1144 35.0859 20.8001L27.2001 27.4287C26.8573 27.7715 26.5144 28.1144 26.4001 28.5715L25.2573 31.7715C25.143 32.1144 25.4859 32.5715 25.8287 32.4572L29.143 32.0001C29.6001 31.8858 30.0573 31.7715 30.5144 31.4287L38.4001 24.8001C38.9716 24.3429 39.3144 23.6572 39.3144 23.0858C39.543 22.1715 39.2001 21.2572 38.4001 20.6858Z" fill="white"/>
<path d="M27.5428 18.1715C28.2285 18.1715 28.6857 17.7143 28.6857 17.0286C28.6857 16.3429 28.2285 15.8857 27.5428 15.8857H21.2571C20.5714 15.8857 20.1143 16.3429 20.1143 17.0286C20.1143 17.7143 20.5714 18.1715 21.2571 18.1715H27.5428Z" fill="white"/>
<path d="M16.1143 21.8284C16.1143 22.5141 16.5714 22.9713 17.2571 22.9713H27.5428C28.2285 22.9713 28.6857 22.5141 28.6857 21.8284C28.6857 21.1427 28.2285 20.6855 27.5428 20.6855H17.2571C16.6857 20.6855 16.1143 21.257 16.1143 21.8284Z" fill="white"/>
</g>
<defs>
<clipPath id="clip0_1102_32195">
<rect width="27.4286" height="27.4286" fill="white" transform="translate(12 10.2856)"/>
</clipPath>
</defs>
</svg>
