<svg width="24" height="24" viewBox="0 0 24 24" fill="none" xmlns="http://www.w3.org/2000/svg">
<g clip-path="url(#clip0)">
<g opacity="1">
<mask id="path-1-inside-1" fill="white">
<path fill-rule="evenodd" clip-rule="evenodd" d="M6.46738 1.89673C5.91509 1.89673 5.46738 2.34444 5.46738 2.89673C5.46738 2.94458 5.47074 2.99164 5.47723 3.0377C4.90733 3.10675 4.39668 3.27285 3.97884 3.55349C3.28706 4.01814 2.92351 4.75792 3.01344 5.57756C3.09648 6.33446 3.54718 7.01903 4.15684 7.56548C4.77832 8.12253 5.63188 8.6008 6.68601 8.94942L6.70715 8.8855C7.20951 10.3937 8.3925 11.5673 9.87156 12.0732L10.352 16.8281H8.37118C7.64063 16.8281 7.02624 17.3254 6.84808 18H6C4.89543 18 4 18.8954 4 20C4 21.1046 4.89543 22 6 22H17C18.1046 22 19 21.1046 19 20C19 18.8954 18.1046 18 17 18H16.3689C16.1908 17.3254 15.5764 16.8281 14.8458 16.8281H12.6556L13.1356 12.0772C14.6126 11.5762 15.7939 10.4102 16.3023 8.91391L16.314 8.94942C17.3681 8.6008 18.2217 8.12253 18.8432 7.56548C19.4528 7.01903 19.9035 6.33446 19.9866 5.57756C20.0765 4.75792 19.7129 4.01814 19.0212 3.55349C18.7094 3.3441 18.346 3.19847 17.9448 3.10934C17.9597 3.04082 17.9675 2.96969 17.9675 2.89673C17.9675 2.34444 17.5198 1.89673 16.9675 1.89673H6.46738ZM16.884 4.99998L16.687 6.63162C17.0311 6.45069 17.3029 6.26027 17.5083 6.07618C17.8946 5.72985 17.987 5.46391 17.9985 5.35944L17.9992 5.3536C18.0037 5.31458 18.0075 5.28192 17.906 5.21375C17.7688 5.12159 17.4556 5.00142 16.884 4.99998ZM5.09399 5.21375C5.22715 5.12431 5.52608 5.0085 6.06602 5.00041L6.30013 6.62481C5.96212 6.44592 5.69456 6.25796 5.49175 6.07618C5.10536 5.72985 5.01297 5.46391 5.00151 5.35944L5.00084 5.3536C4.9963 5.31458 4.99249 5.28192 5.09399 5.21375Z"/>
</mask>
<path d="M5.47723 3.0377L5.71778 5.02318L7.74257 4.77787L7.45762 2.75828L5.47723 3.0377ZM3.97884 3.55349L2.8637 1.89323L2.8637 1.89323L3.97884 3.55349ZM3.01344 5.57756L5.00151 5.35944L5.00151 5.35944L3.01344 5.57756ZM4.15684 7.56548L5.49175 6.07618L5.49175 6.07618L4.15684 7.56548ZM6.68601 8.94942L6.05801 10.8483L7.95685 11.4763L8.58485 9.57742L6.68601 8.94942ZM6.70715 8.8855L8.60466 8.25348L6.70043 2.5364L4.8083 8.2575L6.70715 8.8855ZM9.87156 12.0732L11.8614 11.8721L11.7325 10.5959L10.5188 10.1808L9.87156 12.0732ZM10.352 16.8281V18.8281H12.5642L12.3418 16.6271L10.352 16.8281ZM6.84808 18V20H8.38844L8.78178 18.5107L6.84808 18ZM16.3689 18L14.4352 18.5107L14.8286 20H16.3689V18ZM12.6556 16.8281L10.6658 16.6271L10.4434 18.8281H12.6556V16.8281ZM13.1356 12.0772L12.4931 10.1833L11.2751 10.5965L11.1458 11.8762L13.1356 12.0772ZM16.3023 8.91391L18.2011 8.28593L16.3277 2.6214L14.4086 8.27057L16.3023 8.91391ZM16.314 8.94942L14.4151 9.57741L15.0431 11.4763L16.942 10.8483L16.314 8.94942ZM18.8432 7.56548L17.5083 6.07618L17.5083 6.07618L18.8432 7.56548ZM19.9866 5.57756L17.9985 5.35944L17.9985 5.35945L19.9866 5.57756ZM19.0212 3.55349L17.906 5.21375L17.906 5.21375L19.0212 3.55349ZM17.9448 3.10934L15.9901 2.68611L15.5692 4.6303L17.511 5.06173L17.9448 3.10934ZM16.687 6.63162L14.7014 6.39187L14.2446 10.1754L17.6177 8.40184L16.687 6.63162ZM16.884 4.99998L16.889 2.99998L15.1115 2.99549L14.8984 4.76023L16.884 4.99998ZM17.5083 6.07618L18.8432 7.56548L18.8432 7.56548L17.5083 6.07618ZM17.9985 5.35944L16.0114 5.13246L16.0104 5.14134L17.9985 5.35944ZM17.9992 5.3536L16.0126 5.12226L16.0121 5.12662L17.9992 5.3536ZM17.906 5.21375L16.7909 6.87401L16.7909 6.87401L17.906 5.21375ZM6.06602 5.00041L8.04557 4.71512L7.79469 2.9743L6.03608 3.00063L6.06602 5.00041ZM5.09399 5.21375L6.20912 6.87401L6.20913 6.87401L5.09399 5.21375ZM6.30013 6.62481L5.36457 8.3925L8.84068 10.2322L8.27967 6.33952L6.30013 6.62481ZM5.49175 6.07618L4.15684 7.56548L4.15684 7.56548L5.49175 6.07618ZM5.00151 5.35944L6.9896 5.14133L6.9886 5.13254L5.00151 5.35944ZM5.00084 5.3536L6.98793 5.1267L6.98742 5.12226L5.00084 5.3536ZM7.46738 2.89673C7.46738 3.44901 7.01966 3.89673 6.46738 3.89673V-0.103271C4.81052 -0.103271 3.46738 1.23987 3.46738 2.89673H7.46738ZM7.45762 2.75828C7.46414 2.80451 7.46738 2.85081 7.46738 2.89673H3.46738C3.46738 3.03834 3.47733 3.17877 3.49685 3.31712L7.45762 2.75828ZM5.09399 5.21375C5.18839 5.15034 5.37787 5.06436 5.71778 5.02318L5.23669 1.05222C4.43679 1.14913 3.60496 1.39535 2.8637 1.89323L5.09399 5.21375ZM5.00151 5.35944C4.99862 5.33314 5.00041 5.31825 5.00141 5.31232C5.0024 5.3064 5.00372 5.30271 5.00546 5.29909C5.00722 5.29542 5.024 5.26075 5.09399 5.21375L2.8637 1.89323C1.58856 2.7497 0.849854 4.19592 1.02537 5.79568L5.00151 5.35944ZM5.49175 6.07618C5.1036 5.72827 5.01278 5.46222 5.00151 5.35944L1.02537 5.79568C1.18017 7.2067 1.99077 8.30979 2.82194 9.05479L5.49175 6.07618ZM7.314 7.05058C6.46169 6.76869 5.86626 6.41187 5.49175 6.07618L2.82194 9.05479C3.69039 9.8332 4.80208 10.4329 6.05801 10.8483L7.314 7.05058ZM4.8083 8.2575L4.78716 8.32142L8.58485 9.57742L8.60599 9.5135L4.8083 8.2575ZM10.5188 10.1808C9.62351 9.8746 8.9075 9.16269 8.60466 8.25348L4.80964 9.51752C5.51151 11.6248 7.1615 13.26 9.22435 13.9656L10.5188 10.1808ZM12.3418 16.6271L11.8614 11.8721L7.88169 12.2742L8.3621 17.0292L12.3418 16.6271ZM8.37118 18.8281H10.352V14.8281H8.37118V18.8281ZM8.78178 18.5107C8.73389 18.692 8.57097 18.8281 8.37118 18.8281V14.8281C6.71029 14.8281 5.31859 15.9589 4.91439 17.4893L8.78178 18.5107ZM6 20H6.84808V16H6V20ZM6 20V16C3.79086 16 2 17.7909 2 20H6ZM6 20H2C2 22.2091 3.79086 24 6 24V20ZM17 20H6V24H17V20ZM17 20V24C19.2091 24 21 22.2091 21 20H17ZM17 20H21C21 17.7909 19.2091 16 17 16V20ZM16.3689 20H17V16H16.3689V20ZM14.8458 18.8281C14.6461 18.8281 14.4831 18.692 14.4352 18.5107L18.3026 17.4893C17.8984 15.9589 16.5067 14.8281 14.8458 14.8281V18.8281ZM12.6556 18.8281H14.8458V14.8281H12.6556V18.8281ZM11.1458 11.8762L10.6658 16.6271L14.6455 17.0292L15.1255 12.2783L11.1458 11.8762ZM14.4086 8.27057C14.1021 9.17269 13.3867 9.88008 12.4931 10.1833L13.7782 13.9712C15.8384 13.2723 17.4858 11.6477 18.196 9.55726L14.4086 8.27057ZM18.2128 8.32144L18.2011 8.28593L14.4034 9.5419L14.4151 9.57741L18.2128 8.32144ZM17.5083 6.07618C17.1337 6.41187 16.5383 6.76869 15.686 7.05058L16.942 10.8483C18.1979 10.4329 19.3096 9.8332 20.1781 9.05479L17.5083 6.07618ZM17.9985 5.35945C17.9872 5.46222 17.8964 5.72827 17.5083 6.07618L20.1781 9.05479C21.0092 8.30979 21.8198 7.2067 21.9746 5.79567L17.9985 5.35945ZM17.906 5.21375C17.976 5.26076 17.9928 5.29543 17.9945 5.29909C17.9963 5.30271 17.9976 5.3064 17.9986 5.31232C17.9996 5.31825 18.0014 5.33314 17.9985 5.35944L21.9746 5.79568C22.1502 4.19592 21.4114 2.7497 20.1363 1.89323L17.906 5.21375ZM17.511 5.06173C17.7138 5.10677 17.8362 5.16688 17.906 5.21375L20.1363 1.89323C19.5826 1.52131 18.9782 1.29016 18.3786 1.15695L17.511 5.06173ZM15.9675 2.89673C15.9675 2.8265 15.975 2.75578 15.9901 2.68611L19.8995 3.53257C19.9443 3.32587 19.9675 3.11287 19.9675 2.89673H15.9675ZM16.9675 3.89673C16.4152 3.89673 15.9675 3.44901 15.9675 2.89673H19.9675C19.9675 1.23987 18.6243 -0.103271 16.9675 -0.103271V3.89673ZM6.46738 3.89673H16.9675V-0.103271H6.46738V3.89673ZM18.6726 6.87136L18.8696 5.23972L14.8984 4.76023L14.7014 6.39187L18.6726 6.87136ZM16.1734 4.58687C16.1073 4.64609 15.9758 4.74593 15.7562 4.86139L17.6177 8.40184C18.0864 8.15545 18.4985 7.87444 18.8432 7.56548L16.1734 4.58687ZM16.0104 5.14134C16.0279 4.98165 16.0635 4.86144 16.0909 4.78573C16.1205 4.70414 16.1512 4.64496 16.1736 4.60712C16.2188 4.53086 16.2371 4.52969 16.1734 4.58688L18.8432 7.56548C19.4576 7.01475 19.904 6.32985 19.9866 5.57755L16.0104 5.14134ZM16.0121 5.12662L16.0114 5.13246L19.9856 5.58643L19.9862 5.58058L16.0121 5.12662ZM16.7909 6.87401C16.7692 6.85943 16.4438 6.65346 16.2164 6.21437C15.921 5.64409 16.0148 5.10348 16.0126 5.12226L19.9857 5.58494C19.9881 5.5647 20.086 4.98824 19.7683 4.37484C19.5186 3.89262 19.1444 3.63624 19.0212 3.55349L16.7909 6.87401ZM16.8789 6.99997C17.0277 7.00034 17.0852 7.01623 17.0726 7.01308C17.066 7.01143 17.0378 7.00393 16.9927 6.98495C16.9496 6.9668 16.8785 6.93284 16.7909 6.87401L19.0212 3.55349C18.4459 3.16708 17.6991 3.00203 16.889 2.99998L16.8789 6.99997ZM6.03608 3.00063C5.25925 3.01227 4.53856 3.17755 3.97884 3.55349L6.20913 6.87401C6.12399 6.93119 6.05449 6.96481 6.01141 6.9832C5.9665 7.00237 5.93753 7.01046 5.92888 7.0127C5.91222 7.01701 5.96132 7.0022 6.09597 7.00019L6.03608 3.00063ZM8.27967 6.33952L8.04557 4.71512L4.08647 5.2857L4.32058 6.9101L8.27967 6.33952ZM4.15684 7.56548C4.49728 7.87063 4.90339 8.14842 5.36457 8.3925L7.23568 4.85712C7.02084 4.74341 6.89183 4.64529 6.82665 4.58687L4.15684 7.56548ZM3.01344 5.57756C3.09597 6.32985 3.5424 7.01475 4.15684 7.56548L6.82665 4.58687C6.76286 4.52969 6.78117 4.53086 6.82638 4.60712C6.84882 4.64496 6.87952 4.70414 6.90907 4.78573C6.93649 4.86144 6.97206 4.98165 6.98958 5.14133L3.01344 5.57756ZM3.01375 5.5805L3.01442 5.58635L6.9886 5.13254L6.98793 5.1267L3.01375 5.5805ZM3.97885 3.55349C3.85566 3.63623 3.48143 3.89262 3.23169 4.37484C2.91401 4.98824 3.01191 5.56469 3.01427 5.58494L6.98742 5.12226C6.98523 5.10348 7.07896 5.64409 6.78361 6.21437C6.5562 6.65347 6.23082 6.85944 6.20912 6.87401L3.97885 3.55349Z" fill="white" mask="url(#path-1-inside-1)"/>
</g>
</g>
<defs>
<clipPath id="clip0">
<rect width="24" height="24" fill="white"/>
</clipPath>
</defs>
</svg>
