<svg width="75" height="75" viewBox="0 0 75 75" fill="none" xmlns="http://www.w3.org/2000/svg">
<path fill-rule="evenodd" clip-rule="evenodd" d="M0 5.72519C0 2.56326 2.56326 0 5.72519 0H69.2748C72.4367 0 75 2.56326 75 5.72519V69.2748C75 72.4367 72.4367 75 69.2748 75H5.72519C2.56326 75 0 72.4367 0 69.2748V5.72519Z" fill="#1E88E5"/>
<path d="M0 7.92458C0 3.54796 3.46217 0 7.73297 0H22.2709C26.5417 0 30.0039 3.54796 30.0039 7.92458C30.0039 12.3012 26.5417 15.8492 22.2709 15.8492H7.73297" transform="translate(45.0239 41.4185) rotate(135)" stroke="white" stroke-width="3.70419" stroke-linecap="round"/>
<path d="M30.0039 7.92458C30.0039 12.3012 26.5417 15.8492 22.2709 15.8492H7.73297C3.46217 15.8492 0 12.3012 0 7.92458C0 3.54796 3.46217 0 7.73297 0H22.2709" transform="translate(63.1744 23.7263) rotate(135)" stroke="white" stroke-width="3.70419" stroke-linecap="round"/>
</svg>
