<svg width="32" height="32" viewBox="0 0 32 32" fill="none" xmlns="http://www.w3.org/2000/svg">
<path d="M18.73 23.9692H22.1857C24.0287 23.9692 24.5645 23.4334 24.5645 21.5904V10.3788C24.4877 8.53583 23.9519 8 22.1089 8H18.6532C17.4246 8 16.3495 7.99829 16.3495 9.30375C16.3495 10.5324 17.3478 11.6075 18.6532 11.6075H20.8802V20.4385H18.6532C17.4246 20.4385 16.3495 21.4368 16.3495 22.7423C16.4263 23.8942 17.4246 23.9692 18.73 23.9692Z" fill="white"/>
<path d="M11.9724 11.7611C12.2028 11.6075 12.5099 11.5307 12.7403 11.6843C12.9707 11.7611 13.201 12.0683 13.201 12.3754V13.7577H17.8085C18.1925 13.7577 18.5765 14.0648 18.5765 14.5256V17.5205C18.5765 17.9044 18.2693 18.2884 17.8085 18.2884H13.201V19.6706C13.201 19.9778 13.0475 20.2082 12.7403 20.3618C12.5099 20.5153 12.126 20.4385 11.8956 20.285L7.28809 16.6758C6.90413 16.3686 6.90413 15.7543 7.28809 15.4471L11.9724 11.7611Z" fill="white"/>
</svg>
