<svg xmlns="http://www.w3.org/2000/svg" width="24" height="24" fill="none"  xmlns:v="https://vecta.io/nano"><path fill-rule="evenodd" d="M19 12a7 7 0 1 1-14 0 7 7 0 1 1 14 0zm2 0a9 9 0 1 1-18 0 9 9 0 1 1 18 0zm-9.34 1.59c.073.08.167.12.28.12.107 0 .193-.027.26-.08.073-.06.12-.143.14-.25a1.42 1.42 0 0 1 .25-.64c.14-.193.347-.43.62-.71.32-.32.563-.607.73-.86.167-.26.25-.563.25-.91 0-.32-.09-.603-.27-.85-.173-.247-.42-.44-.74-.58-.313-.14-.673-.21-1.08-.21-.387 0-.77.07-1.15.21a3.06 3.06 0 0 0-.99.56.56.56 0 0 0-.24.47.6.6 0 0 0 .12.37c.087.1.187.15.3.15.107 0 .243-.047.41-.14a5.83 5.83 0 0 1 .77-.44c.22-.107.45-.16.69-.16.28 0 .5.067.66.2.167.127.25.3.25.52 0 .2-.047.38-.14.54s-.24.36-.44.6c-.253.3-.447.577-.58.83s-.2.563-.2.93a.5.5 0 0 0 .1.33zm-.23 2.01c.14.14.317.21.53.21.207 0 .38-.07.52-.21.147-.147.22-.327.22-.54s-.07-.39-.21-.53a.7.7 0 0 0-.53-.22.7.7 0 0 0-.53.22c-.14.14-.21.317-.21.53s.07.393.21.54z" fill="#adbbc4"/></svg>