<svg width="32" height="32" viewBox="0 0 32 32" fill="none" xmlns="http://www.w3.org/2000/svg">
<path d="M24.9999 15.1504V22.5003C24.9999 22.9503 24.7749 23.3253 24.3249 23.5503C23.8749 23.7003 23.425 23.6253 23.125 23.3253L21.25 21.5253H16.3C15.25 21.5253 14.35 20.7753 14.125 19.8004H16.525C18.7 19.8004 20.425 18.0754 20.425 15.9004V12.9004H22.75C24.0249 12.9004 24.9999 13.9504 24.9999 15.1504Z" fill="#9BCFEE"/>
<path d="M16.5249 9H9.39999C8.04999 9 7 10.05 7 11.4V19.4249C7 19.8749 7.3 20.3249 7.675 20.4749C8.04999 20.6249 8.57499 20.5499 8.94999 20.2499L10.9 18.3749C10.975 18.2999 11.125 18.225 11.275 18.225H16.5249C17.8749 18.225 18.9249 17.175 18.9249 15.825V11.325C18.9249 10.05 17.7999 9 16.5249 9ZM14.2 14.4H11.725C11.275 14.4 10.975 14.025 10.975 13.65C10.975 13.275 11.275 12.9 11.725 12.9H14.2C14.65 12.9 14.95 13.275 14.95 13.65C14.95 14.025 14.65 14.4 14.2 14.4Z" fill="#46ABE7"/>
</svg>
