<svg width="32" height="32" viewBox="0 0 32 32" fill="none" xmlns="http://www.w3.org/2000/svg">
<path d="M20.4128 8.65916L20.4809 8.18256C20.4809 7.50171 20.0043 6.95703 19.3915 6.95703H10.5404C10.2681 6.95703 9.92766 7.0932 9.7234 7.29746C9.51915 7.5698 9.45106 7.84214 9.45106 8.18256L9.51915 8.65916C8.15745 8.65916 7 9.81661 7 11.2464V11.3826C7 13.4251 8.42979 15.1953 10.4043 15.74C11.017 17.7145 12.8553 19.0762 14.966 19.0762C17.2128 19.0762 18.9149 17.5783 19.5277 15.74C21.5702 15.2634 23 13.4932 23 11.3826V11.2464C23 9.81661 21.8426 8.65916 20.4128 8.65916ZM8.3617 11.4506V11.2464C8.3617 10.5655 8.90638 9.95278 9.65532 9.95278H9.7234L10.1319 14.1741C9.04255 13.6975 8.3617 12.6081 8.3617 11.4506ZM16.7362 11.8592L16.3277 12.2677C16.2596 12.3358 16.1915 12.54 16.1915 12.6762L16.2596 13.2209C16.3277 13.4932 16.1234 13.6975 15.8511 13.6975C15.783 13.6975 15.7149 13.6975 15.5787 13.6294L15.1702 13.4251C15.034 13.357 14.8979 13.357 14.7617 13.4251L14.217 13.6975C13.8766 13.8336 13.5362 13.5613 13.6043 13.2209L13.6723 13.0166L13.7404 12.6762C13.7404 12.54 13.7404 12.4038 13.6043 12.2677L13.1957 11.8592C12.9234 11.5868 13.0596 11.1783 13.4681 11.1102L14.0128 11.0421C14.1489 11.0421 14.2851 10.906 14.3532 10.8379L14.6255 10.2932C14.7617 9.95278 15.2383 9.95278 15.3745 10.2932L15.6468 10.8379C15.6468 10.9741 15.783 11.0421 15.9191 11.0421L16.5319 11.1102C16.8723 11.1783 17.0085 11.6549 16.7362 11.8592ZM21.6383 11.4506C21.6383 12.6762 20.8894 13.7655 19.8 14.3102L20.2085 10.0209H20.3447C21.0255 10.0209 21.5702 10.5655 21.5702 11.3145V11.4506H21.6383Z" fill="#F0CD8E"/>
<path d="M19.6638 23.2977C20.0723 23.2977 20.3446 23.0253 20.3446 22.6168C20.3446 22.2083 20.0723 21.936 19.6638 21.936H18.1659C17.7574 21.3232 17.3489 20.8466 17.0765 20.0977C16.3957 20.3019 15.7829 20.4381 14.9659 20.4381C14.285 20.4381 13.6042 20.3019 12.8552 20.0977C12.7191 20.4381 12.5829 20.7785 12.3786 21.1189L11.834 21.936H10.268C9.8595 21.936 9.58716 22.2083 9.58716 22.6168C9.58716 23.0253 9.8595 23.2977 10.268 23.2977C12.2425 23.2977 16.3957 23.2977 19.6638 23.2977Z" fill="#F0CD8E"/>
</svg>
