<svg width="32" height="32" viewBox="0 0 32 32" fill="none" xmlns="http://www.w3.org/2000/svg">
<path d="M28.6922 16.4117V25.2693C28.6922 25.8116 28.421 26.2635 27.8787 26.5347C27.3364 26.7154 26.7941 26.625 26.4326 26.2635L24.173 24.0943H18.2077C16.9423 24.0943 15.8577 23.1905 15.5865 22.0155H18.4788C21.0999 22.0155 23.1788 19.9367 23.1788 17.3155V13.7002H25.9807C27.5172 13.7002 28.6922 14.9656 28.6922 16.4117Z" fill="#9BCFEE"/>
<path d="M18.4787 9H9.89227C8.26537 9 7 10.2654 7 11.8923V21.5633C7 22.1056 7.36153 22.6479 7.81345 22.8287C8.26537 23.0094 8.89805 22.9191 9.34997 22.5575L11.6999 20.2979C11.7903 20.2076 11.9711 20.1172 12.1519 20.1172H18.4787C20.1056 20.1172 21.371 18.8518 21.371 17.2249V11.8019C21.371 10.2654 20.0152 9 18.4787 9ZM15.6768 15.5076H12.6942C12.1519 15.5076 11.7903 15.0557 11.7903 14.6038C11.7903 14.1519 12.1519 13.6999 12.6942 13.6999H15.6768C16.2191 13.6999 16.5807 14.1519 16.5807 14.6038C16.5807 15.0557 16.2191 15.5076 15.6768 15.5076Z" fill="#46ABE7"/>
</svg>
