<svg width="32" height="32" viewBox="0 0 32 32" fill="none" xmlns="http://www.w3.org/2000/svg">
<path fill-rule="evenodd" clip-rule="evenodd" d="M8.77993 10.9504C8.77993 10.8129 8.82832 10.6797 8.91663 10.5742L11.7327 7.20994C11.966 6.93119 12.3942 6.92982 12.6293 7.20706L15.4719 10.5591C15.5617 10.665 15.611 10.7994 15.611 10.9383V24.5891C15.611 24.9129 15.3486 25.1753 15.0248 25.1753H8.77993C7.79157 25.0735 7.72042 23.6606 8.69356 23.46V23.46C8.74385 23.4497 8.77993 23.4054 8.77993 23.354V10.9504ZM11.0462 22.5666C11.0462 22.8903 11.3087 23.1528 11.6324 23.1528H13.0095C13.3333 23.1528 13.5957 22.8903 13.5957 22.5666V19.3028C13.5957 19.1778 13.5583 19.0536 13.4728 18.9624C12.8519 18.3001 11.7901 18.3001 11.1692 18.9624C11.0837 19.0536 11.0462 19.1778 11.0462 19.3028V22.5666ZM13.0289 14.7799C13.0289 15.2583 12.6484 15.6461 12.1791 15.6461C11.7097 15.6461 11.3292 15.2583 11.3292 14.7799C11.3292 14.3015 11.7097 13.9137 12.1791 13.9137C12.6484 13.9137 13.0289 14.3015 13.0289 14.7799ZM12.1791 11.6036C12.6484 11.6036 13.0289 11.2158 13.0289 10.7374C13.0289 10.259 12.6484 9.87117 12.1791 9.87117C11.7097 9.87117 11.3292 10.259 11.3292 10.7374C11.3292 11.2158 11.7097 11.6036 12.1791 11.6036Z" fill="#EACBC9"/>
<path fill-rule="evenodd" clip-rule="evenodd" d="M16.7931 13.4482H24.4138C24.7376 13.4482 25 13.7107 25 14.0344C25 14.3582 24.7376 14.6207 24.4138 14.6207C24.0901 14.6207 23.8276 14.8831 23.8276 15.2069V23.4138C23.8276 23.7375 24.0901 24 24.4138 24C24.7376 24 25 24.2624 25 24.5862C25 24.9099 24.7376 25.1724 24.4138 25.1724H16.7931C16.4694 25.1724 16.2069 24.9099 16.2069 24.5862V14.0344C16.2069 13.7107 16.4694 13.4482 16.7931 13.4482ZM17.0862 15.2076C16.9243 15.2076 16.7931 15.3388 16.7931 15.5007V16.6731C16.7931 16.835 16.9243 16.9662 17.0862 16.9662H18.2586C18.4205 16.9662 18.5517 16.835 18.5517 16.6731V15.5007C18.5517 15.3388 18.4205 15.2076 18.2586 15.2076H17.0862ZM16.7931 18.4309C16.7931 18.269 16.9243 18.1378 17.0862 18.1378H18.2586C18.4205 18.1378 18.5517 18.269 18.5517 18.4309V19.6033C18.5517 19.7652 18.4205 19.8964 18.2586 19.8964H17.0862C16.9243 19.8964 16.7931 19.7652 16.7931 19.6033V18.4309ZM17.0862 21.069C16.9243 21.069 16.7931 21.2002 16.7931 21.3621V22.5345C16.7931 22.6964 16.9243 22.8276 17.0862 22.8276H18.2586C18.4205 22.8276 18.5517 22.6964 18.5517 22.5345V21.3621C18.5517 21.2002 18.4205 21.069 18.2586 21.069H17.0862ZM19.138 15.5007C19.138 15.3388 19.2692 15.2076 19.4311 15.2076H20.6035C20.7654 15.2076 20.8966 15.3388 20.8966 15.5007V16.6731C20.8966 16.835 20.7654 16.9662 20.6035 16.9662H19.4311C19.2692 16.9662 19.138 16.835 19.138 16.6731V15.5007ZM19.4311 18.1378C19.2692 18.1378 19.138 18.269 19.138 18.4309V19.6033C19.138 19.7652 19.2692 19.8964 19.4311 19.8964H20.6035C20.7654 19.8964 20.8966 19.7652 20.8966 19.6033V18.4309C20.8966 18.269 20.7654 18.1378 20.6035 18.1378H19.4311ZM19.138 21.3621C19.138 21.2002 19.2692 21.069 19.4311 21.069H20.6035C20.7654 21.069 20.8966 21.2002 20.8966 21.3621V22.5345C20.8966 22.6964 20.7654 22.8276 20.6035 22.8276H19.4311C19.2692 22.8276 19.138 22.6964 19.138 22.5345V21.3621ZM21.7758 15.2076C21.6139 15.2076 21.4827 15.3388 21.4827 15.5007V16.6731C21.4827 16.835 21.6139 16.9662 21.7758 16.9662H22.9482C23.1101 16.9662 23.2413 16.835 23.2413 16.6731V15.5007C23.2413 15.3388 23.1101 15.2076 22.9482 15.2076H21.7758ZM21.4827 18.4309C21.4827 18.269 21.6139 18.1378 21.7758 18.1378H22.9482C23.1101 18.1378 23.2413 18.269 23.2413 18.4309V19.6033C23.2413 19.7652 23.1101 19.8964 22.9482 19.8964H21.7758C21.6139 19.8964 21.4827 19.7652 21.4827 19.6033V18.4309ZM21.7758 21.069C21.6139 21.069 21.4827 21.2002 21.4827 21.3621V22.5345C21.4827 22.6964 21.6139 22.8276 21.7758 22.8276H22.9482C23.1101 22.8276 23.2413 22.6964 23.2413 22.5345V21.3621C23.2413 21.2002 23.1101 21.069 22.9482 21.069H21.7758Z" fill="#F38A83"/>
</svg>
