<svg width="32" height="32" viewBox="0 0 32 32" fill="none" xmlns="http://www.w3.org/2000/svg">
<path d="M20.1065 9.87508L20.1832 9.3383C20.1832 8.57147 19.6464 7.95801 18.9563 7.95801H8.98751C8.68078 7.95801 8.29736 8.11137 8.06731 8.34142C7.83726 8.64815 7.76058 8.95488 7.76058 9.3383L7.83726 9.87508C6.30361 9.87508 5 11.1787 5 12.789V12.9424C5 15.2429 6.61034 17.2366 8.83414 17.8501C9.52429 20.0739 11.5947 21.6075 13.9719 21.6075C16.5024 21.6075 18.4195 19.9205 19.1096 17.8501C21.4101 17.3133 23.0205 15.3196 23.0205 12.9424V12.789C23.0205 11.1787 21.7169 9.87508 20.1065 9.87508ZM6.53366 13.0191V12.789C6.53366 12.0222 7.14712 11.3321 7.99063 11.3321H8.06731L8.52741 16.0864C7.30048 15.5496 6.53366 14.3227 6.53366 13.0191ZM15.9656 13.4792L15.5055 13.9393C15.4289 14.016 15.3522 14.246 15.3522 14.3994L15.4289 15.0128C15.5055 15.3196 15.2755 15.5496 14.9688 15.5496C14.8921 15.5496 14.8154 15.5496 14.662 15.4729L14.2019 15.2429C14.0486 15.1662 13.8952 15.1662 13.7418 15.2429L13.1284 15.5496C12.745 15.703 12.3616 15.3962 12.4382 15.0128L12.5149 14.7828L12.5916 14.3994C12.5916 14.246 12.5916 14.0926 12.4382 13.9393L11.9781 13.4792C11.6714 13.1724 11.8248 12.7123 12.2849 12.6357L12.8983 12.559C13.0517 12.559 13.2051 12.4056 13.2817 12.3289L13.5885 11.7155C13.7418 11.3321 14.2786 11.3321 14.432 11.7155L14.7387 12.3289C14.7387 12.4823 14.8921 12.559 15.0454 12.559L15.7356 12.6357C16.119 12.7123 16.2724 13.2491 15.9656 13.4792ZM21.4868 13.0191C21.4868 14.3994 20.6433 15.6263 19.4164 16.2398L19.8765 11.4087H20.0298C20.7967 11.4087 21.4101 12.0222 21.4101 12.8657V13.0191H21.4868Z" fill="#F0CD8E"/>
<path d="M19.2629 26.3619C19.723 26.3619 20.0297 26.0552 20.0297 25.5951C20.0297 25.135 19.723 24.8282 19.2629 24.8282H17.5759C17.1158 24.1381 16.6557 23.6013 16.3489 22.7578C15.5821 22.9879 14.892 23.1412 13.9718 23.1412C13.2049 23.1412 12.4381 22.9879 11.5946 22.7578C11.4412 23.1412 11.2879 23.5246 11.0578 23.9081L10.4444 24.8282H8.68065C8.22055 24.8282 7.91382 25.135 7.91382 25.5951C7.91382 26.0552 8.22055 26.3619 8.68065 26.3619C10.9044 26.3619 15.5821 26.3619 19.2629 26.3619Z" fill="#F0CD8E"/>
</svg>
