<svg width="33" height="34" viewBox="0 0 33 34" fill="#1B2A32" xmlns="http://www.w3.org/2000/svg">
<g clip-path="url(#clip0)">
<path fill-rule="evenodd" clip-rule="evenodd" d="M26.3826 8.32784C26.3809 8.16449 26.3176 8.01344 26.2026 7.90015L25.5922 7.29593C25.3498 7.05618 24.9555 7.05882 24.7158 7.29857C24.5436 7.46982 24.3908 7.62439 24.2846 7.73153L25.7688 9.19991C25.875 9.09189 26.0278 8.93732 26.1991 8.76607C26.3176 8.64839 26.3826 8.49207 26.3826 8.32784ZM7.18874 11.4238V24.0157C7.18874 25.283 8.21626 26.3149 9.47826 26.3149H22.0253C23.2873 26.3149 24.314 25.283 24.314 24.0157V13.5263L22.0801 14.7549V24.0157C21 24.0001 21.2496 24.0757 20.6682 24.0757H9.47826C8.896 24.0757 9.42264 24.6006 9.42264 24.0157V17.7198V11.4238C9.42264 10.8398 8.896 11.3647 9.47826 11.3647H18.9006L20.146 9.12465H9.47826C8.21626 9.12465 7.18874 10.1566 7.18874 11.4238ZM14.8388 17.1406L14.3049 19.1297L16.3239 18.6054L25.3335 9.62741L23.852 8.15815L14.8388 17.1406Z" />
</g>
<defs>
<clipPath id="clip0">
<rect x="0.0714264" y="0.714355" width="32.5714" height="32.5714" fill="white"/>
</clipPath>
</defs>
</svg>
