<svg width="25" height="25" viewBox="0 0 25 25" fill="none" xmlns="http://www.w3.org/2000/svg">
<path fill-rule="evenodd" clip-rule="evenodd" d="M20.0713 6.8201C20.07 6.69974 20.0234 6.58844 19.9387 6.50496L19.4889 6.05975C19.3103 5.88309 19.0198 5.88503 18.8431 6.06169C18.7163 6.18788 18.6037 6.30177 18.5254 6.38072L19.619 7.46268C19.6973 7.38309 19.8099 7.2692 19.9361 7.14301C20.0234 7.0563 20.0713 6.94111 20.0713 6.8201ZM5.92847 9.1015V18.3797C5.92847 19.3135 6.68558 20.0739 7.61548 20.0739H16.8607C17.7906 20.0739 18.5471 19.3135 18.5471 18.3797V10.6507L17.6379 11.556V18.3797C17.6379 18.8107 16.2891 19.1608 15.8607 19.1608H7.61548C7.18644 19.1608 6.83765 18.8107 6.83765 18.3797V9.1015C6.83765 8.67117 7.18644 8.32109 7.61548 8.32109H14.5583L15.4759 7.40737H7.61548C6.68558 7.40737 5.92847 8.16772 5.92847 9.1015ZM11.5654 13.3138L11.1719 14.7795L12.6596 14.3932L19.2983 7.77781L18.2066 6.6952L11.5654 13.3138Z" fill="#090909"/>
</svg>
