<svg width="32" height="32" viewBox="0 0 32 32" fill="none" xmlns="http://www.w3.org/2000/svg">
<path fill-rule="evenodd" clip-rule="evenodd" d="M6.91757 9.64759C6.91757 9.48573 6.9745 9.32903 7.07839 9.20492L10.3914 5.24699C10.6659 4.91905 11.1696 4.91743 11.4462 5.2436L14.7905 9.18722C14.8962 9.31182 14.9542 9.46989 14.9542 9.63327V25.6931C14.9542 26.0739 14.6454 26.3827 14.2645 26.3827L6.91757 26.3827C5.75479 26.263 5.67109 24.6007 6.81595 24.3647V24.3647C6.87512 24.3525 6.91757 24.3005 6.91757 24.24V9.64759ZM9.58382 23.3132C9.58382 23.6941 9.89259 24.0029 10.2735 24.0029H11.8936C12.2745 24.0029 12.5832 23.6941 12.5832 23.3132V19.4735C12.5832 19.3264 12.5392 19.1803 12.4386 19.0731C11.7082 18.2939 10.4589 18.2939 9.72847 19.0731C9.6279 19.1803 9.58382 19.3264 9.58382 19.4735V23.3132ZM11.9163 14.1527C11.9163 14.7155 11.4687 15.1718 10.9165 15.1718C10.3643 15.1718 9.91669 14.7155 9.91669 14.1527C9.91669 13.5899 10.3643 13.1336 10.9165 13.1336C11.4687 13.1336 11.9163 13.5899 11.9163 14.1527ZM10.9165 10.4154C11.4687 10.4154 11.9163 9.95911 11.9163 9.39628C11.9163 8.83345 11.4687 8.37718 10.9165 8.37718C10.3643 8.37718 9.91669 8.83345 9.91669 9.39628C9.91669 9.95911 10.3643 10.4154 10.9165 10.4154Z" fill="#EACBC9"/>
<path fill-rule="evenodd" clip-rule="evenodd" d="M16.3448 12.5859H25.3103C25.6912 12.5859 26 12.8947 26 13.2756C26 13.6565 25.6912 13.9652 25.3103 13.9652C24.9294 13.9652 24.6207 14.274 24.6207 14.6549V24.3101C24.6207 24.691 24.9294 24.9997 25.3103 24.9997C25.6912 24.9997 26 25.3085 26 25.6894C26 26.0703 25.6912 26.379 25.3103 26.379H16.3448C15.9639 26.379 15.6552 26.0703 15.6552 25.6894V13.2756C15.6552 12.8947 15.9639 12.5859 16.3448 12.5859ZM16.6896 14.6562C16.4992 14.6562 16.3448 14.8106 16.3448 15.0011V16.3804C16.3448 16.5708 16.4992 16.7252 16.6896 16.7252H18.0689C18.2594 16.7252 18.4137 16.5708 18.4137 16.3804V15.0011C18.4137 14.8106 18.2594 14.6562 18.0689 14.6562H16.6896ZM16.3448 18.4478C16.3448 18.2573 16.4992 18.1029 16.6896 18.1029H18.0689C18.2594 18.1029 18.4137 18.2573 18.4137 18.4478V19.8271C18.4137 20.0175 18.2594 20.1719 18.0689 20.1719H16.6896C16.4992 20.1719 16.3448 20.0175 16.3448 19.8271V18.4478ZM16.6896 21.5519C16.4992 21.5519 16.3448 21.7063 16.3448 21.8968V23.2761C16.3448 23.4665 16.4992 23.6209 16.6896 23.6209H18.0689C18.2594 23.6209 18.4137 23.4665 18.4137 23.2761V21.8968C18.4137 21.7063 18.2594 21.5519 18.0689 21.5519H16.6896ZM19.1034 15.0011C19.1034 14.8106 19.2578 14.6562 19.4482 14.6562H20.8276C21.018 14.6562 21.1724 14.8106 21.1724 15.0011V16.3804C21.1724 16.5708 21.018 16.7252 20.8276 16.7252H19.4482C19.2578 16.7252 19.1034 16.5708 19.1034 16.3804V15.0011ZM19.4482 18.1029C19.2578 18.1029 19.1034 18.2573 19.1034 18.4478V19.8271C19.1034 20.0175 19.2578 20.1719 19.4482 20.1719H20.8276C21.018 20.1719 21.1724 20.0175 21.1724 19.8271V18.4478C21.1724 18.2573 21.018 18.1029 20.8276 18.1029H19.4482ZM19.1034 21.8968C19.1034 21.7063 19.2578 21.5519 19.4482 21.5519H20.8276C21.018 21.5519 21.1724 21.7063 21.1724 21.8968V23.2761C21.1724 23.4665 21.018 23.6209 20.8276 23.6209H19.4482C19.2578 23.6209 19.1034 23.4665 19.1034 23.2761V21.8968ZM22.2068 14.6562C22.0163 14.6562 21.8619 14.8106 21.8619 15.0011V16.3804C21.8619 16.5708 22.0163 16.7252 22.2068 16.7252H23.5861C23.7765 16.7252 23.9309 16.5708 23.9309 16.3804V15.0011C23.9309 14.8106 23.7765 14.6562 23.5861 14.6562H22.2068ZM21.8619 18.4478C21.8619 18.2573 22.0163 18.1029 22.2068 18.1029H23.5861C23.7765 18.1029 23.9309 18.2573 23.9309 18.4478V19.8271C23.9309 20.0175 23.7765 20.1719 23.5861 20.1719H22.2068C22.0163 20.1719 21.8619 20.0175 21.8619 19.8271V18.4478ZM22.2068 21.5519C22.0163 21.5519 21.8619 21.7063 21.8619 21.8968V23.2761C21.8619 23.4665 22.0163 23.6209 22.2068 23.6209H23.5861C23.7765 23.6209 23.9309 23.4665 23.9309 23.2761V21.8968C23.9309 21.7063 23.7765 21.5519 23.5861 21.5519H22.2068Z" fill="#F38A83"/>
</svg>
