<svg width="48" height="48" viewBox="0 0 48 48" fill="none" xmlns="http://www.w3.org/2000/svg">
<circle cx="24" cy="24" r="24" fill="#F5C164"/>
<circle cx="24" cy="24" r="23.5" stroke="#7761FF" stroke-opacity="0.12"/>
<g clip-path="url(#clip0_1067_27512)">
<path d="M32.919 33.7474C32.5905 33.8569 32.1524 33.9665 31.8238 33.9665C31.4952 33.9665 31.0571 33.8569 30.7286 33.7474C30.5095 34.5141 29.8524 34.9522 29.0857 34.9522H15.9429C14.9571 34.9522 14.1905 34.1855 14.1905 33.1998V18.8522V18.7426H17.8048C19.0095 18.7426 19.8857 17.7569 19.8857 16.6617V13.0474C19.8857 13.0474 19.8857 13.0474 19.9952 13.0474H28.9762C29.9619 13.0474 30.7286 13.8141 30.7286 14.7998V15.4569H32.919V14.7998C32.919 12.6093 31.1667 10.8569 28.9762 10.8569H19.9952C19.119 10.8569 18.2429 11.1855 17.4762 11.8426C17.3667 11.9522 12.8762 16.3331 13.2048 16.1141C12.5476 16.7712 12 17.7569 12 18.8522V33.1998C12 35.3903 13.7524 37.1427 15.9429 37.1427H28.9762C31.0571 37.1427 32.7 35.6093 32.919 33.7474Z" fill="white"/>
<path d="M30.4411 24.2981C30.4411 24.5363 30.4411 24.6951 30.3617 24.8538L33.2991 26.4416C33.5372 26.2828 33.8548 26.2035 34.2517 26.2035C35.2044 26.2035 35.9189 26.9974 35.9189 27.8706C35.9189 28.8233 35.125 29.5378 34.2517 29.5378C33.2991 29.5378 32.5846 28.7439 32.5846 27.8706L29.5678 26.2035C29.1708 26.521 28.6945 26.6798 28.1388 26.6798C26.7891 26.6798 25.7571 25.6477 25.7571 24.2981C25.7571 22.9485 26.8685 21.9164 28.1388 21.9164C28.7739 21.9164 29.409 22.1546 29.8059 22.5516L32.8227 21.0432C32.8227 20.0905 33.6166 19.376 34.4899 19.376C35.4426 19.376 36.1571 20.1699 36.1571 21.0432C36.1571 21.9958 35.3632 22.7103 34.4899 22.7103C34.093 22.7103 33.7754 22.6309 33.5372 22.3928L30.5204 23.9806C30.4411 24.1393 30.4411 24.2187 30.4411 24.2981Z" fill="white"/>
<path d="M17.5857 32.2139H24.7048C25.3619 32.2139 25.8 31.7758 25.8 31.1187C25.8 30.4615 25.3619 30.0234 24.7048 30.0234H17.5857C16.9286 30.0234 16.4905 30.4615 16.4905 31.1187C16.4905 31.7758 17.0381 32.2139 17.5857 32.2139Z" fill="white"/>
<path d="M17.5857 27.8331H23.0619C23.7191 27.8331 24.1571 27.395 24.1571 26.7378C24.1571 26.0807 23.7191 25.6426 23.0619 25.6426H17.5857C16.9286 25.6426 16.4905 26.0807 16.4905 26.7378C16.4905 27.395 17.0381 27.8331 17.5857 27.8331Z" fill="white"/>
<path d="M17.5857 23.5616H22.4048C23.0619 23.5616 23.5 23.1235 23.5 22.4663C23.5 21.8092 23.0619 21.3711 22.4048 21.3711H17.5857C16.9286 21.3711 16.4905 21.8092 16.4905 22.4663C16.4905 23.1235 17.0381 23.5616 17.5857 23.5616Z" fill="white"/>
</g>
<defs>
<clipPath id="clip0_1067_27512">
<rect width="27.4286" height="27.4286" fill="white" transform="translate(10.2858 10.2856)"/>
</clipPath>
</defs>
</svg>
