<svg width="32" height="32" viewBox="0 0 32 32" fill="none" xmlns="http://www.w3.org/2000/svg">
<g clip-path="url(#clip0_876_18197)">
<path d="M16 6.85742C10.9715 6.85742 6.85718 10.9717 6.85718 16.0003C6.85718 21.0288 10.9715 25.1431 16 25.1431C21.0286 25.1431 25.1429 21.0288 25.1429 16.0003C25.1429 10.9717 21.0286 6.85742 16 6.85742ZM21.7143 19.8098C20.2667 18.3622 18.2096 17.4479 16 17.4479C17.6 17.4479 18.8953 16.1527 18.8953 14.4765C18.8953 12.8765 17.6 11.5812 15.9238 11.5812C14.3238 11.5812 13.0286 12.8765 13.0286 14.4765C13.0286 16.0765 14.3238 17.3717 15.9238 17.4479C13.7143 17.4479 11.6572 18.3622 10.2857 19.886C9.52384 18.7431 9.14289 17.4479 9.14289 16.0765C9.14289 12.2669 12.1905 9.21933 16 9.21933C19.8096 9.21933 22.8572 12.2669 22.8572 16.0765C22.8572 17.3717 22.4762 18.6669 21.7143 19.8098Z" fill="white"/>
</g>
<defs>
<clipPath id="clip0_876_18197">
<rect width="18.2857" height="18.2857" fill="white" transform="translate(6.85718 6.85742)"/>
</clipPath>
</defs>
</svg>
