<svg width="32" height="32" viewBox="0 0 32 32" fill="none" xmlns="http://www.w3.org/2000/svg">
<g clip-path="url(#clip0_876_18161)">
<path d="M16 6.85742C10.9715 6.85742 6.85718 10.9717 6.85718 16.0003C6.85718 21.0288 10.9715 25.1431 16 25.1431C21.0286 25.1431 25.1429 21.0288 25.1429 16.0003C25.1429 10.9717 21.0286 6.85742 16 6.85742ZM16 22.0955C12.6477 22.0955 9.9048 19.3527 9.9048 16.0003C9.9048 12.6479 12.6477 9.90504 16 9.90504C19.3524 9.90504 22.0953 12.6479 22.0953 16.0003C22.0953 19.3527 19.3524 22.0955 16 22.0955Z" fill="white"/>
<path d="M14.1539 16.9141L15.4491 16.3046V13.4855C15.4491 13.0284 15.7539 12.7236 16.211 12.7236C16.6681 12.7236 16.9729 13.0284 16.9729 13.4855V16.7617C16.9729 17.0665 16.8205 17.2951 16.5158 17.4474L14.7634 18.2855C14.3824 18.4379 13.9253 18.2855 13.7729 17.9046C13.6205 17.5236 13.7729 17.0665 14.1539 16.9141Z" fill="white"/>
</g>
<defs>
<clipPath id="clip0_876_18161">
<rect width="18.2857" height="18.2857" fill="white" transform="translate(6.85718 6.85742)"/>
</clipPath>
</defs>
</svg>
