<svg width="75" height="75" viewBox="0 0 75 75" fill="none" xmlns="http://www.w3.org/2000/svg">
<path fill-rule="evenodd" clip-rule="evenodd" d="M0 5.72519C0 2.56326 2.56326 0 5.72519 0H69.2748C72.4367 0 75 2.56326 75 5.72519V69.2748C75 72.4367 72.4367 75 69.2748 75H5.72519C2.56326 75 0 72.4367 0 69.2748V5.72519Z" fill="#66BB6A"/>
<path fill-rule="evenodd" clip-rule="evenodd" d="M21.7557 43.5115C33.7711 43.5115 43.5115 33.7711 43.5115 21.7557C43.5115 9.74037 33.7711 0 21.7557 0C9.74037 0 0 9.74037 0 21.7557C0 26.6657 1.6265 31.1957 4.37009 34.8365C5.6006 36.4693 0.505858 44.3333 2.13983 45.5625C3.47613 46.5677 11.4819 41.0126 13.0322 41.6919C15.7027 42.8621 18.6534 43.5115 21.7557 43.5115Z" transform="translate(16.0305 14.8855)" fill="white"/>
<path d="M5.04 18.984V18.072C5.04 17.688 5.064 17.344 5.112 17.04C5.176 16.736 5.264 16.448 5.376 16.176C5.504 15.904 5.664 15.64 5.856 15.384C6.064 15.128 6.32 14.856 6.624 14.568L7.704 13.536C8.008 13.264 8.264 12.96 8.472 12.624C8.696 12.288 8.808 11.88 8.808 11.4C8.808 10.776 8.608 10.256 8.208 9.84C7.824 9.408 7.272 9.192 6.552 9.192C6.184 9.192 5.848 9.264 5.544 9.408C5.256 9.536 5 9.72 4.776 9.96C4.568 10.184 4.408 10.448 4.296 10.752C4.184 11.056 4.12 11.368 4.104 11.688L1.152 11.424C1.248 10.656 1.448 9.976 1.752 9.384C2.072 8.776 2.48 8.264 2.976 7.848C3.472 7.432 4.04 7.12 4.68 6.912C5.32 6.688 6.008 6.576 6.744 6.576C7.432 6.576 8.08 6.68 8.688 6.888C9.312 7.08 9.856 7.376 10.32 7.776C10.8 8.16 11.176 8.64 11.448 9.216C11.72 9.792 11.856 10.456 11.856 11.208C11.856 11.72 11.8 12.168 11.688 12.552C11.576 12.936 11.416 13.288 11.208 13.608C11 13.928 10.744 14.24 10.44 14.544C10.152 14.832 9.824 15.136 9.456 15.456C9.136 15.728 8.872 15.968 8.664 16.176C8.472 16.384 8.312 16.592 8.184 16.8C8.072 17.008 7.992 17.232 7.944 17.472C7.896 17.712 7.872 18.008 7.872 18.36V18.984H5.04ZM4.56 22.32C4.56 21.808 4.744 21.368 5.112 21C5.496 20.632 5.952 20.448 6.48 20.448C6.992 20.448 7.44 20.624 7.824 20.976C8.208 21.328 8.4 21.76 8.4 22.272C8.4 22.784 8.208 23.224 7.824 23.592C7.456 23.96 7.008 24.144 6.48 24.144C6.224 24.144 5.976 24.096 5.736 24C5.512 23.904 5.312 23.776 5.136 23.616C4.96 23.456 4.816 23.264 4.704 23.04C4.608 22.816 4.56 22.576 4.56 22.32Z" transform="translate(31 20)" fill="#66BB6A"/>
</svg>
