<svg width="24" height="24" viewBox="0 0 24 24" fill="none" xmlns="http://www.w3.org/2000/svg">
<path d="M13.4852 6.30005V2.30005" stroke="#828282" stroke-linecap="square"/>
<path d="M13.921 3.04562C14.1579 3.08737 14.446 3.10253 14.7952 3.07335C15.3912 3.02356 15.7995 2.87502 16.1282 2.74112C16.1659 2.72578 16.2015 2.71115 16.2354 2.69723C16.5044 2.58669 16.6633 2.52139 16.869 2.5042C17.104 2.48455 17.3664 2.53621 17.5889 2.60529C17.6128 2.61271 17.6358 2.62019 17.6579 2.62764V3.95359C17.4225 3.91232 17.1365 3.89755 16.7904 3.92658C16.1956 3.97647 15.7902 4.12517 15.4635 4.25909C15.4277 4.27375 15.3938 4.28777 15.3615 4.30113C15.0923 4.41235 14.9328 4.47827 14.7236 4.49572C14.4849 4.51564 14.2185 4.46365 13.9931 4.39437C13.9681 4.38668 13.944 4.37891 13.921 4.37119V3.04562Z" fill="#828282" stroke="#828282"/>
<path fill-rule="evenodd" clip-rule="evenodd" d="M4.89471 14H19.1052V20C19.1052 20.5523 18.6575 21 18.1052 21H5.89471C5.34243 21 4.89471 20.5523 4.89471 20V14Z" fill="#828282"/>
<path fill-rule="evenodd" clip-rule="evenodd" d="M8 17H11V20H8V17Z" fill="#37474F"/>
<path d="M16.5 7H7.5C7.22386 7 7 7.22386 7 7.5V8L6 9H18L17 8V7.5C17 7.22386 16.7761 7 16.5 7Z" fill="#828282"/>
<path d="M4.03647 12.4453L5 11H19L19.9635 12.4453C20.4066 13.1099 19.9302 14 19.1315 14H4.86852C4.06982 14 3.59343 13.1099 4.03647 12.4453Z" fill="#828282"/>
<path d="M16.5 7H7.5C7.22386 7 7 7.22386 7 7.5V8L6 9H18L17 8V7.5C17 7.22386 16.7761 7 16.5 7Z" stroke="#828282"/>
<path d="M4.03647 12.4453L5 11H19L19.9635 12.4453C20.4066 13.1099 19.9302 14 19.1315 14H4.86852C4.06982 14 3.59343 13.1099 4.03647 12.4453Z" stroke="#828282"/>
</svg>
