<svg width="32" height="32" viewBox="0 0 32 32" fill="none" xmlns="http://www.w3.org/2000/svg">
<g clip-path="url(#clip0_1083_28646)">
<path d="M16.1429 6.85742C11.1143 6.85742 7 10.9717 7 16.0003C7 21.0288 11.1143 25.1431 16.1429 25.1431C21.1714 25.1431 25.2857 21.0288 25.2857 16.0003C25.2857 10.9717 21.1714 6.85742 16.1429 6.85742ZM16.1429 22.0955C12.7905 22.0955 10.0476 19.3527 10.0476 16.0003C10.0476 12.6479 12.7905 9.90504 16.1429 9.90504C19.4952 9.90504 22.2381 12.6479 22.2381 16.0003C22.2381 19.3527 19.4952 22.0955 16.1429 22.0955Z" fill="white"/>
<path d="M16.409 17.6134C16.2843 17.6134 16.1817 17.5694 16.101 17.4814C16.0277 17.3934 15.991 17.2724 15.991 17.1184C15.991 16.7151 16.0643 16.3741 16.211 16.0954C16.3577 15.8168 16.5703 15.5124 16.849 15.1824C17.069 14.9184 17.2303 14.6984 17.333 14.5224C17.4357 14.3464 17.487 14.1484 17.487 13.9284C17.487 13.6864 17.3953 13.4958 17.212 13.3564C17.036 13.2098 16.794 13.1364 16.486 13.1364C16.222 13.1364 15.969 13.1951 15.727 13.3124C15.485 13.4224 15.2027 13.5838 14.88 13.7964C14.6967 13.8991 14.5463 13.9504 14.429 13.9504C14.3043 13.9504 14.1943 13.8954 14.099 13.7854C14.011 13.6681 13.967 13.5324 13.967 13.3784C13.967 13.1658 14.055 12.9934 14.231 12.8614C14.539 12.5974 14.902 12.3921 15.32 12.2454C15.738 12.0914 16.1597 12.0144 16.585 12.0144C17.0323 12.0144 17.4283 12.0914 17.773 12.2454C18.125 12.3994 18.3963 12.6121 18.587 12.8834C18.785 13.1548 18.884 13.4664 18.884 13.8184C18.884 14.1998 18.7923 14.5334 18.609 14.8194C18.4257 15.0981 18.158 15.4134 17.806 15.7654C17.5053 16.0734 17.278 16.3338 17.124 16.5464C16.9773 16.7518 16.8857 16.9864 16.849 17.2504C16.827 17.3678 16.7757 17.4594 16.695 17.5254C16.6217 17.5841 16.5263 17.6134 16.409 17.6134ZM16.431 19.9234C16.1963 19.9234 16.002 19.8464 15.848 19.6924C15.694 19.5311 15.617 19.3331 15.617 19.0984C15.617 18.8638 15.694 18.6694 15.848 18.5154C16.002 18.3541 16.1963 18.2734 16.431 18.2734C16.6657 18.2734 16.86 18.3541 17.014 18.5154C17.168 18.6694 17.245 18.8638 17.245 19.0984C17.245 19.3331 17.1643 19.5311 17.003 19.6924C16.849 19.8464 16.6583 19.9234 16.431 19.9234Z" fill="white"/>
</g>
<defs>
<clipPath id="clip0_1083_28646">
<rect width="18.2857" height="18.2857" fill="white" transform="translate(7 6.85742)"/>
</clipPath>
</defs>
</svg>
