<svg width="24" height="24" viewBox="0 0 24 24" fill="none" xmlns="http://www.w3.org/2000/svg">
<path d="M12 13C12.5523 13 13 12.5523 13 12C13 11.4477 12.5523 11 12 11C11.4477 11 11 11.4477 11 12C11 12.5523 11.4477 13 12 13Z" stroke="url(#paint0_linear)" stroke-width="2" stroke-linecap="round" stroke-linejoin="round"/>
<path d="M19 13C19.5523 13 20 12.5523 20 12C20 11.4477 19.5523 11 19 11C18.4477 11 18 11.4477 18 12C18 12.5523 18.4477 13 19 13Z" stroke="url(#paint1_linear)" stroke-width="2" stroke-linecap="round" stroke-linejoin="round"/>
<path d="M5 13C5.55228 13 6 12.5523 6 12C6 11.4477 5.55228 11 5 11C4.44772 11 4 11.4477 4 12C4 12.5523 4.44772 13 5 13Z" stroke="url(#paint2_linear)" stroke-width="2" stroke-linecap="round" stroke-linejoin="round"/>
<defs>
<linearGradient id="paint0_linear" x1="10.8625" y1="10.7222" x2="13.49" y2="11.9597" gradientUnits="userSpaceOnUse">
<stop stop-color="#94DAF9"/>
<stop offset="0.911458" stop-color="#1E88E5"/>
</linearGradient>
<linearGradient id="paint1_linear" x1="17.8625" y1="10.7222" x2="20.49" y2="11.9597" gradientUnits="userSpaceOnUse">
<stop stop-color="#94DAF9"/>
<stop offset="0.911458" stop-color="#1E88E5"/>
</linearGradient>
<linearGradient id="paint2_linear" x1="3.8625" y1="10.7222" x2="6.48996" y2="11.9597" gradientUnits="userSpaceOnUse">
<stop stop-color="#94DAF9"/>
<stop offset="0.911458" stop-color="#1E88E5"/>
</linearGradient>
</defs>
</svg>
