<svg width="24" height="24" viewBox="0 0 24 24" fill="none" xmlns="http://www.w3.org/2000/svg">
<path d="M12 0C8.6875 0 5.85938 1.17188 3.51562 3.51562C1.17188 5.85938 0 8.6875 0 12C0 15.3125 1.17188 18.1406 3.51562 20.4844C5.85938 22.8281 8.6875 24 12 24C15.3125 24 18.1406 22.8281 20.4844 20.4844C22.8281 18.1406 24 15.3125 24 12C24 8.6875 22.8281 5.85938 20.4844 3.51562C18.1406 1.17188 15.3125 0 12 0ZM5.10938 15.5156C5.76562 17.1719 6.09375 18.6719 6.09375 20.0156C4.84375 19.1406 3.85156 17.9922 3.11719 16.5703C2.38281 15.1484 2.01562 13.625 2.01562 12C2.01562 8.78125 3.28125 6.1875 5.8125 4.21875C6.375 4.65625 6.89062 5.22656 7.35938 5.92969C7.82812 6.63281 8.04688 7.29688 8.01562 7.92188C7.89062 8.89062 7.25 9.84375 6.09375 10.7812C5.5 11.4062 5.10156 12.1484 4.89844 13.0078C4.69531 13.8672 4.76562 14.7031 5.10938 15.5156ZM21.9844 12C21.9844 14.75 21.0078 17.1016 19.0547 19.0547C17.1016 21.0078 14.75 21.9844 12 21.9844C10.625 21.9844 9.32812 21.7187 8.10938 21.1875C8.26562 19.1563 7.85937 17.0312 6.89062 14.8125C6.54687 13.75 6.75 12.9062 7.5 12.2812C9.0625 10.7188 9.89062 9.32812 9.98438 8.10938C10.1719 6.42188 9.375 4.71875 7.59375 3C8.8125 2.34375 10.2812 2.01562 12 2.01562C12.8125 2.01562 13.5781 2.10938 14.2969 2.29688L12.2812 4.3125L11.5781 5.01562L14.4844 7.92188L21.5156 8.90625C21.8281 10 21.9844 11.0313 21.9844 12ZM15.5156 6.09375L14.3906 5.01562L16.4062 3C18.125 3.8125 19.4844 5.07812 20.4844 6.79688L15.5156 6.09375ZM12.6094 10.3125L11.8125 11.4844C11.1875 12.4844 11.1094 13.4844 11.5781 14.4844L12 15.4219L12.7031 18.7969C12.7969 19.5156 13.2344 19.9844 14.0156 20.2031C14.1406 20.2656 14.2969 20.2969 14.4844 20.2969C14.9531 20.2969 15.3906 20.125 15.7969 19.7812L16.9219 18.7031L17.0156 18.5156C17.4844 16.7656 18.0156 15.5938 18.6094 15C19.4531 14.4062 19.6875 13.3438 19.3125 11.8125C19.0938 10.9688 18.5156 10.3594 17.5781 9.98438L15.1875 9H15C13.9062 9 13.1094 9.4375 12.6094 10.3125ZM13.5 12.6094L14.2969 11.3906C14.4219 11.1406 14.625 11.0156 14.9062 11.0156L16.9219 11.7188C17.1719 11.8438 17.2969 11.9687 17.2969 12.0938C17.3594 12.3125 17.3906 12.6875 17.3906 13.2188C16.5469 13.8437 15.7813 15.2656 15.0938 17.4844L14.5781 18L14.0156 14.8125L13.4062 13.5938C13.2188 13.3125 13.25 12.9844 13.5 12.6094Z" fill="white"/>
</svg>
