<svg width="25" height="28" viewBox="0 0 25 28" fill="none" xmlns="http://www.w3.org/2000/svg">
<path d="M24.2893 18.8799L18.4307 2.51038C18.2599 2.03133 17.945 1.61692 17.5291 1.3241C17.1133 1.03127 16.617 0.874384 16.1084 0.875002C15.821 0.875002 15.5279 0.925314 15.2413 1.03119L2.32544 5.81219C1.02826 6.29256 0.995882 7.05206 1.45963 8.34838L7.73863 25.893C8.20369 27.1902 8.56813 27.3595 9.86444 26.8791L22.7812 22.0981C24.0779 21.6177 24.753 20.1771 24.2893 18.8799ZM11.3506 25.4564L4.36244 5.93119L15.5169 1.80206C15.7064 1.73167 15.9068 1.69553 16.1089 1.69531C16.4506 1.69487 16.7842 1.79983 17.0641 1.99587C17.3439 2.19192 17.5566 2.46951 17.6729 2.79081L23.5315 19.1612C23.843 20.0309 23.3823 21.0026 22.506 21.3273L11.3506 25.4564Z" fill="#626365" stroke="#626365"/>
</svg>
