<svg width="21" height="21" viewBox="0 0 21 21" fill="none" xmlns="http://www.w3.org/2000/svg">
<path d="M18.9732 1.35667L19.5141 1.8975C20.2593 2.64367 20.1466 3.96642 19.2602 4.85192L8.10707 16.005L4.49357 17.3268C4.03982 17.4937 3.59799 17.2773 3.50815 16.8456C3.47779 16.689 3.49209 16.527 3.5494 16.3781L4.8969 12.7334L16.0188 1.61059C16.9052 0.725086 18.228 0.611419 18.9732 1.35759V1.35667ZM7.62032 2.46584C7.7407 2.46584 7.8599 2.48955 7.97111 2.53561C8.08233 2.58168 8.18338 2.6492 8.2685 2.73432C8.35362 2.81944 8.42114 2.92049 8.46721 3.03171C8.51328 3.14292 8.53699 3.26212 8.53699 3.3825C8.53699 3.50288 8.51328 3.62208 8.46721 3.7333C8.42114 3.84451 8.35362 3.94556 8.2685 4.03068C8.18338 4.1158 8.08233 4.18333 7.97111 4.22939C7.8599 4.27546 7.7407 4.29917 7.62032 4.29917H3.95365C3.46742 4.29917 3.00111 4.49232 2.65729 4.83614C2.31347 5.17996 2.12032 5.64627 2.12032 6.1325V17.1325C2.12032 17.6187 2.31347 18.085 2.65729 18.4289C3.00111 18.7727 3.46742 18.9658 3.95365 18.9658H14.9537C15.4399 18.9658 15.9062 18.7727 16.25 18.4289C16.5938 18.085 16.787 17.6187 16.787 17.1325V13.4658C16.787 13.2227 16.8836 12.9896 17.0555 12.8177C17.2274 12.6457 17.4605 12.5492 17.7037 12.5492C17.9468 12.5492 18.1799 12.6457 18.3518 12.8177C18.5237 12.9896 18.6203 13.2227 18.6203 13.4658V17.1325C18.6203 18.105 18.234 19.0376 17.5464 19.7252C16.8587 20.4129 15.9261 20.7992 14.9537 20.7992H3.95365C2.98119 20.7992 2.04856 20.4129 1.36093 19.7252C0.673296 19.0376 0.286987 18.105 0.286987 17.1325V6.1325C0.286987 5.16004 0.673296 4.22741 1.36093 3.53978C2.04856 2.85214 2.98119 2.46584 3.95365 2.46584H7.62032Z" fill="#626365"/>
</svg>
