<svg width="20" height="20" viewBox="0 0 20 20" fill="none" xmlns="http://www.w3.org/2000/svg">
<path d="M8.45599 11.544C9.27514 12.3631 10.3861 12.8232 11.5445 12.8232C12.7029 12.8232 13.8138 12.3631 14.633 11.544L17.721 8.45601C18.5272 7.63421 18.9763 6.52739 18.9708 5.3762C18.9653 4.22502 18.5055 3.12255 17.6915 2.30853C16.8775 1.49451 15.775 1.03475 14.6238 1.02923C13.4726 1.0237 12.3658 1.47285 11.544 2.27901L9.99999 3.82301M11.544 8.45601C10.7249 7.63725 9.61414 7.1773 8.45599 7.1773C7.29784 7.1773 6.1871 7.63725 5.36799 8.45601L2.27899 11.544C1.45987 12.3631 0.999695 13.4741 0.999695 14.6325C0.999695 15.7909 1.45987 16.9019 2.27899 17.721C3.09811 18.5401 4.20908 19.0003 5.36749 19.0003C6.52591 19.0003 7.63687 18.5401 8.45599 17.721L9.99999 16.177L11.544 8.45601Z" stroke="#626365" stroke-width="2" stroke-linecap="round" stroke-linejoin="round"/>
</svg>
