<svg width="24" height="24" viewBox="0 0 24 24" fill="none" xmlns="http://www.w3.org/2000/svg">
<path d="M20.6921 7.83388L20.7076 7.84087L20.7234 7.84715C20.8811 7.9097 21.0165 8.018 21.1121 8.15812C21.2075 8.29785 21.259 8.46284 21.26 8.63198L21.26 15.3685C21.26 15.3687 21.26 15.369 21.26 15.3693C21.2595 15.538 21.2088 15.7028 21.1143 15.8426C21.0197 15.9827 20.8854 16.0914 20.7288 16.1547L20.7144 16.1606L20.7002 16.167C20.581 16.2211 20.4517 16.2493 20.3207 16.25C20.0788 16.2483 19.8459 16.1581 19.666 15.9964L17.5096 13.9997L16.25 12.8334V14.55V16C16.25 16.5967 16.0129 17.169 15.591 17.591C15.169 18.0129 14.5967 18.25 14 18.25H5C4.40326 18.25 3.83097 18.013 3.40901 17.591L2.89046 18.1095L3.40901 17.591C2.98705 17.169 2.75 16.5967 2.75 16V8C2.75 7.40326 2.98705 6.83097 3.40901 6.40901C3.83097 5.98705 4.40326 5.75 5 5.75H14C14.5967 5.75 15.169 5.98705 15.591 6.40901C16.0129 6.83097 16.25 7.40326 16.25 8V9.45V11.172L17.5108 9.99914L19.6583 8.00152C19.6586 8.0012 19.659 8.00087 19.6593 8.00054C19.7961 7.87491 19.9667 7.7921 20.15 7.76237C20.3338 7.73256 20.5223 7.75743 20.6921 7.83388Z" stroke="white" stroke-width="1.5"/>
</svg>
