<svg width="27" height="27" viewBox="0 0 27 27" fill="none" xmlns="http://www.w3.org/2000/svg">
<path d="M13.5 2.7C19.4535 2.7 24.3 7.5465 24.3 13.5C24.3 19.4535 19.4535 24.3 13.5 24.3C7.5465 24.3 2.7 19.4535 2.7 13.5C2.7 7.5465 7.5465 2.7 13.5 2.7ZM13.5 0C6.04395 0 0 6.04395 0 13.5C0 20.9561 6.04395 27 13.5 27C20.9561 27 27 20.9561 27 13.5C27 6.04395 20.9561 0 13.5 0ZM7.4925 14.85C7.4655 15.0741 7.425 15.2955 7.425 15.525C7.425 17.1362 8.06504 18.6814 9.20433 19.8207C10.3436 20.96 11.8888 21.6 13.5 21.6C15.1112 21.6 16.6564 20.96 17.7957 19.8207C18.935 18.6814 19.575 17.1362 19.575 15.525C19.575 15.2955 19.5318 15.0741 19.5075 14.85H7.4925ZM10.8 10.8V8.1C10.8 7.74196 10.6578 7.39858 10.4046 7.14541C10.1514 6.89223 9.80804 6.75 9.45 6.75C9.09196 6.75 8.74858 6.89223 8.49541 7.14541C8.24223 7.39858 8.1 7.74196 8.1 8.1V10.8C8.1 11.158 8.24223 11.5014 8.49541 11.7546C8.74858 12.0078 9.09196 12.15 9.45 12.15C9.80804 12.15 10.1514 12.0078 10.4046 11.7546C10.6578 11.5014 10.8 11.158 10.8 10.8ZM18.9 10.8V8.1C18.9 7.74196 18.7578 7.39858 18.5046 7.14541C18.2514 6.89223 17.908 6.75 17.55 6.75C17.192 6.75 16.8486 6.89223 16.5954 7.14541C16.3422 7.39858 16.2 7.74196 16.2 8.1V10.8C16.2 11.158 16.3422 11.5014 16.5954 11.7546C16.8486 12.0078 17.192 12.15 17.55 12.15C17.908 12.15 18.2514 12.0078 18.5046 11.7546C18.7578 11.5014 18.9 11.158 18.9 10.8Z" fill="#626365"/>
</svg>
