<svg width="24" height="22" viewBox="0 0 24 22" fill="none" xmlns="http://www.w3.org/2000/svg">
<path d="M7.90553 4.35816C8.41186 4.08749 8.9567 4.00116 9.48753 4.00116C10.1012 4.00116 10.8152 4.20299 11.3915 4.67433C11.9947 5.16899 12.4042 5.92733 12.4042 6.91666C12.4042 8.05416 11.6004 8.67133 11.1477 9.01899L11.0485 9.09599C10.5539 9.48449 10.3625 9.69216 10.3625 10.125C10.3625 10.3571 10.2703 10.5796 10.1062 10.7437C9.94215 10.9078 9.71959 11 9.48753 11C9.25547 11 9.03291 10.9078 8.86881 10.7437C8.70472 10.5796 8.61253 10.3571 8.61253 10.125C8.61253 8.80199 9.44203 8.13233 9.9682 7.71933C10.5667 7.24916 10.6542 7.14416 10.6542 6.91666C10.6542 6.45349 10.4804 6.19099 10.2809 6.02883C10.0546 5.85061 9.77555 5.75254 9.48753 5.74999C9.14336 5.74999 8.90653 5.80716 8.7292 5.90166C8.56236 5.99033 8.3862 6.14666 8.21586 6.46166C8.16109 6.56278 8.08694 6.65212 7.99764 6.72458C7.90834 6.79704 7.80564 6.8512 7.69541 6.88397C7.58518 6.91674 7.46958 6.92748 7.3552 6.91557C7.24081 6.90367 7.1299 6.86935 7.02878 6.81458C6.92766 6.7598 6.83832 6.68565 6.76586 6.59635C6.6934 6.50705 6.63924 6.40436 6.60647 6.29413C6.5737 6.1839 6.56296 6.06829 6.57487 5.95391C6.58677 5.83953 6.62109 5.72861 6.67586 5.62749C6.98386 5.06049 7.38986 4.63233 7.90553 4.35699V4.35816Z" fill="#626365"/>
<path d="M9.48753 14.5C9.79695 14.5 10.0937 14.3771 10.3125 14.1583C10.5313 13.9395 10.6542 13.6428 10.6542 13.3333C10.6542 13.0239 10.5313 12.7272 10.3125 12.5084C10.0937 12.2896 9.79695 12.1667 9.48753 12.1667C9.17811 12.1667 8.88136 12.2896 8.66257 12.5084C8.44378 12.7272 8.32086 13.0239 8.32086 13.3333C8.32086 13.6428 8.44378 13.9395 8.66257 14.1583C8.88136 14.3771 9.17811 14.5 9.48753 14.5Z" fill="#626365"/>
<path d="M9.48753 0.5C8.01578 0.499753 6.56774 0.87074 5.27742 1.57863C3.9871 2.28652 2.89618 3.30845 2.10561 4.54983C1.31505 5.79122 0.850377 7.21197 0.754603 8.6806C0.658829 10.1492 0.935046 11.6183 1.55769 12.9518L0.711861 16.2675C0.649777 16.5111 0.651695 16.7665 0.717426 17.0091C0.783158 17.2517 0.910472 17.4732 1.08702 17.6521C1.26357 17.831 1.48335 17.9612 1.72506 18.0301C1.96676 18.0991 2.22218 18.1044 2.46653 18.0455C3.34153 17.8355 4.68669 17.5123 5.88486 17.2265C7.07449 17.763 8.36904 18.0265 9.67371 17.9979C10.9784 17.9693 12.2601 17.6492 13.4251 17.0611C14.59 16.473 15.6087 15.6317 16.4065 14.599C17.2042 13.5662 17.7609 12.3681 18.0356 11.0924C18.3104 9.81665 18.2963 8.49561 17.9945 7.22602C17.6926 5.95643 17.1106 4.77043 16.2911 3.75488C15.4715 2.73934 14.4352 1.91997 13.258 1.35678C12.0808 0.793596 10.7925 0.500855 9.48753 0.5ZM2.48753 9.25C2.48799 7.72785 2.98459 6.24733 3.90209 5.03277C4.81959 3.81822 6.10797 2.93583 7.57203 2.5193C9.03608 2.10277 10.596 2.17482 12.0154 2.72451C13.4349 3.2742 14.6364 4.27159 15.4381 5.56554C16.2397 6.85949 16.5978 8.37948 16.4579 9.8952C16.3181 11.4109 15.688 12.8397 14.6631 13.9652C13.6383 15.0906 12.2745 15.8513 10.7785 16.132C9.28243 16.4128 7.73566 16.1982 6.37253 15.5208L6.08903 15.3797L5.77986 15.4532L2.52719 16.2313C2.76053 15.3213 3.06619 14.1173 3.33219 13.072L3.41386 12.75L3.26219 12.4548C2.75124 11.4639 2.48558 10.3649 2.48753 9.25Z" fill="#626365"/>
<path d="M15.3209 21.5C13.0225 21.5 10.933 20.6145 9.37086 19.1667H9.48753C10.3252 19.1667 11.1384 19.0628 11.9154 18.8668C12.9234 19.4292 14.0854 19.75 15.322 19.75C16.442 19.75 17.499 19.4875 18.4359 19.0208L18.7194 18.8797L19.0285 18.9532C20.103 19.2098 21.321 19.4723 22.2252 19.6648C22.0199 18.7887 21.741 17.6162 21.4762 16.572L21.3945 16.25L21.5462 15.9548C22.0572 14.9639 22.3228 13.8649 22.3209 12.75C22.3215 11.5797 22.0284 10.4279 21.4685 9.40019C20.9086 8.37249 20.0997 7.50173 19.116 6.86766C18.9103 6.03434 18.5965 5.23148 18.1827 4.47949C19.3409 4.88054 20.4019 5.52034 21.2972 6.35747C22.1924 7.1946 22.9019 8.2104 23.3796 9.33911C23.8574 10.4678 24.0928 11.6843 24.0705 12.9097C24.0483 14.1352 23.769 15.3423 23.2507 16.453C23.5459 17.629 23.8457 18.903 24.0347 19.7232C24.0902 19.9609 24.0848 20.2088 24.0191 20.4439C23.9533 20.679 23.8293 20.8937 23.6586 21.0682C23.4879 21.2426 23.2759 21.3712 23.0422 21.442C22.8086 21.5128 22.5609 21.5235 22.322 21.4732C21.4739 21.2958 20.1404 21.0112 18.9235 20.7265C17.7914 21.2379 16.5631 21.5017 15.3209 21.5Z" fill="#626365"/>
</svg>
