<svg width="16" height="17" viewBox="0 0 16 17" fill="none" xmlns="http://www.w3.org/2000/svg">
<g clip-path="url(#clip0)">
<path d="M1.43402 6.13051L12.6518 2.88409C12.7651 2.85135 12.8853 2.8513 12.9986 2.88397C13.1118 2.91664 13.2136 2.98069 13.292 3.06871C13.3704 3.15674 13.4224 3.26515 13.4418 3.38144C13.4613 3.49772 13.4474 3.61714 13.4019 3.72589L8.88865 14.4966C8.84244 14.6072 8.76543 14.7021 8.66679 14.7701C8.56815 14.8381 8.45203 14.8763 8.33228 14.8802C8.21253 14.8841 8.09419 14.8535 7.99135 14.792C7.88851 14.7305 7.8055 14.6408 7.75222 14.5335L5.96856 10.9474C5.94669 10.9035 5.93823 10.8541 5.94425 10.8054C5.95027 10.7566 5.97049 10.7108 6.0024 10.6735L9.35247 6.75953C9.36637 6.74314 9.37582 6.72344 9.37989 6.70233C9.38395 6.68123 9.38251 6.65943 9.3757 6.63904L9.36146 6.60954C9.34584 6.58607 9.32274 6.56858 9.29591 6.5599C9.26909 6.55122 9.24012 6.55186 9.21371 6.56172L9.18819 6.57441L4.91946 9.44987C4.87876 9.47715 4.83093 9.49187 4.78193 9.4922C4.73292 9.49252 4.6849 9.47844 4.64384 9.45169L1.26688 7.25519C1.1664 7.18993 1.08678 7.09717 1.03753 6.98795C0.988274 6.87873 0.971451 6.75765 0.989064 6.63914C1.00668 6.52063 1.05798 6.40968 1.13687 6.3195C1.21576 6.22932 1.3189 6.16372 1.43402 6.13051Z" fill="white"/>
</g>
<defs>
<clipPath id="clip0">
<rect width="16" height="17" fill="white"/>
</clipPath>
</defs>
</svg>
