<svg width="32" height="32" viewBox="0 0 32 32" fill="none" xmlns="http://www.w3.org/2000/svg">
<mask id="path-1-outside-1" maskUnits="userSpaceOnUse" x="6.79999" y="5.91738" width="18" height="20" fill="black">
<rect fill="white" x="6.79999" y="5.91738" width="18" height="20"/>
<path fill-rule="evenodd" clip-rule="evenodd" d="M11.5739 7.91738C11.1321 7.91738 10.7739 8.27555 10.7739 8.71738C10.7739 8.75566 10.7766 8.79331 10.7818 8.83015C10.3259 8.88539 9.91737 9.01827 9.58311 9.24278C9.02968 9.6145 8.73885 10.2063 8.81079 10.862C8.87722 11.4676 9.23778 12.0152 9.72551 12.4524C10.2227 12.898 10.9055 13.2806 11.7488 13.5595L11.7657 13.5084C12.1676 14.715 13.114 15.6539 14.2973 16.0586L14.6816 19.8625H13.0969C12.5125 19.8625 12.021 20.2603 11.8785 20.8H11.2C10.3164 20.8 9.60004 21.5163 9.60004 22.4C9.60004 23.2836 10.3164 24 11.2 24H20C20.8837 24 21.6 23.2836 21.6 22.4C21.6 21.5163 20.8837 20.8 20 20.8H19.4952C19.3526 20.2603 18.8611 19.8625 18.2767 19.8625H16.5245L16.9085 16.0618C18.0901 15.6609 19.0352 14.7281 19.4418 13.5311L19.4512 13.5595C20.2945 13.2806 20.9774 12.898 21.4746 12.4524C21.9623 12.0152 22.3229 11.4676 22.3893 10.862C22.4612 10.2063 22.1704 9.6145 21.617 9.24278C21.3676 9.07526 21.0768 8.95876 20.7559 8.88746C20.7677 8.83265 20.774 8.77574 20.774 8.71738C20.774 8.27555 20.4158 7.91738 19.974 7.91738H11.5739ZM19.9072 10.4L19.7496 11.7053C20.0249 11.5606 20.2423 11.4082 20.4066 11.2609C20.7158 10.9839 20.7897 10.7711 20.7988 10.6875L20.7994 10.6829C20.803 10.6517 20.806 10.6255 20.7249 10.571C20.6151 10.4973 20.3645 10.4011 19.9072 10.4ZM10.4752 10.571C10.5818 10.4994 10.8209 10.4068 11.2528 10.4003L11.4401 11.6998C11.1697 11.5567 10.9557 11.4064 10.7934 11.2609C10.4843 10.9839 10.4104 10.7711 10.4012 10.6875L10.4007 10.6829C10.3971 10.6517 10.394 10.6255 10.4752 10.571Z"/>
</mask>
<path d="M10.7818 8.83015L10.9742 10.4185L12.5941 10.2223L12.3661 8.60663L10.7818 8.83015ZM9.58311 9.24278L8.691 7.91458L8.691 7.91458L9.58311 9.24278ZM8.81079 10.862L10.4012 10.6875L8.81079 10.862ZM9.72551 12.4524L10.7934 11.2609L10.7934 11.2609L9.72551 12.4524ZM11.7488 13.5595L11.2464 15.0786L12.7655 15.581L13.2679 14.0619L11.7488 13.5595ZM11.7657 13.5084L13.2837 13.0028L11.7603 8.42923L10.2467 13.006L11.7657 13.5084ZM14.2973 16.0586L15.8892 15.8977L15.786 14.8767L14.815 14.5446L14.2973 16.0586ZM14.6816 19.8625V21.4625H16.4514L16.2735 19.7017L14.6816 19.8625ZM11.8785 20.8V22.4H13.1107L13.4254 21.2086L11.8785 20.8ZM19.4952 20.8L17.9482 21.2086L18.2629 22.4H19.4952V20.8ZM16.5245 19.8625L14.9327 19.7017L14.7547 21.4625H16.5245V19.8625ZM16.9085 16.0618L16.3945 14.5466L15.4201 14.8772L15.3166 15.9009L16.9085 16.0618ZM19.4418 13.5311L20.9609 13.0287L19.4622 8.4969L17.9269 13.0164L19.4418 13.5311ZM19.4512 13.5595L17.9322 14.0619L18.4345 15.581L19.9536 15.0786L19.4512 13.5595ZM21.4746 12.4524L22.5425 13.6438L22.5425 13.6438L21.4746 12.4524ZM22.3893 10.862L23.9798 11.0365V11.0365L22.3893 10.862ZM21.617 9.24278L22.5091 7.91458V7.91458L21.617 9.24278ZM20.7559 8.88746L19.1921 8.5489L18.8554 10.1042L20.4089 10.4494L20.7559 8.88746ZM19.7496 11.7053L18.1611 11.5135L17.7957 14.5403L20.4942 13.1215L19.7496 11.7053ZM19.9072 10.4L19.9112 8.79998L18.4892 8.7964L18.3187 10.2082L19.9072 10.4ZM20.4066 11.2609L21.4746 12.4524L21.4746 12.4524L20.4066 11.2609ZM20.7988 10.6875L19.2091 10.5063L19.2084 10.5131L20.7988 10.6875ZM20.7994 10.6829L19.2101 10.4978L19.2097 10.5016L20.7994 10.6829ZM20.7249 10.571L19.8327 11.8992L19.8327 11.8992L20.7249 10.571ZM11.2528 10.4003L12.8365 10.1721L12.6357 8.77942L11.2288 8.8005L11.2528 10.4003ZM10.4752 10.571L11.3673 11.8992L11.3673 11.8992L10.4752 10.571ZM11.4401 11.6998L10.6916 13.114L13.4726 14.5858L13.0237 11.4716L11.4401 11.6998ZM10.7934 11.2609L11.8614 10.0695L11.8614 10.0695L10.7934 11.2609ZM10.4012 10.6875L11.9917 10.5131L11.9909 10.506L10.4012 10.6875ZM10.4007 10.6829L11.9904 10.5013L11.99 10.4978L10.4007 10.6829ZM12.3739 8.71738C12.3739 9.15921 12.0157 9.51738 11.5739 9.51738V6.31738C10.2484 6.31738 9.17392 7.3919 9.17392 8.71738H12.3739ZM12.3661 8.60663C12.3713 8.64361 12.3739 8.68065 12.3739 8.71738H9.17392C9.17392 8.83067 9.18188 8.94301 9.19749 9.05368L12.3661 8.60663ZM10.4752 10.571C10.5507 10.5203 10.7023 10.4515 10.9742 10.4185L10.5894 7.24177C9.94945 7.3193 9.284 7.51628 8.691 7.91458L10.4752 10.571ZM10.4012 10.6875C10.3989 10.6665 10.4004 10.6546 10.4012 10.6498C10.402 10.6451 10.403 10.6422 10.4044 10.6393C10.4058 10.6363 10.4192 10.6086 10.4752 10.571L8.691 7.91458C7.67089 8.59975 7.07992 9.75673 7.22033 11.0365L10.4012 10.6875ZM10.7934 11.2609C10.4829 10.9826 10.4103 10.7698 10.4012 10.6875L7.22033 11.0365C7.34418 12.1653 7.99265 13.0478 8.65759 13.6438L10.7934 11.2609ZM12.2512 12.0405C11.5694 11.8149 11.093 11.5295 10.7934 11.2609L8.65759 13.6438C9.35234 14.2666 10.2417 14.7463 11.2464 15.0786L12.2512 12.0405ZM10.2467 13.006L10.2298 13.0571L13.2679 14.0619L13.2848 14.0108L10.2467 13.006ZM14.815 14.5446C14.0988 14.2997 13.526 13.7302 13.2837 13.0028L10.2477 14.0141C10.8093 15.6999 12.1293 17.0081 13.7795 17.5725L14.815 14.5446ZM16.2735 19.7017L15.8892 15.8977L12.7054 16.2194L13.0897 20.0233L16.2735 19.7017ZM13.0969 21.4625H14.6816V18.2625H13.0969V21.4625ZM13.4254 21.2086C13.3871 21.3536 13.2568 21.4625 13.0969 21.4625V18.2625C11.7682 18.2625 10.6549 19.1671 10.3315 20.3914L13.4254 21.2086ZM11.2 22.4H11.8785V19.2H11.2V22.4ZM11.2 22.4H11.2V19.2C9.43273 19.2 8.00004 20.6327 8.00004 22.4H11.2ZM11.2 22.4L11.2 22.4H8.00004C8.00004 24.1673 9.43273 25.6 11.2 25.6V22.4ZM20 22.4H11.2V25.6H20V22.4ZM20 22.4V22.4V25.6C21.7674 25.6 23.2 24.1673 23.2 22.4H20ZM20 22.4H23.2C23.2 20.6327 21.7674 19.2 20 19.2V22.4ZM19.4952 22.4H20V19.2H19.4952V22.4ZM18.2767 21.4625C18.1168 21.4625 17.9865 21.3536 17.9482 21.2086L21.0421 20.3914C20.7187 19.1671 19.6054 18.2625 18.2767 18.2625V21.4625ZM16.5245 21.4625H18.2767V18.2625H16.5245V21.4625ZM15.3166 15.9009L14.9327 19.7017L18.1164 20.0233L18.5004 16.2226L15.3166 15.9009ZM17.9269 13.0164C17.6817 13.7381 17.1094 14.3041 16.3945 14.5466L17.4226 17.5769C19.0708 17.0178 20.3887 15.7181 20.9568 14.0457L17.9269 13.0164ZM20.9703 13.0571L20.9609 13.0287L17.9227 14.0335L17.9322 14.0619L20.9703 13.0571ZM20.4066 11.2609C20.107 11.5295 19.6307 11.8149 18.9488 12.0405L19.9536 15.0786C20.9584 14.7463 21.8477 14.2666 22.5425 13.6438L20.4066 11.2609ZM20.7988 10.6875C20.7898 10.7698 20.7172 10.9826 20.4066 11.2609L22.5425 13.6438C23.2074 13.0478 23.8559 12.1653 23.9798 11.0365L20.7988 10.6875ZM20.7249 10.571C20.7808 10.6086 20.7943 10.6363 20.7957 10.6393C20.7971 10.6422 20.7981 10.6451 20.7989 10.6498C20.7997 10.6546 20.8011 10.6665 20.7988 10.6875L23.9798 11.0365C24.1202 9.75673 23.5292 8.59975 22.5091 7.91458L20.7249 10.571ZM20.4089 10.4494C20.5711 10.4854 20.669 10.5335 20.7249 10.571L22.5091 7.91458C22.0661 7.61703 21.5826 7.43211 21.1029 7.32554L20.4089 10.4494ZM19.174 8.71738C19.174 8.66121 19.18 8.60464 19.1921 8.5489L22.3196 9.22602C22.3554 9.06066 22.374 8.89027 22.374 8.71738H19.174ZM19.974 9.51738C19.5322 9.51738 19.174 9.15921 19.174 8.71738H22.374C22.374 7.3919 21.2995 6.31738 19.974 6.31738V9.51738ZM11.5739 9.51738H19.974V6.31738H11.5739V9.51738ZM21.338 11.8971L21.4957 10.5918L18.3187 10.2082L18.1611 11.5135L21.338 11.8971ZM19.3387 10.0695C19.2859 10.1169 19.1807 10.1967 19.005 10.2891L20.4942 13.1215C20.8691 12.9244 21.1988 12.6996 21.4746 12.4524L19.3387 10.0695ZM19.2084 10.5131C19.2224 10.3853 19.2509 10.2891 19.2728 10.2286C19.2964 10.1633 19.321 10.116 19.3389 10.0857C19.3751 10.0247 19.3898 10.0237 19.3387 10.0695L21.4746 12.4524C21.9661 12.0118 22.3233 11.4639 22.3893 10.862L19.2084 10.5131ZM19.2097 10.5016L19.2091 10.5063L22.3885 10.8688L22.3891 10.8641L19.2097 10.5016ZM19.8327 11.8992C19.8154 11.8875 19.5551 11.7228 19.3732 11.3715C19.1369 10.9153 19.2119 10.4828 19.2101 10.4978L22.3886 10.8679C22.3905 10.8518 22.4688 10.3906 22.2147 9.89987C22.0149 9.51409 21.7155 9.30898 21.617 9.24278L19.8327 11.8992ZM19.9032 12C20.0222 12.0003 20.0682 12.013 20.0582 12.0105C20.0529 12.0091 20.0303 12.0031 19.9942 11.9879C19.9597 11.9734 19.9028 11.9463 19.8327 11.8992L21.617 9.24278C21.1567 8.93365 20.5593 8.80161 19.9112 8.79998L19.9032 12ZM11.2288 8.8005C10.6074 8.80981 10.0309 8.94203 9.58311 9.24278L11.3673 11.8992C11.2992 11.9449 11.2436 11.9718 11.2092 11.9865C11.1732 12.0019 11.1501 12.0084 11.1431 12.0101C11.1298 12.0136 11.1691 12.0018 11.2768 12.0001L11.2288 8.8005ZM13.0237 11.4716L12.8365 10.1721L9.66918 10.6286L9.85646 11.9281L13.0237 11.4716ZM9.72551 12.4524C9.99785 12.6965 10.3227 12.9187 10.6916 13.114L12.1886 10.2857C12.0167 10.1947 11.9135 10.1162 11.8614 10.0695L9.72551 12.4524ZM8.81079 10.862C8.87682 11.4639 9.23396 12.0118 9.72551 12.4524L11.8614 10.0695C11.8103 10.0237 11.825 10.0247 11.8611 10.0857C11.8791 10.116 11.9037 10.1633 11.9273 10.2286C11.9492 10.2891 11.9777 10.3853 11.9917 10.5131L8.81079 10.862ZM8.81104 10.8644L8.81158 10.8691L11.9909 10.506L11.9904 10.5013L8.81104 10.8644ZM9.58311 9.24278C9.48456 9.30898 9.18518 9.51409 8.98539 9.89986C8.73125 10.3906 8.80956 10.8517 8.81145 10.8679L11.99 10.4978C11.9882 10.4828 12.0632 10.9153 11.8269 11.3715C11.645 11.7228 11.3847 11.8875 11.3673 11.8992L9.58311 9.24278Z" fill="white" mask="url(#path-1-outside-1)"/>
</svg>
