<svg width="22" height="22" viewBox="0 0 22 22" fill="none" xmlns="http://www.w3.org/2000/svg">
<g clip-path="url(#clip0)">
<path d="M4.72995 4.07C4.72135 4.07515 4.80214 4.02531 4.77635 4.02359C4.7901 3.99781 4.81073 3.95312 4.81417 3.87406C4.81589 3.83625 4.80729 3.79156 4.79526 3.75203C4.78667 3.73312 4.77979 3.71422 4.76776 3.70047L4.76432 3.69531L4.7626 3.69187C4.75573 3.67812 4.7712 3.71078 4.76948 3.70562L4.76604 3.70047L4.7437 3.66437C4.72823 3.63859 4.73167 3.65578 4.72307 3.64375C4.65089 3.56812 4.51339 3.48218 4.3312 3.45297C4.31229 3.44953 4.27964 3.44437 4.27104 3.44609C4.23667 3.44093 4.19198 3.43578 4.18167 3.4375C4.15073 3.43578 4.08714 3.4375 4.03901 3.44265C3.93589 3.45125 3.83104 3.47875 3.72964 3.51828C3.60112 3.5668 3.48322 3.63976 3.38245 3.73312L3.37214 3.74343C3.3687 3.74687 3.39448 3.72281 3.38245 3.73484L3.35667 3.76062C3.34292 3.77437 3.32057 3.795 3.31542 3.80359C3.29651 3.82765 3.25526 3.88265 3.22604 3.92734C3.09885 4.11812 3.03182 4.36734 3.05589 4.59422V4.60797C3.05932 4.63031 3.05245 4.57875 3.05245 4.58562L3.05417 4.59422L3.06964 4.69734C3.07307 4.72656 3.07651 4.73172 3.07995 4.74203L3.08682 4.77468C3.10057 4.82625 3.1212 4.89156 3.14698 4.95C3.19854 5.07031 3.27245 5.19062 3.36354 5.30578C3.54745 5.53609 3.79495 5.75093 4.06479 5.93656C4.34495 6.12734 4.65432 6.29234 4.96714 6.4814C5.27823 6.66703 5.59448 6.8664 5.87635 7.10359C6.14792 7.33562 6.42292 7.61578 6.58104 7.98015C6.62057 8.06781 6.65151 8.17265 6.6687 8.25343C6.69276 8.36687 6.69964 8.45968 6.69964 8.55593C6.6981 8.74307 6.65464 8.92749 6.57245 9.09562C6.49339 9.25718 6.35932 9.40328 6.23214 9.48406C6.20979 9.49953 6.18745 9.51328 6.16339 9.52531C6.14443 9.53555 6.12492 9.54473 6.10495 9.55281C6.06714 9.57172 6.03104 9.58203 5.99495 9.59406C5.92276 9.6164 5.85229 9.62843 5.78354 9.63359C5.5137 9.6525 5.29885 9.55453 5.17339 9.4514C5.11151 9.40156 5.06854 9.35344 5.04448 9.31906L5.00839 9.2675C4.9087 9.12656 4.94135 8.93234 5.08229 8.83437C5.18198 8.7639 5.30745 8.76047 5.40885 8.81375L5.55495 8.89109C5.55667 8.89109 5.56182 8.89453 5.57901 8.89797C5.59276 8.9014 5.63573 8.90828 5.6976 8.89109C5.71307 8.88765 5.72682 8.87906 5.74057 8.87218C5.74917 8.86703 5.77495 8.84812 5.75948 8.855C5.79557 8.82234 5.80245 8.79656 5.81964 8.75015C5.83339 8.70547 5.84026 8.64359 5.83167 8.57656C5.82823 8.5439 5.81792 8.50609 5.80932 8.48719C5.79385 8.43734 5.77839 8.41156 5.75604 8.37031C5.67182 8.21734 5.49995 8.05234 5.26276 7.88562C5.03417 7.7189 4.76089 7.56593 4.45323 7.40953C4.14729 7.25484 3.80698 7.08125 3.46151 6.86812C3.10917 6.64812 2.76542 6.37828 2.47495 6.01906C2.33057 5.84031 2.19995 5.63922 2.09854 5.41406C2.0487 5.2989 2.00745 5.1889 1.97307 5.05828L1.94901 4.95343C1.94214 4.91906 1.93354 4.87953 1.93182 4.86234L1.91635 4.75922L1.9112 4.71453L1.90948 4.69047C1.87167 4.17484 2.0212 3.68328 2.29276 3.28797C2.36495 3.18828 2.4337 3.10406 2.5351 3.00437C2.55917 2.98031 2.56948 2.97172 2.58667 2.95625L2.61073 2.9339L2.62964 2.91672L2.65542 2.89609C2.7001 2.85828 2.74651 2.82218 2.79464 2.78953C2.9837 2.65547 3.18823 2.56093 3.39448 2.49734C3.60245 2.4389 3.81042 2.40968 4.01323 2.4114C4.11807 2.41312 4.20573 2.41828 4.31917 2.43718C4.38104 2.44578 4.41026 2.45437 4.44635 2.46125C4.50823 2.47328 4.54604 2.48531 4.59417 2.50078C4.95682 2.61937 5.27651 2.84109 5.46042 3.15218C5.48276 3.18828 5.51714 3.25187 5.52573 3.27593L5.5412 3.31375L5.54292 3.3189L5.55151 3.33781L5.55323 3.34125L5.55839 3.35672L5.5687 3.38937C5.59792 3.47531 5.61167 3.55781 5.62026 3.63687C5.63401 3.795 5.60995 3.93593 5.57385 4.05797C5.49995 4.30375 5.34698 4.47047 5.22495 4.5564C5.16135 4.60281 5.08229 4.64406 5.07542 4.64234C5.05307 4.65093 5.04276 4.65437 5.04276 4.65437C4.8812 4.74031 4.6801 4.67672 4.59417 4.51515C4.57351 4.47708 4.56064 4.43529 4.55629 4.39219C4.55194 4.3491 4.55621 4.30557 4.56885 4.26414C4.58148 4.22272 4.60223 4.18422 4.62989 4.15089C4.65755 4.11755 4.69156 4.09006 4.72995 4.07Z" fill="url(#paint0_radial)"/>
<path d="M16.9606 4.6561C16.9606 4.6561 16.9503 4.65266 16.9279 4.64406C16.9211 4.64406 16.8403 4.60453 16.7784 4.55813C16.6564 4.47219 16.5034 4.30547 16.4295 4.05969C16.3917 3.93766 16.3693 3.79672 16.3831 3.6386C16.3917 3.55953 16.4054 3.47703 16.4347 3.3911L16.445 3.35844L16.4501 3.34297L16.4518 3.33953L16.4604 3.32063L16.4622 3.31547L16.4776 3.27766C16.4879 3.2536 16.5206 3.18828 16.5429 3.15391C16.7268 2.84453 17.0465 2.6211 17.4092 2.5025C17.459 2.48703 17.4951 2.475 17.557 2.46297C17.5931 2.45438 17.6223 2.4475 17.6842 2.43891C17.7993 2.42 17.8853 2.41656 17.9901 2.41313C18.1929 2.41141 18.4009 2.44063 18.6089 2.49906C18.8151 2.56266 19.0197 2.65719 19.2087 2.79125C19.2568 2.82391 19.3033 2.86 19.3479 2.89781L19.3737 2.91844L19.3926 2.93563L19.4167 2.95797C19.4339 2.97516 19.4442 2.98203 19.4683 3.0061C19.5697 3.1075 19.6384 3.19 19.7106 3.28969C19.9822 3.68328 20.1334 4.17656 20.0939 4.69219L20.0922 4.71625L20.087 4.76094L20.0715 4.86406C20.0698 4.88297 20.0612 4.92078 20.0543 4.95516L20.0303 5.06C19.9959 5.19063 19.9547 5.30063 19.9048 5.41578C19.8051 5.64094 19.6728 5.84203 19.5284 6.02078C19.2379 6.38 18.8942 6.64985 18.5418 6.86985C18.1964 7.08297 17.8561 7.25485 17.5501 7.41125C17.2425 7.56766 16.9692 7.72063 16.7406 7.88735C16.5034 8.05406 16.3315 8.21906 16.2473 8.37203C16.225 8.41328 16.2095 8.43906 16.194 8.48891C16.1854 8.50781 16.1768 8.54563 16.1717 8.57828C16.1614 8.64531 16.17 8.70719 16.1837 8.75188C16.2009 8.79828 16.2078 8.82406 16.2439 8.85672C16.2267 8.84813 16.2542 8.86875 16.2628 8.87391C16.2765 8.88078 16.2903 8.88766 16.3058 8.89282C16.3676 8.91172 16.4106 8.90485 16.4243 8.89969C16.4415 8.89625 16.4484 8.8911 16.4484 8.89282L16.5928 8.81547C16.744 8.73469 16.9331 8.79141 17.0139 8.94438C17.0706 9.05094 17.0586 9.17813 16.9933 9.27094L16.9572 9.3225C16.9331 9.35688 16.8919 9.405 16.8283 9.45485C16.7045 9.55797 16.4879 9.65422 16.2181 9.63703C16.1511 9.63188 16.0806 9.61985 16.0067 9.5975C15.9706 9.58547 15.9328 9.57344 15.8967 9.55625C15.8778 9.54766 15.8606 9.54078 15.8383 9.52875C15.8159 9.515 15.7918 9.50125 15.7695 9.4875C15.6423 9.40672 15.5065 9.26063 15.4292 9.09906C15.3467 8.93406 15.3037 8.75016 15.302 8.55938C15.3003 8.46313 15.3072 8.37032 15.3329 8.25688C15.3501 8.17438 15.3811 8.06953 15.4206 7.9836C15.5787 7.62094 15.8537 7.33906 16.1253 7.10703C16.4072 6.86985 16.7234 6.67047 17.0345 6.48485C17.3473 6.29578 17.6567 6.1325 17.9368 5.94C18.2067 5.75438 18.4542 5.54125 18.6381 5.30922C18.7292 5.19406 18.8031 5.07375 18.8547 4.95344C18.8787 4.895 18.9011 4.82969 18.9148 4.77813L18.9217 4.74547C18.9251 4.73516 18.9286 4.72828 18.932 4.70078L18.9475 4.59766L18.9286 4.58906C18.9303 4.58219 18.9062 4.63375 18.9062 4.61141V4.60797L18.9268 4.59766C18.9509 4.37078 18.8925 4.11985 18.767 3.93078C18.7378 3.88438 18.7017 3.8311 18.6828 3.80703C18.6776 3.80016 18.657 3.77781 18.645 3.76406L18.6226 3.74172L18.6209 3.73828C18.6089 3.72625 18.6347 3.75031 18.6312 3.74688L18.6209 3.73656C18.6015 3.71748 18.5808 3.69968 18.559 3.68328C18.4748 3.61453 18.3751 3.56125 18.2737 3.52172C18.1723 3.48219 18.0658 3.45469 17.9643 3.4461C17.9145 3.4375 17.8509 3.4375 17.82 3.4375C17.8097 3.43578 17.765 3.44094 17.7306 3.4461C17.722 3.4461 17.6893 3.44953 17.6704 3.45297C17.4883 3.48219 17.349 3.56813 17.2786 3.64375C17.2683 3.65578 17.2734 3.64031 17.2579 3.66438L17.2356 3.70047L17.2322 3.70563L17.239 3.69188L17.2373 3.69531L17.2339 3.70047C17.2218 3.71422 17.215 3.73313 17.2064 3.75203C17.1943 3.79156 17.1858 3.83625 17.1875 3.87406C17.1909 3.95141 17.2115 3.99781 17.2253 4.0236C17.1995 4.02531 17.2803 4.07516 17.2717 4.07C17.4333 4.15594 17.4968 4.35531 17.4109 4.5186C17.3233 4.68016 17.1222 4.74203 16.9606 4.6561Z" fill="url(#paint1_radial)"/>
<path d="M13.0144 15.2986C12.3406 15.003 12.2014 13.75 12.1808 13.0625H12.4627C12.7428 13.0625 12.8906 12.8133 12.8906 12.5331V11.8439C12.8906 11.5638 12.7411 11.3438 12.4627 11.3438H9.53735C9.25891 11.3438 9.10938 11.5638 9.10938 11.8439V12.5331C9.10938 12.8133 9.25891 13.0625 9.53735 13.0625H9.81063C9.78657 13.75 9.64047 15.003 8.96672 15.2986C7.98188 15.7317 7.86157 16.0445 7.78938 16.5481C7.71719 17.0534 11.0086 17.0809 11.0086 17.0809C11.0086 17.0809 14.2828 17.0552 14.2106 16.5498C14.1384 16.0462 13.9992 15.7317 13.0144 15.2986Z" fill="url(#paint2_linear)"/>
<path d="M5.20947 1.61562C5.20947 1.61562 5.52057 12.6088 10.9999 12.6088C16.4793 12.6088 16.7904 1.61562 16.7904 1.61562C14.1693 0.378125 7.83057 0.378125 5.20947 1.61562Z" fill="url(#paint3_radial)"/>
<path d="M6.25452 16.5739H15.7455V20.7075H6.25452V16.5739Z" fill="#832B00"/>
<path d="M7.4989 17.2287H14.5028V19.9323H7.4989V17.2287Z" fill="url(#paint4_linear)"/>
<path d="M4.89673 20.0527H17.1033V21.3795H4.89673V20.0527Z" fill="#832B00"/>
<path opacity="0.2" d="M18.9269 4.58907C18.9252 4.59078 18.9235 4.59422 18.9218 4.59766L18.9269 4.59422V4.58907Z" fill="#424242"/>
<path opacity="0.2" d="M18.9217 4.59766L18.9062 4.60453V4.60797C18.9062 4.61312 18.9063 4.61484 18.908 4.61484C18.9114 4.61313 18.9166 4.60453 18.9217 4.59766Z" fill="#424242"/>
<path opacity="0.2" d="M11 1.20312C13.1278 1.20312 15.0528 1.47812 16.2577 1.94734C16.2439 2.1725 16.2216 2.49906 16.1821 2.89609C16.1597 3.11781 16.2835 3.3275 16.4863 3.41687C16.5533 3.44609 16.6238 3.46156 16.6943 3.46156C16.7218 3.46156 16.7475 3.45984 16.775 3.45469C16.7527 3.49422 16.7372 3.52859 16.7286 3.55266C16.7218 3.56641 16.7166 3.58188 16.7132 3.59734C16.6977 3.64547 16.6822 3.7125 16.6736 3.78813C16.6278 3.77488 16.5803 3.76851 16.5327 3.76922C16.4086 3.76875 16.2885 3.81322 16.1947 3.89443C16.1008 3.97563 16.0396 4.08806 16.0222 4.21094C15.8658 5.28344 15.6544 6.28203 15.3932 7.1775C15.3278 7.40437 15.4241 7.645 15.6252 7.76531C15.706 7.81344 15.7971 7.8375 15.8882 7.8375C15.9328 7.8375 15.9775 7.83234 16.0205 7.82031C15.926 7.92 15.8503 8.01969 15.7953 8.11938C15.7936 8.12281 15.7919 8.12453 15.7902 8.12797L15.7833 8.14C15.7627 8.17953 15.7335 8.23281 15.706 8.31359C15.6853 8.37031 15.6682 8.43734 15.6596 8.50094C15.5736 8.42016 15.4602 8.36687 15.3364 8.36C15.3261 8.36 15.3141 8.35828 15.3038 8.35828C15.0958 8.35828 14.9085 8.48203 14.8277 8.67625C14.1832 10.2248 13.4836 11.1392 12.5572 11.6411C12.3905 11.7305 12.2874 11.9058 12.2874 12.0948V12.5331C12.2874 12.5727 12.2857 12.6053 12.2839 12.6328H12.1791C12.0399 12.6328 11.9058 12.6895 11.8096 12.7892C11.7614 12.8387 11.7236 12.8974 11.6985 12.9617C11.6734 13.0261 11.6615 13.0948 11.6635 13.1639C11.6944 14.1591 11.9161 15.4258 12.8064 15.8159C13.5936 16.1614 13.6503 16.3058 13.6933 16.5825C13.6929 16.6505 13.7059 16.7179 13.7316 16.7809C13.7573 16.8438 13.7952 16.901 13.8432 16.9493C13.8911 16.9975 13.9481 17.0358 14.0108 17.0619C14.0736 17.0881 14.1409 17.1015 14.2089 17.1016H15.211V20.1953C15.211 20.4806 15.4413 20.7109 15.7266 20.7109H16.586V20.8828H5.24222V20.7109H6.10159C6.38691 20.7109 6.61722 20.4806 6.61722 20.1953V17.1016H7.79113C7.92467 17.1017 8.05303 17.0499 8.1492 16.9573C8.24538 16.8646 8.30186 16.7383 8.30675 16.6048C8.35144 16.3041 8.40644 16.1511 9.17472 15.8125C10.0633 15.4223 10.2919 14.1573 10.3263 13.1656C10.3314 13.0264 10.2799 12.8906 10.1819 12.7892C10.0839 12.6878 9.9516 12.6311 9.81066 12.6311H9.5855C9.56316 12.6053 9.53909 12.5572 9.53909 12.5314V12.0931C9.53909 11.9161 9.448 11.7511 9.29847 11.6566C8.43394 11.1117 7.66738 10.0805 7.08472 8.67453C7.04553 8.58051 6.97943 8.50017 6.89472 8.4436C6.81002 8.38703 6.71049 8.35675 6.60863 8.35656C6.59831 8.35656 6.58628 8.35656 6.57597 8.35828C6.48792 8.36359 6.4027 8.39141 6.32847 8.43906C6.31988 8.39437 6.30613 8.34969 6.29238 8.31016C6.26488 8.23109 6.23738 8.17781 6.21503 8.13828L6.20816 8.12453C6.20644 8.12109 6.20472 8.11938 6.203 8.11594C6.148 8.01625 6.07238 7.91656 5.97785 7.81687C6.02081 7.82891 6.0655 7.83406 6.11019 7.83406C6.19956 7.83406 6.29066 7.81 6.37316 7.76188C6.57597 7.64156 6.67222 7.40094 6.60519 7.17406C6.34566 6.27859 6.13425 5.28 5.97613 4.2075C5.95802 4.08495 5.89654 3.97297 5.80286 3.89191C5.70919 3.81085 5.58953 3.7661 5.46566 3.76578C5.41753 3.76578 5.36941 3.77266 5.32472 3.78469C5.31785 3.70906 5.30066 3.64203 5.28519 3.59391C5.28003 3.58016 5.27488 3.56297 5.268 3.5475C5.25941 3.52516 5.24394 3.49078 5.2216 3.45125C5.31946 3.46802 5.4201 3.45484 5.51035 3.41344C5.71316 3.32406 5.83691 3.11266 5.81456 2.89266C5.77675 2.49563 5.75269 2.17078 5.73894 1.94391C6.94722 1.47984 8.87222 1.20312 11 1.20312ZM3.99785 2.92703H4.01675C4.00816 2.92703 3.99784 2.92875 3.98925 2.92875C3.83972 2.9425 3.68847 2.98031 3.53722 3.03875C3.37738 3.10234 3.23644 3.18141 3.12128 3.27594C3.09035 3.3 3.06113 3.32578 3.02847 3.355C3.0216 3.36016 3.01472 3.36875 3.00956 3.37391L2.97347 3.41C2.95456 3.42891 2.92878 3.45297 2.90472 3.48734C2.8841 3.51484 2.83253 3.58016 2.79472 3.64031C2.59878 3.93422 2.50597 4.29688 2.54035 4.63719V4.63891C2.54035 4.65094 2.54206 4.66297 2.54378 4.67328L2.54722 4.69906L2.55581 4.76266C2.56097 4.8125 2.56956 4.84859 2.57816 4.87609L2.58331 4.895C2.58331 4.89844 2.58503 4.90188 2.58503 4.90531C2.60566 4.98438 2.6366 5.07547 2.67097 5.15625C2.73972 5.31609 2.83597 5.47422 2.958 5.63062C3.16425 5.88844 3.43753 6.13594 3.77269 6.36453C3.97378 6.50203 4.18519 6.62406 4.38972 6.74266C4.49113 6.80109 4.59597 6.86125 4.70081 6.92484C4.83488 7.00563 4.97238 7.08812 5.10644 7.1775C4.98097 7.10531 4.84003 7.02969 4.67675 6.94719C4.38456 6.79766 4.05285 6.62922 3.72972 6.43156C3.37222 6.20812 3.09035 5.9675 2.87035 5.69594C2.74144 5.53781 2.64003 5.37281 2.56613 5.20781C2.52316 5.11156 2.49394 5.02734 2.46816 4.93453L2.44753 4.84516C2.4441 4.82797 2.43894 4.81078 2.43722 4.79703C2.43722 4.79359 2.43722 4.79187 2.4355 4.78844L2.42519 4.71969L2.42175 4.69391L2.41831 4.66984L2.4166 4.65609C2.3891 4.28312 2.49222 3.905 2.70706 3.59047C2.76035 3.51828 2.81019 3.45641 2.89441 3.37219C2.89956 3.36703 2.903 3.36531 2.90472 3.36187C2.9116 3.355 2.92019 3.34812 2.92878 3.33953L2.95285 3.31891L2.96144 3.31031L2.98035 3.29484C3.01644 3.26562 3.0491 3.23984 3.08691 3.21406C3.21753 3.12125 3.36878 3.04906 3.53722 2.99578C3.69019 2.95281 3.84316 2.93047 3.98925 2.93047L3.99785 2.92703ZM18.0091 2.92703C18.1569 2.92703 18.3082 2.94937 18.4611 2.99234C18.6296 3.04562 18.7808 3.11953 18.9166 3.21578C18.9493 3.23812 18.9819 3.26219 19.0214 3.29656L19.0352 3.30859L19.0455 3.31891L19.0627 3.33437C19.073 3.34469 19.0816 3.35156 19.0902 3.35844C19.0936 3.36188 19.0971 3.36359 19.1039 3.37219C19.1864 3.45297 19.2363 3.51484 19.2896 3.58875C19.5043 3.9021 19.6067 4.27889 19.58 4.65781V4.66984L19.5766 4.69391L19.5732 4.72141L19.5628 4.79016C19.5628 4.79359 19.5628 4.79531 19.5611 4.79875C19.5594 4.8125 19.5543 4.82969 19.5525 4.84172L19.5302 4.93797C19.5044 5.03078 19.4752 5.115 19.4339 5.20953C19.3583 5.37625 19.2552 5.54125 19.128 5.70109C18.908 5.97266 18.6278 6.21328 18.2721 6.435C17.9472 6.63437 17.6155 6.80453 17.3164 6.95578C17.1583 7.03656 17.0191 7.11047 16.8953 7.18266C17.0294 7.09328 17.1669 7.01078 17.301 6.93C17.4041 6.86641 17.5089 6.80797 17.6103 6.74781C17.8149 6.62922 18.028 6.50719 18.2291 6.36969C18.5625 6.14109 18.8358 5.89359 19.0438 5.63406C19.1641 5.48109 19.2603 5.32297 19.3291 5.16141C19.3635 5.08234 19.3944 4.99125 19.415 4.91219C19.415 4.90875 19.4168 4.90531 19.4168 4.90359L19.4219 4.88469C19.4288 4.85719 19.4391 4.82281 19.4443 4.77297L19.4528 4.70937L19.458 4.675C19.4666 4.60797 19.4632 4.54094 19.4477 4.47734C19.4443 4.18344 19.3566 3.89125 19.1985 3.65406C19.1727 3.61625 19.1297 3.54922 19.0936 3.50281C19.073 3.47531 19.0524 3.45297 19.0266 3.42547C19.0111 3.40656 18.9939 3.38766 18.975 3.37047L18.9716 3.36703C18.9389 3.33609 18.9097 3.31031 18.8788 3.28625C18.7619 3.19172 18.6227 3.11266 18.4611 3.04906C18.3099 2.98891 18.1586 2.95281 18.0091 2.93906C18.0005 2.93906 17.9902 2.93734 17.9816 2.93734H17.9953L18.0091 2.92703ZM11 0.6875C8.7605 0.6875 6.52097 0.996875 5.20956 1.61562C5.20956 1.61562 5.22503 2.13469 5.3041 2.94594C5.11847 2.74141 4.86753 2.59016 4.59081 2.49906C4.54097 2.48359 4.50488 2.47156 4.443 2.45953C4.40109 2.44911 4.35863 2.44108 4.31581 2.43547C4.20066 2.41656 4.11472 2.41313 4.00988 2.40969H3.99097C3.79503 2.40969 3.59222 2.43891 3.39113 2.49563C3.18488 2.55922 2.98035 2.65375 2.79128 2.78781C2.74316 2.82047 2.69675 2.85656 2.65206 2.89438L2.62628 2.915L2.60738 2.93219L2.58331 2.95453C2.56613 2.97172 2.55581 2.97859 2.53175 3.00266C2.43035 3.10406 2.3616 3.18656 2.28941 3.28625C2.01785 3.67984 1.8666 4.17313 1.90613 4.68875L1.90785 4.71281L1.913 4.7575L1.92847 4.86063C1.93019 4.87953 1.93878 4.91734 1.94566 4.95172L1.96972 5.05656C2.0041 5.18719 2.04535 5.29719 2.09519 5.41234C2.19488 5.6375 2.32722 5.83859 2.4716 6.01734C2.76206 6.37656 3.10581 6.64641 3.45816 6.86641C3.80363 7.07953 4.14394 7.25141 4.44988 7.40781C4.75753 7.56422 5.03081 7.71719 5.25941 7.88391C5.4966 8.05062 5.66847 8.21562 5.75269 8.36859C5.77503 8.40984 5.7905 8.43562 5.80597 8.48547C5.81456 8.50437 5.82316 8.54219 5.82831 8.57484C5.83863 8.64187 5.83003 8.70375 5.81628 8.74844C5.7991 8.79484 5.79222 8.82062 5.75613 8.85328C5.75956 8.85156 5.76128 8.85156 5.76128 8.85156C5.76472 8.85156 5.74581 8.86531 5.73722 8.87047C5.72347 8.87734 5.70972 8.88422 5.69425 8.88938C5.66331 8.89797 5.63581 8.90141 5.61519 8.90141C5.59628 8.90141 5.58081 8.89797 5.57394 8.89625C5.55847 8.89281 5.5516 8.88766 5.54988 8.88766L5.40378 8.81031C5.3591 8.78625 5.30753 8.77422 5.25769 8.77422C5.20054 8.77371 5.14437 8.78903 5.09539 8.81848C5.04641 8.84794 5.00655 8.89038 4.98021 8.9411C4.95387 8.99181 4.94209 9.04884 4.94617 9.10584C4.95024 9.16285 4.97002 9.21761 5.00331 9.26406L5.03941 9.31563C5.06347 9.35 5.10472 9.39813 5.16831 9.44797C5.28175 9.5425 5.47425 9.63188 5.71316 9.63188C5.73378 9.63188 5.75613 9.63188 5.77847 9.63016C5.8455 9.625 5.91597 9.61297 5.98988 9.59062C6.02597 9.57859 6.06378 9.56656 6.09988 9.54938C6.11878 9.54078 6.13597 9.53391 6.15831 9.52188C6.18066 9.50813 6.20472 9.49438 6.22706 9.48063C6.35425 9.39984 6.49003 9.25375 6.56738 9.09219C6.60175 9.02172 6.58628 8.94781 6.60691 8.87219C7.17581 10.2386 7.9905 11.4417 9.02175 12.0914V12.5297C9.02175 12.8098 9.25722 13.145 9.53566 13.145H9.80894C9.78488 13.8325 9.63878 15.0425 8.96503 15.3381C7.98019 15.7712 7.85988 16.0686 7.78769 16.5722C7.78597 16.5808 7.78941 16.5808 7.78941 16.5808H6.10159V20.1902H4.7266V21.3933H17.1016V20.1902H15.7266V16.5808H14.2089C14.2089 16.5808 14.2124 16.5584 14.2107 16.5516C14.1385 16.0463 13.9993 15.773 13.0144 15.3398C12.3389 15.0442 12.1997 13.8308 12.1791 13.1433H12.461C12.7411 13.1433 12.803 12.8081 12.803 12.528V12.0897C14.0061 11.4383 14.7366 10.2369 15.3038 8.87047C15.3244 8.94609 15.3725 9.02 15.4069 9.09047C15.486 9.25203 15.6321 9.39813 15.7593 9.47891C15.7816 9.49438 15.8091 9.50813 15.8332 9.52016C15.8555 9.53219 15.8744 9.53906 15.8933 9.54766C15.9311 9.56656 15.9689 9.57687 16.005 9.58891C16.0772 9.61125 16.1494 9.62328 16.2164 9.62844C16.2388 9.63016 16.2611 9.63016 16.2818 9.63016C16.5207 9.63016 16.7132 9.54078 16.8266 9.44625C16.8885 9.39641 16.9314 9.34828 16.9555 9.31391L16.9916 9.26234C17.0569 9.16953 17.0689 9.04234 17.0122 8.93578C16.9733 8.86299 16.9072 8.80856 16.8283 8.7844C16.7494 8.76025 16.6641 8.76833 16.5911 8.80688L16.4468 8.88422C16.445 8.88422 16.4382 8.88766 16.4227 8.89281C16.4158 8.89453 16.4021 8.89797 16.3814 8.89797C16.3608 8.89797 16.335 8.89453 16.3024 8.88594C16.2869 8.8825 16.2732 8.87391 16.2594 8.86703C16.2525 8.86187 16.2319 8.84812 16.2353 8.84812C16.2353 8.84812 16.2371 8.84813 16.2405 8.84984C16.2044 8.81719 16.1975 8.79141 16.1803 8.745C16.1644 8.68859 16.1603 8.62948 16.1683 8.57141C16.1718 8.53875 16.1821 8.50094 16.1907 8.48203C16.2061 8.43219 16.2216 8.40641 16.2439 8.36516C16.3282 8.21219 16.5 8.04719 16.7372 7.88047C16.9658 7.71375 17.2391 7.56078 17.5468 7.40438C17.8527 7.24969 18.193 7.07609 18.5385 6.86297C18.8908 6.64297 19.2346 6.37313 19.525 6.01391C19.6694 5.83516 19.8 5.63406 19.9014 5.40891C19.9513 5.29375 19.9925 5.18375 20.0269 5.05312L20.051 4.94828C20.0578 4.91391 20.0664 4.87437 20.0682 4.85719L20.0836 4.75406L20.0888 4.70937L20.0905 4.68531C20.1283 4.16969 19.9788 3.67813 19.7072 3.28281C19.635 3.18313 19.5663 3.09891 19.4649 2.99922C19.4408 2.97516 19.4305 2.96656 19.4133 2.95109L19.3893 2.92875L19.3703 2.91156L19.3446 2.89094C19.2999 2.85312 19.2535 2.81703 19.2053 2.78438C19.0163 2.65031 18.8118 2.55578 18.6055 2.49219C18.4044 2.43547 18.2016 2.40625 18.0057 2.40625H17.9868C17.8819 2.40797 17.7943 2.41312 17.6808 2.43203C17.6189 2.44062 17.5897 2.44922 17.5536 2.45609C17.4918 2.46812 17.4539 2.48016 17.4058 2.49563C17.1291 2.58672 16.8782 2.73797 16.6925 2.9425C16.7716 2.13125 16.7871 1.61219 16.7871 1.61219C15.4791 0.996875 13.2396 0.6875 11 0.6875ZM17.7307 3.44609C17.7599 3.44266 17.796 3.4375 17.8132 3.4375H17.8475C17.993 3.4365 18.1372 3.46394 18.2721 3.51828C18.4006 3.5668 18.5185 3.63976 18.6193 3.73312L18.6296 3.74344L18.6158 3.73141L18.6193 3.73484L18.621 3.73828L18.6433 3.76062C18.6553 3.77437 18.676 3.795 18.6811 3.80359C18.7 3.82766 18.7361 3.88266 18.7653 3.92734C18.8908 4.11641 18.9475 4.36219 18.9252 4.58734L18.9269 4.58563L18.9458 4.59422L18.9303 4.69734C18.9269 4.72656 18.9235 4.73172 18.92 4.74203L18.9132 4.77469C18.8994 4.82625 18.8788 4.89156 18.853 4.95C18.8014 5.07031 18.7275 5.19063 18.6364 5.30578C18.4525 5.53609 18.205 5.75094 17.9352 5.93656C17.655 6.12734 17.3457 6.29234 17.0328 6.48141C16.7218 6.66703 16.4055 6.86641 16.1236 7.10359C16.0446 7.17234 15.9638 7.24453 15.8864 7.32187C16.1924 6.26828 16.3952 5.20438 16.5293 4.28484C16.6049 4.40859 16.6943 4.50141 16.7733 4.55813C16.8352 4.60453 16.9143 4.64406 16.9228 4.64406C16.9452 4.65266 16.9555 4.65609 16.9555 4.65609C17.0053 4.68187 17.0569 4.69391 17.1102 4.69391C17.2288 4.69391 17.3439 4.63031 17.4041 4.51688C17.49 4.35531 17.4264 4.15422 17.2649 4.06828C17.2597 4.06484 17.1961 4.02359 17.2185 4.02187C17.2047 3.99609 17.1841 3.95141 17.1807 3.87234C17.1789 3.83453 17.1875 3.78984 17.1996 3.75031C17.2082 3.73141 17.215 3.7125 17.2271 3.69875L17.2305 3.69359L17.2322 3.69016C17.2339 3.68844 17.2339 3.68672 17.2339 3.68672L17.2253 3.70391L17.2288 3.69875L17.2511 3.66266C17.2666 3.63687 17.2632 3.65406 17.2718 3.64203C17.3439 3.56641 17.4814 3.48047 17.6636 3.45125C17.6877 3.45125 17.7203 3.44609 17.7307 3.44609ZM4.18003 3.4375H4.18691C4.2041 3.4375 4.24019 3.44266 4.26941 3.44609C4.27972 3.44609 4.31066 3.45125 4.32956 3.45297C4.51175 3.48219 4.65097 3.56813 4.72144 3.64375C4.73175 3.65578 4.7266 3.64031 4.74206 3.66437L4.76441 3.70047L4.76785 3.70562L4.75925 3.68844C4.75925 3.68844 4.75925 3.69016 4.76097 3.69187L4.76269 3.69531L4.76613 3.70047C4.77816 3.71422 4.78503 3.73312 4.79363 3.75203C4.80566 3.79156 4.81425 3.83625 4.81253 3.87406C4.8091 3.95141 4.78847 3.99781 4.77472 4.02359C4.79878 4.02531 4.73519 4.06656 4.72831 4.07C4.56675 4.15594 4.50488 4.35531 4.5891 4.51859C4.64925 4.63203 4.76441 4.69562 4.883 4.69562C4.93456 4.69562 4.98785 4.68359 5.03769 4.65781C5.03769 4.65781 5.048 4.65438 5.07035 4.64578C5.07894 4.64578 5.158 4.60625 5.21988 4.55984C5.29894 4.50484 5.39003 4.41031 5.46394 4.28656C5.598 5.20609 5.80081 6.26828 6.10675 7.32359C6.03065 7.24768 5.95152 7.17486 5.86956 7.10531C5.58769 6.86812 5.27144 6.66875 4.96035 6.48313C4.64753 6.29406 4.33816 6.13078 4.058 5.93828C3.78816 5.75266 3.54066 5.53953 3.35675 5.3075C3.26566 5.19234 3.19175 5.07203 3.14019 4.95172C3.11659 4.89456 3.0965 4.83601 3.08003 4.77641L3.0766 4.74375C3.07316 4.73344 3.06972 4.72656 3.06628 4.69906L3.05597 4.63031L3.05253 4.60453V4.59594C3.02847 4.36906 3.0955 4.11813 3.22269 3.92906C3.25191 3.88266 3.29316 3.82937 3.31206 3.80531C3.31722 3.79844 3.33956 3.77609 3.35331 3.76234L3.3791 3.73656C3.398 3.71766 3.41863 3.70047 3.44097 3.68328C3.52519 3.61453 3.62488 3.56125 3.72628 3.52172C3.82769 3.48219 3.93425 3.45469 4.03566 3.44609C4.07347 3.43922 4.11988 3.4375 4.15253 3.4375H4.18003Z" fill="#424242"/>
</g>
<defs>
<radialGradient id="paint0_radial" cx="0" cy="0" r="1" gradientUnits="userSpaceOnUse" gradientTransform="translate(2.63531 3.83848) scale(5.85389)">
<stop stop-color="#C28605"/>
<stop offset="0.133" stop-color="#CB991C"/>
<stop offset="0.374" stop-color="#D9B73F"/>
<stop offset="0.572" stop-color="#E2C955"/>
<stop offset="0.699" stop-color="#E5D05D"/>
</radialGradient>
<radialGradient id="paint1_radial" cx="0" cy="0" r="1" gradientUnits="userSpaceOnUse" gradientTransform="translate(17.7031 6.02405) scale(3.06677)">
<stop stop-color="#C28605"/>
<stop offset="0.133" stop-color="#CB991C"/>
<stop offset="0.374" stop-color="#D9B73F"/>
<stop offset="0.572" stop-color="#E2C955"/>
<stop offset="0.699" stop-color="#E5D05D"/>
</radialGradient>
<linearGradient id="paint2_linear" x1="7.78818" y1="14.2123" x2="14.2118" y2="14.2123" gradientUnits="userSpaceOnUse">
<stop offset="0.076" stop-color="#DA9A14"/>
<stop offset="0.112" stop-color="#DB9E19"/>
<stop offset="0.153" stop-color="#DDA827"/>
<stop offset="0.196" stop-color="#E0B93E"/>
<stop offset="0.24" stop-color="#E5D05D"/>
<stop offset="0.319" stop-color="#E4CB55"/>
<stop offset="0.441" stop-color="#E1BD3F"/>
<stop offset="0.591" stop-color="#DCA61C"/>
<stop offset="0.684" stop-color="#D99502"/>
<stop offset="1" stop-color="#C28605"/>
</linearGradient>
<radialGradient id="paint3_radial" cx="0" cy="0" r="1" gradientUnits="userSpaceOnUse" gradientTransform="translate(8.42182 4.55469) scale(11.187)">
<stop offset="0.066" stop-color="#FFF48A"/>
<stop offset="0.141" stop-color="#FCEE82"/>
<stop offset="0.258" stop-color="#F4DD6C"/>
<stop offset="0.401" stop-color="#E8C248"/>
<stop offset="0.564" stop-color="#D69D17"/>
<stop offset="0.627" stop-color="#CF8D02"/>
<stop offset="1" stop-color="#C28605"/>
</radialGradient>
<linearGradient id="paint4_linear" x1="8.19362" y1="16.2577" x2="13.178" y2="20.3827" gradientUnits="userSpaceOnUse">
<stop stop-color="#C28605"/>
<stop offset="0.104" stop-color="#CB991C"/>
<stop offset="0.292" stop-color="#D9B73F"/>
<stop offset="0.447" stop-color="#E2C955"/>
<stop offset="0.546" stop-color="#E5D05D"/>
<stop offset="0.667" stop-color="#E0B93E"/>
<stop offset="0.788" stop-color="#DDA827"/>
<stop offset="0.902" stop-color="#DB9E19"/>
<stop offset="1" stop-color="#DA9A14"/>
</linearGradient>
<clipPath id="clip0">
<rect width="22" height="22" fill="white"/>
</clipPath>
</defs>
</svg>
