<svg width="14" height="16" viewBox="0 0 14 16" fill="none" xmlns="http://www.w3.org/2000/svg">
<path d="M13 6H11.3C11.1 6 10.9 5.9 10.7 5.8L9.4 4.5C9.2 4.2 8.8 4 8.3 4H8C9.1 4 10 3.1 10 2C10 0.9 9.1 0 8 0C6.9 0 6 0.9 6 2C6 2.7 6.4 3.4 7 3.7L6.8 4H4.8C3.7 4 2.5 4.5 1.8 5.5L1.2 6.3C0.8 6.7 1 7.3 1.4 7.6C1.8 7.8 2.3 7.7 2.6 7.3L3.1 6.6C3.4 6.2 3.8 6 4.3 6H5.1L4.4 7.6C4.1 8.2 4 8.8 4 9.5V11.5C4 11.8 3.8 12 3.5 12H1C0.4 12 0 12.4 0 13C0 13.6 0.4 14 1 14H4.5C5.3 14 6 13.3 6 12.5V10L9.8 14.5C10.4 15.4 11.5 16 12.6 16H13.5L8.1 9.3C7.8 8.9 7.9 8.5 8.1 8L8.7 6.5L9.4 7.3C9.8 7.7 10.4 8 11 8H13C13.6 8 14 7.6 14 7C14 6.4 13.6 6 13 6Z" fill="white"/>
</svg>
