<svg width="300" height="300" viewBox="0 0 300 300" fill="none" xmlns="http://www.w3.org/2000/svg">
<path d="M149.734 67.805C149.734 67.805 155.127 102.489 213.267 103.446C264.9 104.296 248.49 165.709 230.162 185.019C206.42 210.035 159.89 203.491 157.448 232.607C155.006 261.724 89.4098 250.42 90.527 206.52C91.9169 151.91 62.0042 168.516 46.8609 153.908C35.9925 143.424 39.7283 94.8942 74.1773 89.3382C103.165 84.663 101.663 72.3813 103.967 63.2892C107.291 50.1765 140.896 38.2983 149.734 67.805Z" fill="#5E5F5F"/>
<path d="M204.428 191.269C204.431 192.15 204.26 193.023 203.925 193.838C203.59 194.653 203.097 195.394 202.475 196.018C201.853 196.642 201.114 197.138 200.301 197.476C199.487 197.814 198.614 197.988 197.733 197.989L90.3494 198.207C89.4684 198.209 88.5956 198.037 87.7809 197.702C86.9662 197.367 86.2256 196.874 85.6015 196.252C84.9774 195.631 84.482 194.892 84.1436 194.078C83.8052 193.265 83.6305 192.393 83.6294 191.512L83.4785 116.008L142.917 78.6916C143.183 78.5238 143.491 78.434 143.805 78.4325C144.12 78.4311 144.428 78.5179 144.696 78.6832L202.884 114.9L204.277 115.764V116.972L204.428 191.269Z" fill="#242526"/>
<path d="M195.667 85.1902H91.4505C91.202 85.1902 91.0005 85.3917 91.0005 85.6402V197.158C91.0005 197.406 91.202 197.608 91.4505 197.608H195.667C195.915 197.608 196.117 197.406 196.117 197.158V85.6402C196.117 85.3917 195.915 85.1902 195.667 85.1902Z" fill="#E4E6EA"/>
<path d="M197.626 197.882L144.326 157.243C144.283 157.21 144.249 157.168 144.225 157.119C144.202 157.07 144.191 157.017 144.192 156.963C144.193 156.909 144.208 156.856 144.233 156.809C144.259 156.761 144.296 156.721 144.34 156.69L203.74 116.092C203.792 116.057 203.851 116.036 203.913 116.033C203.975 116.029 204.037 116.043 204.092 116.072C204.147 116.1 204.192 116.144 204.225 116.197C204.257 116.25 204.274 116.311 204.274 116.373L204.424 191.232C204.427 192.991 203.74 194.68 202.511 195.938C201.282 197.195 199.608 197.92 197.85 197.956C197.769 197.957 197.69 197.931 197.626 197.882V197.882Z" fill="#37393E"/>
<path d="M90.4399 198.096L143.577 157.245C143.62 157.212 143.654 157.169 143.677 157.12C143.7 157.072 143.711 157.018 143.71 156.964C143.708 156.91 143.694 156.857 143.668 156.81C143.642 156.763 143.605 156.722 143.56 156.692L83.9991 116.331C83.9478 116.296 83.888 116.276 83.8261 116.273C83.7642 116.269 83.7026 116.283 83.6478 116.312C83.5931 116.341 83.5473 116.385 83.5154 116.438C83.4835 116.491 83.4667 116.552 83.4668 116.614L83.6168 191.473C83.6203 193.232 84.3138 194.919 85.548 196.171C86.7822 197.423 88.4587 198.141 90.2168 198.171C90.2974 198.171 90.376 198.145 90.4399 198.096Z" fill="#37393E"/>
<path d="M197.725 197.957L90.3417 198.172C88.7172 198.17 87.148 197.581 85.9239 196.513C84.6998 195.445 83.9034 193.971 83.6817 192.361C83.6452 192.087 83.6769 191.808 83.7741 191.549C83.8713 191.289 84.0309 191.058 84.2388 190.875L142.806 139.06C143.112 138.79 143.506 138.64 143.915 138.639C144.323 138.638 144.718 138.786 145.025 139.056L203.798 190.636C204.007 190.818 204.168 191.049 204.266 191.308C204.364 191.566 204.397 191.846 204.361 192.12C204.146 193.73 203.356 195.208 202.136 196.281C200.916 197.354 199.35 197.949 197.725 197.957V197.957Z" fill="#242526"/>
<path d="M117.676 112.875C119.761 112.875 121.451 110.622 121.451 107.842C121.451 105.062 119.761 102.808 117.676 102.808C115.591 102.808 113.901 105.062 113.901 107.842C113.901 110.622 115.591 112.875 117.676 112.875Z" fill="#1E88E5"/>
<path d="M170.53 112.875C172.615 112.875 174.305 110.622 174.305 107.842C174.305 105.062 172.615 102.808 170.53 102.808C168.445 102.808 166.754 105.062 166.754 107.842C166.754 110.622 168.445 112.875 170.53 112.875Z" fill="#1E88E5"/>
<path d="M158.366 129.565C158.238 129.566 158.113 129.533 158.002 129.471C157.89 129.41 157.796 129.321 157.729 129.213C157.689 129.15 153.583 122.808 144.041 122.013C140.069 121.682 136.3 122.788 132.842 125.301C131.3 126.408 129.93 127.738 128.777 129.246C128.662 129.408 128.488 129.517 128.293 129.551C128.098 129.585 127.897 129.54 127.735 129.426C127.573 129.312 127.462 129.139 127.427 128.944C127.392 128.749 127.436 128.548 127.549 128.385C127.611 128.295 129.12 126.162 131.915 124.12C135.631 121.405 139.867 120.16 144.165 120.518C154.488 121.378 158.821 128.131 159 128.418C159.071 128.531 159.11 128.662 159.114 128.796C159.118 128.929 159.085 129.062 159.02 129.179C158.956 129.296 158.861 129.393 158.745 129.461C158.63 129.529 158.499 129.565 158.365 129.566L158.366 129.565Z" fill="#1E88E5"/>
</svg>
