<svg width="32" height="32" viewBox="0 0 32 32" fill="none" xmlns="http://www.w3.org/2000/svg">
<path d="M32 16C32 24.8366 24.8366 32 16 32C7.16344 32 0 24.8366 0 16C0 7.16344 7.16344 0 16 0C24.8366 0 32 7.16344 32 16Z" fill="#4EC2F7"/>
<path fill-rule="evenodd" clip-rule="evenodd" d="M24.9999 18.0999C24.9999 18.4182 24.8735 18.7234 24.6485 18.9485C24.4234 19.1735 24.1182 19.2999 23.7999 19.2999H9.19999C8.88174 19.2999 8.57651 19.1735 8.35147 18.9485C8.12643 18.7234 8 18.4182 8 18.0999V7.69999C8 7.38174 8.12643 7.07651 8.35147 6.85147C8.57651 6.62643 8.88174 6.5 9.19999 6.5H23.7999C24.1182 6.5 24.4234 6.62643 24.6485 6.85147C24.8735 7.07651 24.9999 7.38174 24.9999 7.69999V18.0999Z" fill="white"/>
<path fill-rule="evenodd" clip-rule="evenodd" d="M21.9999 21.1C21.9999 21.7446 21.4519 22.3 20.7999 22.3H18.1999C17.9773 22.3 17.7999 22.4508 17.7999 22.7V26.3C17.7999 26.4476 17.7493 26.5 17.6165 26.5C17.5701 26.5 17.5223 26.4692 17.4435 26.4086L12.6502 22.7C12.0502 22.3 11.4244 22.2988 11.4244 22.2988L6.18039 22.2984C5.5284 22.2984 5 21.7758 5 21.1312V10.9063C5 10.2621 5.5792 9.69689 6.19999 9.70009H20.7999C21.5123 9.70009 21.9999 10.2557 21.9999 10.9001V21.1Z" fill="#1E88E5"/>
</svg>
