<svg width="29" height="30" viewBox="0 0 29 30" fill="none" xmlns="http://www.w3.org/2000/svg">
<mask id="path-1-inside-1" fill="white">
<path fill-rule="evenodd" clip-rule="evenodd" d="M0.519237 14.9998C0.51903 15.1641 0.551254 15.3269 0.614065 15.4789C0.676875 15.6308 0.769039 15.7688 0.885275 15.885C1.00151 16.0013 1.13954 16.0934 1.29145 16.1562C1.44336 16.2191 1.60617 16.2513 1.77055 16.2511L26.514 16.2511C26.8459 16.2511 27.1642 16.1192 27.3988 15.8846C27.6335 15.6499 27.7653 15.3316 27.7653 14.9998C27.7653 14.6679 27.6335 14.3496 27.3988 14.1149C27.1642 13.8803 26.8459 13.7484 26.514 13.7484L1.77055 13.7484C1.60617 13.7482 1.44336 13.7805 1.29145 13.8433C1.13954 13.9061 1.00151 13.9982 0.885275 14.1145C0.769039 14.2307 0.676875 14.3687 0.614065 14.5207C0.551254 14.6726 0.51903 14.8354 0.519237 14.9998Z"/>
</mask>
<path fill-rule="evenodd" clip-rule="evenodd" d="M0.519237 14.9998C0.51903 15.1641 0.551254 15.3269 0.614065 15.4789C0.676875 15.6308 0.769039 15.7688 0.885275 15.885C1.00151 16.0013 1.13954 16.0934 1.29145 16.1562C1.44336 16.2191 1.60617 16.2513 1.77055 16.2511L26.514 16.2511C26.8459 16.2511 27.1642 16.1192 27.3988 15.8846C27.6335 15.6499 27.7653 15.3316 27.7653 14.9998C27.7653 14.6679 27.6335 14.3496 27.3988 14.1149C27.1642 13.8803 26.8459 13.7484 26.514 13.7484L1.77055 13.7484C1.60617 13.7482 1.44336 13.7805 1.29145 13.8433C1.13954 13.9061 1.00151 13.9982 0.885275 14.1145C0.769039 14.2307 0.676875 14.3687 0.614065 14.5207C0.551254 14.6726 0.51903 14.8354 0.519237 14.9998Z" fill="white"/>
<path d="M0.519237 14.9998L3.51924 15.0035L3.51923 14.996L0.519237 14.9998ZM1.77055 16.2511L1.77055 13.2511L1.76676 13.2511L1.77055 16.2511ZM26.514 16.2511V19.2511V16.2511ZM27.3988 14.1149L29.5202 11.9936L27.3988 14.1149ZM26.514 13.7484V10.7484V13.7484ZM1.77055 13.7484L1.76676 16.7484L1.77055 16.7484L1.77055 13.7484ZM-2.48076 14.996C-2.48147 15.5549 -2.37189 16.1086 -2.1583 16.6252L3.38643 14.3326C3.4744 14.5453 3.51953 14.7733 3.51923 15.0035L-2.48076 14.996ZM-2.1583 16.6252C-1.94471 17.1417 -1.6313 17.6111 -1.23604 18.0064L3.0066 13.7637C3.16938 13.9265 3.29846 14.1198 3.38643 14.3326L-2.1583 16.6252ZM-1.23604 18.0064C-0.840786 18.4016 -0.371428 18.715 0.14515 18.9286L2.43775 13.3839C2.6505 13.4718 2.84381 13.6009 3.0066 13.7637L-1.23604 18.0064ZM0.14515 18.9286C0.661724 19.1422 1.21536 19.2518 1.77434 19.2511L1.76676 13.2511C1.99698 13.2508 2.22499 13.2959 2.43775 13.3839L0.14515 18.9286ZM1.77055 19.2511L26.514 19.2511V13.2511L1.77055 13.2511L1.77055 19.2511ZM26.514 19.2511C27.6416 19.2511 28.7229 18.8032 29.5202 18.0059L25.2775 13.7632C25.6055 13.4353 26.0502 13.2511 26.514 13.2511V19.2511ZM29.5202 18.0059C30.3174 17.2086 30.7653 16.1273 30.7653 14.9998H24.7653C24.7653 14.536 24.9496 14.0912 25.2775 13.7632L29.5202 18.0059ZM30.7653 14.9998C30.7653 13.8722 30.3174 12.7909 29.5202 11.9936L25.2775 16.2363C24.9496 15.9083 24.7653 15.4636 24.7653 14.9998H30.7653ZM29.5202 11.9936C28.7229 11.1964 27.6416 10.7484 26.514 10.7484V16.7484C26.0502 16.7484 25.6055 16.5642 25.2775 16.2363L29.5202 11.9936ZM26.514 10.7484L1.77055 10.7484L1.77055 16.7484L26.514 16.7484V10.7484ZM1.77434 10.7484C1.21536 10.7477 0.661724 10.8573 0.14515 11.0709L2.43775 16.6156C2.22499 16.7036 1.99698 16.7487 1.76676 16.7484L1.77434 10.7484ZM0.14515 11.0709C-0.371428 11.2845 -0.840786 11.5979 -1.23604 11.9932L3.0066 16.2358C2.84381 16.3986 2.6505 16.5277 2.43775 16.6156L0.14515 11.0709ZM-1.23604 11.9932C-1.6313 12.3884 -1.94471 12.8578 -2.1583 13.3744L3.38643 15.667C3.29846 15.8797 3.16938 16.073 3.0066 16.2358L-1.23604 11.9932ZM-2.1583 13.3744C-2.37189 13.8909 -2.48147 14.4446 -2.48076 15.0035L3.51923 14.996C3.51953 15.2262 3.4744 15.4542 3.38643 15.667L-2.1583 13.3744Z" fill="white" mask="url(#path-1-inside-1)"/>
</svg>
