<svg width="15" height="18" viewBox="0 0 15 18" fill="none" xmlns="http://www.w3.org/2000/svg">
<path fill-rule="evenodd" clip-rule="evenodd" d="M12.443 10.4819C12.6298 9.93253 12.7249 9.35618 12.7243 8.77595V7.71835C12.7243 7.5781 12.6686 7.4436 12.5694 7.34443C12.4703 7.24526 12.3358 7.18955 12.1955 7.18955C12.0553 7.18955 11.9208 7.24526 11.8216 7.34443C11.7224 7.4436 11.6667 7.5781 11.6667 7.71835V8.77595C11.6667 9.06573 11.6382 9.34705 11.5821 9.62097L12.443 10.4819ZM9.77572 12.3009C9.13834 12.724 8.39818 12.9663 7.63403 13.002C6.86987 13.0378 6.11032 12.8657 5.43622 12.504C4.76213 12.1423 4.19872 11.6046 3.80598 10.9481C3.41323 10.2916 3.20585 9.54094 3.2059 8.77595V7.71835C3.2059 7.5781 3.15019 7.4436 3.05102 7.34443C2.95185 7.24526 2.81735 7.18955 2.6771 7.18955C2.53685 7.18955 2.40235 7.24526 2.30318 7.34443C2.20401 7.4436 2.1483 7.5781 2.1483 7.71835V8.77595C2.14828 10.0869 2.6352 11.3511 3.51459 12.3233C4.39399 13.2955 5.60315 13.9064 6.90751 14.0375V16.1792H3.7347C3.59446 16.1792 3.45995 16.2349 3.36078 16.334C3.26162 16.4332 3.2059 16.5677 3.2059 16.708C3.2059 16.8482 3.26162 16.9827 3.36078 17.0819C3.45995 17.181 3.59446 17.2368 3.7347 17.2368H11.1379C11.2782 17.2368 11.4127 17.181 11.5118 17.0819C11.611 16.9827 11.6667 16.8482 11.6667 16.708C11.6667 16.5677 11.611 16.4332 11.5118 16.334C11.4127 16.2349 11.2782 16.1792 11.1379 16.1792H7.96511V14.0375C8.89316 13.9457 9.78012 13.6088 10.5351 13.0613L9.77572 12.3009ZM10.6091 8.64904V3.48794C10.6097 2.73551 10.3428 2.00736 9.85617 1.43349C9.36952 0.859622 8.69477 0.477378 7.95235 0.354998C7.20994 0.232619 6.4482 0.378068 5.80311 0.765383C5.15802 1.1527 4.67157 1.75667 4.4306 2.46947L10.6091 8.64798V8.64904ZM4.2635 6.78766L9.0079 11.5321C8.52535 11.8072 7.97902 11.9508 7.42353 11.9486C6.86805 11.9464 6.32289 11.7983 5.84257 11.5193C5.36225 11.2403 4.9636 10.84 4.68649 10.3586C4.40938 9.87718 4.26352 9.33144 4.2635 8.77595V6.78871V6.78766ZM13.4075 14.4383L0.716309 1.74713L1.46509 0.998346L14.1563 13.6896L13.4075 14.4373V14.4383Z" fill="#A61515"/>
</svg>
