<svg width="48" height="48" viewBox="0 0 48 48" fill="none" xmlns="http://www.w3.org/2000/svg">
<path d="M23.5 19.5L30.1667 22.8333V36.1667H16.8333V22.8333L23.5 19.5ZM23.5 19.5V12V19.5ZM11 36.1667H36H11ZM13.5 36.1667V26.1667H16.8333L13.5 36.1667ZM33.5 36.1667V26.1667H30.1667L33.5 36.1667ZM21.8333 36.1667V31.1667H25.1667V36.1667H21.8333ZM23.5 12.8333H28.5V16.1667H23.5V12.8333ZM23.5 27.8333C23.058 27.8333 22.634 27.6577 22.3215 27.3452C22.0089 27.0326 21.8333 26.6087 21.8333 26.1667C21.8333 25.7246 22.0089 25.3007 22.3215 24.9882C22.634 24.6756 23.058 24.5 23.5 24.5C23.942 24.5 24.366 24.6756 24.6785 24.9882C24.9911 25.3007 25.1667 25.7246 25.1667 26.1667C25.1667 26.6087 24.9911 27.0326 24.6785 27.3452C24.366 27.6577 23.942 27.8333 23.5 27.8333Z" stroke="white"/>
</svg>
