<svg width="22" height="16" viewBox="0 0 22 16" fill="none" xmlns="http://www.w3.org/2000/svg">
<path d="M1.46667 11.7333V1.46667C1.4671 1.07782 1.62177 0.705018 1.89673 0.430059C2.17168 0.1551 2.54448 0.00043672 2.93333 0H19.0667C19.4555 0.00043672 19.8283 0.1551 20.1033 0.430059C20.3782 0.705018 20.5329 1.07782 20.5333 1.46667V11.7333C20.5333 11.9278 20.4561 12.1144 20.3185 12.2519C20.181 12.3894 19.9945 12.4667 19.8 12.4667C19.6055 12.4667 19.419 12.3894 19.2815 12.2519C19.1439 12.1144 19.0667 11.9278 19.0667 11.7333V1.46667H2.93333V11.7333C2.93333 11.9278 2.85607 12.1144 2.71854 12.2519C2.58102 12.3894 2.39449 12.4667 2.2 12.4667C2.00551 12.4667 1.81898 12.3894 1.68146 12.2519C1.54393 12.1144 1.46667 11.9278 1.46667 11.7333ZM22 14.6667C22 14.8612 21.9227 15.0477 21.7852 15.1852C21.6477 15.3227 21.4612 15.4 21.2667 15.4H0.733333C0.538841 15.4 0.352315 15.3227 0.214788 15.1852C0.0772617 15.0477 0 14.8612 0 14.6667C0 14.4722 0.0772617 14.2856 0.214788 14.1481C0.352315 14.0106 0.538841 13.9333 0.733333 13.9333H9.53333V11.7333C9.53333 11.5388 9.6106 11.3523 9.74812 11.2148C9.88565 11.0773 10.0722 11 10.2667 11H16.1333C16.3278 11 16.5144 11.0773 16.6519 11.2148C16.7894 11.3523 16.8667 11.5388 16.8667 11.7333V13.9333H21.2667C21.4612 13.9333 21.6477 14.0106 21.7852 14.1481C21.9227 14.2856 22 14.4722 22 14.6667ZM11 13.9333H15.4V12.4667H11V13.9333Z" fill="white"/>
</svg>
