<svg width="40" height="26" viewBox="0 0 40 26" fill="none" xmlns="http://www.w3.org/2000/svg">
<rect x="1.73914" width="36.5217" height="25.6522" fill="#6B3605"/>
<rect x="4.78257" y="3.47829" width="30.8696" height="22.1739" fill="#165524"/>
<path d="M0 25.6521C0 24.2114 1.16795 23.0434 2.6087 23.0434H37.3913C38.832 23.0434 40 24.2114 40 25.6521H0Z" fill="#6B3605"/>
<path d="M13.0436 23.0433C13.0436 22.323 12.4596 21.739 11.7392 21.739H6.08705V23.0433H13.0436Z" fill="#E9ECEF"/>
<path d="M13.4617 12.9784C13.5203 12.9784 13.571 13.0024 13.6137 13.0504C13.6563 13.0984 13.6777 13.1597 13.6777 13.2344C13.6777 13.3677 13.5843 13.4904 13.3977 13.6024C13.2057 13.7144 13.003 13.7997 12.7897 13.8584C12.5763 13.9117 12.3683 13.9384 12.1657 13.9384C11.563 13.9384 11.0857 13.7597 10.7337 13.4024C10.387 13.045 10.2137 12.5517 10.2137 11.9224C10.2137 11.5224 10.291 11.1704 10.4457 10.8664C10.6003 10.557 10.8163 10.317 11.0937 10.1464C11.3763 9.97569 11.6963 9.89035 12.0537 9.89035C12.5603 9.89035 12.963 10.0557 13.2617 10.3864C13.5603 10.717 13.7097 11.165 13.7097 11.7304C13.7097 11.837 13.6883 11.9144 13.6457 11.9624C13.603 12.0104 13.5337 12.0344 13.4377 12.0344H10.8617C10.9097 12.9517 11.3443 13.4104 12.1657 13.4104C12.3737 13.4104 12.5523 13.3837 12.7017 13.3304C12.851 13.2717 13.011 13.1944 13.1817 13.0984C13.3203 13.0184 13.4137 12.9784 13.4617 12.9784ZM12.0617 10.3944C11.7203 10.3944 11.4457 10.501 11.2377 10.7144C11.035 10.9277 10.915 11.229 10.8777 11.6184H13.1417C13.131 11.2237 13.0323 10.9224 12.8457 10.7144C12.659 10.501 12.3977 10.3944 12.0617 10.3944ZM14.9664 12.0184C14.8704 12.0184 14.7957 11.9944 14.7424 11.9464C14.6944 11.8984 14.6704 11.8344 14.6704 11.7544C14.6704 11.6744 14.6944 11.6104 14.7424 11.5624C14.7957 11.509 14.8704 11.4824 14.9664 11.4824H16.7264C16.8277 11.4824 16.9024 11.509 16.9504 11.5624C17.0037 11.6104 17.0304 11.6744 17.0304 11.7544C17.0304 11.8344 17.0037 11.8984 16.9504 11.9464C16.9024 11.9944 16.8277 12.0184 16.7264 12.0184H14.9664ZM22.4848 9.89035C23.3488 9.89035 23.7808 10.405 23.7808 11.4344V13.6024C23.7808 13.7037 23.7515 13.7837 23.6928 13.8424C23.6341 13.8957 23.5568 13.9224 23.4608 13.9224C23.3648 13.9224 23.2848 13.8957 23.2208 13.8424C23.1621 13.7837 23.1328 13.7037 23.1328 13.6024V11.4504C23.1328 11.093 23.0688 10.8344 22.9408 10.6744C22.8128 10.5144 22.6128 10.4344 22.3408 10.4344C22.0155 10.4344 21.7595 10.5437 21.5728 10.7624C21.3861 10.981 21.2928 11.277 21.2928 11.6504V13.6024C21.2928 13.7037 21.2608 13.7837 21.1968 13.8424C21.1381 13.8957 21.0608 13.9224 20.9648 13.9224C20.8688 13.9224 20.7915 13.8957 20.7328 13.8424C20.6741 13.7837 20.6448 13.7037 20.6448 13.6024V11.4504C20.6448 11.093 20.5808 10.8344 20.4528 10.6744C20.3248 10.5144 20.1221 10.4344 19.8448 10.4344C19.5248 10.4344 19.2688 10.5437 19.0768 10.7624C18.8901 10.981 18.7968 11.277 18.7968 11.6504V13.6024C18.7968 13.7037 18.7675 13.7837 18.7088 13.8424C18.6501 13.8957 18.5728 13.9224 18.4768 13.9224C18.3808 13.9224 18.3008 13.8957 18.2368 13.8424C18.1781 13.7837 18.1488 13.7037 18.1488 13.6024V10.2264C18.1488 10.1304 18.1781 10.053 18.2368 9.99435C18.3008 9.93569 18.3808 9.90635 18.4768 9.90635C18.5675 9.90635 18.6421 9.93569 18.7008 9.99435C18.7595 10.0477 18.7888 10.1224 18.7888 10.2184V10.6024C18.9061 10.373 19.0688 10.197 19.2768 10.0744C19.4848 9.95169 19.7248 9.89035 19.9968 9.89035C20.6048 9.89035 21.0021 10.1464 21.1888 10.6584C21.3008 10.4237 21.4715 10.237 21.7008 10.0984C21.9301 9.95969 22.1915 9.89035 22.4848 9.89035ZM26.5693 13.9384C26.2066 13.9384 25.884 13.8557 25.6013 13.6904C25.324 13.525 25.108 13.2904 24.9533 12.9864C24.804 12.6824 24.7293 12.3304 24.7293 11.9304C24.7293 11.5304 24.8066 11.1757 24.9613 10.8664C25.1213 10.557 25.3426 10.317 25.6253 10.1464C25.908 9.97569 26.2333 9.89035 26.6013 9.89035C26.804 9.89035 27.004 9.91969 27.2013 9.97835C27.404 10.0317 27.58 10.1117 27.7293 10.2184C27.8253 10.2824 27.892 10.3464 27.9293 10.4104C27.972 10.469 27.9933 10.5357 27.9933 10.6104C27.9933 10.685 27.972 10.7464 27.9293 10.7944C27.892 10.8424 27.8413 10.8664 27.7773 10.8664C27.74 10.8664 27.7 10.8557 27.6573 10.8344C27.6146 10.813 27.5773 10.7917 27.5453 10.7704C27.5186 10.749 27.5 10.7357 27.4893 10.7304C27.3506 10.6397 27.2173 10.5677 27.0893 10.5144C26.9666 10.461 26.8146 10.4344 26.6333 10.4344C26.244 10.4344 25.94 10.5677 25.7213 10.8344C25.508 11.0957 25.4013 11.461 25.4013 11.9304C25.4013 12.3997 25.508 12.7624 25.7213 13.0184C25.94 13.2744 26.244 13.4024 26.6333 13.4024C26.8146 13.4024 26.9693 13.3757 27.0973 13.3224C27.2306 13.269 27.364 13.197 27.4973 13.1064C27.556 13.069 27.612 13.037 27.6653 13.0104C27.7186 12.9837 27.764 12.9704 27.8013 12.9704C27.86 12.9704 27.908 12.9944 27.9453 13.0424C27.988 13.0904 28.0093 13.1517 28.0093 13.2264C28.0093 13.2957 27.9906 13.3597 27.9533 13.4184C27.916 13.4717 27.8466 13.533 27.7453 13.6024C27.596 13.7037 27.4146 13.7864 27.2013 13.8504C26.9933 13.909 26.7826 13.9384 26.5693 13.9384ZM30.6534 11.1464C30.8401 11.1464 30.9334 11.2264 30.9334 11.3864C30.9334 11.5464 30.8401 11.6264 30.6534 11.6264H28.8214C28.7414 11.6264 28.6774 11.6024 28.6294 11.5544C28.5814 11.5064 28.5574 11.4504 28.5574 11.3864C28.5574 11.2957 28.5948 11.213 28.6694 11.1384L29.7574 9.93835C29.8961 9.78902 29.9974 9.65302 30.0614 9.53035C30.1308 9.40235 30.1654 9.27702 30.1654 9.15435C30.1654 8.99969 30.1201 8.88235 30.0294 8.80235C29.9388 8.72235 29.8108 8.68235 29.6454 8.68235C29.4268 8.68235 29.1788 8.77835 28.9014 8.97035C28.8268 9.01302 28.7601 9.03435 28.7014 9.03435C28.6428 9.03435 28.5948 9.01035 28.5574 8.96235C28.5254 8.90902 28.5094 8.85302 28.5094 8.79435C28.5094 8.69835 28.5441 8.62369 28.6134 8.57035C28.7574 8.46369 28.9254 8.37835 29.1174 8.31435C29.3094 8.24502 29.4961 8.21035 29.6774 8.21035C30.0134 8.21035 30.2774 8.29569 30.4694 8.46635C30.6614 8.63169 30.7574 8.85035 30.7574 9.12235C30.7574 9.31435 30.7148 9.49569 30.6294 9.66635C30.5441 9.83702 30.4001 10.029 30.1974 10.2424L29.3414 11.1464H30.6534Z" fill="white"/>
</svg>
