<svg width="48" height="48" viewBox="0 0 48 48" fill="none" xmlns="http://www.w3.org/2000/svg">
<path d="M29.0644 26.0239L12.9021 29.7604C12.3662 29.8843 11.8013 29.7982 11.3314 29.5211C10.8615 29.244 10.5252 28.7986 10.3966 28.2828L7.48522 16.6146C7.35653 16.0989 7.44597 15.555 7.73385 15.1027C8.02173 14.6504 8.48447 14.3267 9.02029 14.2029L25.1826 10.4663C25.7184 10.3424 26.2834 10.4285 26.7533 10.7056C27.2231 10.9827 27.5594 11.4282 27.6881 11.9439L30.5994 23.6121C30.7281 24.1279 30.6387 24.6717 30.3508 25.124C30.0629 25.5763 29.6002 25.9 29.0644 26.0239ZM9.50551 16.1476L12.4168 27.8157L28.5791 24.0792L25.6678 12.411L9.50551 16.1476ZM12.2536 18.5975L24.3753 15.7951L24.8606 17.7398L12.7388 20.5422L12.2536 18.5975ZM13.2241 22.4869L23.3255 20.1516L23.8107 22.0963L13.7093 24.4316L13.2241 22.4869Z" fill="white"/>
<path d="M38.1661 38H21.5442C20.9931 38 20.4646 37.7893 20.075 37.4142C19.6853 37.0391 19.4664 36.5304 19.4664 36V24C19.4664 23.4696 19.6853 22.9609 20.075 22.5858C20.4646 22.2107 20.9931 22 21.5442 22H38.1661C38.7171 22 39.2456 22.2107 39.6353 22.5858C40.0249 22.9609 40.2438 23.4696 40.2438 24V36C40.2438 36.5304 40.0249 37.0391 39.6353 37.4142C39.2456 37.7893 38.7171 38 38.1661 38ZM21.5442 24V36H38.1661V24H21.5442ZM23.6219 27H36.0883V29H23.6219V27ZM23.6219 31H34.0106V33H23.6219V31Z" fill="white"/>
</svg>
