<svg width="48" height="48" viewBox="0 0 48 48" fill="none" xmlns="http://www.w3.org/2000/svg">
<path d="M36.9036 30.1767L31.9953 12.8488C31.8598 12.3692 31.5833 11.9387 31.1997 11.6102C30.8162 11.2818 29.0057 11.6796 28.5 11.6102C29.079 11.924 30.8501 11.8312 31.0515 12.4461L36.6688 29.5625C37.1134 30.9175 36.3459 32.38 34.9539 32.8288L22 37.0003L35.0555 33.3716C36.4656 32.9802 37.2934 31.5493 36.9036 30.1767Z" fill="white" stroke="white"/>
<path d="M35.2893 28.8799L29.4307 12.5104C29.2599 12.0313 28.945 11.6169 28.5291 11.3241C28.1133 11.0313 27.617 10.8744 27.1085 10.875C26.821 10.875 26.5279 10.9253 26.2413 11.0312L13.3255 15.8122C12.0283 16.2926 11.9959 17.0521 12.4596 18.3484L18.7386 35.893C19.2037 37.1902 19.5681 37.3595 20.8645 36.8791L33.7812 32.0981C35.0779 31.6177 35.753 30.1771 35.2893 28.8799ZM22.3506 35.4564L15.3625 15.9312L26.517 11.8021C26.7064 11.7317 26.9068 11.6955 27.1089 11.6953C27.4506 11.6949 27.7842 11.7998 28.0641 11.9959C28.344 12.1919 28.5566 12.4695 28.673 12.7908L34.5315 29.1612C34.843 30.0309 34.3823 31.0026 33.506 31.3273L22.3506 35.4564Z" fill="white" stroke="white"/>
<path d="M27.6046 16.5007L27.4646 16.1152L27.08 16.2552L20.0647 18.8137L19.6801 18.9537L19.8192 19.3392L20.8154 22.0805L20.9546 22.466L21.3391 22.326L28.3562 19.7666L28.7407 19.6266L28.6007 19.2412L27.6046 16.5007ZM21.2004 21.9405L20.2051 19.1992L27.2196 16.6407L28.2166 19.3812L21.2004 21.9405Z" fill="white" stroke="white"/>
</svg>
