<svg width="400" height="400" viewBox="0 0 400 400" fill="none" xmlns="http://www.w3.org/2000/svg">
<path d="M306.37 155.414C306.37 155.414 270.6 186.811 311.787 254.043C348.365 313.751 266.149 339.634 230.721 332.703C184.826 323.725 158.476 265.717 123.378 284.097C88.2813 302.478 53.5117 219.188 104.564 188.54C168.071 150.415 127.313 128.26 133.017 100.305C137.11 80.2427 195.365 49.2239 226.777 84.6069C253.209 114.381 266.171 103.729 278.252 99.7545C295.677 94.0217 333.71 123.841 306.37 155.414Z" fill="#5E5F5F"/>
<path d="M193.374 238.865L205.093 190.795C205.527 189.012 206.308 187.333 207.392 185.852C208.475 184.371 209.84 183.118 211.408 182.165C212.976 181.211 214.716 180.576 216.529 180.296C218.343 180.015 220.194 180.095 221.976 180.53L299.951 199.54C301.734 199.974 303.414 200.755 304.895 201.839C306.376 202.922 307.629 204.287 308.582 205.855C309.535 207.423 310.17 209.163 310.45 210.976C310.731 212.79 310.651 214.641 310.216 216.423L298.497 264.493C298.063 266.276 297.282 267.955 296.199 269.436C295.115 270.917 293.75 272.17 292.182 273.123C290.615 274.076 288.874 274.711 287.061 274.992C285.247 275.272 283.397 275.193 281.614 274.758L277.287 273.703L261.923 269.957L203.639 255.748C201.856 255.314 200.176 254.533 198.695 253.449C197.215 252.366 195.962 251.001 195.008 249.433C194.055 247.865 193.42 246.125 193.14 244.312C192.859 242.498 192.939 240.647 193.374 238.865Z" fill="#A4A4A4"/>
<path d="M301.514 214.48L247.844 201.362C247.491 201.276 247.162 201.38 247.11 201.594L245.442 208.453C245.39 208.668 245.634 208.912 245.987 208.998L299.657 222.117C300.01 222.203 300.339 222.099 300.391 221.884L302.059 215.025C302.112 214.81 301.867 214.566 301.514 214.48Z" fill="#5F6165"/>
<path opacity="0.8" d="M297.119 233.597L208.816 212.07C208.602 212.018 208.385 212.149 208.333 212.364L206.661 219.222C206.609 219.436 206.74 219.653 206.955 219.705L295.258 241.233C295.473 241.285 295.689 241.154 295.741 240.939L297.413 234.081C297.466 233.866 297.334 233.65 297.119 233.597Z" fill="#5F6165"/>
<path opacity="0.65" d="M292.467 252.685L204.164 231.159C203.949 231.106 203.733 231.238 203.68 231.453L202.008 238.311C201.956 238.525 202.087 238.742 202.302 238.794L290.605 260.32C290.82 260.372 291.037 260.241 291.089 260.026L292.761 253.168C292.813 252.953 292.682 252.737 292.467 252.685Z" fill="#5F6165"/>
<path d="M257.072 194.672L237.908 133.132C237.198 130.849 236.045 128.729 234.515 126.892C232.985 125.056 231.109 123.538 228.992 122.427C226.876 121.316 224.562 120.633 222.181 120.416C219.8 120.2 217.401 120.454 215.119 121.166L115.294 152.25C113.012 152.96 110.892 154.113 109.055 155.643C107.218 157.173 105.701 159.049 104.59 161.166C103.478 163.282 102.795 165.597 102.579 167.977C102.362 170.358 102.617 172.758 103.328 175.04L122.492 236.58C123.202 238.862 124.355 240.982 125.884 242.819C127.414 244.655 129.291 246.172 131.407 247.284C133.523 248.395 135.838 249.078 138.218 249.295C140.598 249.511 142.998 249.257 145.28 248.545L150.82 246.82L170.49 240.696L245.105 217.461C247.388 216.751 249.508 215.598 251.345 214.068C253.181 212.539 254.699 210.662 255.81 208.546C256.921 206.429 257.605 204.115 257.821 201.734C258.038 199.354 257.783 196.954 257.072 194.672Z" fill="#BFBFC1"/>
<path d="M226.459 136.896L114.371 171.668C113.929 171.805 113.624 172.087 113.689 172.298L116.499 181.31C116.564 181.521 116.976 181.58 117.419 181.443L229.507 146.671C229.949 146.534 230.255 146.252 230.189 146.041L227.379 137.03C227.314 136.819 226.902 136.759 226.459 136.896Z" fill="#5F6165"/>
<path opacity="0.75" d="M234.867 160.885L121.59 196.161C121.379 196.227 121.261 196.451 121.327 196.662L124.133 205.673C124.199 205.884 124.423 206.002 124.634 205.936L237.911 170.66C238.122 170.595 238.24 170.37 238.174 170.16L235.368 161.148C235.302 160.937 235.078 160.82 234.867 160.885Z" fill="#5F6165"/>
<path opacity="0.5" d="M242.467 185.448L129.163 220.685C128.952 220.751 128.834 220.975 128.899 221.186L131.702 230.199C131.768 230.41 131.992 230.528 132.203 230.463L245.507 195.226C245.718 195.16 245.836 194.936 245.771 194.725L242.968 185.712C242.902 185.501 242.678 185.383 242.467 185.448Z" fill="#5F6165"/>
<path d="M317.212 139.372C310.719 135.407 305.387 137.434 303.8 140.032C302.655 141.908 303.713 143.743 305.012 144.537C307.609 146.123 308.813 141.772 313.719 144.768C316.123 146.237 317.401 148.47 316.05 150.683C314.463 153.281 310.859 153.127 308.45 153.505C306.321 153.856 303.288 154.712 300.762 158.849C299.235 161.35 299.467 162.483 301.439 163.687C303.796 165.126 304.923 164.362 305.481 163.447C307.009 160.946 307.938 159.532 311.847 159.079C313.762 158.862 319.848 158.087 322.609 153.565C325.371 149.044 323.368 143.132 317.212 139.372Z" fill="#0E84E5"/>
<path d="M299.46 167.035C298.974 166.738 298.433 166.54 297.87 166.451C297.307 166.363 296.732 166.387 296.178 166.52C295.624 166.654 295.102 166.896 294.641 167.232C294.18 167.567 293.79 167.991 293.493 168.477C293.196 168.964 292.998 169.504 292.91 170.067C292.821 170.63 292.845 171.205 292.979 171.759C293.113 172.313 293.354 172.835 293.69 173.296C294.026 173.756 294.449 174.146 294.936 174.443C295.918 175.043 297.099 175.228 298.218 174.958C299.337 174.687 300.302 173.983 300.902 173.001C301.502 172.019 301.687 170.838 301.417 169.719C301.146 168.601 300.442 167.635 299.46 167.035Z" fill="#0E84E5"/>
<path d="M142.679 66.8422C135.999 70.4827 135.088 76.1142 136.545 78.7868C137.597 80.7172 139.715 80.718 141.051 79.99C143.724 78.5338 140.558 75.316 145.606 72.5655C148.08 71.217 150.653 71.2275 151.893 73.5039C153.35 76.1766 151.415 79.2209 150.537 81.4965C149.776 83.5159 149.002 86.5699 151.321 90.826C152.724 93.3997 153.821 93.7645 155.85 92.6589C158.275 91.3374 158.176 89.979 157.663 89.0385C156.261 86.4647 155.501 84.9529 157.063 81.3417C157.833 79.5742 160.205 73.9164 157.67 69.2642C155.134 64.612 149.013 63.3906 142.679 66.8422Z" fill="#03A9F4"/>
<path d="M157.76 96.0469C157.259 96.3196 156.817 96.6883 156.459 97.1318C156.101 97.5753 155.834 98.085 155.673 98.6318C155.512 99.1786 155.46 99.7517 155.521 100.318C155.581 100.885 155.753 101.435 156.026 101.935C156.298 102.436 156.667 102.877 157.111 103.235C157.554 103.593 158.064 103.861 158.61 104.022C159.157 104.183 159.73 104.234 160.297 104.174C160.864 104.114 161.413 103.942 161.914 103.669C162.924 103.118 163.675 102.189 164 101.084C164.326 99.9801 164.199 98.7919 163.648 97.7811C163.097 96.7703 162.167 96.0197 161.063 95.6945C159.959 95.3693 158.771 95.496 157.76 96.0469Z" fill="#03A9F4"/>
</svg>
