<svg xmlns="http://www.w3.org/2000/svg" width="89" height="89" fill="none" viewBox="0 0 89 89">
    <path stroke="#03A9F4" stroke-linecap="round" stroke-linejoin="round" stroke-width="2" d="M55.25 63.034c0 .265.105.52.293.707l6.113 6.113c.134.293.278.507.381.66.078.115.11.168.124.19-.003.025-.012.072-.035.148-.056.184-.175.465-.41.904-.055.022-.135.05-.243.08-.35.101-.87.203-1.563.301-1.378.195-3.307.356-5.622.482-4.623.251-10.698.36-16.784.338-6.086-.02-12.164-.17-16.79-.432-2.316-.131-4.25-.29-5.633-.471-.696-.092-1.224-.185-1.583-.277-.117-.03-.203-.056-.264-.078-.423-.678-.45-.893-.451-.925.002-.01.02-.062.122-.225l.074-.116c.09-.14.21-.327.33-.545l6.148-6.147c.188-.188.293-.442.293-.707V47.409c0-9.276 4.878-16.783 13.293-18.777.451-.107.77-.51.77-.973v-2.125c0-2.042 1.646-3.688 3.687-3.688s3.688 1.646 3.688 3.688v2.125c0 .463.318.866.768.973 8.385 1.993 13.294 9.533 13.294 18.777v15.625zm6.912 7.646v0zm-.345 1.028s-.004.004-.015.01l.015-.01zm-48.692-.055l.02.01c-.015-.006-.02-.01-.02-.01zm-.342-.883v0zm29.87 5.764c-.47 2.412-2.61 4.25-5.153 4.25-2.569 0-4.689-1.836-5.155-4.25h10.309z"/>
    <path stroke="#03A9F4" stroke-linecap="round" stroke-width="2" d="M33 67.034s1.688 1 4.5 1c2.813 0 4.5-1 4.5-1M29 61.034s.75 1 2 1 2-1 2-1M42 61.034s.75 1 2 1 2-1 2-1"/>
    <g clip-path="url(#clip0)">
        <path fill="#03A9F4" d="M61.515 28.034c-.243 0-.425-.075-.546-.224-.122-.159-.173-.345-.154-.56.019-.215.117-.42.294-.616l3.29-4.13H61.43c-.448 0-.672-.22-.672-.658 0-.439.224-.658.672-.658h4.144c.28 0 .485.075.616.224.14.15.2.331.182.546-.01.205-.103.406-.28.602l-3.332 4.158h3.136c.448 0 .672.22.672.658 0 .439-.224.658-.672.658h-4.382z"/>
    </g>
    <g clip-path="url(#clip1)">
        <path fill="#03A9F4" d="M69.816 19.676c-.29-.04-.497-.16-.618-.358-.119-.21-.15-.443-.092-.697.058-.255.21-.484.454-.69l4.626-4.41-3.558-.489c-.537-.074-.77-.373-.698-.9.073-.525.378-.751.915-.678l4.968.684c.336.046.57.17.702.37.143.202.186.43.128.685-.045.245-.19.47-.435.675l-4.68 4.436 3.759.517c.537.074.77.374.697.9-.072.526-.377.752-.914.678l-5.254-.723z"/>
    </g>
    <g clip-path="url(#clip2)">
        <path fill="#03A9F4" d="M81.655 10.492c-.3.08-.551.049-.751-.096-.203-.156-.328-.37-.377-.643-.048-.272.005-.559.16-.86l2.705-6.209-3.677.986c-.555.148-.905-.049-1.05-.592-.146-.544.058-.89.613-1.039L84.412.664c.347-.093.626-.069.837.073.223.138.359.344.407.616.057.257.008.537-.147.839l-2.748 6.256 3.885-1.04c.555-.15.906.048 1.051.592.146.543-.059.89-.614 1.038l-5.428 1.454z"/>
    </g>
    <defs>
        <clipPath id="clip0">
            <path fill="#fff" d="M0 0H7V7H0z" transform="translate(60 21.034)"/>
        </clipPath>
        <clipPath id="clip1">
            <path fill="#fff" d="M0 0H8.472V8.472H0z" transform="rotate(7.834 -45.994 510.5)"/>
        </clipPath>
        <clipPath id="clip2">
            <path fill="#fff" d="M0 0H8.977V8.977H0z" transform="rotate(-15 47.552 -293.003)"/>
        </clipPath>
    </defs>
</svg>
