<svg xmlns="http://www.w3.org/2000/svg" width="36" height="36" fill="none" viewBox="0 0 36 36">
    <circle cx="18" cy="18" r="18" fill="#FEC04F"/>
    <g opacity=".8">
        <path fill="#fff" d="M0 0H11.739V17.761H0z" transform="rotate(10.175 -42.48 113.593) skewX(-.012)"/>
        <path stroke="#000" stroke-width=".5" d="M20.727 10.871l4.996.897m-5.19.177l8.198 1.471m-8.376-.475l8.197 1.472m-8.418-.245l8.198 1.471m-8.584.676l-.571 3.182m7.626 4.653l-8.198-1.472.572-3.181m0 0l9.056 1.625m-9.986 3.55l3.279.588m-3.486.562l8.198 1.471m-6.554-5.687c6.104 2.361 2.99-5.874 8.11-2.977"/>
    </g>
    <g opacity=".6">
        <path fill="#fff" d="M0 0H11.73V17.775H0z" transform="matrix(.90908 -.41663 .42367 .90582 3.48 14.179)"/>
        <path stroke="#000" stroke-width=".5" d="M5.484 14.719l4.611-2.114m-4.148 3.103l7.564-3.469m-7.135 4.387l7.565-3.469m-7.037 4.599l7.565-3.469m-6.64 5.446l1.37 2.931m8.935-.538l-7.565 3.469-1.37-2.93m0 0l8.357-3.833m-6.129 8.6l3.027-1.388m-2.531 2.447l7.565-3.469m-8.655-.92c6.364-1.546-.945-6.514 4.924-7.06"/>
    </g>
    <path fill="#fff" d="M0 0H13.35V20.204H0z" transform="matrix(.97933 -.2023 .20599 .97855 9.29 8.508)"/>
    <path stroke="#000" stroke-width=".5" d="M11.367 9.618l5.654-1.167m-5.398 2.381l9.275-1.915M11.86 11.96l9.275-1.916m-8.983 3.303l9.275-1.916m-8.764 4.344l.758 3.599m10.032 1.683l-9.275 1.916-.757-3.6m0 0l10.247-2.116m-9.015 7.97l3.71-.766m-3.436 2.067l9.275-1.916m-9.344-3.228c7.447-.09.641-7.462 7.281-6.57"/>
</svg>
