<svg width="24" height="28" viewBox="0 0 24 28" fill="none" xmlns="http://www.w3.org/2000/svg">
<path d="M16.025 1.48745L4.60622 4.7687L2.81247 5.2937C1.49997 5.68745 1.41247 6.4312 1.76247 7.7437L6.70622 25.7249C7.05622 27.0374 7.40622 27.2562 8.76247 26.8625L10.5562 26.3375L21.975 23.0562C23.2875 22.6625 24.075 21.3062 23.725 19.9499L19.0875 3.23745C18.7375 1.8812 17.3375 1.13745 16.025 1.48745" fill="#242526"/>
<path d="M15.0625 1.22502L3.77499 4.94377L1.98124 5.51252C0.668742 5.95002 0.624992 6.69377 1.01874 8.00627L6.70624 25.7688C7.14374 27.0813 7.49374 27.2563 8.80624 26.8188L10.6 26.25L21.8875 22.5313C23.2 22.0938 23.9437 20.6938 23.5062 19.3813L18.2125 2.84377C17.775 1.53127 16.375 0.831273 15.0625 1.22502Z" fill="#D0D0D0"/>
<path d="M14.2312 1.05017L3.07495 5.16267L10.6 26.2502L21.7562 22.1377C23.0687 21.6564 23.725 20.2127 23.2437 18.9002L17.425 2.49392C16.9875 1.22517 15.5437 0.568918 14.2312 1.05017Z" fill="#F5C264"/>
<path d="M1.32501 5.8186C0.0125128 6.29985 0.0125128 7.0436 0.450013 8.3561L6.75001 25.8999C7.23126 27.2124 7.58126 27.3874 8.89376 26.9061L10.6438 26.2499L3.07501 5.16235L1.32501 5.8186" fill="#242526"/>
<path d="M16.1562 9.36265L9.24375 11.9439L8.28125 9.18765L15.1937 6.65015L16.1562 9.36265Z" fill="white"/>
</svg>
