<svg width="28" height="28" viewBox="0 0 28 28" fill="none" xmlns="http://www.w3.org/2000/svg">
<path d="M26.9036 20.1764L21.9953 2.84851C21.8598 2.3689 21.5833 1.93837 21.1997 1.60993C20.8162 1.28148 19.0057 1.67931 18.5 1.60985C19.079 1.92372 20.8501 1.83091 21.0515 2.44582L26.6688 19.5622C27.1134 20.9172 26.3459 22.3797 24.9539 22.8285L12 27L25.0555 23.3713C26.4656 22.9799 27.2934 21.549 26.9036 20.1764Z" fill="white" stroke="white"/>
<path d="M25.2893 18.8799L19.4307 2.51038C19.2599 2.03133 18.945 1.61692 18.5291 1.3241C18.1133 1.03127 17.617 0.874384 17.1085 0.875002C16.821 0.875002 16.5279 0.925314 16.2413 1.03119L3.32545 5.81219C2.02826 6.29256 1.99589 7.05206 2.45964 8.34838L8.73864 25.893C9.2037 27.1902 9.56814 27.3595 10.8645 26.8791L23.7812 22.0981C25.0779 21.6177 25.753 20.1771 25.2893 18.8799ZM12.3506 25.4564L5.36245 5.93119L16.517 1.80206C16.7064 1.73167 16.9068 1.69553 17.1089 1.69531C17.4506 1.69487 17.7842 1.79983 18.0641 1.99587C18.344 2.19192 18.5566 2.46951 18.673 2.79081L24.5315 19.1612C24.843 20.0309 24.3823 21.0026 23.506 21.3273L12.3506 25.4564Z" fill="white" stroke="white"/>
<path d="M17.6046 6.50076L17.4646 6.11533L17.0801 6.25533L10.0647 8.81383L9.68018 8.95383L9.8193 9.33926L10.8155 12.0806L10.9546 12.4661L11.3392 12.3261L18.3562 9.7667L18.7408 9.6267L18.6008 9.24126L17.6046 6.50076ZM11.2005 11.9406L10.2052 9.19926L17.2196 6.64076L18.2167 9.38126L11.2005 11.9406Z" fill="white" stroke="white"/>
</svg>
