<svg xmlns="http://www.w3.org/2000/svg" width="695" height="435" fill="none" viewBox="0 0 695 435">
    <g filter="url(#filter0_d)">
        <rect width="679" height="419" x="8" fill="#1B2A32" rx="8"/>
        <rect width="100" height="24" x="36" y="72" fill="#03A9F4" rx="12"/>
        <rect width="394" height="197" x="213" y="103" fill="#29414E" rx="8"/>
        <path fill="#E9ECEF" d="M225.649 74.8c.374 0 .667.12.88.36.227.227.34.533.34.92v11.74c0 .387-.113.7-.34.94-.226.24-.52.36-.88.36-.426 0-.753-.153-.98-.46l-7.3-9.5v8.66c0 .387-.106.7-.32.94-.213.24-.506.36-.88.36-.373 0-.666-.12-.88-.36-.213-.24-.32-.553-.32-.94V76.08c0-.387.114-.693.34-.92.227-.24.527-.36.9-.36.414 0 .734.153.96.46l7.28 9.46v-8.64c0-.387.107-.693.32-.92.227-.24.52-.36.88-.36zm8.502 14.36c-1 0-1.88-.207-2.64-.62-.747-.413-1.327-1.007-1.74-1.78-.414-.773-.62-1.673-.62-2.7 0-1.027.206-1.92.62-2.68.413-.773.993-1.367 1.74-1.78.76-.413 1.64-.62 2.64-.62 1 0 1.873.207 2.62.62.76.413 1.34 1.007 1.74 1.78.413.76.62 1.653.62 2.68 0 1.027-.207 1.927-.62 2.7-.4.773-.98 1.367-1.74 1.78-.747.413-1.62.62-2.62.62zm-.02-1.94c.813 0 1.433-.267 1.86-.8.426-.533.64-1.32.64-2.36 0-1.027-.214-1.807-.64-2.34-.427-.547-1.04-.82-1.84-.82s-1.42.273-1.86.82c-.427.533-.64 1.313-.64 2.34 0 1.04.213 1.827.64 2.36.426.533 1.04.8 1.84.8zm12.085.04c.667.04 1 .34 1 .9 0 .32-.133.567-.4.74-.253.16-.62.227-1.1.2l-.54-.04c-2.24-.16-3.36-1.36-3.36-3.6V81.1h-1c-.36 0-.64-.08-.84-.24-.187-.16-.28-.393-.28-.7 0-.307.093-.54.28-.7.2-.16.48-.24.84-.24h1v-1.84c0-.36.113-.647.34-.86.227-.213.533-.32.92-.32.373 0 .673.107.9.32.227.213.34.5.34.86v1.84h1.7c.36 0 .633.08.82.24.2.16.3.393.3.7 0 .307-.1.54-.3.7-.187.16-.46.24-.82.24h-1.7v4.54c0 .987.453 1.513 1.36 1.58l.54.04zm10.043-.94c.226 0 .406.087.54.26.146.173.22.407.22.7 0 .413-.247.76-.74 1.04-.454.253-.967.46-1.54.62-.574.147-1.12.22-1.64.22-1.574 0-2.82-.453-3.74-1.36-.92-.907-1.38-2.147-1.38-3.72 0-1 .2-1.887.6-2.66.4-.773.96-1.373 1.68-1.8.733-.427 1.56-.64 2.48-.64.88 0 1.646.193 2.3.58.653.387 1.16.933 1.52 1.64.36.707.54 1.54.54 2.5 0 .573-.254.86-.76.86h-5.9c.08.92.34 1.6.78 2.04.44.427 1.08.64 1.92.64.426 0 .8-.053 1.12-.16.333-.107.706-.253 1.12-.44.4-.213.693-.32.88-.32zm-3.46-5.58c-.68 0-1.227.213-1.64.64-.4.427-.64 1.04-.72 1.84h4.52c-.027-.813-.227-1.427-.6-1.84-.374-.427-.894-.64-1.56-.64zm9.885 8.42c-1.454 0-2.627-.287-3.52-.86-.427-.253-.64-.613-.64-1.08 0-.267.073-.48.22-.64.146-.173.326-.26.54-.26.226 0 .54.107.94.32.426.2.813.353 1.16.46.36.107.813.16 1.36.16.56 0 .993-.093 1.3-.28.32-.187.48-.447.48-.78 0-.227-.067-.407-.2-.54-.12-.133-.347-.253-.68-.36-.32-.12-.814-.253-1.48-.4-1.187-.24-2.04-.58-2.56-1.02-.507-.44-.76-1.047-.76-1.82 0-.587.173-1.113.52-1.58.346-.48.82-.847 1.42-1.1.613-.267 1.306-.4 2.08-.4.56 0 1.1.073 1.62.22.52.133.986.333 1.4.6.426.267.64.62.64 1.06 0 .267-.074.493-.22.68-.147.173-.327.26-.54.26-.147 0-.294-.027-.44-.08-.134-.067-.307-.16-.52-.28-.387-.2-.72-.347-1-.44-.28-.107-.627-.16-1.04-.16-.494 0-.887.1-1.18.3-.28.2-.42.473-.42.82 0 .333.146.587.44.76.293.173.86.347 1.7.52.893.187 1.593.4 2.1.64.506.24.866.54 1.08.9.226.36.34.82.34 1.38 0 .907-.38 1.633-1.14 2.18-.747.547-1.747.82-3 .82z"/>
        <rect width="90" height="7" x="229" y="126" fill="#C7D3DA" rx="2"/>
        <rect width="180" height="7" x="229" y="176" fill="#C7D3DA" rx="2"/>
        <rect width="360" height="7" x="229" y="196" fill="#C7D3DA" rx="2"/>
        <rect width="360" height="7" x="229" y="236" fill="#C7D3DA" rx="2"/>
        <rect width="270" height="7" x="229" y="256" fill="#C7D3DA" rx="2"/>
        <rect width="58" height="7" x="229" y="142" fill="#C7D3DA" rx="2"/>
        <path fill="#37474F" d="M8 0H687V44H8z"/>
        <path fill="#81D4F9" fill-rule="evenodd" d="M26.94 24.452c1.625 0 2.941-1.352 2.941-3.02 0-1.666-1.316-3.018-2.94-3.018-1.624 0-2.941 1.352-2.941 3.019s1.317 3.019 2.94 3.019z" clip-rule="evenodd"/>
        <path fill="#C0E9FC" fill-rule="evenodd" d="M32.994 30.667c1.624 0 2.94-1.352 2.94-3.02 0-1.666-1.316-3.018-2.94-3.018-1.624 0-2.94 1.351-2.94 3.019 0 1.667 1.316 3.019 2.94 3.019z" clip-rule="evenodd"/>
        <path fill="#03A9F4" fill-rule="evenodd" d="M38.876 24.452c1.624 0 2.94-1.352 2.94-3.02 0-1.666-1.316-3.018-2.94-3.018-1.624 0-2.94 1.352-2.94 3.019s1.316 3.019 2.94 3.019z" clip-rule="evenodd"/>
        <path fill="#4EC2F7" fill-rule="evenodd" d="M32.994 18.413c1.624 0 2.94-1.352 2.94-3.02 0-1.666-1.316-3.018-2.94-3.018-1.624 0-2.94 1.352-2.94 3.019s1.316 3.019 2.94 3.019z" clip-rule="evenodd"/>
        <path fill="#03A9F4" d="M58.521 24.618c-.182.277-.405.538-.669.784-.253.246-.553.46-.897.645-.335.185-.71.328-1.126.43-.406.113-.852.17-1.339.17-.81 0-1.561-.144-2.25-.43-.69-.287-1.283-.682-1.78-1.184-.497-.513-.888-1.117-1.171-1.814-.274-.697-.411-1.46-.411-2.29 0-.83.142-1.593.426-2.29.284-.697.674-1.296 1.171-1.799.507-.512 1.1-.912 1.78-1.198.69-.287 1.434-.43 2.235-.43.396 0 .781.04 1.157.122.385.082.745.2 1.08.354.334.143.638.322.912.538.274.204.502.44.684.707l-.912.676c-.112-.174-.264-.349-.456-.523-.183-.174-.4-.328-.654-.46-.254-.134-.533-.242-.837-.324-.294-.081-.614-.122-.958-.122-.7 0-1.329.128-1.886.384-.548.256-1.014.604-1.4 1.045-.385.43-.68.932-.882 1.506-.203.574-.304 1.179-.304 1.814s.101 1.24.304 1.814c.213.574.512 1.08.898 1.521.385.43.851.774 1.399 1.03.558.256 1.181.384 1.87.384.62 0 1.207-.128 1.765-.384.558-.256 1.024-.666 1.4-1.23l.851.554zm3.11 1.752h-1.034v-7.193h1.034v7.193zm.213-9.96c0 .215-.076.395-.228.538-.152.133-.32.2-.502.2s-.35-.067-.502-.2c-.152-.143-.228-.323-.228-.538 0-.215.076-.39.228-.523.152-.143.32-.215.502-.215.183 0 .35.072.502.215.152.134.228.308.228.523zm2.78 4.35c0-.195-.005-.446-.015-.753-.01-.308-.026-.584-.046-.83h.989c.02.194.035.41.045.645.01.236.015.43.015.584h.03c.204-.42.508-.758.914-1.014.405-.267.861-.4 1.368-.4.132 0 .249.005.35.016.112.01.223.03.335.061l-.137.984c-.06-.02-.162-.041-.304-.062-.142-.02-.284-.03-.426-.03-.274 0-.538.05-.791.153s-.476.267-.67.492c-.182.215-.334.497-.456.845-.111.339-.167.749-.167 1.23v3.69h-1.034V20.76zm10.579.061c-.173-.276-.426-.502-.76-.676-.325-.184-.68-.277-1.066-.277-.415 0-.79.077-1.125.23-.334.144-.623.35-.867.616-.233.256-.416.563-.548.922-.121.348-.182.727-.182 1.137 0 .41.06.79.182 1.138.132.348.315.656.548.922.233.256.517.461.852.615.334.143.71.215 1.125.215.457 0 .842-.087 1.156-.261.315-.175.573-.4.776-.677l.776.584c-.304.38-.68.682-1.126.907-.436.226-.963.338-1.582.338-.578 0-1.1-.092-1.566-.276-.467-.195-.867-.461-1.202-.8-.324-.338-.578-.737-.76-1.198-.183-.461-.274-.963-.274-1.507 0-.543.091-1.045.273-1.506.183-.461.437-.86.761-1.199.335-.338.735-.6 1.202-.784.466-.194.988-.292 1.566-.292.477 0 .959.108 1.445.323.497.205.898.512 1.202.922l-.806.584zm3.783 5.55h-1.034V14.75h1.034v11.62zm8.437-4.151c-.03-.676-.248-1.235-.654-1.675-.395-.451-.963-.677-1.703-.677-.345 0-.665.067-.959.2-.294.123-.552.297-.775.523-.223.215-.4.466-.532.753-.132.277-.208.569-.229.876h4.852zm1.05.338v.23c0 .083-.005.17-.016.262h-5.9c.01.359.08.697.212 1.014.132.318.314.595.548.83.233.236.507.426.82.57.315.132.655.199 1.02.199.537 0 .999-.123 1.384-.369.396-.256.695-.548.898-.876l.775.615c-.426.543-.897.932-1.414 1.168-.507.236-1.055.354-1.643.354-.527 0-1.02-.093-1.475-.277-.447-.195-.832-.461-1.157-.8-.324-.338-.583-.737-.775-1.198-.183-.461-.274-.963-.274-1.507 0-.543.091-1.045.274-1.506.182-.461.436-.86.76-1.199.325-.338.705-.6 1.141-.784.436-.194.908-.292 1.415-.292.557 0 1.05.098 1.475.292.426.185.781.44 1.065.769.284.317.497.691.639 1.122.152.43.228.891.228 1.383zm2.205 3.812V15.488h2.617V26.37h-2.617zm9.914 0v-4.18c0-.216-.02-.42-.061-.616-.03-.194-.086-.363-.167-.507-.081-.153-.198-.271-.35-.353-.142-.092-.324-.139-.547-.139-.224 0-.421.047-.594.139-.162.082-.3.2-.41.353-.112.154-.198.333-.26.538-.05.195-.075.4-.075.615v4.15h-2.51v-7.654h2.419v1.06h.03c.091-.164.208-.323.35-.476.152-.164.324-.303.517-.415.203-.113.42-.205.654-.277.233-.072.482-.108.745-.108.507 0 .938.093 1.293.277.355.184.639.425.852.723.223.286.38.62.471.999.102.379.153.758.153 1.137v4.734h-2.51z"/>
        <circle cx="656" cy="22" r="12" fill="#C7D3DA"/>
        <path fill="#C7D3DA" d="M617.5 14l9.093 15.75h-18.186L617.5 14zM575 14H591V30H575z"/>
        <rect width="90" height="7" x="41" y="119" fill="#29414E" rx="2"/>
        <rect width="90" height="7" x="41" y="139" fill="#29414E" rx="2"/>
        <rect width="66" height="7" x="65" y="159" fill="#29414E" rx="2"/>
        <rect width="66" height="7" x="65" y="179" fill="#29414E" rx="2"/>
        <rect width="66" height="7" x="65" y="199" fill="#29414E" rx="2"/>
        <rect width="66" height="7" x="65" y="219" fill="#29414E" rx="2"/>
        <rect width="90" height="7" x="41" y="239" fill="#29414E" rx="2"/>
        <rect width="90" height="7" x="41" y="259" fill="#29414E" rx="2"/>
        <rect width="90" height="7" x="41" y="279" fill="#29414E" rx="2"/>
    </g>
    <defs>
        <filter id="filter0_d" width="695" height="435" x="0" y="0" color-interpolation-filters="sRGB" filterUnits="userSpaceOnUse">
            <feFlood flood-opacity="0" result="BackgroundImageFix"/>
            <feColorMatrix in="SourceAlpha" values="0 0 0 0 0 0 0 0 0 0 0 0 0 0 0 0 0 0 127 0"/>
            <feOffset dy="8"/>
            <feGaussianBlur stdDeviation="4"/>
            <feColorMatrix values="0 0 0 0 0 0 0 0 0 0 0 0 0 0 0 0 0 0 0.1 0"/>
            <feBlend in2="BackgroundImageFix" result="effect1_dropShadow"/>
            <feBlend in="SourceGraphic" in2="effect1_dropShadow" result="shape"/>
        </filter>
    </defs>
</svg>
