<svg xmlns="http://www.w3.org/2000/svg" width="695" height="435" fill="none" viewBox="0 0 695 435">
    <g filter="url(#filter0_d)">
        <g clip-path="url(#clip0)">
            <rect width="679" height="419" x="8" fill="#1B2A32" rx="8"/>
            <path fill="#37474F" d="M8 0H687V44H8z"/>
            <rect width="100" height="24" x="570" y="12" fill="#03A9F4" rx="8"/>
            <path fill="#81D4F9" fill-rule="evenodd" d="M26.94 24.452c1.625 0 2.941-1.352 2.941-3.02 0-1.666-1.316-3.018-2.94-3.018-1.624 0-2.941 1.352-2.941 3.019s1.317 3.019 2.94 3.019z" clip-rule="evenodd"/>
            <path fill="#C0E9FC" fill-rule="evenodd" d="M32.994 30.667c1.624 0 2.94-1.352 2.94-3.02 0-1.666-1.316-3.018-2.94-3.018-1.624 0-2.94 1.351-2.94 3.019 0 1.667 1.316 3.019 2.94 3.019z" clip-rule="evenodd"/>
            <path fill="#03A9F4" fill-rule="evenodd" d="M38.876 24.452c1.624 0 2.94-1.352 2.94-3.02 0-1.666-1.316-3.018-2.94-3.018-1.624 0-2.94 1.352-2.94 3.019s1.316 3.019 2.94 3.019z" clip-rule="evenodd"/>
            <path fill="#4EC2F7" fill-rule="evenodd" d="M32.994 18.413c1.624 0 2.94-1.352 2.94-3.02 0-1.666-1.316-3.018-2.94-3.018-1.624 0-2.94 1.352-2.94 3.019s1.316 3.019 2.94 3.019z" clip-rule="evenodd"/>
            <path fill="#03A9F4" d="M58.521 24.618c-.182.277-.405.538-.669.784-.253.246-.553.46-.897.645-.335.185-.71.328-1.126.43-.406.113-.852.17-1.339.17-.81 0-1.561-.144-2.25-.43-.69-.287-1.283-.682-1.78-1.184-.497-.513-.888-1.117-1.171-1.814-.274-.697-.411-1.46-.411-2.29 0-.83.142-1.593.426-2.29.284-.697.674-1.296 1.171-1.799.507-.512 1.1-.912 1.78-1.198.69-.287 1.434-.43 2.235-.43.396 0 .781.04 1.157.122.385.082.745.2 1.08.354.334.143.638.322.912.538.274.204.502.44.684.707l-.912.676c-.112-.174-.264-.349-.456-.523-.183-.174-.4-.328-.654-.46-.254-.134-.533-.242-.837-.324-.294-.081-.614-.122-.958-.122-.7 0-1.329.128-1.886.384-.548.256-1.014.604-1.4 1.045-.385.43-.68.932-.882 1.506-.203.574-.304 1.179-.304 1.814s.101 1.24.304 1.814c.213.574.512 1.08.898 1.521.385.43.851.774 1.399 1.03.558.256 1.181.384 1.87.384.62 0 1.207-.128 1.765-.384.558-.256 1.024-.666 1.4-1.23l.851.554zm3.11 1.752h-1.034v-7.193h1.034v7.193zm.213-9.96c0 .215-.076.395-.228.538-.152.133-.32.2-.502.2s-.35-.067-.502-.2c-.152-.143-.228-.323-.228-.538 0-.215.076-.39.228-.523.152-.143.32-.215.502-.215.183 0 .35.072.502.215.152.134.228.308.228.523zm2.78 4.35c0-.195-.005-.446-.015-.753-.01-.308-.026-.584-.046-.83h.989c.02.194.035.41.045.645.01.236.015.43.015.584h.03c.204-.42.508-.758.914-1.014.405-.267.861-.4 1.368-.4.132 0 .249.005.35.016.112.01.223.03.335.061l-.137.984c-.06-.02-.162-.041-.304-.062-.142-.02-.284-.03-.426-.03-.274 0-.538.05-.791.153s-.476.267-.67.492c-.182.215-.334.497-.456.845-.111.339-.167.749-.167 1.23v3.69h-1.034V20.76zm10.579.061c-.173-.276-.426-.502-.76-.676-.325-.184-.68-.277-1.066-.277-.415 0-.79.077-1.125.23-.334.144-.623.35-.867.616-.233.256-.416.563-.548.922-.121.348-.182.727-.182 1.137 0 .41.06.79.182 1.138.132.348.315.656.548.922.233.256.517.461.852.615.334.143.71.215 1.125.215.457 0 .842-.087 1.156-.261.315-.175.573-.4.776-.677l.776.584c-.304.38-.68.682-1.126.907-.436.226-.963.338-1.582.338-.578 0-1.1-.092-1.566-.276-.467-.195-.867-.461-1.202-.8-.324-.338-.578-.737-.76-1.198-.183-.461-.274-.963-.274-1.507 0-.543.091-1.045.273-1.506.183-.461.437-.86.761-1.199.335-.338.735-.6 1.202-.784.466-.194.988-.292 1.566-.292.477 0 .959.108 1.445.323.497.205.898.512 1.202.922l-.806.584zm3.783 5.55h-1.034V14.75h1.034v11.62zm8.437-4.151c-.03-.676-.248-1.235-.654-1.675-.395-.451-.963-.677-1.703-.677-.345 0-.665.067-.959.2-.294.123-.552.297-.775.523-.223.215-.4.466-.532.753-.132.277-.208.569-.229.876h4.852zm1.05.338v.23c0 .083-.005.17-.016.262h-5.9c.01.359.08.697.212 1.014.132.318.314.595.548.83.233.236.507.426.82.57.315.132.655.199 1.02.199.537 0 .999-.123 1.384-.369.396-.256.695-.548.898-.876l.775.615c-.426.543-.897.932-1.414 1.168-.507.236-1.055.354-1.643.354-.527 0-1.02-.093-1.475-.277-.447-.195-.832-.461-1.157-.8-.324-.338-.583-.737-.775-1.198-.183-.461-.274-.963-.274-1.507 0-.543.091-1.045.274-1.506.182-.461.436-.86.76-1.199.325-.338.705-.6 1.141-.784.436-.194.908-.292 1.415-.292.557 0 1.05.098 1.475.292.426.185.781.44 1.065.769.284.317.497.691.639 1.122.152.43.228.891.228 1.383zm2.205 3.812V15.488h2.617V26.37h-2.617zm9.914 0v-4.18c0-.216-.02-.42-.061-.616-.03-.194-.086-.363-.167-.507-.081-.153-.198-.271-.35-.353-.142-.092-.324-.139-.547-.139-.224 0-.421.047-.594.139-.162.082-.3.2-.41.353-.112.154-.198.333-.26.538-.05.195-.075.4-.075.615v4.15h-2.51v-7.654h2.419v1.06h.03c.091-.164.208-.323.35-.476.152-.164.324-.303.517-.415.203-.113.42-.205.654-.277.233-.072.482-.108.745-.108.507 0 .938.093 1.293.277.355.184.639.425.852.723.223.286.38.62.471.999.102.379.153.758.153 1.137v4.734h-2.51z"/>
            <rect width="66" height="7" x="494" y="22" fill="#406478" rx="2"/>
            <rect width="361" height="507" x="167" y="97" fill="#fff" rx="2"/>
            <path stroke="#000" d="M189 239v12"/>
            <path fill="#ADBBC4" d="M175.812 68.354c.047-.103.112-.182.196-.238.094-.056.192-.084.294-.084.15 0 .28.051.392.154.122.093.182.21.182.35 0 .075-.018.15-.056.224l-4.018 8.932c-.056.121-.14.215-.252.28-.112.065-.233.098-.364.098-.13 0-.252-.033-.364-.098-.112-.065-.196-.159-.252-.28l-4.004-8.932c-.028-.075-.042-.145-.042-.21 0-.15.061-.27.182-.364.122-.103.257-.154.406-.154.224 0 .388.107.49.322l3.612 8.162 3.598-8.162zm3.614 9.716c-.168 0-.308-.047-.42-.14-.103-.103-.154-.243-.154-.42v-5.908c0-.177.051-.313.154-.406.112-.103.252-.154.42-.154.168 0 .303.051.406.154.102.093.154.229.154.406v5.908c0 .187-.052.327-.154.42-.103.093-.238.14-.406.14zm0-8.498c-.224 0-.406-.065-.546-.196-.14-.13-.21-.303-.21-.518 0-.205.07-.373.21-.504.14-.13.322-.196.546-.196.224 0 .406.065.546.196.14.13.21.299.21.504 0 .215-.07.387-.21.518-.14.13-.322.196-.546.196zm8.154-1.512c.177 0 .317.051.42.154.102.103.154.233.154.392v8.904c0 .168-.052.303-.154.406-.103.103-.243.154-.42.154-.178 0-.318-.051-.42-.154-.094-.103-.14-.238-.14-.406v-.756c-.206.43-.509.76-.91.994-.392.233-.854.35-1.386.35-.598 0-1.125-.15-1.582-.448-.458-.299-.812-.714-1.064-1.246-.252-.541-.378-1.167-.378-1.876 0-.7.126-1.316.378-1.848s.606-.943 1.064-1.232c.457-.29.984-.434 1.582-.434.532 0 .994.117 1.386.35.401.233.704.565.91.994v-3.752c0-.168.046-.299.14-.392.102-.103.242-.154.42-.154zm-2.632 9.1c.662 0 1.171-.224 1.526-.672.364-.457.546-1.101.546-1.932 0-.83-.182-1.47-.546-1.918-.355-.448-.864-.672-1.526-.672-.663 0-1.181.224-1.554.672-.364.448-.546 1.078-.546 1.89 0 .83.182 1.48.546 1.946.373.457.891.686 1.554.686zm10.584-.742c.103 0 .191.042.266.126.075.084.112.191.112.322 0 .233-.163.448-.49.644-.336.196-.691.345-1.064.448-.373.093-.737.14-1.092.14-1.055 0-1.89-.313-2.506-.938-.607-.625-.91-1.489-.91-2.59 0-.7.135-1.316.406-1.848.271-.541.649-.961 1.134-1.26.495-.299 1.055-.448 1.68-.448.887 0 1.591.29 2.114.868.523.579.784 1.363.784 2.352 0 .187-.037.322-.112.406-.075.084-.196.126-.364.126h-4.508c.084 1.605.845 2.408 2.282 2.408.364 0 .677-.047.938-.14.261-.103.541-.238.84-.406.243-.14.406-.21.49-.21zm-2.45-4.522c-.597 0-1.078.187-1.442.56-.355.373-.565.9-.63 1.582h3.962c-.019-.69-.191-1.218-.518-1.582-.327-.373-.784-.56-1.372-.56zm7.383 6.202c-.644 0-1.213-.145-1.708-.434-.485-.29-.863-.7-1.134-1.232-.261-.541-.392-1.167-.392-1.876 0-.71.131-1.33.392-1.862.271-.541.649-.957 1.134-1.246.495-.29 1.064-.434 1.708-.434.644 0 1.213.145 1.708.434.495.29.873.705 1.134 1.246.271.532.406 1.153.406 1.862 0 .71-.135 1.335-.406 1.876-.261.532-.639.943-1.134 1.232-.495.29-1.064.434-1.708.434zm0-.938c.672 0 1.185-.22 1.54-.658.364-.448.546-1.097.546-1.946 0-.83-.182-1.47-.546-1.918-.364-.457-.877-.686-1.54-.686s-1.176.229-1.54.686c-.364.448-.546 1.087-.546 1.918 0 .84.177 1.484.532 1.932.364.448.882.672 1.554.672zm12.901.952c-.933 0-1.741-.2-2.422-.602-.681-.41-1.209-.994-1.582-1.75-.364-.765-.546-1.666-.546-2.702 0-1.027.182-1.918.546-2.674.373-.765.901-1.349 1.582-1.75.681-.41 1.489-.616 2.422-.616.625 0 1.213.103 1.764.308.56.196 1.045.48 1.456.854.149.14.224.303.224.49 0 .13-.037.247-.112.35-.075.093-.163.14-.266.14-.112 0-.247-.051-.406-.154-.476-.373-.91-.635-1.302-.784-.383-.15-.826-.224-1.33-.224-1.083 0-1.918.355-2.506 1.064-.579.7-.868 1.699-.868 2.996 0 1.307.289 2.315.868 3.024.588.7 1.423 1.05 2.506 1.05.495 0 .938-.075 1.33-.224.392-.15.826-.41 1.302-.784.159-.103.294-.154.406-.154.103 0 .191.047.266.14.075.093.112.21.112.35 0 .187-.075.35-.224.49-.411.373-.896.663-1.456.868-.551.196-1.139.294-1.764.294zm7.77-7.098c1.708 0 2.562.896 2.562 2.688v3.808c0 .168-.052.303-.154.406-.094.103-.224.154-.392.154s-.304-.051-.406-.154c-.103-.103-.154-.238-.154-.406v-.672c-.178.401-.448.714-.812.938-.364.215-.784.322-1.26.322-.439 0-.845-.089-1.218-.266-.364-.177-.654-.425-.868-.742-.215-.317-.322-.667-.322-1.05 0-.513.13-.91.392-1.19.261-.29.69-.495 1.288-.616.597-.13 1.428-.196 2.492-.196h.308v-.462c0-.56-.117-.97-.35-1.232-.224-.261-.593-.392-1.106-.392-.635 0-1.279.173-1.932.518-.252.159-.43.238-.532.238-.112 0-.206-.042-.28-.126-.075-.084-.112-.191-.112-.322 0-.13.037-.243.112-.336.084-.103.214-.205.392-.308.326-.187.695-.331 1.106-.434.42-.112.835-.168 1.246-.168zm-.462 6.188c.56 0 1.017-.187 1.372-.56.364-.383.546-.873.546-1.47v-.406h-.252c-.822 0-1.447.037-1.876.112-.43.065-.738.182-.924.35-.178.159-.266.397-.266.714 0 .364.13.667.392.91.27.233.606.35 1.008.35zm5.674.868c-.168 0-.308-.047-.42-.14-.103-.103-.154-.243-.154-.42v-8.89c0-.177.051-.313.154-.406.112-.103.252-.154.42-.154.158 0 .289.051.392.154.112.093.168.229.168.406v8.89c0 .177-.056.317-.168.42-.103.093-.234.14-.392.14zm3.254 0c-.168 0-.308-.047-.42-.14-.103-.103-.154-.243-.154-.42v-8.89c0-.177.051-.313.154-.406.112-.103.252-.154.42-.154.158 0 .289.051.392.154.112.093.168.229.168.406v8.89c0 .177-.056.317-.168.42-.103.093-.234.14-.392.14zm15.613-6.664c.093-.224.247-.336.462-.336.14 0 .266.047.378.14.112.093.168.21.168.35 0 .065-.014.135-.042.21l-2.324 5.88c-.056.121-.14.22-.252.294-.103.065-.22.098-.35.098-.122 0-.238-.033-.35-.098-.103-.075-.182-.173-.238-.294l-1.932-4.914-1.918 4.914c-.047.121-.126.22-.238.294-.112.065-.234.098-.364.098-.122 0-.238-.033-.35-.098-.112-.075-.196-.173-.252-.294l-2.324-5.866c-.028-.075-.042-.14-.042-.196 0-.15.06-.275.182-.378.13-.103.27-.154.42-.154.224 0 .382.112.476.336l1.918 5.166 1.974-5.124c.056-.121.13-.215.224-.28.102-.065.21-.098.322-.098.121 0 .228.033.322.098.102.065.177.159.224.28l1.974 5.11 1.932-5.138zm1.812 7.098c-.037.121-.098.215-.182.28-.084.065-.177.098-.28.098-.131 0-.247-.047-.35-.14-.103-.093-.154-.21-.154-.35 0-.056.014-.121.042-.196l3.304-10.332c.037-.121.098-.215.182-.28.084-.065.177-.098.28-.098.131 0 .247.047.35.14.103.093.154.215.154.364 0 .028-.009.089-.028.182l-3.318 10.332zm15.344-5.642c.14 0 .252.042.336.126.094.084.14.2.14.35v3.486c0 .224-.037.392-.112.504-.065.112-.191.2-.378.266-.373.159-.826.285-1.358.378-.532.093-1.064.14-1.596.14-.98 0-1.824-.2-2.534-.602-.709-.401-1.255-.98-1.638-1.736-.373-.756-.56-1.661-.56-2.716 0-1.036.187-1.932.56-2.688.374-.756.91-1.335 1.61-1.736.7-.41 1.522-.616 2.464-.616.654 0 1.26.103 1.82.308.56.196 1.032.48 1.414.854.159.159.238.322.238.49 0 .13-.037.247-.112.35-.074.093-.168.14-.28.14-.112 0-.242-.056-.392-.168-.485-.373-.924-.63-1.316-.77-.392-.15-.844-.224-1.358-.224-1.11 0-1.964.35-2.562 1.05-.588.7-.882 1.703-.882 3.01 0 1.335.299 2.352.896 3.052.607.69 1.494 1.036 2.66 1.036.868 0 1.657-.13 2.366-.392v-2.996h-2.044c-.158 0-.284-.042-.378-.126-.093-.084-.14-.191-.14-.322 0-.14.047-.247.14-.322.094-.084.22-.126.378-.126h2.618zm6.001-1.82c.392-.028.588.13.588.476 0 .15-.042.27-.126.364-.084.084-.228.135-.434.154l-.42.042c-.625.056-1.092.28-1.4.672-.298.383-.448.835-.448 1.358v3.402c0 .187-.051.327-.154.42-.102.093-.238.14-.406.14-.168 0-.308-.047-.42-.14-.102-.103-.154-.243-.154-.42v-5.908c0-.177.056-.313.168-.406.112-.103.248-.154.406-.154.15 0 .276.051.378.154.103.093.154.224.154.392v.784c.196-.41.472-.723.826-.938.364-.215.78-.34 1.246-.378l.196-.014zm4.253 7.056c-.644 0-1.213-.145-1.708-.434-.485-.29-.863-.7-1.134-1.232-.261-.541-.392-1.167-.392-1.876 0-.71.131-1.33.392-1.862.271-.541.649-.957 1.134-1.246.495-.29 1.064-.434 1.708-.434.644 0 1.213.145 1.708.434.495.29.873.705 1.134 1.246.271.532.406 1.153.406 1.862 0 .71-.135 1.335-.406 1.876-.261.532-.639.943-1.134 1.232-.495.29-1.064.434-1.708.434zm0-.938c.672 0 1.185-.22 1.54-.658.364-.448.546-1.097.546-1.946 0-.83-.182-1.47-.546-1.918-.364-.457-.877-.686-1.54-.686s-1.176.229-1.54.686c-.364.448-.546 1.087-.546 1.918 0 .84.177 1.484.532 1.932.364.448.882.672 1.554.672zm10.118-6.118c.177 0 .312.051.406.154.102.103.154.238.154.406v5.922c0 .159-.052.29-.154.392-.094.103-.229.154-.406.154-.168 0-.304-.047-.406-.14-.094-.103-.14-.233-.14-.392v-.7c-.215.41-.518.723-.91.938-.383.215-.817.322-1.302.322-.812 0-1.424-.224-1.834-.672-.411-.457-.616-1.13-.616-2.016v-3.808c0-.168.051-.303.154-.406.102-.103.242-.154.42-.154.177 0 .312.051.406.154.102.103.154.238.154.406v3.78c0 .607.121 1.055.364 1.344.242.28.625.42 1.148.42.597 0 1.078-.191 1.442-.574.364-.392.546-.905.546-1.54v-3.43c0-.168.051-.303.154-.406.102-.103.242-.154.42-.154zm6.097-.028c.598 0 1.125.15 1.582.448.458.299.812.719 1.064 1.26.252.532.378 1.153.378 1.862 0 .71-.126 1.33-.378 1.862-.252.523-.606.929-1.064 1.218-.448.29-.975.434-1.582.434-.532 0-.998-.117-1.4-.35-.392-.233-.69-.565-.896-.994v3.29c0 .168-.051.299-.154.392-.093.103-.228.154-.406.154-.177 0-.317-.051-.42-.154-.102-.103-.154-.233-.154-.392v-8.442c0-.168.052-.303.154-.406.103-.103.243-.154.42-.154.178 0 .313.051.406.154.103.103.154.238.154.406v.756c.206-.43.504-.76.896-.994.402-.233.868-.35 1.4-.35zm-.224 6.146c.663 0 1.176-.224 1.54-.672.364-.448.546-1.083.546-1.904s-.182-1.46-.546-1.918c-.364-.467-.877-.7-1.54-.7-.662 0-1.176.224-1.54.672-.354.448-.532 1.087-.532 1.918 0 .83.178 1.475.532 1.932.364.448.878.672 1.54.672zm8.93-2.422c-.168 0-.299-.042-.392-.126-.084-.084-.126-.196-.126-.336s.042-.252.126-.336c.093-.093.224-.14.392-.14h3.08c.177 0 .308.047.392.14.093.084.14.196.14.336s-.047.252-.14.336c-.084.084-.215.126-.392.126h-3.08zm16.725-6.678c.168 0 .298.056.392.168.093.103.14.243.14.42v8.834c0 .177-.052.322-.154.434-.094.103-.229.154-.406.154-.178 0-.332-.08-.462-.238l-5.81-7.77v7.42c0 .177-.052.322-.154.434-.094.103-.224.154-.392.154s-.299-.051-.392-.154c-.094-.112-.14-.257-.14-.434v-8.834c0-.177.046-.317.14-.42.102-.112.242-.168.42-.168.186 0 .345.08.476.238l5.796 7.77v-7.42c0-.177.046-.317.14-.42.102-.112.238-.168.406-.168zm5.631 10.038c-.644 0-1.213-.145-1.708-.434-.485-.29-.863-.7-1.134-1.232-.261-.541-.392-1.167-.392-1.876 0-.71.131-1.33.392-1.862.271-.541.649-.957 1.134-1.246.495-.29 1.064-.434 1.708-.434.644 0 1.214.145 1.708.434.495.29.873.705 1.134 1.246.271.532.406 1.153.406 1.862 0 .71-.135 1.335-.406 1.876-.261.532-.639.943-1.134 1.232-.494.29-1.064.434-1.708.434zm0-.938c.672 0 1.186-.22 1.54-.658.364-.448.546-1.097.546-1.946 0-.83-.182-1.47-.546-1.918-.364-.457-.877-.686-1.54-.686-.662 0-1.176.229-1.54.686-.364.448-.546 1.087-.546 1.918 0 .84.178 1.484.532 1.932.364.448.882.672 1.554.672zm8.074.014c.327.028.49.177.49.448 0 .159-.06.28-.182.364-.112.075-.284.103-.518.084l-.378-.028c-.746-.056-1.297-.28-1.652-.672-.354-.392-.532-.985-.532-1.778v-3.514h-.938c-.158 0-.284-.037-.378-.112-.084-.084-.126-.191-.126-.322 0-.14.042-.252.126-.336.094-.084.22-.126.378-.126h.938V69.6c0-.177.052-.313.154-.406.103-.103.243-.154.42-.154.168 0 .304.051.406.154.103.093.154.229.154.406v1.582h1.554c.15 0 .266.042.35.126.094.084.14.196.14.336 0 .13-.046.238-.14.322-.084.075-.2.112-.35.112h-1.554v3.57c0 .513.103.887.308 1.12.215.224.532.35.952.378l.378.028zm6.886-.756c.103 0 .192.042.266.126.075.084.112.191.112.322 0 .233-.163.448-.49.644-.336.196-.69.345-1.064.448-.373.093-.737.14-1.092.14-1.054 0-1.89-.313-2.506-.938-.606-.625-.91-1.489-.91-2.59 0-.7.136-1.316.406-1.848.271-.541.649-.961 1.134-1.26.495-.299 1.055-.448 1.68-.448.887 0 1.592.29 2.114.868.523.579.784 1.363.784 2.352 0 .187-.037.322-.112.406-.074.084-.196.126-.364.126h-4.508c.084 1.605.845 2.408 2.282 2.408.364 0 .677-.047.938-.14.262-.103.542-.238.84-.406.243-.14.406-.21.49-.21zm-2.45-4.522c-.597 0-1.078.187-1.442.56-.354.373-.564.9-.63 1.582h3.962c-.018-.69-.191-1.218-.518-1.582-.326-.373-.784-.56-1.372-.56zm6.851 6.202c-.429 0-.84-.051-1.232-.154-.383-.103-.723-.247-1.022-.434-.168-.112-.289-.215-.364-.308-.065-.103-.098-.224-.098-.364 0-.121.033-.22.098-.294.075-.084.168-.126.28-.126.112 0 .275.07.49.21.28.168.555.303.826.406.28.093.625.14 1.036.14.504 0 .896-.089 1.176-.266.28-.177.42-.434.42-.77 0-.205-.051-.369-.154-.49-.103-.13-.28-.243-.532-.336-.252-.103-.621-.205-1.106-.308-.821-.177-1.409-.415-1.764-.714s-.532-.705-.532-1.218c0-.401.112-.756.336-1.064.224-.308.532-.55.924-.728.401-.177.854-.266 1.358-.266.364 0 .714.051 1.05.154.345.093.649.229.91.406.317.224.476.457.476.7 0 .121-.037.224-.112.308-.075.084-.163.126-.266.126-.112 0-.28-.08-.504-.238-.261-.168-.509-.299-.742-.392-.233-.093-.523-.14-.868-.14-.439 0-.793.098-1.064.294-.261.196-.392.457-.392.784 0 .205.047.373.14.504.103.121.266.233.49.336.233.093.565.187.994.28.635.14 1.125.294 1.47.462.355.168.607.373.756.616.149.243.224.55.224.924 0 .588-.247 1.064-.742 1.428-.495.355-1.148.532-1.96.532z"/>
            <path stroke="#ADBBC4" stroke-dasharray="5 5" d="M167 85.5h180"/>
            <path fill="#000" d="M197.6 120.29c.047-.133.12-.233.22-.3.107-.067.223-.1.35-.1.16 0 .297.05.41.15.12.1.18.233.18.4 0 .06-.017.147-.05.26l-2.15 5.95c-.053.133-.143.237-.27.31-.12.073-.253.11-.4.11-.147 0-.283-.037-.41-.11-.127-.073-.213-.177-.26-.31l-1.66-4.71-1.69 4.71c-.053.133-.143.237-.27.31-.12.073-.253.11-.4.11-.147 0-.283-.037-.41-.11-.12-.073-.203-.177-.25-.31l-2.15-5.95c-.033-.1-.05-.187-.05-.26 0-.167.06-.3.18-.4.127-.1.273-.15.44-.15.133 0 .253.033.36.1.107.067.183.167.23.3l1.7 4.89 1.75-4.86c.047-.133.123-.237.23-.31.107-.08.223-.12.35-.12.127 0 .243.04.35.12.113.073.193.18.24.32l1.7 4.91 1.73-4.95zm5.622 1.7c1.147 0 1.72.67 1.72 2.01v2.46c0 .187-.056.333-.169.44-.107.107-.257.16-.451.16-.193 0-.346-.053-.46-.16-.113-.107-.17-.253-.17-.44V124c0-.353-.073-.61-.22-.77-.14-.167-.363-.25-.67-.25-.36 0-.65.113-.87.34-.213.227-.32.53-.32.91v2.23c0 .187-.056.333-.17.44-.113.107-.266.16-.46.16-.193 0-.346-.053-.46-.16-.106-.107-.16-.253-.16-.44v-5.98c0-.173.057-.313.17-.42.12-.107.274-.16.46-.16.187 0 .337.05.45.15.114.1.17.237.17.41v2.33c.167-.26.387-.457.66-.59.28-.14.597-.21.95-.21zm5.37 5.09c-.5 0-.94-.103-1.32-.31-.373-.207-.663-.503-.87-.89-.207-.387-.31-.837-.31-1.35 0-.513.103-.96.31-1.34.207-.387.497-.683.87-.89.38-.207.82-.31 1.32-.31.5 0 .937.103 1.31.31.38.207.67.503.87.89.207.38.31.827.31 1.34 0 .513-.103.963-.31 1.35-.2.387-.49.683-.87.89-.373.207-.81.31-1.31.31zm-.01-.97c.407 0 .717-.133.93-.4.213-.267.32-.66.32-1.18 0-.513-.107-.903-.32-1.17-.213-.273-.52-.41-.92-.41s-.71.137-.93.41c-.213.267-.32.657-.32 1.17 0 .52.107.913.32 1.18.213.267.52.4.92.4zm7.167.95c-.18 0-.33-.05-.45-.15-.113-.107-.17-.257-.17-.45v-3.86c0-.193.057-.34.17-.44.12-.1.27-.15.45-.15s.33.05.45.15c.12.1.18.247.18.44v3.86c0 .193-.06.343-.18.45-.12.1-.27.15-.45.15zm0-5.94c-.227 0-.407-.06-.54-.18-.133-.127-.2-.29-.2-.49s.067-.36.2-.48.313-.18.54-.18c.22 0 .397.06.53.18.14.12.21.28.21.48 0 .2-.067.363-.2.49-.133.12-.313.18-.54.18zm3.839 5.96c-.727 0-1.313-.143-1.76-.43-.213-.127-.32-.307-.32-.54 0-.133.037-.24.11-.32.073-.087.163-.13.27-.13.113 0 .27.053.47.16.213.1.407.177.58.23.18.053.407.08.68.08.28 0 .497-.047.65-.14.16-.093.24-.223.24-.39 0-.113-.033-.203-.1-.27-.06-.067-.173-.127-.34-.18-.16-.06-.407-.127-.74-.2-.593-.12-1.02-.29-1.28-.51-.253-.22-.38-.523-.38-.91 0-.293.087-.557.26-.79.173-.24.41-.423.71-.55.307-.133.653-.2 1.04-.2.28 0 .55.037.81.11.26.067.493.167.7.3.213.133.32.31.32.53 0 .133-.037.247-.11.34-.073.087-.163.13-.27.13-.073 0-.147-.013-.22-.04-.067-.033-.153-.08-.26-.14-.193-.1-.36-.173-.5-.22-.14-.053-.313-.08-.52-.08-.247 0-.443.05-.59.15-.14.1-.21.237-.21.41 0 .167.073.293.22.38.147.087.43.173.85.26.447.093.797.2 1.05.32s.433.27.54.45c.113.18.17.41.17.69 0 .453-.19.817-.57 1.09-.373.273-.873.41-1.5.41zm6.718-.02c-.18 0-.33-.05-.45-.15-.113-.107-.17-.257-.17-.45v-3.86c0-.193.057-.34.17-.44.12-.1.27-.15.45-.15s.33.05.45.15c.12.1.18.247.18.44v3.86c0 .193-.06.343-.18.45-.12.1-.27.15-.45.15zm0-5.94c-.226 0-.406-.06-.54-.18-.133-.127-.2-.29-.2-.49s.067-.36.2-.48c.134-.12.314-.18.54-.18.22 0 .397.06.53.18.14.12.21.28.21.48 0 .2-.066.363-.2.49-.133.12-.313.18-.54.18zm4.909.87c.587 0 1.024.167 1.31.5.287.333.43.837.43 1.51v2.46c0 .187-.056.333-.17.44-.106.107-.256.16-.45.16-.193 0-.346-.053-.46-.16-.113-.107-.17-.253-.17-.44v-2.39c0-.38-.073-.657-.22-.83-.14-.173-.363-.26-.67-.26-.36 0-.65.113-.87.34-.213.227-.32.53-.32.91v2.23c0 .187-.056.333-.17.44-.113.107-.266.16-.46.16-.193 0-.346-.053-.46-.16-.106-.107-.16-.253-.16-.44v-3.87c0-.173.057-.313.17-.42.114-.107.267-.16.46-.16.174 0 .314.053.42.16.114.1.17.233.17.4v.27c.167-.273.39-.483.67-.63.28-.147.597-.22.95-.22zm8.195 5.09c-.487 0-.917-.103-1.29-.31-.367-.207-.65-.5-.85-.88-.2-.38-.3-.823-.3-1.33 0-.507.103-.953.31-1.34.213-.393.51-.697.89-.91.38-.213.817-.32 1.31-.32.26 0 .52.037.78.11.267.073.5.173.7.3.213.14.32.317.32.53 0 .147-.037.267-.11.36-.067.087-.157.13-.27.13-.073 0-.15-.017-.23-.05-.08-.033-.16-.073-.24-.12-.147-.087-.287-.153-.42-.2-.133-.053-.287-.08-.46-.08-.413 0-.733.137-.96.41-.22.267-.33.653-.33 1.16 0 .5.11.887.33 1.16.227.267.547.4.96.4.167 0 .313-.023.44-.07.133-.053.28-.123.44-.21.1-.06.187-.103.26-.13.073-.033.147-.05.22-.05.107 0 .197.047.27.14.073.093.11.21.11.35 0 .113-.027.213-.08.3-.047.08-.127.153-.24.22-.207.133-.447.24-.72.32-.273.073-.553.11-.84.11zm5.723-5.09c1.146 0 1.72.67 1.72 2.01v2.46c0 .187-.057.333-.17.44-.107.107-.257.16-.45.16-.194 0-.347-.053-.46-.16-.114-.107-.17-.253-.17-.44V124c0-.353-.074-.61-.22-.77-.14-.167-.364-.25-.67-.25-.36 0-.65.113-.87.34-.214.227-.32.53-.32.91v2.23c0 .187-.057.333-.17.44-.114.107-.267.16-.46.16-.194 0-.347-.053-.46-.16-.107-.107-.16-.253-.16-.44v-5.98c0-.173.056-.313.17-.42.12-.107.273-.16.46-.16.186 0 .336.05.45.15.113.1.17.237.17.41v2.33c.166-.26.386-.457.66-.59.28-.14.596-.21.95-.21zm5.259 0c.68 0 1.184.17 1.51.51.334.333.5.843.5 1.53v2.44c0 .18-.053.323-.16.43-.106.1-.253.15-.44.15-.173 0-.316-.053-.43-.16-.106-.107-.16-.247-.16-.42v-.22c-.113.26-.293.463-.54.61-.24.147-.52.22-.84.22-.326 0-.623-.067-.89-.2-.266-.133-.476-.317-.63-.55-.153-.233-.23-.493-.23-.78 0-.36.09-.643.27-.85.187-.207.487-.357.9-.45.414-.093.984-.14 1.71-.14h.25v-.23c0-.327-.07-.563-.21-.71-.14-.153-.366-.23-.68-.23-.193 0-.39.03-.59.09-.2.053-.436.133-.71.24-.173.087-.3.13-.38.13-.12 0-.22-.043-.3-.13-.073-.087-.11-.2-.11-.34 0-.113.027-.21.08-.29.06-.087.157-.167.29-.24.234-.127.51-.227.83-.3.327-.073.647-.11.96-.11zm-.31 4.19c.334 0 .604-.11.81-.33.214-.227.32-.517.32-.87v-.21h-.18c-.446 0-.793.02-1.04.06-.246.04-.423.11-.53.21-.106.1-.16.237-.16.41 0 .213.074.39.22.53.154.133.34.2.56.2zm6.471-4.17c.173-.013.31.023.41.11.1.087.15.217.15.39 0 .18-.044.313-.13.4-.087.087-.244.143-.47.17l-.3.03c-.394.04-.684.173-.87.4-.18.227-.27.51-.27.85v2.1c0 .193-.06.343-.18.45-.12.1-.27.15-.45.15s-.33-.05-.45-.15c-.114-.107-.17-.257-.17-.45v-3.87c0-.187.056-.33.17-.43.12-.1.266-.15.44-.15.173 0 .313.05.42.15.106.093.16.23.16.41v.4c.126-.293.313-.52.56-.68.253-.16.533-.25.84-.27l.14-.01zm5.29 0c.187 0 .337.053.45.16.113.107.17.25.17.43v3.95c0 .767-.213 1.347-.64 1.74-.427.393-1.057.59-1.89.59-.727 0-1.333-.137-1.82-.41-.247-.147-.37-.323-.37-.53 0-.147.033-.263.1-.35.073-.087.167-.13.28-.13.06 0 .133.013.22.04.087.033.177.07.27.11.24.1.453.177.64.23.193.053.413.08.66.08.873 0 1.31-.427 1.31-1.28V126c-.147.273-.36.487-.64.64-.28.147-.6.22-.96.22-.427 0-.807-.1-1.14-.3-.327-.207-.583-.493-.77-.86-.187-.367-.28-.79-.28-1.27s.09-.903.27-1.27c.187-.373.447-.66.78-.86.333-.207.713-.31 1.14-.31.36 0 .68.077.96.23.28.147.493.357.64.63v-.26c0-.173.057-.313.17-.42.113-.107.263-.16.45-.16zm-1.89 3.88c.4 0 .71-.13.93-.39.227-.26.34-.617.34-1.07 0-.46-.113-.82-.34-1.08-.22-.26-.53-.39-.93-.39-.393 0-.703.13-.93.39-.227.26-.34.62-.34 1.08 0 .453.113.81.34 1.07.227.26.537.39.93.39zm7.825-.23c.113 0 .203.043.27.13.073.087.11.203.11.35 0 .207-.124.38-.37.52-.227.127-.484.23-.77.31-.287.073-.56.11-.82.11-.787 0-1.41-.227-1.87-.68-.46-.453-.69-1.073-.69-1.86 0-.5.1-.943.3-1.33.2-.387.48-.687.84-.9.366-.213.78-.32 1.24-.32.44 0 .823.097 1.15.29.326.193.58.467.76.82.18.353.27.77.27 1.25 0 .287-.127.43-.38.43h-2.95c.04.46.17.8.39 1.02.22.213.54.32.96.32.213 0 .4-.027.56-.08.166-.053.353-.127.56-.22.2-.107.346-.16.44-.16zm-1.73-2.79c-.34 0-.614.107-.82.32-.2.213-.32.52-.36.92h2.26c-.014-.407-.114-.713-.3-.92-.187-.213-.447-.32-.78-.32zm8.417 4.21c-.5 0-.94-.103-1.32-.31-.373-.207-.663-.503-.87-.89-.207-.387-.31-.837-.31-1.35 0-.513.103-.96.31-1.34.207-.387.497-.683.87-.89.38-.207.82-.31 1.32-.31.5 0 .937.103 1.31.31.38.207.67.503.87.89.207.38.31.827.31 1.34 0 .513-.103.963-.31 1.35-.2.387-.49.683-.87.89-.373.207-.81.31-1.31.31zm-.01-.97c.407 0 .717-.133.93-.4.213-.267.32-.66.32-1.18 0-.513-.107-.903-.32-1.17-.213-.273-.52-.41-.92-.41s-.71.137-.93.41c-.213.267-.32.657-.32 1.17 0 .52.107.913.32 1.18.213.267.52.4.92.4zm6.123-5.23c-.307.02-.53.113-.67.28-.14.167-.21.407-.21.72v.23h.85c.373 0 .56.157.56.47 0 .313-.187.47-.56.47h-.85v3.41c0 .193-.06.34-.18.44-.114.1-.26.15-.44.15s-.33-.05-.45-.15c-.12-.1-.18-.247-.18-.44v-3.41h-.5c-.374 0-.56-.157-.56-.47 0-.313.186-.47.56-.47h.5v-.07c0-.627.163-1.117.49-1.47.333-.36.8-.563 1.4-.61l.26-.02c.266-.02.453.01.56.09.113.073.17.19.17.35 0 .287-.164.447-.49.48l-.26.02zm10.739 1.5c.046-.12.113-.21.2-.27.093-.06.193-.09.3-.09.153 0 .29.053.41.16.126.1.19.227.19.38 0 .087-.017.163-.05.23l-1.65 3.87c-.054.127-.137.223-.25.29-.107.067-.227.1-.36.1-.127 0-.247-.033-.36-.1-.107-.067-.187-.163-.24-.29l-1.19-2.86-1.15 2.86c-.054.127-.137.223-.25.29-.107.067-.227.1-.36.1-.127 0-.247-.033-.36-.1-.114-.067-.197-.163-.25-.29l-1.64-3.87c-.034-.087-.05-.16-.05-.22 0-.153.066-.283.2-.39.133-.113.28-.17.44-.17.113 0 .216.03.31.09.093.06.163.15.21.27l1.18 3.05 1.21-3.02c.053-.127.13-.22.23-.28.1-.067.21-.1.33-.1.12 0 .23.033.33.1.1.06.176.153.23.28l1.22 3.03 1.17-3.05zm5.13-.39c1.147 0 1.72.67 1.72 2.01v2.46c0 .187-.057.333-.17.44-.107.107-.257.16-.45.16s-.347-.053-.46-.16c-.113-.107-.17-.253-.17-.44V124c0-.353-.073-.61-.22-.77-.14-.167-.363-.25-.67-.25-.36 0-.65.113-.87.34-.213.227-.32.53-.32.91v2.23c0 .187-.057.333-.17.44-.113.107-.267.16-.46.16s-.347-.053-.46-.16c-.107-.107-.16-.253-.16-.44v-5.98c0-.173.057-.313.17-.42.12-.107.273-.16.46-.16s.337.05.45.15c.113.1.17.237.17.41v2.33c.167-.26.387-.457.66-.59.28-.14.597-.21.95-.21zm5.26 0c.68 0 1.183.17 1.51.51.333.333.5.843.5 1.53v2.44c0 .18-.054.323-.16.43-.107.1-.254.15-.44.15-.174 0-.317-.053-.43-.16-.107-.107-.16-.247-.16-.42v-.22c-.114.26-.294.463-.54.61-.24.147-.52.22-.84.22-.327 0-.624-.067-.89-.2-.267-.133-.477-.317-.63-.55-.154-.233-.23-.493-.23-.78 0-.36.09-.643.27-.85.186-.207.486-.357.9-.45.413-.093.983-.14 1.71-.14h.25v-.23c0-.327-.07-.563-.21-.71-.14-.153-.367-.23-.68-.23-.194 0-.39.03-.59.09-.2.053-.437.133-.71.24-.174.087-.3.13-.38.13-.12 0-.22-.043-.3-.13-.074-.087-.11-.2-.11-.34 0-.113.026-.21.08-.29.06-.087.156-.167.29-.24.233-.127.51-.227.83-.3.326-.073.646-.11.96-.11zm-.31 4.19c.333 0 .603-.11.81-.33.213-.227.32-.517.32-.87v-.21h-.18c-.447 0-.794.02-1.04.06-.247.04-.424.11-.53.21-.107.1-.16.237-.16.41 0 .213.073.39.22.53.153.133.34.2.56.2zm6.28-.05c.333.02.5.17.5.45 0 .16-.067.283-.2.37-.127.08-.31.113-.55.1l-.27-.02c-1.12-.08-1.68-.68-1.68-1.8v-2.18h-.5c-.18 0-.32-.04-.42-.12-.093-.08-.14-.197-.14-.35 0-.153.047-.27.14-.35.1-.08.24-.12.42-.12h.5v-.92c0-.18.057-.323.17-.43.113-.107.267-.16.46-.16.187 0 .337.053.45.16.113.107.17.25.17.43v.92h.85c.18 0 .317.04.41.12.1.08.15.197.15.35 0 .153-.05.27-.15.35-.093.08-.23.12-.41.12h-.85v2.27c0 .493.227.757.68.79l.27.02zm2.91-1.17c-.113 0-.207-.04-.28-.12-.067-.08-.1-.19-.1-.33 0-.367.067-.677.2-.93s.327-.53.58-.83c.2-.24.347-.44.44-.6.093-.16.14-.34.14-.54 0-.22-.083-.393-.25-.52-.16-.133-.38-.2-.66-.2-.24 0-.47.053-.69.16-.22.1-.477.247-.77.44-.167.093-.303.14-.41.14-.113 0-.213-.05-.3-.15-.08-.107-.12-.23-.12-.37 0-.193.08-.35.24-.47.28-.24.61-.427.99-.56.38-.14.763-.21 1.15-.21.407 0 .767.07 1.08.21.32.14.567.333.74.58.18.247.27.53.27.85 0 .347-.083.65-.25.91-.167.253-.41.54-.73.86-.273.28-.48.517-.62.71-.133.187-.217.4-.25.64-.02.107-.067.19-.14.25-.067.053-.153.08-.26.08zm.02 2.1c-.213 0-.39-.07-.53-.21-.14-.147-.21-.327-.21-.54 0-.213.07-.39.21-.53.14-.147.317-.22.53-.22.213 0 .39.073.53.22.14.14.21.317.21.53 0 .213-.073.393-.22.54-.14.14-.313.21-.52.21zM189.02 144.67c-.12 0-.213-.03-.28-.09-.06-.06-.09-.14-.09-.24 0-.1.03-.18.09-.24.067-.067.16-.1.28-.1h2.2c.127 0 .22.033.28.1.067.06.1.14.1.24 0 .1-.033.18-.1.24-.06.06-.153.09-.28.09h-2.2zm6.506 2.38c-.166.013-.293-.01-.38-.07-.086-.06-.13-.15-.13-.27 0-.22.124-.333.37-.34l.3-.02c.34-.02.594-.123.76-.31.167-.193.25-.5.25-.92v-4.8c0-.127.04-.227.12-.3.08-.08.177-.12.29-.12.127 0 .227.04.3.12.074.073.11.173.11.3v4.81c0 .613-.14 1.077-.42 1.39-.28.307-.703.477-1.27.51l-.3.02zm5.782.02c-.46 0-.867-.103-1.22-.31-.347-.207-.617-.5-.81-.88-.187-.387-.28-.833-.28-1.34 0-.507.093-.95.28-1.33.193-.387.463-.683.81-.89.353-.207.76-.31 1.22-.31.46 0 .867.103 1.22.31.353.207.623.503.81.89.193.38.29.823.29 1.33 0 .507-.097.953-.29 1.34-.187.38-.457.673-.81.88-.353.207-.76.31-1.22.31zm0-.67c.48 0 .847-.157 1.1-.47.26-.32.39-.783.39-1.39 0-.593-.13-1.05-.39-1.37-.26-.327-.627-.49-1.1-.49-.473 0-.84.163-1.1.49-.26.32-.39.777-.39 1.37 0 .6.127 1.06.38 1.38.26.32.63.48 1.11.48zm6.137-4.39c.573 0 1.006.163 1.3.49.293.32.44.8.44 1.44v2.71c0 .127-.037.227-.11.3-.074.067-.17.1-.29.1-.127 0-.227-.033-.3-.1-.074-.073-.11-.173-.11-.3v-2.69c0-.433-.09-.753-.27-.96-.174-.207-.454-.31-.84-.31-.447 0-.804.137-1.07.41-.267.273-.4.643-.4 1.11v2.44c0 .127-.037.227-.11.3-.067.067-.164.1-.29.1-.127 0-.227-.033-.3-.1-.074-.073-.11-.173-.11-.3v-6.36c0-.113.036-.207.11-.28.08-.073.18-.11.3-.11.126 0 .223.037.29.11.073.067.11.16.11.28v2.62c.16-.293.383-.517.67-.67.286-.153.613-.23.98-.23zm5.823 0c1.167 0 1.75.643 1.75 1.93v2.71c0 .127-.036.227-.11.3-.066.067-.163.1-.29.1-.126 0-.226-.033-.3-.1-.073-.073-.11-.173-.11-.3v-2.66c0-.453-.09-.783-.27-.99-.173-.207-.453-.31-.84-.31-.446 0-.803.137-1.07.41-.266.273-.4.643-.4 1.11v2.44c0 .127-.036.227-.11.3-.066.067-.163.1-.29.1-.126 0-.226-.033-.3-.1-.073-.073-.11-.173-.11-.3v-4.22c0-.12.037-.217.11-.29.074-.073.174-.11.3-.11.12 0 .214.037.28.11.074.073.11.167.11.28v.51c.16-.3.384-.527.67-.68.287-.16.614-.24.98-.24zm5.834 0c1.167 0 1.75.643 1.75 1.93v2.71c0 .127-.037.227-.11.3-.067.067-.163.1-.29.1-.127 0-.227-.033-.3-.1-.073-.073-.11-.173-.11-.3v-2.66c0-.453-.09-.783-.27-.99-.173-.207-.453-.31-.84-.31-.447 0-.803.137-1.07.41-.267.273-.4.643-.4 1.11v2.44c0 .127-.037.227-.11.3-.067.067-.163.1-.29.1-.127 0-.227-.033-.3-.1-.073-.073-.11-.173-.11-.3v-4.22c0-.12.037-.217.11-.29.073-.073.173-.11.3-.11.12 0 .213.037.28.11.073.073.11.167.11.28v.51c.16-.3.383-.527.67-.68.287-.16.613-.24.98-.24zm6.894.27c.073-.16.19-.24.35-.24.1 0 .19.033.27.1.08.067.12.15.12.25 0 .06-.014.113-.04.16l-2.81 6.06c-.034.073-.084.13-.15.17-.06.04-.124.06-.19.06-.1 0-.19-.033-.27-.1-.074-.06-.11-.14-.11-.24 0-.053.013-.107.04-.16l.7-1.51-1.98-4.28c-.027-.047-.04-.097-.04-.15 0-.1.043-.187.13-.26.093-.073.193-.11.3-.11.066 0 .13.02.19.06.066.04.116.097.15.17l1.67 3.75 1.67-3.73zm2.176.87c-.16 0-.293-.05-.4-.15-.106-.107-.16-.243-.16-.41 0-.167.054-.3.16-.4.107-.107.24-.16.4-.16.154 0 .28.053.38.16.107.1.16.233.16.4s-.053.303-.16.41c-.1.1-.226.15-.38.15zm0 3.9c-.16 0-.293-.05-.4-.15-.106-.107-.16-.243-.16-.41 0-.167.054-.303.16-.41.107-.107.24-.16.4-.16.154 0 .28.053.38.16.107.107.16.243.16.41 0 .167-.053.303-.16.41-.1.1-.226.15-.38.15zm8.674-7.15c.126 0 .226.037.3.11.073.073.11.167.11.28v6.36c0 .12-.037.217-.11.29-.074.073-.174.11-.3.11-.127 0-.227-.037-.3-.11-.067-.073-.1-.17-.1-.29v-.54c-.147.307-.364.543-.65.71-.28.167-.61.25-.99.25-.427 0-.804-.107-1.13-.32-.327-.213-.58-.51-.76-.89-.18-.387-.27-.833-.27-1.34 0-.5.09-.94.27-1.32.18-.38.433-.673.76-.88.326-.207.703-.31 1.13-.31.38 0 .71.083.99.25.286.167.503.403.65.71v-2.68c0-.12.033-.213.1-.28.073-.073.173-.11.3-.11zm-1.88 6.5c.473 0 .836-.16 1.09-.48.26-.327.39-.787.39-1.38 0-.593-.13-1.05-.39-1.37-.254-.32-.617-.48-1.09-.48-.474 0-.844.16-1.11.48-.26.32-.39.77-.39 1.35 0 .593.13 1.057.39 1.39.266.327.636.49 1.11.49zm5.96.67c-.46 0-.867-.103-1.22-.31-.347-.207-.617-.5-.81-.88-.187-.387-.28-.833-.28-1.34 0-.507.093-.95.28-1.33.193-.387.463-.683.81-.89.353-.207.76-.31 1.22-.31.46 0 .867.103 1.22.31.353.207.623.503.81.89.193.38.29.823.29 1.33 0 .507-.097.953-.29 1.34-.187.38-.457.673-.81.88-.353.207-.76.31-1.22.31zm0-.67c.48 0 .847-.157 1.1-.47.26-.32.39-.783.39-1.39 0-.593-.13-1.05-.39-1.37-.26-.327-.627-.49-1.1-.49-.473 0-.84.163-1.1.49-.26.32-.39.777-.39 1.37 0 .6.127 1.06.38 1.38.26.32.63.48 1.11.48zm5.687.67c-.454 0-.857-.103-1.21-.31-.347-.207-.617-.5-.81-.88-.187-.38-.28-.82-.28-1.32 0-.5.096-.943.29-1.33.2-.387.476-.687.83-.9.353-.213.76-.32 1.22-.32.253 0 .503.037.75.11.253.067.473.167.66.3.12.08.203.16.25.24.053.073.08.157.08.25s-.027.17-.08.23c-.047.06-.11.09-.19.09-.047 0-.097-.013-.15-.04-.054-.027-.1-.053-.14-.08-.034-.027-.057-.043-.07-.05-.174-.113-.34-.203-.5-.27-.154-.067-.344-.1-.57-.1-.487 0-.867.167-1.14.5-.267.327-.4.783-.4 1.37 0 .587.133 1.04.4 1.36.273.32.653.48 1.14.48.226 0 .42-.033.58-.1.166-.067.333-.157.5-.27.073-.047.143-.087.21-.12.066-.033.123-.05.17-.05.073 0 .133.03.18.09.053.06.08.137.08.23 0 .087-.024.167-.07.24-.047.067-.134.143-.26.23-.187.127-.414.23-.68.31-.26.073-.524.11-.79.11zm6.625-5.04c.127 0 .223.037.29.11.073.073.11.17.11.29v4.23c0 .113-.037.207-.11.28-.067.073-.163.11-.29.11-.12 0-.217-.033-.29-.1-.067-.073-.1-.167-.1-.28v-.5c-.153.293-.37.517-.65.67-.273.153-.583.23-.93.23-.58 0-1.017-.16-1.31-.48-.293-.327-.44-.807-.44-1.44v-2.72c0-.12.037-.217.11-.29.073-.073.173-.11.3-.11s.223.037.29.11c.073.073.11.17.11.29v2.7c0 .433.087.753.26.96.173.2.447.3.82.3.427 0 .77-.137 1.03-.41.26-.28.39-.647.39-1.1v-2.45c0-.12.037-.217.11-.29.073-.073.173-.11.3-.11zm7.475-.02c1.08 0 1.62.643 1.62 1.93v2.71c0 .127-.036.227-.11.3-.073.067-.17.1-.29.1-.12 0-.22-.033-.3-.1-.073-.073-.11-.173-.11-.3v-2.69c0-.447-.08-.77-.24-.97-.16-.2-.41-.3-.75-.3-.406 0-.726.137-.96.41-.233.273-.35.643-.35 1.11v2.44c0 .127-.04.227-.12.3-.073.067-.17.1-.29.1-.12 0-.216-.033-.29-.1-.073-.073-.11-.173-.11-.3v-2.69c0-.447-.08-.77-.24-.97-.16-.2-.413-.3-.76-.3-.4 0-.72.137-.96.41-.233.273-.35.643-.35 1.11v2.44c0 .127-.036.227-.11.3-.073.067-.17.1-.29.1-.12 0-.22-.033-.3-.1-.073-.073-.11-.173-.11-.3v-4.22c0-.12.037-.217.11-.29.08-.073.18-.11.3-.11.114 0 .207.037.28.11.074.067.11.16.11.28v.48c.147-.287.35-.507.61-.66.26-.153.56-.23.9-.23.76 0 1.257.32 1.49.96.14-.293.354-.527.64-.7.287-.173.614-.26.98-.26zm7.016 3.86c.073 0 .137.03.19.09.053.06.08.137.08.23 0 .167-.117.32-.35.46-.24.14-.493.247-.76.32-.267.067-.527.1-.78.1-.753 0-1.35-.223-1.79-.67-.433-.447-.65-1.063-.65-1.85 0-.5.097-.94.29-1.32.193-.387.463-.687.81-.9.353-.213.753-.32 1.2-.32.633 0 1.137.207 1.51.62.373.413.56.973.56 1.68 0 .133-.027.23-.08.29-.053.06-.14.09-.26.09h-3.22c.06 1.147.603 1.72 1.63 1.72.26 0 .483-.033.67-.1.187-.073.387-.17.6-.29.173-.1.29-.15.35-.15zm-1.75-3.23c-.427 0-.77.133-1.03.4-.253.267-.403.643-.45 1.13h2.83c-.013-.493-.137-.87-.37-1.13-.233-.267-.56-.4-.98-.4zm5.853-.63c1.167 0 1.75.643 1.75 1.93v2.71c0 .127-.036.227-.11.3-.066.067-.163.1-.29.1-.126 0-.226-.033-.3-.1-.073-.073-.11-.173-.11-.3v-2.66c0-.453-.09-.783-.27-.99-.173-.207-.453-.31-.84-.31-.446 0-.803.137-1.07.41-.266.273-.4.643-.4 1.11v2.44c0 .127-.036.227-.11.3-.066.067-.163.1-.29.1-.126 0-.226-.033-.3-.1-.073-.073-.11-.173-.11-.3v-4.22c0-.12.037-.217.11-.29.074-.073.174-.11.3-.11.12 0 .214.037.28.11.074.073.11.167.11.28v.51c.16-.3.384-.527.67-.68.287-.16.614-.24.98-.24zm5.634 4.4c.233.02.35.127.35.32 0 .113-.043.2-.13.26-.08.053-.203.073-.37.06l-.27-.02c-.533-.04-.927-.2-1.18-.48-.253-.28-.38-.703-.38-1.27v-2.51h-.67c-.113 0-.203-.027-.27-.08-.06-.06-.09-.137-.09-.23 0-.1.03-.18.09-.24.067-.06.157-.09.27-.09h.67V141c0-.127.037-.223.11-.29.073-.073.173-.11.3-.11.12 0 .217.037.29.11.073.067.11.163.11.29v1.13h1.11c.107 0 .19.03.25.09.067.06.1.14.1.24 0 .093-.033.17-.1.23-.06.053-.143.08-.25.08h-1.11v2.55c0 .367.073.633.22.8.153.16.38.25.68.27l.27.02zm3.288-4.4c1.22 0 1.83.64 1.83 1.92v2.72c0 .12-.036.217-.11.29-.066.073-.16.11-.28.11-.12 0-.216-.037-.29-.11-.073-.073-.11-.17-.11-.29v-.48c-.126.287-.32.51-.58.67-.26.153-.56.23-.9.23-.313 0-.603-.063-.87-.19-.26-.127-.466-.303-.62-.53-.153-.227-.23-.477-.23-.75 0-.367.094-.65.28-.85.187-.207.494-.353.92-.44.427-.093 1.02-.14 1.78-.14h.22v-.33c0-.4-.083-.693-.25-.88-.16-.187-.423-.28-.79-.28-.453 0-.913.123-1.38.37-.18.113-.306.17-.38.17-.08 0-.146-.03-.2-.09-.053-.06-.08-.137-.08-.23s.027-.173.08-.24c.06-.073.154-.147.28-.22.234-.133.497-.237.79-.31.3-.08.597-.12.89-.12zm-.33 4.42c.4 0 .727-.133.98-.4.26-.273.39-.623.39-1.05v-.29h-.18c-.586 0-1.033.027-1.34.08-.306.047-.526.13-.66.25-.126.113-.19.283-.19.51 0 .26.094.477.28.65.194.167.434.25.72.25zm6.043-.02c.234.02.35.127.35.32 0 .113-.043.2-.13.26-.08.053-.203.073-.37.06l-.27-.02c-.533-.04-.926-.2-1.18-.48-.253-.28-.38-.703-.38-1.27v-2.51h-.67c-.113 0-.203-.027-.27-.08-.06-.06-.09-.137-.09-.23 0-.1.03-.18.09-.24.067-.06.157-.09.27-.09h.67V141c0-.127.037-.223.11-.29.074-.073.174-.11.3-.11.12 0 .217.037.29.11.074.067.11.163.11.29v1.13h1.11c.107 0 .19.03.25.09.067.06.1.14.1.24 0 .093-.033.17-.1.23-.06.053-.143.08-.25.08h-1.11v2.55c0 .367.074.633.22.8.154.16.38.25.68.27l.27.02zm1.709.64c-.12 0-.22-.033-.3-.1-.074-.073-.11-.173-.11-.3v-4.22c0-.127.036-.223.11-.29.08-.073.18-.11.3-.11s.216.037.29.11c.073.067.11.163.11.29v4.22c0 .133-.037.233-.11.3-.074.067-.17.1-.29.1zm0-6.07c-.16 0-.29-.047-.39-.14-.1-.093-.15-.217-.15-.37 0-.147.05-.267.15-.36.1-.093.23-.14.39-.14s.29.047.39.14c.1.093.15.213.15.36 0 .153-.05.277-.15.37-.1.093-.23.14-.39.14zm4.084 6.09c-.46 0-.867-.103-1.22-.31-.347-.207-.617-.5-.81-.88-.187-.387-.28-.833-.28-1.34 0-.507.093-.95.28-1.33.193-.387.463-.683.81-.89.353-.207.76-.31 1.22-.31.46 0 .867.103 1.22.31.353.207.623.503.81.89.193.38.29.823.29 1.33 0 .507-.097.953-.29 1.34-.187.38-.457.673-.81.88-.353.207-.76.31-1.22.31zm0-.67c.48 0 .847-.157 1.1-.47.26-.32.39-.783.39-1.39 0-.593-.13-1.05-.39-1.37-.26-.327-.627-.49-1.1-.49-.473 0-.84.163-1.1.49-.26.32-.39.777-.39 1.37 0 .6.127 1.06.38 1.38.26.32.63.48 1.11.48zm6.127-4.39c1.166 0 1.75.643 1.75 1.93v2.71c0 .127-.037.227-.11.3-.067.067-.164.1-.29.1-.127 0-.227-.033-.3-.1-.074-.073-.11-.173-.11-.3v-2.66c0-.453-.09-.783-.27-.99-.174-.207-.454-.31-.84-.31-.447 0-.804.137-1.07.41-.267.273-.4.643-.4 1.11v2.44c0 .127-.037.227-.11.3-.067.067-.164.1-.29.1-.127 0-.227-.033-.3-.1-.074-.073-.11-.173-.11-.3v-4.22c0-.12.036-.217.11-.29.073-.073.173-.11.3-.11.12 0 .213.037.28.11.073.073.11.167.11.28v.51c.16-.3.383-.527.67-.68.286-.16.613-.24.98-.24zM189.02 158.67c-.12 0-.213-.03-.28-.09-.06-.06-.09-.14-.09-.24 0-.1.03-.18.09-.24.067-.067.16-.1.28-.1h2.2c.127 0 .22.033.28.1.067.06.1.14.1.24 0 .1-.033.18-.1.24-.06.06-.153.09-.28.09h-2.2zm11.386-4.61c.08-.1.177-.15.29-.15.094 0 .177.037.25.11.074.073.11.163.11.27 0 .1-.03.183-.09.25l-2.43 3.07v3.02c0 .133-.04.237-.12.31-.073.073-.17.11-.29.11-.12 0-.22-.037-.3-.11-.073-.073-.11-.177-.11-.31v-3.03l-2.43-3.06c-.066-.073-.1-.157-.1-.25 0-.107.037-.197.11-.27.08-.073.17-.11.27-.11.114 0 .21.05.29.15l2.28 2.91 2.27-2.91zm2.884 7.01c-.46 0-.866-.103-1.22-.31-.346-.207-.616-.5-.81-.88-.186-.387-.28-.833-.28-1.34 0-.507.094-.95.28-1.33.194-.387.464-.683.81-.89.354-.207.76-.31 1.22-.31.46 0 .867.103 1.22.31.354.207.624.503.81.89.194.38.29.823.29 1.33 0 .507-.096.953-.29 1.34-.186.38-.456.673-.81.88-.353.207-.76.31-1.22.31zm0-.67c.48 0 .847-.157 1.1-.47.26-.32.39-.783.39-1.39 0-.593-.13-1.05-.39-1.37-.26-.327-.626-.49-1.1-.49-.473 0-.84.163-1.1.49-.26.32-.39.777-.39 1.37 0 .6.127 1.06.38 1.38.26.32.63.48 1.11.48zm6.127-4.39c1.167 0 1.75.643 1.75 1.93v2.71c0 .127-.036.227-.11.3-.066.067-.163.1-.29.1-.126 0-.226-.033-.3-.1-.073-.073-.11-.173-.11-.3v-2.66c0-.453-.09-.783-.27-.99-.173-.207-.453-.31-.84-.31-.446 0-.803.137-1.07.41-.266.273-.4.643-.4 1.11v2.44c0 .127-.036.227-.11.3-.066.067-.163.1-.29.1-.126 0-.226-.033-.3-.1-.073-.073-.11-.173-.11-.3v-4.22c0-.12.037-.217.11-.29.074-.073.174-.11.3-.11.12 0 .214.037.28.11.074.073.11.167.11.28v.51c.16-.3.384-.527.67-.68.287-.16.614-.24.98-.24zm7.334.02c.126 0 .226.037.3.11.073.073.11.17.11.29v4.24c0 .727-.187 1.273-.56 1.64-.374.373-.927.56-1.66.56-.714 0-1.307-.14-1.78-.42-.24-.133-.36-.287-.36-.46 0-.093.023-.17.07-.23.053-.06.12-.09.2-.09.066 0 .186.047.36.14.233.12.463.217.69.29.226.073.496.11.81.11.473 0 .83-.127 1.07-.38.24-.247.36-.61.36-1.09v-.86c-.14.313-.357.553-.65.72-.287.167-.627.25-1.02.25-.427 0-.807-.1-1.14-.3-.327-.2-.584-.483-.77-.85-.18-.367-.27-.79-.27-1.27s.09-.903.27-1.27c.186-.367.443-.65.77-.85.333-.2.713-.3 1.14-.3.386 0 .723.083 1.01.25.286.167.503.403.65.71v-.54c0-.12.033-.217.1-.29.073-.073.173-.11.3-.11zm-1.9 4.15c.466 0 .833-.153 1.1-.46.266-.313.4-.743.4-1.29 0-.54-.134-.963-.4-1.27-.26-.313-.627-.47-1.1-.47-.474 0-.847.157-1.12.47-.267.307-.4.73-.4 1.27 0 .547.133.977.4 1.29.273.307.646.46 1.12.46zm4.359-3.03c-.16 0-.293-.05-.4-.15-.107-.107-.16-.243-.16-.41 0-.167.053-.3.16-.4.107-.107.24-.16.4-.16.153 0 .28.053.38.16.107.1.16.233.16.4s-.053.303-.16.41c-.1.1-.227.15-.38.15zm0 3.9c-.16 0-.293-.05-.4-.15-.107-.107-.16-.243-.16-.41 0-.167.053-.303.16-.41.107-.107.24-.16.4-.16.153 0 .28.053.38.16.107.107.16.243.16.41 0 .167-.053.303-.16.41-.1.1-.227.15-.38.15zm7.213-5.04c.427 0 .804.107 1.13.32.327.213.58.513.76.9.18.38.27.823.27 1.33 0 .507-.09.95-.27 1.33-.18.373-.433.663-.76.87-.32.207-.696.31-1.13.31-.38 0-.713-.083-1-.25-.28-.167-.493-.403-.64-.71v2.35c0 .12-.036.213-.11.28-.066.073-.163.11-.29.11-.126 0-.226-.037-.3-.11-.073-.073-.11-.167-.11-.28v-6.03c0-.12.037-.217.11-.29.074-.073.174-.11.3-.11.127 0 .224.037.29.11.074.073.11.17.11.29v.54c.147-.307.36-.543.64-.71.287-.167.62-.25 1-.25zm-.16 4.39c.474 0 .84-.16 1.1-.48.26-.32.39-.773.39-1.36 0-.587-.13-1.043-.39-1.37-.26-.333-.626-.5-1.1-.5-.473 0-.84.16-1.1.48-.253.32-.38.777-.38 1.37 0 .593.127 1.053.38 1.38.26.32.627.48 1.1.48zm6.091-4.37c.28-.02.42.093.42.34 0 .107-.03.193-.09.26-.06.06-.164.097-.31.11l-.3.03c-.447.04-.78.2-1 .48-.214.273-.32.597-.32.97v2.43c0 .133-.037.233-.11.3-.074.067-.17.1-.29.1-.12 0-.22-.033-.3-.1-.074-.073-.11-.173-.11-.3v-4.22c0-.127.04-.223.12-.29.08-.073.176-.11.29-.11.106 0 .196.037.27.11.073.067.11.16.11.28v.56c.14-.293.336-.517.59-.67.26-.153.556-.243.89-.27l.14-.01zm4.937 3.84c.074 0 .137.03.19.09.054.06.08.137.08.23 0 .167-.116.32-.35.46-.24.14-.493.247-.76.32-.266.067-.526.1-.78.1-.753 0-1.35-.223-1.79-.67-.433-.447-.65-1.063-.65-1.85 0-.5.097-.94.29-1.32.194-.387.464-.687.81-.9.354-.213.754-.32 1.2-.32.634 0 1.137.207 1.51.62.374.413.56.973.56 1.68 0 .133-.026.23-.08.29-.053.06-.14.09-.26.09h-3.22c.06 1.147.604 1.72 1.63 1.72.26 0 .484-.033.67-.1.187-.073.387-.17.6-.29.174-.1.29-.15.35-.15zm-1.75-3.23c-.426 0-.77.133-1.03.4-.253.267-.403.643-.45 1.13h2.83c-.013-.493-.136-.87-.37-1.13-.233-.267-.56-.4-.98-.4zm5.044 4.43c-.307 0-.6-.037-.88-.11-.273-.073-.517-.177-.73-.31-.12-.08-.207-.153-.26-.22-.047-.073-.07-.16-.07-.26 0-.087.023-.157.07-.21.053-.06.12-.09.2-.09.08 0 .197.05.35.15.2.12.397.217.59.29.2.067.447.1.74.1.36 0 .64-.063.84-.19.2-.127.3-.31.3-.55 0-.147-.037-.263-.11-.35-.073-.093-.2-.173-.38-.24-.18-.073-.443-.147-.79-.22-.587-.127-1.007-.297-1.26-.51-.253-.213-.38-.503-.38-.87 0-.287.08-.54.24-.76.16-.22.38-.393.66-.52.287-.127.61-.19.97-.19.26 0 .51.037.75.11.247.067.463.163.65.29.227.16.34.327.34.5 0 .087-.027.16-.08.22-.053.06-.117.09-.19.09-.08 0-.2-.057-.36-.17-.187-.12-.363-.213-.53-.28-.167-.067-.373-.1-.62-.1-.313 0-.567.07-.76.21-.187.14-.28.327-.28.56 0 .147.033.267.1.36.073.087.19.167.35.24.167.067.403.133.71.2.453.1.803.21 1.05.33.253.12.433.267.54.44.107.173.16.393.16.66 0 .42-.177.76-.53 1.02-.353.253-.82.38-1.4.38zm7.085-1.2c.073 0 .136.03.19.09.053.06.08.137.08.23 0 .167-.117.32-.35.46-.24.14-.494.247-.76.32-.267.067-.527.1-.78.1-.754 0-1.35-.223-1.79-.67-.434-.447-.65-1.063-.65-1.85 0-.5.096-.94.29-1.32.193-.387.463-.687.81-.9.353-.213.753-.32 1.2-.32.633 0 1.136.207 1.51.62.373.413.56.973.56 1.68 0 .133-.027.23-.08.29-.054.06-.14.09-.26.09h-3.22c.06 1.147.603 1.72 1.63 1.72.26 0 .483-.033.67-.1.186-.073.386-.17.6-.29.173-.1.29-.15.35-.15zm-1.75-3.23c-.427 0-.77.133-1.03.4-.254.267-.404.643-.45 1.13h2.83c-.014-.493-.137-.87-.37-1.13-.234-.267-.56-.4-.98-.4zm5.853-.63c1.167 0 1.75.643 1.75 1.93v2.71c0 .127-.037.227-.11.3-.067.067-.163.1-.29.1-.127 0-.227-.033-.3-.1-.073-.073-.11-.173-.11-.3v-2.66c0-.453-.09-.783-.27-.99-.173-.207-.453-.31-.84-.31-.447 0-.803.137-1.07.41-.267.273-.4.643-.4 1.11v2.44c0 .127-.037.227-.11.3-.067.067-.163.1-.29.1-.127 0-.227-.033-.3-.1-.073-.073-.11-.173-.11-.3v-4.22c0-.12.037-.217.11-.29.073-.073.173-.11.3-.11.12 0 .213.037.28.11.073.073.11.167.11.28v.51c.16-.3.383-.527.67-.68.287-.16.613-.24.98-.24zm5.634 4.4c.233.02.35.127.35.32 0 .113-.044.2-.13.26-.08.053-.204.073-.37.06l-.27-.02c-.534-.04-.927-.2-1.18-.48-.254-.28-.38-.703-.38-1.27v-2.51h-.67c-.114 0-.204-.027-.27-.08-.06-.06-.09-.137-.09-.23 0-.1.03-.18.09-.24.066-.06.156-.09.27-.09h.67V155c0-.127.036-.223.11-.29.073-.073.173-.11.3-.11.12 0 .216.037.29.11.073.067.11.163.11.29v1.13h1.11c.106 0 .19.03.25.09.066.06.1.14.1.24 0 .093-.034.17-.1.23-.06.053-.144.08-.25.08h-1.11v2.55c0 .367.073.633.22.8.153.16.38.25.68.27l.27.02zm3.288-4.4c1.22 0 1.83.64 1.83 1.92v2.72c0 .12-.037.217-.11.29-.067.073-.16.11-.28.11-.12 0-.217-.037-.29-.11-.073-.073-.11-.17-.11-.29v-.48c-.127.287-.32.51-.58.67-.26.153-.56.23-.9.23-.313 0-.603-.063-.87-.19-.26-.127-.467-.303-.62-.53-.153-.227-.23-.477-.23-.75 0-.367.093-.65.28-.85.187-.207.493-.353.92-.44.427-.093 1.02-.14 1.78-.14h.22v-.33c0-.4-.083-.693-.25-.88-.16-.187-.423-.28-.79-.28-.453 0-.913.123-1.38.37-.18.113-.307.17-.38.17-.08 0-.147-.03-.2-.09-.053-.06-.08-.137-.08-.23s.027-.173.08-.24c.06-.073.153-.147.28-.22.233-.133.497-.237.79-.31.3-.08.597-.12.89-.12zm-.33 4.42c.4 0 .727-.133.98-.4.26-.273.39-.623.39-1.05v-.29h-.18c-.587 0-1.033.027-1.34.08-.307.047-.527.13-.66.25-.127.113-.19.283-.19.51 0 .26.093.477.28.65.193.167.433.25.72.25zm6.043-.02c.233.02.35.127.35.32 0 .113-.044.2-.13.26-.08.053-.204.073-.37.06l-.27-.02c-.534-.04-.927-.2-1.18-.48-.254-.28-.38-.703-.38-1.27v-2.51h-.67c-.114 0-.204-.027-.27-.08-.06-.06-.09-.137-.09-.23 0-.1.03-.18.09-.24.066-.06.156-.09.27-.09h.67V155c0-.127.036-.223.11-.29.073-.073.173-.11.3-.11.12 0 .216.037.29.11.073.067.11.163.11.29v1.13h1.11c.106 0 .19.03.25.09.066.06.1.14.1.24 0 .093-.034.17-.1.23-.06.053-.144.08-.25.08h-1.11v2.55c0 .367.073.633.22.8.153.16.38.25.68.27l.27.02zm1.708.64c-.12 0-.22-.033-.3-.1-.073-.073-.11-.173-.11-.3v-4.22c0-.127.037-.223.11-.29.08-.073.18-.11.3-.11s.217.037.29.11c.074.067.11.163.11.29v4.22c0 .133-.036.233-.11.3-.073.067-.17.1-.29.1zm0-6.07c-.16 0-.29-.047-.39-.14-.1-.093-.15-.217-.15-.37 0-.147.05-.267.15-.36.1-.093.23-.14.39-.14s.29.047.39.14c.1.093.15.213.15.36 0 .153-.05.277-.15.37-.1.093-.23.14-.39.14zm4.084 6.09c-.46 0-.866-.103-1.22-.31-.346-.207-.616-.5-.81-.88-.186-.387-.28-.833-.28-1.34 0-.507.094-.95.28-1.33.194-.387.464-.683.81-.89.354-.207.76-.31 1.22-.31.46 0 .867.103 1.22.31.354.207.624.503.81.89.194.38.29.823.29 1.33 0 .507-.096.953-.29 1.34-.186.38-.456.673-.81.88-.353.207-.76.31-1.22.31zm0-.67c.48 0 .847-.157 1.1-.47.26-.32.39-.783.39-1.39 0-.593-.13-1.05-.39-1.37-.26-.327-.626-.49-1.1-.49-.473 0-.84.163-1.1.49-.26.32-.39.777-.39 1.37 0 .6.127 1.06.38 1.38.26.32.63.48 1.11.48zm6.127-4.39c1.167 0 1.75.643 1.75 1.93v2.71c0 .127-.036.227-.11.3-.066.067-.163.1-.29.1-.126 0-.226-.033-.3-.1-.073-.073-.11-.173-.11-.3v-2.66c0-.453-.09-.783-.27-.99-.173-.207-.453-.31-.84-.31-.446 0-.803.137-1.07.41-.266.273-.4.643-.4 1.11v2.44c0 .127-.036.227-.11.3-.066.067-.163.1-.29.1-.126 0-.226-.033-.3-.1-.073-.073-.11-.173-.11-.3v-4.22c0-.12.037-.217.11-.29.074-.073.174-.11.3-.11.12 0 .214.037.28.11.074.073.11.167.11.28v.51c.16-.3.384-.527.67-.68.287-.16.614-.24.98-.24zm-89.307 16.66c-.12 0-.213-.03-.28-.09-.06-.06-.09-.14-.09-.24 0-.1.03-.18.09-.24.067-.067.16-.1.28-.1h2.2c.127 0 .22.033.28.1.067.06.1.14.1.24 0 .1-.033.18-.1.24-.06.06-.153.09-.28.09h-2.2zm13.046 1.86c.027.053.04.11.04.17 0 .1-.04.183-.12.25-.073.067-.163.1-.27.1-.166 0-.283-.08-.35-.24l-.71-1.62h-3.77l-.72 1.62c-.066.16-.183.24-.35.24-.106 0-.2-.033-.28-.1-.08-.073-.12-.16-.12-.26 0-.053.014-.107.04-.16l2.86-6.36c.04-.093.1-.163.18-.21.08-.047.167-.07.26-.07.1 0 .19.027.27.08.08.047.14.113.18.2l2.86 6.36zm-4.88-2.02h3.17l-1.59-3.59-1.58 3.59zm8.556-2.5c1.166 0 1.75.643 1.75 1.93v2.71c0 .127-.037.227-.11.3-.067.067-.164.1-.29.1-.127 0-.227-.033-.3-.1-.074-.073-.11-.173-.11-.3v-2.66c0-.453-.09-.783-.27-.99-.174-.207-.454-.31-.84-.31-.447 0-.804.137-1.07.41-.267.273-.4.643-.4 1.11v2.44c0 .127-.037.227-.11.3-.067.067-.164.1-.29.1-.127 0-.227-.033-.3-.1-.074-.073-.11-.173-.11-.3v-4.22c0-.12.036-.217.11-.29.073-.073.173-.11.3-.11.12 0 .213.037.28.11.073.073.11.167.11.28v.51c.16-.3.383-.527.67-.68.286-.16.613-.24.98-.24zm7.293-2.11c.127 0 .227.037.3.11.074.073.11.167.11.28v6.36c0 .12-.036.217-.11.29-.073.073-.173.11-.3.11-.126 0-.226-.037-.3-.11-.066-.073-.1-.17-.1-.29v-.54c-.146.307-.363.543-.65.71-.28.167-.61.25-.99.25-.426 0-.803-.107-1.13-.32-.326-.213-.58-.51-.76-.89-.18-.387-.27-.833-.27-1.34 0-.5.09-.94.27-1.32.18-.38.434-.673.76-.88.327-.207.704-.31 1.13-.31.38 0 .71.083.99.25.287.167.504.403.65.71v-2.68c0-.12.034-.213.1-.28.074-.073.174-.11.3-.11zm-1.88 6.5c.474 0 .837-.16 1.09-.48.26-.327.39-.787.39-1.38 0-.593-.13-1.05-.39-1.37-.253-.32-.616-.48-1.09-.48-.473 0-.843.16-1.11.48-.26.32-.39.77-.39 1.35 0 .593.13 1.057.39 1.39.267.327.637.49 1.11.49zm6.351-4.37c.28-.02.42.093.42.34 0 .107-.03.193-.09.26-.06.06-.164.097-.31.11l-.3.03c-.447.04-.78.2-1 .48-.214.273-.32.597-.32.97v2.43c0 .133-.037.233-.11.3-.074.067-.17.1-.29.1-.12 0-.22-.033-.3-.1-.074-.073-.11-.173-.11-.3v-4.22c0-.127.04-.223.12-.29.08-.073.176-.11.29-.11.106 0 .196.037.27.11.073.067.11.16.11.28v.56c.14-.293.336-.517.59-.67.26-.153.556-.243.89-.27l.14-.01zm4.937 3.84c.074 0 .137.03.19.09.054.06.08.137.08.23 0 .167-.116.32-.35.46-.24.14-.493.247-.76.32-.266.067-.526.1-.78.1-.753 0-1.35-.223-1.79-.67-.433-.447-.65-1.063-.65-1.85 0-.5.097-.94.29-1.32.194-.387.464-.687.81-.9.354-.213.754-.32 1.2-.32.634 0 1.137.207 1.51.62.374.413.56.973.56 1.68 0 .133-.026.23-.08.29-.053.06-.14.09-.26.09h-3.22c.06 1.147.604 1.72 1.63 1.72.26 0 .484-.033.67-.1.187-.073.387-.17.6-.29.174-.1.29-.15.35-.15zm-1.75-3.23c-.426 0-.77.133-1.03.4-.253.267-.403.643-.45 1.13h2.83c-.013-.493-.136-.87-.37-1.13-.233-.267-.56-.4-.98-.4zm7.472 6c-.707-1.353-1.06-2.777-1.06-4.27 0-1.493.353-2.917 1.06-4.27.087-.153.203-.23.35-.23.08 0 .147.027.2.08.06.053.09.12.09.2 0 .047-.01.097-.03.15-.56 1.32-.84 2.677-.84 4.07 0 1.393.28 2.75.84 4.07.02.06.03.11.03.15 0 .087-.03.153-.09.2-.053.053-.12.08-.2.08-.147 0-.263-.077-.35-.23zm8.4-6.63c1.08 0 1.62.643 1.62 1.93v2.71c0 .127-.037.227-.11.3-.073.067-.17.1-.29.1-.12 0-.22-.033-.3-.1-.073-.073-.11-.173-.11-.3v-2.69c0-.447-.08-.77-.24-.97-.16-.2-.41-.3-.75-.3-.407 0-.727.137-.96.41-.233.273-.35.643-.35 1.11v2.44c0 .127-.04.227-.12.3-.073.067-.17.1-.29.1-.12 0-.217-.033-.29-.1-.073-.073-.11-.173-.11-.3v-2.69c0-.447-.08-.77-.24-.97-.16-.2-.413-.3-.76-.3-.4 0-.72.137-.96.41-.233.273-.35.643-.35 1.11v2.44c0 .127-.037.227-.11.3-.073.067-.17.1-.29.1-.12 0-.22-.033-.3-.1-.073-.073-.11-.173-.11-.3v-4.22c0-.12.037-.217.11-.29.08-.073.18-.11.3-.11.113 0 .207.037.28.11.073.067.11.16.11.28v.48c.147-.287.35-.507.61-.66.26-.153.56-.23.9-.23.76 0 1.257.32 1.49.96.14-.293.353-.527.64-.7.287-.173.613-.26.98-.26zm7.016 3.86c.073 0 .136.03.19.09.053.06.08.137.08.23 0 .167-.117.32-.35.46-.24.14-.494.247-.76.32-.267.067-.527.1-.78.1-.754 0-1.35-.223-1.79-.67-.434-.447-.65-1.063-.65-1.85 0-.5.096-.94.29-1.32.193-.387.463-.687.81-.9.353-.213.753-.32 1.2-.32.633 0 1.136.207 1.51.62.373.413.56.973.56 1.68 0 .133-.027.23-.08.29-.054.06-.14.09-.26.09h-3.22c.06 1.147.603 1.72 1.63 1.72.26 0 .483-.033.67-.1.186-.073.386-.17.6-.29.173-.1.29-.15.35-.15zm-1.75-3.23c-.427 0-.77.133-1.03.4-.254.267-.404.643-.45 1.13h2.83c-.014-.493-.137-.87-.37-1.13-.234-.267-.56-.4-.98-.4zm3.615 6c-.086.153-.206.23-.36.23-.08 0-.15-.027-.21-.08-.053-.047-.08-.11-.08-.19 0-.027.014-.08.04-.16.554-1.327.83-2.683.83-4.07 0-1.387-.276-2.743-.83-4.07-.026-.08-.04-.133-.04-.16 0-.08.027-.143.08-.19.06-.053.13-.08.21-.08.154 0 .274.077.36.23.7 1.36 1.05 2.783 1.05 4.27 0 1.487-.35 2.91-1.05 4.27zm3.385-5.49c-.16 0-.293-.05-.4-.15-.107-.107-.16-.243-.16-.41 0-.167.053-.3.16-.4.107-.107.24-.16.4-.16.153 0 .28.053.38.16.107.1.16.233.16.4s-.053.303-.16.41c-.1.1-.227.15-.38.15zm0 3.9c-.16 0-.293-.05-.4-.15-.107-.107-.16-.243-.16-.41 0-.167.053-.303.16-.41.107-.107.24-.16.4-.16.153 0 .28.053.38.16.107.107.16.243.16.41 0 .167-.053.303-.16.41-.1.1-.227.15-.38.15zm10.183-5.04c1.08 0 1.62.643 1.62 1.93v2.71c0 .127-.037.227-.11.3-.073.067-.17.1-.29.1-.12 0-.22-.033-.3-.1-.073-.073-.11-.173-.11-.3v-2.69c0-.447-.08-.77-.24-.97-.16-.2-.41-.3-.75-.3-.407 0-.727.137-.96.41-.233.273-.35.643-.35 1.11v2.44c0 .127-.04.227-.12.3-.073.067-.17.1-.29.1-.12 0-.217-.033-.29-.1-.073-.073-.11-.173-.11-.3v-2.69c0-.447-.08-.77-.24-.97-.16-.2-.413-.3-.76-.3-.4 0-.72.137-.96.41-.233.273-.35.643-.35 1.11v2.44c0 .127-.037.227-.11.3-.073.067-.17.1-.29.1-.12 0-.22-.033-.3-.1-.073-.073-.11-.173-.11-.3v-4.22c0-.12.037-.217.11-.29.08-.073.18-.11.3-.11.113 0 .207.037.28.11.073.067.11.16.11.28v.48c.147-.287.35-.507.61-.66.26-.153.56-.23.9-.23.76 0 1.257.32 1.49.96.14-.293.353-.527.64-.7.287-.173.613-.26.98-.26zm7.016 3.86c.073 0 .136.03.19.09.053.06.08.137.08.23 0 .167-.117.32-.35.46-.24.14-.494.247-.76.32-.267.067-.527.1-.78.1-.754 0-1.35-.223-1.79-.67-.434-.447-.65-1.063-.65-1.85 0-.5.096-.94.29-1.32.193-.387.463-.687.81-.9.353-.213.753-.32 1.2-.32.633 0 1.136.207 1.51.62.373.413.56.973.56 1.68 0 .133-.027.23-.08.29-.054.06-.14.09-.26.09h-3.22c.06 1.147.603 1.72 1.63 1.72.26 0 .483-.033.67-.1.186-.073.386-.17.6-.29.173-.1.29-.15.35-.15zm-1.75-3.23c-.427 0-.77.133-1.03.4-.254.267-.404.643-.45 1.13h2.83c-.014-.493-.137-.87-.37-1.13-.234-.267-.56-.4-.98-.4zm7.173 3.23c.074 0 .137.03.19.09.054.06.08.137.08.23 0 .167-.116.32-.35.46-.24.14-.493.247-.76.32-.266.067-.526.1-.78.1-.753 0-1.35-.223-1.79-.67-.433-.447-.65-1.063-.65-1.85 0-.5.097-.94.29-1.32.194-.387.464-.687.81-.9.354-.213.754-.32 1.2-.32.634 0 1.137.207 1.51.62.374.413.56.973.56 1.68 0 .133-.026.23-.08.29-.053.06-.14.09-.26.09h-3.22c.06 1.147.604 1.72 1.63 1.72.26 0 .484-.033.67-.1.187-.073.387-.17.6-.29.174-.1.29-.15.35-.15zm-1.75-3.23c-.426 0-.77.133-1.03.4-.253.267-.403.643-.45 1.13h2.83c-.013-.493-.136-.87-.37-1.13-.233-.267-.56-.4-.98-.4zm5.624 3.77c.234.02.35.127.35.32 0 .113-.043.2-.13.26-.08.053-.203.073-.37.06l-.27-.02c-.533-.04-.926-.2-1.18-.48-.253-.28-.38-.703-.38-1.27v-2.51h-.67c-.113 0-.203-.027-.27-.08-.06-.06-.09-.137-.09-.23 0-.1.03-.18.09-.24.067-.06.157-.09.27-.09h.67V169c0-.127.037-.223.11-.29.074-.073.174-.11.3-.11.12 0 .217.037.29.11.074.067.11.163.11.29v1.13h1.11c.107 0 .19.03.25.09.067.06.1.14.1.24 0 .093-.033.17-.1.23-.06.053-.143.08-.25.08h-1.11v2.55c0 .367.074.633.22.8.154.16.38.25.68.27l.27.02zm1.709.64c-.12 0-.22-.033-.3-.1-.074-.073-.11-.173-.11-.3v-4.22c0-.127.036-.223.11-.29.08-.073.18-.11.3-.11s.216.037.29.11c.073.067.11.163.11.29v4.22c0 .133-.037.233-.11.3-.074.067-.17.1-.29.1zm0-6.07c-.16 0-.29-.047-.39-.14-.1-.093-.15-.217-.15-.37 0-.147.05-.267.15-.36.1-.093.23-.14.39-.14s.29.047.39.14c.1.093.15.213.15.36 0 .153-.05.277-.15.37-.1.093-.23.14-.39.14zm4.514 1.03c1.167 0 1.75.643 1.75 1.93v2.71c0 .127-.037.227-.11.3-.067.067-.163.1-.29.1-.127 0-.227-.033-.3-.1-.073-.073-.11-.173-.11-.3v-2.66c0-.453-.09-.783-.27-.99-.173-.207-.453-.31-.84-.31-.447 0-.803.137-1.07.41-.267.273-.4.643-.4 1.11v2.44c0 .127-.037.227-.11.3-.067.067-.163.1-.29.1-.127 0-.227-.033-.3-.1-.073-.073-.11-.173-.11-.3v-4.22c0-.12.037-.217.11-.29.073-.073.173-.11.3-.11.12 0 .213.037.28.11.073.073.11.167.11.28v.51c.16-.3.383-.527.67-.68.287-.16.613-.24.98-.24zm7.334.02c.126 0 .226.037.3.11.073.073.11.17.11.29v4.24c0 .727-.187 1.273-.56 1.64-.374.373-.927.56-1.66.56-.714 0-1.307-.14-1.78-.42-.24-.133-.36-.287-.36-.46 0-.093.023-.17.07-.23.053-.06.12-.09.2-.09.066 0 .186.047.36.14.233.12.463.217.69.29.226.073.496.11.81.11.473 0 .83-.127 1.07-.38.24-.247.36-.61.36-1.09v-.86c-.14.313-.357.553-.65.72-.287.167-.627.25-1.02.25-.427 0-.807-.1-1.14-.3-.327-.2-.584-.483-.77-.85-.18-.367-.27-.79-.27-1.27s.09-.903.27-1.27c.186-.367.443-.65.77-.85.333-.2.713-.3 1.14-.3.386 0 .723.083 1.01.25.286.167.503.403.65.71v-.54c0-.12.033-.217.1-.29.073-.073.173-.11.3-.11zm-1.9 4.15c.466 0 .833-.153 1.1-.46.266-.313.4-.743.4-1.29 0-.54-.134-.963-.4-1.27-.26-.313-.627-.47-1.1-.47-.474 0-.847.157-1.12.47-.267.307-.4.73-.4 1.27 0 .547.133.977.4 1.29.273.307.646.46 1.12.46zm12.107-4.17c1.08 0 1.62.643 1.62 1.93v2.71c0 .127-.037.227-.11.3-.073.067-.17.1-.29.1-.12 0-.22-.033-.3-.1-.073-.073-.11-.173-.11-.3v-2.69c0-.447-.08-.77-.24-.97-.16-.2-.41-.3-.75-.3-.407 0-.727.137-.96.41-.233.273-.35.643-.35 1.11v2.44c0 .127-.04.227-.12.3-.073.067-.17.1-.29.1-.12 0-.217-.033-.29-.1-.073-.073-.11-.173-.11-.3v-2.69c0-.447-.08-.77-.24-.97-.16-.2-.413-.3-.76-.3-.4 0-.72.137-.96.41-.233.273-.35.643-.35 1.11v2.44c0 .127-.037.227-.11.3-.073.067-.17.1-.29.1-.12 0-.22-.033-.3-.1-.073-.073-.11-.173-.11-.3v-4.22c0-.12.037-.217.11-.29.08-.073.18-.11.3-.11.113 0 .207.037.28.11.073.067.11.16.11.28v.48c.147-.287.35-.507.61-.66.26-.153.56-.23.9-.23.76 0 1.257.32 1.49.96.14-.293.353-.527.64-.7.287-.173.613-.26.98-.26zm3.656 5.04c-.12 0-.22-.033-.3-.1-.074-.073-.11-.173-.11-.3v-4.22c0-.127.036-.223.11-.29.08-.073.18-.11.3-.11s.216.037.29.11c.073.067.11.163.11.29v4.22c0 .133-.037.233-.11.3-.074.067-.17.1-.29.1zm0-6.07c-.16 0-.29-.047-.39-.14-.1-.093-.15-.217-.15-.37 0-.147.05-.267.15-.36.1-.093.23-.14.39-.14s.29.047.39.14c.1.093.15.213.15.36 0 .153-.05.277-.15.37-.1.093-.23.14-.39.14zm4.514 1.03c1.167 0 1.75.643 1.75 1.93v2.71c0 .127-.037.227-.11.3-.067.067-.163.1-.29.1-.127 0-.227-.033-.3-.1-.073-.073-.11-.173-.11-.3v-2.66c0-.453-.09-.783-.27-.99-.173-.207-.453-.31-.84-.31-.447 0-.803.137-1.07.41-.267.273-.4.643-.4 1.11v2.44c0 .127-.037.227-.11.3-.067.067-.163.1-.29.1-.127 0-.227-.033-.3-.1-.073-.073-.11-.173-.11-.3v-4.22c0-.12.037-.217.11-.29.073-.073.173-.11.3-.11.12 0 .213.037.28.11.073.073.11.167.11.28v.51c.16-.3.383-.527.67-.68.287-.16.613-.24.98-.24zm7.084.02c.126 0 .223.037.29.11.073.073.11.17.11.29v4.23c0 .113-.037.207-.11.28-.067.073-.164.11-.29.11-.12 0-.217-.033-.29-.1-.067-.073-.1-.167-.1-.28v-.5c-.154.293-.37.517-.65.67-.274.153-.584.23-.93.23-.58 0-1.017-.16-1.31-.48-.294-.327-.44-.807-.44-1.44v-2.72c0-.12.036-.217.11-.29.073-.073.173-.11.3-.11.126 0 .223.037.29.11.073.073.11.17.11.29v2.7c0 .433.086.753.26.96.173.2.446.3.82.3.426 0 .77-.137 1.03-.41.26-.28.39-.647.39-1.1v-2.45c0-.12.036-.217.11-.29.073-.073.173-.11.3-.11zm4.305 4.38c.233.02.35.127.35.32 0 .113-.043.2-.13.26-.08.053-.203.073-.37.06l-.27-.02c-.533-.04-.927-.2-1.18-.48-.253-.28-.38-.703-.38-1.27v-2.51H316c-.113 0-.203-.027-.27-.08-.06-.06-.09-.137-.09-.23 0-.1.03-.18.09-.24.067-.06.157-.09.27-.09h.67V169c0-.127.037-.223.11-.29.073-.073.173-.11.3-.11.12 0 .217.037.29.11.073.067.11.163.11.29v1.13h1.11c.107 0 .19.03.25.09.067.06.1.14.1.24 0 .093-.033.17-.1.23-.06.053-.143.08-.25.08h-1.11v2.55c0 .367.073.633.22.8.153.16.38.25.68.27l.27.02zm5.068-.54c.074 0 .137.03.19.09.054.06.08.137.08.23 0 .167-.116.32-.35.46-.24.14-.493.247-.76.32-.266.067-.526.1-.78.1-.753 0-1.35-.223-1.79-.67-.433-.447-.65-1.063-.65-1.85 0-.5.097-.94.29-1.32.194-.387.464-.687.81-.9.354-.213.754-.32 1.2-.32.634 0 1.137.207 1.51.62.374.413.56.973.56 1.68 0 .133-.026.23-.08.29-.053.06-.14.09-.26.09h-3.22c.06 1.147.604 1.72 1.63 1.72.26 0 .484-.033.67-.1.187-.073.387-.17.6-.29.174-.1.29-.15.35-.15zm-1.75-3.23c-.426 0-.77.133-1.03.4-.253.267-.403.643-.45 1.13h2.83c-.013-.493-.136-.87-.37-1.13-.233-.267-.56-.4-.98-.4zm5.044 4.43c-.307 0-.6-.037-.88-.11-.273-.073-.517-.177-.73-.31-.12-.08-.207-.153-.26-.22-.047-.073-.07-.16-.07-.26 0-.087.023-.157.07-.21.053-.06.12-.09.2-.09.08 0 .197.05.35.15.2.12.397.217.59.29.2.067.447.1.74.1.36 0 .64-.063.84-.19.2-.127.3-.31.3-.55 0-.147-.037-.263-.11-.35-.073-.093-.2-.173-.38-.24-.18-.073-.443-.147-.79-.22-.587-.127-1.007-.297-1.26-.51-.253-.213-.38-.503-.38-.87 0-.287.08-.54.24-.76.16-.22.38-.393.66-.52.287-.127.61-.19.97-.19.26 0 .51.037.75.11.247.067.463.163.65.29.227.16.34.327.34.5 0 .087-.027.16-.08.22-.053.06-.117.09-.19.09-.08 0-.2-.057-.36-.17-.187-.12-.363-.213-.53-.28-.167-.067-.373-.1-.62-.1-.313 0-.567.07-.76.21-.187.14-.28.327-.28.56 0 .147.033.267.1.36.073.087.19.167.35.24.167.067.403.133.71.2.453.1.803.21 1.05.33.253.12.433.267.54.44.107.173.16.393.16.66 0 .42-.177.76-.53 1.02-.353.253-.82.38-1.4.38zm-137.992 11.6c-.12 0-.213-.03-.28-.09-.06-.06-.09-.14-.09-.24 0-.1.03-.18.09-.24.067-.067.16-.1.28-.1h2.2c.127 0 .22.033.28.1.067.06.1.14.1.24 0 .1-.033.18-.1.24-.06.06-.153.09-.28.09h-2.2zm12.416-4.77c.127 0 .224.04.29.12.074.073.11.173.11.3v6.31c0 .127-.036.23-.11.31-.066.073-.163.11-.29.11-.126 0-.226-.037-.3-.11-.073-.08-.11-.183-.11-.31v-2.86h-4.22v2.86c0 .127-.036.23-.11.31-.073.073-.173.11-.3.11-.126 0-.226-.037-.3-.11-.066-.08-.1-.183-.1-.31v-6.31c0-.127.034-.227.1-.3.074-.08.174-.12.3-.12.127 0 .227.04.3.12.074.073.11.173.11.3v2.75h4.22v-2.75c0-.127.037-.227.11-.3.074-.08.174-.12.3-.12zm4.158 2.11c1.22 0 1.83.64 1.83 1.92v2.72c0 .12-.036.217-.11.29-.066.073-.16.11-.28.11-.12 0-.216-.037-.29-.11-.073-.073-.11-.17-.11-.29v-.48c-.126.287-.32.51-.58.67-.26.153-.56.23-.9.23-.313 0-.603-.063-.87-.19-.26-.127-.466-.303-.62-.53-.153-.227-.23-.477-.23-.75 0-.367.094-.65.28-.85.187-.207.494-.353.92-.44.427-.093 1.02-.14 1.78-.14h.22v-.33c0-.4-.083-.693-.25-.88-.16-.187-.423-.28-.79-.28-.453 0-.913.123-1.38.37-.18.113-.306.17-.38.17-.08 0-.146-.03-.2-.09-.053-.06-.08-.137-.08-.23s.027-.173.08-.24c.06-.073.154-.147.28-.22.234-.133.497-.237.79-.31.3-.08.597-.12.89-.12zm-.33 4.42c.4 0 .727-.133.98-.4.26-.273.39-.623.39-1.05v-.29h-.18c-.586 0-1.033.027-1.34.08-.306.047-.526.13-.66.25-.126.113-.19.283-.19.51 0 .26.094.477.28.65.194.167.434.25.72.25zm6.243-4.42c1.167 0 1.75.643 1.75 1.93v2.71c0 .127-.037.227-.11.3-.067.067-.163.1-.29.1-.127 0-.227-.033-.3-.1-.073-.073-.11-.173-.11-.3v-2.66c0-.453-.09-.783-.27-.99-.173-.207-.453-.31-.84-.31-.447 0-.803.137-1.07.41-.267.273-.4.643-.4 1.11v2.44c0 .127-.037.227-.11.3-.067.067-.163.1-.29.1-.127 0-.227-.033-.3-.1-.073-.073-.11-.173-.11-.3v-4.22c0-.12.037-.217.11-.29.073-.073.173-.11.3-.11.12 0 .213.037.28.11.073.073.11.167.11.28v.51c.16-.3.383-.527.67-.68.287-.16.613-.24.98-.24zm5.834 0c1.166 0 1.75.643 1.75 1.93v2.71c0 .127-.037.227-.11.3-.067.067-.164.1-.29.1-.127 0-.227-.033-.3-.1-.074-.073-.11-.173-.11-.3v-2.66c0-.453-.09-.783-.27-.99-.174-.207-.454-.31-.84-.31-.447 0-.804.137-1.07.41-.267.273-.4.643-.4 1.11v2.44c0 .127-.037.227-.11.3-.067.067-.164.1-.29.1-.127 0-.227-.033-.3-.1-.074-.073-.11-.173-.11-.3v-4.22c0-.12.036-.217.11-.29.073-.073.173-.11.3-.11.12 0 .213.037.28.11.073.073.11.167.11.28v.51c.16-.3.383-.527.67-.68.286-.16.613-.24.98-.24zm5.373 0c1.22 0 1.83.64 1.83 1.92v2.72c0 .12-.036.217-.11.29-.066.073-.16.11-.28.11-.12 0-.216-.037-.29-.11-.073-.073-.11-.17-.11-.29v-.48c-.126.287-.32.51-.58.67-.26.153-.56.23-.9.23-.313 0-.603-.063-.87-.19-.26-.127-.466-.303-.62-.53-.153-.227-.23-.477-.23-.75 0-.367.094-.65.28-.85.187-.207.494-.353.92-.44.427-.093 1.02-.14 1.78-.14h.22v-.33c0-.4-.083-.693-.25-.88-.16-.187-.423-.28-.79-.28-.453 0-.913.123-1.38.37-.18.113-.306.17-.38.17-.08 0-.146-.03-.2-.09-.053-.06-.08-.137-.08-.23s.027-.173.08-.24c.06-.073.154-.147.28-.22.234-.133.497-.237.79-.31.3-.08.597-.12.89-.12zm-.33 4.42c.4 0 .727-.133.98-.4.26-.273.39-.623.39-1.05v-.29h-.18c-.586 0-1.033.027-1.34.08-.306.047-.526.13-.66.25-.126.113-.19.283-.19.51 0 .26.094.477.28.65.194.167.434.25.72.25zm6.253-4.42c.573 0 1.007.163 1.3.49.293.32.44.8.44 1.44v2.71c0 .127-.037.227-.11.3-.073.067-.17.1-.29.1-.127 0-.227-.033-.3-.1-.073-.073-.11-.173-.11-.3v-2.69c0-.433-.09-.753-.27-.96-.173-.207-.453-.31-.84-.31-.447 0-.803.137-1.07.41-.267.273-.4.643-.4 1.11v2.44c0 .127-.037.227-.11.3-.067.067-.163.1-.29.1-.127 0-.227-.033-.3-.1-.073-.073-.11-.173-.11-.3v-6.36c0-.113.037-.207.11-.28.08-.073.18-.11.3-.11.127 0 .223.037.29.11.073.067.11.16.11.28v2.62c.16-.293.383-.517.67-.67.287-.153.613-.23.98-.23zm3.774 1.14c-.16 0-.294-.05-.4-.15-.107-.107-.16-.243-.16-.41 0-.167.053-.3.16-.4.106-.107.24-.16.4-.16.153 0 .28.053.38.16.106.1.16.233.16.4s-.054.303-.16.41c-.1.1-.227.15-.38.15zm0 3.9c-.16 0-.294-.05-.4-.15-.107-.107-.16-.243-.16-.41 0-.167.053-.303.16-.41.106-.107.24-.16.4-.16.153 0 .28.053.38.16.106.107.16.243.16.41 0 .167-.054.303-.16.41-.1.1-.227.15-.38.15zm8.273-4.77c.073-.16.19-.24.35-.24.1 0 .19.033.27.1.08.067.12.15.12.25 0 .06-.014.113-.04.16l-1.95 4.2c-.04.087-.1.157-.18.21-.08.047-.167.07-.26.07-.087 0-.17-.023-.25-.07-.08-.053-.144-.123-.19-.21l-1.94-4.2c-.027-.047-.04-.097-.04-.15 0-.1.043-.187.13-.26.093-.073.193-.11.3-.11.066 0 .13.02.19.06.066.04.116.097.15.17l1.67 3.75 1.67-3.73zm2.314 4.77c-.12 0-.22-.033-.3-.1-.074-.073-.11-.173-.11-.3v-4.22c0-.127.036-.223.11-.29.08-.073.18-.11.3-.11s.216.037.29.11c.073.067.11.163.11.29v4.22c0 .133-.037.233-.11.3-.074.067-.17.1-.29.1zm0-6.07c-.16 0-.29-.047-.39-.14-.1-.093-.15-.217-.15-.37 0-.147.05-.267.15-.36.1-.093.23-.14.39-.14s.29.047.39.14c.1.093.15.213.15.36 0 .153-.05.277-.15.37-.1.093-.23.14-.39.14zm3.704 6.09c-.307 0-.6-.037-.88-.11-.274-.073-.517-.177-.73-.31-.12-.08-.207-.153-.26-.22-.047-.073-.07-.16-.07-.26 0-.087.023-.157.07-.21.053-.06.12-.09.2-.09.08 0 .196.05.35.15.2.12.396.217.59.29.2.067.446.1.74.1.36 0 .64-.063.84-.19.2-.127.3-.31.3-.55 0-.147-.037-.263-.11-.35-.074-.093-.2-.173-.38-.24-.18-.073-.444-.147-.79-.22-.587-.127-1.007-.297-1.26-.51-.254-.213-.38-.503-.38-.87 0-.287.08-.54.24-.76.16-.22.38-.393.66-.52.286-.127.61-.19.97-.19.26 0 .51.037.75.11.246.067.463.163.65.29.226.16.34.327.34.5 0 .087-.027.16-.08.22-.054.06-.117.09-.19.09-.08 0-.2-.057-.36-.17-.187-.12-.364-.213-.53-.28-.167-.067-.374-.1-.62-.1-.314 0-.567.07-.76.21-.187.14-.28.327-.28.56 0 .147.033.267.1.36.073.087.19.167.35.24.166.067.403.133.71.2.453.1.803.21 1.05.33.253.12.433.267.54.44.106.173.16.393.16.66 0 .42-.177.76-.53 1.02-.354.253-.82.38-1.4.38zm7.014-5.04c.127 0 .224.037.29.11.074.073.11.17.11.29v4.23c0 .113-.036.207-.11.28-.066.073-.163.11-.29.11-.12 0-.216-.033-.29-.1-.066-.073-.1-.167-.1-.28v-.5c-.153.293-.37.517-.65.67-.273.153-.583.23-.93.23-.58 0-1.016-.16-1.31-.48-.293-.327-.44-.807-.44-1.44v-2.72c0-.12.037-.217.11-.29.074-.073.174-.11.3-.11.127 0 .224.037.29.11.074.073.11.17.11.29v2.7c0 .433.087.753.26.96.174.2.447.3.82.3.427 0 .77-.137 1.03-.41.26-.28.39-.647.39-1.1v-2.45c0-.12.037-.217.11-.29.074-.073.174-.11.3-.11zm4.046-.02c1.22 0 1.83.64 1.83 1.92v2.72c0 .12-.037.217-.11.29-.067.073-.16.11-.28.11-.12 0-.217-.037-.29-.11-.073-.073-.11-.17-.11-.29v-.48c-.127.287-.32.51-.58.67-.26.153-.56.23-.9.23-.313 0-.603-.063-.87-.19-.26-.127-.467-.303-.62-.53-.153-.227-.23-.477-.23-.75 0-.367.093-.65.28-.85.187-.207.493-.353.92-.44.427-.093 1.02-.14 1.78-.14h.22v-.33c0-.4-.083-.693-.25-.88-.16-.187-.423-.28-.79-.28-.453 0-.913.123-1.38.37-.18.113-.307.17-.38.17-.08 0-.147-.03-.2-.09-.053-.06-.08-.137-.08-.23s.027-.173.08-.24c.06-.073.153-.147.28-.22.233-.133.497-.237.79-.31.3-.08.597-.12.89-.12zm-.33 4.42c.4 0 .727-.133.98-.4.26-.273.39-.623.39-1.05v-.29h-.18c-.587 0-1.033.027-1.34.08-.307.047-.527.13-.66.25-.127.113-.19.283-.19.51 0 .26.093.477.28.65.193.167.433.25.72.25zm4.203.62c-.12 0-.22-.033-.3-.1-.074-.073-.11-.173-.11-.3v-6.35c0-.127.036-.223.11-.29.08-.073.18-.11.3-.11.113 0 .206.037.28.11.08.067.12.163.12.29v6.35c0 .127-.04.227-.12.3-.074.067-.167.1-.28.1zm3.704.02c-.307 0-.6-.037-.88-.11-.274-.073-.517-.177-.73-.31-.12-.08-.207-.153-.26-.22-.047-.073-.07-.16-.07-.26 0-.087.023-.157.07-.21.053-.06.12-.09.2-.09.08 0 .196.05.35.15.2.12.396.217.59.29.2.067.446.1.74.1.36 0 .64-.063.84-.19.2-.127.3-.31.3-.55 0-.147-.037-.263-.11-.35-.074-.093-.2-.173-.38-.24-.18-.073-.444-.147-.79-.22-.587-.127-1.007-.297-1.26-.51-.254-.213-.38-.503-.38-.87 0-.287.08-.54.24-.76.16-.22.38-.393.66-.52.286-.127.61-.19.97-.19.26 0 .51.037.75.11.246.067.463.163.65.29.226.16.34.327.34.5 0 .087-.027.16-.08.22-.054.06-.117.09-.19.09-.08 0-.2-.057-.36-.17-.187-.12-.364-.213-.53-.28-.167-.067-.374-.1-.62-.1-.314 0-.567.07-.76.21-.187.14-.28.327-.28.56 0 .147.033.267.1.36.073.087.19.167.35.24.166.067.403.133.71.2.453.1.803.21 1.05.33.253.12.433.267.54.44.106.173.16.393.16.66 0 .42-.177.76-.53 1.02-.354.253-.82.38-1.4.38zm-76.319 11.6c-.12 0-.213-.03-.28-.09-.06-.06-.09-.14-.09-.24 0-.1.03-.18.09-.24.067-.067.16-.1.28-.1h2.2c.127 0 .22.033.28.1.067.06.1.14.1.24 0 .1-.033.18-.1.24-.06.06-.153.09-.28.09h-2.2zm12.356 1.82c.047.073.07.15.07.23 0 .1-.04.183-.12.25-.073.06-.16.09-.26.09-.153 0-.273-.067-.36-.2l-1.34-2.12c-.173-.273-.353-.46-.54-.56-.186-.107-.44-.16-.76-.16h-1.26v2.61c0 .127-.036.23-.11.31-.073.073-.17.11-.29.11-.126 0-.226-.037-.3-.11-.073-.08-.11-.183-.11-.31v-6.28c0-.12.037-.217.11-.29.08-.073.184-.11.31-.11h2.48c.767 0 1.35.17 1.75.51.407.34.61.84.61 1.5 0 .56-.163 1.01-.49 1.35-.32.34-.78.547-1.38.62.167.053.317.14.45.26.134.12.267.287.4.5l1.14 1.8zm-2.55-3.15c.547 0 .954-.113 1.22-.34.274-.227.41-.57.41-1.03 0-.453-.133-.79-.4-1.01-.266-.22-.676-.33-1.23-.33h-2.02v2.71h2.02zm7.556-1.06c.073-.16.19-.24.35-.24.1 0 .19.033.27.1.08.067.12.15.12.25 0 .06-.013.113-.04.16l-2.81 6.06c-.033.073-.083.13-.15.17-.06.04-.123.06-.19.06-.1 0-.19-.033-.27-.1-.073-.06-.11-.14-.11-.24 0-.053.013-.107.04-.16l.7-1.51-1.98-4.28c-.027-.047-.04-.097-.04-.15 0-.1.043-.187.13-.26.093-.073.193-.11.3-.11.067 0 .13.02.19.06.067.04.117.097.15.17l1.67 3.75 1.67-3.73zm2.314 4.77c-.12 0-.22-.033-.3-.1-.074-.073-.11-.173-.11-.3v-6.35c0-.127.036-.223.11-.29.08-.073.18-.11.3-.11.113 0 .206.037.28.11.08.067.12.163.12.29v6.35c0 .127-.04.227-.12.3-.074.067-.167.1-.28.1zm5.834-1.18c.073 0 .136.03.19.09.053.06.08.137.08.23 0 .167-.117.32-.35.46-.24.14-.494.247-.76.32-.267.067-.527.1-.78.1-.754 0-1.35-.223-1.79-.67-.434-.447-.65-1.063-.65-1.85 0-.5.096-.94.29-1.32.193-.387.463-.687.81-.9.353-.213.753-.32 1.2-.32.633 0 1.136.207 1.51.62.373.413.56.973.56 1.68 0 .133-.027.23-.08.29-.054.06-.14.09-.26.09h-3.22c.06 1.147.603 1.72 1.63 1.72.26 0 .483-.033.67-.1.186-.073.386-.17.6-.29.173-.1.29-.15.35-.15zm-1.75-3.23c-.427 0-.77.133-1.03.4-.254.267-.404.643-.45 1.13h2.83c-.014-.493-.137-.87-.37-1.13-.234-.267-.56-.4-.98-.4zm7.173 3.23c.074 0 .137.03.19.09.054.06.08.137.08.23 0 .167-.116.32-.35.46-.24.14-.493.247-.76.32-.266.067-.526.1-.78.1-.753 0-1.35-.223-1.79-.67-.433-.447-.65-1.063-.65-1.85 0-.5.097-.94.29-1.32.194-.387.464-.687.81-.9.354-.213.754-.32 1.2-.32.634 0 1.137.207 1.51.62.374.413.56.973.56 1.68 0 .133-.026.23-.08.29-.053.06-.14.09-.26.09h-3.22c.06 1.147.604 1.72 1.63 1.72.26 0 .484-.033.67-.1.187-.073.387-.17.6-.29.174-.1.29-.15.35-.15zm-1.75-3.23c-.426 0-.77.133-1.03.4-.253.267-.403.643-.45 1.13h2.83c-.013-.493-.136-.87-.37-1.13-.233-.267-.56-.4-.98-.4zm3.804.51c-.16 0-.294-.05-.4-.15-.107-.107-.16-.243-.16-.41 0-.167.053-.3.16-.4.106-.107.24-.16.4-.16.153 0 .28.053.38.16.106.1.16.233.16.4s-.054.303-.16.41c-.1.1-.227.15-.38.15zm0 3.9c-.16 0-.294-.05-.4-.15-.107-.107-.16-.243-.16-.41 0-.167.053-.303.16-.41.106-.107.24-.16.4-.16.153 0 .28.053.38.16.106.107.16.243.16.41 0 .167-.054.303-.16.41-.1.1-.227.15-.38.15zm7.173-5.02c.28-.02.42.093.42.34 0 .107-.03.193-.09.26-.06.06-.163.097-.31.11l-.3.03c-.447.04-.78.2-1 .48-.213.273-.32.597-.32.97v2.43c0 .133-.037.233-.11.3-.073.067-.17.1-.29.1-.12 0-.22-.033-.3-.1-.073-.073-.11-.173-.11-.3v-4.22c0-.127.04-.223.12-.29.08-.073.177-.11.29-.11.107 0 .197.037.27.11.073.067.11.16.11.28v.56c.14-.293.337-.517.59-.67.26-.153.557-.243.89-.27l.14-.01zm4.938 3.84c.073 0 .136.03.19.09.053.06.08.137.08.23 0 .167-.117.32-.35.46-.24.14-.494.247-.76.32-.267.067-.527.1-.78.1-.754 0-1.35-.223-1.79-.67-.434-.447-.65-1.063-.65-1.85 0-.5.096-.94.29-1.32.193-.387.463-.687.81-.9.353-.213.753-.32 1.2-.32.633 0 1.136.207 1.51.62.373.413.56.973.56 1.68 0 .133-.027.23-.08.29-.054.06-.14.09-.26.09h-3.22c.06 1.147.603 1.72 1.63 1.72.26 0 .483-.033.67-.1.186-.073.386-.17.6-.29.173-.1.29-.15.35-.15zm-1.75-3.23c-.427 0-.77.133-1.03.4-.254.267-.404.643-.45 1.13h2.83c-.014-.493-.137-.87-.37-1.13-.234-.267-.56-.4-.98-.4zm5.043 4.43c-.307 0-.6-.037-.88-.11-.273-.073-.517-.177-.73-.31-.12-.08-.207-.153-.26-.22-.047-.073-.07-.16-.07-.26 0-.087.023-.157.07-.21.053-.06.12-.09.2-.09.08 0 .197.05.35.15.2.12.397.217.59.29.2.067.447.1.74.1.36 0 .64-.063.84-.19.2-.127.3-.31.3-.55 0-.147-.037-.263-.11-.35-.073-.093-.2-.173-.38-.24-.18-.073-.443-.147-.79-.22-.587-.127-1.007-.297-1.26-.51-.253-.213-.38-.503-.38-.87 0-.287.08-.54.24-.76.16-.22.38-.393.66-.52.287-.127.61-.19.97-.19.26 0 .51.037.75.11.247.067.463.163.65.29.227.16.34.327.34.5 0 .087-.027.16-.08.22-.053.06-.117.09-.19.09-.08 0-.2-.057-.36-.17-.187-.12-.363-.213-.53-.28-.167-.067-.373-.1-.62-.1-.313 0-.567.07-.76.21-.187.14-.28.327-.28.56 0 .147.033.267.1.36.073.087.19.167.35.24.167.067.403.133.71.2.453.1.803.21 1.05.33.253.12.433.267.54.44.107.173.16.393.16.66 0 .42-.177.76-.53 1.02-.353.253-.82.38-1.4.38zm7.085-1.2c.073 0 .136.03.19.09.053.06.08.137.08.23 0 .167-.117.32-.35.46-.24.14-.494.247-.76.32-.267.067-.527.1-.78.1-.754 0-1.35-.223-1.79-.67-.434-.447-.65-1.063-.65-1.85 0-.5.096-.94.29-1.32.193-.387.463-.687.81-.9.353-.213.753-.32 1.2-.32.633 0 1.136.207 1.51.62.373.413.56.973.56 1.68 0 .133-.027.23-.08.29-.054.06-.14.09-.26.09h-3.22c.06 1.147.603 1.72 1.63 1.72.26 0 .483-.033.67-.1.186-.073.386-.17.6-.29.173-.1.29-.15.35-.15zm-1.75-3.23c-.427 0-.77.133-1.03.4-.254.267-.404.643-.45 1.13h2.83c-.014-.493-.137-.87-.37-1.13-.234-.267-.56-.4-.98-.4zm5.393-.63c1.22 0 1.83.64 1.83 1.92v2.72c0 .12-.036.217-.11.29-.066.073-.16.11-.28.11-.12 0-.216-.037-.29-.11-.073-.073-.11-.17-.11-.29v-.48c-.126.287-.32.51-.58.67-.26.153-.56.23-.9.23-.313 0-.603-.063-.87-.19-.26-.127-.466-.303-.62-.53-.153-.227-.23-.477-.23-.75 0-.367.094-.65.28-.85.187-.207.494-.353.92-.44.427-.093 1.02-.14 1.78-.14h.22v-.33c0-.4-.083-.693-.25-.88-.16-.187-.423-.28-.79-.28-.453 0-.913.123-1.38.37-.18.113-.306.17-.38.17-.08 0-.146-.03-.2-.09-.053-.06-.08-.137-.08-.23s.027-.173.08-.24c.06-.073.154-.147.28-.22.234-.133.497-.237.79-.31.3-.08.597-.12.89-.12zm-.33 4.42c.4 0 .727-.133.98-.4.26-.273.39-.623.39-1.05v-.29h-.18c-.586 0-1.033.027-1.34.08-.306.047-.526.13-.66.25-.126.113-.19.283-.19.51 0 .26.094.477.28.65.194.167.434.25.72.25zm6.203-4.4c.28-.02.42.093.42.34 0 .107-.03.193-.09.26-.06.06-.163.097-.31.11l-.3.03c-.447.04-.78.2-1 .48-.213.273-.32.597-.32.97v2.43c0 .133-.037.233-.11.3-.073.067-.17.1-.29.1-.12 0-.22-.033-.3-.1-.073-.073-.11-.173-.11-.3v-4.22c0-.127.04-.223.12-.29.08-.073.177-.11.29-.11.107 0 .197.037.27.11.073.067.11.16.11.28v.56c.14-.293.337-.517.59-.67.26-.153.557-.243.89-.27l.14-.01zm3.178 5.04c-.454 0-.857-.103-1.21-.31-.347-.207-.617-.5-.81-.88-.187-.38-.28-.82-.28-1.32 0-.5.096-.943.29-1.33.2-.387.476-.687.83-.9.353-.213.76-.32 1.22-.32.253 0 .503.037.75.11.253.067.473.167.66.3.12.08.203.16.25.24.053.073.08.157.08.25s-.027.17-.08.23c-.047.06-.11.09-.19.09-.047 0-.097-.013-.15-.04-.054-.027-.1-.053-.14-.08-.034-.027-.057-.043-.07-.05-.174-.113-.34-.203-.5-.27-.154-.067-.344-.1-.57-.1-.487 0-.867.167-1.14.5-.267.327-.4.783-.4 1.37 0 .587.133 1.04.4 1.36.273.32.653.48 1.14.48.226 0 .42-.033.58-.1.166-.067.333-.157.5-.27.073-.047.143-.087.21-.12.066-.033.123-.05.17-.05.073 0 .133.03.18.09.053.06.08.137.08.23 0 .087-.024.167-.07.24-.047.067-.134.143-.26.23-.187.127-.414.23-.68.31-.26.073-.524.11-.79.11zm5.385-5.06c.573 0 1.007.163 1.3.49.293.32.44.8.44 1.44v2.71c0 .127-.037.227-.11.3-.073.067-.17.1-.29.1-.127 0-.227-.033-.3-.1-.073-.073-.11-.173-.11-.3v-2.69c0-.433-.09-.753-.27-.96-.173-.207-.453-.31-.84-.31-.447 0-.803.137-1.07.41-.267.273-.4.643-.4 1.11v2.44c0 .127-.037.227-.11.3-.067.067-.163.1-.29.1-.127 0-.227-.033-.3-.1-.073-.073-.11-.173-.11-.3v-6.36c0-.113.037-.207.11-.28.08-.073.18-.11.3-.11.127 0 .223.037.29.11.073.067.11.16.11.28v2.62c.16-.293.383-.517.67-.67.287-.153.613-.23.98-.23zm-73.295 33.04c-.127 0-.227-.037-.3-.11-.073-.08-.11-.183-.11-.31v-6.28c0-.12.037-.217.11-.29.08-.073.183-.11.31-.11h2.37c.74 0 1.313.18 1.72.54.413.36.62.87.62 1.53s-.207 1.173-.62 1.54c-.413.367-.987.55-1.72.55h-1.97v2.52c0 .127-.037.23-.11.31-.073.073-.173.11-.3.11zm2.3-3.62c1.073 0 1.61-.47 1.61-1.41 0-.927-.537-1.39-1.61-1.39h-1.89v2.8h1.89zm6.078-1.4c.28-.02.42.093.42.34 0 .107-.03.193-.09.26-.06.06-.164.097-.31.11l-.3.03c-.447.04-.78.2-1 .48-.214.273-.32.597-.32.97v2.43c0 .133-.037.233-.11.3-.074.067-.17.1-.29.1-.12 0-.22-.033-.3-.1-.074-.073-.11-.173-.11-.3v-4.22c0-.127.04-.223.12-.29.08-.073.176-.11.29-.11.106 0 .196.037.27.11.073.067.11.16.11.28v.56c.14-.293.336-.517.59-.67.26-.153.556-.243.89-.27l.14-.01zm3.187 5.04c-.46 0-.866-.103-1.22-.31-.346-.207-.616-.5-.81-.88-.186-.387-.28-.833-.28-1.34 0-.507.094-.95.28-1.33.194-.387.464-.683.81-.89.354-.207.76-.31 1.22-.31.46 0 .867.103 1.22.31.354.207.624.503.81.89.194.38.29.823.29 1.33 0 .507-.096.953-.29 1.34-.186.38-.456.673-.81.88-.353.207-.76.31-1.22.31zm0-.67c.48 0 .847-.157 1.1-.47.26-.32.39-.783.39-1.39 0-.593-.13-1.05-.39-1.37-.26-.327-.626-.49-1.1-.49-.473 0-.84.163-1.1.49-.26.32-.39.777-.39 1.37 0 .6.127 1.06.38 1.38.26.32.63.48 1.11.48zm2.667 2.42c-.166.013-.29-.01-.37-.07-.086-.053-.13-.137-.13-.25 0-.18.117-.283.35-.31l.28-.02c.3-.02.52-.11.66-.27.147-.16.22-.423.22-.79v-4.68c0-.127.037-.223.11-.29.08-.073.18-.11.3-.11s.217.037.29.11c.074.067.11.163.11.29v4.63c0 .56-.126.98-.38 1.26-.246.28-.633.44-1.16.48l-.28.02zm1.42-7.84c-.16 0-.29-.047-.39-.14-.1-.093-.15-.217-.15-.37 0-.147.05-.267.15-.36.1-.093.23-.14.39-.14s.29.047.39.14c.1.093.15.213.15.36 0 .153-.05.277-.15.37-.1.093-.23.14-.39.14zm5.834 4.89c.074 0 .137.03.19.09.054.06.08.137.08.23 0 .167-.116.32-.35.46-.24.14-.493.247-.76.32-.266.067-.526.1-.78.1-.753 0-1.35-.223-1.79-.67-.433-.447-.65-1.063-.65-1.85 0-.5.097-.94.29-1.32.194-.387.464-.687.81-.9.354-.213.754-.32 1.2-.32.634 0 1.137.207 1.51.62.374.413.56.973.56 1.68 0 .133-.026.23-.08.29-.053.06-.14.09-.26.09h-3.22c.06 1.147.604 1.72 1.63 1.72.26 0 .484-.033.67-.1.187-.073.387-.17.6-.29.174-.1.29-.15.35-.15zm-1.75-3.23c-.426 0-.77.133-1.03.4-.253.267-.403.643-.45 1.13h2.83c-.013-.493-.136-.87-.37-1.13-.233-.267-.56-.4-.98-.4zm5.414 4.43c-.453 0-.857-.103-1.21-.31-.347-.207-.617-.5-.81-.88-.187-.38-.28-.82-.28-1.32 0-.5.097-.943.29-1.33.2-.387.477-.687.83-.9.353-.213.76-.32 1.22-.32.253 0 .503.037.75.11.253.067.473.167.66.3.12.08.203.16.25.24.053.073.08.157.08.25s-.027.17-.08.23c-.047.06-.11.09-.19.09-.047 0-.097-.013-.15-.04-.053-.027-.1-.053-.14-.08-.033-.027-.057-.043-.07-.05-.173-.113-.34-.203-.5-.27-.153-.067-.343-.1-.57-.1-.487 0-.867.167-1.14.5-.267.327-.4.783-.4 1.37 0 .587.133 1.04.4 1.36.273.32.653.48 1.14.48.227 0 .42-.033.58-.1.167-.067.333-.157.5-.27.073-.047.143-.087.21-.12s.123-.05.17-.05c.073 0 .133.03.18.09.053.06.08.137.08.23 0 .087-.023.167-.07.24-.047.067-.133.143-.26.23-.187.127-.413.23-.68.31-.26.073-.523.11-.79.11zm5.185-.66c.233.02.35.127.35.32 0 .113-.043.2-.13.26-.08.053-.203.073-.37.06l-.27-.02c-.533-.04-.927-.2-1.18-.48-.253-.28-.38-.703-.38-1.27v-2.51h-.67c-.113 0-.203-.027-.27-.08-.06-.06-.09-.137-.09-.23 0-.1.03-.18.09-.24.067-.06.157-.09.27-.09h.67V225c0-.127.037-.223.11-.29.073-.073.173-.11.3-.11.12 0 .217.037.29.11.073.067.11.163.11.29v1.13h1.11c.107 0 .19.03.25.09.067.06.1.14.1.24 0 .093-.033.17-.1.23-.06.053-.143.08-.25.08h-1.11v2.55c0 .367.073.633.22.8.153.16.38.25.68.27l.27.02zm6.276 0c.234.02.35.127.35.32 0 .113-.043.2-.13.26-.08.053-.203.073-.37.06l-.27-.02c-.533-.04-.926-.2-1.18-.48-.253-.28-.38-.703-.38-1.27v-2.51h-.67c-.113 0-.203-.027-.27-.08-.06-.06-.09-.137-.09-.23 0-.1.03-.18.09-.24.067-.06.157-.09.27-.09h.67V225c0-.127.037-.223.11-.29.074-.073.174-.11.3-.11.12 0 .217.037.29.11.074.067.11.163.11.29v1.13h1.11c.107 0 .19.03.25.09.067.06.1.14.1.24 0 .093-.033.17-.1.23-.06.053-.143.08-.25.08h-1.11v2.55c0 .367.074.633.22.8.154.16.38.25.68.27l.27.02zm3.319.66c-.46 0-.867-.103-1.22-.31-.347-.207-.617-.5-.81-.88-.187-.387-.28-.833-.28-1.34 0-.507.093-.95.28-1.33.193-.387.463-.683.81-.89.353-.207.76-.31 1.22-.31.46 0 .867.103 1.22.31.353.207.623.503.81.89.193.38.29.823.29 1.33 0 .507-.097.953-.29 1.34-.187.38-.457.673-.81.88-.353.207-.76.31-1.22.31zm0-.67c.48 0 .847-.157 1.1-.47.26-.32.39-.783.39-1.39 0-.593-.13-1.05-.39-1.37-.26-.327-.627-.49-1.1-.49-.473 0-.84.163-1.1.49-.26.32-.39.777-.39 1.37 0 .6.127 1.06.38 1.38.26.32.63.48 1.11.48zm6.127-4.39c.426 0 .803.107 1.13.32.326.213.58.513.76.9.18.38.27.823.27 1.33 0 .507-.09.95-.27 1.33-.18.373-.434.663-.76.87-.32.207-.697.31-1.13.31-.38 0-.714-.083-1-.25-.28-.167-.494-.403-.64-.71v2.35c0 .12-.037.213-.11.28-.067.073-.164.11-.29.11-.127 0-.227-.037-.3-.11-.074-.073-.11-.167-.11-.28v-6.03c0-.12.036-.217.11-.29.073-.073.173-.11.3-.11.126 0 .223.037.29.11.073.073.11.17.11.29v.54c.146-.307.36-.543.64-.71.286-.167.62-.25 1-.25zm-.16 4.39c.473 0 .84-.16 1.1-.48.26-.32.39-.773.39-1.36 0-.587-.13-1.043-.39-1.37-.26-.333-.627-.5-1.1-.5-.474 0-.84.16-1.1.48-.254.32-.38.777-.38 1.37 0 .593.126 1.053.38 1.38.26.32.626.48 1.1.48zm4.09.65c-.12 0-.22-.033-.3-.1-.073-.073-.11-.173-.11-.3v-4.22c0-.127.037-.223.11-.29.08-.073.18-.11.3-.11s.217.037.29.11c.073.067.11.163.11.29v4.22c0 .133-.037.233-.11.3-.073.067-.17.1-.29.1zm0-6.07c-.16 0-.29-.047-.39-.14-.1-.093-.15-.217-.15-.37 0-.147.05-.267.15-.36.1-.093.23-.14.39-.14s.29.047.39.14c.1.093.15.213.15.36 0 .153-.05.277-.15.37-.1.093-.23.14-.39.14zm4.074 6.09c-.453 0-.856-.103-1.21-.31-.346-.207-.616-.5-.81-.88-.186-.38-.28-.82-.28-1.32 0-.5.097-.943.29-1.33.2-.387.477-.687.83-.9.354-.213.76-.32 1.22-.32.254 0 .504.037.75.11.254.067.474.167.66.3.12.08.204.16.25.24.054.073.08.157.08.25s-.026.17-.08.23c-.046.06-.11.09-.19.09-.046 0-.096-.013-.15-.04-.053-.027-.1-.053-.14-.08-.033-.027-.056-.043-.07-.05-.173-.113-.34-.203-.5-.27-.153-.067-.343-.1-.57-.1-.486 0-.866.167-1.14.5-.266.327-.4.783-.4 1.37 0 .587.134 1.04.4 1.36.274.32.654.48 1.14.48.227 0 .42-.033.58-.1.167-.067.334-.157.5-.27.074-.047.144-.087.21-.12.067-.033.124-.05.17-.05.074 0 .134.03.18.09.054.06.08.137.08.23 0 .087-.023.167-.07.24-.046.067-.133.143-.26.23-.186.127-.413.23-.68.31-.26.073-.523.11-.79.11zm6.064-.02c-.12 0-.22-.033-.3-.1-.074-.073-.11-.173-.11-.3v-4.22c0-.127.036-.223.11-.29.08-.073.18-.11.3-.11s.216.037.29.11c.073.067.11.163.11.29v4.22c0 .133-.037.233-.11.3-.074.067-.17.1-.29.1zm0-6.07c-.16 0-.29-.047-.39-.14-.1-.093-.15-.217-.15-.37 0-.147.05-.267.15-.36.1-.093.23-.14.39-.14s.29.047.39.14c.1.093.15.213.15.36 0 .153-.05.277-.15.37-.1.093-.23.14-.39.14zm5.974-1.08c.126 0 .226.037.3.11.073.073.11.167.11.28v6.36c0 .12-.037.217-.11.29-.074.073-.174.11-.3.11-.127 0-.227-.037-.3-.11-.067-.073-.1-.17-.1-.29v-.54c-.147.307-.364.543-.65.71-.28.167-.61.25-.99.25-.427 0-.804-.107-1.13-.32-.327-.213-.58-.51-.76-.89-.18-.387-.27-.833-.27-1.34 0-.5.09-.94.27-1.32.18-.38.433-.673.76-.88.326-.207.703-.31 1.13-.31.38 0 .71.083.99.25.286.167.503.403.65.71v-2.68c0-.12.033-.213.1-.28.073-.073.173-.11.3-.11zm-1.88 6.5c.473 0 .836-.16 1.09-.48.26-.327.39-.787.39-1.38 0-.593-.13-1.05-.39-1.37-.254-.32-.617-.48-1.09-.48-.474 0-.844.16-1.11.48-.26.32-.39.77-.39 1.35 0 .593.13 1.057.39 1.39.266.327.636.49 1.11.49zm7.71-.53c.073 0 .137.03.19.09.053.06.08.137.08.23 0 .167-.117.32-.35.46-.24.14-.493.247-.76.32-.267.067-.527.1-.78.1-.753 0-1.35-.223-1.79-.67-.433-.447-.65-1.063-.65-1.85 0-.5.097-.94.29-1.32.193-.387.463-.687.81-.9.353-.213.753-.32 1.2-.32.633 0 1.137.207 1.51.62.373.413.56.973.56 1.68 0 .133-.027.23-.08.29-.053.06-.14.09-.26.09h-3.22c.06 1.147.603 1.72 1.63 1.72.26 0 .483-.033.67-.1.187-.073.387-.17.6-.29.173-.1.29-.15.35-.15zm-1.75-3.23c-.427 0-.77.133-1.03.4-.253.267-.403.643-.45 1.13h2.83c-.013-.493-.137-.87-.37-1.13-.233-.267-.56-.4-.98-.4zm5.394-.63c1.22 0 1.83.64 1.83 1.92v2.72c0 .12-.037.217-.11.29-.067.073-.16.11-.28.11-.12 0-.217-.037-.29-.11-.074-.073-.11-.17-.11-.29v-.48c-.127.287-.32.51-.58.67-.26.153-.56.23-.9.23-.314 0-.604-.063-.87-.19-.26-.127-.467-.303-.62-.53-.154-.227-.23-.477-.23-.75 0-.367.093-.65.28-.85.186-.207.493-.353.92-.44.426-.093 1.02-.14 1.78-.14h.22v-.33c0-.4-.084-.693-.25-.88-.16-.187-.424-.28-.79-.28-.454 0-.914.123-1.38.37-.18.113-.307.17-.38.17-.08 0-.147-.03-.2-.09-.054-.06-.08-.137-.08-.23s.026-.173.08-.24c.06-.073.153-.147.28-.22.233-.133.496-.237.79-.31.3-.08.596-.12.89-.12zm-.33 4.42c.4 0 .726-.133.98-.4.26-.273.39-.623.39-1.05v-.29h-.18c-.587 0-1.034.027-1.34.08-.307.047-.527.13-.66.25-.127.113-.19.283-.19.51 0 .26.093.477.28.65.193.167.433.25.72.25zm5.432.64c-.306 0-.6-.037-.88-.11-.273-.073-.516-.177-.73-.31-.12-.08-.206-.153-.26-.22-.046-.073-.07-.16-.07-.26 0-.087.024-.157.07-.21.054-.06.12-.09.2-.09.08 0 .197.05.35.15.2.12.397.217.59.29.2.067.447.1.74.1.36 0 .64-.063.84-.19.2-.127.3-.31.3-.55 0-.147-.036-.263-.11-.35-.073-.093-.2-.173-.38-.24-.18-.073-.443-.147-.79-.22-.586-.127-1.006-.297-1.26-.51-.253-.213-.38-.503-.38-.87 0-.287.08-.54.24-.76.16-.22.38-.393.66-.52.287-.127.61-.19.97-.19.26 0 .51.037.75.11.247.067.464.163.65.29.227.16.34.327.34.5 0 .087-.026.16-.08.22-.053.06-.116.09-.19.09-.08 0-.2-.057-.36-.17-.186-.12-.363-.213-.53-.28-.166-.067-.373-.1-.62-.1-.313 0-.566.07-.76.21-.186.14-.28.327-.28.56 0 .147.034.267.1.36.074.087.19.167.35.24.167.067.404.133.71.2.454.1.804.21 1.05.33.254.12.434.267.54.44.107.173.16.393.16.66 0 .42-.176.76-.53 1.02-.353.253-.82.38-1.4.38zm3.715-3.92c-.16 0-.293-.05-.4-.15-.107-.107-.16-.243-.16-.41 0-.167.053-.3.16-.4.107-.107.24-.16.4-.16.153 0 .28.053.38.16.107.1.16.233.16.4s-.053.303-.16.41c-.1.1-.227.15-.38.15zm0 3.9c-.16 0-.293-.05-.4-.15-.107-.107-.16-.243-.16-.41 0-.167.053-.303.16-.41.107-.107.24-.16.4-.16.153 0 .28.053.38.16.107.107.16.243.16.41 0 .167-.053.303-.16.41-.1.1-.227.15-.38.15z"/>
        </g>
    </g>
    <defs>
        <clipPath id="clip0">
            <rect width="679" height="419" x="8" fill="#fff" rx="8"/>
        </clipPath>
        <filter id="filter0_d" width="695" height="435" x="0" y="0" color-interpolation-filters="sRGB" filterUnits="userSpaceOnUse">
            <feFlood flood-opacity="0" result="BackgroundImageFix"/>
            <feColorMatrix in="SourceAlpha" values="0 0 0 0 0 0 0 0 0 0 0 0 0 0 0 0 0 0 127 0"/>
            <feOffset dy="8"/>
            <feGaussianBlur stdDeviation="4"/>
            <feColorMatrix values="0 0 0 0 0 0 0 0 0 0 0 0 0 0 0 0 0 0 0.1 0"/>
            <feBlend in2="BackgroundImageFix" result="effect1_dropShadow"/>
            <feBlend in="SourceGraphic" in2="effect1_dropShadow" result="shape"/>
        </filter>
    </defs>
</svg>
