<svg width="32" height="32" viewBox="0 0 32 32" fill="none" xmlns="http://www.w3.org/2000/svg">
<circle cx="16" cy="16" r="16" fill="#FEC04F"/>
<path d="M19.45 5.27496L9.66251 8.08746L8.12501 8.53746C7.00001 8.87496 6.92501 9.51246 7.22501 10.6375L11.4625 26.05C11.7625 27.175 12.0625 27.3625 13.225 27.025L14.7625 26.575L24.55 23.7625C25.675 23.425 26.35 22.2625 26.05 21.1L22.075 6.77496C21.775 5.61246 20.575 4.97496 19.45 5.27496Z" fill="#3E4347"/>
<path d="M18.6251 5.04998L8.95006 8.23749L7.41256 8.72499C6.28756 9.09999 6.25006 9.73749 6.58756 10.8625L11.4626 26.0875C11.8376 27.2125 12.1376 27.3625 13.2626 26.9875L14.8001 26.5L24.4751 23.3125C25.6001 22.9375 26.2376 21.7375 25.8626 20.6125L21.3251 6.43748C20.9501 5.31248 19.7501 4.71248 18.6251 5.04998Z" fill="#D0D0D0"/>
<path d="M17.9126 4.90002L8.3501 8.42502L14.8001 26.5L24.3626 22.975C25.4876 22.5625 26.0501 21.325 25.6376 20.2L20.6501 6.13752C20.2751 5.05002 19.0376 4.48752 17.9126 4.90002Z" fill="#42ADE2"/>
<path d="M6.85001 8.98743C5.72501 9.39993 5.72501 10.0374 6.10001 11.1624L11.5 26.1999C11.9125 27.3249 12.2125 27.4749 13.3375 27.0624L14.8375 26.4999L8.35001 8.42493L6.85001 8.98743Z" fill="#3E4347"/>
<path d="M19.5625 12.0251L13.6375 14.2376L12.8125 11.8751L18.7375 9.70007L19.5625 12.0251Z" fill="white"/>
</svg>
