<svg width="28" height="28" viewBox="0 0 28 28" fill="none" xmlns="http://www.w3.org/2000/svg">
<path d="M18.025 1.48748L6.60622 4.76873L4.81247 5.29373C3.49997 5.68748 3.41247 6.43123 3.76247 7.74373L8.70622 25.725C9.05622 27.0375 9.40622 27.2562 10.7625 26.8625L12.5562 26.3375L23.975 23.0562C25.2875 22.6625 26.075 21.3062 25.725 19.95L21.0875 3.23748C20.7375 1.88123 19.3375 1.13748 18.025 1.48748Z" fill="#3E4347"/>
<path d="M17.0625 1.22493L5.77499 4.94368L3.98124 5.51243C2.66874 5.94993 2.62499 6.69368 3.01874 8.00618L8.70624 25.7687C9.14374 27.0812 9.49374 27.2562 10.8062 26.8187L12.6 26.2499L23.8875 22.5312C25.2 22.0937 25.9437 20.6937 25.5062 19.3812L20.2125 2.84368C19.775 1.53118 18.375 0.831182 17.0625 1.22493Z" fill="#D0D0D0"/>
<path d="M16.2313 1.05008L5.07501 5.16258L12.6 26.2501L23.7563 22.1376C25.0688 21.6563 25.725 20.2126 25.2438 18.9001L19.425 2.49383C18.9875 1.22508 17.5438 0.568826 16.2313 1.05008Z" fill="#42ADE2"/>
<path d="M3.32501 5.81873C2.01251 6.29998 2.01251 7.04373 2.45001 8.35623L8.75001 25.9C9.23126 27.2125 9.58126 27.3875 10.8938 26.9062L12.6438 26.25L5.07501 5.16248L3.32501 5.81873Z" fill="#3E4347"/>
<path d="M18.1562 9.36252L11.2438 11.9438L10.2812 9.18752L17.1937 6.65002L18.1562 9.36252Z" fill="white"/>
</svg>
