<svg width="21" height="18" viewBox="0 0 21 18" fill="none" xmlns="http://www.w3.org/2000/svg">
<path d="M13.117 13.54C13.117 13.2638 13.3408 13.04 13.617 13.04H18.4167C18.7366 13.04 18.9562 13.3328 18.8152 13.6199C18.5668 14.1257 18.1542 14.7653 17.7083 15.2402C17.0593 15.9316 16.3642 16.541 15.623 17.0684C15.1106 17.4329 14.3081 17.6939 13.7238 17.8512C13.4144 17.9345 13.117 17.6954 13.117 17.375V13.54ZM12.04 12.75V17.5C12.04 17.7761 11.8162 18 11.54 18H1.42942C0.746299 18 0.264585 17.33 0.455002 16.674C0.858108 15.2852 1.13445 13.9791 1.28403 12.7559C1.48034 11.1504 1.5785 8.89844 1.5785 6V1C1.5785 0.447715 2.02622 0 2.5785 0H19.04C19.5923 0 20.04 0.447715 20.04 1V6C20.04 6.50781 20.026 6.99609 19.998 7.46484C19.9699 7.93359 19.9439 8.3125 19.9198 8.60156C19.8958 8.89063 19.8477 9.24219 19.7756 9.65625C19.7035 10.0703 19.6534 10.3398 19.6254 10.4648C19.5973 10.5898 19.5332 10.8652 19.4331 11.291C19.4066 11.4034 19.3834 11.5027 19.3634 11.5887C19.3081 11.826 19.0927 12 18.849 12H13.117C12.7964 12 12.2804 12.0469 12.1843 12.1406C12.0881 12.2344 12.04 12.4375 12.04 12.75Z" fill="#E4E6EA"/>
</svg>
