<svg width="33" height="33" viewBox="0 0 33 33" fill="none" xmlns="http://www.w3.org/2000/svg">
<path d="M1.35184 15.4869L23.3768 7.7144C23.5992 7.63599 23.8392 7.62208 24.0692 7.67428C24.2991 7.72647 24.5096 7.84265 24.6763 8.00938C24.8431 8.17612 24.9593 8.38662 25.0114 8.61657C25.0636 8.84652 25.0497 9.08654 24.9713 9.30892L17.1988 31.3339C17.1193 31.5599 16.9764 31.7583 16.7873 31.9055C16.5981 32.0526 16.3707 32.1423 16.132 32.1638C15.8934 32.1854 15.6536 32.1378 15.4412 32.0269C15.2287 31.916 15.0527 31.7464 14.9339 31.5382L9.92197 22.7645L1.14678 17.7511C0.939089 17.6321 0.769934 17.4559 0.659418 17.2436C0.548902 17.0313 0.501673 16.7917 0.523344 16.5533C0.545015 16.3149 0.634675 16.0878 0.781668 15.8989C0.92866 15.71 1.1268 15.5672 1.35255 15.4876L1.35184 15.4869ZM2.36654 16.7208L10.3639 21.2916L18.1011 13.5544C18.2295 13.4261 18.4001 13.3487 18.5812 13.3366C18.7624 13.3245 18.9417 13.3785 19.0861 13.4886L19.1617 13.5544C19.2902 13.6825 19.3678 13.8528 19.3803 14.0338C19.3928 14.2148 19.3393 14.3942 19.2296 14.5387L19.1624 14.6158L11.4161 22.3607L15.9663 30.3192L23.3832 9.30185L2.36583 16.7201L2.36654 16.7208Z" fill="white"/>
</svg>
