<svg width="64" height="64" viewBox="0 0 64 64" fill="none" xmlns="http://www.w3.org/2000/svg">
<circle cx="32" cy="32" r="32" fill="#EBAE64"/>
<path d="M24 17C24 16.7348 23.8946 16.4804 23.7071 16.2929C23.5196 16.1054 23.2652 16 23 16C22.7348 16 22.4804 16.1054 22.2929 16.2929C22.1054 16.4804 22 16.7348 22 17V18H20C18.9391 18 17.9217 18.4214 17.1716 19.1716C16.4214 19.9217 16 20.9391 16 22V24H48V22C48 20.9391 47.5786 19.9217 46.8284 19.1716C46.0783 18.4214 45.0609 18 44 18H42V17C42 16.7348 41.8946 16.4804 41.7071 16.2929C41.5196 16.1054 41.2652 16 41 16C40.7348 16 40.4804 16.1054 40.2929 16.2929C40.1054 16.4804 40 16.7348 40 17V18H24V17ZM48 44V26H16V44C16 45.0609 16.4214 46.0783 17.1716 46.8284C17.9217 47.5786 18.9391 48 20 48H44C45.0609 48 46.0783 47.5786 46.8284 46.8284C47.5786 46.0783 48 45.0609 48 44ZM35 30H37C37.2652 30 37.5196 30.1054 37.7071 30.2929C37.8946 30.4804 38 30.7348 38 31V33C38 33.2652 37.8946 33.5196 37.7071 33.7071C37.5196 33.8946 37.2652 34 37 34H35C34.7348 34 34.4804 33.8946 34.2929 33.7071C34.1054 33.5196 34 33.2652 34 33V31C34 30.7348 34.1054 30.4804 34.2929 30.2929C34.4804 30.1054 34.7348 30 35 30ZM41 30H43C43.2652 30 43.5196 30.1054 43.7071 30.2929C43.8946 30.4804 44 30.7348 44 31V33C44 33.2652 43.8946 33.5196 43.7071 33.7071C43.5196 33.8946 43.2652 34 43 34H41C40.7348 34 40.4804 33.8946 40.2929 33.7071C40.1054 33.5196 40 33.2652 40 33V31C40 30.7348 40.1054 30.4804 40.2929 30.2929C40.4804 30.1054 40.7348 30 41 30ZM20 37C20 36.7348 20.1054 36.4804 20.2929 36.2929C20.4804 36.1054 20.7348 36 21 36H23C23.2652 36 23.5196 36.1054 23.7071 36.2929C23.8946 36.4804 24 36.7348 24 37V39C24 39.2652 23.8946 39.5196 23.7071 39.7071C23.5196 39.8946 23.2652 40 23 40H21C20.7348 40 20.4804 39.8946 20.2929 39.7071C20.1054 39.5196 20 39.2652 20 39V37ZM27 36H29C29.2652 36 29.5196 36.1054 29.7071 36.2929C29.8946 36.4804 30 36.7348 30 37V39C30 39.2652 29.8946 39.5196 29.7071 39.7071C29.5196 39.8946 29.2652 40 29 40H27C26.7348 40 26.4804 39.8946 26.2929 39.7071C26.1054 39.5196 26 39.2652 26 39V37C26 36.7348 26.1054 36.4804 26.2929 36.2929C26.4804 36.1054 26.7348 36 27 36Z" fill="white"/>
</svg>