<svg width="16" height="18" viewBox="0 0 16 18" fill="none" xmlns="http://www.w3.org/2000/svg">
<path d="M1.51355 9.0888L7.87835 2.724C8.18485 2.41757 8.54871 2.17452 8.94915 2.00871C9.34959 1.8429 9.77877 1.75759 10.2122 1.75765C10.6456 1.75771 11.0747 1.84313 11.4751 2.00904C11.8755 2.17495 12.2393 2.4181 12.5457 2.7246C12.8522 3.03111 13.0952 3.39496 13.261 3.7954C13.4268 4.19584 13.5122 4.62502 13.5121 5.05842C13.512 5.49183 13.4266 5.92099 13.2607 6.32138C13.0948 6.72178 12.8517 7.08557 12.5451 7.392L4.90835 15.0288C4.62685 15.3103 4.24505 15.4684 3.84695 15.4684C3.44885 15.4684 3.06705 15.3103 2.78555 15.0288C2.50405 14.7473 2.3459 14.3655 2.3459 13.9674C2.3459 13.5693 2.50405 13.1875 2.78555 12.906L9.57395 6.1176C9.73293 5.94699 9.81947 5.72133 9.81536 5.48817C9.81125 5.25501 9.71679 5.03255 9.5519 4.86765C9.387 4.70276 9.16454 4.6083 8.93138 4.60419C8.69821 4.60008 8.47256 4.68662 8.30195 4.8456L1.51355 11.634C0.894535 12.253 0.546776 13.0926 0.546776 13.968C0.546776 14.8434 0.894535 15.683 1.51355 16.302C2.13257 16.921 2.97213 17.2688 3.84755 17.2688C4.72297 17.2688 5.56253 16.921 6.18155 16.302L13.8171 8.664C14.7552 7.70385 15.2769 6.41259 15.2691 5.0703C15.2612 3.72801 14.7246 2.44292 13.7754 1.49376C12.8262 0.544595 11.5411 0.00790334 10.1988 8.65908e-05C8.85655 -0.00773016 7.5653 0.513958 6.60515 1.452L0.24155 7.8156C0.0825739 7.98621 -0.00397364 8.21187 0.000140217 8.44503C0.00425408 8.67819 0.0987082 8.90065 0.263604 9.06555C0.428499 9.23044 0.650962 9.3249 0.884123 9.32901C1.11728 9.33312 1.34294 9.24658 1.51355 9.0876V9.0888Z" fill="#ADBBC4"/>
</svg>
