<svg width="45" height="34" viewBox="0 0 45 34" fill="none" xmlns="http://www.w3.org/2000/svg">
<path d="M19.6875 33.75C19.6875 33.75 16.875 33.75 16.875 30.9375C16.875 28.125 19.6875 19.6875 30.9375 19.6875C42.1875 19.6875 45 28.125 45 30.9375C45 33.75 42.1875 33.75 42.1875 33.75H19.6875ZM30.9375 16.875C33.1753 16.875 35.3214 15.9861 36.9037 14.4037C38.4861 12.8214 39.375 10.6753 39.375 8.4375C39.375 6.19974 38.4861 4.05363 36.9037 2.47129C35.3214 0.888949 33.1753 0 30.9375 0C28.6997 0 26.5536 0.888949 24.9713 2.47129C23.3889 4.05363 22.5 6.19974 22.5 8.4375C22.5 10.6753 23.3889 12.8214 24.9713 14.4037C26.5536 15.9861 28.6997 16.875 30.9375 16.875Z" fill="#E4E6EA"/>
<path fill-rule="evenodd" clip-rule="evenodd" d="M14.67 33.7499C14.2531 32.8719 14.0451 31.9092 14.0625 30.9374C14.0625 27.1264 15.975 23.203 19.5075 20.4749C17.7443 19.9316 15.9074 19.6659 14.0625 19.6874C2.8125 19.6874 0 28.1249 0 30.9374C0 33.7499 2.8125 33.7499 2.8125 33.7499H14.67Z" fill="#E4E6EA"/>
<path d="M12.6562 16.875C14.5211 16.875 16.3095 16.1342 17.6281 14.8156C18.9467 13.497 19.6875 11.7086 19.6875 9.84375C19.6875 7.97895 18.9467 6.19052 17.6281 4.87191C16.3095 3.55329 14.5211 2.8125 12.6562 2.8125C10.7914 2.8125 9.00302 3.55329 7.68441 4.87191C6.36579 6.19052 5.625 7.97895 5.625 9.84375C5.625 11.7086 6.36579 13.497 7.68441 14.8156C9.00302 16.1342 10.7914 16.875 12.6562 16.875Z" fill="#E4E6EA"/>
</svg>
