<svg width="32" height="32" viewBox="0 0 32 32" fill="none" xmlns="http://www.w3.org/2000/svg">
<rect x="3" y="4" width="25" height="24.1379" rx="12.069" fill="#5F6165"/>
<path d="M12.7626 22.4833C12.5407 22.3741 12.2672 22.4629 12.1518 22.6817C12.0363 22.9004 12.1227 23.1663 12.3446 23.2754L12.7626 22.4833ZM8.85467 18.6145L11.42 14.1187L6.18989 14.2601L8.85467 18.6145ZM13.9264 9.70851L14.0395 10.1353L13.9264 9.70851ZM22.0446 19.5781C20.3199 22.8464 16.168 24.1586 12.7626 22.4833L12.3446 23.2754C16.1781 25.1614 20.8846 23.6946 22.8483 19.9735L22.0446 19.5781ZM19.0231 10.6202C22.4284 12.2955 23.7693 16.3099 22.0446 19.5781L22.8483 19.9735C24.812 16.2524 23.2747 11.7139 19.4411 9.82801L19.0231 10.6202ZM9.24534 14.7469C9.36621 14.3329 9.53077 13.9239 9.74109 13.5253L8.93737 13.1299C8.69893 13.5818 8.51193 14.0463 8.37448 14.5172L9.24534 14.7469ZM9.74109 13.5253C10.6529 11.7975 12.2402 10.6178 14.0395 10.1353L13.8134 9.28174C11.7789 9.82729 9.97428 11.1651 8.93737 13.1299L9.74109 13.5253ZM14.0395 10.1353C15.6456 9.70459 17.4179 9.83049 19.0231 10.6202L19.4411 9.82801C17.632 8.93801 15.6297 8.79468 13.8134 9.28174L14.0395 10.1353Z" fill="white"/>
<path d="M15.8268 13.033V17.1276L18.5436 19.7508" stroke="white" stroke-width="0.895706" stroke-linecap="round"/>
</svg>
