<svg width="25" height="29" viewBox="0 0 25 29" fill="none" xmlns="http://www.w3.org/2000/svg">
<path d="M2.06073 6.75865C0.92262 5.30217 1.18071 3.19884 2.63719 2.06073V2.06073C4.09367 0.922621 6.19701 1.18071 7.33512 2.63719L19.476 18.1743L14.2016 22.2957L2.06073 6.75865Z" fill="#FCD400"/>
<path d="M1.81647 6.44606C0.81326 5.16222 1.04076 3.3082 2.3246 2.305L2.94978 1.81647C4.23363 0.813261 6.08765 1.04076 7.09085 2.3246V2.3246L1.81647 6.44606V6.44606Z" fill="#FC6E47"/>
<path d="M20.2755 21.6714C20.6645 23.3289 18.9366 24.6835 17.4199 23.9101L14.2308 22.284L19.4576 18.1863L20.2755 21.6714Z" fill="#F7EADC"/>
<path d="M21.4235 24.5284C21.7681 25.4408 20.7361 26.2563 19.9281 25.7102L16.7515 23.5633L20.0702 20.9446L21.4235 24.5284Z" fill="#3B3B3B"/>
<path d="M5.18429 8.83107L10.5 15L16.1843 20.8311" stroke="#E2B420" stroke-width="0.5"/>
<path d="M7.28577 7.1107L13.0494 13.0539L18.1843 19" stroke="#E2B420" stroke-width="0.5"/>
<path d="M2.0343 7.24802C1.73222 6.82511 1.80445 6.24129 2.2005 5.90475L6.20111 2.50521C6.63595 2.1357 7.29135 2.2044 7.64012 2.65605L9.07934 4.51977C9.40822 4.94566 9.34112 5.55545 8.9275 5.89964L4.82759 9.31133C4.38074 9.68317 3.7121 9.59694 3.37421 9.1239L2.0343 7.24802Z" fill="#EBE8E5"/>
<rect x="5.36044" y="4.03921" width="0.338977" height="0.825961" rx="0.169489" transform="rotate(48.4837 5.36044 4.03921)" fill="#C4C4C4"/>
<rect x="6.61845" y="3" width="0.338977" height="0.825961" rx="0.169489" transform="rotate(48.4837 6.61845 3)" fill="#C4C4C4"/>
<rect x="6.61845" y="6" width="0.338977" height="0.825961" rx="0.169489" transform="rotate(48.4837 6.61845 6)" fill="#C4C4C4"/>
<rect x="5.32443" y="7.26028" width="0.338977" height="0.433291" rx="0.169489" transform="rotate(48.4837 5.32443 7.26028)" fill="#C4C4C4"/>
<rect x="4.32443" y="5" width="0.338977" height="0.433291" rx="0.169489" transform="rotate(48.4837 4.32443 5)" fill="#C4C4C4"/>
<rect x="2.61845" y="6" width="0.338977" height="0.825961" rx="0.169489" transform="rotate(48.4837 2.61845 6)" fill="#C4C4C4"/>
<rect x="4.61845" y="8" width="0.338977" height="0.825961" rx="0.169489" transform="rotate(48.4837 4.61845 8)" fill="#C4C4C4"/>
<rect x="8.61845" y="4" width="0.338977" height="0.825961" rx="0.169489" transform="rotate(48.4837 8.61845 4)" fill="#C4C4C4"/>
</svg>
