<svg width="48" height="48" viewBox="0 0 48 48" fill="none" xmlns="http://www.w3.org/2000/svg">
<circle cx="24.5" cy="22.5" r="12.5" stroke="white" stroke-width="2"/>
<line x1="6.87868" y1="37.8787" x2="18.8787" y2="25.8787" stroke="#18191A" stroke-width="6"/>
<line x1="5" y1="26" x2="22" y2="26" stroke="#18191A" stroke-width="6"/>
<path d="M12 28L14.8868 23L9.11325 23L12 28ZM11.5 21L11.5 23.5L12.5 23.5L12.5 21L11.5 21Z" fill="white"/>
<path d="M24.2194 17.5C24.2194 17.0858 23.8836 16.75 23.4694 16.75C23.0552 16.75 22.7194 17.0858 22.7194 17.5L24.2194 17.5ZM22.7194 24L22.7194 24.75L24.2194 24.75L24.2194 24L22.7194 24ZM22.7194 17.5L22.7194 24L24.2194 24L24.2194 17.5L22.7194 17.5Z" fill="white"/>
<path d="M30.3666 24.75C30.7809 24.75 31.1166 24.4142 31.1166 24C31.1166 23.5858 30.7809 23.25 30.3666 23.25V24.75ZM30.3666 23.25H23V24.75H30.3666V23.25Z" fill="white"/>
</svg>
