<svg width="48" height="48" viewBox="0 0 48 48" fill="none" xmlns="http://www.w3.org/2000/svg">
<path fill-rule="evenodd" clip-rule="evenodd" d="M36 22.5C36 28.8513 30.8513 34 24.5 34C21.834 34 19.38 33.0928 17.4296 31.5704L16.0062 32.9937C18.326 34.8737 21.2815 36 24.5 36C31.9558 36 38 29.9558 38 22.5C38 15.0442 31.9558 9 24.5 9C17.0442 9 11 15.0442 11 22.5C11 22.6674 11.003 22.8341 11.0091 23H13.0107C13.0036 22.8342 13 22.6675 13 22.5C13 16.1487 18.1487 11 24.5 11C30.8513 11 36 16.1487 36 22.5Z" fill="white"/>
<path d="M12 28L14.8868 23L9.11325 23L12 28ZM11.5 21L11.5 23.5L12.5 23.5L12.5 21L11.5 21Z" fill="white"/>
<path d="M24.2194 17.5C24.2194 17.0858 23.8836 16.75 23.4694 16.75C23.0551 16.75 22.7194 17.0858 22.7194 17.5L24.2194 17.5ZM22.7194 24L22.7194 24.75L24.2194 24.75L24.2194 24L22.7194 24ZM22.7194 17.5L22.7194 24L24.2194 24L24.2194 17.5L22.7194 17.5Z" fill="white"/>
<path d="M30.3667 24.75C30.7809 24.75 31.1167 24.4142 31.1167 24C31.1167 23.5858 30.7809 23.25 30.3667 23.25V24.75ZM30.3667 23.25H23V24.75H30.3667V23.25Z" fill="white"/>
</svg>
