<svg width="12" height="12" viewBox="0 0 12 12" fill="none" xmlns="http://www.w3.org/2000/svg">
<path d="M7.17482 11.2159C7.27103 11.3118 7.40935 11.3524 7.54212 11.3235C7.67489 11.2947 7.78395 11.2005 7.83172 11.0733L11.3745 1.64064C11.4299 1.49324 11.3936 1.32707 11.2819 1.21614C11.1701 1.1052 11.0037 1.07014 10.8567 1.12656L1.48029 4.72559C1.35393 4.77409 1.26067 4.8832 1.23243 5.01558C1.2042 5.14795 1.24482 5.28562 1.34039 5.38146L3.60578 7.65334C3.75006 7.79803 3.98021 7.81072 4.13952 7.68275L7.90849 4.65542L4.87409 8.41608C4.74556 8.57537 4.75801 8.80599 4.90295 8.95051L7.17482 11.2159Z" stroke="#E9ECEF" stroke-width="0.8" stroke-linecap="round" stroke-linejoin="round"/>
</svg>
