<svg width="14" height="14" viewBox="0 0 14 14" fill="none" xmlns="http://www.w3.org/2000/svg">
<path d="M13.7708 4.69091L13.9941 3.44091C14.0351 3.21106 13.8584 3 13.6249 3H11.2871L11.7441 0.440906C11.7851 0.211063 11.6084 0 11.3749 0H10.1052C10.0171 1.59896e-06 9.93192 0.0309686 9.86443 0.0874784C9.79694 0.143988 9.75147 0.222439 9.736 0.309094L9.25547 3H6.17313L6.6301 0.440906C6.67116 0.211063 6.49444 0 6.26094 0H4.99119C4.90317 1.59896e-06 4.81795 0.0309686 4.75046 0.0874784C4.68297 0.143988 4.63751 0.222439 4.62203 0.309094L4.1415 3H1.66975C1.58173 3 1.49651 3.03097 1.42902 3.08748C1.36153 3.14399 1.31607 3.22244 1.3006 3.30909L1.07738 4.55909C1.03635 4.78894 1.21307 5 1.44653 5H3.78435L3.07007 9H0.598316C0.510291 9 0.425072 9.03097 0.357582 9.08748C0.290091 9.14399 0.24463 9.22244 0.22916 9.30909L0.00594094 10.5591C-0.0350903 10.7889 0.141628 11 0.375097 11H2.71291L2.25594 13.5591C2.21491 13.7889 2.39163 14 2.6251 14H3.89485C3.98287 14 4.06809 13.969 4.13558 13.9125C4.20307 13.856 4.24853 13.7776 4.264 13.6909L4.74457 11H7.82688L7.36991 13.5591C7.32885 13.7889 7.50557 14 7.73907 14H9.00882C9.09684 14 9.18206 13.969 9.24955 13.9125C9.31704 13.856 9.3625 13.7776 9.37797 13.6909L9.8585 11H12.3303C12.4183 11 12.5035 10.969 12.571 10.9125C12.6385 10.856 12.6839 10.7776 12.6994 10.6909L12.9226 9.44091C12.9637 9.21106 12.7869 9 12.5535 9H10.2157L10.9299 5H13.4017C13.4897 5 13.5749 4.96903 13.6424 4.91252C13.7099 4.85601 13.7554 4.77756 13.7708 4.69091ZM8.18404 9H5.10172L5.816 5H8.89832L8.18404 9Z" fill="#BFBFC1"/>
</svg>
