<svg width="32" height="32" viewBox="0 0 32 32" fill="none" xmlns="http://www.w3.org/2000/svg">
<circle cx="16" cy="16" r="16" fill="#60B515"/>
<path d="M15.4519 16.9436C15.1899 16.9436 14.9815 16.8543 14.8267 16.6757C14.6839 16.4971 14.6124 16.259 14.6124 15.9613C14.6124 15.3541 14.7196 14.848 14.9339 14.4432C15.1601 14.0383 15.4876 13.5918 15.9162 13.1036C16.2377 12.7345 16.4699 12.4309 16.6128 12.1928C16.7676 11.9427 16.845 11.6629 16.845 11.3533C16.845 11.0199 16.72 10.758 16.4699 10.5675C16.2318 10.365 15.9043 10.2638 15.4876 10.2638C15.1066 10.2638 14.7494 10.3412 14.416 10.496C14.0945 10.6508 13.6599 10.8889 13.1121 11.2104C12.7668 11.4009 12.4811 11.4962 12.2548 11.4962C12.0048 11.4962 11.7905 11.389 11.6119 11.1747C11.4452 10.9485 11.3618 10.6806 11.3618 10.371C11.3618 10.1567 11.3975 9.97806 11.469 9.83518C11.5523 9.68039 11.6774 9.53751 11.844 9.40653C12.368 8.98979 12.9693 8.6683 13.648 8.44206C14.3386 8.20392 15.0292 8.08485 15.7198 8.08485C16.458 8.08485 17.1188 8.21583 17.7023 8.47778C18.2976 8.73974 18.756 9.1029 19.0775 9.56727C19.4109 10.0197 19.5776 10.5317 19.5776 11.1033C19.5776 11.5438 19.4883 11.9487 19.3097 12.3178C19.143 12.675 18.9406 12.9905 18.7025 13.2644C18.4643 13.5263 18.1428 13.8538 17.738 14.2467C17.2855 14.6635 16.9462 15.0147 16.72 15.3005C16.4937 15.5743 16.3508 15.8839 16.2913 16.2292C16.2437 16.4555 16.1425 16.6341 15.9877 16.765C15.8448 16.8841 15.6662 16.9436 15.4519 16.9436ZM15.4876 20.9444C15.047 20.9444 14.6839 20.8015 14.3981 20.5157C14.1123 20.2181 13.9694 19.8489 13.9694 19.4084C13.9694 18.9678 14.1123 18.6047 14.3981 18.3189C14.6839 18.0212 15.047 17.8724 15.4876 17.8724C15.9162 17.8724 16.2734 18.0212 16.5592 18.3189C16.845 18.6047 16.9879 18.9678 16.9879 19.4084C16.9879 19.8489 16.845 20.2181 16.5592 20.5157C16.2734 20.8015 15.9162 20.9444 15.4876 20.9444Z" fill="#F9F9F9"/>
<path opacity="0.7" d="M10.7789 18.1397C10.5996 18.2201 10.4296 18.2228 10.2689 18.1481C10.1163 18.0696 9.99439 17.9286 9.90311 17.7248C9.71689 17.3092 9.63506 16.93 9.65761 16.5871C9.68832 16.2407 9.77551 15.8347 9.9192 15.3691C10.0261 15.0178 10.0919 14.7388 10.1166 14.532C10.1459 14.3134 10.1131 14.0982 10.0181 13.8863C9.9159 13.6581 9.75 13.5171 9.52044 13.4634C9.29538 13.3979 9.04022 13.429 8.75499 13.5568C8.4942 13.6737 8.27344 13.8362 8.09271 14.0443C7.92014 14.2489 7.6957 14.5451 7.4194 14.9331C7.24148 15.1694 7.07509 15.3223 6.92025 15.3916C6.74911 15.4683 6.56955 15.4607 6.38158 15.3688C6.19811 15.265 6.05891 15.1072 5.96398 14.8953C5.89826 14.7486 5.86794 14.6154 5.87302 14.4957C5.8826 14.3642 5.92436 14.2281 5.99829 14.0873C6.22908 13.6414 6.54206 13.237 6.93722 12.874C7.33687 12.4993 7.77304 12.206 8.24573 11.9942C8.75101 11.7678 9.24348 11.6548 9.72314 11.6552C10.211 11.652 10.6361 11.76 10.9985 11.9792C11.3655 12.1867 11.6366 12.486 11.8118 12.8772C11.9469 13.1787 12.0099 13.4832 12.0009 13.7906C11.9963 14.0862 11.9545 14.3642 11.8755 14.6247C11.7929 14.877 11.6732 15.1997 11.5166 15.5928C11.3347 16.0168 11.2102 16.3613 11.143 16.6262C11.0721 16.883 11.0692 17.1388 11.1344 17.3934C11.1711 17.5628 11.1566 17.7161 11.0909 17.8532C11.0296 17.9785 10.9256 18.074 10.7789 18.1397ZM12.0302 20.8671C11.7286 21.0022 11.4362 21.0158 11.153 20.9078C10.8661 20.7917 10.6552 20.5828 10.5201 20.2813C10.385 19.9798 10.3714 19.6874 10.4794 19.4042C10.5837 19.1128 10.7866 18.8996 11.0881 18.7645C11.3815 18.633 11.6717 18.6254 11.9585 18.7415C12.2418 18.8494 12.4509 19.0542 12.586 19.3557C12.7211 19.6573 12.7365 19.9537 12.6322 20.2451C12.5242 20.5283 12.3235 20.7356 12.0302 20.8671Z" fill="#E9ECEF"/>
<path opacity="0.7" d="M21.5301 18.3451C21.3508 18.2648 21.2356 18.1398 21.1844 17.9701C21.1413 17.804 21.1655 17.6191 21.2567 17.4154C21.4429 16.9997 21.6714 16.6862 21.9422 16.4748C22.2212 16.2671 22.5822 16.0619 23.0253 15.8591C23.3585 15.7051 23.6106 15.5684 23.7814 15.4492C23.964 15.3255 24.1028 15.1578 24.1977 14.9459C24.2999 14.7177 24.2946 14.5 24.1819 14.293C24.081 14.0814 23.8879 13.9117 23.6026 13.784C23.3418 13.6671 23.0736 13.6106 22.798 13.6143C22.5304 13.6217 22.16 13.6514 21.6865 13.7035C21.3917 13.7281 21.1669 13.7057 21.0121 13.6363C20.8409 13.5596 20.7271 13.4206 20.6706 13.2191C20.6258 13.0131 20.6509 12.8042 20.7458 12.5923C20.8115 12.4456 20.8908 12.3343 20.9835 12.2584C21.088 12.178 21.2174 12.1186 21.3716 12.08C21.858 11.9554 22.3681 11.9197 22.902 11.973C23.4477 12.0217 23.957 12.152 24.4296 12.3637C24.9349 12.5901 25.3471 12.8823 25.6661 13.2405C25.9933 13.6023 26.1957 13.9915 26.2734 14.4079C26.3629 14.8198 26.32 15.2214 26.1448 15.6126C26.0097 15.9141 25.8244 16.1638 25.589 16.3617C25.3654 16.5551 25.1301 16.709 24.8831 16.8234C24.6398 16.9297 24.3194 17.0553 23.9218 17.2001C23.4843 17.3466 23.1443 17.483 22.9019 17.6092C22.6631 17.7273 22.4703 17.8954 22.3237 18.1135C22.2218 18.2537 22.0977 18.3449 21.9516 18.3871C21.8173 18.4248 21.6768 18.4108 21.5301 18.3451ZM20.3279 21.0944C20.0264 20.9593 19.8216 20.7502 19.7136 20.467C19.6093 20.1756 19.6247 19.8792 19.7597 19.5776C19.8948 19.2761 20.104 19.0713 20.3872 18.9633C20.674 18.8472 20.9683 18.8567 21.2698 18.9917C21.5632 19.1232 21.7621 19.3346 21.8664 19.6259C21.9744 19.9092 21.9608 20.2015 21.8257 20.5031C21.6907 20.8046 21.4797 21.0135 21.1928 21.1296C20.9096 21.2376 20.6213 21.2258 20.3279 21.0944Z" fill="#E9ECEF"/>
</svg>
