<svg xmlns="http://www.w3.org/2000/svg" width="36" height="36" fill="none" viewBox="0 0 36 36">
    <circle cx="18" cy="18" r="18" fill="#60B515"/>
    <path fill="#F9F9F9" d="M17.36 18.989c-.293 0-.526-.1-.7-.3-.16-.2-.24-.467-.24-.8 0-.68.12-1.247.36-1.7.254-.454.62-.954 1.1-1.5.36-.414.62-.754.78-1.02.174-.28.26-.594.26-.94 0-.373-.14-.667-.42-.88-.266-.227-.633-.34-1.1-.34-.426 0-.826.086-1.2.26-.36.173-.846.44-1.46.8-.386.213-.706.32-.96.32-.28 0-.52-.12-.72-.36-.186-.254-.28-.553-.28-.9 0-.24.04-.44.12-.6.094-.174.234-.334.42-.48.587-.467 1.26-.827 2.02-1.08.774-.267 1.547-.4 2.32-.4.827 0 1.567.147 2.22.44.667.293 1.18.7 1.54 1.22.374.507.56 1.08.56 1.72 0 .493-.1.947-.3 1.36-.186.4-.413.753-.68 1.06-.266.293-.626.66-1.08 1.1-.506.467-.886.86-1.14 1.18-.253.306-.413.653-.48 1.04-.053.253-.166.453-.34.6-.16.133-.36.2-.6.2zm.04 4.48c-.493 0-.9-.16-1.22-.48-.32-.334-.48-.747-.48-1.24s.16-.9.48-1.22c.32-.334.727-.5 1.22-.5.48 0 .88.166 1.2.5.32.32.48.727.48 1.22s-.16.907-.48 1.24c-.32.32-.72.48-1.2.48z"/>
    <path fill="#E9ECEF" d="M10.454 21.984c-.215.096-.418.1-.61.01-.182-.094-.327-.262-.436-.506-.223-.496-.32-.95-.294-1.359.037-.413.141-.898.313-1.455.127-.419.206-.752.236-1 .035-.26-.005-.517-.118-.77-.122-.273-.32-.442-.594-.506-.27-.078-.574-.04-.915.112-.311.14-.575.333-.79.582-.207.245-.475.598-.805 1.062-.213.282-.411.465-.596.547-.205.092-.42.083-.644-.027-.219-.124-.385-.312-.498-.565-.079-.176-.115-.335-.11-.478.012-.157.062-.32.15-.488.276-.532.65-1.015 1.122-1.449.477-.447.998-.798 1.563-1.05.603-.27 1.192-.406 1.765-.405.582-.004 1.09.125 1.523.386.438.248.762.606.972 1.073.16.36.236.724.225 1.091-.005.353-.055.685-.15.996-.098.302-.241.687-.428 1.157-.217.506-.366.918-.446 1.234-.085.307-.088.612-.01.916.043.203.026.386-.053.55-.073.15-.197.263-.372.342zm1.494 3.258c-.36.161-.71.177-1.047.048-.343-.139-.595-.388-.756-.748-.162-.36-.178-.71-.05-1.048.125-.348.368-.602.728-.764.35-.157.697-.166 1.04-.027.338.129.588.373.75.733.16.36.179.715.054 1.063-.129.338-.368.586-.719.743zM25.114 21.388c-.215-.096-.352-.245-.413-.448-.052-.198-.023-.419.086-.662.223-.497.495-.871.819-1.124.333-.248.764-.493 1.294-.735.398-.184.699-.347.903-.49.218-.147.384-.348.497-.6.122-.273.116-.533-.019-.78-.12-.253-.351-.456-.692-.609-.311-.14-.632-.207-.96-.202-.32.008-.763.044-1.329.106-.352.03-.62.003-.805-.08-.204-.092-.34-.258-.408-.498-.053-.246-.023-.496.09-.749.078-.175.173-.308.284-.399.125-.096.28-.167.463-.213.581-.149 1.19-.191 1.828-.128.652.058 1.26.214 1.825.467.604.27 1.096.62 1.477 1.047.39.432.633.897.725 1.395.107.492.056.971-.153 1.439-.162.36-.383.658-.664.894-.267.231-.548.415-.843.552-.291.127-.674.277-1.149.45-.522.175-.928.338-1.218.488-.285.141-.515.342-.69.603-.122.167-.27.276-.445.327-.16.045-.328.028-.503-.05zm-1.436 3.284c-.36-.161-.605-.41-.734-.75-.125-.347-.106-.701.055-1.062.161-.36.411-.604.75-.733.342-.139.694-.128 1.054.034.35.157.588.41.712.757.13.338.113.688-.048 1.048-.162.36-.413.61-.756.748-.338.13-.683.115-1.033-.042z" opacity=".7"/>
</svg>
