<svg width="20" height="20" viewBox="0 0 20 20" fill="none" xmlns="http://www.w3.org/2000/svg">
<path d="M18.2292 15H15V18.2292C15.2517 18.1424 15.4297 18.0469 15.5339 17.9427L17.9427 15.5339C18.0469 15.4297 18.1424 15.2517 18.2292 15ZM14.5833 13.3333H18.3333V1.66667H1.66667V18.3333H13.3333V14.5833C13.3333 14.2361 13.4549 13.941 13.6979 13.6979C13.941 13.4549 14.2361 13.3333 14.5833 13.3333ZM20 1.25V14.5833C20 14.9306 19.9132 15.3125 19.7396 15.7292C19.566 16.1458 19.3576 16.4757 19.1146 16.7188L16.7188 19.1146C16.4757 19.3576 16.1458 19.566 15.7292 19.7396C15.3125 19.9132 14.9306 20 14.5833 20H1.25C0.902778 20 0.607639 19.8785 0.364583 19.6354C0.121528 19.3924 0 19.0972 0 18.75V1.25C0 0.902778 0.121528 0.607639 0.364583 0.364583C0.607639 0.121528 0.902778 0 1.25 0H18.75C19.0972 0 19.3924 0.121528 19.6354 0.364583C19.8785 0.607639 20 0.902778 20 1.25Z" fill="white"/>
</svg>
