<svg width="16" height="16" viewBox="0 0 16 16" fill="none" xmlns="http://www.w3.org/2000/svg">
<path fill-rule="evenodd" clip-rule="evenodd" d="M10.4577 1.41527C9.89421 1.41527 9.35384 1.6391 8.95542 2.03751L2.45227 8.54067C1.78829 9.20465 1.41527 10.1052 1.41527 11.0442C1.41527 11.9832 1.78829 12.8838 2.45227 13.5477C3.11624 14.2117 4.01679 14.5847 4.9558 14.5847C5.89481 14.5847 6.79535 14.2117 7.45933 13.5477L13.9625 7.04458C14.2388 6.76823 14.6869 6.76823 14.9632 7.04458C15.2396 7.32093 15.2396 7.76898 14.9632 8.04532L8.46008 14.5485C7.53068 15.4779 6.27016 16 4.9558 16C3.64144 16 2.38091 15.4779 1.45152 14.5485C0.522127 13.6191 0 12.3586 0 11.0442C0 9.72984 0.522127 8.46932 1.45152 7.53992L7.95468 1.03677C8.61851 0.372936 9.51885 0 10.4577 0C11.3965 0 12.2968 0.372936 12.9606 1.03677C13.6245 1.7006 13.9974 2.60095 13.9974 3.53974C13.9974 4.47854 13.6245 5.37889 12.9606 6.04272L6.4504 12.5459C6.05213 12.9441 5.51196 13.1679 4.94872 13.1679C4.38548 13.1679 3.84532 12.9441 3.44705 12.5459C3.04878 12.1476 2.82503 11.6074 2.82503 11.0442C2.82503 10.481 3.04878 9.9408 3.44705 9.54253L9.45515 3.5415C9.73166 3.26531 10.1797 3.26557 10.4559 3.54209C10.7321 3.8186 10.7318 4.26665 10.4553 4.54283L4.44779 10.5433C4.31512 10.6761 4.2403 10.8565 4.2403 11.0442C4.2403 11.2321 4.31494 11.4123 4.44779 11.5451C4.58065 11.678 4.76084 11.7526 4.94872 11.7526C5.13661 11.7526 5.3168 11.678 5.44965 11.5451L11.9599 5.04198C12.3581 4.64359 12.5821 4.10306 12.5821 3.53974C12.5821 2.9763 12.3583 2.43593 11.9599 2.03751C11.5615 1.6391 11.0211 1.41527 10.4577 1.41527Z" fill="#E4E6EA"/>
</svg>
