<?xml version="1.0" encoding="UTF-8"?>
<svg width="164px" height="164px" viewBox="0 0 164 164" version="1.1" xmlns="http://www.w3.org/2000/svg" xmlns:xlink="http://www.w3.org/1999/xlink">
    <!-- Generator: Sketch 51.2 (57519) - http://www.bohemiancoding.com/sketch -->
    <title>rank_platinum</title>
    <desc>Created with Sketch.</desc>
    <defs></defs>
    <g id="Components" stroke="none" stroke-width="1" fill="none" fill-rule="evenodd">
        <g id="rank_platinum" transform="translate(-1.000000, 0.000000)" fill-rule="nonzero">
            <path d="M84,161.43 C82.2223622,161.427519 80.4612953,161.088199 78.81,160.43 L32.33,142.06 C28.8374225,140.695063 26.0383884,137.986088 24.56,134.54 L4.67,88.65 C3.16495558,85.216131 3.10011465,81.3220732 4.49,77.84 L22.87,31.33 C24.2349373,27.8374225 26.9439124,25.0383884 30.39,23.56 L76.28,3.67 C79.7169908,2.17932716 83.6052852,2.11458221 87.09,3.49 L133.6,21.87 C137.092578,23.2349373 139.891612,25.9439124 141.37,29.39 L161.26,75.28 C162.765044,78.713869 162.829885,82.6079268 161.44,86.09 L143.06,132.6 C141.695063,136.092578 138.986088,138.891612 135.54,140.37 L89.65,160.26 C87.8683338,161.038072 85.9441418,161.436533 84,161.43 Z" id="Shape" fill="#333333"></path>
            <path d="M81.9,5 C83.3616986,4.99808715 84.8105447,5.27292682 86.17,5.81 L132.68,24.19 C135.554858,25.3150941 137.859654,27.544264 139.08,30.38 L159,76.27 C160.237068,79.097477 160.291084,82.3024418 159.15,85.17 L140.77,131.68 C139.644906,134.554858 137.415736,136.859654 134.58,138.08 L88.66,158 C85.8306056,159.228242 82.6291771,159.282198 79.76,158.15 L33.25,139.74 C30.3751422,138.614906 28.0703463,136.385736 26.85,133.55 L7,87.66 C5.76293193,84.832523 5.70891566,81.6275582 6.85,78.76 L25.19,32.25 C26.3150941,29.3751422 28.544264,27.0703463 31.38,25.85 L77.27,6 C78.7277645,5.35065661 80.3041865,5.01017671 81.9,5 Z M81.9,2.59387641e-15 C79.6261477,-0.000312545254 77.3764168,0.465970561 75.29,1.37 L29.39,21.27 C25.3432181,23.0255431 22.1597128,26.3169638 20.54,30.42 L2.16,76.92 C0.541362629,81.0202526 0.616895938,85.595413 2.37,89.64 L22.26,135.53 C24.0155431,139.576782 27.3069638,142.760287 31.41,144.38 L77.92,162.76 C82.0202526,164.378637 86.595413,164.303104 90.64,162.55 L136.53,142.66 C140.576782,140.904457 143.760287,137.613036 145.38,133.51 L163.77,87 C165.388637,82.8997474 165.313104,78.324587 163.56,74.28 L143.67,28.39 C141.914457,24.3432181 138.623036,21.1597128 134.52,19.54 L88,1.16 C86.0575931,0.393562244 83.9881502,2.88355571e-05 81.9,2.59387641e-15 Z" id="Shape" fill="#D3D1D3"></path>
            <path d="M129.47,57 C129.47,57.6 129.47,58.2 129.47,58.8 L84.47,83 L84.47,45 C100.268507,45.0006951 115.788493,49.1600511 129.47,57.06 L129.47,57 Z" id="Shape" fill="#E0E0E0"></path>
            <path d="M84.47,83 L129.47,58.78 C129.175975,73.4635491 125.293035,87.8520535 118.16,100.69 L84.47,83.11 L84.47,83 Z" id="Shape" fill="#E0E0E0"></path>
            <path d="M84.47,83.11 L118.13,100.74 C114.220741,107.772367 109.387835,114.249873 103.76,120 C98.0463478,125.858765 91.5558148,130.905836 84.47,135 L84.47,83.11 Z" id="Shape" fill="#B0ACB0"></path>
            <path d="M84.47,83.11 L84.47,135 C70.4642465,126.906765 58.9013133,115.184915 51,101.07 L84.41,83.07 L84.47,83.11 Z" id="Shape" fill="#D3D1D3"></path>
            <polygon id="Shape" fill="#D4D8D3" points="84.47 83.05 84.47 83.11 84.41 83.08"></polygon>
            <path d="M84.47,44.9999952 L84.47,83 L84.41,83 L39.51,59.56 C39.51,58.72 39.51,57.88 39.51,57.03 C53.1812131,49.1438109 68.6872873,44.9948324 84.47,44.9999952 Z" id="Shape" fill="#E9E9EA"></path>
            <path d="M84.41,83.08 L51,101.07 C43.8667774,88.3672336 39.9238758,74.1226867 39.51,59.56 L84.41,83.08 Z" id="Shape" fill="#E9E9EA"></path>
        </g>
    </g>
</svg>