<?xml version="1.0" encoding="UTF-8"?>
<svg width="164px" height="164px" viewBox="0 0 164 164" version="1.1" xmlns="http://www.w3.org/2000/svg" xmlns:xlink="http://www.w3.org/1999/xlink">
    <!-- Generator: Sketch 51.2 (57519) - http://www.bohemiancoding.com/sketch -->
    <title>rank_silver</title>
    <desc>Created with Sketch.</desc>
    <defs></defs>
    <g id="Components" stroke="none" stroke-width="1" fill="none" fill-rule="evenodd">
        <g id="rank_silver" transform="translate(-1.000000, 0.000000)" fill-rule="nonzero">
            <path d="M84,161.43 C82.2223622,161.427519 80.4612953,161.088199 78.81,160.43 L32.33,142.06 C28.8374225,140.695063 26.0383884,137.986088 24.56,134.54 L4.67,88.65 C3.16495558,85.216131 3.10011465,81.3220732 4.49,77.84 L22.87,31.33 C24.2349373,27.8374225 26.9439124,25.0383884 30.39,23.56 L76.28,3.67 C79.7169908,2.17932716 83.6052852,2.11458221 87.09,3.49 L133.6,21.87 C137.092578,23.2349373 139.891612,25.9439124 141.37,29.39 L161.26,75.28 C162.765044,78.713869 162.829885,82.6079268 161.44,86.09 L143.06,132.6 C141.695063,136.092578 138.986088,138.891612 135.54,140.37 L89.65,160.26 C87.8683338,161.038072 85.9441418,161.436533 84,161.43 Z" id="Shape" fill="#333333"></path>
            <path d="M81.9,5 C83.3616986,4.99808715 84.8105447,5.27292682 86.17,5.81 L132.68,24.19 C135.554858,25.3150941 137.859654,27.544264 139.08,30.38 L159,76.27 C160.237068,79.097477 160.291084,82.3024418 159.15,85.17 L140.77,131.68 C139.644906,134.554858 137.415736,136.859654 134.58,138.08 L88.66,158 C85.8306056,159.228242 82.6291771,159.282198 79.76,158.15 L33.25,139.74 C30.3751422,138.614906 28.0703463,136.385736 26.85,133.55 L7,87.66 C5.76293193,84.832523 5.70891566,81.6275582 6.85,78.76 L25.19,32.25 C26.3150941,29.3751422 28.544264,27.0703463 31.38,25.85 L77.27,6 C78.7277645,5.35065661 80.3041865,5.01017671 81.9,5 Z M81.9,2.59387641e-15 C79.6261477,-0.000312545254 77.3764168,0.465970561 75.29,1.37 L29.39,21.27 C25.3432181,23.0255431 22.1597128,26.3169638 20.54,30.42 L2.16,76.92 C0.541362629,81.0202526 0.616895938,85.595413 2.37,89.64 L22.26,135.53 C24.0155431,139.576782 27.3069638,142.760287 31.41,144.38 L77.92,162.76 C82.0202526,164.378637 86.595413,164.303104 90.64,162.55 L136.53,142.66 C140.576782,140.904457 143.760287,137.613036 145.38,133.51 L163.77,87 C165.388637,82.8997474 165.313104,78.324587 163.56,74.28 L143.67,28.39 C141.916794,24.3451424 138.629265,21.1619224 134.53,19.54 L88,1.16 C86.0575931,0.393562244 83.9881502,2.88355571e-05 81.9,2.59387641e-15 Z" id="Shape" fill="#B2B6BA"></path>
            <path d="M134.41,68.83 C134.418993,69.1021213 134.309554,69.3647733 134.11,69.55 L109.61,93.43 C109.44478,93.5919479 109.345086,93.809138 109.33,94.04 L83.12,85.54 L83.21,85.41 L134.41,68.83 Z" id="Shape" fill="#B2B6BA"></path>
            <path d="M134.41,68.83 L83.2,85.41 L99.54,63.13 L99.6,62.92 C99.6397605,62.9261907 99.6802395,62.9261907 99.72,62.92 L133.57,67.84 C134.055285,67.9186569 134.411417,68.3383838 134.41,68.83 Z" id="Shape" fill="#D4D8D3"></path>
            <path d="M115.12,128 C115.184471,128.391076 115.011883,128.78332 114.68,129 L83,85.74 L83.15,85.54 L109.34,94 C109.324073,94.0825723 109.324073,94.1674277 109.34,94.25 L115.12,128 Z" id="Shape" fill="#D4D8D3"></path>
            <path d="M83,85.74 L114.68,129 C114.370599,129.178633 113.989401,129.178633 113.68,129 L83.43,113.13 C83.2983806,113.054617 83.1513375,113.010162 83,113 L83,85.74 Z" id="Shape" fill="#B2B6BA"></path>
            <path d="M99.6,62.92 L99.54,63.13 L83.2,85.41 L83,85.5 L83,31.2 C83.3707587,31.2029421 83.7094573,31.41078 83.88,31.74 L99,62.42 C99.1169334,62.6666413 99.3363157,62.8494598 99.6,62.92 Z" id="Shape" fill="#B2B6BA"></path>
            <path d="M83,112.88 L83,113 C82.8400767,112.999357 82.6823316,113.037078 82.54,113.11 L52.23,129 C51.9099582,129.160446 51.5285613,129.137562 51.23,128.94 L83,85.74 L83,112.88 Z" id="Shape" fill="#D4D8D3"></path>
            <path d="M83,31.1998564 L83,85.5 L82.76,85.41 L66.38,63.13 L66.32,62.92 C66.5969339,62.8616582 66.8302953,62.6764507 66.95,62.42 L82.09,31.75 C82.262655,31.4072284 82.6162552,31.193514 83,31.1998564 Z" id="Shape" fill="#D4D8D3"></path>
            <path d="M83,85.74 L51.24,129 C50.9119083,128.780711 50.7434632,128.388979 50.81,128 L56.59,94.28 C56.605927,94.1974277 56.605927,94.1125723 56.59,94.03 L82.8,85.54 L83,85.74 Z" id="Shape" fill="#B2B6BA"></path>
            <path d="M82.72,85.41 L82.81,85.54 L56.59,94 C56.5670054,93.7691869 56.4644876,93.553546 56.3,93.39 L31.82,69.54 C31.6204456,69.3547733 31.5110073,69.0921213 31.52,68.82 L82.72,85.41 Z" id="Shape" fill="#D4D8D3"></path>
            <path d="M82.72,85.41 L31.52,68.83 C31.513624,68.3346072 31.8709422,67.9092284 32.36,67.83 L66.21,63 C66.2460154,63.0097738 66.2839846,63.0097738 66.32,63 L66.38,63.21 L82.72,85.41 Z" id="Shape" fill="#B2B6BA"></path>
        </g>
    </g>
</svg>