<svg width="32" height="32" viewBox="0 0 32 32" fill="none" xmlns="http://www.w3.org/2000/svg">
<path fill-rule="evenodd" clip-rule="evenodd" d="M6.52625 16H25.4736V24.3333C25.4736 24.8856 25.0259 25.3333 24.4736 25.3333H14.6666V20H10.6666V25.3333H7.52625C6.97396 25.3333 6.52625 24.8856 6.52625 24.3333V16Z" stroke="white" stroke-width="1.33333" stroke-linecap="round" stroke-linejoin="round"/>
<path d="M22.4596 6.66667H9.54044C9.40783 6.66667 9.28065 6.71935 9.18689 6.81311L8 8L6 10H26L24 8L22.8131 6.81311C22.7193 6.71935 22.5922 6.66667 22.4596 6.66667Z" stroke="white" stroke-width="1.33333"/>
<path d="M4.19407 14.8356L4.66667 12H27.3333L27.8059 14.8356C27.9075 15.4451 27.4375 16 26.8195 16H5.18046C4.56252 16 4.09248 15.4451 4.19407 14.8356Z" stroke="white" stroke-width="1.33333"/>
</svg>
