<svg width="22" height="22" viewBox="0 0 22 22" fill="none" xmlns="http://www.w3.org/2000/svg">
<path d="M0 20.625H22V22H0V20.625Z" fill="#D0D0D0"/>
<path d="M0.6875 11H21.3125V20.625H0.6875V11Z" fill="#62727A"/>
<path d="M2.0625 14.4375H6.875V20.625H2.0625V14.4375Z" fill="#D6EEF0"/>
<path d="M0.6875 9.28125H21.3125V11.3438H0.6875V9.28125Z" fill="#3E4347"/>
<path d="M0 9.28125C0 10.0375 0.61875 10.6562 1.375 10.6562C2.13125 10.6562 2.75 10.0375 2.75 9.28125H0Z" fill="#83BF4F"/>
<path d="M2.75 9.28125C2.75 10.0375 3.36875 10.6562 4.125 10.6562C4.88125 10.6562 5.5 10.0375 5.5 9.28125H2.75Z" fill="#D33B23"/>
<path d="M5.5 9.28125C5.5 10.0375 6.11875 10.6562 6.875 10.6562C7.63125 10.6562 8.25 10.0375 8.25 9.28125H5.5Z" fill="#83BF4F"/>
<path d="M5.5 6.1875H8.25V9.28125H5.5V6.1875Z" fill="#C7E755"/>
<path d="M8.25 9.28125C8.25 10.0375 8.86875 10.6562 9.625 10.6562C10.3812 10.6562 11 10.0375 11 9.28125H8.25Z" fill="#D33B23"/>
<path d="M8.25 6.1875H11V9.28125H8.25V6.1875Z" fill="#F15744"/>
<path d="M0 6.1875H2.75V9.28125H0V6.1875Z" fill="#C7E755"/>
<path d="M2.75 6.1875H5.5V9.28125H2.75V6.1875Z" fill="#F15744"/>
<path d="M16.5 6.1875H19.25V9.28125H16.5V6.1875Z" fill="#C7E755"/>
<path d="M19.25 6.1875H22V9.28125H19.25V6.1875Z" fill="#F15744"/>
<path d="M11 9.28125C11 10.0375 11.6187 10.6562 12.375 10.6562C13.1312 10.6562 13.75 10.0375 13.75 9.28125H11Z" fill="#83BF4F"/>
<path d="M11 6.1875H13.75V9.28125H11V6.1875Z" fill="#C7E755"/>
<path d="M13.75 9.28125C13.75 10.0375 14.3687 10.6562 15.125 10.6562C15.8812 10.6562 16.5 10.0375 16.5 9.28125H13.75Z" fill="#D33B23"/>
<path d="M13.75 6.1875H16.5V9.28125H13.75V6.1875Z" fill="#F15744"/>
<path d="M16.5 9.28125C16.5 10.0375 17.1187 10.6562 17.875 10.6562C18.6312 10.6562 19.25 10.0375 19.25 9.28125H16.5Z" fill="#83BF4F"/>
<path d="M19.25 9.28125C19.25 10.0375 19.8687 10.6562 20.625 10.6562C21.3812 10.6562 22 10.0375 22 9.28125H19.25Z" fill="#D33B23"/>
<path d="M4.46875 11.3438C2.75 11.3438 1.375 12.7188 1.375 14.4375H7.5625C7.5625 12.7188 6.1875 11.3438 4.46875 11.3438Z" fill="white"/>
<path d="M2.16565 13.75H6.7719C6.46252 12.7531 5.56877 12.0312 4.46877 12.0312C3.36877 12.0312 2.47502 12.7531 2.16565 13.75Z" fill="#62727A"/>
<path d="M2.0625 14.4375H2.75V20.625H2.0625V14.4375Z" fill="white"/>
<path d="M6.1875 14.4375H6.875V20.625H6.1875V14.4375Z" fill="white"/>
<path d="M2.75 14.4375H6.1875V15.125H2.75V14.4375Z" fill="#B4D7EE"/>
<path d="M9.28125 11.3438H19.5938V18.2188H9.28125V11.3438Z" fill="white"/>
<path d="M20.2812 19.25C20.2812 19.4219 20.1094 19.5938 19.9375 19.5938H8.9375C8.76562 19.5938 8.59375 19.4219 8.59375 19.25V18.5625C8.59375 18.3906 8.76562 18.2188 8.9375 18.2188H19.9375C20.1094 18.2188 20.2812 18.3906 20.2812 18.5625V19.25Z" fill="#3E4347"/>
<path d="M9.96875 12.0312H18.9062V17.5312H9.96875V12.0312Z" fill="#D6EEF0"/>
<path d="M9.96875 12.0312H18.9062V12.7188H9.96875V12.0312Z" fill="#B4D7EE"/>
<path d="M5.5 16.1562C5.29375 16.1562 5.15625 16.3625 5.15625 16.6031V17.2906C5.15625 17.5312 5.29375 17.875 5.43125 18.0125L5.56875 18.15C5.70625 18.2875 5.84375 18.2188 5.84375 17.9781V16.6375C5.84375 16.3625 5.67188 16.1562 5.5 16.1562Z" fill="#62727A"/>
<path d="M22 6.1875H0V0.6875C0 0.309375 0.309375 0 0.6875 0H21.3125C21.6906 0 22 0.309375 22 0.6875V6.1875Z" fill="#3E4347"/>
<path d="M1.03125 0.6875C0.859375 0.6875 0.6875 0.859375 0.6875 1.03125V5.15625C0.6875 5.3625 0.859375 5.5 1.03125 5.5H20.9688C21.1406 5.5 21.3125 5.3625 21.3125 5.15625V1.03125C21.3125 0.859375 21.1406 0.6875 20.9688 0.6875H1.03125Z" fill="#E8E8E8"/>
<path d="M6.0156 1.75313C5.22498 1.40938 4.33123 1.2375 3.47185 1.47813C2.64685 1.71875 2.54373 2.71563 3.23123 3.19688C3.88435 3.60938 4.70935 3.26563 5.39685 3.60938C5.67185 3.74688 5.4656 3.9875 5.29373 4.05625C5.0531 4.125 4.84685 4.125 4.6406 4.125C4.19373 4.125 3.64373 4.05625 3.2656 3.81563C2.88748 3.575 2.54373 4.15938 2.92185 4.4C3.57498 4.8125 4.60623 4.88125 5.3281 4.70938C6.08435 4.5375 6.49685 3.64375 5.84373 3.09375C5.29373 2.6125 4.43435 2.81875 3.74685 2.64688C3.5406 2.6125 3.2656 2.44063 3.47185 2.2C3.6781 2.02813 4.12498 2.0625 4.33123 2.0625C4.7781 2.0625 5.3281 2.2 5.67185 2.37188C6.08435 2.54375 6.4281 1.925 6.0156 1.75313Z" fill="#3E4347"/>
<path d="M17.1875 4.46875V1.71875L16.8437 2.0625C17.1187 2.0625 18.9406 1.99375 18.5281 2.54375C18.2531 2.8875 17.2562 2.75 16.8437 2.75C16.3969 2.75 16.3969 3.4375 16.8437 3.4375C17.6 3.4375 19.1469 3.575 19.25 2.50938C19.3531 1.20313 17.7031 1.375 16.8437 1.375C16.6719 1.375 16.5 1.54688 16.5 1.71875V4.46875C16.5 4.91563 17.1875 4.91563 17.1875 4.46875Z" fill="#3E4347"/>
<path d="M7.5625 1.71875V4.46875C7.5625 4.91563 8.25 4.91563 8.25 4.46875V1.71875C8.25 1.27188 7.5625 1.27188 7.5625 1.71875Z" fill="#3E4347"/>
<path d="M10.3125 1.71875V4.46875C10.3125 4.91563 11 4.91563 11 4.46875V1.71875C11 1.27188 10.3125 1.27188 10.3125 1.71875Z" fill="#3E4347"/>
<path d="M7.9062 3.4375H10.6562C11.1031 3.4375 11.1031 2.75 10.6562 2.75H7.9062C7.45933 2.75 7.45933 3.4375 7.9062 3.4375Z" fill="#3E4347"/>
<path d="M13.75 4.46875C14.5094 4.46875 15.125 3.85314 15.125 3.09375C15.125 2.33436 14.5094 1.71875 13.75 1.71875C12.9906 1.71875 12.375 2.33436 12.375 3.09375C12.375 3.85314 12.9906 4.46875 13.75 4.46875Z" stroke="#3E4347" stroke-width="0.5" stroke-miterlimit="10"/>
<path d="M1.71875 3.4375C1.9086 3.4375 2.0625 3.2836 2.0625 3.09375C2.0625 2.9039 1.9086 2.75 1.71875 2.75C1.5289 2.75 1.375 2.9039 1.375 3.09375C1.375 3.2836 1.5289 3.4375 1.71875 3.4375Z" fill="#3E4347"/>
<path d="M20.2812 3.4375C20.4711 3.4375 20.625 3.2836 20.625 3.09375C20.625 2.9039 20.4711 2.75 20.2812 2.75C20.0914 2.75 19.9375 2.9039 19.9375 3.09375C19.9375 3.2836 20.0914 3.4375 20.2812 3.4375Z" fill="#3E4347"/>
</svg>
