<svg width="24" height="24" viewBox="0 0 24 24" fill="none" xmlns="http://www.w3.org/2000/svg">
<path d="M18.0199 9.49997C18.3499 10.06 18.6099 10.68 18.7799 11.32C18.8899 11.75 19.2899 12.05 19.7399 12.05H19.7499C20.3999 12.05 20.8899 11.44 20.7299 10.82C20.5199 9.97997 20.1899 9.18997 19.7499 8.46997C19.4199 7.91997 18.6399 7.83997 18.1899 8.28997L18.1699 8.29997C17.8499 8.61997 17.7899 9.10997 18.0199 9.49997ZM16.7599 19.24C16.6042 19.0835 16.401 18.9829 16.1821 18.954C15.9633 18.925 15.741 18.9693 15.5499 19.08C14.9899 19.41 14.3799 19.67 13.7299 19.84C13.2999 19.95 12.9999 20.34 12.9999 20.79V20.8C12.9999 21.45 13.6099 21.94 14.2299 21.78C15.0699 21.57 15.8599 21.23 16.5799 20.8C17.1399 20.47 17.2199 19.69 16.7599 19.24ZM18.7699 14.79C18.5999 15.44 18.3499 16.05 18.0099 16.61C17.7799 17 17.8499 17.49 18.1699 17.81L18.1799 17.82C18.6399 18.28 19.4099 18.2 19.7399 17.64C20.1699 16.92 20.4999 16.13 20.7199 15.29C20.8799 14.66 20.3899 14.06 19.7399 14.06H19.7299C19.2799 14.06 18.8899 14.36 18.7699 14.79ZM4.72989 18.3C5.96458 19.9902 7.75071 21.1963 9.77989 21.71C10.3999 21.87 10.9999 21.37 10.9999 20.73C10.9999 20.28 10.6999 19.88 10.2699 19.77C8.65786 19.3746 7.24382 18.4083 6.28989 17.05C4.60989 14.7 4.56989 11.45 6.19989 9.06997C7.60989 7.00997 9.79989 6.01997 11.9999 6.01997V7.78997C11.9999 8.23997 12.5399 8.45997 12.8499 8.13997L15.6399 5.34997C15.8399 5.14997 15.8399 4.83997 15.6399 4.63997L12.8499 1.84997C12.7794 1.78087 12.69 1.73418 12.593 1.71579C12.496 1.69739 12.3958 1.70812 12.3049 1.74662C12.214 1.78512 12.1365 1.84967 12.0822 1.93212C12.028 2.01458 11.9993 2.11125 11.9999 2.20997V4.01997C9.23989 4.01997 6.48989 5.25997 4.66989 7.77997C2.41989 10.89 2.44989 15.21 4.72989 18.3Z" fill="white"/>
</svg>
