<svg width="24" height="24" viewBox="0 0 24 24" fill="none" xmlns="http://www.w3.org/2000/svg">
<path d="M5.83003 8.30003C5.36003 7.83003 4.59003 7.91003 4.26003 8.46003C3.83003 9.19003 3.50003 9.98003 3.28003 10.82C3.12003 11.45 3.61003 12.05 4.26003 12.05H4.27003C4.72003 12.05 5.12003 11.75 5.23003 11.32C5.40003 10.68 5.65003 10.06 5.99003 9.50003C6.09822 9.31002 6.14115 9.0898 6.11225 8.87307C6.08336 8.65634 5.98422 8.45505 5.83003 8.30003ZM7.42003 20.8C8.14003 21.23 8.93003 21.56 9.77003 21.78C10.39 21.94 11 21.44 11 20.8V20.79C11 20.34 10.7 19.94 10.27 19.83C9.62003 19.66 9.01003 19.41 8.45003 19.07C8.26074 18.9593 8.03992 18.9149 7.82255 18.9439C7.60518 18.9729 7.4037 19.0736 7.25003 19.23L7.24003 19.24C6.79003 19.69 6.86003 20.47 7.42003 20.8ZM4.27003 14.06C3.62003 14.06 3.13003 14.67 3.29003 15.29C3.50003 16.13 3.84003 16.92 4.27003 17.64C4.60003 18.19 5.37003 18.27 5.83003 17.82L5.84003 17.81C6.16003 17.49 6.23003 17 6.00003 16.61C5.67003 16.05 5.41003 15.44 5.24003 14.79C5.11003 14.36 4.72003 14.06 4.27003 14.06ZM19.33 7.78003C18.5 6.61002 17.4007 5.65676 16.125 5.00064C14.8493 4.34451 13.4346 4.00476 12 4.01003V2.21003C12 1.76003 11.46 1.54003 11.15 1.86003L8.35003 4.65003C8.15003 4.85003 8.15003 5.16003 8.35003 5.36003L11.14 8.15003C11.46 8.46003 12 8.24003 12 7.79003V6.03003C14.19 6.03003 16.39 7.02003 17.8 9.08003C19.43 11.46 19.39 14.71 17.71 17.06C16.7502 18.4124 15.3387 19.3771 13.73 19.78C13.3 19.87 13 20.28 13 20.72C13 21.36 13.6 21.86 14.23 21.7C16.16 21.22 17.95 20.09 19.28 18.29C21.55 15.21 21.58 10.89 19.33 7.78003Z" fill="white"/>
</svg>
