<svg width="20" height="22" viewBox="0 0 20 22" fill="none" xmlns="http://www.w3.org/2000/svg">
<path fill-rule="evenodd" clip-rule="evenodd" d="M13.0519 14.642C13.168 14.5204 13.3058 14.4239 13.4576 14.358C13.6093 14.2922 13.772 14.2583 13.9363 14.2583C14.1006 14.2583 14.2632 14.2922 14.415 14.358C14.5667 14.4239 14.7046 14.5204 14.8207 14.642L19.6333 19.6787C19.8678 19.924 19.9996 20.2568 19.9998 20.6038C19.9999 20.9509 19.8683 21.2837 19.6339 21.5292C19.3995 21.7747 19.0815 21.9127 18.7499 21.9128C18.4183 21.9129 18.1003 21.7752 17.8657 21.5299L13.0531 16.4931C12.9369 16.3716 12.8447 16.2274 12.7818 16.0685C12.7189 15.9097 12.6865 15.7395 12.6865 15.5676C12.6865 15.3956 12.7189 15.2254 12.7818 15.0666C12.8447 14.9078 12.9369 14.7635 13.0531 14.642H13.0519Z" fill="#AAACAE"/>
<path fill-rule="evenodd" clip-rule="evenodd" d="M8.12514 16.6807C9.02799 16.6807 9.922 16.4945 10.7561 16.1329C11.5903 15.7714 12.3482 15.2413 12.9866 14.5732C13.625 13.9051 14.1314 13.1119 14.4769 12.2389C14.8224 11.3659 15.0003 10.4303 15.0003 9.48535C15.0003 8.54045 14.8224 7.6048 14.4769 6.73183C14.1314 5.85886 13.625 5.06565 12.9866 4.3975C12.3482 3.72936 11.5903 3.19936 10.7561 2.83776C9.922 2.47616 9.02799 2.29005 8.12514 2.29005C6.30174 2.29005 4.55303 3.04812 3.2637 4.3975C1.97436 5.74689 1.25002 7.57704 1.25002 9.48535C1.25002 11.3937 1.97436 13.2238 3.2637 14.5732C4.55303 15.9226 6.30174 16.6807 8.12514 16.6807ZM16.2503 9.48535C16.2503 11.7406 15.3942 13.9035 13.8705 15.4983C12.3467 17.093 10.2801 17.9889 8.12514 17.9889C5.97022 17.9889 3.90356 17.093 2.3798 15.4983C0.856039 13.9035 0 11.7406 0 9.48535C0 7.23007 0.856039 5.06716 2.3798 3.47244C3.90356 1.87772 5.97022 0.981812 8.12514 0.981812C10.2801 0.981812 12.3467 1.87772 13.8705 3.47244C15.3942 5.06716 16.2503 7.23007 16.2503 9.48535Z" fill="#AAACAE"/>
</svg>
