<svg xmlns="http://www.w3.org/2000/svg" width="80" height="80" fill="none" viewBox="0 0 80 80">
    <circle cx="40" cy="40" r="40" fill="#FEC04F"/>
    <g opacity=".8">
        <path fill="#fff" d="M0 0H26.088V39.468H0z" transform="rotate(-5.434 248.649 -323.868) skewX(-.012)"/>
        <path stroke="#000" stroke-width=".5" d="M35.575 24.68l11.23-1.068m-11 3.48l18.424-1.752m-18.212 3.993l18.425-1.753m-18.163 4.51l18.425-1.752m-17.967 6.578l.678 7.151m19.104 5.4l-18.425 1.752-.678-7.152m0 0l20.355-1.936M38.519 55.7l7.37-.702m-7.124 3.287l18.425-1.753m-17.427-8.254c14.475 1.405 2.886-14.36 15.579-11.22"/>
    </g>
    <g opacity=".6">
        <path fill="#fff" d="M0 0H26.067V39.5H0z" transform="matrix(.95295 -.30313 .31052 .95057 17.353 26.887)"/>
        <path stroke="#000" stroke-width=".5" d="M21.624 28.623l10.741-3.419m-9.989 5.725L40 25.32m-16.924 7.75l17.623-5.609m-16.762 8.244l17.622-5.609m-16.117 10.22l2.232 6.835m19.854 1.226l-17.623 5.608-2.231-6.834m0 0l19.468-6.197m-15.84 17.313l7.05-2.243m-6.243 4.714l17.623-5.61M30.89 50.764c14.455-1.692-.327-14.622 12.765-14.244"/>
    </g>
    <path fill="#fff" d="M0 0H26.083V39.476H0z" transform="matrix(.97933 -.2023 .20599 .97855 24.461 22.774)"/>
    <path stroke="#000" stroke-width=".5" d="M28.52 24.946l11.046-2.281m-10.547 4.653l18.122-3.743M29.483 29.52l18.122-3.744m-17.551 6.455l18.122-3.744m-17.124 8.487l1.48 7.032m19.602 3.288l-18.122 3.743-1.48-7.031m0 0l20.02-4.136M34.94 55.443l7.248-1.497m-6.714 4.038l18.123-3.743M35.34 47.935c14.55-.177 1.253-14.58 14.226-12.84"/>
</svg>
