<svg width="42" height="32" viewBox="0 0 42 32" fill="none" xmlns="http://www.w3.org/2000/svg">
<path d="M4.85413 0.333344C3.61092 0.333344 2.41864 0.827204 1.53956 1.70628C0.660486 2.58536 0.166626 3.77764 0.166626 5.02084V28.9792C0.166626 29.5947 0.287872 30.2043 0.523441 30.773C0.75901 31.3417 1.10429 31.8585 1.53956 32.2937C1.97484 32.729 2.49158 33.0743 3.0603 33.3099C3.62901 33.5454 4.23855 33.6667 4.85413 33.6667H37.1458C37.7614 33.6667 38.3709 33.5454 38.9396 33.3099C39.5083 33.0743 40.0251 32.729 40.4604 32.2937C40.8956 31.8585 41.2409 31.3417 41.4765 30.773C41.7121 30.2043 41.8333 29.5947 41.8333 28.9792V5.02084C41.8333 3.77764 41.3394 2.58536 40.4604 1.70628C39.5813 0.827204 38.389 0.333344 37.1458 0.333344H4.85413ZM22.1041 7.55209L28.8854 14.3333C29.0389 14.4764 29.162 14.6489 29.2474 14.8406C29.3328 15.0322 29.3787 15.2391 29.3824 15.4489C29.3861 15.6587 29.3476 15.8671 29.269 16.0617C29.1904 16.2562 29.0734 16.433 28.925 16.5813C28.7767 16.7297 28.5999 16.8467 28.4054 16.9253C28.2108 17.0038 28.0024 17.0424 27.7926 17.0387C27.5828 17.035 27.3759 16.9891 27.1843 16.9037C26.9926 16.8183 26.8201 16.6952 26.677 16.5417L22.5625 12.4292V25.8604C22.5625 26.2748 22.3978 26.6723 22.1048 26.9653C21.8118 27.2583 21.4144 27.4229 21 27.4229C20.5856 27.4229 20.1881 27.2583 19.8951 26.9653C19.6021 26.6723 19.4375 26.2748 19.4375 25.8604V12.4333L15.3333 16.5417C15.1902 16.6952 15.0177 16.8183 14.8261 16.9037C14.6344 16.9891 14.4275 17.035 14.2177 17.0387C14.0079 17.0424 13.7995 17.0038 13.605 16.9253C13.4104 16.8467 13.2337 16.7297 13.0853 16.5813C12.9369 16.433 12.82 16.2562 12.7414 16.0617C12.6628 15.8671 12.6242 15.6587 12.6279 15.4489C12.6316 15.2391 12.6775 15.0322 12.7629 14.8406C12.8483 14.6489 12.9714 14.4764 13.125 14.3333L19.8958 7.55418C20.1888 7.26157 20.5859 7.09722 21 7.09722C21.414 7.09722 21.8112 7.26157 22.1041 7.55418V7.55209Z" fill="#E4E6EA"/>
</svg>
