<svg width="42" height="34" viewBox="0 0 42 34" fill="none" xmlns="http://www.w3.org/2000/svg">
<path d="M4.854 0.333496C3.6108 0.333496 2.41852 0.827357 1.53944 1.70643C0.660364 2.58551 0.166504 3.77779 0.166504 5.021V28.9793C0.166504 29.5949 0.28775 30.2044 0.523319 30.7732C0.758888 31.3419 1.10417 31.8586 1.53944 32.2939C1.97472 32.7292 2.49146 33.0744 3.06018 33.31C3.62889 33.5456 4.23843 33.6668 4.854 33.6668H37.1457C37.7612 33.6668 38.3708 33.5456 38.9395 33.31C39.5082 33.0744 40.025 32.7292 40.4602 32.2939C40.8955 31.8586 41.2408 31.3419 41.4764 30.7732C41.7119 30.2044 41.8332 29.5949 41.8332 28.9793V5.021C41.8332 3.77779 41.3393 2.58551 40.4602 1.70643C39.5812 0.827357 38.3889 0.333496 37.1457 0.333496H4.854ZM22.104 7.55225L28.8853 14.3335C29.0388 14.4765 29.1619 14.649 29.2473 14.8407C29.3327 15.0324 29.3786 15.2393 29.3823 15.4491C29.386 15.6589 29.3474 15.8673 29.2688 16.0618C29.1903 16.2564 29.0733 16.4331 28.9249 16.5815C28.7765 16.7299 28.5998 16.8468 28.4053 16.9254C28.2107 17.004 28.0023 17.0426 27.7925 17.0389C27.5827 17.0352 27.3758 16.9893 27.1841 16.9039C26.9925 16.8185 26.82 16.6953 26.6769 16.5418L22.5623 12.4293V25.8606C22.5623 26.275 22.3977 26.6724 22.1047 26.9654C21.8117 27.2585 21.4142 27.4231 20.9998 27.4231C20.5854 27.4231 20.188 27.2585 19.895 26.9654C19.602 26.6724 19.4373 26.275 19.4373 25.8606V12.4335L15.3332 16.5418C15.1901 16.6953 15.0176 16.8185 14.826 16.9039C14.6343 16.9893 14.4274 17.0352 14.2176 17.0389C14.0078 17.0426 13.7994 17.004 13.6048 16.9254C13.4103 16.8468 13.2335 16.7299 13.0852 16.5815C12.9368 16.4331 12.8198 16.2564 12.7412 16.0618C12.6627 15.8673 12.6241 15.6589 12.6278 15.4491C12.6315 15.2393 12.6774 15.0324 12.7628 14.8407C12.8482 14.649 12.9713 14.4765 13.1248 14.3335L19.8957 7.55433C20.1886 7.26172 20.5858 7.09737 20.9998 7.09737C21.4139 7.09737 21.811 7.26172 22.104 7.55433V7.55225Z" fill="#03A9F4"/>
</svg>
