<svg width="27" height="27" viewBox="0 0 27 27" fill="none" xmlns="http://www.w3.org/2000/svg">
<path d="M13.4999 2.7C19.4534 2.7 24.2999 7.5465 24.2999 13.5C24.2999 19.4535 19.4534 24.3 13.4999 24.3C7.54644 24.3 2.69994 19.4535 2.69994 13.5C2.69994 7.5465 7.54644 2.7 13.4999 2.7ZM13.4999 0C6.04389 0 -6.10352e-05 6.04395 -6.10352e-05 13.5C-6.10352e-05 20.9561 6.04389 27 13.4999 27C20.956 27 26.9999 20.9561 26.9999 13.5C26.9999 6.04395 20.956 0 13.4999 0ZM7.49244 14.85C7.46544 15.0741 7.42494 15.2955 7.42494 15.525C7.42494 17.1362 8.06498 18.6814 9.20427 19.8207C10.3435 20.96 11.8887 21.6 13.4999 21.6C15.1111 21.6 16.6563 20.96 17.7956 19.8207C18.9349 18.6814 19.5749 17.1362 19.5749 15.525C19.5749 15.2955 19.5317 15.0741 19.5074 14.85H7.49244ZM10.7999 10.8V8.1C10.7999 7.74196 10.6577 7.39858 10.4045 7.14541C10.1514 6.89223 9.80798 6.75 9.44994 6.75C9.0919 6.75 8.74852 6.89223 8.49535 7.14541C8.24217 7.39858 8.09994 7.74196 8.09994 8.1V10.8C8.09994 11.158 8.24217 11.5014 8.49535 11.7546C8.74852 12.0078 9.0919 12.15 9.44994 12.15C9.80798 12.15 10.1514 12.0078 10.4045 11.7546C10.6577 11.5014 10.7999 11.158 10.7999 10.8ZM18.8999 10.8V8.1C18.8999 7.74196 18.7577 7.39858 18.5045 7.14541C18.2514 6.89223 17.908 6.75 17.5499 6.75C17.1919 6.75 16.8485 6.89223 16.5953 7.14541C16.3422 7.39858 16.1999 7.74196 16.1999 8.1V10.8C16.1999 11.158 16.3422 11.5014 16.5953 11.7546C16.8485 12.0078 17.1919 12.15 17.5499 12.15C17.908 12.15 18.2514 12.0078 18.5045 11.7546C18.7577 11.5014 18.8999 11.158 18.8999 10.8Z" fill="#15A63D"/>
</svg>
