<svg width="54" height="54" viewBox="0 0 54 54" fill="none" xmlns="http://www.w3.org/2000/svg">
<circle cx="27" cy="27" r="27" fill="#FEC04F"/>
<path d="M32.8219 8.90149L16.3055 13.6476L13.7109 14.407C11.8125 14.9765 11.6859 16.0523 12.1922 17.9507L19.343 43.9593C19.8492 45.8577 20.3555 46.1742 22.3172 45.6046L24.9117 44.8452L41.4281 40.0992C43.3266 39.5296 44.4656 37.5679 43.9594 35.6062L37.2516 11.4327C36.7453 9.47102 34.7203 8.39524 32.8219 8.90149Z" fill="#3E4347"/>
<path d="M31.4297 8.52186L15.1032 13.9008L12.5086 14.7234C10.6102 15.3562 10.5469 16.432 11.1165 18.3305L19.343 44.0227C19.9758 45.9211 20.4821 46.1742 22.3805 45.5414L24.975 44.7187L41.3016 39.3398C43.2 38.707 44.2758 36.682 43.643 34.7836L35.986 10.8633C35.3532 8.96483 33.3282 7.95233 31.4297 8.52186Z" fill="#D0D0D0"/>
<path d="M30.2273 8.26893L14.0906 14.2174L24.975 44.7189L41.1117 38.7705C43.0101 38.0744 43.9593 35.9861 43.2632 34.0877L34.8468 10.3572C34.214 8.52206 32.1257 7.57284 30.2273 8.26893Z" fill="#42ADE2"/>
<path d="M11.5594 15.1664C9.66094 15.8625 9.66094 16.9383 10.2938 18.8367L19.4063 44.2125C20.1024 46.1109 20.6086 46.364 22.507 45.668L25.0383 44.7187L14.0906 14.2172L11.5594 15.1664Z" fill="#3E4347"/>
<path d="M33.0117 20.2922L23.0133 24.0258L21.6211 20.0391L31.6195 16.3688L33.0117 20.2922Z" fill="white"/>
</svg>
