<svg width="48" height="48" viewBox="0 0 48 48" fill="none" xmlns="http://www.w3.org/2000/svg">
<circle cx="24.5" cy="24.5" r="3" stroke="white"/>
<circle cx="24.5" cy="24.5" r="7" stroke="white"/>
<circle cx="24.5" cy="24.5" r="11" stroke="white"/>
<line x1="35.0607" y1="14.0607" x2="24.0607" y2="25.0607" stroke="#18191A" stroke-width="3"/>
<path d="M24 24C23.8047 24.1952 23.8047 24.5118 24 24.7071C24.1953 24.9023 24.5118 24.9023 24.7071 24.7071L24 24ZM35.3535 10L35 9.64645L34.8535 9.79289V10H35.3535ZM39 13.3535L39 13.8535L39.2071 13.8535L39.3536 13.7071L39 13.3535ZM43 9.35352L43.3536 9.70707L44.2071 8.85352L43 8.85352V9.35352ZM39.3535 6L39.8535 6L39.8535 4.79289L39 5.64645L39.3535 6ZM39.3535 7.91992L38.8535 7.91992L39.3535 7.91992ZM35 13L24 24L24.7071 24.7071L35.7071 13.7071L35 13ZM35.8535 13.3535L35.8535 10H34.8535L34.8535 13.3535L35.8535 13.3535ZM35.3535 13.8535L39 13.8535L39 12.8535L35.3535 12.8535L35.3535 13.8535ZM39.3536 13.7071L43.3536 9.70707L42.6464 8.99996L38.6464 13L39.3536 13.7071ZM35.7071 10.3536L39.7071 6.35355L39 5.64645L35 9.64645L35.7071 10.3536ZM43 8.85352L39.3535 8.85352V9.85352L43 9.85352V8.85352ZM38.8535 6L38.8535 7.91992L39.8535 7.91992L39.8535 6L38.8535 6ZM38.8535 7.91992V9.85156L39.8535 9.85156L39.8535 7.91992L38.8535 7.91992Z" fill="white"/>
</svg>
