<svg width="54" height="54" viewBox="0 0 54 54" fill="none" xmlns="http://www.w3.org/2000/svg">
<circle cx="27" cy="27" r="27" fill="#F54F47"/>
<rect x="5.4939" y="17.429" width="27.5843" height="19.1891" transform="rotate(-16.1638 5.4939 17.429)" fill="#F9F9F9"/>
<line x1="6.22422" y1="19.9484" x2="32.7181" y2="12.2694" stroke="#D2615C" stroke-width="0.75"/>
<line x1="6.6278" y1="21.3404" x2="33.1217" y2="13.6614" stroke="#808DBA" stroke-width="0.25"/>
<line x1="6.96154" y1="22.4924" x2="33.4554" y2="14.8133" stroke="#808DBA" stroke-width="0.25"/>
<line x1="7.29552" y1="23.6442" x2="33.7894" y2="15.9652" stroke="#808DBA" stroke-width="0.25"/>
<line x1="7.62926" y1="24.7962" x2="34.1231" y2="17.1172" stroke="#808DBA" stroke-width="0.25"/>
<line x1="7.96325" y1="25.9481" x2="34.4571" y2="18.269" stroke="#808DBA" stroke-width="0.25"/>
<line x1="8.29699" y1="27.1" x2="34.7909" y2="19.421" stroke="#808DBA" stroke-width="0.25"/>
<line x1="8.63097" y1="28.2519" x2="35.1248" y2="20.5729" stroke="#808DBA" stroke-width="0.25"/>
<line x1="8.96471" y1="29.4039" x2="35.4586" y2="21.7248" stroke="#808DBA" stroke-width="0.25"/>
<line x1="9.2987" y1="30.5558" x2="35.7926" y2="22.8768" stroke="#808DBA" stroke-width="0.25"/>
<line x1="9.63268" y1="31.7076" x2="36.1266" y2="24.0286" stroke="#808DBA" stroke-width="0.25"/>
<line x1="9.96642" y1="32.8594" x2="36.4603" y2="25.1804" stroke="#808DBA" stroke-width="0.25"/>
<line x1="10.3004" y1="34.0114" x2="36.7943" y2="26.3324" stroke="#808DBA" stroke-width="0.25"/>
<line x1="10.6341" y1="35.1633" x2="37.128" y2="27.4842" stroke="#808DBA" stroke-width="0.25"/>
<rect x="18.4097" y="21.8595" width="27.5843" height="19.1891" fill="#F9F9F9"/>
<line x1="18.4097" y1="24.4827" x2="45.9939" y2="24.4827" stroke="#D2615C" stroke-width="0.75"/>
<line x1="18.4097" y1="25.9319" x2="45.9939" y2="25.9319" stroke="#808DBA" stroke-width="0.25"/>
<line x1="18.4097" y1="27.1313" x2="45.9939" y2="27.1313" stroke="#808DBA" stroke-width="0.25"/>
<line x1="18.4097" y1="28.3306" x2="45.9939" y2="28.3306" stroke="#808DBA" stroke-width="0.25"/>
<line x1="18.4097" y1="29.53" x2="45.9939" y2="29.53" stroke="#808DBA" stroke-width="0.25"/>
<line x1="18.4097" y1="30.7292" x2="45.9939" y2="30.7292" stroke="#808DBA" stroke-width="0.25"/>
<line x1="18.4097" y1="31.9286" x2="45.9939" y2="31.9286" stroke="#808DBA" stroke-width="0.25"/>
<line x1="18.4097" y1="33.1278" x2="45.9939" y2="33.1278" stroke="#808DBA" stroke-width="0.25"/>
<line x1="18.4097" y1="34.3273" x2="45.9939" y2="34.3273" stroke="#808DBA" stroke-width="0.25"/>
<line x1="18.4097" y1="35.5265" x2="45.9939" y2="35.5265" stroke="#808DBA" stroke-width="0.25"/>
<line x1="18.4097" y1="36.726" x2="45.9939" y2="36.726" stroke="#808DBA" stroke-width="0.25"/>
<line x1="18.4097" y1="37.9252" x2="45.9939" y2="37.9252" stroke="#808DBA" stroke-width="0.25"/>
<line x1="18.4097" y1="39.1245" x2="45.9939" y2="39.1245" stroke="#808DBA" stroke-width="0.25"/>
<line x1="18.4097" y1="40.3237" x2="45.9939" y2="40.3237" stroke="#808DBA" stroke-width="0.25"/>
</svg>
