<svg width="25" height="23" viewBox="0 0 25 23" fill="none" xmlns="http://www.w3.org/2000/svg">
<path d="M0 4.02026C0 2.29526 1.4 0.895264 3.125 0.895264H21.875C23.6 0.895264 25 2.29526 25 4.02026V7.92562C24.6779 7.6971 24.3225 7.51943 23.9464 7.39884L23.2143 7.16669V4.02026C23.2143 3.66506 23.0732 3.32441 22.822 3.07325C22.5709 2.82208 22.2302 2.68098 21.875 2.68098H3.125C2.7698 2.68098 2.42915 2.82208 2.17798 3.07325C1.92682 3.32441 1.78571 3.66506 1.78571 4.02026V15.6274C1.78571 16.3667 2.38571 16.9667 3.125 16.9667H7.14286V15.181C7.14286 14.7074 7.33099 14.2532 7.66588 13.9183C8.00077 13.5834 8.45497 13.3953 8.92857 13.3953H16.0714C16.545 13.3953 16.9992 13.5834 17.3341 13.9183C17.669 14.2532 17.8571 14.7074 17.8571 15.181V15.5471C17.224 15.5333 16.6015 15.7113 16.0714 16.0578V15.181H8.92857V16.9667H15.15L14.3018 18.2131L14.1732 18.4274L14.15 18.4667C14.1002 18.5597 14.0549 18.6551 14.0143 18.7524H3.125C2.2962 18.7524 1.50134 18.4232 0.915291 17.8371C0.32924 17.2511 0 16.4562 0 15.6274V4.02026Z" fill="white"/>
<path d="M24.8571 10.7256C24.95 11.1363 24.9982 11.5685 25 12.0203V12.0703C24.9946 13.631 24.4375 15.4292 23.3286 17.4631C23.0964 17.8917 22.8607 18.2917 22.6196 18.6631C21.375 20.5935 20.0339 21.7828 18.5946 22.2328C18.2669 22.3341 17.9189 22.3508 17.5829 22.2815C17.247 22.2122 16.9341 22.0591 16.6732 21.8363L16.5303 21.706L15.9785 21.1524C15.7458 20.9129 15.5954 20.6055 15.5492 20.2748C15.503 19.9441 15.5633 19.6072 15.7214 19.3131L15.8036 19.181L16.6375 17.956C16.7751 17.7507 16.9644 17.5854 17.1865 17.4769C17.4085 17.3684 17.6553 17.3205 17.9018 17.3381C17.9553 17.3417 18.0107 17.3506 18.066 17.3613L18.2125 17.4024L19.75 17.9149C20.3643 17.4506 20.875 16.8649 21.2857 16.1613C21.6375 15.5578 21.866 14.9453 21.975 14.3238L22.0196 14.0131L20.7393 12.7988C20.532 12.5976 20.3846 12.3429 20.3133 12.063C20.2421 11.7831 20.2498 11.4889 20.3357 11.2131L20.3893 11.0613L20.9714 9.69168C21.0912 9.3882 21.3133 9.13611 21.5993 8.97896C21.8852 8.8218 22.217 8.76946 22.5375 8.83096L22.675 8.86668L23.4018 9.09882C24.125 9.33097 24.6768 9.94882 24.8553 10.7238L24.8571 10.7256Z" fill="white"/>
<path d="M12.5 11.6095C13.4472 11.6095 14.3556 11.2333 15.0254 10.5635C15.6952 9.89373 16.0714 8.98532 16.0714 8.03812C16.0714 7.09092 15.6952 6.18251 15.0254 5.51274C14.3556 4.84296 13.4472 4.46669 12.5 4.46669C11.5528 4.46669 10.6444 4.84296 9.97464 5.51274C9.30486 6.18251 8.92859 7.09092 8.92859 8.03812C8.92859 8.98532 9.30486 9.89373 9.97464 10.5635C10.6444 11.2333 11.5528 11.6095 12.5 11.6095ZM12.5 9.82383C12.0264 9.82383 11.5722 9.6357 11.2373 9.30081C10.9024 8.96592 10.7143 8.51172 10.7143 8.03812C10.7143 7.56452 10.9024 7.11031 11.2373 6.77543C11.5722 6.44054 12.0264 6.2524 12.5 6.2524C12.9736 6.2524 13.4278 6.44054 13.7627 6.77543C14.0976 7.11031 14.2857 7.56452 14.2857 8.03812C14.2857 8.51172 14.0976 8.96592 13.7627 9.30081C13.4278 9.6357 12.9736 9.82383 12.5 9.82383Z" fill="white"/>
</svg>
