<svg width="48" height="48" viewBox="0 0 48 48" fill="none" xmlns="http://www.w3.org/2000/svg">
<path fill-rule="evenodd" clip-rule="evenodd" d="M24.5 15H30C30.5523 15 31 15.4477 31 16V32C31 32.5523 30.5523 33 30 33H18C17.4477 33 17 32.5523 17 32V16C17 15.4477 17.4477 15 18 15H19.5V23.0002V24.0002L20.3 23.4002L22 22.1252L23.7 23.4002L24.5 24.0002V23.0002V15ZM23.5 15H20.5V22.0002L21.7 21.1002L22 20.8752L22.3 21.1002L23.5 22.0002V15ZM16 16C16 14.8954 16.8954 14 18 14H30C31.1046 14 32 14.8954 32 16V32C32 33.1046 31.1046 34 30 34H18C16.8954 34 16 33.1046 16 32V16Z" fill="white"/>
</svg>
