<svg width="54" height="54" viewBox="0 0 54 54" fill="none" xmlns="http://www.w3.org/2000/svg">
<circle cx="27" cy="27" r="27" fill="#4681B4"/>
<path d="M9.63281 39.7969V17.8594H44.3672V39.7969C44.3672 41.8078 42.7219 43.4531 40.7109 43.4531H13.2891C11.2781 43.4531 9.63281 41.8078 9.63281 39.7969Z" fill="#CFD8DC"/>
<path d="M44.3672 14.2031V19.6875H9.63281V14.2031C9.63281 12.1922 11.2781 10.5469 13.2891 10.5469H40.7109C42.7219 10.5469 44.3672 12.1922 44.3672 14.2031Z" fill="#F44336"/>
<path d="M35.2266 16.9453C36.741 16.9453 37.9688 15.7176 37.9688 14.2031C37.9688 12.6887 36.741 11.4609 35.2266 11.4609C33.7121 11.4609 32.4844 12.6887 32.4844 14.2031C32.4844 15.7176 33.7121 16.9453 35.2266 16.9453Z" fill="#B71C1C"/>
<path d="M18.7734 16.9453C20.2879 16.9453 21.5156 15.7176 21.5156 14.2031C21.5156 12.6887 20.2879 11.4609 18.7734 11.4609C17.259 11.4609 16.0312 12.6887 16.0312 14.2031C16.0312 15.7176 17.259 16.9453 18.7734 16.9453Z" fill="#B71C1C"/>
<path d="M35.2266 7.80469C34.2211 7.80469 33.3984 8.62734 33.3984 9.63281V14.2031C33.3984 15.2086 34.2211 16.0312 35.2266 16.0312C36.232 16.0312 37.0547 15.2086 37.0547 14.2031V9.63281C37.0547 8.62734 36.232 7.80469 35.2266 7.80469Z" fill="#B0BEC5"/>
<path d="M18.7734 7.80469C17.768 7.80469 16.9453 8.62734 16.9453 9.63281V14.2031C16.9453 15.2086 17.768 16.0312 18.7734 16.0312C19.7789 16.0312 20.6016 15.2086 20.6016 14.2031V9.63281C20.6016 8.62734 19.7789 7.80469 18.7734 7.80469Z" fill="#B0BEC5"/>
<path d="M33.6295 39.6562H20.3705C19.372 39.6562 18.5625 38.8468 18.5625 37.8482V24.5893C18.5625 23.5907 19.372 22.7812 20.3705 22.7812H33.6295C34.628 22.7812 35.4375 23.5907 35.4375 24.5893V37.8482C35.4375 38.8468 34.628 39.6562 33.6295 39.6562ZM25.9195 35.9626L32.8503 29.0318C33.0856 28.7965 33.0856 28.4149 32.8503 28.1795L31.998 27.3272C31.7626 27.0919 31.381 27.0918 31.1456 27.3272L25.4933 32.9795L22.8544 30.3406C22.619 30.1052 22.2374 30.1052 22.002 30.3406L21.1497 31.1929C20.9144 31.4282 20.9144 31.8098 21.1497 32.0452L25.0671 35.9626C25.3025 36.198 25.6841 36.198 25.9195 35.9626Z" fill="#60B515"/>
</svg>
