<svg width="54" height="54" viewBox="0 0 54 54" fill="none" xmlns="http://www.w3.org/2000/svg">
<circle cx="27" cy="27" r="27" fill="#1E88E5"/>
<path d="M42.1875 18.8156C41.6748 18.5848 41.1055 18.5097 40.5505 18.5997C39.9955 18.6897 39.4791 18.9408 39.0656 19.3219L35.4375 22.6969V20.25C35.4375 18.9073 34.9041 17.6197 33.9547 16.6703C33.0053 15.7209 31.7177 15.1875 30.375 15.1875H15.1875C13.8448 15.1875 12.5572 15.7209 11.6078 16.6703C10.6584 17.6197 10.125 18.9073 10.125 20.25V33.75C10.125 35.0927 10.6584 36.3803 11.6078 37.3297C12.5572 38.2791 13.8448 38.8125 15.1875 38.8125H30.375C31.7177 38.8125 33.0053 38.2791 33.9547 37.3297C34.9041 36.3803 35.4375 35.0927 35.4375 33.75V31.3031L39.0825 34.6781C39.6191 35.1639 40.3162 35.4343 41.04 35.4375C41.4417 35.4366 41.8386 35.3503 42.2044 35.1844C42.7021 34.983 43.1285 34.6379 43.4291 34.193C43.7297 33.7482 43.8908 33.2238 43.8919 32.6869V21.3131C43.8894 20.7743 43.7258 20.2485 43.4221 19.8034C43.1183 19.3583 42.6884 19.0143 42.1875 18.8156Z" fill="#F9F9F9"/>
</svg>
