<svg width="54" height="54" viewBox="0 0 54 54" fill="none" xmlns="http://www.w3.org/2000/svg">
<circle cx="27" cy="27" r="27" fill="#03A9F4"/>
<g clip-path="url(#clip0)">
<path d="M39.0672 32.3553C38.4808 31.5031 38.8082 30.2712 38.6622 28.9111C38.5121 26.6921 37.5586 24.5422 35.7091 22.8226L29.4097 16.9653C29.4097 16.9653 28.1685 15.8102 27.0126 17.0522C25.8583 18.2934 27.1003 19.4485 27.1003 19.4485L29.7615 21.924L32.0683 24.0688C32.0683 24.0688 31.4904 24.6898 28.9372 22.3155L20.3141 14.2948C20.3141 14.2948 19.0712 13.1406 17.9161 14.3826C16.7619 15.6237 18.003 16.7788 18.003 16.7788L26.157 24.3633C26.1393 24.3464 25.5402 24.9472 25.5293 24.9371L16.8049 16.8227C16.8049 16.8227 15.5629 15.6676 14.4078 16.9096C13.2527 18.1516 14.4947 19.3059 14.4947 19.3059L23.2199 27.4219C23.2301 27.432 22.6681 28.0665 22.685 28.0826L15.1587 21.0811C15.1587 21.0811 13.9167 19.926 12.7617 21.168C11.6066 22.41 12.8486 23.5651 12.8486 23.5651L20.8507 31.007C20.9241 31.0753 20.4288 31.7731 20.5208 31.8583L14.7546 26.4955C14.7546 26.4955 13.5126 25.3404 12.3575 26.5832C11.2024 27.8252 12.4444 28.9803 12.4444 28.9803L21.8497 37.7241C23.4199 39.1846 25.0323 39.9237 26.9763 40.1946C27.372 40.2494 27.8783 40.2494 28.0858 40.2756C28.7414 40.3583 29.3169 40.5911 30.0872 41.0636C31.0786 41.6711 32.5661 41.9243 33.4209 41.0105L36.3352 37.8928L39.0259 35.014C39.8798 34.101 39.7271 33.313 39.0672 32.3553Z" fill="#1E88E5"/>
<path d="M13.463 41.3657C13.2959 41.366 13.1326 41.3168 12.9936 41.2241C12.8546 41.1315 12.7463 40.9996 12.6823 40.8453C12.6184 40.691 12.6018 40.5212 12.6346 40.3574C12.6674 40.1936 12.7481 40.0432 12.8664 39.9254L15.8626 36.9309C15.9409 36.8526 16.0339 36.7904 16.1363 36.7481C16.2386 36.7057 16.3483 36.6838 16.4591 36.6838C16.5699 36.6838 16.6796 36.7057 16.782 36.7481C16.8843 36.7904 16.9773 36.8526 17.0557 36.9309C17.134 37.0093 17.1961 37.1023 17.2385 37.2046C17.2809 37.307 17.3027 37.4167 17.3027 37.5275C17.3027 37.6382 17.2809 37.7479 17.2385 37.8503C17.1961 37.9527 17.134 38.0457 17.0557 38.124L14.0595 41.1193C13.9812 41.1977 13.8882 41.2598 13.7858 41.302C13.6834 41.3443 13.5737 41.3659 13.463 41.3657ZM19.1549 42.1436C19.0201 42.1438 18.8872 42.1117 18.7674 42.0499C18.6476 41.9881 18.5444 41.8985 18.4663 41.7886C18.3883 41.6787 18.3378 41.5516 18.319 41.4181C18.3002 41.2847 18.3137 41.1486 18.3584 41.0214L19.1777 38.6817C19.2117 38.574 19.2671 38.4743 19.3404 38.3884C19.4137 38.3025 19.5035 38.2322 19.6045 38.1816C19.7055 38.1311 19.8157 38.1013 19.9284 38.0941C20.0411 38.0869 20.1541 38.1024 20.2607 38.1397C20.3673 38.177 20.4654 38.2353 20.549 38.3112C20.6327 38.3871 20.7002 38.479 20.7477 38.5814C20.7952 38.6839 20.8216 38.7949 20.8254 38.9078C20.8292 39.0207 20.8103 39.1331 20.7698 39.2386L19.9506 41.5783C19.8929 41.7434 19.7853 41.8864 19.6428 41.9877C19.5002 42.089 19.3298 42.1434 19.1549 42.1436ZM12.6859 35.6746C12.4874 35.6735 12.2957 35.6025 12.1443 35.4742C11.9929 35.3458 11.8916 35.1683 11.8581 34.9727C11.8246 34.7771 11.861 34.5759 11.961 34.4045C12.061 34.233 12.2181 34.1023 12.4049 34.0352L14.5101 33.2918C14.6145 33.2549 14.7253 33.239 14.8359 33.2449C14.9466 33.2508 15.055 33.2784 15.155 33.3262C15.2549 33.374 15.3445 33.441 15.4186 33.5234C15.4927 33.6058 15.5498 33.702 15.5867 33.8065C15.6236 33.911 15.6395 34.0217 15.6336 34.1324C15.6277 34.243 15.6001 34.3515 15.5523 34.4514C15.5045 34.5514 15.4375 34.641 15.3551 34.7151C15.2727 34.7891 15.1765 34.8462 15.072 34.8831L12.9668 35.6265C12.8766 35.6583 12.7816 35.6746 12.6859 35.6746ZM37.5427 17.3087C37.3757 17.3088 37.2124 17.2594 37.0735 17.1666C36.9346 17.0739 36.8264 16.942 36.7625 16.7876C36.6986 16.6333 36.682 16.4635 36.7147 16.2997C36.7474 16.1359 36.828 15.9855 36.9462 15.8676L39.9432 12.8722C40.1015 12.714 40.3162 12.6252 40.54 12.6253C40.7639 12.6254 40.9785 12.7143 41.1367 12.8727C41.2949 13.031 41.3837 13.2457 41.3837 13.4695C41.3836 13.6933 41.2946 13.9079 41.1363 14.0661L38.1393 17.0615C38.0611 17.1401 37.9682 17.2024 37.8658 17.2448C37.7634 17.2873 37.6536 17.309 37.5427 17.3087ZM34.0294 15.8768C33.8945 15.8769 33.7617 15.8446 33.6419 15.7827C33.5221 15.7209 33.4188 15.6312 33.3408 15.5212C33.2628 15.4112 33.2123 15.2841 33.1935 15.1506C33.1748 15.0171 33.1882 14.881 33.2329 14.7538L34.0513 12.4141C34.1252 12.2028 34.2799 12.0296 34.4815 11.9324C34.6831 11.8353 34.915 11.8222 35.1262 11.896C35.3375 11.9699 35.5107 12.1246 35.6079 12.3262C35.7051 12.5278 35.7182 12.7597 35.6443 12.971L34.8259 15.3107C34.7683 15.476 34.6606 15.6194 34.5179 15.7208C34.3752 15.8222 34.2045 15.8768 34.0294 15.8768ZM39.2125 20.7486C39.0141 20.7475 38.8223 20.6766 38.671 20.5482C38.5196 20.4199 38.4183 20.2423 38.3847 20.0467C38.3512 19.8511 38.3876 19.65 38.4876 19.4785C38.5876 19.3071 38.7448 19.1764 38.9316 19.1092L41.0359 18.3659C41.2469 18.2914 41.4789 18.3037 41.6808 18.4003C41.8827 18.4968 42.038 18.6696 42.1125 18.8806C42.187 19.0916 42.1747 19.3236 42.0781 19.5255C41.9816 19.7274 41.8088 19.8827 41.5978 19.9572L39.4935 20.7006C39.4032 20.7324 39.3082 20.7486 39.2125 20.7486Z" fill="#C0E9FC"/>
<path d="M41.6729 31.9124C41.1152 31.0416 41.4839 29.8207 41.3844 28.4564C41.3084 26.2339 40.4284 24.0529 38.638 22.2717L32.5393 16.206C32.5393 16.206 31.3378 15.0104 30.1406 16.2127C28.945 17.4142 30.1473 18.6107 30.1473 18.6107L32.7241 21.1748L34.9567 23.3956C34.9567 23.3956 34.3576 23.9963 31.8863 21.5376C29.4132 19.0781 23.5382 13.2309 23.5382 13.2309C23.5382 13.2309 22.3359 12.0353 21.1394 13.2377C19.943 14.4392 21.1453 15.6348 21.1453 15.6348L29.0395 23.4901C29.0226 23.4732 28.4033 24.0529 28.3923 24.0419L19.9464 15.6381C19.9464 15.6381 18.744 14.4417 17.5476 15.644C16.352 16.8464 17.5535 18.042 17.5535 18.042L26.0003 26.4474C26.0104 26.4575 25.4265 27.0726 25.4434 27.0895L18.1576 19.8392C18.1576 19.8392 16.9553 18.6436 15.7588 19.8459C14.5624 21.0483 15.7647 22.2447 15.7647 22.2447L23.5112 29.9524C23.5821 30.0224 23.064 30.7041 23.1526 30.7927L17.5704 25.2383C17.5704 25.2383 16.368 24.0427 15.1716 25.2451C13.9751 26.4474 15.1775 27.6439 15.1775 27.6439L24.2815 36.699C25.802 38.2118 27.3882 39.0041 29.3221 39.3408C29.7161 39.4091 30.2224 39.426 30.4283 39.4589C31.0805 39.5635 31.6475 39.8158 32.4026 40.3144C33.373 40.9549 34.8512 41.2578 35.7363 40.3735L38.7544 37.3563L41.5405 34.5702C42.4256 33.6843 42.2998 32.8911 41.6729 31.9124Z" fill="#E4E6EA"/>
</g>
<defs>
<clipPath id="clip0">
<rect width="30.375" height="30.375" fill="white" transform="translate(11.8125 11.8125)"/>
</clipPath>
</defs>
</svg>
