<svg width="54" height="54" viewBox="0 0 54 54" fill="none" xmlns="http://www.w3.org/2000/svg">
<path d="M54 27C54 41.9117 41.9117 54 27 54C12.0883 54 0 41.9117 0 27C0 12.0883 12.0883 0 27 0C41.9117 0 54 12.0883 54 27Z" fill="#4EC2F7"/>
<path fill-rule="evenodd" clip-rule="evenodd" d="M42.1874 30.5437C42.1874 31.0807 41.974 31.5958 41.5943 31.9755C41.2145 32.3553 40.6994 32.5687 40.1624 32.5687H15.525C14.9879 32.5687 14.4729 32.3553 14.0931 31.9755C13.7133 31.5958 13.5 31.0807 13.5 30.5437V12.9937C13.5 12.4567 13.7133 11.9416 14.0931 11.5619C14.4729 11.1821 14.9879 10.9688 15.525 10.9688H40.1624C40.6994 10.9688 41.2145 11.1821 41.5943 11.5619C41.974 11.9416 42.1874 12.4567 42.1874 12.9937V30.5437Z" fill="white"/>
<path fill-rule="evenodd" clip-rule="evenodd" d="M37.1249 35.6062C37.1249 36.694 36.2001 37.6312 35.0999 37.6312H30.7124C30.3368 37.6312 30.0374 37.8857 30.0374 38.3062V44.3812C30.0374 44.6302 29.952 44.7187 29.7279 44.7187C29.6496 44.7187 29.569 44.6667 29.436 44.5644L21.3472 38.3062C20.3347 37.6312 19.2786 37.6292 19.2786 37.6292L10.4294 37.6285C9.32917 37.6285 8.4375 36.7466 8.4375 35.6589V18.4043C8.4375 17.3172 9.4149 16.3634 10.4625 16.3688H35.0999C36.3021 16.3688 37.1249 17.3064 37.1249 18.3938V35.6062Z" fill="#1E88E5"/>
</svg>
