<svg width="22" height="22" viewBox="0 0 22 22" fill="none" xmlns="http://www.w3.org/2000/svg">
<g clip-path="url(#clip0)">
<path d="M20.7778 17.7809C20.5229 17.1924 20.2302 16.5538 19.5556 16.5538H18.9444C19.6191 16.5538 20.1667 16.0044 20.1667 15.3267V4.89378C20.167 4.73296 20.1356 4.57364 20.0744 4.42494C20.0131 4.27623 19.9232 4.14104 19.8097 4.0271C19.6962 3.91315 19.5614 3.82267 19.4129 3.76083C19.2645 3.69899 19.1053 3.66699 18.9444 3.66667H3.05556C2.38089 3.66667 1.83333 4.21606 1.83333 4.89378V15.3267C1.83333 16.0044 2.38089 16.5538 3.05556 16.5538H2.44444C1.76978 16.5538 1.42572 17.1673 1.22222 17.7809L0 20.7723C0 21.4506 0.547556 22 1.22222 22H20.7778C21.4524 22 22 21.4506 22 20.7729L20.7778 17.7809Z" fill="#CCD6DD"/>
<path d="M0.00488281 20.8236L0.00854948 20.8584L0.112438 21.2813C0.208896 21.495 0.36484 21.6764 0.561636 21.8039C0.758433 21.9313 0.98776 21.9994 1.22222 22H20.7778C21.0933 21.999 21.3962 21.8759 21.6231 21.6567C21.85 21.4374 21.9833 21.1389 21.9951 20.8236H0.00488281Z" fill="#9AAAB4"/>
<path d="M18.9446 14.7125C18.9446 15.0517 18.6714 15.326 18.3334 15.326H3.66678C3.32944 15.326 3.05566 15.0517 3.05566 14.7125V5.50793C3.05566 5.16877 3.32944 4.89438 3.66678 4.89438H18.3334C18.6714 4.89438 18.9446 5.16938 18.9446 5.50793V14.7125Z" fill="#5DADEC"/>
<path d="M20.1092 18.9701L19.6447 17.641C19.4987 17.3598 19.2567 17.1295 18.9187 17.1295H3.12272C2.78539 17.1295 2.56906 17.3788 2.41628 17.7626L1.99583 18.9707C1.862 19.335 2.26961 19.5843 2.60694 19.5843H7.23794C7.23794 19.5843 7.81056 19.5556 7.912 19.2127C8.02933 18.8167 8.16561 18.2203 8.19494 18.1152C8.24017 17.9538 8.43206 17.7907 8.71806 17.7907H13.9602C14.2657 17.7907 14.4161 17.9453 14.4558 18.1366C14.4814 18.2612 14.6464 18.8338 14.7234 19.2256C14.7913 19.5745 15.4696 19.5837 15.4696 19.5837H19.4993C19.836 19.5837 20.243 19.2958 20.1092 18.9701Z" fill="#AEBBC1"/>
<path d="M13.6737 20.2357H8.91864C8.68948 20.2357 8.58986 20.0261 8.62286 19.8232C8.65586 19.6209 8.84225 18.7275 8.85692 18.6236C8.87098 18.5191 9.02436 18.3944 9.17714 18.3944H13.4641C13.6456 18.3944 13.7635 18.4941 13.8002 18.6933C13.8363 18.8931 13.9848 19.6961 13.9964 19.8794C14.008 20.0634 13.8931 20.2357 13.6737 20.2357Z" fill="#9AAAB4"/>
</g>
<defs>
<clipPath id="clip0">
<rect width="22" height="22" fill="white"/>
</clipPath>
</defs>
</svg>
