<svg width="32" height="32" viewBox="0 0 32 32" fill="none" xmlns="http://www.w3.org/2000/svg">
<circle cx="16" cy="16" r="16" fill="#1E88E5"/>
<path d="M25 11.15C24.6962 11.0132 24.3588 10.9687 24.0299 11.022C23.701 11.0754 23.395 11.2242 23.15 11.45L21 13.45V12C21 11.2044 20.6839 10.4413 20.1213 9.87868C19.5587 9.31607 18.7956 9 18 9H9C8.20435 9 7.44129 9.31607 6.87868 9.87868C6.31607 10.4413 6 11.2044 6 12V20C6 20.7956 6.31607 21.5587 6.87868 22.1213C7.44129 22.6839 8.20435 23 9 23H18C18.7956 23 19.5587 22.6839 20.1213 22.1213C20.6839 21.5587 21 20.7956 21 20V18.55L23.16 20.55C23.478 20.8378 23.8911 20.9981 24.32 21C24.558 20.9994 24.7932 20.9483 25.01 20.85C25.3049 20.7307 25.5576 20.5262 25.7357 20.2625C25.9139 19.9989 26.0094 19.6882 26.01 19.37V12.63C26.0086 12.3107 25.9116 11.9991 25.7316 11.7354C25.5516 11.4716 25.2968 11.2677 25 11.15Z" fill="#F9F9F9"/>
<path d="M17.0831 16.0005C17.0831 16.1749 16.9052 16.3003 16.9052 16.3003L11.9115 19.3936C11.5475 19.6322 11.25 19.4555 11.25 19.0034V12.997C11.25 12.5438 11.5475 12.3682 11.9121 12.6062L16.9058 15.7007C16.9052 15.7007 17.0831 15.8261 17.0831 16.0005Z" fill="#1E88E5"/>
</svg>
