<svg width="54" height="54" viewBox="0 0 54 54" fill="none" xmlns="http://www.w3.org/2000/svg">
<circle cx="27" cy="27" r="27" fill="#F54F47"/>
<rect x="5.4939" y="17.429" width="27.5843" height="19.1891" transform="rotate(-16.1638 5.4939 17.429)" fill="#F9F9F9"/>
<line x1="6.22422" y1="19.9484" x2="32.7181" y2="12.2694" stroke="#D2615C" stroke-width="0.75"/>
<line x1="6.6278" y1="21.3404" x2="33.1217" y2="13.6614" stroke="#808DBA" stroke-width="0.25"/>
<line x1="6.96154" y1="22.4924" x2="33.4554" y2="14.8133" stroke="#808DBA" stroke-width="0.25"/>
<line x1="7.29552" y1="23.6442" x2="33.7894" y2="15.9652" stroke="#808DBA" stroke-width="0.25"/>
<line x1="7.62926" y1="24.7962" x2="34.1231" y2="17.1172" stroke="#808DBA" stroke-width="0.25"/>
<line x1="7.96325" y1="25.9481" x2="34.4571" y2="18.269" stroke="#808DBA" stroke-width="0.25"/>
<line x1="8.29699" y1="27.1" x2="34.7909" y2="19.421" stroke="#808DBA" stroke-width="0.25"/>
<line x1="8.63097" y1="28.2519" x2="35.1248" y2="20.5729" stroke="#808DBA" stroke-width="0.25"/>
<line x1="8.96471" y1="29.4039" x2="35.4586" y2="21.7248" stroke="#808DBA" stroke-width="0.25"/>
<line x1="9.2987" y1="30.5558" x2="35.7926" y2="22.8768" stroke="#808DBA" stroke-width="0.25"/>
<line x1="9.63268" y1="31.7076" x2="36.1266" y2="24.0286" stroke="#808DBA" stroke-width="0.25"/>
<line x1="9.96642" y1="32.8594" x2="36.4603" y2="25.1804" stroke="#808DBA" stroke-width="0.25"/>
<line x1="10.3004" y1="34.0114" x2="36.7943" y2="26.3324" stroke="#808DBA" stroke-width="0.25"/>
<line x1="10.6341" y1="35.1633" x2="37.128" y2="27.4842" stroke="#808DBA" stroke-width="0.25"/>
<rect x="18.4097" y="21.8595" width="27.5843" height="19.1891" fill="#F9F9F9"/>
<line x1="18.4097" y1="24.4827" x2="45.9939" y2="24.4827" stroke="#D2615C" stroke-width="0.75"/>
<line x1="18.4097" y1="25.9319" x2="45.9939" y2="25.9319" stroke="#808DBA" stroke-width="0.25"/>
<line x1="18.4097" y1="27.1313" x2="45.9939" y2="27.1313" stroke="#808DBA" stroke-width="0.25"/>
<line x1="18.4097" y1="28.3306" x2="45.9939" y2="28.3306" stroke="#808DBA" stroke-width="0.25"/>
<line x1="18.4097" y1="29.53" x2="45.9939" y2="29.53" stroke="#808DBA" stroke-width="0.25"/>
<line x1="18.4097" y1="30.7292" x2="45.9939" y2="30.7292" stroke="#808DBA" stroke-width="0.25"/>
<line x1="18.4097" y1="31.9286" x2="45.9939" y2="31.9286" stroke="#808DBA" stroke-width="0.25"/>
<line x1="18.4097" y1="33.1278" x2="45.9939" y2="33.1278" stroke="#808DBA" stroke-width="0.25"/>
<line x1="18.4097" y1="34.3273" x2="45.9939" y2="34.3273" stroke="#808DBA" stroke-width="0.25"/>
<line x1="18.4097" y1="35.5265" x2="45.9939" y2="35.5265" stroke="#808DBA" stroke-width="0.25"/>
<line x1="18.4097" y1="36.726" x2="45.9939" y2="36.726" stroke="#808DBA" stroke-width="0.25"/>
<line x1="18.4097" y1="37.9252" x2="45.9939" y2="37.9252" stroke="#808DBA" stroke-width="0.25"/>
<line x1="18.4097" y1="39.1245" x2="45.9939" y2="39.1245" stroke="#808DBA" stroke-width="0.25"/>
<line x1="18.4097" y1="40.3237" x2="45.9939" y2="40.3237" stroke="#808DBA" stroke-width="0.25"/>
<circle cx="26.9999" cy="27.8" r="5.6" fill="white"/>
<path d="M35 27C35 28.5822 34.5308 30.129 33.6518 31.4446C32.7727 32.7602 31.5233 33.7855 30.0615 34.391C28.5997 34.9965 26.9911 35.155 25.4393 34.8463C23.8874 34.5376 22.462 33.7757 21.3431 32.6569C20.2243 31.538 19.4624 30.1126 19.1537 28.5607C18.845 27.0089 19.0035 25.4003 19.609 23.9385C20.2145 22.4767 21.2398 21.2273 22.5554 20.3482C23.871 19.4692 25.4178 19 27 19C29.1217 19 31.1566 19.8429 32.6569 21.3431C34.1571 22.8434 35 24.8783 35 27ZM30.795 26.25H27.75V23.205C27.75 23.0061 27.671 22.8153 27.5303 22.6747C27.3897 22.534 27.1989 22.455 27 22.455C26.8011 22.455 26.6103 22.534 26.4697 22.6747C26.329 22.8153 26.25 23.0061 26.25 23.205V26.25H23.205C23.0061 26.25 22.8153 26.329 22.6747 26.4697C22.534 26.6103 22.455 26.8011 22.455 27C22.455 27.1989 22.534 27.3897 22.6747 27.5303C22.8153 27.671 23.0061 27.75 23.205 27.75H26.25V30.795C26.25 30.9939 26.329 31.1847 26.4697 31.3253C26.6103 31.466 26.8011 31.545 27 31.545C27.1989 31.545 27.3897 31.466 27.5303 31.3253C27.671 31.1847 27.75 30.9939 27.75 30.795V27.75H30.795C30.9939 27.75 31.1847 27.671 31.3253 27.5303C31.466 27.3897 31.545 27.1989 31.545 27C31.545 26.8011 31.466 26.6103 31.3253 26.4697C31.1847 26.329 30.9939 26.25 30.795 26.25V26.25Z" fill="#1E88E5"/>
</svg>
