<svg width="54" height="54" viewBox="0 0 54 54" fill="none" xmlns="http://www.w3.org/2000/svg">
<circle cx="27" cy="27" r="27" fill="#74C182"/>
<g clip-path="url(#clip0)">
<path d="M26.4894 24.8992C26.8803 25.3124 27.5168 25.3124 27.9133 24.8992L33.9938 18.5227C35.7583 16.6689 35.6578 13.5979 33.6812 11.8894C31.9614 10.3985 29.3985 10.6665 27.8239 12.3193L27.1986 12.9726L26.5788 12.3249C25.0042 10.6665 22.4413 10.3985 20.7215 11.8894C18.7505 13.5979 18.6444 16.6689 20.4089 18.5227L26.4894 24.8992ZM42.682 29.2321C42.0231 28.6347 40.9957 28.6738 40.3034 29.2321L35.1441 33.3584C34.5131 33.8666 33.7258 34.1402 32.9106 34.1402H26.3052C25.8138 34.1402 25.4118 33.7381 25.4118 33.2468C25.4118 32.7554 25.8138 32.3534 26.3052 32.3534H30.6772C31.565 32.3534 32.3913 31.7448 32.5365 30.8681C32.7208 29.7514 31.8609 28.7799 30.7721 28.7799H21.8383C20.3307 28.7799 18.8734 29.2991 17.7008 30.2484L15.1044 32.3534H12.0111C11.5197 32.3534 11.1177 32.7554 11.1177 33.2468V38.6071C11.1177 39.0984 11.5197 39.5004 12.0111 39.5004H31.9335C32.7431 39.5004 33.5304 39.2268 34.1669 38.7187L42.6094 31.9625C43.4581 31.2869 43.5251 29.9915 42.682 29.2321Z" fill="white"/>
</g>
<defs>
<clipPath id="clip0">
<rect width="32.1618" height="28.5882" fill="white" transform="translate(11.1177 10.9117)"/>
</clipPath>
</defs>
</svg>
