<svg width="48" height="48" viewBox="0 0 48 48" fill="none" xmlns="http://www.w3.org/2000/svg">
<path fill-rule="evenodd" clip-rule="evenodd" d="M33.3333 24C33.3333 29.1547 29.1547 33.3333 24 33.3333C18.8453 33.3333 14.6667 29.1547 14.6667 24C14.6667 18.8453 18.8453 14.6667 24 14.6667C29.1547 14.6667 33.3333 18.8453 33.3333 24ZM36 24C36 30.6274 30.6274 36 24 36C17.3726 36 12 30.6274 12 24C12 17.3726 17.3726 12 24 12C30.6274 12 36 17.3726 36 24ZM23.5467 26.12C23.6444 26.2267 23.7689 26.28 23.92 26.28C24.0622 26.28 24.1778 26.2444 24.2667 26.1733C24.3644 26.0933 24.4267 25.9822 24.4533 25.84C24.4978 25.52 24.6089 25.2356 24.7867 24.9867C24.9733 24.7289 25.2489 24.4133 25.6133 24.04C26.04 23.6133 26.3644 23.2311 26.5867 22.8933C26.8089 22.5467 26.92 22.1422 26.92 21.68C26.92 21.2533 26.8 20.8756 26.56 20.5467C26.3289 20.2178 26 19.96 25.5733 19.7733C25.1556 19.5867 24.6756 19.4933 24.1333 19.4933C23.6178 19.4933 23.1067 19.5867 22.6 19.7733C22.0933 19.9511 21.6533 20.2 21.28 20.52C21.0667 20.68 20.96 20.8889 20.96 21.1467C20.96 21.3333 21.0133 21.4978 21.12 21.64C21.2356 21.7733 21.3689 21.84 21.52 21.84C21.6622 21.84 21.8444 21.7778 22.0667 21.6533C22.4578 21.3956 22.8 21.2 23.0933 21.0667C23.3867 20.9244 23.6933 20.8533 24.0133 20.8533C24.3867 20.8533 24.68 20.9422 24.8933 21.12C25.1156 21.2889 25.2267 21.52 25.2267 21.8133C25.2267 22.08 25.1644 22.32 25.04 22.5333C24.9156 22.7467 24.72 23.0133 24.4533 23.3333C24.1156 23.7333 23.8578 24.1022 23.68 24.44C23.5022 24.7778 23.4133 25.1911 23.4133 25.68C23.4133 25.8667 23.4578 26.0133 23.5467 26.12ZM23.24 28.8C23.4267 28.9867 23.6622 29.08 23.9467 29.08C24.2222 29.08 24.4533 28.9867 24.64 28.8C24.8356 28.6044 24.9333 28.3644 24.9333 28.08C24.9333 27.7956 24.84 27.56 24.6533 27.3733C24.4667 27.1778 24.2311 27.08 23.9467 27.08C23.6622 27.08 23.4267 27.1778 23.24 27.3733C23.0533 27.56 22.96 27.7956 22.96 28.08C22.96 28.3644 23.0533 28.6044 23.24 28.8Z" fill="white"/>
</svg>
