<svg width="48" height="48" viewBox="0 0 48 48" fill="none" xmlns="http://www.w3.org/2000/svg">
<path d="M32.2878 22.6879H35.4912V24.8254H32.2878V22.6879ZM12 22.6879H15.2033V24.8254H12V22.6879ZM24.8134 12V15.2064H22.6778V12H24.8134ZM16.1857 14.672L18.4601 16.9592L16.9438 18.4662L14.6695 16.2003L16.1857 14.672ZM29.0311 16.9485L31.2948 14.672L32.8217 16.2003L30.5473 18.4662L29.0311 16.9485ZM23.7456 17.3439C25.4447 17.3439 27.0743 18.0196 28.2758 19.2222C29.4773 20.4248 30.1523 22.0559 30.1523 23.7567C30.1523 26.1294 28.8603 28.2028 26.9489 29.3143V31.2382C26.9489 31.5216 26.8364 31.7935 26.6362 31.9939C26.4359 32.1943 26.1643 32.3069 25.8811 32.3069H21.61C21.3268 32.3069 21.0552 32.1943 20.855 31.9939C20.6547 31.7935 20.5422 31.5216 20.5422 31.2382V29.3143C18.6309 28.2028 17.3389 26.1294 17.3389 23.7567C17.3389 22.0559 18.0139 20.4248 19.2154 19.2222C20.4169 18.0196 22.0464 17.3439 23.7456 17.3439ZM25.8811 33.3757V34.4445C25.8811 34.728 25.7686 34.9998 25.5684 35.2003C25.3682 35.4007 25.0966 35.5133 24.8134 35.5133H22.6778C22.3946 35.5133 22.123 35.4007 21.9228 35.2003C21.7225 34.9998 21.61 34.728 21.61 34.4445V33.3757H25.8811ZM22.6778 30.1694H24.8134V27.8929C26.6606 27.4226 28.0167 25.7446 28.0167 23.7567C28.0167 22.6228 27.5667 21.5354 26.7657 20.7337C25.9647 19.9319 24.8784 19.4815 23.7456 19.4815C22.6128 19.4815 21.5264 19.9319 20.7254 20.7337C19.9245 21.5354 19.4745 22.6228 19.4745 23.7567C19.4745 25.7446 20.8305 27.4226 22.6778 27.8929V30.1694Z" fill="white"/>
</svg>
