<svg width="22" height="22" viewBox="0 0 22 22" fill="none" xmlns="http://www.w3.org/2000/svg">
<path fill-rule="evenodd" clip-rule="evenodd" d="M17.3375 1.03467C17.5539 1.1274 17.6541 1.37797 17.5614 1.59433L16.2848 4.57295C16.1921 4.78931 15.9415 4.88954 15.7252 4.79681C15.5088 4.70408 15.4086 4.45351 15.5013 4.23715L16.7779 1.25853C16.8706 1.04217 17.1212 0.941941 17.3375 1.03467ZM9.51033 1.00021C9.74573 1.00021 9.93656 1.19103 9.93656 1.42643V3.97953C9.93656 4.21493 9.74573 4.40576 9.51033 4.40576C9.27493 4.40576 9.08411 4.21493 9.08411 3.97953V1.42643C9.08411 1.19103 9.27493 1.00021 9.51033 1.00021ZM5.80481 2.40159C5.97126 2.23514 6.24113 2.23514 6.40759 2.40159L8.10965 4.10366C8.2761 4.27011 8.2761 4.53998 8.10965 4.70644C7.9432 4.87289 7.67333 4.87289 7.50688 4.70644L5.80481 3.00437C5.63836 2.83792 5.63836 2.56805 5.80481 2.40159ZM2.8262 11.763L2.83466 11.7547L1.66113 11.168C1.62016 11.1475 1.58275 11.1205 1.55036 11.0881L1.12484 10.6626C1.04491 10.5827 1 10.4743 1 10.3612V9.51019C1 9.39715 1.04491 9.28873 1.12484 9.2088L1.55036 8.78328C1.60972 8.72392 1.68479 8.68388 1.7658 8.6672L1.66113 8.61487C1.57865 8.57362 1.51176 8.50674 1.47052 8.42425L1.045 7.57322C0.962955 7.40913 0.995115 7.21094 1.12484 7.08122L1.55036 6.6557L1.97587 6.23018C2.05581 6.15025 2.16422 6.10535 2.27726 6.10535H2.70278C2.74859 6.10535 2.7941 6.11273 2.83756 6.12722L3.14602 6.23004C3.1339 6.1902 3.12759 6.14845 3.12759 6.10606V5.68054C3.12759 5.5675 3.17249 5.45908 3.25242 5.37915L3.67794 4.95363C3.75787 4.8737 3.86629 4.8288 3.97933 4.8288H4.40484H4.83036C4.86521 4.8288 4.89993 4.83307 4.93374 4.84152L6.6358 5.26704C6.64639 5.26968 6.65686 5.27274 6.66721 5.27619L7.94376 5.7017C8.0247 5.72868 8.09215 5.77758 8.14172 5.83961L8.25616 5.96771C8.29187 5.86374 8.36712 5.77567 8.46869 5.72488L9.31972 5.29937C9.3789 5.26978 9.44416 5.25437 9.51033 5.25437H10.3614C10.4822 5.25437 10.5973 5.30565 10.6782 5.39547L13.7648 8.82504V8.65921V8.21435L12.2083 6.8524C12.1513 6.8025 12.1086 6.7383 12.0846 6.66641L11.6591 5.38986C11.6446 5.3464 11.6372 5.30089 11.6372 5.25508V4.82956V3.97853C11.6372 3.86549 11.6821 3.75708 11.762 3.67714L12.1876 3.25163C12.2675 3.17169 12.3759 3.12679 12.4889 3.12679H12.9145C13.0275 3.12679 13.1359 3.17169 13.2159 3.25163L16.9207 6.95644H18.0207C18.195 6.95644 18.3517 7.06255 18.4164 7.22437L20.9695 13.6071C20.9896 13.6575 21 13.7112 21 13.7654V15.893C21 15.9472 20.9896 16.0009 20.9695 16.0513L20.1185 18.1789C20.097 18.2325 20.0649 18.2811 20.0241 18.322L18.7476 19.5985C18.7229 19.6232 18.6954 19.6447 18.6655 19.6626L16.5379 20.9392C16.4716 20.9789 16.3958 20.9999 16.3185 20.9999L14.6165 20.9997C14.5884 20.9997 14.5605 20.9969 14.533 20.9914L12.4054 20.5661C12.343 20.5536 12.2841 20.5273 12.2332 20.4891L10.5311 19.2126L8.82908 17.936L7.12701 16.6595C7.11088 16.6474 7.09562 16.6342 7.08136 16.6199L5.86461 15.4031L2.95968 14.1582C2.90984 14.1368 2.86454 14.1061 2.8262 14.0678L2.40068 13.6423C2.32075 13.5624 2.27584 13.4539 2.27584 13.3409V12.9154V12.4899C2.27584 12.3768 2.32075 12.2684 2.40068 12.1885L2.8262 11.763ZM3.5531 12.4906H3.97791C3.97822 12.5661 3.99857 12.6414 4.03865 12.7082L4.83422 14.0341L3.37093 13.407L3.12829 13.1643V12.9154V12.6664L3.30413 12.4906H3.5531ZM4.38389 11.5763L4.44842 11.4472C4.48967 11.3647 4.55655 11.2978 4.63904 11.2566L5.10884 11.0217L4.87394 10.5519L4.55293 9.90988C4.47483 9.93886 4.38766 9.94523 4.30147 9.92369L2.65031 9.5109H2.02829L1.85245 9.68674V10.1847L2.10422 10.4364L4.38389 11.5763ZM4.5541 9.10828L4.87394 8.4686C4.89443 8.42762 4.92139 8.39022 4.95378 8.35782L5.3793 7.93231L5.38707 7.92473L5.09236 7.77738L2.63361 6.9578H2.45381L2.15313 7.25848L1.94484 7.46676L2.16944 7.91595L4.5541 9.10828ZM5.67997 7.11812V6.53163C5.67997 6.41859 5.72488 6.31017 5.80481 6.23024L6.03862 5.99643L4.77789 5.68125H4.40484H4.15588L3.98004 5.85709V5.92951L4.25087 6.20034L5.47023 7.01324L5.67997 7.11812ZM16.7434 11.8854L14.6172 9.75921V8.65921V8.02094C14.6172 7.89803 14.5642 7.7811 14.4717 7.70017L12.8567 6.28706L12.4897 5.18591V4.82956V4.15508L12.6655 3.97924H12.7379L16.2565 7.49778L15.9142 8.52443C15.8998 8.56789 15.8924 8.6134 15.8924 8.65921V9.93576C15.8924 10.0019 15.9078 10.0672 15.9374 10.1264L16.7434 11.7384V11.8854ZM16.7448 8.72838L17.0513 7.80889H17.7321L20.1475 13.8475V15.8109L19.3595 17.7811L18.1819 18.9586L16.2006 20.1474L14.6587 20.1472L12.6673 19.7492L11.0426 18.5306L9.34055 17.2541L7.66272 15.9957L6.01917 14.3522L4.89 12.4702L5.14734 11.9555L5.61319 11.7226L9.22716 14.935C9.4031 15.0914 9.67251 15.0756 9.8289 14.8996C9.98529 14.7237 9.96944 14.4543 9.7935 14.2979L6.0252 10.9483L5.63639 10.1707L5.30619 9.51024L5.60546 8.91169L5.85723 8.65992H6.35517L10.911 13.2158C11.0775 13.3822 11.3473 13.3822 11.5138 13.2158C11.6802 13.0493 11.6802 12.7794 11.5138 12.613L6.88201 7.98122L6.53243 7.28204V6.70818L6.70827 6.53234H7.6175L8.34144 7.34269L8.34249 7.34386L12.1721 11.599C12.3296 11.774 12.5991 11.7882 12.7741 11.6307C12.949 11.4732 12.9632 11.2037 12.8058 11.0288L9.08553 6.89517V6.36953L9.61095 6.10682H10.1715L13.8742 10.2209C13.8792 10.2264 13.8843 10.2319 13.8896 10.2371L16.4427 12.7902C16.6092 12.9567 16.8791 12.9567 17.0455 12.7902L17.471 12.3647C17.551 12.2848 17.5959 12.1764 17.5959 12.0633V11.6378C17.5959 11.5717 17.5805 11.5064 17.5509 11.4472L16.7448 9.83514V8.72838ZM19.5635 4.31157C19.7473 4.16452 19.7771 3.8963 19.63 3.71249C19.483 3.52867 19.2148 3.49887 19.031 3.64592L16.9034 5.34799C16.7196 5.49504 16.6898 5.76326 16.8368 5.94707C16.9839 6.13089 17.2521 6.16069 17.4359 6.01364L19.5635 4.31157Z" fill="#03A9F4"/>
<path d="M17.5614 1.59433L17.3316 1.49585V1.49585L17.5614 1.59433ZM17.3375 1.03467L17.436 0.804883V0.804883L17.3375 1.03467ZM16.2848 4.57295L16.0551 4.47447L16.2848 4.57295ZM15.7252 4.79681L15.6267 5.0266H15.6267L15.7252 4.79681ZM15.5013 4.23715L15.2715 4.13867L15.5013 4.23715ZM16.7779 1.25853L17.0077 1.35701V1.35701L16.7779 1.25853ZM6.40759 2.40159L6.23081 2.57837L6.40759 2.40159ZM5.80481 2.40159L5.98159 2.57837L5.98159 2.57837L5.80481 2.40159ZM8.10965 4.10366L7.93288 4.28044L8.10965 4.10366ZM8.10965 4.70644L8.28643 4.88321L8.28643 4.88321L8.10965 4.70644ZM7.50688 4.70644L7.68365 4.52966L7.50688 4.70644ZM5.80481 3.00437L5.98159 2.82759L5.98159 2.82759L5.80481 3.00437ZM2.83466 11.7547L3.00897 11.9339L3.26127 11.6885L2.94646 11.5311L2.83466 11.7547ZM2.8262 11.763L2.65187 11.5837L2.64942 11.5862L2.8262 11.763ZM1.66113 11.168L1.54933 11.3916L1.54933 11.3916L1.66113 11.168ZM1.55036 11.0881L1.72714 10.9113L1.72713 10.9113L1.55036 11.0881ZM1.12484 10.6626L0.948065 10.8394L0.948065 10.8394L1.12484 10.6626ZM1.12484 9.2088L1.30162 9.38558L1.30162 9.38558L1.12484 9.2088ZM1.55036 8.78328L1.37358 8.60651L1.37358 8.60651L1.55036 8.78328ZM1.7658 8.6672L1.81621 8.91206L2.52335 8.76647L1.8776 8.44359L1.7658 8.6672ZM1.66113 8.61487L1.77294 8.39126L1.77293 8.39126L1.66113 8.61487ZM1.47052 8.42425L1.24691 8.53606H1.24691L1.47052 8.42425ZM1.045 7.57322L1.26861 7.46141L1.045 7.57322ZM1.12484 7.08122L0.948065 6.90444L0.948065 6.90444L1.12484 7.08122ZM1.55036 6.6557L1.37358 6.47892H1.37358L1.55036 6.6557ZM1.97587 6.23018L2.15265 6.40696L2.15265 6.40696L1.97587 6.23018ZM2.83756 6.12722L2.91662 5.89005L2.91662 5.89005L2.83756 6.12722ZM3.14602 6.23004L3.06696 6.46721L3.52595 6.6202L3.3852 6.15731L3.14602 6.23004ZM3.25242 5.37915L3.4292 5.55593H3.4292L3.25242 5.37915ZM3.67794 4.95363L3.85472 5.13041H3.85472L3.67794 4.95363ZM4.93374 4.84152L4.99437 4.59899L4.99437 4.59899L4.93374 4.84152ZM6.6358 5.26704L6.69644 5.0245L6.69644 5.0245L6.6358 5.26704ZM6.66721 5.27619L6.58815 5.51335L6.58816 5.51336L6.66721 5.27619ZM7.94376 5.7017L7.86471 5.93887V5.93887L7.94376 5.7017ZM8.14172 5.83961L7.94613 5.99592L7.95528 6.00616L8.14172 5.83961ZM8.25616 5.96771L8.06972 6.13426L8.35399 6.45247L8.4926 6.04892L8.25616 5.96771ZM8.46869 5.72488L8.58049 5.94849L8.58049 5.94849L8.46869 5.72488ZM9.31972 5.29937L9.20792 5.07576L9.31972 5.29937ZM10.6782 5.39547L10.864 5.22822V5.22822L10.6782 5.39547ZM13.7648 8.82504L13.579 8.99228L14.0148 9.47653V8.82504H13.7648ZM13.7648 8.21435H14.0148V8.1009L13.9294 8.0262L13.7648 8.21435ZM12.2083 6.8524L12.3729 6.66425L12.3729 6.66425L12.2083 6.8524ZM12.0846 6.66641L12.3218 6.58736V6.58736L12.0846 6.66641ZM11.6591 5.38986L11.8963 5.31081L11.8962 5.31081L11.6591 5.38986ZM11.762 3.67714L11.5853 3.50037L11.5853 3.50037L11.762 3.67714ZM12.1876 3.25163L12.0108 3.07485L12.1876 3.25163ZM13.2159 3.25163L13.3926 3.07485V3.07485L13.2159 3.25163ZM16.9207 6.95644L16.7439 7.13321L16.8171 7.20644H16.9207V6.95644ZM18.4164 7.22437L18.1843 7.31721V7.31721L18.4164 7.22437ZM20.9695 13.6071L21.2016 13.5143L20.9695 13.6071ZM20.9695 16.0513L21.2016 16.1441L20.9695 16.0513ZM20.1185 18.1789L19.8864 18.086L19.8864 18.086L20.1185 18.1789ZM18.6655 19.6626L18.5368 19.4482L18.5368 19.4482L18.6655 19.6626ZM16.5379 20.9392L16.4093 20.7248H16.4093L16.5379 20.9392ZM16.3185 20.9999L16.3186 20.7499L16.3185 20.9999ZM14.6165 20.9997L14.6164 21.2497H14.6164L14.6165 20.9997ZM14.533 20.9914L14.582 20.7463L14.582 20.7463L14.533 20.9914ZM12.4054 20.5661L12.4544 20.321H12.4544L12.4054 20.5661ZM12.2332 20.4891L12.0832 20.6891L12.2332 20.4891ZM10.5311 19.2126L10.6811 19.0126L10.5311 19.2126ZM8.82908 17.936L8.67908 18.136L8.82908 17.936ZM7.12701 16.6595L6.97701 16.8595L6.97701 16.8595L7.12701 16.6595ZM7.08136 16.6199L7.25815 16.4431L7.25814 16.4431L7.08136 16.6199ZM5.86461 15.4031L6.04139 15.2264L6.00734 15.1923L5.96309 15.1734L5.86461 15.4031ZM2.95968 14.1582L3.05816 13.9284L3.05816 13.9284L2.95968 14.1582ZM2.8262 14.0678L3.00297 13.891H3.00297L2.8262 14.0678ZM2.40068 13.6423L2.57746 13.4655H2.57746L2.40068 13.6423ZM2.40068 12.1885L2.2239 12.0117L2.2239 12.0117L2.40068 12.1885ZM3.97791 12.4906L4.22791 12.4896L4.2269 12.2406H3.97791V12.4906ZM4.03865 12.7082L3.82428 12.8368L4.03865 12.7082ZM4.83422 14.0341L4.73574 14.2639L5.44638 14.5685L5.0486 13.9055L4.83422 14.0341ZM3.37093 13.407L3.19415 13.5838L3.2282 13.6178L3.27245 13.6368L3.37093 13.407ZM3.12829 13.1643H2.87829V13.2679L2.95152 13.3411L3.12829 13.1643ZM3.12829 12.6664L2.95152 12.4896L2.87829 12.5629V12.6664H3.12829ZM3.30413 12.4906V12.2406H3.20058L3.12736 12.3138L3.30413 12.4906ZM4.44842 11.4472L4.67203 11.559H4.67203L4.44842 11.4472ZM4.38389 11.5763L4.27209 11.7999L4.4957 11.9117L4.6075 11.6881L4.38389 11.5763ZM4.63904 11.2566L4.52723 11.033L4.52723 11.033L4.63904 11.2566ZM5.10884 11.0217L5.22065 11.2453L5.44425 11.1335L5.33245 10.9099L5.10884 11.0217ZM4.87394 10.5519L5.09755 10.4401V10.4401L4.87394 10.5519ZM4.55293 9.90988L4.77654 9.79807L4.67623 9.59746L4.46595 9.6755L4.55293 9.90988ZM4.30147 9.92369L4.24084 10.1662H4.24084L4.30147 9.92369ZM2.65031 9.5109L2.71094 9.26836L2.68109 9.2609H2.65031V9.5109ZM2.02829 9.5109V9.2609H1.92474L1.85152 9.33412L2.02829 9.5109ZM1.85245 9.68674L1.67568 9.50996L1.60245 9.58318V9.68674H1.85245ZM1.85245 10.1847H1.60245V10.2882L1.67568 10.3614L1.85245 10.1847ZM2.10422 10.4364L1.92745 10.6132L1.95613 10.6419L1.99242 10.66L2.10422 10.4364ZM4.5541 9.10828L4.4423 9.33189L4.6659 9.44369L4.77771 9.22008L4.5541 9.10828ZM4.95378 8.35782L5.13056 8.5346L5.13056 8.5346L4.95378 8.35782ZM5.3793 7.93231L5.20477 7.75328L5.20252 7.75553L5.3793 7.93231ZM5.38707 7.92473L5.56158 8.10374L5.8133 7.85834L5.49887 7.70113L5.38707 7.92473ZM5.09236 7.77738L5.20416 7.55377L5.18827 7.54583L5.17141 7.54021L5.09236 7.77738ZM2.63361 6.9578L2.71267 6.72063L2.67418 6.7078H2.63361V6.9578ZM2.45381 6.9578V6.7078H2.35026L2.27703 6.78102L2.45381 6.9578ZM2.15313 7.25848L1.97636 7.0817L1.97636 7.0817L2.15313 7.25848ZM1.94484 7.46676L1.76807 7.28999L1.64065 7.4174L1.72124 7.57857L1.94484 7.46676ZM2.16944 7.91595L1.94583 8.02775L1.9831 8.10229L2.05763 8.13955L2.16944 7.91595ZM5.67997 7.11812L5.56817 7.34172L5.92997 7.52263V7.11812H5.67997ZM6.03862 5.99643L6.2154 6.17321L6.52762 5.86099L6.09926 5.7539L6.03862 5.99643ZM4.77789 5.68125L4.83852 5.43871L4.80867 5.43125H4.77789V5.68125ZM4.15588 5.68125V5.43125H4.05232L3.9791 5.50447L4.15588 5.68125ZM3.98004 5.85709L3.80326 5.68031L3.73004 5.75353V5.85709H3.98004ZM3.98004 5.92951H3.73004V6.03306L3.80326 6.10628L3.98004 5.92951ZM4.25087 6.20034L4.0741 6.37712L4.0916 6.39462L4.1122 6.40835L4.25087 6.20034ZM5.47023 7.01324L5.33155 7.22126L5.3445 7.22989L5.35842 7.23685L5.47023 7.01324ZM14.6172 9.75921H14.3672V9.86277L14.4405 9.93599L14.6172 9.75921ZM16.7434 11.8854L16.5666 12.0622L16.9934 12.4889V11.8854H16.7434ZM14.4717 7.70017L14.3071 7.88831L14.3071 7.88831L14.4717 7.70017ZM12.8567 6.28706L12.6195 6.36612L12.641 6.43051L12.6921 6.47521L12.8567 6.28706ZM12.4897 5.18591H12.2397V5.22648L12.2525 5.26497L12.4897 5.18591ZM12.4897 4.15508L12.3129 3.9783L12.2397 4.05152V4.15508H12.4897ZM12.6655 3.97924V3.72924H12.5619L12.4887 3.80246L12.6655 3.97924ZM12.7379 3.97924L12.9147 3.80246L12.8415 3.72924H12.7379V3.97924ZM16.2565 7.49778L16.4936 7.57684L16.5425 7.43026L16.4332 7.321L16.2565 7.49778ZM15.9142 8.52443L16.1514 8.60349L16.1514 8.60348L15.9142 8.52443ZM15.9374 10.1264L16.161 10.0146L16.161 10.0146L15.9374 10.1264ZM16.7434 11.7384H16.9934V11.6794L16.967 11.6266L16.7434 11.7384ZM17.0513 7.80889V7.55889H16.8711L16.8141 7.72983L17.0513 7.80889ZM16.7448 8.72838L16.5077 8.64932L16.4948 8.68781V8.72838H16.7448ZM17.7321 7.80889L17.9642 7.71604L17.9014 7.55889H17.7321V7.80889ZM20.1475 13.8475H20.3975V13.7993L20.3797 13.7546L20.1475 13.8475ZM20.1475 15.8109L20.3797 15.9038L20.3975 15.8591V15.8109H20.1475ZM19.3595 17.7811L19.5363 17.9578L19.5725 17.9215L19.5916 17.8739L19.3595 17.7811ZM18.1819 18.9586L18.3105 19.173L18.3369 19.1572L18.3587 19.1354L18.1819 18.9586ZM16.2006 20.1474L16.2005 20.3974L16.2698 20.3974L16.3292 20.3618L16.2006 20.1474ZM14.6587 20.1472L14.6097 20.3924L14.634 20.3972L14.6587 20.3972L14.6587 20.1472ZM12.6673 19.7492L12.5173 19.9492L12.5627 19.9832L12.6183 19.9943L12.6673 19.7492ZM11.0426 18.5306L10.8926 18.7306L11.0426 18.5306ZM9.34055 17.2541L9.49055 17.0541L9.34055 17.2541ZM7.66272 15.9957L7.48594 16.1725L7.4985 16.185L7.51272 16.1957L7.66272 15.9957ZM6.01917 14.3522L5.8048 14.4808L5.82063 14.5072L5.8424 14.5289L6.01917 14.3522ZM4.89 12.4702L4.66639 12.3584L4.60502 12.4811L4.67563 12.5988L4.89 12.4702ZM5.14734 11.9555L5.03554 11.7319L4.961 11.7692L4.92373 11.8437L5.14734 11.9555ZM5.61319 11.7226L5.77928 11.5357L5.65278 11.4233L5.50139 11.499L5.61319 11.7226ZM9.22716 14.935L9.06107 15.1219L9.22716 14.935ZM9.8289 14.8996L9.64205 14.7335L9.8289 14.8996ZM9.7935 14.2979L9.62741 14.4847L9.7935 14.2979ZM6.0252 10.9483L5.8016 11.0601L5.82313 11.1031L5.85911 11.1351L6.0252 10.9483ZM5.63639 10.1707L5.41279 10.2825H5.41279L5.63639 10.1707ZM5.30619 9.51024L5.08258 9.39844L5.02668 9.51024L5.08258 9.62205L5.30619 9.51024ZM5.60546 8.91169L5.42869 8.73491L5.4 8.7636L5.38186 8.79989L5.60546 8.91169ZM5.85723 8.65992V8.40992H5.75368L5.68046 8.48314L5.85723 8.65992ZM6.35517 8.65992L6.53195 8.48314L6.45872 8.40992H6.35517V8.65992ZM10.911 13.2158L10.7342 13.3925L10.7342 13.3925L10.911 13.2158ZM11.5138 13.2158L11.6906 13.3925L11.6906 13.3925L11.5138 13.2158ZM11.5138 12.613L11.6906 12.4362V12.4362L11.5138 12.613ZM6.88201 7.98122L6.65841 8.09302L6.67655 8.12931L6.70524 8.15799L6.88201 7.98122ZM6.53243 7.28204H6.28243V7.34106L6.30882 7.39385L6.53243 7.28204ZM6.53243 6.70818L6.35565 6.5314L6.28243 6.60462V6.70818H6.53243ZM6.70827 6.53234V6.28234H6.60471L6.53149 6.35556L6.70827 6.53234ZM7.6175 6.53234L7.80394 6.36578L7.72939 6.28234H7.6175V6.53234ZM8.34144 7.34269L8.155 7.50925L8.15563 7.50995L8.34144 7.34269ZM8.34249 7.34386L8.52831 7.17662L8.5283 7.1766L8.34249 7.34386ZM12.1721 11.599L12.358 11.4318H12.358L12.1721 11.599ZM12.7741 11.6307L12.6068 11.4449V11.4449L12.7741 11.6307ZM12.8058 11.0288L12.6199 11.196L12.6199 11.196L12.8058 11.0288ZM9.08553 6.89517H8.83553V6.99111L8.8997 7.06241L9.08553 6.89517ZM9.08553 6.36953L8.97372 6.14593L8.83553 6.21503V6.36953H9.08553ZM9.61095 6.10682V5.85682H9.55193L9.49915 5.88321L9.61095 6.10682ZM10.1715 6.10682L10.3574 5.93958L10.2829 5.85682H10.1715V6.10682ZM13.8742 10.2209L13.6884 10.3881L13.6884 10.3882L13.8742 10.2209ZM13.8896 10.2371L14.0664 10.0604L13.8896 10.2371ZM16.4427 12.7902L16.266 12.967H16.266L16.4427 12.7902ZM17.0455 12.7902L17.2223 12.967V12.967L17.0455 12.7902ZM17.471 12.3647L17.2942 12.188V12.188L17.471 12.3647ZM17.5509 11.4472L17.3273 11.559V11.559L17.5509 11.4472ZM16.7448 9.83514H16.4948V9.89416L16.5212 9.94695L16.7448 9.83514ZM19.5635 4.31157L19.7197 4.50679V4.50679L19.5635 4.31157ZM19.031 3.64592L19.1871 3.84114L19.031 3.64592ZM16.9034 5.34799L16.7472 5.15277L16.9034 5.34799ZM17.4359 6.01364L17.5921 6.20886L17.4359 6.01364ZM17.7912 1.69281C17.9383 1.34954 17.7793 0.951999 17.436 0.804883L17.239 1.26446C17.3285 1.30279 17.3699 1.40639 17.3316 1.49585L17.7912 1.69281ZM16.5146 4.67143L17.7912 1.69281L17.3316 1.49585L16.0551 4.47447L16.5146 4.67143ZM15.6267 5.0266C15.97 5.17371 16.3675 5.0147 16.5146 4.67143L16.0551 4.47447C16.0167 4.56392 15.9131 4.60536 15.8237 4.56703L15.6267 5.0266ZM15.2715 4.13867C15.1244 4.48194 15.2834 4.87948 15.6267 5.0266L15.8237 4.56703C15.7342 4.52869 15.6928 4.42509 15.7311 4.33563L15.2715 4.13867ZM16.5481 1.16005L15.2715 4.13867L15.7311 4.33563L17.0077 1.35701L16.5481 1.16005ZM17.436 0.804883C17.0927 0.657766 16.6952 0.816781 16.5481 1.16005L17.0077 1.35701C17.046 1.26756 17.1496 1.22612 17.239 1.26446L17.436 0.804883ZM10.1866 1.42643C10.1866 1.05296 9.8838 0.750207 9.51033 0.750207V1.25021C9.60766 1.25021 9.68656 1.32911 9.68656 1.42643H10.1866ZM10.1866 3.97953V1.42643H9.68656V3.97953H10.1866ZM9.51033 4.65576C9.8838 4.65576 10.1866 4.353 10.1866 3.97953H9.68656C9.68656 4.07686 9.60766 4.15576 9.51033 4.15576V4.65576ZM8.83411 3.97953C8.83411 4.353 9.13686 4.65576 9.51033 4.65576V4.15576C9.413 4.15576 9.33411 4.07686 9.33411 3.97953H8.83411ZM8.83411 1.42643V3.97953H9.33411V1.42643H8.83411ZM9.51033 0.750207C9.13686 0.750207 8.83411 1.05296 8.83411 1.42643H9.33411C9.33411 1.32911 9.413 1.25021 9.51033 1.25021V0.750207ZM6.58436 2.22482C6.32028 1.96074 5.89212 1.96074 5.62804 2.22482L5.98159 2.57837C6.05041 2.50955 6.16199 2.50955 6.23081 2.57837L6.58436 2.22482ZM8.28643 3.92688L6.58436 2.22482L6.23081 2.57837L7.93288 4.28044L8.28643 3.92688ZM8.28643 4.88321C8.55051 4.61913 8.55051 4.19097 8.28643 3.92688L7.93288 4.28044C8.0017 4.34926 8.0017 4.46084 7.93288 4.52966L8.28643 4.88321ZM7.3301 4.88321C7.59418 5.14729 8.02235 5.14729 8.28643 4.88321L7.93288 4.52966C7.86405 4.59848 7.75247 4.59848 7.68365 4.52966L7.3301 4.88321ZM5.62804 3.18115L7.3301 4.88321L7.68365 4.52966L5.98159 2.82759L5.62804 3.18115ZM5.62804 2.22482C5.36395 2.4889 5.36395 2.91706 5.62804 3.18115L5.98159 2.82759C5.91277 2.75877 5.91277 2.64719 5.98159 2.57837L5.62804 2.22482ZM2.66034 11.5755L2.65188 11.5838L3.00051 11.9422L3.00897 11.9339L2.66034 11.5755ZM1.54933 11.3916L2.72286 11.9783L2.94646 11.5311L1.77293 10.9444L1.54933 11.3916ZM1.37358 11.2649C1.42497 11.3163 1.48432 11.3591 1.54933 11.3916L1.77294 10.9444C1.75599 10.9359 1.74053 10.9247 1.72714 10.9113L1.37358 11.2649ZM0.948065 10.8394L1.37358 11.2649L1.72713 10.9113L1.30162 10.4858L0.948065 10.8394ZM0.750003 10.3612C0.750003 10.5406 0.821248 10.7126 0.948065 10.8394L1.30162 10.4858C1.26857 10.4528 1.25 10.408 1.25 10.3612H0.750003ZM0.750003 9.51019V10.3612H1.25V9.51019H0.750003ZM0.948066 9.03202C0.821248 9.15884 0.750003 9.33084 0.750003 9.51019H1.25C1.25 9.46345 1.26857 9.41862 1.30162 9.38558L0.948066 9.03202ZM1.37358 8.60651L0.948065 9.03202L1.30162 9.38558L1.72714 8.96006L1.37358 8.60651ZM1.71538 8.42234C1.58687 8.44879 1.46777 8.51232 1.37358 8.60651L1.72713 8.96006C1.75167 8.93552 1.78271 8.91896 1.81621 8.91206L1.71538 8.42234ZM1.54933 8.83847L1.65399 8.89081L1.8776 8.44359L1.77294 8.39126L1.54933 8.83847ZM1.24691 8.53606C1.31234 8.66692 1.41846 8.77304 1.54933 8.83847L1.77293 8.39126C1.73883 8.37421 1.71118 8.34655 1.69412 8.31245L1.24691 8.53606ZM0.821394 7.68502L1.24691 8.53606L1.69412 8.31245L1.26861 7.46141L0.821394 7.68502ZM0.948065 6.90444C0.742249 7.11026 0.691224 7.42468 0.821394 7.68502L1.26861 7.46141C1.23469 7.39357 1.24798 7.31163 1.30162 7.25799L0.948065 6.90444ZM1.37358 6.47892L0.948065 6.90444L1.30162 7.25799L1.72714 6.83248L1.37358 6.47892ZM1.7991 6.05341L1.37358 6.47892L1.72713 6.83248L2.15265 6.40696L1.7991 6.05341ZM2.27726 5.85535C2.09792 5.85535 1.92592 5.92659 1.7991 6.05341L2.15265 6.40696C2.1857 6.37391 2.23052 6.35535 2.27726 6.35535V5.85535ZM2.70278 5.85535H2.27726V6.35535H2.70278V5.85535ZM2.91662 5.89005C2.84767 5.86706 2.77546 5.85535 2.70278 5.85535V6.35535C2.72172 6.35535 2.74054 6.3584 2.75851 6.36439L2.91662 5.89005ZM3.22507 5.99287L2.91662 5.89005L2.75851 6.36439L3.06696 6.46721L3.22507 5.99287ZM2.87759 6.10606C2.87759 6.17331 2.88761 6.23955 2.90683 6.30276L3.3852 6.15731C3.3802 6.14084 3.37759 6.1236 3.37759 6.10606H2.87759ZM2.87759 5.68054V6.10606H3.37759V5.68054H2.87759ZM3.07565 5.20237C2.94883 5.32919 2.87759 5.50119 2.87759 5.68054H3.37759C3.37759 5.6338 3.39615 5.58898 3.4292 5.55593L3.07565 5.20237ZM3.50116 4.77686L3.07565 5.20237L3.4292 5.55593L3.85472 5.13041L3.50116 4.77686ZM3.97933 4.5788C3.79998 4.5788 3.62798 4.65004 3.50116 4.77686L3.85472 5.13041C3.88777 5.09736 3.93259 5.0788 3.97933 5.0788V4.5788ZM4.40484 4.5788H3.97933V5.0788H4.40484V4.5788ZM4.83036 4.5788H4.40484V5.0788H4.83036V4.5788ZM4.99437 4.59899C4.94073 4.58558 4.88565 4.5788 4.83036 4.5788V5.0788C4.84477 5.0788 4.85912 5.08056 4.8731 5.08406L4.99437 4.59899ZM6.69644 5.0245L4.99437 4.59899L4.8731 5.08406L6.57517 5.50957L6.69644 5.0245ZM6.74628 5.03902C6.72985 5.03354 6.71323 5.0287 6.69644 5.0245L6.57516 5.50957C6.57955 5.51067 6.58388 5.51193 6.58815 5.51335L6.74628 5.03902ZM8.02282 5.46453L6.74627 5.03901L6.58816 5.51336L7.86471 5.93887L8.02282 5.46453ZM8.33701 5.68353C8.25824 5.58497 8.15087 5.50722 8.02282 5.46453L7.86471 5.93887C7.89852 5.95014 7.92606 5.9702 7.94643 5.99569L8.33701 5.68353ZM8.4426 5.80115L8.32816 5.67305L7.95528 6.00616L8.06972 6.13426L8.4426 5.80115ZM8.35688 5.50128C8.1957 5.58187 8.07633 5.72166 8.01972 5.8865L8.4926 6.04892C8.5074 6.00583 8.53855 5.96946 8.58049 5.94849L8.35688 5.50128ZM9.20792 5.07576L8.35688 5.50128L8.58049 5.94849L9.43152 5.52297L9.20792 5.07576ZM9.51033 5.00437C9.40535 5.00437 9.30181 5.02881 9.20792 5.07576L9.43152 5.52297C9.45599 5.51074 9.48298 5.50437 9.51033 5.50437V5.00437ZM10.3614 5.00437H9.51033V5.50437H10.3614V5.00437ZM10.864 5.22822C10.7358 5.08574 10.5531 5.00437 10.3614 5.00437V5.50437C10.4113 5.50437 10.4589 5.52557 10.4924 5.56271L10.864 5.22822ZM13.9506 8.65779L10.864 5.22822L10.4924 5.56271L13.579 8.99228L13.9506 8.65779ZM13.5148 8.65921V8.82504H14.0148V8.65921H13.5148ZM13.5148 8.21435V8.65921H14.0148V8.21435H13.5148ZM12.0437 7.04054L13.6002 8.40249L13.9294 8.0262L12.3729 6.66425L12.0437 7.04054ZM11.8474 6.74547C11.8854 6.85952 11.9532 6.96138 12.0437 7.04054L12.3729 6.66425C12.3493 6.64362 12.3317 6.61708 12.3218 6.58736L11.8474 6.74547ZM11.4219 5.46892L11.8474 6.74547L12.3218 6.58736L11.8963 5.31081L11.4219 5.46892ZM11.3872 5.25508C11.3872 5.32776 11.3989 5.39997 11.4219 5.46892L11.8962 5.31081C11.8903 5.29284 11.8872 5.27402 11.8872 5.25508H11.3872ZM11.3872 4.82956V5.25508H11.8872V4.82956H11.3872ZM11.3872 3.97853V4.82956H11.8872V3.97853H11.3872ZM11.5853 3.50037C11.4585 3.62718 11.3872 3.79918 11.3872 3.97853H11.8872C11.8872 3.93179 11.9058 3.88697 11.9388 3.85392L11.5853 3.50037ZM12.0108 3.07485L11.5853 3.50037L11.9388 3.85392L12.3643 3.4284L12.0108 3.07485ZM12.4889 2.87679C12.3096 2.87679 12.1376 2.94803 12.0108 3.07485L12.3643 3.4284C12.3974 3.39535 12.4422 3.37679 12.4889 3.37679V2.87679ZM12.9145 2.87679H12.4889V3.37679H12.9145V2.87679ZM13.3926 3.07485C13.2658 2.94803 13.0938 2.87679 12.9145 2.87679V3.37679C12.9612 3.37679 13.006 3.39535 13.0391 3.4284L13.3926 3.07485ZM17.0974 6.77966L13.3926 3.07485L13.0391 3.4284L16.7439 7.13321L17.0974 6.77966ZM18.0207 6.70644H16.9207V7.20644H18.0207V6.70644ZM18.6485 7.13152C18.5458 6.87478 18.2972 6.70644 18.0207 6.70644V7.20644C18.0927 7.20644 18.1575 7.25031 18.1843 7.31721L18.6485 7.13152ZM21.2016 13.5143L18.6485 7.13152L18.1843 7.31721L20.7374 13.7L21.2016 13.5143ZM21.25 13.7654C21.25 13.6794 21.2336 13.5941 21.2016 13.5143L20.7374 13.7C20.7457 13.7208 20.75 13.743 20.75 13.7654H21.25ZM21.25 15.893V13.7654H20.75V15.893H21.25ZM21.2016 16.1441C21.2336 16.0643 21.25 15.979 21.25 15.893H20.75C20.75 15.9154 20.7457 15.9376 20.7374 15.9584L21.2016 16.1441ZM20.3506 18.2717L21.2016 16.1441L20.7374 15.9584L19.8864 18.086L20.3506 18.2717ZM20.2009 18.4987C20.2656 18.434 20.3166 18.3567 20.3506 18.2717L19.8864 18.086C19.8775 18.1082 19.8642 18.1283 19.8473 18.1452L20.2009 18.4987ZM18.9243 19.7753L20.2009 18.4987L19.8473 18.1452L18.5708 19.4217L18.9243 19.7753ZM18.7941 19.877C18.8415 19.8485 18.8853 19.8144 18.9243 19.7753L18.5708 19.4217C18.5606 19.4319 18.5492 19.4408 18.5368 19.4482L18.7941 19.877ZM16.6665 21.1535L18.7941 19.877L18.5368 19.4482L16.4093 20.7248L16.6665 21.1535ZM16.3185 21.2499C16.4411 21.2499 16.5614 21.2166 16.6665 21.1535L16.4093 20.7248C16.3819 20.7412 16.3505 20.7499 16.3186 20.7499L16.3185 21.2499ZM14.6164 21.2497L16.3185 21.2499L16.3186 20.7499L14.6165 20.7497L14.6164 21.2497ZM14.484 21.2366C14.5276 21.2453 14.572 21.2497 14.6164 21.2497L14.6165 20.7497C14.6049 20.7497 14.5934 20.7485 14.582 20.7463L14.484 21.2366ZM12.3564 20.8113L14.484 21.2366L14.582 20.7463L12.4544 20.321L12.3564 20.8113ZM12.0832 20.6891C12.164 20.7497 12.2574 20.7915 12.3564 20.8113L12.4544 20.321C12.4286 20.3158 12.4043 20.3049 12.3832 20.2891L12.0832 20.6891ZM10.3811 19.4126L12.0832 20.6891L12.3832 20.2891L10.6811 19.0126L10.3811 19.4126ZM8.67908 18.136L10.3811 19.4126L10.6811 19.0126L8.97908 17.736L8.67908 18.136ZM6.97701 16.8595L8.67908 18.136L8.97908 17.736L7.27701 16.4595L6.97701 16.8595ZM6.90457 16.7967C6.92722 16.8193 6.95142 16.8403 6.97701 16.8595L7.27702 16.4595C7.27034 16.4545 7.26403 16.449 7.25815 16.4431L6.90457 16.7967ZM5.68784 15.5799L6.90459 16.7967L7.25814 16.4431L6.04139 15.2264L5.68784 15.5799ZM2.8612 14.388L5.76613 15.6329L5.96309 15.1734L3.05816 13.9284L2.8612 14.388ZM2.64942 14.2446C2.71025 14.3054 2.78213 14.3541 2.86121 14.388L3.05816 13.9284C3.03756 13.9196 3.01883 13.9069 3.00297 13.891L2.64942 14.2446ZM2.2239 13.8191L2.64942 14.2446L3.00297 13.891L2.57746 13.4655L2.2239 13.8191ZM2.02584 13.3409C2.02584 13.5202 2.09709 13.6922 2.2239 13.8191L2.57746 13.4655C2.54441 13.4325 2.52584 13.3876 2.52584 13.3409H2.02584ZM2.02584 12.9154V13.3409H2.52584V12.9154H2.02584ZM2.02584 12.4899V12.9154H2.52584V12.4899H2.02584ZM2.2239 12.0117C2.09709 12.1385 2.02584 12.3105 2.02584 12.4899H2.52584C2.52584 12.4431 2.54441 12.3983 2.57746 12.3653L2.2239 12.0117ZM2.64942 11.5862L2.2239 12.0117L2.57746 12.3653L3.00297 11.9397L2.64942 11.5862ZM3.97791 12.2406H3.5531V12.7406H3.97791V12.2406ZM4.25302 12.5795C4.23645 12.5519 4.22804 12.5208 4.22791 12.4896L3.72791 12.4916C3.7284 12.6113 3.76069 12.7308 3.82428 12.8368L4.25302 12.5795ZM5.0486 13.9055L4.25302 12.5795L3.82428 12.8368L4.61985 14.1627L5.0486 13.9055ZM3.27245 13.6368L4.73574 14.2639L4.9327 13.8043L3.46941 13.1772L3.27245 13.6368ZM2.95152 13.3411L3.19415 13.5838L3.54771 13.2302L3.30507 12.9876L2.95152 13.3411ZM2.87829 12.9154V13.1643H3.37829V12.9154H2.87829ZM2.87829 12.6664V12.9154H3.37829V12.6664H2.87829ZM3.12736 12.3138L2.95152 12.4896L3.30507 12.8432L3.48091 12.6673L3.12736 12.3138ZM3.5531 12.2406H3.30413V12.7406H3.5531V12.2406ZM4.22482 11.3354L4.16029 11.4645L4.6075 11.6881L4.67203 11.559L4.22482 11.3354ZM4.52723 11.033C4.39636 11.0984 4.29025 11.2045 4.22482 11.3354L4.67203 11.559C4.68908 11.5249 4.71674 11.4973 4.75084 11.4802L4.52723 11.033ZM4.99704 10.7981L4.52723 11.033L4.75084 11.4802L5.22065 11.2453L4.99704 10.7981ZM4.65033 10.6637L4.88524 11.1335L5.33245 10.9099L5.09755 10.4401L4.65033 10.6637ZM4.32933 10.0217L4.65033 10.6637L5.09755 10.4401L4.77654 9.79807L4.32933 10.0217ZM4.24084 10.1662C4.37738 10.2004 4.51598 10.1903 4.63991 10.1443L4.46595 9.6755C4.43368 9.68747 4.39793 9.69011 4.3621 9.68115L4.24084 10.1662ZM2.58967 9.75343L4.24084 10.1662L4.3621 9.68115L2.71094 9.26836L2.58967 9.75343ZM2.02829 9.7609H2.65031V9.2609H2.02829V9.7609ZM2.02923 9.86351L2.20507 9.68767L1.85152 9.33412L1.67568 9.50996L2.02923 9.86351ZM2.10245 10.1847V9.68674H1.60245V10.1847H2.10245ZM2.281 10.2597L2.02923 10.0079L1.67568 10.3614L1.92745 10.6132L2.281 10.2597ZM4.4957 11.3527L2.21603 10.2128L1.99242 10.66L4.27209 11.7999L4.4957 11.3527ZM4.65033 8.35679L4.33049 8.99648L4.77771 9.22008L5.09755 8.5804L4.65033 8.35679ZM4.777 8.18105C4.72561 8.23244 4.68284 8.29179 4.65033 8.35679L5.09755 8.5804C5.10602 8.56346 5.11716 8.54799 5.13056 8.5346L4.777 8.18105ZM5.20252 7.75553L4.777 8.18105L5.13056 8.5346L5.55607 8.10909L5.20252 7.75553ZM5.21255 7.74572L5.20478 7.7533L5.55381 8.11132L5.56158 8.10374L5.21255 7.74572ZM4.98055 8.00099L5.27526 8.14834L5.49887 7.70113L5.20416 7.55377L4.98055 8.00099ZM2.55455 7.19497L5.0133 8.01455L5.17141 7.54021L2.71267 6.72063L2.55455 7.19497ZM2.45381 7.2078H2.63361V6.7078H2.45381V7.2078ZM2.32991 7.43525L2.63059 7.13457L2.27703 6.78102L1.97636 7.0817L2.32991 7.43525ZM2.12162 7.64354L2.32991 7.43525L1.97636 7.0817L1.76807 7.28999L2.12162 7.64354ZM2.39304 7.80414L2.16845 7.35496L1.72124 7.57857L1.94583 8.02775L2.39304 7.80414ZM4.6659 8.88467L2.28124 7.69234L2.05763 8.13955L4.4423 9.33189L4.6659 8.88467ZM5.42997 6.53163V7.11812H5.92997V6.53163H5.42997ZM5.62804 6.05346C5.50122 6.18028 5.42997 6.35228 5.42997 6.53163H5.92997C5.92997 6.48489 5.94854 6.44007 5.98159 6.40702L5.62804 6.05346ZM5.86185 5.81965L5.62804 6.05346L5.98159 6.40702L6.2154 6.17321L5.86185 5.81965ZM4.71726 5.92378L5.97799 6.23897L6.09926 5.7539L4.83852 5.43871L4.71726 5.92378ZM4.40484 5.93125H4.77789V5.43125H4.40484V5.93125ZM4.15588 5.93125H4.40484V5.43125H4.15588V5.93125ZM4.15681 6.03386L4.33265 5.85802L3.9791 5.50447L3.80326 5.68031L4.15681 6.03386ZM4.23004 5.92951V5.85709H3.73004V5.92951H4.23004ZM4.42765 6.02356L4.15681 5.75273L3.80326 6.10628L4.0741 6.37712L4.42765 6.02356ZM5.6089 6.80523L4.38955 5.99233L4.1122 6.40835L5.33155 7.22126L5.6089 6.80523ZM5.79178 6.89451L5.58203 6.78964L5.35842 7.23685L5.56817 7.34172L5.79178 6.89451ZM14.4405 9.93599L16.5666 12.0622L16.9202 11.7086L14.794 9.58244L14.4405 9.93599ZM14.3672 8.65921V9.75921H14.8672V8.65921H14.3672ZM14.3672 8.02094V8.65921H14.8672V8.02094H14.3672ZM14.3071 7.88831C14.3453 7.92178 14.3672 7.97012 14.3672 8.02094H14.8672C14.8672 7.82594 14.7831 7.64043 14.6363 7.51202L14.3071 7.88831ZM12.6921 6.47521L14.3071 7.88831L14.6363 7.51203L13.0213 6.09892L12.6921 6.47521ZM12.2525 5.26497L12.6195 6.36612L13.0939 6.20801L12.7268 5.10686L12.2525 5.26497ZM12.2397 4.82956V5.18591H12.7397V4.82956H12.2397ZM12.2397 4.15508V4.82956H12.7397V4.15508H12.2397ZM12.4887 3.80246L12.3129 3.9783L12.6664 4.33185L12.8423 4.15602L12.4887 3.80246ZM12.7379 3.72924H12.6655V4.22924H12.7379V3.72924ZM16.4332 7.321L12.9147 3.80246L12.5611 4.15602L16.0797 7.67456L16.4332 7.321ZM16.1514 8.60348L16.4936 7.57684L16.0193 7.41873L15.6771 8.44537L16.1514 8.60348ZM16.1424 8.65921C16.1424 8.64027 16.1454 8.62145 16.1514 8.60349L15.6771 8.44537C15.6541 8.51432 15.6424 8.58653 15.6424 8.65921H16.1424ZM16.1424 9.93576V8.65921H15.6424V9.93576H16.1424ZM16.161 10.0146C16.1487 9.9901 16.1424 9.96312 16.1424 9.93576H15.6424C15.6424 10.0407 15.6668 10.1443 15.7138 10.2382L16.161 10.0146ZM16.967 11.6266L16.161 10.0146L15.7138 10.2382L16.5198 11.8502L16.967 11.6266ZM16.9934 11.8854V11.7384H16.4934V11.8854H16.9934ZM16.8141 7.72983L16.5077 8.64932L16.982 8.80744L17.2885 7.88795L16.8141 7.72983ZM17.7321 7.55889H17.0513V8.05889H17.7321V7.55889ZM20.3797 13.7546L17.9642 7.71604L17.5 7.90174L19.9154 13.9403L20.3797 13.7546ZM20.3975 15.8109V13.8475H19.8975V15.8109H20.3975ZM19.5916 17.8739L20.3797 15.9038L19.9154 15.7181L19.1274 17.6882L19.5916 17.8739ZM18.3587 19.1354L19.5363 17.9578L19.1827 17.6043L18.0051 18.7819L18.3587 19.1354ZM16.3292 20.3618L18.3105 19.173L18.0533 18.7443L16.0719 19.9331L16.3292 20.3618ZM14.6587 20.3972L16.2005 20.3974L16.2006 19.8974L14.6588 19.8972L14.6587 20.3972ZM12.6183 19.9943L14.6097 20.3924L14.7078 19.9021L12.7163 19.504L12.6183 19.9943ZM10.8926 18.7306L12.5173 19.9492L12.8173 19.5492L11.1926 18.3306L10.8926 18.7306ZM9.19055 17.4541L10.8926 18.7306L11.1926 18.3306L9.49055 17.0541L9.19055 17.4541ZM7.51272 16.1957L9.19055 17.4541L9.49055 17.0541L7.81272 15.7957L7.51272 16.1957ZM5.8424 14.5289L7.48594 16.1725L7.83949 15.8189L6.19595 14.1754L5.8424 14.5289ZM4.67563 12.5988L5.8048 14.4808L6.23355 14.2235L5.10437 12.3416L4.67563 12.5988ZM4.92373 11.8437L4.66639 12.3584L5.11361 12.582L5.37095 12.0673L4.92373 11.8437ZM5.50139 11.499L5.03554 11.7319L5.25914 12.1791L5.725 11.9462L5.50139 11.499ZM9.39326 14.7482L5.77928 11.5357L5.4471 11.9094L9.06107 15.1219L9.39326 14.7482ZM9.64205 14.7335C9.57739 14.8063 9.466 14.8128 9.39326 14.7482L9.06107 15.1219C9.34021 15.37 9.76763 15.3448 10.0158 15.0657L9.64205 14.7335ZM9.62741 14.4847C9.70015 14.5494 9.70671 14.6608 9.64205 14.7335L10.0158 15.0657C10.2639 14.7866 10.2387 14.3591 9.95959 14.111L9.62741 14.4847ZM5.85911 11.1351L9.62741 14.4847L9.95959 14.111L6.19129 10.7614L5.85911 11.1351ZM5.41279 10.2825L5.8016 11.0601L6.24881 10.8365L5.86 10.0589L5.41279 10.2825ZM5.08258 9.62205L5.41279 10.2825L5.86 10.0589L5.52979 9.39844L5.08258 9.62205ZM5.38186 8.79989L5.08258 9.39844L5.52979 9.62205L5.82907 9.02349L5.38186 8.79989ZM5.68046 8.48314L5.42869 8.73491L5.78224 9.08847L6.03401 8.8367L5.68046 8.48314ZM6.35517 8.40992H5.85723V8.90992H6.35517V8.40992ZM11.0878 13.039L6.53195 8.48314L6.17839 8.8367L10.7342 13.3925L11.0878 13.039ZM11.337 13.039C11.2682 13.1078 11.1566 13.1078 11.0878 13.039L10.7342 13.3925C10.9983 13.6566 11.4265 13.6566 11.6906 13.3925L11.337 13.039ZM11.337 12.7898C11.4058 12.8586 11.4058 12.9702 11.337 13.039L11.6906 13.3925C11.9546 13.1285 11.9546 12.7003 11.6906 12.4362L11.337 12.7898ZM6.70524 8.15799L11.337 12.7898L11.6906 12.4362L7.05879 7.80444L6.70524 8.15799ZM6.30882 7.39385L6.65841 8.09302L7.10562 7.86941L6.75603 7.17024L6.30882 7.39385ZM6.28243 6.70818V7.28204H6.78243V6.70818H6.28243ZM6.53149 6.35556L6.35565 6.5314L6.7092 6.88495L6.88504 6.70912L6.53149 6.35556ZM7.6175 6.28234H6.70827V6.78234H7.6175V6.28234ZM8.52788 7.17614L7.80394 6.36578L7.43106 6.69889L8.155 7.50925L8.52788 7.17614ZM8.5283 7.1766L8.52725 7.17544L8.15563 7.50995L8.15668 7.51112L8.5283 7.1766ZM12.358 11.4318L8.52831 7.17662L8.15667 7.5111L11.9863 11.7663L12.358 11.4318ZM12.6068 11.4449C12.5345 11.51 12.4231 11.5041 12.358 11.4318L11.9863 11.7663C12.2362 12.0439 12.6637 12.0664 12.9413 11.8165L12.6068 11.4449ZM12.6199 11.196C12.685 11.2683 12.6792 11.3798 12.6068 11.4449L12.9413 11.8165C13.2189 11.5667 13.2414 11.1391 12.9916 10.8615L12.6199 11.196ZM8.8997 7.06241L12.6199 11.196L12.9916 10.8615L9.27135 6.72793L8.8997 7.06241ZM8.83553 6.36953V6.89517H9.33553V6.36953H8.83553ZM9.49915 5.88321L8.97372 6.14593L9.19733 6.59314L9.72275 6.33043L9.49915 5.88321ZM10.1715 5.85682H9.61095V6.35682H10.1715V5.85682ZM14.06 10.0537L10.3574 5.93958L9.98572 6.27406L13.6884 10.3881L14.06 10.0537ZM14.0664 10.0604C14.0642 10.0582 14.0621 10.0559 14.06 10.0536L13.6884 10.3882C13.6963 10.3969 13.7045 10.4055 13.7129 10.4139L14.0664 10.0604ZM16.6195 12.6135L14.0664 10.0604L13.7129 10.4139L16.266 12.967L16.6195 12.6135ZM16.8687 12.6135C16.7999 12.6823 16.6883 12.6823 16.6195 12.6135L16.266 12.967C16.53 13.2311 16.9582 13.2311 17.2223 12.967L16.8687 12.6135ZM17.2942 12.188L16.8687 12.6135L17.2223 12.967L17.6478 12.5415L17.2942 12.188ZM17.3459 12.0633C17.3459 12.1101 17.3273 12.1549 17.2942 12.188L17.6478 12.5415C17.7746 12.4147 17.8459 12.2427 17.8459 12.0633H17.3459ZM17.3459 11.6378V12.0633H17.8459V11.6378H17.3459ZM17.3273 11.559C17.3395 11.5835 17.3459 11.6105 17.3459 11.6378H17.8459C17.8459 11.5328 17.8214 11.4293 17.7745 11.3354L17.3273 11.559ZM16.5212 9.94695L17.3273 11.559L17.7745 11.3354L16.9684 9.72334L16.5212 9.94695ZM16.4948 8.72838V9.83514H16.9948V8.72838H16.4948ZM19.4348 3.86866C19.4956 3.94466 19.4833 4.05556 19.4073 4.11636L19.7197 4.50679C20.0113 4.27349 20.0586 3.84795 19.8253 3.55631L19.4348 3.86866ZM19.1871 3.84114C19.2631 3.78034 19.374 3.79266 19.4348 3.86866L19.8253 3.55631C19.592 3.26468 19.1664 3.2174 18.8748 3.4507L19.1871 3.84114ZM17.0595 5.5432L19.1871 3.84114L18.8748 3.4507L16.7472 5.15277L17.0595 5.5432ZM17.032 5.7909C16.9712 5.7149 16.9835 5.604 17.0595 5.5432L16.7472 5.15277C16.4556 5.38607 16.4083 5.81162 16.6416 6.10325L17.032 5.7909ZM17.2797 5.81842C17.2037 5.87922 17.0928 5.8669 17.032 5.7909L16.6416 6.10325C16.8749 6.39488 17.3004 6.44216 17.5921 6.20886L17.2797 5.81842ZM19.4073 4.11636L17.2797 5.81842L17.5921 6.20886L19.7197 4.50679L19.4073 4.11636Z" fill="#03A9F4"/>
</svg>
