<svg width="24" height="24" viewBox="0 0 24 24" fill="none" xmlns="http://www.w3.org/2000/svg">
<path fill-rule="evenodd" clip-rule="evenodd" d="M18.3375 2.03457C18.5539 2.1273 18.6541 2.37787 18.5614 2.59423L17.2849 5.57285C17.1921 5.78921 16.9416 5.88944 16.7252 5.79671C16.5088 5.70399 16.4086 5.45342 16.5013 5.23705L17.7779 2.25844C17.8706 2.04207 18.1212 1.94184 18.3375 2.03457ZM10.5103 2.00011C10.7457 2.00011 10.9366 2.19094 10.9366 2.42634V4.97943C10.9366 5.21483 10.7457 5.40566 10.5103 5.40566C10.2749 5.40566 10.0841 5.21483 10.0841 4.97943V2.42634C10.0841 2.19094 10.2749 2.00011 10.5103 2.00011ZM6.80482 3.4015C6.97127 3.23505 7.24114 3.23505 7.40759 3.4015L9.10966 5.10356C9.27611 5.27002 9.27611 5.53989 9.10966 5.70634C8.94321 5.87279 8.67334 5.87279 8.50689 5.70634L6.80482 4.00427C6.63837 3.83782 6.63837 3.56795 6.80482 3.4015ZM3.82621 12.7629L3.83467 12.7546L2.66114 12.1679C2.62016 12.1474 2.58276 12.1204 2.55037 12.088L2.12485 11.6625C2.04492 11.5826 2.00001 11.4742 2.00001 11.3611V10.5101C2.00001 10.397 2.04492 10.2886 2.12485 10.2087L2.55037 9.78319C2.60973 9.72382 2.6848 9.68378 2.76581 9.6671L2.66114 9.61477C2.57865 9.57353 2.51177 9.50664 2.47053 9.42415L2.04501 8.57312C1.96296 8.40903 1.99512 8.21085 2.12485 8.08112L2.55037 7.6556L2.97588 7.23009C3.05582 7.15015 3.16423 7.10525 3.27727 7.10525H3.70279C3.7486 7.10525 3.79411 7.11263 3.83757 7.12712L4.14602 7.22994C4.13391 7.1901 4.12759 7.14836 4.12759 7.10596V6.68044C4.12759 6.5674 4.1725 6.45899 4.25243 6.37905L4.67795 5.95354C4.75788 5.8736 4.86629 5.8287 4.97934 5.8287H5.40485H5.83037C5.86522 5.8287 5.89994 5.83297 5.93375 5.84142L7.63581 6.26694C7.64639 6.26959 7.65687 6.27264 7.66722 6.27609L8.94377 6.7016C9.0247 6.72858 9.09216 6.77749 9.14173 6.83951L9.25617 6.96761C9.29188 6.86365 9.36713 6.77557 9.46869 6.72479L10.3197 6.29927C10.3789 6.26968 10.4442 6.25427 10.5103 6.25427H11.3614C11.4822 6.25427 11.5974 6.30556 11.6782 6.39537L14.7648 9.82494V9.65911V9.21425L13.2083 7.8523C13.1513 7.8024 13.1086 7.7382 13.0846 7.66632L12.6591 6.38977C12.6446 6.34631 12.6372 6.30079 12.6372 6.25498V5.82947V4.97843C12.6372 4.86539 12.6821 4.75698 12.7621 4.67705L13.1876 4.25153C13.2675 4.1716 13.3759 4.12669 13.489 4.12669H13.9145C14.0275 4.12669 14.1359 4.1716 14.2159 4.25153L17.9207 7.95634H19.0207C19.195 7.95634 19.3517 8.06245 19.4164 8.22427L21.9695 14.607C21.9897 14.6574 22 14.7111 22 14.7653V16.8929C22 16.9471 21.9897 17.0008 21.9695 17.0512L21.1185 19.1788C21.097 19.2324 21.0649 19.281 21.0241 19.3219L19.7476 20.5984C19.7229 20.6231 19.6954 20.6446 19.6655 20.6625L17.5379 21.9391C17.4716 21.9788 17.3958 21.9998 17.3186 21.9998L15.6165 21.9996C15.5885 21.9996 15.5605 21.9968 15.533 21.9913L13.4054 21.566C13.343 21.5535 13.2841 21.5272 13.2332 21.489L11.5312 20.2125L9.82909 18.9359L8.12702 17.6594C8.11089 17.6473 8.09563 17.6341 8.08137 17.6198L6.86462 16.403L3.95969 15.1581C3.90985 15.1367 3.86455 15.106 3.82621 15.0677L3.40069 14.6422C3.32076 14.5623 3.27585 14.4538 3.27585 14.3408V13.9153V13.4898C3.27585 13.3767 3.32076 13.2683 3.40069 13.1884L3.82621 12.7629ZM4.55311 13.4905H4.97792C4.97823 13.566 4.99858 13.6413 5.03866 13.7081L5.83423 15.034L4.37094 14.4069L4.1283 14.1643V13.9153V13.6663L4.30414 13.4905H4.55311ZM5.3839 12.5762L5.44843 12.4471C5.48967 12.3646 5.55656 12.2977 5.63905 12.2565L6.10885 12.0216L5.87395 11.5518L5.55294 10.9098C5.47484 10.9388 5.38767 10.9451 5.30148 10.9236L3.65032 10.5108H3.0283L2.85246 10.6866V11.1846L3.10423 11.4363L5.3839 12.5762ZM5.55411 10.1082L5.87395 9.4685C5.89444 9.42753 5.92139 9.39012 5.95379 9.35773L6.37931 8.93221L6.38707 8.92464L6.09237 8.77728L3.63362 7.9577H3.45382L3.15314 8.25838L2.94485 8.46667L3.16944 8.91585L5.55411 10.1082ZM6.67998 8.11802V7.53153C6.67998 7.41849 6.72489 7.31008 6.80482 7.23014L7.03863 6.99633L5.7779 6.68115H5.40485H5.15589L4.98005 6.85699V6.92941L5.25088 7.20024L6.47023 8.01315L6.67998 8.11802ZM17.7434 12.8853L15.6172 10.7591V9.65911V9.02084C15.6172 8.89793 15.5642 8.78101 15.4717 8.70007L13.8567 7.28697L13.4897 6.18582V5.82947V5.15498L13.6655 4.97914H13.7379L17.2565 8.49768L16.9143 9.52433C16.8998 9.56779 16.8924 9.6133 16.8924 9.65911V10.9357C16.8924 11.0018 16.9078 11.0671 16.9374 11.1263L17.7434 12.7383V12.8853ZM17.7448 9.72828L18.0513 8.80879H18.7321L21.1475 14.8474V16.8108L20.3595 18.781L19.1819 19.9585L17.2006 21.1473L15.6588 21.1472L13.6673 20.7491L12.0426 19.5305L10.3406 18.254L8.66273 16.9956L7.01918 15.3521L5.89001 13.4701L6.14735 12.9554L6.6132 12.7225L10.2272 15.9349C10.4031 16.0913 10.6725 16.0755 10.8289 15.8995C10.9853 15.7236 10.9694 15.4542 10.7935 15.2978L7.02521 11.9482L6.6364 11.1706L6.30619 10.5101L6.60547 9.91159L6.85724 9.65982H7.35518L11.911 14.2157C12.0775 14.3821 12.3473 14.3821 12.5138 14.2157C12.6802 14.0492 12.6802 13.7793 12.5138 13.6129L7.88202 8.98112L7.53243 8.28195V7.70808L7.70827 7.53224H8.61751L9.34145 8.3426L9.3425 8.34376L13.1721 12.5989C13.3296 12.7739 13.5991 12.7881 13.7741 12.6306C13.9491 12.4731 13.9632 12.2036 13.8058 12.0287L10.0855 7.89508V7.36944L10.611 7.10672H11.1715L14.8742 11.2208C14.8792 11.2263 14.8844 11.2318 14.8896 11.2371L17.4427 13.7902C17.6092 13.9566 17.8791 13.9566 18.0455 13.7902L18.471 13.3646C18.551 13.2847 18.5959 13.1763 18.5959 13.0632V12.6377C18.5959 12.5716 18.5805 12.5063 18.5509 12.4471L17.7448 10.835V9.72828ZM20.5635 5.31148C20.7473 5.16443 20.7771 4.8962 20.6301 4.71239C20.483 4.52857 20.2148 4.49877 20.031 4.64582L17.9034 6.34789C17.7196 6.49494 17.6898 6.76316 17.8368 6.94698C17.9839 7.13079 18.2521 7.16059 18.4359 7.01354L20.5635 5.31148Z" fill="white"/>
</svg>
