<svg xmlns="http://www.w3.org/2000/svg" width="141" height="115" fill="none" viewBox="0 0 141 115">
    <g clip-path="url(#prefix__clip0)" filter="url(#prefix__filter0_d)">
        <path stroke="#EFC448" d="M102.08 84.585l-1.947-3.565m-27.515-2.71l29.462 6.275-29.462-6.275zm29.462 6.275l-3.443 2.705 3.443-2.705z"/>
        <path stroke="url(#prefix__paint0_linear)" d="M102.08 84.585l-1.947-3.565m-27.515-2.71l29.462 6.275-29.462-6.275zm29.462 6.275l-3.443 2.705 3.443-2.705z"/>
        <path stroke="#EFC448" d="M97.742 26.776l-1.178 3.888m-26.378 8.28l27.556-12.168-27.556 12.168zm27.556-12.168l-3.924-1.944 3.924 1.944z"/>
        <path stroke="url(#prefix__paint1_linear)" d="M97.742 26.776l-1.178 3.888m-26.378 8.28l27.556-12.168-27.556 12.168zm27.556-12.168l-3.924-1.944 3.924 1.944z"/>
        <path fill="#EFC448" d="M46.192 96.77c19.72-2.42 33.728-20.49 31.29-40.36-2.44-19.871-20.402-34.018-40.12-31.598-19.72 2.42-33.729 20.49-31.29 40.361C8.51 85.043 26.473 99.19 46.192 96.77z"/>
        <path fill="#303030" d="M29.375 50.14l-1.177-9.593 3.42-.42c1.224-.15 2.182-.038 2.874.337.696.374 1.097.99 1.203 1.852.06.496 0 .934-.184 1.313-.184.379-.485.679-.905.9.513.07.925.27 1.235.597.31.328.497.75.56 1.27.116.939-.094 1.682-.629 2.23-.53.542-1.375.888-2.533 1.04l-3.864.474zm1.794-4.36l.282 2.3 1.504-.185c.414-.051.72-.185.92-.4.199-.221.277-.505.234-.852-.098-.8-.542-1.153-1.331-1.06l-1.609.197zm-.186-1.515l1.197-.147c.5-.066.846-.202 1.038-.408.192-.207.266-.486.222-.837-.05-.404-.2-.68-.453-.827-.253-.152-.636-.196-1.15-.133l-1.125.138.271 2.214zm9.48 4.514l-2.288.28-1.177-9.591 2.288-.281 1.177 9.592zm9.243-2.338c-.305.438-.782.82-1.432 1.145-.65.325-1.381.537-2.192.637-1.246.153-2.29-.11-3.13-.786-.839-.677-1.369-1.698-1.59-3.062l-.108-.83c-.115-.943-.051-1.787.194-2.53.245-.748.65-1.349 1.219-1.802.572-.458 1.263-.737 2.074-.836 1.185-.146 2.139.016 2.86.485.725.463 1.209 1.231 1.45 2.303l-2.21.27c-.143-.526-.36-.887-.65-1.083-.29-.196-.674-.265-1.153-.206-.575.07-.99.371-1.243.901-.254.53-.327 1.253-.219 2.167l.071.58c.118.957.367 1.658.75 2.101.385.439.926.615 1.624.53.597-.073 1.025-.262 1.284-.566l-.183-1.489-1.595.196-.195-1.587 3.89-.478.484 3.94zM25.339 64.786c-.041-.339-.193-.588-.456-.747-.259-.16-.7-.304-1.32-.433-.623-.129-1.135-.264-1.537-.407-1.309-.459-2.028-1.222-2.16-2.29-.065-.53.03-1.017.286-1.458.26-.447.656-.817 1.191-1.11.534-.297 1.152-.489 1.854-.575.684-.084 1.312-.036 1.882.144.575.179 1.041.478 1.398.898.356.416.57.915.642 1.5l-2.288.28c-.048-.39-.205-.679-.471-.865-.262-.186-.596-.254-1.001-.205-.41.05-.723.183-.94.397-.213.209-.303.454-.268.735.03.246.188.454.474.624.286.165.771.315 1.456.45.684.13 1.252.292 1.705.486 1.102.47 1.718 1.231 1.846 2.28.103.84-.13 1.537-.698 2.093-.57.555-1.4.9-2.495 1.035-.771.094-1.488.042-2.15-.158-.657-.204-1.175-.529-1.552-.973-.374-.449-.6-.99-.677-1.622l2.301-.282c.063.514.24.877.532 1.091.296.21.74.277 1.333.204.379-.046.668-.164.866-.353.201-.194.284-.44.247-.74zm11.088-2.07c.051.671-.055 1.284-.319 1.838-.264.55-.676 1.001-1.234 1.355-.554.353-1.21.577-1.968.67-1.251.153-2.287-.136-3.107-.87-.82-.733-1.322-1.848-1.505-3.346l-.059-.474c-.115-.94-.054-1.78.182-2.523.24-.747.642-1.35 1.205-1.806.563-.462 1.245-.742 2.047-.84 1.155-.142 2.121.052 2.899.58.776.525 1.278 1.319 1.506 2.383l-2.288.281c-.089-.582-.287-.983-.592-1.204-.306-.222-.74-.297-1.303-.228-.57.07-.962.336-1.176.8-.213.462-.268 1.166-.165 2.112l.083.68c.126 1.022.342 1.738.649 2.146.31.408.778.574 1.401.497.528-.065.916-.24 1.164-.524.248-.284.347-.7.298-1.247l2.282-.28zm6.67.66l-3.144.385-.33 1.86-2.451.3 2.314-10.02 2.157-.265 4.695 9.16-2.465.303-.776-1.724zm-2.814-1.468l2.046-.25-1.435-3.202-.611 3.452zm9.876-1.018l-1.243.153.416 3.386-2.295.282-1.177-9.592 3.746-.46c1.129-.139 2.043.005 2.74.432.7.427 1.105 1.102 1.218 2.024.082.668.015 1.238-.202 1.71-.211.472-.586.88-1.124 1.222L54.7 63.67l.012.099-2.458.301-2.095-3.18zm-1.462-1.633l1.452-.178c.435-.053.748-.208.938-.463.194-.26.265-.596.215-1.009-.05-.413-.202-.722-.452-.927-.252-.21-.593-.289-1.025-.236l-1.451.178.323 2.636zm9.58-1.436l1.24-4.378 2.478-.305-2.312 6.523.423 3.446-2.327.285-.423-3.445-3.814-5.771 2.465-.303 2.27 3.948zM33.974 75.128l-2.857.35.958 7.808-2.295.281-.958-7.807-2.805.345-.219-1.786 7.957-.976.219 1.785zm6.334 5.328l-3.144.386-.33 1.86-2.451.3 2.314-10.02 2.157-.265 4.695 9.16-2.465.303-.776-1.724zm-2.814-1.467l2.046-.25-1.435-3.202-.611 3.452zm11.351-.35c-.041-.338-.193-.587-.456-.746-.259-.16-.7-.304-1.321-.433-.622-.129-1.134-.264-1.537-.407-1.308-.459-2.027-1.222-2.158-2.29-.066-.53.03-1.017.285-1.459.26-.446.656-.816 1.191-1.109.534-.297 1.152-.489 1.854-.575.684-.084 1.312-.036 1.882.143.575.18 1.041.479 1.398.899.356.415.57.915.642 1.5l-2.288.28c-.048-.39-.205-.68-.471-.865-.262-.186-.596-.255-1.001-.205-.41.05-.723.183-.94.397-.214.208-.303.453-.268.734.03.246.188.454.474.624.286.166.771.316 1.456.45.684.13 1.252.292 1.705.487 1.102.47 1.717 1.23 1.846 2.28.103.84-.13 1.537-.699 2.093-.568.555-1.4.9-2.494 1.035-.771.094-1.488.042-2.15-.158-.657-.205-1.175-.529-1.552-.973-.374-.449-.6-.99-.677-1.622l2.301-.282c.063.513.24.877.532 1.091.296.209.74.277 1.333.204.379-.046.668-.164.865-.353.202-.195.285-.441.248-.74zm6.583-1.844l-.814 1.156.31 2.53-2.294.282-1.178-9.592 2.295-.282.52 4.23.647-1.317L56.6 70.54l2.837-.348-2.696 4.638 3.873 4.954-2.72.334-2.465-3.322z"/>
        <path fill="#5DCBFD" d="M115.065 36.58c9.449-1.16 16.161-9.819 14.993-19.34-1.169-9.522-9.776-16.3-19.225-15.14-9.449 1.16-16.161 9.818-14.993 19.34 1.169 9.52 9.776 16.299 19.225 15.14z"/>
        <path fill="#303030" d="M106.385 16.555l-2.265.278.176 1.434 2.675-.328.137 1.116-4.115.506-.739-6.02 4.124-.506.137 1.12-2.683.33.156 1.269 2.265-.278.132 1.079zm4.565.887l-1.973.243-.207 1.167-1.538.188 1.452-6.288 1.354-.167 2.946 5.75-1.547.19-.487-1.083zm-1.766-.92l1.284-.158-.9-2.009-.384 2.167zm7.124-.22c-.026-.212-.121-.368-.287-.468-.162-.1-.438-.191-.828-.272-.391-.08-.712-.166-.965-.255-.821-.288-1.272-.767-1.355-1.437-.041-.334.019-.639.18-.916.162-.28.411-.512.747-.696.335-.187.723-.307 1.164-.361.429-.053.823-.023 1.181.09.361.112.653.3.877.564.224.26.358.574.403.94l-1.436.177c-.03-.245-.129-.426-.296-.543-.164-.117-.373-.16-.628-.129-.257.032-.454.115-.59.25-.134.13-.19.284-.168.46.019.155.118.286.298.392.179.104.484.198.913.282.43.082.786.184 1.071.306.691.295 1.077.773 1.158 1.431.065.527-.081.964-.438 1.313s-.879.566-1.566.65c-.484.06-.934.026-1.349-.1-.413-.128-.738-.331-.974-.61-.235-.282-.377-.621-.425-1.018l1.444-.177c.04.322.151.55.334.685.186.131.464.174.836.128.238-.029.419-.103.544-.222.126-.122.178-.276.155-.464zm4.144-2.342l.779-2.748 1.555-.191-1.451 4.094.265 2.162-1.46.18-.266-2.163-2.393-3.622 1.547-.19 1.424 2.478zm-12.261 10.017l-1.793.22.602 4.9-1.441.176-.601-4.9-1.76.217-.138-1.12 4.994-.613.137 1.12zm3.976 3.344l-1.974.242-.206 1.167-1.539.189 1.452-6.29 1.354-.165 2.946 5.749-1.546.19-.487-1.082zm-1.767-.92l1.285-.158-.901-2.01-.384 2.167zm7.125-.22c-.026-.213-.122-.369-.287-.469-.162-.1-.438-.19-.829-.272-.39-.08-.712-.166-.964-.255-.821-.288-1.273-.767-1.355-1.437-.041-.333.019-.639.179-.916.163-.28.412-.512.748-.696.335-.186.723-.307 1.163-.36.43-.053.823-.023 1.181.09.361.112.654.3.878.563.223.26.357.575.402.941l-1.436.176c-.03-.245-.128-.426-.295-.543-.165-.116-.374-.16-.628-.128-.257.031-.454.114-.59.249-.134.13-.19.285-.169.46.019.155.119.286.298.392.18.104.484.198.914.283.429.081.786.183 1.07.305.692.296 1.078.773 1.159 1.432.064.526-.082.964-.439 1.313-.357.348-.879.565-1.565.65-.484.058-.934.026-1.349-.1-.413-.128-.738-.332-.975-.61-.234-.282-.376-.622-.425-1.018l1.445-.178c.039.323.15.551.334.685.185.131.464.174.836.129.238-.03.419-.104.543-.222.127-.122.179-.277.156-.464zm4.131-1.158l-.511.726.195 1.588-1.44.176-.739-6.02 1.44-.176.326 2.654.406-.826 1.057-2.048 1.781-.218-1.692 2.91 2.43 3.11-1.706.209-1.547-2.085z"/>
        <path fill="#5DCBFD" d="M120.977 101.042c9.449-1.16 16.161-9.818 14.993-19.34-1.169-9.52-9.776-16.3-19.225-15.14-9.449 1.16-16.161 9.819-14.992 19.34 1.168 9.521 9.775 16.3 19.224 15.14z"/>
        <path fill="#303030" d="M111.772 80.725l-2.265.278.176 1.435 2.675-.328.137 1.116-4.115.505-.739-6.02 4.123-.506.138 1.12-2.683.33.155 1.269 2.265-.278.133 1.08zm4.565.888l-1.974.242-.206 1.167-1.539.189 1.452-6.289 1.354-.166 2.947 5.749-1.547.19-.487-1.082zm-1.766-.92l1.284-.158-.901-2.01-.383 2.167zm7.124-.22c-.026-.213-.122-.369-.287-.469-.162-.1-.438-.19-.829-.272-.39-.08-.711-.165-.964-.255-.821-.288-1.273-.767-1.355-1.437-.041-.333.019-.639.179-.916.163-.28.412-.512.748-.696.335-.186.723-.307 1.163-.36.43-.053.824-.023 1.182.09.361.112.653.3.877.563.223.261.358.575.403.941l-1.436.176c-.03-.245-.129-.426-.296-.542-.164-.117-.374-.16-.628-.13-.257.032-.454.115-.59.25-.134.13-.19.285-.168.461.019.154.118.285.298.392.179.103.483.197.913.282.429.082.786.183 1.07.305.692.296 1.078.773 1.159 1.432.065.526-.082.964-.439 1.313-.357.348-.879.565-1.565.65-.484.058-.934.026-1.349-.1-.413-.128-.738-.332-.975-.61-.234-.282-.376-.622-.425-1.018l1.445-.178c.039.323.151.551.334.685.185.131.464.174.836.129.238-.03.419-.104.543-.222.127-.122.179-.277.156-.464zm4.144-2.343l.779-2.748 1.555-.19-1.451 4.093.265 2.162-1.46.18-.266-2.163-2.394-3.622 1.547-.19 1.425 2.478zm-12.261 10.017l-1.793.22.601 4.9-1.44.177-.601-4.9-1.76.216-.138-1.12 4.994-.613.137 1.12zm3.976 3.344l-1.974.242-.207 1.167-1.538.19 1.452-6.29 1.354-.166 2.946 5.75-1.547.189-.486-1.082zm-1.767-.92l1.284-.158-.9-2.009-.384 2.167zm7.124-.22c-.026-.212-.121-.368-.286-.469-.163-.1-.439-.19-.829-.271-.39-.081-.712-.166-.964-.255-.822-.288-1.273-.767-1.355-1.437-.041-.334.018-.64.179-.916.163-.28.412-.513.747-.696.336-.187.723-.307 1.164-.361.429-.053.823-.023 1.181.09.361.112.653.3.877.564.224.26.358.574.403.94l-1.436.177c-.03-.245-.129-.427-.296-.543-.164-.117-.373-.16-.628-.129-.257.032-.453.115-.59.25-.133.13-.19.284-.168.46.019.155.118.285.298.392.179.104.484.198.914.282.429.082.786.183 1.07.305.691.296 1.078.773 1.158 1.432.065.526-.081.964-.438 1.313s-.879.565-1.566.65c-.484.059-.933.026-1.349-.1-.412-.128-.737-.331-.974-.61-.235-.282-.376-.621-.425-1.018l1.444-.177c.04.322.151.55.334.685.186.13.464.174.836.128.238-.03.42-.103.544-.222.126-.122.178-.277.155-.464zm4.131-1.157l-.51.725.195 1.588-1.441.177-.738-6.02 1.44-.177.326 2.654.406-.826 1.057-2.047 1.78-.219-1.692 2.91 2.431 3.11-1.707.21-1.547-2.085z"/>
    </g>
    <defs>
        <linearGradient id="prefix__paint0_linear" x1="86.751" x2="88.223" y1="76.575" y2="88.568" gradientUnits="userSpaceOnUse">
            <stop stop-color="#EFC448"/>
            <stop offset="1" stop-color="#5DCBFD"/>
        </linearGradient>
        <linearGradient id="prefix__paint1_linear" x1="84.375" x2="83.363" y1="37.751" y2="25.711" gradientUnits="userSpaceOnUse">
            <stop stop-color="#EFC448"/>
            <stop offset="1" stop-color="#5DCBFD"/>
        </linearGradient>
        <clipPath id="prefix__clip0">
            <path fill="#fff" d="M0 0H128.902V99.684H0z" transform="rotate(-6.997 128.423 7.851)"/>
        </clipPath>
        <filter id="prefix__filter0_d" width="148.085" height="122.644" x="-4" y="0" color-interpolation-filters="sRGB" filterUnits="userSpaceOnUse">
            <feFlood flood-opacity="0" result="BackgroundImageFix"/>
            <feColorMatrix in="SourceAlpha" values="0 0 0 0 0 0 0 0 0 0 0 0 0 0 0 0 0 0 127 0"/>
            <feOffset dy="4"/>
            <feGaussianBlur stdDeviation="2"/>
            <feColorMatrix values="0 0 0 0 0 0 0 0 0 0 0 0 0 0 0 0 0 0 0.25 0"/>
            <feBlend in2="BackgroundImageFix" result="effect1_dropShadow"/>
            <feBlend in="SourceGraphic" in2="effect1_dropShadow" result="shape"/>
        </filter>
    </defs>
</svg>
