<svg xmlns="http://www.w3.org/2000/svg" width="101" height="116" fill="none" viewBox="0 0 101 116">
    <g filter="url(#prefix__filter0_d)">
        <path fill="#47459D" d="M88.237 17.364l-52.81-9.407c-5.302-.945-10.375 2.542-11.33 7.788L11.131 86.992c-.955 5.246 2.57 10.265 7.872 11.21l52.81 9.407c5.303.945 10.376-2.542 11.33-7.788L96.11 28.574c.955-5.246-2.57-10.265-7.873-11.21z"/>
        <path fill="#F9F9F9" d="M86.27 14.562L33.46 5.154c-5.302-.944-10.375 2.543-11.33 7.79L9.163 84.188c-.954 5.246 2.57 10.265 7.873 11.21l52.81 9.407c5.302.945 10.375-2.542 11.33-7.789l12.967-71.245c.954-5.247-2.57-10.265-7.873-11.21z"/>
        <path fill="#7572F7" d="M84.302 11.76l-52.81-9.408c-5.302-.945-10.375 2.542-11.33 7.788L7.196 81.386c-.955 5.246 2.57 10.265 7.872 11.21l52.81 9.408c5.303.944 10.376-2.543 11.33-7.79L92.175 22.97c.955-5.246-2.57-10.265-7.873-11.21z"/>
        <path fill="#090909" d="M26.834 21.137c1.989.354 3.891-.954 4.25-2.921.357-1.968-.965-3.85-2.953-4.204-1.989-.354-3.891.954-4.25 2.92-.357 1.968.965 3.85 2.953 4.205zM21.647 49.635c1.988.354 3.89-.954 4.249-2.921.358-1.968-.964-3.85-2.953-4.204-1.988-.354-3.89.954-4.249 2.92-.358 1.968.964 3.85 2.953 4.205zM16.461 78.133c1.989.354 3.891-.953 4.25-2.92.357-1.968-.965-3.85-2.953-4.204-1.989-.355-3.891.953-4.25 2.92-.357 1.968.965 3.85 2.953 4.204z"/>
        <path fill="#303030" d="M79.393 32.952L31.03 24.336c-1.326-.236-2.594.636-2.833 1.948l-1.729 9.499c-.238 1.312.643 2.566 1.968 2.802L76.8 47.201c1.325.236 2.593-.636 2.832-1.947l1.729-9.5c.239-1.311-.642-2.566-1.968-2.802z"/>
        <path fill="#F9F9F9" d="M34.22 33.675l-.522 2.864-2.057-.367 1.537-8.441 3.405.606c.652.116 1.206.339 1.663.667.461.326.788.733.981 1.223.198.486.247 1.007.145 1.564-.15.823-.568 1.43-1.256 1.817-.683.386-1.545.485-2.584.3l-1.313-.233zm.285-1.572l1.348.24c.399.071.72.027.962-.134.247-.16.403-.419.469-.778.072-.394.022-.729-.15-1.003-.172-.274-.444-.446-.814-.516l-1.371-.244-.444 2.435zm7.427 5.902l-1.981-.353 1.62-8.905 1.981.353-1.62 8.905zm5.273.94c-.047-.14-.075-.339-.085-.596-.445.388-.994.523-1.647.407-.598-.106-1.073-.375-1.426-.805-.353-.434-.48-.921-.382-1.462.124-.68.472-1.15 1.043-1.407.571-.257 1.341-.3 2.31-.127l.61.108.06-.33c.105-.576-.095-.909-.6-.999-.468-.083-.744.103-.827.56l-1.975-.353c.11-.607.46-1.053 1.049-1.34.592-.285 1.293-.355 2.102-.211.808.144 1.411.453 1.81.926.397.474.54 1.052.428 1.735l-.506 2.777c-.097.578-.087 1.034.03 1.37l-.019.099-1.974-.352zm-1.004-1.496c.246.044.459.028.638-.048.183-.075.322-.172.416-.291l.183-1.003-.575-.102c-.687-.123-1.087.121-1.198.732-.032.178.002.334.103.467.101.13.245.212.433.245zm7.244-3.87l-.07.748c.542-.49 1.197-.666 1.967-.53.66.118 1.117.401 1.37.85.257.448.32 1.066.19 1.853l-.736 4.041-1.981-.353.72-3.96c.058-.317.036-.56-.066-.73-.102-.174-.322-.291-.662-.351-.387-.07-.702.03-.944.298l-.806 4.43-1.975-.352 1.141-6.273 1.852.33zm7.255 1.293l-.07.748c.541-.49 1.197-.667 1.966-.53.66.118 1.118.4 1.37.849.258.449.321 1.066.19 1.853l-.736 4.041-1.98-.352.72-3.96c.058-.317.036-.56-.067-.73-.101-.174-.322-.291-.662-.352-.386-.07-.701.03-.944.299l-.806 4.43-1.974-.353 1.141-6.273 1.852.33zm7.346 7.905c-.973-.173-1.708-.6-2.206-1.279-.496-.683-.661-1.484-.494-2.404l.03-.163c.117-.641.339-1.186.667-1.635.331-.447.752-.764 1.261-.948.51-.189 1.082-.226 1.715-.114.89.159 1.544.559 1.96 1.2.416.636.536 1.444.358 2.422l-.139.76-3.926-.7c.006.364.11.668.312.911.202.244.492.4.871.467.625.11 1.153-.018 1.583-.389l.71 1.216c-.306.293-.705.5-1.195.62-.485.116-.987.129-1.507.036zm.687-5.038c-.578-.102-.991.215-1.238.953l1.992.355.028-.15c.064-.312.028-.568-.109-.768-.136-.204-.36-.334-.673-.39zm7.942 1.805l-.642-.163c-.621-.11-1.055.012-1.301.367l-.723 3.972-1.975-.352 1.142-6.274 1.852.33-.083.818c.444-.556.963-.78 1.557-.675.211.038.39.094.538.168l-.365 1.809z"/>
        <path stroke="#F9F9F9" stroke-linecap="round" stroke-linejoin="round" stroke-width="2" d="M27.482 17.574L15.48 15.436"/>
        <g filter="url(#prefix__filter1_d)">
            <path stroke="#F9F9F9" stroke-linecap="round" stroke-linejoin="round" stroke-width="2" d="M22.296 46.072l-12.002-2.138"/>
        </g>
        <path stroke="#F9F9F9" stroke-linecap="round" stroke-linejoin="round" stroke-width="2" d="M17.109 74.57L5.106 72.434"/>
    </g>
    <defs>
        <filter id="prefix__filter0_d" width="108" height="119" x="-3" y="0" color-interpolation-filters="sRGB" filterUnits="userSpaceOnUse">
            <feFlood flood-opacity="0" result="BackgroundImageFix"/>
            <feColorMatrix in="SourceAlpha" values="0 0 0 0 0 0 0 0 0 0 0 0 0 0 0 0 0 0 127 0"/>
            <feOffset dy="4"/>
            <feGaussianBlur stdDeviation="2"/>
            <feColorMatrix values="0 0 0 0 0 0 0 0 0 0 0 0 0 0 0 0 0 0 0.25 0"/>
            <feBlend in2="BackgroundImageFix" result="effect1_dropShadow"/>
            <feBlend in="SourceGraphic" in2="effect1_dropShadow" result="shape"/>
        </filter>
        <filter id="prefix__filter1_d" width="22.002" height="12.139" x="5.294" y="42.934" color-interpolation-filters="sRGB" filterUnits="userSpaceOnUse">
            <feFlood flood-opacity="0" result="BackgroundImageFix"/>
            <feColorMatrix in="SourceAlpha" values="0 0 0 0 0 0 0 0 0 0 0 0 0 0 0 0 0 0 127 0"/>
            <feOffset dy="4"/>
            <feGaussianBlur stdDeviation="2"/>
            <feColorMatrix values="0 0 0 0 0 0 0 0 0 0 0 0 0 0 0 0 0 0 0.25 0"/>
            <feBlend in2="BackgroundImageFix" result="effect1_dropShadow"/>
            <feBlend in="SourceGraphic" in2="effect1_dropShadow" result="shape"/>
        </filter>
    </defs>
</svg>
