<svg width="48" height="48" viewBox="0 0 48 48" fill="none" xmlns="http://www.w3.org/2000/svg">
<path fill-rule="evenodd" clip-rule="evenodd" d="M25.6411 18.9901C27.0512 18.1686 28.0043 16.6 28.0043 14.8C28.0043 12.149 25.9372 10 23.3873 10C20.8373 10 18.7702 12.149 18.7702 14.8C18.7702 16.6 19.7233 18.1686 21.1334 18.9901C18.1558 19.943 16 22.7334 16 26.0272V33.9999H30.7745V26.0272C30.7745 22.7334 28.6187 19.943 25.6411 18.9901Z" fill="white"/>
<g opacity="0.85">
<mask id="path-2-inside-1_563:2863" fill="white">
<path fill-rule="evenodd" clip-rule="evenodd" d="M29.9005 23.7788C31.1206 23.068 31.9452 21.7107 31.9452 20.1532C31.9452 17.8595 30.1566 16 27.9503 16C25.7439 16 23.9553 17.8595 23.9553 20.1532C23.9553 21.7107 24.78 23.068 26.0001 23.7788C23.4237 24.6033 21.5583 27.0177 21.5583 29.8678V36.7662H34.3422V29.8678C34.3422 27.0177 32.4769 24.6033 29.9005 23.7788Z"/>
</mask>
<path fill-rule="evenodd" clip-rule="evenodd" d="M29.9005 23.7788C31.1206 23.068 31.9452 21.7107 31.9452 20.1532C31.9452 17.8595 30.1566 16 27.9503 16C25.7439 16 23.9553 17.8595 23.9553 20.1532C23.9553 21.7107 24.78 23.068 26.0001 23.7788C23.4237 24.6033 21.5583 27.0177 21.5583 29.8678V36.7662H34.3422V29.8678C34.3422 27.0177 32.4769 24.6033 29.9005 23.7788Z" fill="#49AFD9"/>
<path d="M29.9005 23.7788L29.3971 22.9148L27.4551 24.0462L29.5957 24.7313L29.9005 23.7788ZM26.0001 23.7788L26.3049 24.7313L28.4455 24.0462L26.5035 22.9148L26.0001 23.7788ZM21.5583 36.7662H20.5583V37.7662H21.5583V36.7662ZM34.3422 36.7662V37.7662H35.3422V36.7662H34.3422ZM30.9452 20.1532C30.9452 21.3536 30.3108 22.3824 29.3971 22.9148L30.4039 24.6429C31.9303 23.7535 32.9452 22.0679 32.9452 20.1532H30.9452ZM27.9503 17C29.5681 17 30.9452 18.3748 30.9452 20.1532H32.9452C32.9452 17.3442 30.7452 15 27.9503 15V17ZM24.9553 20.1532C24.9553 18.3748 26.3325 17 27.9503 17V15C25.1554 15 22.9553 17.3442 22.9553 20.1532H24.9553ZM26.5035 22.9148C25.5897 22.3824 24.9553 21.3536 24.9553 20.1532H22.9553C22.9553 22.0679 23.9702 23.7535 25.4967 24.6429L26.5035 22.9148ZM22.5583 29.8678C22.5583 27.4651 24.1306 25.4271 26.3049 24.7313L25.6953 22.8264C22.7168 23.7796 20.5583 26.5703 20.5583 29.8678H22.5583ZM22.5583 36.7662V29.8678H20.5583V36.7662H22.5583ZM34.3422 35.7662H21.5583V37.7662H34.3422V35.7662ZM33.3422 29.8678V36.7662H35.3422V29.8678H33.3422ZM29.5957 24.7313C31.77 25.4271 33.3422 27.4651 33.3422 29.8678H35.3422C35.3422 26.5703 33.1838 23.7796 30.2053 22.8264L29.5957 24.7313Z" fill="#18191A" mask="url(#path-2-inside-1_563:2863)"/>
</g>
<g clip-path="url(#clip0_563:2863)">
<circle cx="31.115" cy="31.1152" r="4.30362" transform="rotate(-45 31.115 31.1152)" stroke="#F9F9F9" stroke-width="0.95636"/>
<g clip-path="url(#clip1_563:2863)">
<path d="M29.7625 29.7637L32.4675 32.4687" stroke="white" stroke-width="0.95636" stroke-linecap="round" stroke-linejoin="round"/>
<path d="M29.7625 32.4668L32.4675 29.7618" stroke="white" stroke-width="0.95636" stroke-linecap="round" stroke-linejoin="round"/>
</g>
</g>
<defs>
<clipPath id="clip0_563:2863">
<rect width="11.4763" height="11.4763" fill="white" transform="translate(23 31.1152) rotate(-45)"/>
</clipPath>
<clipPath id="clip1_563:2863">
<rect width="5.73816" height="5.73816" fill="white" transform="translate(27.0575 31.1152) rotate(-45)"/>
</clipPath>
</defs>
</svg>
