<svg width="10" height="8" viewBox="0 0 10 8" fill="none" xmlns="http://www.w3.org/2000/svg">
<path d="M9.61534 8C9.55689 8 9.49922 7.98797 9.44669 7.9648C9.39416 7.94163 9.34815 7.90794 9.31217 7.86629C8.76259 7.2299 8.25267 6.73875 7.54946 6.40957C6.89865 6.10584 6.08125 5.94734 4.99938 5.91777V7.65213C4.99915 7.72003 4.97695 7.78639 4.93552 7.84302C4.89409 7.89964 4.83524 7.94407 4.76623 7.97082C4.69722 7.99756 4.62106 8.00546 4.54714 7.99353C4.47323 7.9816 4.40479 7.95037 4.35026 7.90368L0.11897 4.25102C0.0813681 4.21854 0.051439 4.1795 0.0309908 4.13627C0.0105426 4.09303 0 4.04649 0 3.99947C0 3.95244 0.0105426 3.90591 0.0309908 3.86267C0.051439 3.81943 0.0813681 3.78039 0.11897 3.74791L4.35026 0.0952546C4.40479 0.0485717 4.47323 0.01734 4.54714 0.00541073C4.62106 -0.00651854 4.69722 0.00137618 4.76623 0.0281213C4.83524 0.0548665 4.89409 0.0992926 4.93552 0.155922C4.97695 0.212551 4.99915 0.278908 4.99938 0.34681V2.094C6.78181 2.16814 8.10986 2.76604 8.95059 3.87402C9.64707 4.79175 10 6.06279 10 7.65213C10 7.74439 9.95947 7.83287 9.88733 7.89811C9.8152 7.96335 9.71736 8 9.61534 8Z" fill="#E4E6EA"/>
</svg>
