<svg width="16" height="16" viewBox="0 0 16 16" fill="none" xmlns="http://www.w3.org/2000/svg">
<g clip-path="url(#clip0)">
<path d="M14.7708 5.69091L14.9941 4.44091C15.0351 4.21106 14.8584 4 14.6249 4H12.2871L12.7441 1.44091C12.7851 1.21106 12.6084 1 12.3749 1H11.1052C11.0171 1 10.9319 1.03097 10.8644 1.08748C10.7969 1.14399 10.7515 1.22244 10.736 1.30909L10.2555 4H7.17313L7.6301 1.44091C7.67116 1.21106 7.49444 1 7.26094 1H5.99119C5.90317 1 5.81795 1.03097 5.75046 1.08748C5.68297 1.14399 5.63751 1.22244 5.62203 1.30909L5.1415 4H2.66975C2.58173 4 2.49651 4.03097 2.42902 4.08748C2.36153 4.14399 2.31607 4.22244 2.3006 4.30909L2.07738 5.55909C2.03635 5.78894 2.21307 6 2.44653 6H4.78435L4.07007 10H1.59832C1.51029 10 1.42507 10.031 1.35758 10.0875C1.29009 10.144 1.24463 10.2224 1.22916 10.3091L1.00594 11.5591C0.96491 11.7889 1.14163 12 1.3751 12H3.71291L3.25594 14.5591C3.21491 14.7889 3.39163 15 3.6251 15H4.89485C4.98287 15 5.06809 14.969 5.13558 14.9125C5.20307 14.856 5.24853 14.7776 5.264 14.6909L5.74457 12H8.82688L8.36991 14.5591C8.32885 14.7889 8.50557 15 8.73907 15H10.0088C10.0968 15 10.1821 14.969 10.2496 14.9125C10.317 14.856 10.3625 14.7776 10.378 14.6909L10.8585 12H13.3303C13.4183 12 13.5035 11.969 13.571 11.9125C13.6385 11.856 13.6839 11.7776 13.6994 11.6909L13.9226 10.4409C13.9637 10.2111 13.7869 10 13.5535 10H11.2157L11.9299 6H14.4017C14.4897 6 14.5749 5.96903 14.6424 5.91252C14.7099 5.85601 14.7554 5.77756 14.7708 5.69091ZM9.18404 10H6.10172L6.816 6H9.89832L9.18404 10Z" fill="white"/>
</g>
<defs>
<clipPath id="clip0">
<rect width="14" height="16" fill="white" transform="translate(1)"/>
</clipPath>
</defs>
</svg>
