<svg width="80" height="80" viewBox="0 0 80 80" fill="none" xmlns="http://www.w3.org/2000/svg">
<circle cx="40" cy="40" r="28" fill="#242526"/>
<path d="M39.9998 6.66669C21.5998 6.66669 6.6665 21.6 6.6665 40C6.6665 58.4 21.5998 73.3334 39.9998 73.3334C58.3998 73.3334 73.3332 58.4 73.3332 40C73.3332 21.6 58.3998 6.66669 39.9998 6.66669ZM33.3332 51.6667V28.3334C33.3332 28.0238 33.4194 27.7204 33.5821 27.4571C33.7448 27.1938 33.9776 26.9811 34.2545 26.8426C34.5313 26.7042 34.8412 26.6456 35.1495 26.6734C35.4578 26.7012 35.7522 26.8143 35.9998 27L51.5665 38.6667C52.4665 39.3334 52.4665 40.6667 51.5665 41.3334L35.9998 53C35.7522 53.1857 35.4578 53.2988 35.1495 53.3266C34.8412 53.3544 34.5313 53.2958 34.2545 53.1574C33.9776 53.019 33.7448 52.8062 33.5821 52.5429C33.4194 52.2796 33.3332 51.9762 33.3332 51.6667Z" fill="url(#paint0_linear)"/>
<defs>
<linearGradient id="paint0_linear" x1="2.08317" y1="-2.59257" x2="89.6652" y2="38.6558" gradientUnits="userSpaceOnUse">
<stop stop-color="#94DAF9"/>
<stop offset="0.911458" stop-color="#1E88E5"/>
</linearGradient>
</defs>
</svg>
