<svg width="17" height="17" viewBox="0 0 17 17" fill="none" xmlns="http://www.w3.org/2000/svg">
<path d="M0 8.33333C0 6.1232 0.877974 4.00358 2.44078 2.44078C4.00358 0.877974 6.1232 0 8.33333 0C10.5435 0 12.6631 0.877974 14.2259 2.44078C15.7887 4.00358 16.6667 6.1232 16.6667 8.33333C16.6667 10.5435 15.7887 12.6631 14.2259 14.2259C12.6631 15.7887 10.5435 16.6667 8.33333 16.6667C6.1232 16.6667 4.00358 15.7887 2.44078 14.2259C0.877974 12.6631 0 10.5435 0 8.33333ZM12.2567 6.84C12.3341 6.76252 12.3956 6.67054 12.4375 6.56931C12.4795 6.46807 12.5011 6.35957 12.5011 6.25C12.5011 6.14043 12.4795 6.03193 12.4375 5.93069C12.3956 5.82946 12.3341 5.73748 12.2567 5.66C12.1792 5.58252 12.0872 5.52106 11.986 5.47913C11.8847 5.4372 11.7762 5.41561 11.6667 5.41561C11.5571 5.41561 11.4486 5.4372 11.3474 5.47913C11.2461 5.52106 11.1541 5.58252 11.0767 5.66L7.5 9.23833L5.59 7.32667C5.51252 7.24919 5.42054 7.18773 5.31931 7.14579C5.21807 7.10386 5.10957 7.08228 5 7.08228C4.89043 7.08228 4.78193 7.10386 4.68069 7.14579C4.57946 7.18773 4.48748 7.24919 4.41 7.32667C4.33252 7.40415 4.27106 7.49613 4.22913 7.59736C4.1872 7.69859 4.16561 7.80709 4.16561 7.91667C4.16561 8.02624 4.1872 8.13474 4.22913 8.23597C4.27106 8.33721 4.33252 8.42919 4.41 8.50667L6.91 11.0067C6.98741 11.0843 7.07937 11.1458 7.18061 11.1879C7.28185 11.2299 7.39039 11.2515 7.5 11.2515C7.60961 11.2515 7.71815 11.2299 7.81939 11.1879C7.92063 11.1458 8.01259 11.0843 8.09 11.0067L12.2567 6.84Z" fill="#03A9F4"/>
</svg>
