<svg width="48" height="48" viewBox="0 0 48 48" fill="none" xmlns="http://www.w3.org/2000/svg">
<path d="M14.2083 31.584V19.084H33.7916V31.584C33.7916 32.4995 33.0405 33.2507 32.125 33.2507H15.875C14.9595 33.2507 14.2083 32.4995 14.2083 31.584Z" stroke="white"/>
<path d="M33.7916 16.4167V19.1667H14.2083V16.4167C14.2083 15.5011 14.9595 14.75 15.875 14.75H32.125C33.0405 14.75 33.7916 15.5011 33.7916 16.4167Z" stroke="white"/>
<path d="M28.875 12.625C28.2792 12.625 27.7917 13.1125 27.7917 13.7083V16.4167C27.7917 17.0125 28.2792 17.5 28.875 17.5C29.4709 17.5 29.9584 17.0125 29.9584 16.4167V13.7083C29.9584 13.1125 29.4709 12.625 28.875 12.625Z" fill="#B0BEC5"/>
<path d="M19.125 12.625C18.5292 12.625 18.0417 13.1125 18.0417 13.7083V16.4167C18.0417 17.0125 18.5292 17.5 19.125 17.5C19.7209 17.5 20.2084 17.0125 20.2084 16.4167V13.7083C20.2084 13.1125 19.7209 12.625 19.125 12.625Z" fill="#B0BEC5"/>
<path d="M18.0417 21.834H20.2084V24.0007H18.0417V21.834Z" fill="#F9F9F9"/>
<path d="M21.2917 21.834H23.4584V24.0007H21.2917V21.834Z" fill="#F9F9F9"/>
<path d="M24.5417 21.834H26.7084V24.0007H24.5417V21.834Z" fill="#F9F9F9"/>
<path d="M27.7917 21.834H29.9584V24.0007H27.7917V21.834Z" fill="#F9F9F9"/>
<path d="M18.0417 25.084H20.2084V27.2507H18.0417V25.084Z" fill="#F9F9F9"/>
<path d="M21.2917 25.084H23.4584V27.2507H21.2917V25.084Z" fill="#F9F9F9"/>
<path d="M24.5417 25.084H26.7084V27.2507H24.5417V25.084Z" fill="#F9F9F9"/>
<path d="M27.7917 25.084H29.9584V27.2507H27.7917V25.084Z" fill="#F9F9F9"/>
<path d="M18.0417 28.334H20.2084V30.5007H18.0417V28.334Z" fill="#F9F9F9"/>
<path d="M21.2917 28.334H23.4584V30.5007H21.2917V28.334Z" fill="#F9F9F9"/>
<path d="M24.5417 28.334H26.7084V30.5007H24.5417V28.334Z" fill="#F9F9F9"/>
<path d="M27.7917 28.334H29.9584V30.5007H27.7917V28.334Z" fill="#F9F9F9"/>
</svg>
