<svg width="32" height="32" viewBox="0 0 32 32" fill="none" xmlns="http://www.w3.org/2000/svg">
<circle cx="16" cy="16" r="16" fill="#4681B4"/>
<path d="M5.70825 23.5834V10.5834H26.2916V23.5834C26.2916 24.775 25.3166 25.75 24.1249 25.75H7.87492C6.68325 25.75 5.70825 24.775 5.70825 23.5834Z" fill="#CFD8DC"/>
<path d="M26.2916 8.41667V11.6667H5.70825V8.41667C5.70825 7.225 6.68325 6.25 7.87492 6.25H24.1249C25.3166 6.25 26.2916 7.225 26.2916 8.41667Z" fill="#F44336"/>
<path d="M20.875 10.0416C21.7725 10.0416 22.5 9.31409 22.5 8.41663C22.5 7.51916 21.7725 6.79163 20.875 6.79163C19.9775 6.79163 19.25 7.51916 19.25 8.41663C19.25 9.31409 19.9775 10.0416 20.875 10.0416Z" fill="#B71C1C"/>
<path d="M11.125 10.0416C12.0225 10.0416 12.75 9.31409 12.75 8.41663C12.75 7.51916 12.0225 6.79163 11.125 6.79163C10.2275 6.79163 9.5 7.51916 9.5 8.41663C9.5 9.31409 10.2275 10.0416 11.125 10.0416Z" fill="#B71C1C"/>
<path d="M20.8751 4.625C20.2792 4.625 19.7917 5.1125 19.7917 5.70833V8.41667C19.7917 9.0125 20.2792 9.5 20.8751 9.5C21.4709 9.5 21.9584 9.0125 21.9584 8.41667V5.70833C21.9584 5.1125 21.4709 4.625 20.8751 4.625Z" fill="#B0BEC5"/>
<path d="M11.1251 4.625C10.5292 4.625 10.0417 5.1125 10.0417 5.70833V8.41667C10.0417 9.0125 10.5292 9.5 11.1251 9.5C11.7209 9.5 12.2084 9.0125 12.2084 8.41667V5.70833C12.2084 5.1125 11.7209 4.625 11.1251 4.625Z" fill="#B0BEC5"/>
<path d="M21 18.5C21 19.4889 20.7068 20.4556 20.1573 21.2778C19.6079 22.1001 18.827 22.741 17.9134 23.1194C16.9998 23.4978 15.9945 23.5969 15.0245 23.4039C14.0546 23.211 13.1637 22.7348 12.4645 22.0355C11.7652 21.3363 11.289 20.4454 11.0961 19.4755C10.9031 18.5055 11.0022 17.5002 11.3806 16.5866C11.759 15.673 12.3999 14.8921 13.2222 14.3427C14.0444 13.7932 15.0111 13.5 16 13.5C17.3261 13.5 18.5979 14.0268 19.5355 14.9645C20.4732 15.9021 21 17.1739 21 18.5ZM18.3719 18.0312H16.4688V16.1281C16.4688 16.0038 16.4194 15.8846 16.3315 15.7967C16.2435 15.7088 16.1243 15.6594 16 15.6594C15.8757 15.6594 15.7565 15.7088 15.6685 15.7967C15.5806 15.8846 15.5313 16.0038 15.5313 16.1281V18.0312H13.6281C13.5038 18.0312 13.3846 18.0806 13.2967 18.1685C13.2088 18.2565 13.1594 18.3757 13.1594 18.5C13.1594 18.6243 13.2088 18.7435 13.2967 18.8315C13.3846 18.9194 13.5038 18.9687 13.6281 18.9687H15.5313V20.8719C15.5313 20.9962 15.5806 21.1154 15.6685 21.2033C15.7565 21.2912 15.8757 21.3406 16 21.3406C16.1243 21.3406 16.2435 21.2912 16.3315 21.2033C16.4194 21.1154 16.4688 20.9962 16.4688 20.8719V18.9687H18.3719C18.4962 18.9687 18.6154 18.9194 18.7033 18.8315C18.7912 18.7435 18.8406 18.6243 18.8406 18.5C18.8406 18.3757 18.7912 18.2565 18.7033 18.1685C18.6154 18.0806 18.4962 18.0312 18.3719 18.0312Z" fill="#90A4AE"/>
</svg>
