<svg width="24" height="24" viewBox="0 0 24 24" fill="none" xmlns="http://www.w3.org/2000/svg">
<path fill-rule="evenodd" clip-rule="evenodd" d="M8 1C7.44772 1 7 1.44772 7 2V3.00023H4C2.89543 3.00023 2 3.89566 2 5.00023V20.0002C2 21.1048 2.89543 22.0002 4 22.0002H20C21.1046 22.0002 22 21.1048 22 20.0002V5.00023C22 3.89566 21.1046 3.00023 20 3.00023H17V2C17 1.44772 16.5523 1 16 1C15.4477 1 15 1.44772 15 2V3.00023H9V2C9 1.44772 8.55228 1 8 1ZM3.99998 10H20V20.0002H3.99998V10Z" fill="white"/>
</svg>
