<svg width="26" height="26" viewBox="0 0 26 26" fill="none" xmlns="http://www.w3.org/2000/svg">
<path d="M2.70837 20.5833V7.58334H23.2917V20.5833C23.2917 21.775 22.3167 22.75 21.125 22.75H4.87504C3.68337 22.75 2.70837 21.775 2.70837 20.5833Z" fill="#CFD8DC"/>
<path d="M23.2917 5.41667V8.66667H2.70837V5.41667C2.70837 4.225 3.68337 3.25 4.87504 3.25H21.125C22.3167 3.25 23.2917 4.225 23.2917 5.41667Z" fill="#F44336"/>
<path d="M17.875 7.04166C18.7725 7.04166 19.5 6.31412 19.5 5.41666C19.5 4.51919 18.7725 3.79166 17.875 3.79166C16.9775 3.79166 16.25 4.51919 16.25 5.41666C16.25 6.31412 16.9775 7.04166 17.875 7.04166Z" fill="#B71C1C"/>
<path d="M8.125 7.04166C9.02246 7.04166 9.75 6.31412 9.75 5.41666C9.75 4.51919 9.02246 3.79166 8.125 3.79166C7.22754 3.79166 6.5 4.51919 6.5 5.41666C6.5 6.31412 7.22754 7.04166 8.125 7.04166Z" fill="#B71C1C"/>
<path d="M17.875 1.625C17.2791 1.625 16.7916 2.1125 16.7916 2.70833V5.41667C16.7916 6.0125 17.2791 6.5 17.875 6.5C18.4708 6.5 18.9583 6.0125 18.9583 5.41667V2.70833C18.9583 2.1125 18.4708 1.625 17.875 1.625Z" fill="#B0BEC5"/>
<path d="M8.12496 1.625C7.52913 1.625 7.04163 2.1125 7.04163 2.70833V5.41667C7.04163 6.0125 7.52913 6.5 8.12496 6.5C8.72079 6.5 9.20829 6.0125 9.20829 5.41667V2.70833C9.20829 2.1125 8.72079 1.625 8.12496 1.625Z" fill="#B0BEC5"/>
<path d="M7.04163 10.8333H9.20829V13H7.04163V10.8333Z" fill="#90A4AE"/>
<path d="M10.2916 10.8333H12.4583V13H10.2916V10.8333Z" fill="#90A4AE"/>
<path d="M13.5416 10.8333H15.7083V13H13.5416V10.8333Z" fill="#90A4AE"/>
<path d="M16.7916 10.8333H18.9583V13H16.7916V10.8333Z" fill="#90A4AE"/>
<path d="M7.04163 14.0833H9.20829V16.25H7.04163V14.0833Z" fill="#90A4AE"/>
<path d="M10.2916 14.0833H12.4583V16.25H10.2916V14.0833Z" fill="#90A4AE"/>
<path d="M13.5416 14.0833H15.7083V16.25H13.5416V14.0833Z" fill="#90A4AE"/>
<path d="M16.7916 14.0833H18.9583V16.25H16.7916V14.0833Z" fill="#90A4AE"/>
<path d="M7.04163 17.3333H9.20829V19.5H7.04163V17.3333Z" fill="#90A4AE"/>
<path d="M10.2916 17.3333H12.4583V19.5H10.2916V17.3333Z" fill="#90A4AE"/>
<path d="M13.5416 17.3333H15.7083V19.5H13.5416V17.3333Z" fill="#90A4AE"/>
<path d="M16.7916 17.3333H18.9583V19.5H16.7916V17.3333Z" fill="#90A4AE"/>
</svg>
